%TF.GenerationSoftware,KiCad,Pcbnew,7.0.10*%
%TF.CreationDate,2024-03-02T17:10:40+01:00*%
%TF.ProjectId,explorer,6578706c-6f72-4657-922e-6b696361645f,rev?*%
%TF.SameCoordinates,Original*%
%TF.FileFunction,Paste,Top*%
%TF.FilePolarity,Positive*%
%FSLAX46Y46*%
G04 Gerber Fmt 4.6, Leading zero omitted, Abs format (unit mm)*
G04 Created by KiCad (PCBNEW 7.0.10) date 2024-03-02 17:10:40*
%MOMM*%
%LPD*%
G01*
G04 APERTURE LIST*
G04 Aperture macros list*
%AMRoundRect*
0 Rectangle with rounded corners*
0 $1 Rounding radius*
0 $2 $3 $4 $5 $6 $7 $8 $9 X,Y pos of 4 corners*
0 Add a 4 corners polygon primitive as box body*
4,1,4,$2,$3,$4,$5,$6,$7,$8,$9,$2,$3,0*
0 Add four circle primitives for the rounded corners*
1,1,$1+$1,$2,$3*
1,1,$1+$1,$4,$5*
1,1,$1+$1,$6,$7*
1,1,$1+$1,$8,$9*
0 Add four rect primitives between the rounded corners*
20,1,$1+$1,$2,$3,$4,$5,0*
20,1,$1+$1,$4,$5,$6,$7,0*
20,1,$1+$1,$6,$7,$8,$9,0*
20,1,$1+$1,$8,$9,$2,$3,0*%
G04 Aperture macros list end*
%ADD10RoundRect,0.250000X0.450000X-0.350000X0.450000X0.350000X-0.450000X0.350000X-0.450000X-0.350000X0*%
%ADD11RoundRect,0.250000X0.475000X-0.337500X0.475000X0.337500X-0.475000X0.337500X-0.475000X-0.337500X0*%
%ADD12RoundRect,0.250000X-1.950000X-1.000000X1.950000X-1.000000X1.950000X1.000000X-1.950000X1.000000X0*%
%ADD13R,0.650000X1.525000*%
%ADD14R,1.300000X2.000000*%
%ADD15R,2.000000X2.000000*%
%ADD16RoundRect,0.250000X-0.350000X-0.450000X0.350000X-0.450000X0.350000X0.450000X-0.350000X0.450000X0*%
%ADD17RoundRect,0.250000X0.337500X0.475000X-0.337500X0.475000X-0.337500X-0.475000X0.337500X-0.475000X0*%
%ADD18RoundRect,0.250000X-0.450000X0.350000X-0.450000X-0.350000X0.450000X-0.350000X0.450000X0.350000X0*%
%ADD19RoundRect,0.112500X0.187500X0.112500X-0.187500X0.112500X-0.187500X-0.112500X0.187500X-0.112500X0*%
G04 APERTURE END LIST*
D10*
%TO.C,R2*%
X67300000Y58100000D03*
X67300000Y60100000D03*
%TD*%
D11*
%TO.C,C2*%
X67300000Y62425000D03*
X67300000Y64500000D03*
%TD*%
%TO.C,C10*%
X88900000Y62600000D03*
X88900000Y64675000D03*
%TD*%
D12*
%TO.C,C6*%
X78664000Y71576000D03*
X86064000Y71576000D03*
%TD*%
D10*
%TO.C,R1*%
X64300000Y58100000D03*
X64300000Y60100000D03*
%TD*%
D13*
%TO.C,IC2*%
X81724000Y58700000D03*
X82994000Y58700000D03*
X84264000Y58700000D03*
X85534000Y58700000D03*
X85534000Y64124000D03*
X84264000Y64124000D03*
X82994000Y64124000D03*
X81724000Y64124000D03*
%TD*%
D12*
%TO.C,C4*%
X64804000Y71576000D03*
X72204000Y71576000D03*
%TD*%
D13*
%TO.C,IC1*%
X57290000Y58700000D03*
X58560000Y58700000D03*
X59830000Y58700000D03*
X61100000Y58700000D03*
X61100000Y64124000D03*
X59830000Y64124000D03*
X58560000Y64124000D03*
X57290000Y64124000D03*
%TD*%
D14*
%TO.C,RV1*%
X74079000Y63412000D03*
D15*
X75229000Y59412000D03*
D14*
X76379000Y63412000D03*
%TD*%
D16*
%TO.C,R4*%
X58488000Y66623000D03*
X60488000Y66623000D03*
%TD*%
D17*
%TO.C,C8*%
X53195000Y61312000D03*
X51120000Y61312000D03*
%TD*%
D11*
%TO.C,C5*%
X70375000Y62425000D03*
X70375000Y64500000D03*
%TD*%
%TO.C,C3*%
X79300000Y60375000D03*
X79300000Y62450000D03*
%TD*%
%TO.C,C1*%
X64300000Y62425000D03*
X64300000Y64500000D03*
%TD*%
D18*
%TO.C,R3*%
X88900000Y60100000D03*
X88900000Y58100000D03*
%TD*%
D17*
%TO.C,C7*%
X53195000Y64112000D03*
X51120000Y64112000D03*
%TD*%
D19*
%TO.C,D1*%
X73950000Y53100000D03*
X71850000Y53100000D03*
%TD*%
D17*
%TO.C,C9*%
X53232500Y58712000D03*
X51157500Y58712000D03*
%TD*%
M02*
