M48
; DRILL file {KiCad 7.0.10} date Sat 02 Mar 2024 05:10:40 PM CET
; FORMAT={-:-/ absolute / inch / decimal}
; #@! TF.CreationDate,2024-03-02T17:10:40+01:00
; #@! TF.GenerationSoftware,Kicad,Pcbnew,7.0.10
; #@! TF.FileFunction,Plated,1,2,PTH
FMAT,2
INCH
; #@! TA.AperFunction,Plated,PTH,ViaDrill
T1C0.0157
; #@! TA.AperFunction,Plated,PTH,ComponentDrill
T2C0.0394
; #@! TA.AperFunction,Plated,PTH,ComponentDrill
T3C0.0551
%
G90
G05
T1
X1.9567Y2.5236
X1.9567Y2.4134
X1.9567Y2.311
X2.2756Y2.4409
X2.2756Y2.3937
X2.3307Y2.4409
X2.3307Y2.3937
X2.3858Y2.4409
X2.3858Y2.3937
X2.4685Y2.5394
X2.5906Y2.5394
X2.7126Y2.5394
X3.2177Y2.418
X3.2677Y2.463
X3.2677Y2.418
X3.2677Y2.378
X3.3177Y2.418
X3.3177Y2.378
X3.3677Y2.378
T2
X2.3427Y2.943
X2.3427Y2.843
X2.3427Y2.743
X3.6811Y2.4376
X3.6811Y2.3376
T3
X3.2638Y1.9528
X3.4197Y1.9528
T2
G00X2.437Y2.0709
M15
G01X2.5157Y2.0709
M16
G05
G00X2.437Y1.8346
M15
G01X2.5157Y1.8346
M16
G05
G00X2.6614Y1.9134
M15
G01X2.6614Y1.9921
M16
G05
M30
