%TF.GenerationSoftware,KiCad,Pcbnew,7.0.10*%
%TF.CreationDate,2024-03-02T17:10:40+01:00*%
%TF.ProjectId,explorer,6578706c-6f72-4657-922e-6b696361645f,rev?*%
%TF.SameCoordinates,Original*%
%TF.FileFunction,Copper,L1,Top*%
%TF.FilePolarity,Positive*%
%FSLAX46Y46*%
G04 Gerber Fmt 4.6, Leading zero omitted, Abs format (unit mm)*
G04 Created by KiCad (PCBNEW 7.0.10) date 2024-03-02 17:10:40*
%MOMM*%
%LPD*%
G01*
G04 APERTURE LIST*
G04 Aperture macros list*
%AMRoundRect*
0 Rectangle with rounded corners*
0 $1 Rounding radius*
0 $2 $3 $4 $5 $6 $7 $8 $9 X,Y pos of 4 corners*
0 Add a 4 corners polygon primitive as box body*
4,1,4,$2,$3,$4,$5,$6,$7,$8,$9,$2,$3,0*
0 Add four circle primitives for the rounded corners*
1,1,$1+$1,$2,$3*
1,1,$1+$1,$4,$5*
1,1,$1+$1,$6,$7*
1,1,$1+$1,$8,$9*
0 Add four rect primitives between the rounded corners*
20,1,$1+$1,$2,$3,$4,$5,0*
20,1,$1+$1,$4,$5,$6,$7,0*
20,1,$1+$1,$6,$7,$8,$9,0*
20,1,$1+$1,$8,$9,$2,$3,0*%
G04 Aperture macros list end*
%TA.AperFunction,SMDPad,CuDef*%
%ADD10RoundRect,0.250000X0.450000X-0.350000X0.450000X0.350000X-0.450000X0.350000X-0.450000X-0.350000X0*%
%TD*%
%TA.AperFunction,SMDPad,CuDef*%
%ADD11RoundRect,0.250000X0.475000X-0.337500X0.475000X0.337500X-0.475000X0.337500X-0.475000X-0.337500X0*%
%TD*%
%TA.AperFunction,ComponentPad*%
%ADD12R,3.500000X3.500000*%
%TD*%
%TA.AperFunction,ComponentPad*%
%ADD13RoundRect,0.750000X1.000000X-0.750000X1.000000X0.750000X-1.000000X0.750000X-1.000000X-0.750000X0*%
%TD*%
%TA.AperFunction,ComponentPad*%
%ADD14RoundRect,0.875000X0.875000X-0.875000X0.875000X0.875000X-0.875000X0.875000X-0.875000X-0.875000X0*%
%TD*%
%TA.AperFunction,SMDPad,CuDef*%
%ADD15RoundRect,0.250000X-1.950000X-1.000000X1.950000X-1.000000X1.950000X1.000000X-1.950000X1.000000X0*%
%TD*%
%TA.AperFunction,SMDPad,CuDef*%
%ADD16R,0.650000X1.525000*%
%TD*%
%TA.AperFunction,SMDPad,CuDef*%
%ADD17R,1.300000X2.000000*%
%TD*%
%TA.AperFunction,SMDPad,CuDef*%
%ADD18R,2.000000X2.000000*%
%TD*%
%TA.AperFunction,SMDPad,CuDef*%
%ADD19RoundRect,0.250000X-0.350000X-0.450000X0.350000X-0.450000X0.350000X0.450000X-0.350000X0.450000X0*%
%TD*%
%TA.AperFunction,ComponentPad*%
%ADD20R,1.700000X1.700000*%
%TD*%
%TA.AperFunction,ComponentPad*%
%ADD21O,1.700000X1.700000*%
%TD*%
%TA.AperFunction,ComponentPad*%
%ADD22RoundRect,0.250001X-0.949999X-0.949999X0.949999X-0.949999X0.949999X0.949999X-0.949999X0.949999X0*%
%TD*%
%TA.AperFunction,ComponentPad*%
%ADD23C,2.400000*%
%TD*%
%TA.AperFunction,SMDPad,CuDef*%
%ADD24RoundRect,0.250000X0.337500X0.475000X-0.337500X0.475000X-0.337500X-0.475000X0.337500X-0.475000X0*%
%TD*%
%TA.AperFunction,SMDPad,CuDef*%
%ADD25RoundRect,0.250000X-0.450000X0.350000X-0.450000X-0.350000X0.450000X-0.350000X0.450000X0.350000X0*%
%TD*%
%TA.AperFunction,SMDPad,CuDef*%
%ADD26RoundRect,0.112500X0.187500X0.112500X-0.187500X0.112500X-0.187500X-0.112500X0.187500X-0.112500X0*%
%TD*%
%TA.AperFunction,ViaPad*%
%ADD27C,0.800000*%
%TD*%
%TA.AperFunction,Conductor*%
%ADD28C,0.350000*%
%TD*%
%TA.AperFunction,Conductor*%
%ADD29C,0.300000*%
%TD*%
%TA.AperFunction,Conductor*%
%ADD30C,1.000000*%
%TD*%
G04 APERTURE END LIST*
D10*
%TO.P,R2,1*%
%TO.N,Net-(C1-Pad1)*%
X67300000Y58100000D03*
%TO.P,R2,2*%
%TO.N,/FILTER_OUT*%
X67300000Y60100000D03*
%TD*%
D11*
%TO.P,C2,1*%
%TO.N,/FILTER_OUT*%
X67300000Y62425000D03*
%TO.P,C2,2*%
%TO.N,GND*%
X67300000Y64500000D03*
%TD*%
%TO.P,C10,1*%
%TO.N,Net-(C10-Pad1)*%
X88900000Y62600000D03*
%TO.P,C10,2*%
%TO.N,/AUDIO_OUT*%
X88900000Y64675000D03*
%TD*%
D12*
%TO.P,J2,1,Pin_1*%
%TO.N,/PWR*%
X62900000Y52600000D03*
D13*
%TO.P,J2,2,Pin_2*%
%TO.N,GND*%
X62900000Y46600000D03*
D14*
%TO.P,J2,3,Pin_3*%
X67600000Y49600000D03*
%TD*%
D15*
%TO.P,C6,1*%
%TO.N,/AUDIO_OUT*%
X78664000Y71576000D03*
%TO.P,C6,2*%
%TO.N,/AUDIO_OUT_FILTER*%
X86064000Y71576000D03*
%TD*%
D10*
%TO.P,R1,1*%
%TO.N,/DAC_OUT*%
X64300000Y58100000D03*
%TO.P,R1,2*%
%TO.N,Net-(C1-Pad1)*%
X64300000Y60100000D03*
%TD*%
D16*
%TO.P,IC2,1,GAIN_1*%
%TO.N,Net-(IC2-GAIN_1)*%
X81724000Y58700000D03*
%TO.P,IC2,2,-INPUT*%
%TO.N,GND*%
X82994000Y58700000D03*
%TO.P,IC2,3,+INPUT*%
%TO.N,Net-(IC2-+INPUT)*%
X84264000Y58700000D03*
%TO.P,IC2,4,GND*%
%TO.N,GND*%
X85534000Y58700000D03*
%TO.P,IC2,5,VOUT*%
%TO.N,/AUDIO_OUT*%
X85534000Y64124000D03*
%TO.P,IC2,6,VS*%
%TO.N,VCC*%
X84264000Y64124000D03*
%TO.P,IC2,7,BYPASS*%
%TO.N,unconnected-(IC2-BYPASS-Pad7)*%
X82994000Y64124000D03*
%TO.P,IC2,8,GAIN_2*%
%TO.N,Net-(IC2-GAIN_2)*%
X81724000Y64124000D03*
%TD*%
D15*
%TO.P,C4,1*%
%TO.N,VCC*%
X64804000Y71576000D03*
%TO.P,C4,2*%
%TO.N,GND*%
X72204000Y71576000D03*
%TD*%
D16*
%TO.P,IC1,1,VDD*%
%TO.N,VCC*%
X57290000Y58700000D03*
%TO.P,IC1,2,PA6*%
%TO.N,/DAC_OUT*%
X58560000Y58700000D03*
%TO.P,IC1,3,PA7*%
%TO.N,unconnected-(IC1-PA7-Pad3)*%
X59830000Y58700000D03*
%TO.P,IC1,4,PA1*%
%TO.N,unconnected-(IC1-PA1-Pad4)*%
X61100000Y58700000D03*
%TO.P,IC1,5,PA2*%
%TO.N,unconnected-(IC1-PA2-Pad5)*%
X61100000Y64124000D03*
%TO.P,IC1,6,PA0/~{RESET}/UPDI*%
%TO.N,/PROG*%
X59830000Y64124000D03*
%TO.P,IC1,7,PA3/EXTCLK*%
%TO.N,unconnected-(IC1-PA3{slash}EXTCLK-Pad7)*%
X58560000Y64124000D03*
%TO.P,IC1,8,GND*%
%TO.N,GND*%
X57290000Y64124000D03*
%TD*%
D17*
%TO.P,RV1,1,1*%
%TO.N,Net-(C5-Pad2)*%
X74079000Y63412000D03*
D18*
%TO.P,RV1,2,2*%
%TO.N,Net-(IC2-+INPUT)*%
X75229000Y59412000D03*
D17*
%TO.P,RV1,3,3*%
%TO.N,GND*%
X76379000Y63412000D03*
%TD*%
D19*
%TO.P,R4,1*%
%TO.N,/PROG*%
X58488000Y66623000D03*
%TO.P,R4,2*%
%TO.N,Net-(JPROG1-Pin_3)*%
X60488000Y66623000D03*
%TD*%
D20*
%TO.P,JSPK1,1,Pin_1*%
%TO.N,GND*%
X93500000Y59376000D03*
D21*
%TO.P,JSPK1,2,Pin_2*%
%TO.N,/AUDIO_OUT_FILTER*%
X93500000Y61916000D03*
%TD*%
D22*
%TO.P,J1,1,Pin_1*%
%TO.N,/PWR*%
X82900000Y49600000D03*
D23*
%TO.P,J1,2,Pin_2*%
%TO.N,GND*%
X86860000Y49600000D03*
%TD*%
D24*
%TO.P,C8,1*%
%TO.N,VCC*%
X53195000Y61312000D03*
%TO.P,C8,2*%
%TO.N,GND*%
X51120000Y61312000D03*
%TD*%
D11*
%TO.P,C5,1*%
%TO.N,/FILTER_OUT*%
X70375000Y62425000D03*
%TO.P,C5,2*%
%TO.N,Net-(C5-Pad2)*%
X70375000Y64500000D03*
%TD*%
%TO.P,C3,1*%
%TO.N,Net-(IC2-GAIN_1)*%
X79300000Y60375000D03*
%TO.P,C3,2*%
%TO.N,Net-(IC2-GAIN_2)*%
X79300000Y62450000D03*
%TD*%
%TO.P,C1,1*%
%TO.N,Net-(C1-Pad1)*%
X64300000Y62425000D03*
%TO.P,C1,2*%
%TO.N,GND*%
X64300000Y64500000D03*
%TD*%
D20*
%TO.P,JPROG1,1,Pin_1*%
%TO.N,VCC*%
X59504000Y74751000D03*
D21*
%TO.P,JPROG1,2,Pin_2*%
%TO.N,GND*%
X59504000Y72211000D03*
%TO.P,JPROG1,3,Pin_3*%
%TO.N,Net-(JPROG1-Pin_3)*%
X59504000Y69671000D03*
%TD*%
D25*
%TO.P,R3,1*%
%TO.N,Net-(C10-Pad1)*%
X88900000Y60100000D03*
%TO.P,R3,2*%
%TO.N,GND*%
X88900000Y58100000D03*
%TD*%
D24*
%TO.P,C7,1*%
%TO.N,VCC*%
X53195000Y64112000D03*
%TO.P,C7,2*%
%TO.N,GND*%
X51120000Y64112000D03*
%TD*%
D26*
%TO.P,D1,1,K*%
%TO.N,VCC*%
X73950000Y53100000D03*
%TO.P,D1,2,A*%
%TO.N,/PWR*%
X71850000Y53100000D03*
%TD*%
D24*
%TO.P,C9,1*%
%TO.N,VCC*%
X53232500Y58712000D03*
%TO.P,C9,2*%
%TO.N,GND*%
X51157500Y58712000D03*
%TD*%
D27*
%TO.N,GND*%
X60600000Y60800000D03*
X57800000Y60800000D03*
X60600000Y62000000D03*
X57800000Y62000000D03*
X59200000Y62000000D03*
X65800000Y64500000D03*
X59200000Y60800000D03*
X49700000Y61300000D03*
X81729000Y61416000D03*
X82999000Y62559000D03*
X62700000Y64500000D03*
X85539000Y60400000D03*
X84269000Y60400000D03*
X49700000Y58700000D03*
X82999000Y61416000D03*
X68900000Y64500000D03*
X49700000Y64100000D03*
X84269000Y61416000D03*
X82999000Y60400000D03*
%TD*%
D28*
%TO.N,Net-(C1-Pad1)*%
X65600000Y60090400D02*
X65600000Y60100000D01*
X65900000Y60100000D02*
X65900000Y60400000D01*
X65900000Y61900000D02*
X65375000Y62425000D01*
X65600000Y60100000D02*
X65900000Y60400000D01*
X65375000Y62425000D02*
X64300000Y62425000D01*
X65600000Y60090400D02*
X65900000Y59790400D01*
X66500000Y58100000D02*
X65900000Y58700000D01*
X65600000Y60100000D02*
X65900000Y60100000D01*
X65900000Y58700000D02*
X65900000Y59790400D01*
X64300000Y60100000D02*
X65600000Y60100000D01*
X65900000Y59790400D02*
X65900000Y60100000D01*
X65900000Y60400000D02*
X65900000Y61900000D01*
X67300000Y58100000D02*
X66500000Y58100000D01*
D29*
%TO.N,GND*%
X82999000Y58705000D02*
X82994000Y58700000D01*
X82999000Y60400000D02*
X82999000Y58705000D01*
D28*
%TO.N,/FILTER_OUT*%
X68895000Y62127200D02*
X68597200Y62425000D01*
X68900000Y60700000D02*
X68300000Y60100000D01*
X68900000Y62425000D02*
X68900000Y62127200D01*
X68900000Y62425000D02*
X69206800Y62425000D01*
X68909000Y62127200D02*
X68895000Y62127200D01*
X68909000Y62127200D02*
X69206800Y62425000D01*
X68900000Y62127200D02*
X68909000Y62127200D01*
X67300000Y62425000D02*
X68597200Y62425000D01*
X68300000Y60100000D02*
X67300000Y60100000D01*
X69206800Y62425000D02*
X70375000Y62425000D01*
X68597200Y62425000D02*
X68900000Y62425000D01*
X68900000Y62127200D02*
X68900000Y60700000D01*
%TO.N,Net-(IC2-GAIN_1)*%
X81225000Y60375000D02*
X81724000Y59876000D01*
X81724000Y59876000D02*
X81724000Y58700000D01*
X79300000Y60375000D02*
X81225000Y60375000D01*
%TO.N,Net-(IC2-GAIN_2)*%
X81724000Y63024000D02*
X81724000Y64124000D01*
X81150000Y62450000D02*
X81724000Y63024000D01*
X79300000Y62450000D02*
X81150000Y62450000D01*
%TO.N,Net-(C5-Pad2)*%
X72838000Y63412000D02*
X74079000Y63412000D01*
X70375000Y64500000D02*
X71750000Y64500000D01*
X71750000Y64500000D02*
X72838000Y63412000D01*
D30*
%TO.N,VCC*%
X53195000Y61312000D02*
X54678000Y61312000D01*
X54678000Y61312000D02*
X55395000Y61312000D01*
X85800000Y55700000D02*
X86936000Y56836000D01*
X54783000Y61312000D02*
X55395000Y61924000D01*
X73950000Y54950000D02*
X73950000Y55650000D01*
X54797000Y58712000D02*
X55395000Y58114000D01*
X56202000Y58700000D02*
X57290000Y58700000D01*
X73150000Y55700000D02*
X72712000Y55700000D01*
X54789000Y64112000D02*
X55395000Y64718000D01*
X85752000Y62600000D02*
X84736000Y62600000D01*
X55395000Y61924000D02*
X55395000Y63448000D01*
X55395000Y58712000D02*
X55407000Y58700000D01*
X84264000Y65495250D02*
X83263250Y66496000D01*
X56330000Y55700000D02*
X55395000Y56635000D01*
X74650000Y55650000D02*
X74650000Y55700000D01*
X84736000Y62600000D02*
X84264000Y63072000D01*
X72712000Y55700000D02*
X71899200Y55700000D01*
X54678000Y61312000D02*
X54783000Y61312000D01*
X54731000Y64112000D02*
X54789000Y64112000D01*
X54678000Y64112000D02*
X54731000Y64112000D01*
X54678000Y58712000D02*
X55395000Y58712000D01*
X86936000Y56836000D02*
X86936000Y61416000D01*
X86936000Y61416000D02*
X85752000Y62600000D01*
X71899200Y55700000D02*
X56330000Y55700000D01*
X73575600Y55700000D02*
X73150000Y55700000D01*
X53195000Y64112000D02*
X54678000Y64112000D01*
X54737000Y61312000D02*
X55395000Y60654000D01*
X54678000Y58712000D02*
X54797000Y58712000D01*
X55395000Y59384000D02*
X55395000Y60654000D01*
X55395000Y64718000D02*
X55395000Y71785000D01*
X73900000Y55700000D02*
X73575600Y55700000D01*
X53232500Y58712000D02*
X54678000Y58712000D01*
X55395000Y56635000D02*
X55395000Y58114000D01*
X73950000Y53100000D02*
X73950000Y54950000D01*
X54731000Y64112000D02*
X55395000Y63448000D01*
X73900000Y54950000D02*
X73150000Y55700000D01*
X55395000Y71785000D02*
X58361000Y74751000D01*
X55395000Y63448000D02*
X55395000Y64112000D01*
X55395000Y61312000D02*
X55395000Y61924000D01*
X54678000Y64112000D02*
X55395000Y64112000D01*
X64804000Y68816000D02*
X64804000Y71576000D01*
X67124000Y66496000D02*
X64804000Y68816000D01*
X56079000Y58700000D02*
X55395000Y59384000D01*
X55395000Y58114000D02*
X55395000Y58712000D01*
X56079000Y58700000D02*
X55981000Y58700000D01*
X85800000Y55700000D02*
X74650000Y55700000D01*
X56202000Y58700000D02*
X56079000Y58700000D01*
X55981000Y58700000D02*
X55395000Y58114000D01*
X73950000Y54950000D02*
X74650000Y55650000D01*
X74650000Y55700000D02*
X73900000Y55700000D01*
X54797000Y58712000D02*
X54797000Y58786000D01*
X55395000Y64112000D02*
X55395000Y64718000D01*
X58361000Y74751000D02*
X59504000Y74751000D01*
X55395000Y60654000D02*
X55395000Y61312000D01*
X73950000Y54950000D02*
X73900000Y54950000D01*
X73950000Y55650000D02*
X73900000Y55700000D01*
X54797000Y58786000D02*
X55395000Y59384000D01*
X55407000Y58700000D02*
X56202000Y58700000D01*
X84264000Y64124000D02*
X84264000Y65495250D01*
X55395000Y58712000D02*
X55395000Y59384000D01*
X84264000Y63072000D02*
X84264000Y64124000D01*
X54678000Y61312000D02*
X54737000Y61312000D01*
X83263250Y66496000D02*
X67124000Y66496000D01*
D28*
%TO.N,Net-(C10-Pad1)*%
X88900000Y60100000D02*
X88900000Y62600000D01*
%TO.N,/DAC_OUT*%
X59100000Y57100000D02*
X61919000Y57100000D01*
X62919000Y58100000D02*
X64300000Y58100000D01*
X58560000Y57640000D02*
X59100000Y57100000D01*
X58560000Y58700000D02*
X58560000Y57640000D01*
X61919000Y57100000D02*
X62919000Y58100000D01*
%TO.N,Net-(IC2-+INPUT)*%
X84264000Y57514000D02*
X84264000Y58700000D01*
X83750000Y57000000D02*
X84264000Y57514000D01*
X76250000Y57000000D02*
X83750000Y57000000D01*
X75229000Y59412000D02*
X75229000Y58021000D01*
X75229000Y58021000D02*
X76250000Y57000000D01*
D30*
%TO.N,/PWR*%
X70010000Y53100000D02*
X69990000Y53100000D01*
X71310000Y53100000D02*
X70660000Y53100000D01*
X70660000Y51340000D02*
X70660000Y52450000D01*
X66400000Y53100000D02*
X65900000Y52600000D01*
X70660000Y53100000D02*
X69990000Y53100000D01*
X72400000Y49600000D02*
X70660000Y51340000D01*
X70660000Y52450000D02*
X71310000Y53100000D01*
X70660000Y52450000D02*
X70010000Y53100000D01*
X69990000Y53100000D02*
X66400000Y53100000D01*
X65900000Y52600000D02*
X62900000Y52600000D01*
X71850000Y53100000D02*
X71310000Y53100000D01*
X82900000Y49600000D02*
X72400000Y49600000D01*
X70660000Y52450000D02*
X70660000Y53100000D01*
%TO.N,/AUDIO_OUT_FILTER*%
X88968000Y71576000D02*
X91000000Y69544000D01*
X91000000Y64416000D02*
X93500000Y61916000D01*
X91000000Y69544000D02*
X91000000Y64416000D01*
X86064000Y71576000D02*
X88968000Y71576000D01*
%TO.N,/AUDIO_OUT*%
X85534000Y68020000D02*
X85534000Y68142000D01*
X84904000Y68782000D02*
X84904000Y68650000D01*
X85534000Y64124000D02*
X85534000Y68020000D01*
X85412000Y68782000D02*
X86174000Y68782000D01*
X85534000Y68142000D02*
X86174000Y68782000D01*
X86174000Y68782000D02*
X88206000Y68782000D01*
X78664000Y71576000D02*
X78664000Y69688000D01*
X84904000Y68650000D02*
X85534000Y68020000D01*
X85534000Y68020000D02*
X85534000Y68660000D01*
X84904000Y68782000D02*
X85412000Y68782000D01*
X78664000Y69688000D02*
X79570000Y68782000D01*
X88206000Y68782000D02*
X88900000Y68088000D01*
X79570000Y68782000D02*
X84904000Y68782000D01*
X88900000Y68088000D02*
X88900000Y64675000D01*
X85534000Y68660000D02*
X85412000Y68782000D01*
D28*
%TO.N,Net-(JPROG1-Pin_3)*%
X60488000Y66623000D02*
X60488000Y68687000D01*
X60488000Y68687000D02*
X59504000Y69671000D01*
%TO.N,/PROG*%
X59830000Y65281000D02*
X59830000Y64124000D01*
X59504000Y65607000D02*
X59830000Y65281000D01*
X58742000Y65607000D02*
X59504000Y65607000D01*
X58488000Y66623000D02*
X58488000Y65861000D01*
X58488000Y65861000D02*
X58742000Y65607000D01*
%TD*%
%TA.AperFunction,Conductor*%
%TO.N,GND*%
G36*
X69602539Y52079815D02*
G01*
X69648294Y52027011D01*
X69659500Y51975500D01*
X69659500Y51541437D01*
X69639815Y51474398D01*
X69587011Y51428643D01*
X69517853Y51418699D01*
X69454873Y51447460D01*
X69454815Y51447392D01*
X69454568Y51447600D01*
X69454297Y51447724D01*
X69453107Y51448831D01*
X69271848Y51601655D01*
X69271841Y51601660D01*
X69069975Y51720120D01*
X68850987Y51802762D01*
X68621190Y51847205D01*
X68568617Y51849998D01*
X68568578Y51849999D01*
X67850000Y51849999D01*
X67850000Y51033686D01*
X67809844Y51059493D01*
X67671889Y51100000D01*
X67528111Y51100000D01*
X67390156Y51059493D01*
X67350000Y51033686D01*
X67350000Y51849999D01*
X66864282Y51849999D01*
X66797243Y51869684D01*
X66751488Y51922488D01*
X66741544Y51991646D01*
X66770569Y52055202D01*
X66776601Y52061680D01*
X66778102Y52063181D01*
X66839425Y52096666D01*
X66865783Y52099500D01*
X69535500Y52099500D01*
X69602539Y52079815D01*
G37*
%TD.AperFunction*%
%TA.AperFunction,Conductor*%
G36*
X81071836Y65475815D02*
G01*
X81117591Y65423011D01*
X81127535Y65353853D01*
X81098510Y65290297D01*
X81079112Y65272237D01*
X81041454Y65244046D01*
X81040715Y65243059D01*
X80955206Y65128835D01*
X80955202Y65128828D01*
X80904908Y64993982D01*
X80898501Y64934383D01*
X80898501Y64934376D01*
X80898500Y64934364D01*
X80898500Y63313629D01*
X80898501Y63313627D01*
X80903623Y63265977D01*
X80903970Y63262754D01*
X80891563Y63193994D01*
X80843952Y63142858D01*
X80780680Y63125500D01*
X80517508Y63125500D01*
X80450469Y63145185D01*
X80411969Y63184403D01*
X80367712Y63256156D01*
X80243656Y63380212D01*
X80094334Y63472314D01*
X79927797Y63527499D01*
X79825009Y63538000D01*
X78774992Y63537999D01*
X78774984Y63537998D01*
X78774980Y63537998D01*
X78698732Y63530209D01*
X78672203Y63527499D01*
X78505666Y63472314D01*
X78356344Y63380212D01*
X78232288Y63256156D01*
X78140186Y63106834D01*
X78085001Y62940297D01*
X78085001Y62940295D01*
X78085000Y62940295D01*
X78074500Y62837516D01*
X78074500Y62062498D01*
X78074501Y62062480D01*
X78085000Y61959703D01*
X78085001Y61959700D01*
X78140185Y61793168D01*
X78140187Y61793163D01*
X78232289Y61643842D01*
X78356346Y61519785D01*
X78359182Y61518037D01*
X78360717Y61516329D01*
X78362011Y61515307D01*
X78361836Y61515085D01*
X78405905Y61466089D01*
X78417126Y61397126D01*
X78389282Y61333044D01*
X78359182Y61306963D01*
X78356346Y61305214D01*
X78356344Y61305212D01*
X78232288Y61181156D01*
X78203705Y61134815D01*
X78142563Y61035687D01*
X78140186Y61031834D01*
X78085001Y60865297D01*
X78085001Y60865295D01*
X78085000Y60865295D01*
X78074500Y60762516D01*
X78074500Y59987498D01*
X78074501Y59987480D01*
X78085000Y59884703D01*
X78085001Y59884700D01*
X78140185Y59718168D01*
X78140187Y59718163D01*
X78232289Y59568842D01*
X78356342Y59444789D01*
X78505663Y59352687D01*
X78505668Y59352685D01*
X78544562Y59339797D01*
X78672203Y59297501D01*
X78672204Y59297500D01*
X78774989Y59287000D01*
X78774991Y59287000D01*
X79825001Y59287000D01*
X79825019Y59287001D01*
X79927796Y59297500D01*
X79927799Y59297501D01*
X80094331Y59352685D01*
X80094334Y59352686D01*
X80243656Y59444788D01*
X80367712Y59568844D01*
X80411970Y59640597D01*
X80463917Y59687321D01*
X80517508Y59699500D01*
X80780788Y59699500D01*
X80847827Y59679815D01*
X80893582Y59627011D01*
X80904077Y59562244D01*
X80898500Y59510381D01*
X80898500Y57889629D01*
X80898501Y57889623D01*
X80904909Y57830013D01*
X80905381Y57828017D01*
X80905295Y57826420D01*
X80905738Y57822304D01*
X80905070Y57822232D01*
X80901642Y57758248D01*
X80860776Y57701575D01*
X80795758Y57675994D01*
X80784705Y57675500D01*
X76581163Y57675500D01*
X76514124Y57695185D01*
X76493487Y57711813D01*
X76436950Y57768349D01*
X76403468Y57829667D01*
X76408451Y57899359D01*
X76450322Y57955293D01*
X76465203Y57964857D01*
X76471332Y57968204D01*
X76586544Y58054452D01*
X76586547Y58054455D01*
X76672793Y58169664D01*
X76672797Y58169671D01*
X76723091Y58304517D01*
X76727981Y58350000D01*
X76729500Y58364127D01*
X76729499Y60459872D01*
X76723091Y60519483D01*
X76672796Y60654331D01*
X76586546Y60769546D01*
X76471331Y60855796D01*
X76336483Y60906091D01*
X76276873Y60912500D01*
X74181128Y60912499D01*
X74132757Y60907299D01*
X74121516Y60906091D01*
X73986671Y60855797D01*
X73986664Y60855793D01*
X73871455Y60769547D01*
X73871452Y60769544D01*
X73785206Y60654335D01*
X73785202Y60654328D01*
X73734908Y60519482D01*
X73729384Y60468093D01*
X73728501Y60459876D01*
X73728500Y60459864D01*
X73728500Y58364129D01*
X73728501Y58364123D01*
X73734908Y58304516D01*
X73785202Y58169671D01*
X73785206Y58169664D01*
X73871452Y58054455D01*
X73871455Y58054452D01*
X73986664Y57968206D01*
X73986671Y57968202D01*
X74121517Y57917908D01*
X74121516Y57917908D01*
X74181116Y57911501D01*
X74181119Y57911500D01*
X74181127Y57911500D01*
X74459148Y57911500D01*
X74526187Y57891815D01*
X74571942Y57839011D01*
X74577532Y57824394D01*
X74579348Y57818564D01*
X74603102Y57765781D01*
X74605965Y57758869D01*
X74626482Y57704774D01*
X74626484Y57704770D01*
X74631808Y57697056D01*
X74642824Y57677525D01*
X74646674Y57668970D01*
X74682363Y57623417D01*
X74686800Y57617387D01*
X74719667Y57569772D01*
X74719669Y57569769D01*
X74762972Y57531406D01*
X74768424Y57526273D01*
X75382518Y56912181D01*
X75416003Y56850858D01*
X75411019Y56781167D01*
X75369148Y56725233D01*
X75303683Y56700816D01*
X75294837Y56700500D01*
X74678500Y56700500D01*
X74672221Y56700658D01*
X74599064Y56704369D01*
X74585141Y56702236D01*
X74583143Y56701930D01*
X74564367Y56700500D01*
X73942759Y56700500D01*
X73933344Y56700857D01*
X73874524Y56705337D01*
X73858797Y56703334D01*
X73844349Y56701494D01*
X73828682Y56700500D01*
X73192759Y56700500D01*
X73183344Y56700857D01*
X73124524Y56705337D01*
X73108797Y56703334D01*
X73094349Y56701494D01*
X73078682Y56700500D01*
X62774163Y56700500D01*
X62707124Y56720185D01*
X62661369Y56772989D01*
X62651425Y56842147D01*
X62680450Y56905703D01*
X62686482Y56912181D01*
X63069724Y57295423D01*
X63131047Y57328908D01*
X63200739Y57323924D01*
X63254668Y57284657D01*
X63257287Y57281344D01*
X63381342Y57157289D01*
X63530663Y57065187D01*
X63530668Y57065185D01*
X63614670Y57037349D01*
X63697203Y57010001D01*
X63697204Y57010000D01*
X63799989Y56999500D01*
X63799991Y56999500D01*
X64800001Y56999500D01*
X64800019Y56999501D01*
X64902796Y57010000D01*
X64902799Y57010001D01*
X65069331Y57065185D01*
X65069334Y57065186D01*
X65070082Y57065647D01*
X65147617Y57113471D01*
X65218656Y57157288D01*
X65342712Y57281344D01*
X65434814Y57430666D01*
X65489999Y57597203D01*
X65500500Y57699991D01*
X65500499Y57844837D01*
X65520183Y57911875D01*
X65572987Y57957630D01*
X65642145Y57967574D01*
X65705701Y57938549D01*
X65712180Y57932517D01*
X66005273Y57639424D01*
X66010406Y57633972D01*
X66048769Y57590669D01*
X66048771Y57590667D01*
X66096380Y57557805D01*
X66102315Y57553442D01*
X66102723Y57553123D01*
X66143411Y57496323D01*
X66144051Y57494443D01*
X66165184Y57430668D01*
X66257289Y57281342D01*
X66381342Y57157289D01*
X66530663Y57065187D01*
X66530668Y57065185D01*
X66614670Y57037349D01*
X66697203Y57010001D01*
X66697204Y57010000D01*
X66799989Y56999500D01*
X66799991Y56999500D01*
X67800001Y56999500D01*
X67800019Y56999501D01*
X67902796Y57010000D01*
X67902799Y57010001D01*
X68069331Y57065185D01*
X68069334Y57065186D01*
X68070082Y57065647D01*
X68147617Y57113471D01*
X68218656Y57157288D01*
X68342712Y57281344D01*
X68434814Y57430666D01*
X68489999Y57597203D01*
X68500500Y57699991D01*
X68500499Y58500008D01*
X68489999Y58602797D01*
X68434814Y58769334D01*
X68342712Y58918656D01*
X68249049Y59012319D01*
X68215564Y59073642D01*
X68220548Y59143334D01*
X68249049Y59187681D01*
X68342710Y59281342D01*
X68342712Y59281344D01*
X68410936Y59391954D01*
X68462884Y59438678D01*
X68494115Y59448824D01*
X68497428Y59449431D01*
X68502441Y59450350D01*
X68555200Y59474095D01*
X68562117Y59476960D01*
X68616224Y59497481D01*
X68616225Y59497481D01*
X68623938Y59502805D01*
X68643476Y59513824D01*
X68652023Y59517671D01*
X68652025Y59517672D01*
X68652028Y59517674D01*
X68697592Y59553372D01*
X68703589Y59557785D01*
X68751229Y59590668D01*
X68789608Y59633989D01*
X68794727Y59639426D01*
X69360572Y60205271D01*
X69366010Y60210391D01*
X69409332Y60248771D01*
X69426627Y60273827D01*
X69442201Y60296390D01*
X69446641Y60302424D01*
X69482326Y60347971D01*
X69486171Y60356515D01*
X69497198Y60376066D01*
X69502514Y60383768D01*
X69502518Y60383774D01*
X69519899Y60429602D01*
X69523040Y60437883D01*
X69525905Y60444801D01*
X69549649Y60497559D01*
X69549650Y60497561D01*
X69551338Y60506776D01*
X69557364Y60528391D01*
X69560688Y60537155D01*
X69567665Y60594617D01*
X69568784Y60601977D01*
X69579219Y60658915D01*
X69575725Y60716664D01*
X69575500Y60724150D01*
X69575500Y61232677D01*
X69595185Y61299716D01*
X69647989Y61345471D01*
X69717147Y61355415D01*
X69738497Y61350385D01*
X69747197Y61347502D01*
X69747204Y61347500D01*
X69849989Y61337000D01*
X69849991Y61337000D01*
X70900001Y61337000D01*
X70900019Y61337001D01*
X71002796Y61347500D01*
X71002799Y61347501D01*
X71169331Y61402685D01*
X71169334Y61402686D01*
X71174500Y61405872D01*
X71249828Y61452335D01*
X71318656Y61494788D01*
X71442712Y61618844D01*
X71534814Y61768166D01*
X71589999Y61934703D01*
X71600500Y62037491D01*
X71600499Y62812508D01*
X71598745Y62829674D01*
X71589999Y62915296D01*
X71589998Y62915299D01*
X71534814Y63081834D01*
X71442712Y63231156D01*
X71318656Y63355212D01*
X71315819Y63356961D01*
X71314283Y63358669D01*
X71312989Y63359693D01*
X71313163Y63359914D01*
X71269096Y63408906D01*
X71257872Y63477868D01*
X71285713Y63541951D01*
X71315817Y63568037D01*
X71318656Y63569788D01*
X71434101Y63685233D01*
X71495424Y63718718D01*
X71565116Y63713734D01*
X71609463Y63685233D01*
X72343281Y62951415D01*
X72348414Y62945963D01*
X72386769Y62902669D01*
X72386772Y62902667D01*
X72434377Y62869807D01*
X72440405Y62865371D01*
X72485970Y62829674D01*
X72494525Y62825824D01*
X72514056Y62814808D01*
X72521770Y62809484D01*
X72521774Y62809482D01*
X72575869Y62788965D01*
X72582781Y62786102D01*
X72635560Y62762350D01*
X72640259Y62761488D01*
X72644778Y62760660D01*
X72666381Y62754639D01*
X72675155Y62751311D01*
X72732613Y62744334D01*
X72740011Y62743207D01*
X72796908Y62732781D01*
X72796923Y62732780D01*
X72797028Y62732787D01*
X72797102Y62732769D01*
X72804405Y62732328D01*
X72804331Y62731113D01*
X72865132Y62717178D01*
X72913986Y62667227D01*
X72928501Y62609012D01*
X72928501Y62364123D01*
X72934908Y62304516D01*
X72985202Y62169671D01*
X72985206Y62169664D01*
X73071452Y62054455D01*
X73071455Y62054452D01*
X73186664Y61968206D01*
X73186671Y61968202D01*
X73321517Y61917908D01*
X73321516Y61917908D01*
X73381116Y61911501D01*
X73381119Y61911500D01*
X73381127Y61911500D01*
X73381134Y61911500D01*
X73381135Y61911500D01*
X74776870Y61911500D01*
X74776876Y61911501D01*
X74836483Y61917908D01*
X74971328Y61968202D01*
X74971335Y61968206D01*
X75086544Y62054452D01*
X75086544Y62054453D01*
X75086546Y62054454D01*
X75118064Y62096556D01*
X75130046Y62112562D01*
X75185980Y62154432D01*
X75255672Y62159416D01*
X75316994Y62125930D01*
X75328578Y62112562D01*
X75371812Y62054809D01*
X75486906Y61968649D01*
X75486913Y61968645D01*
X75621620Y61918403D01*
X75621627Y61918401D01*
X75681155Y61912000D01*
X76129000Y61912000D01*
X76129000Y63162000D01*
X76629000Y63162000D01*
X76629000Y61912000D01*
X77076844Y61912000D01*
X77136372Y61918401D01*
X77136379Y61918403D01*
X77271086Y61968645D01*
X77271093Y61968649D01*
X77386187Y62054809D01*
X77386190Y62054812D01*
X77472350Y62169906D01*
X77472354Y62169913D01*
X77522596Y62304620D01*
X77522598Y62304627D01*
X77528999Y62364155D01*
X77529000Y62364172D01*
X77529000Y63162000D01*
X76629000Y63162000D01*
X76129000Y63162000D01*
X76129000Y64912000D01*
X76629000Y64912000D01*
X76629000Y63662000D01*
X77529000Y63662000D01*
X77529000Y64459827D01*
X77528999Y64459844D01*
X77522598Y64519372D01*
X77522596Y64519379D01*
X77472354Y64654086D01*
X77472350Y64654093D01*
X77386190Y64769187D01*
X77386187Y64769190D01*
X77271093Y64855350D01*
X77271086Y64855354D01*
X77136379Y64905596D01*
X77136372Y64905598D01*
X77076844Y64911999D01*
X77076828Y64912000D01*
X76629000Y64912000D01*
X76129000Y64912000D01*
X75681172Y64912000D01*
X75681155Y64911999D01*
X75621627Y64905598D01*
X75621620Y64905596D01*
X75486913Y64855354D01*
X75486906Y64855350D01*
X75371812Y64769190D01*
X75371809Y64769187D01*
X75328578Y64711438D01*
X75272645Y64669567D01*
X75202953Y64664583D01*
X75141630Y64698069D01*
X75130049Y64711432D01*
X75086546Y64769546D01*
X74971331Y64855796D01*
X74836483Y64906091D01*
X74776873Y64912500D01*
X73381128Y64912499D01*
X73332757Y64907299D01*
X73321516Y64906091D01*
X73186671Y64855797D01*
X73186664Y64855793D01*
X73071455Y64769547D01*
X73071452Y64769544D01*
X72985206Y64654335D01*
X72985202Y64654328D01*
X72934669Y64518842D01*
X72892798Y64462908D01*
X72827333Y64438491D01*
X72759060Y64453343D01*
X72730808Y64474491D01*
X72244711Y64960588D01*
X72239609Y64966008D01*
X72201229Y65009332D01*
X72153603Y65042204D01*
X72147577Y65046639D01*
X72143206Y65050064D01*
X72102028Y65082326D01*
X72093480Y65086172D01*
X72073935Y65097197D01*
X72066227Y65102517D01*
X72066226Y65102518D01*
X72012122Y65123036D01*
X72005208Y65125901D01*
X71954285Y65148819D01*
X71952439Y65149650D01*
X71943221Y65151338D01*
X71921605Y65157365D01*
X71912845Y65160688D01*
X71855396Y65167663D01*
X71847997Y65168789D01*
X71791085Y65179219D01*
X71791082Y65179218D01*
X71791082Y65179219D01*
X71742362Y65176271D01*
X71733334Y65175725D01*
X71725849Y65175500D01*
X71592508Y65175500D01*
X71525469Y65195185D01*
X71486969Y65234403D01*
X71485676Y65236500D01*
X71442712Y65306156D01*
X71442710Y65306157D01*
X71442559Y65306403D01*
X71424119Y65373796D01*
X71445042Y65440459D01*
X71498683Y65485229D01*
X71548098Y65495500D01*
X81004797Y65495500D01*
X81071836Y65475815D01*
G37*
%TD.AperFunction*%
%TA.AperFunction,Conductor*%
G36*
X82527086Y62880250D02*
G01*
X82561514Y62867409D01*
X82561516Y62867408D01*
X82621116Y62861001D01*
X82621119Y62861000D01*
X82621127Y62861000D01*
X83186922Y62861000D01*
X83253961Y62841315D01*
X83299716Y62788511D01*
X83302077Y62782992D01*
X83319022Y62740565D01*
X83322179Y62731698D01*
X83339840Y62675414D01*
X83339842Y62675410D01*
X83354605Y62648811D01*
X83361336Y62634638D01*
X83372623Y62606382D01*
X83372625Y62606378D01*
X83405086Y62557122D01*
X83409965Y62549069D01*
X83438588Y62497501D01*
X83458408Y62474413D01*
X83467852Y62461887D01*
X83484594Y62436485D01*
X83484600Y62436478D01*
X83526302Y62394775D01*
X83532702Y62387870D01*
X83571134Y62343104D01*
X83595195Y62324479D01*
X83606970Y62314107D01*
X84018434Y61902644D01*
X84020626Y61900397D01*
X84070927Y61847481D01*
X84080942Y61836946D01*
X84129361Y61803245D01*
X84136882Y61797574D01*
X84182592Y61760302D01*
X84182598Y61760298D01*
X84209568Y61746209D01*
X84222983Y61738082D01*
X84247955Y61720702D01*
X84302165Y61697438D01*
X84310672Y61693398D01*
X84362952Y61666090D01*
X84392201Y61657720D01*
X84406979Y61652459D01*
X84434943Y61640459D01*
X84470787Y61633093D01*
X84492723Y61628585D01*
X84501860Y61626342D01*
X84558577Y61610113D01*
X84579678Y61608506D01*
X84588928Y61607801D01*
X84604466Y61605622D01*
X84634258Y61599500D01*
X84634259Y61599500D01*
X84693241Y61599500D01*
X84702655Y61599142D01*
X84705173Y61598950D01*
X84761475Y61594662D01*
X84791651Y61598506D01*
X84807318Y61599500D01*
X85286217Y61599500D01*
X85353256Y61579815D01*
X85373898Y61563181D01*
X85899181Y61037898D01*
X85932666Y60976575D01*
X85935500Y60950217D01*
X85935500Y60086500D01*
X85915815Y60019461D01*
X85863011Y59973706D01*
X85811500Y59962500D01*
X85784000Y59962500D01*
X85784000Y57437500D01*
X85811500Y57437500D01*
X85878539Y57417815D01*
X85924294Y57365011D01*
X85935500Y57313500D01*
X85935500Y57301782D01*
X85915815Y57234743D01*
X85899181Y57214101D01*
X85421899Y56736819D01*
X85360576Y56703334D01*
X85334218Y56700500D01*
X84705163Y56700500D01*
X84638124Y56720185D01*
X84592369Y56772989D01*
X84582425Y56842147D01*
X84611450Y56905703D01*
X84617482Y56912181D01*
X84724572Y57019271D01*
X84730010Y57024391D01*
X84773332Y57062771D01*
X84773333Y57062772D01*
X84806201Y57110390D01*
X84810641Y57116424D01*
X84846326Y57161971D01*
X84850171Y57170515D01*
X84861198Y57190066D01*
X84866514Y57197768D01*
X84866518Y57197774D01*
X84880539Y57234743D01*
X84887040Y57251883D01*
X84889905Y57258801D01*
X84913649Y57311559D01*
X84913650Y57311561D01*
X84915338Y57320776D01*
X84921364Y57342391D01*
X84924688Y57351155D01*
X84924688Y57351157D01*
X84924689Y57351159D01*
X84926485Y57358443D01*
X84928919Y57357842D01*
X84951772Y57410953D01*
X85009703Y57450014D01*
X85079556Y57451554D01*
X85090582Y57448019D01*
X85101614Y57443904D01*
X85101627Y57443901D01*
X85161155Y57437500D01*
X85284000Y57437500D01*
X85284000Y59962500D01*
X85161172Y59962500D01*
X85161155Y59962499D01*
X85101627Y59956098D01*
X85101623Y59956097D01*
X84966904Y59905849D01*
X84959123Y59901601D01*
X84957343Y59904860D01*
X84908374Y59886546D01*
X84840087Y59901336D01*
X84838239Y59902523D01*
X84831335Y59906293D01*
X84831331Y59906296D01*
X84696483Y59956591D01*
X84636873Y59963000D01*
X83891128Y59962999D01*
X83842757Y59957799D01*
X83831516Y59956591D01*
X83696670Y59906297D01*
X83688888Y59902047D01*
X83687211Y59905116D01*
X83637495Y59886543D01*
X83569215Y59901358D01*
X83568622Y59901739D01*
X83561093Y59905850D01*
X83426376Y59956097D01*
X83426372Y59956098D01*
X83366844Y59962499D01*
X83366828Y59962500D01*
X83244000Y59962500D01*
X83244000Y58574000D01*
X83224315Y58506961D01*
X83171511Y58461206D01*
X83120000Y58450000D01*
X82868000Y58450000D01*
X82800961Y58469685D01*
X82755206Y58522489D01*
X82744000Y58574000D01*
X82744000Y59962500D01*
X82621172Y59962500D01*
X82621155Y59962499D01*
X82561627Y59956098D01*
X82561618Y59956096D01*
X82548685Y59951272D01*
X82478994Y59946285D01*
X82417669Y59979768D01*
X82388139Y60032124D01*
X82387351Y60031825D01*
X82385383Y60037010D01*
X82384951Y60037778D01*
X82384688Y60038844D01*
X82381369Y60047594D01*
X82375337Y60069232D01*
X82374542Y60073571D01*
X82373650Y60078439D01*
X82349900Y60131208D01*
X82347041Y60138110D01*
X82326518Y60192226D01*
X82321197Y60199935D01*
X82310172Y60219480D01*
X82306326Y60228028D01*
X82270638Y60273578D01*
X82266204Y60279603D01*
X82233332Y60327229D01*
X82190008Y60365609D01*
X82184588Y60370711D01*
X81719711Y60835588D01*
X81714609Y60841008D01*
X81676229Y60884332D01*
X81628603Y60917204D01*
X81622577Y60921639D01*
X81577028Y60957326D01*
X81568480Y60961172D01*
X81548935Y60972197D01*
X81541227Y60977517D01*
X81541226Y60977518D01*
X81487122Y60998036D01*
X81480208Y61000901D01*
X81454335Y61012544D01*
X81427439Y61024650D01*
X81418221Y61026338D01*
X81396605Y61032365D01*
X81387845Y61035688D01*
X81330396Y61042663D01*
X81322997Y61043789D01*
X81266085Y61054219D01*
X81266082Y61054218D01*
X81266082Y61054219D01*
X81217362Y61051271D01*
X81208334Y61050725D01*
X81200849Y61050500D01*
X80517508Y61050500D01*
X80450469Y61070185D01*
X80411969Y61109403D01*
X80409599Y61113246D01*
X80367712Y61181156D01*
X80243656Y61305212D01*
X80240819Y61306961D01*
X80239283Y61308669D01*
X80237989Y61309693D01*
X80238163Y61309914D01*
X80194096Y61358906D01*
X80182872Y61427868D01*
X80210713Y61491951D01*
X80240817Y61518037D01*
X80243656Y61519788D01*
X80367712Y61643844D01*
X80411970Y61715597D01*
X80463917Y61762321D01*
X80517508Y61774500D01*
X81125849Y61774500D01*
X81133334Y61774274D01*
X81142362Y61773728D01*
X81191082Y61770781D01*
X81191085Y61770781D01*
X81191089Y61770781D01*
X81247987Y61781207D01*
X81255387Y61782334D01*
X81312845Y61789312D01*
X81321614Y61792637D01*
X81343222Y61798660D01*
X81346324Y61799229D01*
X81352440Y61800350D01*
X81391669Y61818005D01*
X81405204Y61824096D01*
X81412117Y61826960D01*
X81466224Y61847481D01*
X81466225Y61847481D01*
X81473938Y61852805D01*
X81493476Y61863824D01*
X81502023Y61867671D01*
X81502025Y61867672D01*
X81521550Y61882969D01*
X81547592Y61903372D01*
X81553589Y61907785D01*
X81601229Y61940668D01*
X81639608Y61983989D01*
X81644727Y61989426D01*
X82184572Y62529271D01*
X82190010Y62534391D01*
X82233332Y62572771D01*
X82233333Y62572772D01*
X82266201Y62620390D01*
X82270641Y62626424D01*
X82306326Y62671971D01*
X82310171Y62680515D01*
X82321198Y62700066D01*
X82326514Y62707768D01*
X82326518Y62707774D01*
X82330085Y62717178D01*
X82347040Y62761883D01*
X82349905Y62768801D01*
X82358276Y62787401D01*
X82370678Y62814958D01*
X82416142Y62868013D01*
X82483072Y62888066D01*
X82527086Y62880250D01*
G37*
%TD.AperFunction*%
%TA.AperFunction,Conductor*%
G36*
X92902854Y77099368D02*
G01*
X92907393Y77099158D01*
X93072575Y77091520D01*
X93072931Y77091503D01*
X93269766Y77081834D01*
X93280814Y77080794D01*
X93462780Y77055410D01*
X93463842Y77055257D01*
X93647240Y77028053D01*
X93657436Y77026101D01*
X93838455Y76983526D01*
X93840195Y76983104D01*
X94017841Y76938606D01*
X94027117Y76935894D01*
X94204364Y76876487D01*
X94206733Y76875666D01*
X94378207Y76814311D01*
X94386519Y76810994D01*
X94557980Y76735286D01*
X94560909Y76733947D01*
X94725102Y76656291D01*
X94732425Y76652525D01*
X94896435Y76561171D01*
X94899845Y76559200D01*
X95055342Y76465999D01*
X95061670Y76461940D01*
X95216699Y76355742D01*
X95220489Y76353041D01*
X95365984Y76245135D01*
X95371334Y76240935D01*
X95515947Y76120851D01*
X95520004Y76117331D01*
X95654183Y75995717D01*
X95658590Y75991520D01*
X95791520Y75858590D01*
X95795717Y75854183D01*
X95917331Y75720004D01*
X95920843Y75715955D01*
X95938885Y75694229D01*
X96040935Y75571334D01*
X96045135Y75565984D01*
X96153041Y75420489D01*
X96155742Y75416699D01*
X96261940Y75261670D01*
X96265999Y75255342D01*
X96359200Y75099845D01*
X96361171Y75096435D01*
X96452525Y74932425D01*
X96456291Y74925102D01*
X96533947Y74760909D01*
X96535286Y74757980D01*
X96610994Y74586519D01*
X96614311Y74578207D01*
X96675666Y74406733D01*
X96676487Y74404364D01*
X96735894Y74227117D01*
X96738606Y74217841D01*
X96783104Y74040195D01*
X96783526Y74038455D01*
X96826101Y73857436D01*
X96828053Y73847240D01*
X96855257Y73663842D01*
X96855410Y73662780D01*
X96880794Y73480814D01*
X96881834Y73469766D01*
X96891512Y73272761D01*
X96891529Y73272404D01*
X96899368Y73102854D01*
X96899500Y73097127D01*
X96899500Y48102872D01*
X96899368Y48097145D01*
X96891529Y47927595D01*
X96891512Y47927238D01*
X96881834Y47730232D01*
X96880794Y47719184D01*
X96855410Y47537218D01*
X96855257Y47536156D01*
X96828053Y47352758D01*
X96826101Y47342562D01*
X96783526Y47161543D01*
X96783104Y47159803D01*
X96738606Y46982157D01*
X96735894Y46972881D01*
X96676487Y46795634D01*
X96675666Y46793265D01*
X96614311Y46621791D01*
X96610994Y46613479D01*
X96535286Y46442018D01*
X96533947Y46439089D01*
X96456291Y46274896D01*
X96452525Y46267573D01*
X96361171Y46103563D01*
X96359200Y46100153D01*
X96265999Y45944656D01*
X96261940Y45938328D01*
X96155742Y45783299D01*
X96153049Y45779521D01*
X96045124Y45634000D01*
X96040951Y45628684D01*
X95920805Y45483998D01*
X95917375Y45480045D01*
X95795698Y45345795D01*
X95791520Y45341408D01*
X95658590Y45208478D01*
X95654206Y45204303D01*
X95519947Y45082617D01*
X95516009Y45079200D01*
X95371305Y44959040D01*
X95366009Y44954882D01*
X95220459Y44846935D01*
X95216699Y44844256D01*
X95061670Y44738058D01*
X95055371Y44734017D01*
X94899810Y44640777D01*
X94896446Y44638833D01*
X94732411Y44547465D01*
X94725119Y44543715D01*
X94647263Y44506892D01*
X94560909Y44466051D01*
X94557980Y44464712D01*
X94386519Y44389004D01*
X94378220Y44385692D01*
X94206618Y44324292D01*
X94204478Y44323550D01*
X94027091Y44264096D01*
X94017874Y44261401D01*
X93840023Y44216852D01*
X93838614Y44216510D01*
X93657413Y44173892D01*
X93647261Y44171949D01*
X93463781Y44144732D01*
X93462876Y44144601D01*
X93280787Y44119201D01*
X93269795Y44118166D01*
X93073088Y44108502D01*
X92918811Y44101369D01*
X92902854Y44100632D01*
X92897128Y44100500D01*
X52902872Y44100500D01*
X52897146Y44100632D01*
X52891674Y44100884D01*
X52726898Y44108502D01*
X52530200Y44118166D01*
X52519217Y44119200D01*
X52337054Y44144611D01*
X52336286Y44144722D01*
X52152729Y44171950D01*
X52142595Y44173890D01*
X51961318Y44216526D01*
X51960037Y44216837D01*
X51782111Y44261405D01*
X51772922Y44264091D01*
X51595457Y44323572D01*
X51593442Y44324270D01*
X51421759Y44385699D01*
X51413497Y44388996D01*
X51242015Y44464713D01*
X51239089Y44466051D01*
X51074855Y44543727D01*
X51067612Y44547452D01*
X50903497Y44638864D01*
X50900243Y44640745D01*
X50744598Y44734036D01*
X50738363Y44738034D01*
X50583278Y44844270D01*
X50579590Y44846899D01*
X50433954Y44954909D01*
X50428728Y44959011D01*
X50283944Y45079239D01*
X50280097Y45082577D01*
X50145752Y45204340D01*
X50141450Y45208437D01*
X50008437Y45341450D01*
X50004340Y45345752D01*
X49882577Y45480097D01*
X49879239Y45483944D01*
X49759011Y45628728D01*
X49754909Y45633954D01*
X49646899Y45779590D01*
X49644270Y45783278D01*
X49538034Y45938363D01*
X49534036Y45944598D01*
X49440745Y46100243D01*
X49438864Y46103497D01*
X49347452Y46267612D01*
X49343727Y46274855D01*
X49266046Y46439098D01*
X49264712Y46442018D01*
X49215904Y46552557D01*
X49188996Y46613497D01*
X49185699Y46621759D01*
X49124270Y46793442D01*
X49123572Y46795457D01*
X49064091Y46972922D01*
X49061405Y46982111D01*
X49016837Y47160037D01*
X49016526Y47161318D01*
X48973890Y47342595D01*
X48971950Y47352729D01*
X48944722Y47536286D01*
X48944611Y47537054D01*
X48919200Y47719217D01*
X48918166Y47730200D01*
X48908481Y47927371D01*
X48903633Y48032236D01*
X51045787Y48032236D01*
X51075413Y47762986D01*
X51075415Y47762975D01*
X51143926Y47500917D01*
X51143927Y47500912D01*
X51143928Y47500912D01*
X51206871Y47352794D01*
X51249870Y47251610D01*
X51390979Y47020394D01*
X51390986Y47020384D01*
X51564253Y46812180D01*
X51564259Y46812175D01*
X51765997Y46631418D01*
X51991907Y46481957D01*
X52237185Y46366976D01*
X52496557Y46288942D01*
X52496571Y46288939D01*
X52630687Y46269202D01*
X52764561Y46249500D01*
X52764565Y46249500D01*
X52967648Y46249500D01*
X53158904Y46263499D01*
X53170156Y46264323D01*
X53170158Y46264323D01*
X53170168Y46264325D01*
X53434546Y46323217D01*
X53434553Y46323220D01*
X53504572Y46350000D01*
X53687558Y46419986D01*
X53923777Y46552559D01*
X54138177Y46718112D01*
X54226617Y46809844D01*
X54265332Y46850000D01*
X60650000Y46850000D01*
X61466314Y46850000D01*
X61440507Y46809844D01*
X61400000Y46671889D01*
X61400000Y46528111D01*
X61440507Y46390156D01*
X61466314Y46350000D01*
X60650001Y46350000D01*
X60650001Y45785802D01*
X60660400Y45653667D01*
X60715377Y45435480D01*
X60808428Y45230625D01*
X60808431Y45230619D01*
X60936559Y45045676D01*
X60936569Y45045664D01*
X61095664Y44886569D01*
X61095676Y44886559D01*
X61280619Y44758431D01*
X61280625Y44758428D01*
X61485480Y44665377D01*
X61703667Y44610400D01*
X61835803Y44600000D01*
X62650000Y44600000D01*
X62650000Y46100000D01*
X63150000Y46100000D01*
X63150000Y44600000D01*
X63964182Y44600000D01*
X63964197Y44600001D01*
X64096332Y44610400D01*
X64314519Y44665377D01*
X64519374Y44758428D01*
X64519380Y44758431D01*
X64704323Y44886559D01*
X64704335Y44886569D01*
X64863430Y45045664D01*
X64863440Y45045676D01*
X64991568Y45230619D01*
X64991571Y45230625D01*
X65084622Y45435480D01*
X65139599Y45653667D01*
X65149999Y45785803D01*
X65150000Y45785815D01*
X65150000Y46350000D01*
X64333686Y46350000D01*
X64359493Y46390156D01*
X64400000Y46528111D01*
X64400000Y46671889D01*
X64359493Y46809844D01*
X64333686Y46850000D01*
X65149999Y46850000D01*
X65149999Y47414182D01*
X65149998Y47414197D01*
X65139599Y47546332D01*
X65084622Y47764519D01*
X64991571Y47969374D01*
X64991568Y47969380D01*
X64863440Y48154323D01*
X64863430Y48154335D01*
X64704335Y48313430D01*
X64704323Y48313440D01*
X64519380Y48441568D01*
X64519374Y48441571D01*
X64314519Y48534622D01*
X64096332Y48589599D01*
X63964189Y48599999D01*
X63150000Y48599999D01*
X63150000Y47100000D01*
X62650000Y47100000D01*
X62650000Y48599999D01*
X61835818Y48599999D01*
X61835802Y48599998D01*
X61703667Y48589599D01*
X61485480Y48534622D01*
X61280625Y48441571D01*
X61280619Y48441568D01*
X61095676Y48313440D01*
X61095664Y48313430D01*
X60936569Y48154335D01*
X60936559Y48154323D01*
X60808431Y47969380D01*
X60808428Y47969374D01*
X60715377Y47764519D01*
X60660400Y47546332D01*
X60650000Y47414196D01*
X60650000Y46850000D01*
X54265332Y46850000D01*
X54326177Y46913109D01*
X54326183Y46913116D01*
X54326186Y46913119D01*
X54483799Y47133421D01*
X54544564Y47251610D01*
X54607649Y47374309D01*
X54607652Y47374318D01*
X54607656Y47374325D01*
X54684080Y47598339D01*
X54695115Y47630685D01*
X54695115Y47630688D01*
X54695118Y47630695D01*
X54744319Y47897067D01*
X54754212Y48167765D01*
X54724586Y48437018D01*
X54656072Y48699088D01*
X54550130Y48948390D01*
X54409018Y49179610D01*
X54235745Y49387820D01*
X54034002Y49568582D01*
X53808090Y49718044D01*
X53562824Y49833020D01*
X53417376Y49876779D01*
X53303442Y49911057D01*
X53303438Y49911057D01*
X53303431Y49911060D01*
X53035439Y49950500D01*
X52832369Y49950500D01*
X52832364Y49950499D01*
X52832351Y49950499D01*
X52783556Y49946927D01*
X52629844Y49935677D01*
X52629831Y49935674D01*
X52365453Y49876782D01*
X52365449Y49876780D01*
X52365447Y49876780D01*
X52112442Y49780014D01*
X51876223Y49647441D01*
X51661823Y49481888D01*
X51661822Y49481887D01*
X51473822Y49286890D01*
X51473816Y49286883D01*
X51473814Y49286881D01*
X51338339Y49097522D01*
X51316202Y49066580D01*
X51316199Y49066575D01*
X51192350Y48825690D01*
X51192343Y48825672D01*
X51104884Y48569314D01*
X51104881Y48569300D01*
X51055681Y48302931D01*
X51055680Y48302924D01*
X51045787Y48032236D01*
X48903633Y48032236D01*
X48900632Y48097145D01*
X48900500Y48102871D01*
X48900500Y58462000D01*
X50070001Y58462000D01*
X50070001Y58187013D01*
X50080494Y58084302D01*
X50135641Y57917880D01*
X50135643Y57917875D01*
X50227684Y57768654D01*
X50351654Y57644684D01*
X50500875Y57552643D01*
X50500880Y57552641D01*
X50667302Y57497494D01*
X50667309Y57497493D01*
X50770013Y57487000D01*
X50907500Y57487000D01*
X50907500Y58462000D01*
X50070001Y58462000D01*
X48900500Y58462000D01*
X48900500Y60787013D01*
X50032501Y60787013D01*
X50042994Y60684302D01*
X50098141Y60517880D01*
X50098143Y60517875D01*
X50190184Y60368654D01*
X50314154Y60244684D01*
X50463375Y60152643D01*
X50463378Y60152642D01*
X50551346Y60123492D01*
X50608791Y60083718D01*
X50635613Y60019202D01*
X50623297Y59950427D01*
X50575754Y59899227D01*
X50551344Y59888080D01*
X50500882Y59871359D01*
X50500875Y59871356D01*
X50351654Y59779315D01*
X50227684Y59655345D01*
X50135643Y59506124D01*
X50135641Y59506119D01*
X50080494Y59339697D01*
X50080493Y59339690D01*
X50070000Y59236986D01*
X50070000Y58962000D01*
X51283500Y58962000D01*
X51350539Y58942315D01*
X51396294Y58889511D01*
X51407500Y58838000D01*
X51407500Y57487000D01*
X51544972Y57487000D01*
X51544987Y57487001D01*
X51647697Y57497494D01*
X51814119Y57552641D01*
X51814124Y57552643D01*
X51963345Y57644684D01*
X52087316Y57768655D01*
X52087319Y57768659D01*
X52089168Y57771656D01*
X52090972Y57773279D01*
X52091798Y57774323D01*
X52091976Y57774181D01*
X52141116Y57818381D01*
X52210079Y57829602D01*
X52274161Y57801759D01*
X52300241Y57771661D01*
X52302283Y57768349D01*
X52302288Y57768344D01*
X52426342Y57644289D01*
X52575663Y57552187D01*
X52575668Y57552185D01*
X52629340Y57534400D01*
X52742203Y57497001D01*
X52742204Y57497000D01*
X52844989Y57486500D01*
X52844991Y57486500D01*
X53620001Y57486500D01*
X53620019Y57486501D01*
X53722796Y57497000D01*
X53722799Y57497001D01*
X53889331Y57552185D01*
X53889334Y57552186D01*
X53891371Y57553442D01*
X53951725Y57590669D01*
X54038656Y57644288D01*
X54069549Y57675181D01*
X54130872Y57708666D01*
X54157230Y57711500D01*
X54270500Y57711500D01*
X54337539Y57691815D01*
X54383294Y57639011D01*
X54394500Y57587500D01*
X54394500Y56649277D01*
X54394460Y56646137D01*
X54392243Y56558637D01*
X54392243Y56558628D01*
X54402648Y56500578D01*
X54403956Y56491252D01*
X54409925Y56432564D01*
X54409926Y56432562D01*
X54419035Y56403526D01*
X54422774Y56388290D01*
X54428141Y56358350D01*
X54428141Y56358349D01*
X54450022Y56303567D01*
X54453179Y56294698D01*
X54470840Y56238414D01*
X54470842Y56238410D01*
X54485605Y56211811D01*
X54492336Y56197638D01*
X54503623Y56169382D01*
X54503625Y56169378D01*
X54536086Y56120122D01*
X54540965Y56112069D01*
X54569588Y56060501D01*
X54589408Y56037413D01*
X54598852Y56024887D01*
X54615594Y55999485D01*
X54615600Y55999478D01*
X54657303Y55957774D01*
X54663703Y55950869D01*
X54702136Y55906102D01*
X54726193Y55887480D01*
X54737969Y55877108D01*
X55612451Y55002626D01*
X55614643Y55000379D01*
X55674944Y54936944D01*
X55723347Y54903253D01*
X55730863Y54897586D01*
X55776590Y54860303D01*
X55776591Y54860302D01*
X55803567Y54846210D01*
X55816982Y54838082D01*
X55841951Y54820704D01*
X55896165Y54797438D01*
X55904672Y54793398D01*
X55956952Y54766090D01*
X55986201Y54757720D01*
X56000979Y54752459D01*
X56028943Y54740459D01*
X56064550Y54733142D01*
X56086723Y54728585D01*
X56095860Y54726342D01*
X56152577Y54710113D01*
X56173678Y54708506D01*
X56182928Y54707801D01*
X56198466Y54705622D01*
X56228258Y54699500D01*
X56228259Y54699500D01*
X56287242Y54699500D01*
X56296656Y54699142D01*
X56299174Y54698950D01*
X56355476Y54694662D01*
X56385652Y54698506D01*
X56401319Y54699500D01*
X60567582Y54699500D01*
X60634621Y54679815D01*
X60680376Y54627011D01*
X60690320Y54557853D01*
X60683764Y54532167D01*
X60655908Y54457482D01*
X60649501Y54397883D01*
X60649501Y54397876D01*
X60649500Y54397864D01*
X60649500Y50802129D01*
X60649501Y50802123D01*
X60655908Y50742516D01*
X60706202Y50607671D01*
X60706206Y50607664D01*
X60792452Y50492455D01*
X60792455Y50492452D01*
X60907664Y50406206D01*
X60907671Y50406202D01*
X61042517Y50355908D01*
X61042516Y50355908D01*
X61102116Y50349501D01*
X61102119Y50349500D01*
X61102127Y50349500D01*
X61102134Y50349500D01*
X61102135Y50349500D01*
X64697870Y50349500D01*
X64697876Y50349501D01*
X64757483Y50355908D01*
X64892328Y50406202D01*
X64892335Y50406206D01*
X65007544Y50492452D01*
X65007547Y50492455D01*
X65093793Y50607664D01*
X65093798Y50607673D01*
X65112011Y50656506D01*
X65153881Y50712440D01*
X65219345Y50736858D01*
X65287618Y50722007D01*
X65337024Y50672603D01*
X65352018Y50606598D01*
X65350001Y50568625D01*
X65350000Y50568578D01*
X65350000Y49850000D01*
X67100000Y49850000D01*
X67100000Y49350000D01*
X65350001Y49350000D01*
X65350001Y48631411D01*
X65352794Y48578808D01*
X65397237Y48349012D01*
X65479879Y48130024D01*
X65598339Y47928158D01*
X65598344Y47928151D01*
X65749211Y47749213D01*
X65749213Y47749211D01*
X65928151Y47598344D01*
X65928158Y47598339D01*
X66130024Y47479879D01*
X66349012Y47397237D01*
X66578809Y47352794D01*
X66631382Y47350001D01*
X66631421Y47350000D01*
X67350000Y47350000D01*
X67350000Y48166313D01*
X67390156Y48140507D01*
X67528111Y48100000D01*
X67671889Y48100000D01*
X67809844Y48140507D01*
X67850000Y48166313D01*
X67850000Y47350000D01*
X68568576Y47350000D01*
X68568588Y47350001D01*
X68621191Y47352794D01*
X68850987Y47397237D01*
X69069975Y47479879D01*
X69271841Y47598339D01*
X69271848Y47598344D01*
X69450786Y47749211D01*
X69450788Y47749213D01*
X69601655Y47928151D01*
X69601660Y47928158D01*
X69720120Y48130024D01*
X69802762Y48349012D01*
X69847205Y48578808D01*
X69847205Y48578809D01*
X69849998Y48631382D01*
X69850000Y48631421D01*
X69850000Y49350000D01*
X68100000Y49350000D01*
X68100000Y49850000D01*
X69849999Y49850000D01*
X69849999Y50435717D01*
X69869684Y50502756D01*
X69922488Y50548511D01*
X69991646Y50558455D01*
X70055202Y50529430D01*
X70061680Y50523398D01*
X71682451Y48902626D01*
X71684643Y48900379D01*
X71744944Y48836944D01*
X71793347Y48803253D01*
X71800863Y48797586D01*
X71846590Y48760303D01*
X71846591Y48760302D01*
X71873567Y48746210D01*
X71886982Y48738082D01*
X71911951Y48720704D01*
X71966165Y48697438D01*
X71974672Y48693398D01*
X72026952Y48666090D01*
X72056201Y48657720D01*
X72070979Y48652459D01*
X72098943Y48640459D01*
X72134787Y48633093D01*
X72156723Y48628585D01*
X72165860Y48626342D01*
X72222577Y48610113D01*
X72243678Y48608506D01*
X72252928Y48607801D01*
X72268466Y48605622D01*
X72298258Y48599500D01*
X72298259Y48599500D01*
X72357242Y48599500D01*
X72366656Y48599142D01*
X72369174Y48598950D01*
X72425476Y48594662D01*
X72455652Y48598506D01*
X72471319Y48599500D01*
X81087837Y48599500D01*
X81154876Y48579815D01*
X81200631Y48527011D01*
X81209088Y48501467D01*
X81210000Y48497204D01*
X81265186Y48330664D01*
X81265187Y48330662D01*
X81357286Y48181348D01*
X81357289Y48181344D01*
X81481344Y48057289D01*
X81481348Y48057286D01*
X81630662Y47965187D01*
X81630664Y47965186D01*
X81797203Y47910001D01*
X81797204Y47910000D01*
X81899984Y47899500D01*
X81899992Y47899500D01*
X83900015Y47899500D01*
X84002795Y47910000D01*
X84002797Y47910001D01*
X84087217Y47937975D01*
X84169335Y47965186D01*
X84169337Y47965187D01*
X84318651Y48057286D01*
X84318655Y48057289D01*
X84442710Y48181344D01*
X84442713Y48181348D01*
X84534812Y48330662D01*
X84534813Y48330664D01*
X84540893Y48349012D01*
X84589999Y48497203D01*
X84600500Y48599992D01*
X84600500Y49599995D01*
X85155233Y49599995D01*
X85174273Y49345920D01*
X85230968Y49097522D01*
X85230973Y49097505D01*
X85324058Y48860328D01*
X85324057Y48860328D01*
X85451457Y48639667D01*
X85493452Y48587006D01*
X86219859Y49313413D01*
X86279680Y49199434D01*
X86392405Y49072194D01*
X86532305Y48975629D01*
X86573542Y48959989D01*
X85846813Y48233259D01*
X86007609Y48123632D01*
X86007622Y48123625D01*
X86237176Y48013078D01*
X86237174Y48013078D01*
X86480652Y47937975D01*
X86480658Y47937973D01*
X86732595Y47900000D01*
X86987404Y47900000D01*
X87239341Y47937973D01*
X87239347Y47937975D01*
X87482824Y48013078D01*
X87522607Y48032236D01*
X91045787Y48032236D01*
X91075413Y47762986D01*
X91075415Y47762975D01*
X91143926Y47500917D01*
X91143927Y47500912D01*
X91143928Y47500912D01*
X91206871Y47352794D01*
X91249870Y47251610D01*
X91390979Y47020394D01*
X91390986Y47020384D01*
X91564253Y46812180D01*
X91564259Y46812175D01*
X91765997Y46631418D01*
X91991907Y46481957D01*
X92237185Y46366976D01*
X92496557Y46288942D01*
X92496571Y46288939D01*
X92630687Y46269202D01*
X92764561Y46249500D01*
X92764565Y46249500D01*
X92967648Y46249500D01*
X93158904Y46263499D01*
X93170156Y46264323D01*
X93170158Y46264323D01*
X93170168Y46264325D01*
X93434546Y46323217D01*
X93434553Y46323220D01*
X93504572Y46350000D01*
X93687558Y46419986D01*
X93923777Y46552559D01*
X94138177Y46718112D01*
X94226617Y46809844D01*
X94326177Y46913109D01*
X94326183Y46913116D01*
X94326186Y46913119D01*
X94483799Y47133421D01*
X94544564Y47251610D01*
X94607649Y47374309D01*
X94607652Y47374318D01*
X94607656Y47374325D01*
X94684080Y47598339D01*
X94695115Y47630685D01*
X94695115Y47630688D01*
X94695118Y47630695D01*
X94744319Y47897067D01*
X94754212Y48167765D01*
X94724586Y48437018D01*
X94656072Y48699088D01*
X94550130Y48948390D01*
X94409018Y49179610D01*
X94235745Y49387820D01*
X94034002Y49568582D01*
X93808090Y49718044D01*
X93562824Y49833020D01*
X93417376Y49876779D01*
X93303442Y49911057D01*
X93303438Y49911057D01*
X93303431Y49911060D01*
X93035439Y49950500D01*
X92832369Y49950500D01*
X92832364Y49950499D01*
X92832351Y49950499D01*
X92783556Y49946927D01*
X92629844Y49935677D01*
X92629831Y49935674D01*
X92365453Y49876782D01*
X92365449Y49876780D01*
X92365447Y49876780D01*
X92112442Y49780014D01*
X91876223Y49647441D01*
X91661823Y49481888D01*
X91661822Y49481887D01*
X91473822Y49286890D01*
X91473816Y49286883D01*
X91473814Y49286881D01*
X91338339Y49097522D01*
X91316202Y49066580D01*
X91316199Y49066575D01*
X91192350Y48825690D01*
X91192343Y48825672D01*
X91104884Y48569314D01*
X91104881Y48569300D01*
X91055681Y48302931D01*
X91055680Y48302924D01*
X91045787Y48032236D01*
X87522607Y48032236D01*
X87712376Y48123623D01*
X87712384Y48123628D01*
X87873185Y48233259D01*
X87146457Y48959989D01*
X87187695Y48975629D01*
X87327595Y49072194D01*
X87440320Y49199434D01*
X87500139Y49313412D01*
X88226545Y48587006D01*
X88268545Y48639672D01*
X88395941Y48860328D01*
X88489026Y49097505D01*
X88489031Y49097522D01*
X88545726Y49345920D01*
X88564767Y49599995D01*
X88564767Y49600004D01*
X88545726Y49854079D01*
X88489031Y50102477D01*
X88489026Y50102494D01*
X88395941Y50339671D01*
X88268544Y50560330D01*
X88226546Y50612991D01*
X88226544Y50612992D01*
X87500139Y49886587D01*
X87440320Y50000566D01*
X87327595Y50127806D01*
X87187695Y50224371D01*
X87146457Y50240010D01*
X87873185Y50966738D01*
X87712377Y51076375D01*
X87712376Y51076376D01*
X87482823Y51186921D01*
X87482825Y51186921D01*
X87239347Y51262024D01*
X87239341Y51262026D01*
X86987404Y51299999D01*
X86987396Y51300000D01*
X86732604Y51300000D01*
X86732595Y51299999D01*
X86480658Y51262026D01*
X86480652Y51262024D01*
X86237175Y51186921D01*
X86007624Y51076376D01*
X86007616Y51076371D01*
X85846813Y50966738D01*
X86573542Y50240010D01*
X86532305Y50224371D01*
X86392405Y50127806D01*
X86279680Y50000566D01*
X86219859Y49886586D01*
X85493453Y50612992D01*
X85493452Y50612991D01*
X85451461Y50560338D01*
X85451454Y50560327D01*
X85324058Y50339671D01*
X85230973Y50102494D01*
X85230968Y50102477D01*
X85174273Y49854079D01*
X85155233Y49600004D01*
X85155233Y49599995D01*
X84600500Y49599995D01*
X84600500Y50600008D01*
X84589999Y50702797D01*
X84534814Y50869334D01*
X84442711Y51018655D01*
X84318655Y51142711D01*
X84169334Y51234814D01*
X84002797Y51289999D01*
X83900008Y51300500D01*
X81899992Y51300500D01*
X81797203Y51289999D01*
X81630666Y51234814D01*
X81630664Y51234813D01*
X81630662Y51234812D01*
X81481348Y51142713D01*
X81481344Y51142710D01*
X81357289Y51018655D01*
X81357286Y51018651D01*
X81265187Y50869337D01*
X81265186Y50869335D01*
X81210000Y50702795D01*
X81209088Y50698533D01*
X81175801Y50637102D01*
X81114586Y50603419D01*
X81087837Y50600500D01*
X72865782Y50600500D01*
X72798743Y50620185D01*
X72778101Y50636819D01*
X71696819Y51718101D01*
X71663334Y51779424D01*
X71660500Y51805782D01*
X71660500Y51975500D01*
X71680185Y52042539D01*
X71732989Y52088294D01*
X71784500Y52099500D01*
X71900743Y52099500D01*
X72052439Y52114925D01*
X72246579Y52175837D01*
X72246594Y52175844D01*
X72424499Y52274589D01*
X72424504Y52274592D01*
X72578893Y52407132D01*
X72578895Y52407134D01*
X72703445Y52568037D01*
X72703446Y52568039D01*
X72703446Y52568040D01*
X72703448Y52568042D01*
X72789267Y52742997D01*
X72836463Y52794515D01*
X72904020Y52812340D01*
X72970490Y52790810D01*
X73014769Y52736762D01*
X73018906Y52725511D01*
X73025837Y52703422D01*
X73025844Y52703405D01*
X73124589Y52525500D01*
X73124592Y52525495D01*
X73257132Y52371106D01*
X73257134Y52371104D01*
X73418037Y52246554D01*
X73418040Y52246553D01*
X73600728Y52156940D01*
X73797715Y52105937D01*
X73797712Y52105937D01*
X74000936Y52095631D01*
X74000938Y52095631D01*
X74202063Y52126442D01*
X74202075Y52126445D01*
X74392881Y52197111D01*
X74392884Y52197113D01*
X74392887Y52197114D01*
X74466513Y52243005D01*
X74565567Y52304745D01*
X74565572Y52304749D01*
X74713050Y52444938D01*
X74713053Y52444941D01*
X74829295Y52611951D01*
X74909540Y52798942D01*
X74950500Y52998259D01*
X74950500Y54484217D01*
X74970185Y54551256D01*
X74986819Y54571898D01*
X75078102Y54663181D01*
X75139425Y54696666D01*
X75165783Y54699500D01*
X85785722Y54699500D01*
X85788862Y54699460D01*
X85876362Y54697243D01*
X85876363Y54697243D01*
X85876371Y54697243D01*
X85934420Y54707648D01*
X85943748Y54708956D01*
X86002430Y54714925D01*
X86002434Y54714925D01*
X86002438Y54714926D01*
X86002444Y54714927D01*
X86031468Y54724033D01*
X86046701Y54727772D01*
X86076653Y54733142D01*
X86076655Y54733142D01*
X86125013Y54752459D01*
X86131431Y54755022D01*
X86140292Y54758177D01*
X86196588Y54775841D01*
X86196591Y54775842D01*
X86196595Y54775844D01*
X86223185Y54790603D01*
X86237361Y54797336D01*
X86265614Y54808622D01*
X86265617Y54808623D01*
X86265620Y54808625D01*
X86265624Y54808627D01*
X86314866Y54841080D01*
X86322923Y54845962D01*
X86374498Y54874588D01*
X86374500Y54874589D01*
X86380142Y54879433D01*
X86397588Y54894410D01*
X86410115Y54903855D01*
X86435521Y54920599D01*
X86477220Y54962299D01*
X86484131Y54968704D01*
X86528892Y55007131D01*
X86528893Y55007132D01*
X86547513Y55031187D01*
X86557889Y55042968D01*
X87633370Y56118449D01*
X87635619Y56120642D01*
X87699050Y56180938D01*
X87699053Y56180941D01*
X87732746Y56229348D01*
X87738417Y56236869D01*
X87775694Y56282587D01*
X87775695Y56282590D01*
X87775698Y56282593D01*
X87789786Y56309565D01*
X87797916Y56322982D01*
X87815295Y56347951D01*
X87838559Y56402163D01*
X87842595Y56410663D01*
X87869909Y56462951D01*
X87878277Y56492199D01*
X87883538Y56506975D01*
X87895540Y56534942D01*
X87900408Y56558628D01*
X87907412Y56592713D01*
X87909658Y56601865D01*
X87922326Y56646137D01*
X87925887Y56658582D01*
X87928196Y56688914D01*
X87930377Y56704463D01*
X87936500Y56734255D01*
X87936500Y56793240D01*
X87936858Y56802656D01*
X87941337Y56861475D01*
X87937494Y56891650D01*
X87936500Y56907318D01*
X87936500Y56963360D01*
X87956185Y57030399D01*
X88008989Y57076154D01*
X88078147Y57086098D01*
X88125591Y57068902D01*
X88130868Y57065647D01*
X88130880Y57065641D01*
X88297302Y57010494D01*
X88297309Y57010493D01*
X88400013Y57000000D01*
X88650000Y57000000D01*
X88650000Y57850000D01*
X89150000Y57850000D01*
X89150000Y57000000D01*
X89399970Y57000000D01*
X89399987Y57000001D01*
X89502697Y57010494D01*
X89669119Y57065641D01*
X89669124Y57065643D01*
X89818345Y57157684D01*
X89942315Y57281654D01*
X90034356Y57430875D01*
X90034358Y57430880D01*
X90089505Y57597302D01*
X90089506Y57597309D01*
X90099999Y57700013D01*
X90100000Y57700026D01*
X90100000Y57850000D01*
X89150000Y57850000D01*
X88650000Y57850000D01*
X88650000Y58226000D01*
X88669685Y58293039D01*
X88722489Y58338794D01*
X88774000Y58350000D01*
X90099999Y58350000D01*
X90099999Y58499971D01*
X90099998Y58499986D01*
X90089505Y58602697D01*
X90034358Y58769119D01*
X90034356Y58769124D01*
X89942317Y58918342D01*
X89848695Y59011964D01*
X89815210Y59073287D01*
X89820194Y59142979D01*
X89848695Y59187327D01*
X89942710Y59281342D01*
X89942712Y59281344D01*
X90034814Y59430666D01*
X90089999Y59597203D01*
X90100500Y59699991D01*
X90100499Y60500008D01*
X90089999Y60602797D01*
X90034814Y60769334D01*
X89942712Y60918656D01*
X89818656Y61042712D01*
X89669334Y61134814D01*
X89660501Y61137740D01*
X89603056Y61177508D01*
X89576229Y61242022D01*
X89575500Y61255448D01*
X89575500Y61448767D01*
X89595185Y61515806D01*
X89647989Y61561561D01*
X89660494Y61566472D01*
X89694328Y61577684D01*
X89694334Y61577686D01*
X89843656Y61669788D01*
X89967712Y61793844D01*
X90059814Y61943166D01*
X90114999Y62109703D01*
X90125500Y62212491D01*
X90125499Y62987508D01*
X90121955Y63022197D01*
X90116598Y63074646D01*
X90114999Y63090297D01*
X90059814Y63256834D01*
X89967712Y63406156D01*
X89843656Y63530212D01*
X89840819Y63531961D01*
X89839283Y63533669D01*
X89837989Y63534693D01*
X89838163Y63534914D01*
X89794096Y63583906D01*
X89782872Y63652868D01*
X89810713Y63716951D01*
X89840817Y63743037D01*
X89843656Y63744788D01*
X89967712Y63868844D01*
X89972819Y63873951D01*
X89974588Y63872181D01*
X90021992Y63905736D01*
X90091791Y63908864D01*
X90152202Y63873759D01*
X90170634Y63848625D01*
X90174587Y63841502D01*
X90194408Y63818413D01*
X90203852Y63805887D01*
X90220594Y63780485D01*
X90220600Y63780478D01*
X90262303Y63738774D01*
X90268703Y63731869D01*
X90307136Y63687102D01*
X90331193Y63668480D01*
X90342969Y63658108D01*
X92118108Y61882969D01*
X92151593Y61821646D01*
X92153955Y61806097D01*
X92164936Y61680596D01*
X92164938Y61680586D01*
X92226094Y61452344D01*
X92226098Y61452335D01*
X92325965Y61238169D01*
X92325967Y61238165D01*
X92461501Y61044604D01*
X92461501Y61044603D01*
X92583819Y60922285D01*
X92617303Y60860962D01*
X92612319Y60791270D01*
X92570447Y60735337D01*
X92539470Y60718422D01*
X92407913Y60669354D01*
X92407906Y60669350D01*
X92292812Y60583190D01*
X92292809Y60583187D01*
X92206649Y60468093D01*
X92206645Y60468086D01*
X92156403Y60333379D01*
X92156401Y60333372D01*
X92150000Y60273844D01*
X92150000Y59626000D01*
X93066314Y59626000D01*
X93040507Y59585844D01*
X93000000Y59447889D01*
X93000000Y59304111D01*
X93040507Y59166156D01*
X93066314Y59126000D01*
X92150000Y59126000D01*
X92150000Y58478155D01*
X92156401Y58418627D01*
X92156403Y58418620D01*
X92206645Y58283913D01*
X92206649Y58283906D01*
X92292809Y58168812D01*
X92292812Y58168809D01*
X92407906Y58082649D01*
X92407913Y58082645D01*
X92542620Y58032403D01*
X92542627Y58032401D01*
X92602155Y58026000D01*
X93250000Y58026000D01*
X93250000Y58940498D01*
X93357685Y58891320D01*
X93464237Y58876000D01*
X93535763Y58876000D01*
X93642315Y58891320D01*
X93750000Y58940498D01*
X93750000Y58026000D01*
X94397844Y58026000D01*
X94457372Y58032401D01*
X94457379Y58032403D01*
X94592086Y58082645D01*
X94592093Y58082649D01*
X94707187Y58168809D01*
X94707190Y58168812D01*
X94793350Y58283906D01*
X94793354Y58283913D01*
X94843596Y58418620D01*
X94843598Y58418627D01*
X94849999Y58478155D01*
X94850000Y58478172D01*
X94850000Y59126000D01*
X93933686Y59126000D01*
X93959493Y59166156D01*
X94000000Y59304111D01*
X94000000Y59447889D01*
X93959493Y59585844D01*
X93933686Y59626000D01*
X94850000Y59626000D01*
X94850000Y60273827D01*
X94849999Y60273844D01*
X94843598Y60333372D01*
X94843596Y60333379D01*
X94793354Y60468086D01*
X94793350Y60468093D01*
X94707190Y60583187D01*
X94707187Y60583190D01*
X94592093Y60669350D01*
X94592086Y60669354D01*
X94460529Y60718422D01*
X94404595Y60760293D01*
X94380178Y60825757D01*
X94395030Y60894030D01*
X94416181Y60922285D01*
X94538493Y61044597D01*
X94538495Y61044599D01*
X94631559Y61177508D01*
X94674032Y61238165D01*
X94674034Y61238169D01*
X94674035Y61238170D01*
X94773903Y61452337D01*
X94776542Y61462184D01*
X94812038Y61594662D01*
X94835063Y61680592D01*
X94854393Y61901530D01*
X94855659Y61915999D01*
X94855659Y61916000D01*
X94848719Y61995318D01*
X94835063Y62151408D01*
X94773903Y62379663D01*
X94674035Y62593829D01*
X94538495Y62787401D01*
X94371401Y62954495D01*
X94177830Y63090035D01*
X93963663Y63189903D01*
X93735408Y63251063D01*
X93609901Y63262043D01*
X93544834Y63287495D01*
X93533037Y63297882D01*
X92036819Y64794101D01*
X92003334Y64855424D01*
X92000500Y64881782D01*
X92000500Y69529721D01*
X92000540Y69532863D01*
X92002757Y69620358D01*
X92002756Y69620358D01*
X92002757Y69620363D01*
X91992349Y69678425D01*
X91991041Y69687757D01*
X91987328Y69724273D01*
X91985074Y69746438D01*
X91975964Y69775471D01*
X91972226Y69790700D01*
X91966858Y69820653D01*
X91964921Y69825501D01*
X91944980Y69875423D01*
X91941818Y69884302D01*
X91924159Y69940588D01*
X91909387Y69967200D01*
X91902662Y69981362D01*
X91891377Y70009617D01*
X91858909Y70058879D01*
X91854043Y70066910D01*
X91825409Y70118502D01*
X91825402Y70118509D01*
X91825401Y70118512D01*
X91805594Y70141583D01*
X91796137Y70154125D01*
X91779401Y70179520D01*
X91737695Y70221225D01*
X91731288Y70228138D01*
X91729208Y70230561D01*
X91692866Y70272895D01*
X91668798Y70291524D01*
X91657035Y70301884D01*
X89685528Y72273390D01*
X89683413Y72275559D01*
X89623059Y72339053D01*
X89574641Y72372752D01*
X89567120Y72378422D01*
X89521407Y72415698D01*
X89494444Y72429782D01*
X89481013Y72437919D01*
X89456049Y72455295D01*
X89401825Y72478563D01*
X89393361Y72482582D01*
X89341049Y72509909D01*
X89311797Y72518278D01*
X89297023Y72523538D01*
X89269058Y72535540D01*
X89211268Y72547415D01*
X89202162Y72549649D01*
X89145418Y72565887D01*
X89115077Y72568197D01*
X89099535Y72570376D01*
X89069741Y72576500D01*
X89069740Y72576500D01*
X89010759Y72576500D01*
X89001344Y72576857D01*
X88942524Y72581337D01*
X88912349Y72577494D01*
X88896682Y72576500D01*
X88881535Y72576500D01*
X88814496Y72596185D01*
X88768741Y72648989D01*
X88758177Y72687898D01*
X88757382Y72695680D01*
X88753999Y72728797D01*
X88698814Y72895334D01*
X88614373Y73032236D01*
X91045787Y73032236D01*
X91075413Y72762986D01*
X91075415Y72762975D01*
X91143926Y72500917D01*
X91143927Y72500912D01*
X91143928Y72500912D01*
X91249870Y72251610D01*
X91390979Y72020394D01*
X91390986Y72020384D01*
X91564253Y71812180D01*
X91564259Y71812175D01*
X91765997Y71631418D01*
X91991907Y71481957D01*
X92237185Y71366976D01*
X92496557Y71288942D01*
X92496571Y71288939D01*
X92642679Y71267437D01*
X92764561Y71249500D01*
X92764565Y71249500D01*
X92967648Y71249500D01*
X93158904Y71263499D01*
X93170156Y71264323D01*
X93170158Y71264323D01*
X93170168Y71264325D01*
X93434546Y71323217D01*
X93434553Y71323220D01*
X93478209Y71339917D01*
X93687558Y71419986D01*
X93923777Y71552559D01*
X94138177Y71718112D01*
X94178103Y71759524D01*
X94326177Y71913109D01*
X94326183Y71913116D01*
X94326186Y71913119D01*
X94483799Y72133421D01*
X94544564Y72251610D01*
X94607649Y72374309D01*
X94607652Y72374318D01*
X94607656Y72374325D01*
X94667030Y72548362D01*
X94695115Y72630685D01*
X94695115Y72630688D01*
X94695118Y72630695D01*
X94744319Y72897067D01*
X94754212Y73167765D01*
X94724586Y73437018D01*
X94656072Y73699088D01*
X94550130Y73948390D01*
X94409018Y74179610D01*
X94235745Y74387820D01*
X94034002Y74568582D01*
X93808090Y74718044D01*
X93562824Y74833020D01*
X93555829Y74835124D01*
X93303442Y74911057D01*
X93303438Y74911057D01*
X93303431Y74911060D01*
X93035439Y74950500D01*
X92832369Y74950500D01*
X92832364Y74950499D01*
X92832351Y74950499D01*
X92783556Y74946927D01*
X92629844Y74935677D01*
X92593966Y74927685D01*
X92365453Y74876782D01*
X92365449Y74876780D01*
X92365447Y74876780D01*
X92112442Y74780014D01*
X91876223Y74647441D01*
X91661823Y74481888D01*
X91661822Y74481887D01*
X91473822Y74286890D01*
X91473816Y74286883D01*
X91473814Y74286881D01*
X91316202Y74066580D01*
X91316199Y74066575D01*
X91192350Y73825690D01*
X91192343Y73825672D01*
X91104884Y73569314D01*
X91104882Y73569305D01*
X91058004Y73315506D01*
X91055681Y73302931D01*
X91055680Y73302924D01*
X91045787Y73032236D01*
X88614373Y73032236D01*
X88606712Y73044656D01*
X88482656Y73168712D01*
X88333334Y73260814D01*
X88166797Y73315999D01*
X88064009Y73326500D01*
X84063992Y73326499D01*
X84063983Y73326498D01*
X84063981Y73326498D01*
X83961203Y73315999D01*
X83794666Y73260814D01*
X83645344Y73168712D01*
X83521288Y73044656D01*
X83513627Y73032235D01*
X83430256Y72897068D01*
X83429186Y72895334D01*
X83374001Y72728797D01*
X83374001Y72728795D01*
X83374000Y72728795D01*
X83363500Y72626016D01*
X83363500Y70525998D01*
X83363501Y70525981D01*
X83374000Y70423203D01*
X83374001Y70423200D01*
X83429185Y70256668D01*
X83429187Y70256663D01*
X83521289Y70107342D01*
X83634451Y69994181D01*
X83667936Y69932858D01*
X83662952Y69863166D01*
X83621080Y69807233D01*
X83555616Y69782816D01*
X83546770Y69782500D01*
X81181230Y69782500D01*
X81114191Y69802185D01*
X81068436Y69854989D01*
X81058492Y69924147D01*
X81087517Y69987703D01*
X81093549Y69994181D01*
X81206710Y70107342D01*
X81206712Y70107344D01*
X81298814Y70256666D01*
X81353999Y70423203D01*
X81364500Y70525991D01*
X81364499Y72626008D01*
X81353999Y72728797D01*
X81298814Y72895334D01*
X81206712Y73044656D01*
X81082656Y73168712D01*
X80933334Y73260814D01*
X80766797Y73315999D01*
X80664009Y73326500D01*
X76663992Y73326499D01*
X76663983Y73326498D01*
X76663981Y73326498D01*
X76561203Y73315999D01*
X76394666Y73260814D01*
X76245344Y73168712D01*
X76121288Y73044656D01*
X76113627Y73032235D01*
X76030256Y72897068D01*
X76029186Y72895334D01*
X75974001Y72728797D01*
X75974001Y72728795D01*
X75974000Y72728795D01*
X75963500Y72626016D01*
X75963500Y70525998D01*
X75963501Y70525981D01*
X75974000Y70423203D01*
X75974001Y70423200D01*
X76029185Y70256668D01*
X76029187Y70256663D01*
X76121289Y70107342D01*
X76245342Y69983289D01*
X76394663Y69891187D01*
X76394668Y69891185D01*
X76442235Y69875423D01*
X76561203Y69836001D01*
X76561204Y69836000D01*
X76663983Y69825500D01*
X76663991Y69825500D01*
X77539480Y69825500D01*
X77606519Y69805815D01*
X77652274Y69753011D01*
X77663440Y69698360D01*
X77661243Y69611638D01*
X77661243Y69611628D01*
X77671648Y69553578D01*
X77672956Y69544252D01*
X77678925Y69485564D01*
X77678926Y69485562D01*
X77688035Y69456526D01*
X77691774Y69441290D01*
X77697141Y69411350D01*
X77697141Y69411349D01*
X77719022Y69356567D01*
X77722179Y69347698D01*
X77739840Y69291414D01*
X77739842Y69291410D01*
X77754605Y69264811D01*
X77761336Y69250638D01*
X77772623Y69222382D01*
X77772625Y69222378D01*
X77805086Y69173122D01*
X77809965Y69165069D01*
X77838588Y69113501D01*
X77858408Y69090413D01*
X77867852Y69077887D01*
X77884594Y69052485D01*
X77884600Y69052478D01*
X77926303Y69010774D01*
X77932703Y69003869D01*
X77971136Y68959102D01*
X77995193Y68940480D01*
X78006969Y68930108D01*
X78852451Y68084626D01*
X78854643Y68082379D01*
X78914943Y68018945D01*
X78914946Y68018942D01*
X78963365Y67985240D01*
X78970882Y67979572D01*
X79016588Y67942305D01*
X79016589Y67942304D01*
X79029420Y67935601D01*
X79043564Y67928213D01*
X79056979Y67920085D01*
X79081951Y67902705D01*
X79081954Y67902703D01*
X79081957Y67902702D01*
X79136167Y67879437D01*
X79144673Y67875397D01*
X79196943Y67848093D01*
X79196956Y67848088D01*
X79226196Y67839722D01*
X79240983Y67834458D01*
X79268941Y67822460D01*
X79326726Y67810585D01*
X79335876Y67808339D01*
X79392573Y67792116D01*
X79392581Y67792114D01*
X79422914Y67789804D01*
X79438453Y67787624D01*
X79468255Y67781500D01*
X79468259Y67781500D01*
X79527255Y67781500D01*
X79536669Y67781142D01*
X79595476Y67776664D01*
X79625653Y67780507D01*
X79641317Y67781500D01*
X84306217Y67781500D01*
X84373256Y67761815D01*
X84393898Y67745181D01*
X84497181Y67641898D01*
X84530666Y67580575D01*
X84533500Y67554217D01*
X84533500Y66940031D01*
X84513815Y66872992D01*
X84461011Y66827237D01*
X84391853Y66817293D01*
X84328297Y66846318D01*
X84321827Y66852341D01*
X83980778Y67193390D01*
X83978663Y67195559D01*
X83918309Y67259053D01*
X83869891Y67292752D01*
X83862370Y67298422D01*
X83816657Y67335698D01*
X83789694Y67349782D01*
X83776263Y67357919D01*
X83751303Y67375292D01*
X83751299Y67375295D01*
X83697075Y67398563D01*
X83688611Y67402582D01*
X83636299Y67429909D01*
X83607047Y67438278D01*
X83592273Y67443538D01*
X83564308Y67455540D01*
X83506518Y67467415D01*
X83497412Y67469649D01*
X83440668Y67485887D01*
X83410327Y67488197D01*
X83394785Y67490376D01*
X83364991Y67496500D01*
X83364990Y67496500D01*
X83306009Y67496500D01*
X83296594Y67496857D01*
X83237774Y67501337D01*
X83207599Y67497494D01*
X83191932Y67496500D01*
X67589783Y67496500D01*
X67522744Y67516185D01*
X67502102Y67532819D01*
X65840819Y69194101D01*
X65807334Y69255424D01*
X65804500Y69281782D01*
X65804500Y69701500D01*
X65824185Y69768539D01*
X65876989Y69814294D01*
X65928500Y69825500D01*
X66804001Y69825500D01*
X66804019Y69825501D01*
X66906796Y69836000D01*
X66906799Y69836001D01*
X67073331Y69891185D01*
X67073334Y69891186D01*
X67222656Y69983288D01*
X67346712Y70107344D01*
X67438814Y70256666D01*
X67493999Y70423203D01*
X67504500Y70525991D01*
X67504499Y71326000D01*
X69504001Y71326000D01*
X69504001Y70526013D01*
X69514494Y70423302D01*
X69569641Y70256880D01*
X69569643Y70256875D01*
X69661684Y70107654D01*
X69785654Y69983684D01*
X69934875Y69891643D01*
X69934880Y69891641D01*
X70101302Y69836494D01*
X70101309Y69836493D01*
X70204013Y69826000D01*
X71954000Y69826000D01*
X71954000Y71326000D01*
X72454000Y71326000D01*
X72454000Y69826000D01*
X74203971Y69826000D01*
X74203987Y69826001D01*
X74306697Y69836494D01*
X74473119Y69891641D01*
X74473124Y69891643D01*
X74622345Y69983684D01*
X74746315Y70107654D01*
X74838356Y70256875D01*
X74838358Y70256880D01*
X74893505Y70423302D01*
X74893506Y70423309D01*
X74903999Y70526013D01*
X74904000Y70526026D01*
X74904000Y71326000D01*
X72454000Y71326000D01*
X71954000Y71326000D01*
X69504001Y71326000D01*
X67504499Y71326000D01*
X67504499Y71826000D01*
X69504000Y71826000D01*
X71954000Y71826000D01*
X71954000Y73325999D01*
X72454000Y73325999D01*
X72454000Y71826000D01*
X74903999Y71826000D01*
X74903999Y72625971D01*
X74903998Y72625986D01*
X74893505Y72728697D01*
X74838358Y72895119D01*
X74838356Y72895124D01*
X74746315Y73044345D01*
X74622345Y73168315D01*
X74473124Y73260356D01*
X74473119Y73260358D01*
X74306697Y73315505D01*
X74306690Y73315506D01*
X74203980Y73325999D01*
X72454000Y73325999D01*
X71954000Y73325999D01*
X70204028Y73325999D01*
X70204013Y73325998D01*
X70101302Y73315505D01*
X69934880Y73260358D01*
X69934875Y73260356D01*
X69785654Y73168315D01*
X69661684Y73044345D01*
X69569643Y72895124D01*
X69569641Y72895119D01*
X69514494Y72728697D01*
X69514493Y72728690D01*
X69504000Y72625986D01*
X69504000Y71826000D01*
X67504499Y71826000D01*
X67504499Y72626008D01*
X67493999Y72728797D01*
X67438814Y72895334D01*
X67346712Y73044656D01*
X67222656Y73168712D01*
X67073334Y73260814D01*
X66906797Y73315999D01*
X66804009Y73326500D01*
X62803992Y73326499D01*
X62803983Y73326498D01*
X62803981Y73326498D01*
X62701203Y73315999D01*
X62534666Y73260814D01*
X62385344Y73168712D01*
X62261288Y73044656D01*
X62253627Y73032235D01*
X62170256Y72897068D01*
X62169186Y72895334D01*
X62114001Y72728797D01*
X62114001Y72728795D01*
X62114000Y72728795D01*
X62103500Y72626016D01*
X62103500Y70525998D01*
X62103501Y70525981D01*
X62114000Y70423203D01*
X62114001Y70423200D01*
X62169185Y70256668D01*
X62169187Y70256663D01*
X62261289Y70107342D01*
X62385342Y69983289D01*
X62534663Y69891187D01*
X62534668Y69891185D01*
X62582235Y69875423D01*
X62701203Y69836001D01*
X62701204Y69836000D01*
X62803983Y69825500D01*
X62803991Y69825500D01*
X63679500Y69825500D01*
X63746539Y69805815D01*
X63792294Y69753011D01*
X63803500Y69701500D01*
X63803500Y68830277D01*
X63803460Y68827137D01*
X63801243Y68739637D01*
X63801243Y68739628D01*
X63811648Y68681578D01*
X63812956Y68672252D01*
X63818925Y68613564D01*
X63818926Y68613562D01*
X63828035Y68584526D01*
X63831774Y68569290D01*
X63837141Y68539350D01*
X63837141Y68539349D01*
X63859022Y68484567D01*
X63862179Y68475698D01*
X63879840Y68419414D01*
X63879842Y68419410D01*
X63894605Y68392811D01*
X63901336Y68378638D01*
X63912623Y68350382D01*
X63912625Y68350378D01*
X63945086Y68301122D01*
X63949965Y68293069D01*
X63978588Y68241501D01*
X63998408Y68218413D01*
X64007852Y68205887D01*
X64024594Y68180485D01*
X64024600Y68180478D01*
X64066303Y68138774D01*
X64072703Y68131869D01*
X64111136Y68087102D01*
X64135193Y68068480D01*
X64146969Y68058108D01*
X66406451Y65798626D01*
X66408643Y65796379D01*
X66468943Y65732945D01*
X66468944Y65732944D01*
X66491870Y65716987D01*
X66535647Y65662532D01*
X66543034Y65593053D01*
X66511685Y65530611D01*
X66486127Y65509675D01*
X66356654Y65429815D01*
X66232684Y65305845D01*
X66140643Y65156624D01*
X66140641Y65156619D01*
X66085494Y64990197D01*
X66085493Y64990190D01*
X66075000Y64887486D01*
X66075000Y64750000D01*
X68524999Y64750000D01*
X68524999Y64887471D01*
X68524998Y64887486D01*
X68514505Y64990197D01*
X68459358Y65156619D01*
X68459356Y65156624D01*
X68366972Y65306403D01*
X68348532Y65373796D01*
X68369455Y65440459D01*
X68423097Y65485229D01*
X68472511Y65495500D01*
X69201902Y65495500D01*
X69268941Y65475815D01*
X69314696Y65423011D01*
X69324640Y65353853D01*
X69307441Y65306403D01*
X69307289Y65306157D01*
X69307288Y65306156D01*
X69268977Y65244043D01*
X69217563Y65160687D01*
X69215186Y65156834D01*
X69160001Y64990297D01*
X69160001Y64990295D01*
X69160000Y64990295D01*
X69149500Y64887516D01*
X69149500Y64112498D01*
X69149501Y64112480D01*
X69160000Y64009703D01*
X69160001Y64009700D01*
X69215185Y63843168D01*
X69215187Y63843163D01*
X69307289Y63693842D01*
X69431346Y63569785D01*
X69434182Y63568037D01*
X69435717Y63566329D01*
X69437011Y63565307D01*
X69436836Y63565085D01*
X69480905Y63516089D01*
X69492126Y63447126D01*
X69464282Y63383044D01*
X69434182Y63356963D01*
X69431346Y63355214D01*
X69307288Y63231156D01*
X69307285Y63231152D01*
X69265239Y63162985D01*
X69213291Y63116260D01*
X69173045Y63105826D01*
X69173092Y63105571D01*
X69169570Y63104925D01*
X69167188Y63104308D01*
X69165722Y63104218D01*
X69165715Y63104219D01*
X69158318Y63102863D01*
X69156503Y63102531D01*
X69134152Y63100500D01*
X68669848Y63100500D01*
X68647497Y63102531D01*
X68645681Y63102863D01*
X68638285Y63104219D01*
X68638282Y63104218D01*
X68638282Y63104219D01*
X68589562Y63101271D01*
X68580534Y63100725D01*
X68573049Y63100500D01*
X68517508Y63100500D01*
X68450469Y63120185D01*
X68411969Y63159403D01*
X68367712Y63231156D01*
X68243656Y63355212D01*
X68240347Y63357253D01*
X68238555Y63359245D01*
X68237989Y63359693D01*
X68238065Y63359789D01*
X68193623Y63409194D01*
X68182395Y63478156D01*
X68210234Y63542240D01*
X68240339Y63568329D01*
X68243341Y63570181D01*
X68243344Y63570183D01*
X68367315Y63694154D01*
X68459356Y63843375D01*
X68459358Y63843380D01*
X68514505Y64009802D01*
X68514506Y64009809D01*
X68524999Y64112513D01*
X68525000Y64112526D01*
X68525000Y64250000D01*
X66075001Y64250000D01*
X66075001Y64112513D01*
X66085494Y64009802D01*
X66140641Y63843380D01*
X66140643Y63843375D01*
X66232684Y63694154D01*
X66356655Y63570183D01*
X66356660Y63570179D01*
X66359665Y63568326D01*
X66361290Y63566518D01*
X66362323Y63565702D01*
X66362183Y63565525D01*
X66406385Y63516374D01*
X66417601Y63447411D01*
X66389752Y63383331D01*
X66359653Y63357253D01*
X66356344Y63355212D01*
X66232288Y63231156D01*
X66188031Y63159403D01*
X66140187Y63081836D01*
X66140185Y63081831D01*
X66087257Y62922106D01*
X66047484Y62864661D01*
X65982968Y62837838D01*
X65914192Y62850153D01*
X65881873Y62873426D01*
X65869711Y62885588D01*
X65864609Y62891008D01*
X65826229Y62934332D01*
X65778603Y62967204D01*
X65772577Y62971639D01*
X65731332Y63003954D01*
X65727028Y63007326D01*
X65718480Y63011172D01*
X65698935Y63022197D01*
X65691227Y63027517D01*
X65691226Y63027518D01*
X65637122Y63048036D01*
X65630208Y63050901D01*
X65604335Y63062544D01*
X65577439Y63074650D01*
X65568221Y63076338D01*
X65546605Y63082365D01*
X65537845Y63085688D01*
X65510184Y63089046D01*
X65446007Y63116666D01*
X65419592Y63147042D01*
X65367712Y63231156D01*
X65243656Y63355212D01*
X65240347Y63357253D01*
X65238555Y63359245D01*
X65237989Y63359693D01*
X65238065Y63359789D01*
X65193623Y63409194D01*
X65182395Y63478156D01*
X65210234Y63542240D01*
X65240339Y63568329D01*
X65243341Y63570181D01*
X65243344Y63570183D01*
X65367315Y63694154D01*
X65459356Y63843375D01*
X65459358Y63843380D01*
X65514505Y64009802D01*
X65514506Y64009809D01*
X65524999Y64112513D01*
X65525000Y64112526D01*
X65525000Y64250000D01*
X63075001Y64250000D01*
X63075001Y64112513D01*
X63085494Y64009802D01*
X63140641Y63843380D01*
X63140643Y63843375D01*
X63232684Y63694154D01*
X63356655Y63570183D01*
X63356660Y63570179D01*
X63359665Y63568326D01*
X63361290Y63566518D01*
X63362323Y63565702D01*
X63362183Y63565525D01*
X63406385Y63516374D01*
X63417601Y63447411D01*
X63389752Y63383331D01*
X63359653Y63357253D01*
X63356344Y63355212D01*
X63232288Y63231156D01*
X63188031Y63159403D01*
X63142563Y63085687D01*
X63140186Y63081834D01*
X63085001Y62915297D01*
X63085001Y62915295D01*
X63085000Y62915295D01*
X63074500Y62812516D01*
X63074500Y62037498D01*
X63074501Y62037480D01*
X63085000Y61934703D01*
X63085001Y61934700D01*
X63140185Y61768168D01*
X63140187Y61768163D01*
X63232289Y61618842D01*
X63356342Y61494789D01*
X63505663Y61402687D01*
X63505672Y61402683D01*
X63567147Y61382312D01*
X63624591Y61342539D01*
X63651413Y61278022D01*
X63639097Y61209247D01*
X63591553Y61158048D01*
X63567149Y61146903D01*
X63530666Y61134814D01*
X63381344Y61042712D01*
X63257288Y60918656D01*
X63218516Y60855796D01*
X63165316Y60769544D01*
X63165186Y60769334D01*
X63110001Y60602797D01*
X63110001Y60602795D01*
X63110000Y60602795D01*
X63099500Y60500016D01*
X63099500Y59699998D01*
X63099501Y59699980D01*
X63110000Y59597203D01*
X63110001Y59597200D01*
X63165185Y59430668D01*
X63165187Y59430663D01*
X63257289Y59281342D01*
X63350951Y59187681D01*
X63384436Y59126358D01*
X63379452Y59056666D01*
X63350951Y59012319D01*
X63257288Y58918656D01*
X63207540Y58838000D01*
X63205321Y58834403D01*
X63153373Y58787679D01*
X63099782Y58775500D01*
X62943162Y58775500D01*
X62935675Y58775726D01*
X62935499Y58775736D01*
X62877915Y58779220D01*
X62820976Y58768784D01*
X62813585Y58767660D01*
X62756155Y58760688D01*
X62747396Y58757365D01*
X62725765Y58751336D01*
X62719669Y58750219D01*
X62716565Y58749651D01*
X62716564Y58749650D01*
X62716561Y58749650D01*
X62663801Y58725905D01*
X62656883Y58723040D01*
X62602779Y58702520D01*
X62602774Y58702518D01*
X62602768Y58702514D01*
X62595066Y58697198D01*
X62575515Y58686171D01*
X62566971Y58682326D01*
X62521424Y58646641D01*
X62515390Y58642201D01*
X62467772Y58609333D01*
X62467771Y58609332D01*
X62429391Y58566010D01*
X62424271Y58560572D01*
X62137180Y58273481D01*
X62075857Y58239996D01*
X62006165Y58244980D01*
X61950232Y58286852D01*
X61925815Y58352316D01*
X61925499Y58361162D01*
X61925499Y59510370D01*
X61925499Y59510373D01*
X61919091Y59569983D01*
X61868796Y59704831D01*
X61782546Y59820046D01*
X61667331Y59906296D01*
X61532483Y59956591D01*
X61472873Y59963000D01*
X60727128Y59962999D01*
X60678757Y59957799D01*
X60667516Y59956591D01*
X60532670Y59906297D01*
X60524888Y59902047D01*
X60523134Y59905257D01*
X60474001Y59886861D01*
X60405709Y59901627D01*
X60404736Y59902252D01*
X60397329Y59906297D01*
X60341823Y59926999D01*
X60262483Y59956591D01*
X60202873Y59963000D01*
X59457128Y59962999D01*
X59408757Y59957799D01*
X59397516Y59956591D01*
X59262670Y59906297D01*
X59254888Y59902047D01*
X59253134Y59905257D01*
X59204001Y59886861D01*
X59135709Y59901627D01*
X59134736Y59902252D01*
X59127329Y59906297D01*
X59071823Y59926999D01*
X58992483Y59956591D01*
X58932873Y59963000D01*
X58187128Y59962999D01*
X58138757Y59957799D01*
X58127516Y59956591D01*
X57992670Y59906297D01*
X57984888Y59902047D01*
X57983134Y59905257D01*
X57934001Y59886861D01*
X57865709Y59901627D01*
X57864736Y59902252D01*
X57857329Y59906297D01*
X57801823Y59926999D01*
X57722483Y59956591D01*
X57662873Y59963000D01*
X56917128Y59962999D01*
X56868757Y59957799D01*
X56857516Y59956591D01*
X56722671Y59906297D01*
X56722664Y59906293D01*
X56607455Y59820047D01*
X56607181Y59819773D01*
X56606840Y59819587D01*
X56600355Y59814732D01*
X56599656Y59815664D01*
X56545858Y59786288D01*
X56476166Y59791272D01*
X56420233Y59833144D01*
X56395816Y59898608D01*
X56395500Y59907454D01*
X56395500Y60639721D01*
X56395540Y60642863D01*
X56397757Y60730360D01*
X56397757Y60730361D01*
X56397445Y60732105D01*
X56395500Y60753979D01*
X56395500Y61283499D01*
X56395659Y61289779D01*
X56399369Y61362936D01*
X56396930Y61378857D01*
X56395500Y61397633D01*
X56395500Y61881240D01*
X56395858Y61890656D01*
X56400337Y61949475D01*
X56399035Y61959700D01*
X56396493Y61979654D01*
X56395500Y61995318D01*
X56395500Y62917260D01*
X56415185Y62984299D01*
X56467989Y63030054D01*
X56537147Y63039998D01*
X56600703Y63010973D01*
X56607181Y63004941D01*
X56607812Y63004309D01*
X56722906Y62918149D01*
X56722913Y62918145D01*
X56857620Y62867903D01*
X56857627Y62867901D01*
X56917155Y62861500D01*
X57040000Y62861500D01*
X57040000Y65386500D01*
X56917172Y65386500D01*
X56917155Y65386499D01*
X56857627Y65380098D01*
X56857620Y65380096D01*
X56722913Y65329854D01*
X56722906Y65329850D01*
X56607812Y65243690D01*
X56607181Y65243059D01*
X56606397Y65242631D01*
X56600712Y65238375D01*
X56600100Y65239192D01*
X56545858Y65209574D01*
X56476166Y65214558D01*
X56420233Y65256430D01*
X56395816Y65321894D01*
X56395500Y65330740D01*
X56395500Y71319217D01*
X56415185Y71386256D01*
X56431819Y71406898D01*
X58406635Y73381714D01*
X58467958Y73415199D01*
X58537635Y73410220D01*
X58543584Y73408002D01*
X58599523Y73366138D01*
X58623948Y73300677D01*
X58609105Y73232402D01*
X58587946Y73204134D01*
X58465891Y73082079D01*
X58465886Y73082073D01*
X58330400Y72888579D01*
X58230570Y72674492D01*
X58230567Y72674486D01*
X58173364Y72461000D01*
X59070314Y72461000D01*
X59044507Y72420844D01*
X59004000Y72282889D01*
X59004000Y72139111D01*
X59044507Y72001156D01*
X59070314Y71961000D01*
X58173364Y71961000D01*
X58230567Y71747513D01*
X58230570Y71747507D01*
X58330399Y71533421D01*
X58465894Y71339917D01*
X58632921Y71172890D01*
X58818595Y71042879D01*
X58862220Y70988302D01*
X58869412Y70918804D01*
X58837890Y70856449D01*
X58818594Y70839730D01*
X58632597Y70709494D01*
X58465505Y70542402D01*
X58329965Y70348830D01*
X58329964Y70348828D01*
X58296603Y70277285D01*
X58230097Y70134663D01*
X58230096Y70134659D01*
X58230094Y70134655D01*
X58168938Y69906413D01*
X58168936Y69906403D01*
X58148341Y69671000D01*
X58148341Y69670999D01*
X58168936Y69435596D01*
X58168938Y69435586D01*
X58230094Y69207344D01*
X58230098Y69207335D01*
X58329965Y68993169D01*
X58329967Y68993165D01*
X58465501Y68799604D01*
X58465506Y68799597D01*
X58632597Y68632506D01*
X58632604Y68632501D01*
X58826165Y68496967D01*
X58826169Y68496965D01*
X59040335Y68397098D01*
X59040344Y68397094D01*
X59268586Y68335938D01*
X59268596Y68335936D01*
X59503999Y68315341D01*
X59504000Y68315341D01*
X59504002Y68315341D01*
X59677693Y68330537D01*
X59746193Y68316770D01*
X59796376Y68268155D01*
X59812500Y68207009D01*
X59812500Y67823217D01*
X59792815Y67756178D01*
X59753595Y67717678D01*
X59669348Y67665715D01*
X59669345Y67665713D01*
X59575681Y67572049D01*
X59514358Y67538564D01*
X59444666Y67543548D01*
X59400319Y67572049D01*
X59366789Y67605579D01*
X59306656Y67665712D01*
X59157334Y67757814D01*
X58990797Y67812999D01*
X58888009Y67823500D01*
X58087992Y67823499D01*
X58087984Y67823498D01*
X58087980Y67823498D01*
X57985203Y67812999D01*
X57818666Y67757814D01*
X57669344Y67665712D01*
X57545288Y67541656D01*
X57453186Y67392334D01*
X57398001Y67225797D01*
X57398001Y67225795D01*
X57398000Y67225795D01*
X57387500Y67123016D01*
X57387500Y66122998D01*
X57387501Y66122980D01*
X57398000Y66020203D01*
X57398001Y66020200D01*
X57453185Y65853668D01*
X57453187Y65853663D01*
X57545289Y65704342D01*
X57651451Y65598181D01*
X57684936Y65536858D01*
X57679952Y65467166D01*
X57638080Y65411233D01*
X57572616Y65386816D01*
X57563770Y65386500D01*
X57540000Y65386500D01*
X57540000Y62861500D01*
X57662844Y62861500D01*
X57722372Y62867901D01*
X57722379Y62867903D01*
X57857086Y62918145D01*
X57864872Y62922397D01*
X57866628Y62919179D01*
X57915976Y62937477D01*
X57984220Y62922493D01*
X57986018Y62921335D01*
X57992671Y62917702D01*
X58127513Y62867410D01*
X58127514Y62867409D01*
X58127517Y62867409D01*
X58187127Y62861000D01*
X58187135Y62861000D01*
X58187136Y62861000D01*
X58932870Y62861000D01*
X58932876Y62861001D01*
X58992483Y62867408D01*
X59127328Y62917702D01*
X59135114Y62921954D01*
X59136846Y62918780D01*
X59186302Y62937159D01*
X59254557Y62922225D01*
X59255502Y62921617D01*
X59262671Y62917702D01*
X59397513Y62867410D01*
X59397514Y62867409D01*
X59397517Y62867409D01*
X59457127Y62861000D01*
X59457135Y62861000D01*
X59457136Y62861000D01*
X60202870Y62861000D01*
X60202876Y62861001D01*
X60262483Y62867408D01*
X60397328Y62917702D01*
X60405114Y62921954D01*
X60406846Y62918780D01*
X60456302Y62937159D01*
X60524557Y62922225D01*
X60525502Y62921617D01*
X60532671Y62917702D01*
X60667513Y62867410D01*
X60667514Y62867409D01*
X60667517Y62867409D01*
X60727127Y62861000D01*
X60727135Y62861000D01*
X60727136Y62861000D01*
X61472870Y62861000D01*
X61472876Y62861001D01*
X61532483Y62867408D01*
X61667328Y62917702D01*
X61667335Y62917706D01*
X61782544Y63003952D01*
X61782547Y63003955D01*
X61868793Y63119164D01*
X61868797Y63119171D01*
X61919091Y63254017D01*
X61922690Y63287495D01*
X61925500Y63313627D01*
X61925499Y64750000D01*
X63075000Y64750000D01*
X64050000Y64750000D01*
X64050000Y65587499D01*
X64550000Y65587499D01*
X64550000Y64750000D01*
X65524999Y64750000D01*
X65524999Y64887471D01*
X65524998Y64887486D01*
X65514505Y64990197D01*
X65459358Y65156619D01*
X65459356Y65156624D01*
X65367315Y65305845D01*
X65243345Y65429815D01*
X65094124Y65521856D01*
X65094119Y65521858D01*
X64927697Y65577005D01*
X64927690Y65577006D01*
X64824980Y65587499D01*
X64550000Y65587499D01*
X64050000Y65587499D01*
X63775028Y65587499D01*
X63775013Y65587498D01*
X63672302Y65577005D01*
X63505880Y65521858D01*
X63505875Y65521856D01*
X63356654Y65429815D01*
X63232684Y65305845D01*
X63140643Y65156624D01*
X63140641Y65156619D01*
X63085494Y64990197D01*
X63085493Y64990190D01*
X63075000Y64887486D01*
X63075000Y64750000D01*
X61925499Y64750000D01*
X61925499Y64934372D01*
X61919091Y64993983D01*
X61868796Y65128831D01*
X61782546Y65244046D01*
X61667331Y65330296D01*
X61532483Y65380591D01*
X61472873Y65387000D01*
X61412727Y65386999D01*
X61345691Y65406683D01*
X61299935Y65459486D01*
X61289991Y65528644D01*
X61319015Y65592200D01*
X61325048Y65598680D01*
X61430710Y65704342D01*
X61430712Y65704344D01*
X61522814Y65853666D01*
X61577999Y66020203D01*
X61588500Y66122991D01*
X61588499Y67123008D01*
X61577999Y67225797D01*
X61522814Y67392334D01*
X61430712Y67541656D01*
X61306656Y67665712D01*
X61235018Y67709898D01*
X61222405Y67717678D01*
X61175679Y67769625D01*
X61163500Y67823217D01*
X61163500Y68662849D01*
X61163726Y68670336D01*
X61167219Y68728085D01*
X61156790Y68784993D01*
X61155663Y68792399D01*
X61151445Y68827137D01*
X61148688Y68849845D01*
X61145365Y68858605D01*
X61139338Y68880221D01*
X61137650Y68889439D01*
X61125544Y68916335D01*
X61113901Y68942208D01*
X61111034Y68949129D01*
X61107251Y68959105D01*
X61090518Y69003226D01*
X61085197Y69010935D01*
X61074172Y69030480D01*
X61070326Y69039028D01*
X61034638Y69084578D01*
X61030204Y69090603D01*
X60997332Y69138229D01*
X60954008Y69176609D01*
X60948588Y69181711D01*
X60859178Y69271121D01*
X60825695Y69332442D01*
X60827086Y69390893D01*
X60830555Y69403843D01*
X60839063Y69435592D01*
X60859659Y69671000D01*
X60839063Y69906408D01*
X60777903Y70134663D01*
X60678035Y70348829D01*
X60542495Y70542401D01*
X60375401Y70709495D01*
X60189405Y70839730D01*
X60145781Y70894307D01*
X60138587Y70963805D01*
X60170110Y71026160D01*
X60189405Y71042879D01*
X60375078Y71172890D01*
X60542105Y71339917D01*
X60677600Y71533421D01*
X60777429Y71747507D01*
X60777432Y71747513D01*
X60834636Y71961000D01*
X59937686Y71961000D01*
X59963493Y72001156D01*
X60004000Y72139111D01*
X60004000Y72282889D01*
X59963493Y72420844D01*
X59937686Y72461000D01*
X60834635Y72461000D01*
X60777432Y72674486D01*
X60777429Y72674492D01*
X60677600Y72888579D01*
X60542113Y73082073D01*
X60420053Y73204133D01*
X60386568Y73265456D01*
X60391552Y73335148D01*
X60433423Y73391082D01*
X60464401Y73407997D01*
X60596328Y73457202D01*
X60596335Y73457206D01*
X60711544Y73543452D01*
X60711547Y73543455D01*
X60797793Y73658664D01*
X60797797Y73658671D01*
X60848091Y73793517D01*
X60851550Y73825690D01*
X60854500Y73853127D01*
X60854499Y75648872D01*
X60848091Y75708483D01*
X60797796Y75843331D01*
X60711546Y75958546D01*
X60596331Y76044796D01*
X60461483Y76095091D01*
X60401873Y76101500D01*
X58606128Y76101499D01*
X58557757Y76096299D01*
X58546516Y76095091D01*
X58411671Y76044797D01*
X58411664Y76044793D01*
X58296455Y75958547D01*
X58296452Y75958544D01*
X58210205Y75843334D01*
X58193776Y75799287D01*
X58151904Y75743355D01*
X58099469Y75720568D01*
X58084347Y75717858D01*
X58029567Y75695976D01*
X58020709Y75692822D01*
X57964412Y75675159D01*
X57964406Y75675157D01*
X57937814Y75660396D01*
X57923633Y75653661D01*
X57911654Y75648876D01*
X57895385Y75642378D01*
X57895380Y75642375D01*
X57846131Y75609918D01*
X57838075Y75605037D01*
X57786498Y75576409D01*
X57763410Y75556588D01*
X57750885Y75547144D01*
X57725481Y75530402D01*
X57725478Y75530399D01*
X57683771Y75488692D01*
X57676875Y75482300D01*
X57632105Y75443866D01*
X57632103Y75443863D01*
X57613479Y75419804D01*
X57603105Y75408026D01*
X56211975Y74016895D01*
X54947591Y72752511D01*
X54886268Y72719026D01*
X54816576Y72724010D01*
X54760643Y72765882D01*
X54736226Y72831346D01*
X54737972Y72862707D01*
X54744319Y72897067D01*
X54754212Y73167765D01*
X54724586Y73437018D01*
X54656072Y73699088D01*
X54550130Y73948390D01*
X54409018Y74179610D01*
X54235745Y74387820D01*
X54034002Y74568582D01*
X53808090Y74718044D01*
X53562824Y74833020D01*
X53555829Y74835124D01*
X53303442Y74911057D01*
X53303438Y74911057D01*
X53303431Y74911060D01*
X53035439Y74950500D01*
X52832369Y74950500D01*
X52832364Y74950499D01*
X52832351Y74950499D01*
X52783556Y74946927D01*
X52629844Y74935677D01*
X52593966Y74927685D01*
X52365453Y74876782D01*
X52365449Y74876780D01*
X52365447Y74876780D01*
X52112442Y74780014D01*
X51876223Y74647441D01*
X51661823Y74481888D01*
X51661822Y74481887D01*
X51473822Y74286890D01*
X51473816Y74286883D01*
X51473814Y74286881D01*
X51316202Y74066580D01*
X51316199Y74066575D01*
X51192350Y73825690D01*
X51192343Y73825672D01*
X51104884Y73569314D01*
X51104882Y73569305D01*
X51058004Y73315506D01*
X51055681Y73302931D01*
X51055680Y73302924D01*
X51045787Y73032236D01*
X51075413Y72762986D01*
X51075415Y72762975D01*
X51143926Y72500917D01*
X51143927Y72500912D01*
X51143928Y72500912D01*
X51249870Y72251610D01*
X51390979Y72020394D01*
X51390986Y72020384D01*
X51564253Y71812180D01*
X51564259Y71812175D01*
X51765997Y71631418D01*
X51991907Y71481957D01*
X52237185Y71366976D01*
X52496557Y71288942D01*
X52496571Y71288939D01*
X52642679Y71267437D01*
X52764561Y71249500D01*
X52764565Y71249500D01*
X52967648Y71249500D01*
X53158904Y71263499D01*
X53170156Y71264323D01*
X53170158Y71264323D01*
X53170168Y71264325D01*
X53434546Y71323217D01*
X53434553Y71323220D01*
X53478209Y71339917D01*
X53687558Y71419986D01*
X53923777Y71552559D01*
X54138177Y71718112D01*
X54141485Y71721543D01*
X54181232Y71762769D01*
X54241934Y71797369D01*
X54311705Y71793658D01*
X54368394Y71752815D01*
X54394002Y71687807D01*
X54394500Y71676704D01*
X54394500Y65236500D01*
X54374815Y65169461D01*
X54322011Y65123706D01*
X54270500Y65112500D01*
X54119730Y65112500D01*
X54052691Y65132185D01*
X54032049Y65148819D01*
X54020180Y65160688D01*
X54001156Y65179712D01*
X53851834Y65271814D01*
X53685297Y65326999D01*
X53582509Y65337500D01*
X52807492Y65337499D01*
X52807484Y65337498D01*
X52807480Y65337498D01*
X52704703Y65326999D01*
X52538166Y65271814D01*
X52388844Y65179712D01*
X52264788Y65055656D01*
X52264595Y65055342D01*
X52262745Y65052343D01*
X52260750Y65050549D01*
X52260307Y65049989D01*
X52260211Y65050064D01*
X52210797Y65005618D01*
X52141834Y64994397D01*
X52077752Y65022240D01*
X52051665Y65052348D01*
X52049818Y65055342D01*
X51925845Y65179315D01*
X51776624Y65271356D01*
X51776619Y65271358D01*
X51610197Y65326505D01*
X51610190Y65326506D01*
X51507480Y65336999D01*
X51370000Y65336999D01*
X51370000Y62887000D01*
X51507472Y62887000D01*
X51507487Y62887001D01*
X51610197Y62897494D01*
X51776619Y62952641D01*
X51776624Y62952643D01*
X51925845Y63044684D01*
X52049816Y63168655D01*
X52049819Y63168659D01*
X52051668Y63171656D01*
X52053472Y63173279D01*
X52054298Y63174323D01*
X52054476Y63174181D01*
X52103616Y63218381D01*
X52172579Y63229602D01*
X52236661Y63201759D01*
X52262741Y63171661D01*
X52264783Y63168349D01*
X52264788Y63168343D01*
X52388842Y63044289D01*
X52538163Y62952187D01*
X52538168Y62952185D01*
X52622170Y62924349D01*
X52704703Y62897001D01*
X52704704Y62897000D01*
X52807489Y62886500D01*
X52807491Y62886500D01*
X53582501Y62886500D01*
X53582519Y62886501D01*
X53685296Y62897000D01*
X53685299Y62897001D01*
X53851831Y62952185D01*
X53851834Y62952186D01*
X53855575Y62954493D01*
X53909118Y62987519D01*
X54001156Y63044288D01*
X54032049Y63075181D01*
X54093372Y63108666D01*
X54119730Y63111500D01*
X54265217Y63111500D01*
X54332256Y63091815D01*
X54352898Y63075181D01*
X54358181Y63069898D01*
X54391666Y63008575D01*
X54394500Y62982217D01*
X54394500Y62436500D01*
X54374815Y62369461D01*
X54322011Y62323706D01*
X54270500Y62312500D01*
X54119730Y62312500D01*
X54052691Y62332185D01*
X54032049Y62348819D01*
X54016696Y62364172D01*
X54001156Y62379712D01*
X53851834Y62471814D01*
X53685297Y62526999D01*
X53582509Y62537500D01*
X52807492Y62537499D01*
X52807484Y62537498D01*
X52807480Y62537498D01*
X52704703Y62526999D01*
X52538166Y62471814D01*
X52388844Y62379712D01*
X52264788Y62255656D01*
X52264595Y62255342D01*
X52262745Y62252343D01*
X52260750Y62250549D01*
X52260307Y62249989D01*
X52260211Y62250064D01*
X52210797Y62205618D01*
X52141834Y62194397D01*
X52077752Y62222240D01*
X52051665Y62252348D01*
X52049818Y62255342D01*
X51925845Y62379315D01*
X51776624Y62471356D01*
X51776619Y62471358D01*
X51610197Y62526505D01*
X51610190Y62526506D01*
X51507480Y62536999D01*
X51370000Y62536999D01*
X51370000Y61186000D01*
X51350315Y61118961D01*
X51297511Y61073206D01*
X51246000Y61062000D01*
X50032501Y61062000D01*
X50032501Y60787013D01*
X48900500Y60787013D01*
X48900500Y61562000D01*
X50032500Y61562000D01*
X50870000Y61562000D01*
X50870000Y62536999D01*
X50732528Y62536999D01*
X50732513Y62536998D01*
X50629802Y62526505D01*
X50463380Y62471358D01*
X50463375Y62471356D01*
X50314154Y62379315D01*
X50190184Y62255345D01*
X50098143Y62106124D01*
X50098141Y62106119D01*
X50042994Y61939697D01*
X50042993Y61939690D01*
X50032500Y61836986D01*
X50032500Y61562000D01*
X48900500Y61562000D01*
X48900500Y63862000D01*
X50032501Y63862000D01*
X50032501Y63587013D01*
X50042994Y63484302D01*
X50098141Y63317880D01*
X50098143Y63317875D01*
X50190184Y63168654D01*
X50314154Y63044684D01*
X50463375Y62952643D01*
X50463380Y62952641D01*
X50629802Y62897494D01*
X50629809Y62897493D01*
X50732513Y62887000D01*
X50870000Y62887000D01*
X50870000Y63862000D01*
X50032501Y63862000D01*
X48900500Y63862000D01*
X48900500Y64362000D01*
X50032500Y64362000D01*
X50870000Y64362000D01*
X50870000Y65336999D01*
X50732528Y65336999D01*
X50732513Y65336998D01*
X50629802Y65326505D01*
X50463380Y65271358D01*
X50463375Y65271356D01*
X50314154Y65179315D01*
X50190184Y65055345D01*
X50098143Y64906124D01*
X50098141Y64906119D01*
X50042994Y64739697D01*
X50042993Y64739690D01*
X50032500Y64636986D01*
X50032500Y64362000D01*
X48900500Y64362000D01*
X48900500Y73097128D01*
X48900632Y73102854D01*
X48903658Y73168315D01*
X48908489Y73272814D01*
X48918166Y73469795D01*
X48919201Y73480787D01*
X48944601Y73662871D01*
X48944741Y73663842D01*
X48971949Y73847261D01*
X48973892Y73857413D01*
X49016510Y74038614D01*
X49016852Y74040023D01*
X49061401Y74217874D01*
X49064096Y74227091D01*
X49123550Y74404478D01*
X49124292Y74406618D01*
X49185692Y74578220D01*
X49189004Y74586519D01*
X49264712Y74757980D01*
X49266051Y74760909D01*
X49306892Y74847263D01*
X49343715Y74925119D01*
X49347465Y74932411D01*
X49438833Y75096446D01*
X49440777Y75099810D01*
X49534017Y75255371D01*
X49538058Y75261670D01*
X49644256Y75416699D01*
X49646935Y75420459D01*
X49754882Y75566009D01*
X49759040Y75571305D01*
X49879200Y75716009D01*
X49882617Y75719947D01*
X50004303Y75854206D01*
X50008478Y75858590D01*
X50141408Y75991520D01*
X50145795Y75995698D01*
X50280045Y76117375D01*
X50283998Y76120805D01*
X50428684Y76240951D01*
X50434000Y76245124D01*
X50579521Y76353049D01*
X50583299Y76355742D01*
X50738328Y76461940D01*
X50744645Y76465992D01*
X50900153Y76559200D01*
X50903563Y76561171D01*
X51067573Y76652525D01*
X51074896Y76656291D01*
X51239089Y76733947D01*
X51242018Y76735286D01*
X51413479Y76810994D01*
X51421791Y76814311D01*
X51593265Y76875666D01*
X51595634Y76876487D01*
X51772881Y76935894D01*
X51782157Y76938606D01*
X51959803Y76983104D01*
X51961543Y76983526D01*
X52142562Y77026101D01*
X52152758Y77028053D01*
X52336156Y77055257D01*
X52337218Y77055410D01*
X52519184Y77080794D01*
X52530232Y77081834D01*
X52727067Y77091503D01*
X52727423Y77091520D01*
X52892305Y77099144D01*
X52897145Y77099368D01*
X52902872Y77099500D01*
X92897128Y77099500D01*
X92902854Y77099368D01*
G37*
%TD.AperFunction*%
%TD*%
M02*
