%TF.GenerationSoftware,KiCad,Pcbnew,7.0.10*%
%TF.CreationDate,2024-03-03T12:06:43+01:00*%
%TF.ProjectId,explorer-panel,6578706c-6f72-4657-922d-70616e656c2e,rev?*%
%TF.SameCoordinates,Original*%
%TF.FileFunction,Soldermask,Top*%
%TF.FilePolarity,Negative*%
%FSLAX46Y46*%
G04 Gerber Fmt 4.6, Leading zero omitted, Abs format (unit mm)*
G04 Created by KiCad (PCBNEW 7.0.10) date 2024-03-03 12:06:43*
%MOMM*%
%LPD*%
G01*
G04 APERTURE LIST*
G04 Aperture macros list*
%AMRoundRect*
0 Rectangle with rounded corners*
0 $1 Rounding radius*
0 $2 $3 $4 $5 $6 $7 $8 $9 X,Y pos of 4 corners*
0 Add a 4 corners polygon primitive as box body*
4,1,4,$2,$3,$4,$5,$6,$7,$8,$9,$2,$3,0*
0 Add four circle primitives for the rounded corners*
1,1,$1+$1,$2,$3*
1,1,$1+$1,$4,$5*
1,1,$1+$1,$6,$7*
1,1,$1+$1,$8,$9*
0 Add four rect primitives between the rounded corners*
20,1,$1+$1,$2,$3,$4,$5,0*
20,1,$1+$1,$4,$5,$6,$7,0*
20,1,$1+$1,$6,$7,$8,$9,0*
20,1,$1+$1,$8,$9,$2,$3,0*%
G04 Aperture macros list end*
%ADD10C,0.500000*%
%ADD11RoundRect,0.250000X0.450000X-0.350000X0.450000X0.350000X-0.450000X0.350000X-0.450000X-0.350000X0*%
%ADD12R,3.500000X3.500000*%
%ADD13RoundRect,0.750000X1.000000X-0.750000X1.000000X0.750000X-1.000000X0.750000X-1.000000X-0.750000X0*%
%ADD14RoundRect,0.875000X0.875000X-0.875000X0.875000X0.875000X-0.875000X0.875000X-0.875000X-0.875000X0*%
%ADD15C,3.200000*%
%ADD16RoundRect,0.225000X0.225000X0.375000X-0.225000X0.375000X-0.225000X-0.375000X0.225000X-0.375000X0*%
%ADD17RoundRect,0.250000X0.475000X-0.337500X0.475000X0.337500X-0.475000X0.337500X-0.475000X-0.337500X0*%
%ADD18RoundRect,0.250001X-0.949999X-0.949999X0.949999X-0.949999X0.949999X0.949999X-0.949999X0.949999X0*%
%ADD19C,2.400000*%
%ADD20R,1.800000X1.800000*%
%ADD21C,1.800000*%
%ADD22RoundRect,0.250000X-1.950000X-1.000000X1.950000X-1.000000X1.950000X1.000000X-1.950000X1.000000X0*%
%ADD23R,1.700000X1.700000*%
%ADD24O,1.700000X1.700000*%
%ADD25R,0.650000X1.525000*%
%ADD26C,3.000000*%
%ADD27RoundRect,0.249999X-0.512501X-1.075001X0.512501X-1.075001X0.512501X1.075001X-0.512501X1.075001X0*%
%ADD28RoundRect,0.250000X0.337500X0.475000X-0.337500X0.475000X-0.337500X-0.475000X0.337500X-0.475000X0*%
%ADD29RoundRect,0.250000X-0.450000X0.350000X-0.450000X-0.350000X0.450000X-0.350000X0.450000X0.350000X0*%
%ADD30RoundRect,0.250000X-0.350000X-0.450000X0.350000X-0.450000X0.350000X0.450000X-0.350000X0.450000X0*%
%ADD31C,1.600000*%
%ADD32O,1.600000X1.600000*%
%ADD33R,1.300000X1.900000*%
%ADD34R,2.000000X1.900000*%
G04 APERTURE END LIST*
D10*
%TO.C,KiKit_MB_9_2*%
X50128000Y-46542666D03*
%TD*%
%TO.C,KiKit_MB_4_6*%
X80525333Y-33000000D03*
%TD*%
%TO.C,KiKit_MB_4_2*%
X33730666Y-33000000D03*
%TD*%
D11*
%TO.C,R1*%
X65592000Y-19000000D03*
X65592000Y-17000000D03*
%TD*%
D10*
%TO.C,KiKit_MB_8_4*%
X55692000Y-35674143D03*
%TD*%
%TO.C,KiKit_MB_7_4*%
X50192000Y-21521334D03*
%TD*%
D12*
%TO.C,J2*%
X64192000Y-24500000D03*
D13*
X64192000Y-30500000D03*
D14*
X68892000Y-27500000D03*
%TD*%
D10*
%TO.C,KiKit_MB_9_7*%
X84692000Y-35936000D03*
%TD*%
%TO.C,KiKit_MB_3_4*%
X74192000Y-33000000D03*
%TD*%
D15*
%TO.C,H2*%
X94192000Y-4000000D03*
%TD*%
D10*
%TO.C,KiKit_MB_9_3*%
X81358666Y-35936000D03*
%TD*%
D15*
%TO.C,H2*%
X44064000Y-4000000D03*
%TD*%
D10*
%TO.C,KiKit_MB_1_1*%
X60692000Y-33000000D03*
%TD*%
%TO.C,KiKit_MB_8_5*%
X24897333Y-35936000D03*
%TD*%
D16*
%TO.C,D1*%
X26364000Y-24000000D03*
X23064000Y-24000000D03*
%TD*%
D17*
%TO.C,C2*%
X18464000Y-14675000D03*
X18464000Y-12600000D03*
%TD*%
D10*
%TO.C,KiKit_MB_1_6*%
X56525334Y-33000000D03*
%TD*%
%TO.C,KiKit_MB_10_5*%
X91025333Y-35936000D03*
%TD*%
%TO.C,KiKit_MB_5_2*%
X48128000Y-57053333D03*
%TD*%
%TO.C,KiKit_MB_10_5*%
X40897333Y-35936000D03*
%TD*%
D18*
%TO.C,_J1*%
X34064000Y-63500000D03*
D19*
X38024000Y-63500000D03*
%TD*%
D10*
%TO.C,KiKit_MB_2_3*%
X16897334Y-33000000D03*
%TD*%
%TO.C,KiKit_MB_3_3*%
X24897333Y-33000000D03*
%TD*%
D20*
%TO.C,_D2*%
X74192000Y-51250000D03*
D21*
X74192000Y-53790000D03*
%TD*%
D10*
%TO.C,KiKit_MB_6_7*%
X60692000Y-35936000D03*
%TD*%
%TO.C,KiKit_MB_6_5*%
X8897334Y-35936000D03*
%TD*%
%TO.C,KiKit_MB_6_1*%
X5564000Y-35936000D03*
%TD*%
D22*
%TO.C,C4*%
X15968000Y-5524000D03*
X23368000Y-5524000D03*
%TD*%
D10*
%TO.C,KiKit_MB_2_5*%
X65358667Y-33000000D03*
%TD*%
D23*
%TO.C,JPROG1*%
X10668000Y-2349000D03*
D24*
X10668000Y-4889000D03*
X10668000Y-7429000D03*
%TD*%
D11*
%TO.C,R1*%
X15464000Y-19000000D03*
X15464000Y-17000000D03*
%TD*%
D25*
%TO.C,IC1*%
X58582000Y-18400000D03*
X59852000Y-18400000D03*
X61122000Y-18400000D03*
X62392000Y-18400000D03*
X62392000Y-12976000D03*
X61122000Y-12976000D03*
X59852000Y-12976000D03*
X58582000Y-12976000D03*
%TD*%
D26*
%TO.C,_H2*%
X94192000Y-40000000D03*
%TD*%
D27*
%TO.C,_D1*%
X71854500Y-52500000D03*
X76529500Y-52500000D03*
%TD*%
D10*
%TO.C,KiKit_MB_10_2*%
X88525333Y-35936000D03*
%TD*%
%TO.C,KiKit_MB_9_4*%
X50128000Y-44542666D03*
%TD*%
D18*
%TO.C,J1*%
X34064000Y-27500000D03*
D19*
X38024000Y-27500000D03*
%TD*%
D22*
%TO.C,C6*%
X29828000Y-5524000D03*
X37228000Y-5524000D03*
%TD*%
D28*
%TO.C,C8*%
X54487000Y-15788000D03*
X52412000Y-15788000D03*
%TD*%
D10*
%TO.C,KiKit_MB_1_2*%
X9730667Y-33000000D03*
%TD*%
%TO.C,KiKit_MB_2_4*%
X16064000Y-33000000D03*
%TD*%
%TO.C,KiKit_MB_4_3*%
X83025333Y-33000000D03*
%TD*%
D28*
%TO.C,C9*%
X54524500Y-18388000D03*
X52449500Y-18388000D03*
%TD*%
D17*
%TO.C,C1*%
X65592000Y-14675000D03*
X65592000Y-12600000D03*
%TD*%
D10*
%TO.C,KiKit_MB_1_4*%
X58192000Y-33000000D03*
%TD*%
%TO.C,KiKit_MB_7_6*%
X67858667Y-35936000D03*
%TD*%
%TO.C,KiKit_MB_1_1*%
X10564000Y-33000000D03*
%TD*%
%TO.C,KiKit_MB_6_4*%
X58192000Y-35936000D03*
%TD*%
%TO.C,KiKit_MB_7_1*%
X63692000Y-35936000D03*
%TD*%
%TO.C,KiKit_MB_2_7*%
X63692000Y-33000000D03*
%TD*%
D26*
%TO.C,_H2*%
X44064000Y-40000000D03*
%TD*%
D10*
%TO.C,KiKit_MB_5_4*%
X40064000Y-33000000D03*
%TD*%
%TO.C,KiKit_MB_8_7*%
X26564000Y-35936000D03*
%TD*%
%TO.C,KiKit_MB_3_3*%
X75025333Y-33000000D03*
%TD*%
%TO.C,KiKit_MB_6_6*%
X59858667Y-35936000D03*
%TD*%
%TO.C,KiKit_MB_2_2*%
X17730667Y-33000000D03*
%TD*%
%TO.C,KiKit_MB_10_3*%
X39230666Y-35936000D03*
%TD*%
%TO.C,KiKit_MB_10_1*%
X87692000Y-35936000D03*
%TD*%
%TO.C,KiKit_MB_5_7*%
X87692000Y-33000000D03*
%TD*%
%TO.C,KiKit_MB_8_7*%
X55692000Y-33032000D03*
%TD*%
%TO.C,KiKit_MB_1_7*%
X5564000Y-33000000D03*
%TD*%
D15*
%TO.C,H4*%
X4064000Y-29000000D03*
%TD*%
D10*
%TO.C,KiKit_MB_10_3*%
X50128000Y-57053333D03*
%TD*%
%TO.C,KiKit_MB_8_3*%
X23230667Y-35936000D03*
%TD*%
D29*
%TO.C,_R2*%
X17064000Y-51500000D03*
X17064000Y-53500000D03*
%TD*%
D10*
%TO.C,KiKit_MB_9_5*%
X83025333Y-35936000D03*
%TD*%
%TO.C,KiKit_MB_9_5*%
X32897333Y-35936000D03*
%TD*%
%TO.C,KiKit_MB_2_1*%
X68692000Y-33000000D03*
%TD*%
%TO.C,KiKit_MB_8_6*%
X75858666Y-35936000D03*
%TD*%
%TO.C,KiKit_MB_1_2*%
X48064000Y-11010667D03*
%TD*%
%TO.C,KiKit_MB_9_4*%
X82192000Y-35936000D03*
%TD*%
%TO.C,KiKit_MB_8_5*%
X55692000Y-34793429D03*
%TD*%
%TO.C,KiKit_MB_2_2*%
X48064000Y-22521334D03*
%TD*%
%TO.C,KiKit_MB_5_3*%
X91025333Y-33000000D03*
%TD*%
%TO.C,KiKit_MB_3_6*%
X22397334Y-33000000D03*
%TD*%
D17*
%TO.C,C10*%
X90192000Y-14500000D03*
X90192000Y-12425000D03*
%TD*%
D10*
%TO.C,KiKit_MB_6_4*%
X8064000Y-35936000D03*
%TD*%
%TO.C,KiKit_MB_4_5*%
X81358666Y-33000000D03*
%TD*%
%TO.C,KiKit_MB_10_4*%
X50128000Y-56053333D03*
%TD*%
%TO.C,KiKit_MB_3_2*%
X25730666Y-33000000D03*
%TD*%
%TO.C,KiKit_MB_3_4*%
X24064000Y-33000000D03*
%TD*%
D17*
%TO.C,C1*%
X15464000Y-14675000D03*
X15464000Y-12600000D03*
%TD*%
D10*
%TO.C,KiKit_MB_2_1*%
X18564000Y-33000000D03*
%TD*%
%TO.C,KiKit_MB_10_4*%
X90192000Y-35936000D03*
%TD*%
%TO.C,KiKit_MB_2_2*%
X67858667Y-33000000D03*
%TD*%
%TO.C,KiKit_MB_3_7*%
X71692000Y-33000000D03*
%TD*%
D26*
%TO.C,_H3*%
X54192000Y-65000000D03*
%TD*%
D23*
%TO.C,JSPK1*%
X94792000Y-17724000D03*
D24*
X94792000Y-15184000D03*
%TD*%
D10*
%TO.C,KiKit_MB_3_7*%
X44937279Y-36032000D03*
%TD*%
%TO.C,KiKit_MB_1_2*%
X59858667Y-33000000D03*
%TD*%
D30*
%TO.C,R4*%
X9652000Y-10477000D03*
X11652000Y-10477000D03*
%TD*%
D10*
%TO.C,KiKit_MB_6_1*%
X55692000Y-35936000D03*
%TD*%
%TO.C,KiKit_MB_3_7*%
X21564000Y-33000000D03*
%TD*%
%TO.C,KiKit_MB_4_4*%
X32064000Y-33000000D03*
%TD*%
D12*
%TO.C,_J2*%
X14064000Y-60500000D03*
D13*
X14064000Y-66500000D03*
D14*
X18764000Y-63500000D03*
%TD*%
D10*
%TO.C,KiKit_MB_7_6*%
X17730667Y-35936000D03*
%TD*%
%TO.C,KiKit_MB_6_7*%
X10564000Y-35936000D03*
%TD*%
D17*
%TO.C,C3*%
X30464000Y-16725000D03*
X30464000Y-14650000D03*
%TD*%
D20*
%TO.C,_D2*%
X24064000Y-51250000D03*
D21*
X24064000Y-53790000D03*
%TD*%
D28*
%TO.C,C9*%
X4396500Y-18388000D03*
X2321500Y-18388000D03*
%TD*%
D10*
%TO.C,KiKit_MB_7_3*%
X65358667Y-35936000D03*
%TD*%
D28*
%TO.C,C7*%
X4359000Y-12988000D03*
X2284000Y-12988000D03*
%TD*%
D26*
%TO.C,_H1*%
X4064000Y-40000000D03*
%TD*%
D11*
%TO.C,R2*%
X18464000Y-19000000D03*
X18464000Y-17000000D03*
%TD*%
D10*
%TO.C,KiKit_MB_1_6*%
X6397334Y-33000000D03*
%TD*%
D16*
%TO.C,D1*%
X76492000Y-24000000D03*
X73192000Y-24000000D03*
%TD*%
D17*
%TO.C,C2*%
X68592000Y-14675000D03*
X68592000Y-12600000D03*
%TD*%
D10*
%TO.C,KiKit_MB_5_4*%
X90192000Y-33000000D03*
%TD*%
%TO.C,KiKit_MB_8_7*%
X76692000Y-35936000D03*
%TD*%
%TO.C,KiKit_MB_1_3*%
X48064000Y-12010667D03*
%TD*%
D17*
%TO.C,C3*%
X80592000Y-16725000D03*
X80592000Y-14650000D03*
%TD*%
D10*
%TO.C,KiKit_MB_3_2*%
X42564000Y-33912715D03*
%TD*%
D15*
%TO.C,H4*%
X54192000Y-29000000D03*
%TD*%
D10*
%TO.C,KiKit_MB_9_1*%
X79692000Y-35936000D03*
%TD*%
%TO.C,KiKit_MB_6_3*%
X57358667Y-35936000D03*
%TD*%
%TO.C,KiKit_MB_6_2*%
X6397334Y-35936000D03*
%TD*%
%TO.C,KiKit_MB_6_3*%
X7230667Y-35936000D03*
%TD*%
%TO.C,KiKit_MB_4_4*%
X48128000Y-47542666D03*
%TD*%
%TO.C,KiKit_MB_5_7*%
X37564000Y-33000000D03*
%TD*%
D17*
%TO.C,C10*%
X40064000Y-14500000D03*
X40064000Y-12425000D03*
%TD*%
D10*
%TO.C,KiKit_MB_1_7*%
X55692000Y-33000000D03*
%TD*%
D23*
%TO.C,JPROG1*%
X60796000Y-2349000D03*
D24*
X60796000Y-4889000D03*
X60796000Y-7429000D03*
%TD*%
D10*
%TO.C,KiKit_MB_4_3*%
X32897333Y-33000000D03*
%TD*%
D25*
%TO.C,IC1*%
X8454000Y-18400000D03*
X9724000Y-18400000D03*
X10994000Y-18400000D03*
X12264000Y-18400000D03*
X12264000Y-12976000D03*
X10994000Y-12976000D03*
X9724000Y-12976000D03*
X8454000Y-12976000D03*
%TD*%
D31*
%TO.C,_R1*%
X61492000Y-44750000D03*
D32*
X86892000Y-44750000D03*
%TD*%
D10*
%TO.C,KiKit_MB_8_1*%
X21564000Y-35936000D03*
%TD*%
%TO.C,KiKit_MB_1_4*%
X48064000Y-13010667D03*
%TD*%
D25*
%TO.C,IC2*%
X32888000Y-18400000D03*
X34158000Y-18400000D03*
X35428000Y-18400000D03*
X36698000Y-18400000D03*
X36698000Y-12976000D03*
X35428000Y-12976000D03*
X34158000Y-12976000D03*
X32888000Y-12976000D03*
%TD*%
D10*
%TO.C,KiKit_MB_10_2*%
X38397333Y-35936000D03*
%TD*%
%TO.C,KiKit_MB_5_6*%
X38397333Y-33000000D03*
%TD*%
%TO.C,KiKit_MB_3_2*%
X75858666Y-33000000D03*
%TD*%
%TO.C,KiKit_MB_8_3*%
X55073141Y-35936000D03*
%TD*%
%TO.C,KiKit_MB_9_7*%
X34564000Y-35936000D03*
%TD*%
%TO.C,KiKit_MB_8_3*%
X73358667Y-35936000D03*
%TD*%
D12*
%TO.C,_J2*%
X64192000Y-60500000D03*
D13*
X64192000Y-66500000D03*
D14*
X68892000Y-63500000D03*
%TD*%
D10*
%TO.C,KiKit_MB_7_2*%
X50192000Y-23521334D03*
%TD*%
%TO.C,KiKit_MB_1_5*%
X57358667Y-33000000D03*
%TD*%
D22*
%TO.C,C4*%
X66096000Y-5524000D03*
X73496000Y-5524000D03*
%TD*%
D10*
%TO.C,KiKit_MB_2_4*%
X66192000Y-33000000D03*
%TD*%
%TO.C,KiKit_MB_7_3*%
X50192000Y-22521334D03*
%TD*%
D26*
%TO.C,_H1*%
X54192000Y-40000000D03*
%TD*%
D15*
%TO.C,H1*%
X54192000Y-4000000D03*
%TD*%
D10*
%TO.C,KiKit_MB_2_7*%
X13564000Y-33000000D03*
%TD*%
%TO.C,KiKit_MB_7_2*%
X64525334Y-35936000D03*
%TD*%
%TO.C,KiKit_MB_1_3*%
X8897334Y-33000000D03*
%TD*%
%TO.C,KiKit_MB_5_3*%
X48128000Y-58053333D03*
%TD*%
%TO.C,KiKit_MB_10_6*%
X41730666Y-35936000D03*
%TD*%
%TO.C,KiKit_MB_7_1*%
X50192000Y-24521334D03*
%TD*%
%TO.C,KiKit_MB_5_3*%
X40897333Y-33000000D03*
%TD*%
%TO.C,KiKit_MB_1_5*%
X7230667Y-33000000D03*
%TD*%
D27*
%TO.C,_D1*%
X21726500Y-52500000D03*
X26401500Y-52500000D03*
%TD*%
D10*
%TO.C,KiKit_MB_1_3*%
X59025334Y-33000000D03*
%TD*%
%TO.C,KiKit_MB_5_5*%
X89358666Y-33000000D03*
%TD*%
D30*
%TO.C,R4*%
X59780000Y-10477000D03*
X61780000Y-10477000D03*
%TD*%
D10*
%TO.C,KiKit_MB_10_2*%
X50128000Y-58053333D03*
%TD*%
%TO.C,KiKit_MB_7_1*%
X13564000Y-35936000D03*
%TD*%
%TO.C,KiKit_MB_3_3*%
X42564000Y-34793428D03*
%TD*%
%TO.C,KiKit_MB_4_2*%
X48128000Y-45542666D03*
%TD*%
%TO.C,KiKit_MB_10_7*%
X42564000Y-35936000D03*
%TD*%
%TO.C,KiKit_MB_2_1*%
X48064000Y-21521334D03*
%TD*%
%TO.C,KiKit_MB_7_7*%
X18564000Y-35936000D03*
%TD*%
%TO.C,KiKit_MB_8_6*%
X25730666Y-35936000D03*
%TD*%
%TO.C,KiKit_MB_3_5*%
X23230667Y-33000000D03*
%TD*%
%TO.C,KiKit_MB_2_5*%
X15230667Y-33000000D03*
%TD*%
%TO.C,KiKit_MB_7_5*%
X67025334Y-35936000D03*
%TD*%
%TO.C,KiKit_MB_8_4*%
X74192000Y-35936000D03*
%TD*%
D26*
%TO.C,_H4*%
X44064000Y-65000000D03*
%TD*%
D18*
%TO.C,J1*%
X84192000Y-27500000D03*
D19*
X88152000Y-27500000D03*
%TD*%
D10*
%TO.C,KiKit_MB_2_4*%
X48064000Y-24521334D03*
%TD*%
%TO.C,KiKit_MB_9_6*%
X33730666Y-35936000D03*
%TD*%
%TO.C,KiKit_MB_2_6*%
X14397334Y-33000000D03*
%TD*%
%TO.C,KiKit_MB_8_1*%
X53318719Y-36032000D03*
%TD*%
D15*
%TO.C,H1*%
X4064000Y-4000000D03*
%TD*%
D10*
%TO.C,KiKit_MB_5_2*%
X41730666Y-33000000D03*
%TD*%
%TO.C,KiKit_MB_7_2*%
X14397334Y-35936000D03*
%TD*%
%TO.C,KiKit_MB_7_3*%
X15230667Y-35936000D03*
%TD*%
%TO.C,KiKit_MB_4_4*%
X82192000Y-33000000D03*
%TD*%
%TO.C,KiKit_MB_6_5*%
X59025334Y-35936000D03*
%TD*%
%TO.C,KiKit_MB_9_4*%
X32064000Y-35936000D03*
%TD*%
%TO.C,KiKit_MB_10_3*%
X89358666Y-35936000D03*
%TD*%
%TO.C,KiKit_MB_4_1*%
X84692000Y-33000000D03*
%TD*%
%TO.C,KiKit_MB_4_6*%
X30397333Y-33000000D03*
%TD*%
%TO.C,KiKit_MB_8_4*%
X24064000Y-35936000D03*
%TD*%
%TO.C,KiKit_MB_7_4*%
X66192000Y-35936000D03*
%TD*%
%TO.C,KiKit_MB_6_3*%
X50192000Y-11010667D03*
%TD*%
D31*
%TO.C,_R1*%
X11364000Y-44750000D03*
D32*
X36764000Y-44750000D03*
%TD*%
D10*
%TO.C,KiKit_MB_4_7*%
X29564000Y-33000000D03*
%TD*%
%TO.C,KiKit_MB_5_1*%
X42564000Y-33000000D03*
%TD*%
D15*
%TO.C,H3*%
X94192000Y-29000000D03*
%TD*%
D10*
%TO.C,KiKit_MB_5_6*%
X88525333Y-33000000D03*
%TD*%
%TO.C,KiKit_MB_9_3*%
X50128000Y-45542666D03*
%TD*%
%TO.C,KiKit_MB_10_4*%
X40064000Y-35936000D03*
%TD*%
%TO.C,KiKit_MB_6_4*%
X50192000Y-10010667D03*
%TD*%
%TO.C,KiKit_MB_4_3*%
X48128000Y-46542666D03*
%TD*%
D17*
%TO.C,C5*%
X21539000Y-14675000D03*
X21539000Y-12600000D03*
%TD*%
D10*
%TO.C,KiKit_MB_9_3*%
X31230666Y-35936000D03*
%TD*%
%TO.C,KiKit_MB_3_1*%
X42564000Y-33032000D03*
%TD*%
D15*
%TO.C,H3*%
X44064000Y-29000000D03*
%TD*%
D22*
%TO.C,C6*%
X79956000Y-5524000D03*
X87356000Y-5524000D03*
%TD*%
D18*
%TO.C,_J1*%
X84192000Y-63500000D03*
D19*
X88152000Y-63500000D03*
%TD*%
D29*
%TO.C,R3*%
X90192000Y-17000000D03*
X90192000Y-19000000D03*
%TD*%
D10*
%TO.C,KiKit_MB_9_1*%
X29564000Y-35936000D03*
%TD*%
%TO.C,KiKit_MB_6_2*%
X56525334Y-35936000D03*
%TD*%
%TO.C,KiKit_MB_8_5*%
X75025333Y-35936000D03*
%TD*%
%TO.C,KiKit_MB_3_1*%
X26564000Y-33000000D03*
%TD*%
%TO.C,KiKit_MB_8_2*%
X54192427Y-35936000D03*
%TD*%
%TO.C,KiKit_MB_4_1*%
X34564000Y-33000000D03*
%TD*%
%TO.C,KiKit_MB_9_2*%
X30397333Y-35936000D03*
%TD*%
%TO.C,KiKit_MB_10_7*%
X92692000Y-35936000D03*
%TD*%
%TO.C,KiKit_MB_2_6*%
X64525334Y-33000000D03*
%TD*%
D28*
%TO.C,C8*%
X4359000Y-15788000D03*
X2284000Y-15788000D03*
%TD*%
D10*
%TO.C,KiKit_MB_7_5*%
X16897334Y-35936000D03*
%TD*%
%TO.C,KiKit_MB_3_6*%
X72525334Y-33000000D03*
%TD*%
%TO.C,KiKit_MB_4_5*%
X31230666Y-33000000D03*
%TD*%
D33*
%TO.C,RV1*%
X77671000Y-13300000D03*
D34*
X76521000Y-18400000D03*
D33*
X75371000Y-13300000D03*
%TD*%
D10*
%TO.C,KiKit_MB_5_2*%
X91858666Y-33000000D03*
%TD*%
%TO.C,KiKit_MB_8_1*%
X71692000Y-35936000D03*
%TD*%
%TO.C,KiKit_MB_6_6*%
X9730667Y-35936000D03*
%TD*%
%TO.C,KiKit_MB_6_2*%
X50192000Y-12010667D03*
%TD*%
D11*
%TO.C,R2*%
X68592000Y-19000000D03*
X68592000Y-17000000D03*
%TD*%
D10*
%TO.C,KiKit_MB_3_1*%
X76692000Y-33000000D03*
%TD*%
D25*
%TO.C,IC2*%
X83016000Y-18400000D03*
X84286000Y-18400000D03*
X85556000Y-18400000D03*
X86826000Y-18400000D03*
X86826000Y-12976000D03*
X85556000Y-12976000D03*
X84286000Y-12976000D03*
X83016000Y-12976000D03*
%TD*%
D10*
%TO.C,KiKit_MB_5_4*%
X48128000Y-59053333D03*
%TD*%
D26*
%TO.C,_H3*%
X4064000Y-65000000D03*
%TD*%
D10*
%TO.C,KiKit_MB_10_1*%
X50128000Y-59053333D03*
%TD*%
D17*
%TO.C,C5*%
X71667000Y-14675000D03*
X71667000Y-12600000D03*
%TD*%
D10*
%TO.C,KiKit_MB_3_5*%
X73358667Y-33000000D03*
%TD*%
%TO.C,KiKit_MB_2_3*%
X67025334Y-33000000D03*
%TD*%
%TO.C,KiKit_MB_5_1*%
X48128000Y-56053333D03*
%TD*%
%TO.C,KiKit_MB_6_1*%
X50192000Y-13010667D03*
%TD*%
D28*
%TO.C,C7*%
X54487000Y-12988000D03*
X52412000Y-12988000D03*
%TD*%
D29*
%TO.C,_R2*%
X67192000Y-51500000D03*
X67192000Y-53500000D03*
%TD*%
D23*
%TO.C,JSPK1*%
X44664000Y-17724000D03*
D24*
X44664000Y-15184000D03*
%TD*%
D10*
%TO.C,KiKit_MB_8_2*%
X22397334Y-35936000D03*
%TD*%
%TO.C,KiKit_MB_3_4*%
X42564000Y-35674143D03*
%TD*%
%TO.C,KiKit_MB_8_6*%
X55692000Y-33912715D03*
%TD*%
%TO.C,KiKit_MB_3_6*%
X44063572Y-35936000D03*
%TD*%
D33*
%TO.C,RV1*%
X27543000Y-13300000D03*
D34*
X26393000Y-18400000D03*
D33*
X25243000Y-13300000D03*
%TD*%
D10*
%TO.C,KiKit_MB_8_2*%
X72525334Y-35936000D03*
%TD*%
D12*
%TO.C,J2*%
X14064000Y-24500000D03*
D13*
X14064000Y-30500000D03*
D14*
X18764000Y-27500000D03*
%TD*%
D10*
%TO.C,KiKit_MB_10_1*%
X37564000Y-35936000D03*
%TD*%
%TO.C,KiKit_MB_3_5*%
X43182857Y-35936000D03*
%TD*%
%TO.C,KiKit_MB_4_1*%
X48128000Y-44542666D03*
%TD*%
%TO.C,KiKit_MB_5_5*%
X39230666Y-33000000D03*
%TD*%
%TO.C,KiKit_MB_4_2*%
X83858666Y-33000000D03*
%TD*%
D29*
%TO.C,R3*%
X40064000Y-17000000D03*
X40064000Y-19000000D03*
%TD*%
D10*
%TO.C,KiKit_MB_2_3*%
X48064000Y-23521334D03*
%TD*%
%TO.C,KiKit_MB_7_7*%
X68692000Y-35936000D03*
%TD*%
%TO.C,KiKit_MB_9_6*%
X83858666Y-35936000D03*
%TD*%
%TO.C,KiKit_MB_1_1*%
X48064000Y-10010667D03*
%TD*%
%TO.C,KiKit_MB_4_7*%
X79692000Y-33000000D03*
%TD*%
%TO.C,KiKit_MB_5_1*%
X92692000Y-33000000D03*
%TD*%
%TO.C,KiKit_MB_10_6*%
X91858666Y-35936000D03*
%TD*%
D26*
%TO.C,_H4*%
X94192000Y-65000000D03*
%TD*%
D10*
%TO.C,KiKit_MB_9_1*%
X50128000Y-47542666D03*
%TD*%
%TO.C,KiKit_MB_7_4*%
X16064000Y-35936000D03*
%TD*%
%TO.C,KiKit_MB_9_2*%
X80525333Y-35936000D03*
%TD*%
%TO.C,KiKit_MB_1_4*%
X8064000Y-33000000D03*
%TD*%
M02*
