%TF.GenerationSoftware,KiCad,Pcbnew,7.0.10*%
%TF.CreationDate,2024-03-03T12:06:43+01:00*%
%TF.ProjectId,explorer-panel,6578706c-6f72-4657-922d-70616e656c2e,rev?*%
%TF.SameCoordinates,Original*%
%TF.FileFunction,Legend,Top*%
%TF.FilePolarity,Positive*%
%FSLAX46Y46*%
G04 Gerber Fmt 4.6, Leading zero omitted, Abs format (unit mm)*
G04 Created by KiCad (PCBNEW 7.0.10) date 2024-03-03 12:06:43*
%MOMM*%
%LPD*%
G01*
G04 APERTURE LIST*
G04 Aperture macros list*
%AMRoundRect*
0 Rectangle with rounded corners*
0 $1 Rounding radius*
0 $2 $3 $4 $5 $6 $7 $8 $9 X,Y pos of 4 corners*
0 Add a 4 corners polygon primitive as box body*
4,1,4,$2,$3,$4,$5,$6,$7,$8,$9,$2,$3,0*
0 Add four circle primitives for the rounded corners*
1,1,$1+$1,$2,$3*
1,1,$1+$1,$4,$5*
1,1,$1+$1,$6,$7*
1,1,$1+$1,$8,$9*
0 Add four rect primitives between the rounded corners*
20,1,$1+$1,$2,$3,$4,$5,0*
20,1,$1+$1,$4,$5,$6,$7,0*
20,1,$1+$1,$6,$7,$8,$9,0*
20,1,$1+$1,$8,$9,$2,$3,0*%
G04 Aperture macros list end*
%ADD10C,0.150000*%
%ADD11C,0.254000*%
%ADD12C,0.120000*%
%ADD13C,0.200000*%
%ADD14C,0.500000*%
%ADD15RoundRect,0.250000X0.450000X-0.350000X0.450000X0.350000X-0.450000X0.350000X-0.450000X-0.350000X0*%
%ADD16R,3.500000X3.500000*%
%ADD17RoundRect,0.750000X1.000000X-0.750000X1.000000X0.750000X-1.000000X0.750000X-1.000000X-0.750000X0*%
%ADD18RoundRect,0.875000X0.875000X-0.875000X0.875000X0.875000X-0.875000X0.875000X-0.875000X-0.875000X0*%
%ADD19C,3.200000*%
%ADD20RoundRect,0.225000X0.225000X0.375000X-0.225000X0.375000X-0.225000X-0.375000X0.225000X-0.375000X0*%
%ADD21RoundRect,0.250000X0.475000X-0.337500X0.475000X0.337500X-0.475000X0.337500X-0.475000X-0.337500X0*%
%ADD22RoundRect,0.250001X-0.949999X-0.949999X0.949999X-0.949999X0.949999X0.949999X-0.949999X0.949999X0*%
%ADD23C,2.400000*%
%ADD24R,1.800000X1.800000*%
%ADD25C,1.800000*%
%ADD26RoundRect,0.250000X-1.950000X-1.000000X1.950000X-1.000000X1.950000X1.000000X-1.950000X1.000000X0*%
%ADD27R,1.700000X1.700000*%
%ADD28O,1.700000X1.700000*%
%ADD29R,0.650000X1.525000*%
%ADD30C,3.000000*%
%ADD31RoundRect,0.249999X-0.512501X-1.075001X0.512501X-1.075001X0.512501X1.075001X-0.512501X1.075001X0*%
%ADD32RoundRect,0.250000X0.337500X0.475000X-0.337500X0.475000X-0.337500X-0.475000X0.337500X-0.475000X0*%
%ADD33RoundRect,0.250000X-0.450000X0.350000X-0.450000X-0.350000X0.450000X-0.350000X0.450000X0.350000X0*%
%ADD34RoundRect,0.250000X-0.350000X-0.450000X0.350000X-0.450000X0.350000X0.450000X-0.350000X0.450000X0*%
%ADD35C,1.600000*%
%ADD36O,1.600000X1.600000*%
%ADD37R,1.300000X1.900000*%
%ADD38R,2.000000X1.900000*%
G04 APERTURE END LIST*
D10*
X71038779Y-66666819D02*
X71038779Y-65666819D01*
X71514969Y-66000152D02*
X71514969Y-66666819D01*
X71514969Y-66095390D02*
X71562588Y-66047771D01*
X71562588Y-66047771D02*
X71657826Y-66000152D01*
X71657826Y-66000152D02*
X71800683Y-66000152D01*
X71800683Y-66000152D02*
X71895921Y-66047771D01*
X71895921Y-66047771D02*
X71943540Y-66143009D01*
X71943540Y-66143009D02*
X71943540Y-66666819D01*
X72419731Y-66000152D02*
X72419731Y-67000152D01*
X72419731Y-66047771D02*
X72514969Y-66000152D01*
X72514969Y-66000152D02*
X72705445Y-66000152D01*
X72705445Y-66000152D02*
X72800683Y-66047771D01*
X72800683Y-66047771D02*
X72848302Y-66095390D01*
X72848302Y-66095390D02*
X72895921Y-66190628D01*
X72895921Y-66190628D02*
X72895921Y-66476342D01*
X72895921Y-66476342D02*
X72848302Y-66571580D01*
X72848302Y-66571580D02*
X72800683Y-66619200D01*
X72800683Y-66619200D02*
X72705445Y-66666819D01*
X72705445Y-66666819D02*
X72514969Y-66666819D01*
X72514969Y-66666819D02*
X72419731Y-66619200D01*
X73753064Y-66000152D02*
X73753064Y-66666819D01*
X73324493Y-66000152D02*
X73324493Y-66523961D01*
X73324493Y-66523961D02*
X73372112Y-66619200D01*
X73372112Y-66619200D02*
X73467350Y-66666819D01*
X73467350Y-66666819D02*
X73610207Y-66666819D01*
X73610207Y-66666819D02*
X73705445Y-66619200D01*
X73705445Y-66619200D02*
X73753064Y-66571580D01*
X74086398Y-66000152D02*
X74467350Y-66000152D01*
X74229255Y-65666819D02*
X74229255Y-66523961D01*
X74229255Y-66523961D02*
X74276874Y-66619200D01*
X74276874Y-66619200D02*
X74372112Y-66666819D01*
X74372112Y-66666819D02*
X74467350Y-66666819D01*
X76038779Y-65666819D02*
X75562589Y-65666819D01*
X75562589Y-65666819D02*
X75514970Y-66143009D01*
X75514970Y-66143009D02*
X75562589Y-66095390D01*
X75562589Y-66095390D02*
X75657827Y-66047771D01*
X75657827Y-66047771D02*
X75895922Y-66047771D01*
X75895922Y-66047771D02*
X75991160Y-66095390D01*
X75991160Y-66095390D02*
X76038779Y-66143009D01*
X76038779Y-66143009D02*
X76086398Y-66238247D01*
X76086398Y-66238247D02*
X76086398Y-66476342D01*
X76086398Y-66476342D02*
X76038779Y-66571580D01*
X76038779Y-66571580D02*
X75991160Y-66619200D01*
X75991160Y-66619200D02*
X75895922Y-66666819D01*
X75895922Y-66666819D02*
X75657827Y-66666819D01*
X75657827Y-66666819D02*
X75562589Y-66619200D01*
X75562589Y-66619200D02*
X75514970Y-66571580D01*
X76372113Y-66285866D02*
X76419732Y-66238247D01*
X76419732Y-66238247D02*
X76514970Y-66190628D01*
X76514970Y-66190628D02*
X76705446Y-66285866D01*
X76705446Y-66285866D02*
X76800684Y-66238247D01*
X76800684Y-66238247D02*
X76848303Y-66190628D01*
X77657827Y-65666819D02*
X77467351Y-65666819D01*
X77467351Y-65666819D02*
X77372113Y-65714438D01*
X77372113Y-65714438D02*
X77324494Y-65762057D01*
X77324494Y-65762057D02*
X77229256Y-65904914D01*
X77229256Y-65904914D02*
X77181637Y-66095390D01*
X77181637Y-66095390D02*
X77181637Y-66476342D01*
X77181637Y-66476342D02*
X77229256Y-66571580D01*
X77229256Y-66571580D02*
X77276875Y-66619200D01*
X77276875Y-66619200D02*
X77372113Y-66666819D01*
X77372113Y-66666819D02*
X77562589Y-66666819D01*
X77562589Y-66666819D02*
X77657827Y-66619200D01*
X77657827Y-66619200D02*
X77705446Y-66571580D01*
X77705446Y-66571580D02*
X77753065Y-66476342D01*
X77753065Y-66476342D02*
X77753065Y-66238247D01*
X77753065Y-66238247D02*
X77705446Y-66143009D01*
X77705446Y-66143009D02*
X77657827Y-66095390D01*
X77657827Y-66095390D02*
X77562589Y-66047771D01*
X77562589Y-66047771D02*
X77372113Y-66047771D01*
X77372113Y-66047771D02*
X77276875Y-66095390D01*
X77276875Y-66095390D02*
X77229256Y-66143009D01*
X77229256Y-66143009D02*
X77181637Y-66238247D01*
X78038780Y-65666819D02*
X78372113Y-66666819D01*
X78372113Y-66666819D02*
X78705446Y-65666819D01*
X93881160Y-13022200D02*
X94024017Y-13069819D01*
X94024017Y-13069819D02*
X94262112Y-13069819D01*
X94262112Y-13069819D02*
X94357350Y-13022200D01*
X94357350Y-13022200D02*
X94404969Y-12974580D01*
X94404969Y-12974580D02*
X94452588Y-12879342D01*
X94452588Y-12879342D02*
X94452588Y-12784104D01*
X94452588Y-12784104D02*
X94404969Y-12688866D01*
X94404969Y-12688866D02*
X94357350Y-12641247D01*
X94357350Y-12641247D02*
X94262112Y-12593628D01*
X94262112Y-12593628D02*
X94071636Y-12546009D01*
X94071636Y-12546009D02*
X93976398Y-12498390D01*
X93976398Y-12498390D02*
X93928779Y-12450771D01*
X93928779Y-12450771D02*
X93881160Y-12355533D01*
X93881160Y-12355533D02*
X93881160Y-12260295D01*
X93881160Y-12260295D02*
X93928779Y-12165057D01*
X93928779Y-12165057D02*
X93976398Y-12117438D01*
X93976398Y-12117438D02*
X94071636Y-12069819D01*
X94071636Y-12069819D02*
X94309731Y-12069819D01*
X94309731Y-12069819D02*
X94452588Y-12117438D01*
X94881160Y-13069819D02*
X94881160Y-12069819D01*
X94881160Y-12069819D02*
X95262112Y-12069819D01*
X95262112Y-12069819D02*
X95357350Y-12117438D01*
X95357350Y-12117438D02*
X95404969Y-12165057D01*
X95404969Y-12165057D02*
X95452588Y-12260295D01*
X95452588Y-12260295D02*
X95452588Y-12403152D01*
X95452588Y-12403152D02*
X95404969Y-12498390D01*
X95404969Y-12498390D02*
X95357350Y-12546009D01*
X95357350Y-12546009D02*
X95262112Y-12593628D01*
X95262112Y-12593628D02*
X94881160Y-12593628D01*
X95881160Y-12688866D02*
X96643065Y-12688866D01*
X96262112Y-13069819D02*
X96262112Y-12307914D01*
X43753160Y-13022200D02*
X43896017Y-13069819D01*
X43896017Y-13069819D02*
X44134112Y-13069819D01*
X44134112Y-13069819D02*
X44229350Y-13022200D01*
X44229350Y-13022200D02*
X44276969Y-12974580D01*
X44276969Y-12974580D02*
X44324588Y-12879342D01*
X44324588Y-12879342D02*
X44324588Y-12784104D01*
X44324588Y-12784104D02*
X44276969Y-12688866D01*
X44276969Y-12688866D02*
X44229350Y-12641247D01*
X44229350Y-12641247D02*
X44134112Y-12593628D01*
X44134112Y-12593628D02*
X43943636Y-12546009D01*
X43943636Y-12546009D02*
X43848398Y-12498390D01*
X43848398Y-12498390D02*
X43800779Y-12450771D01*
X43800779Y-12450771D02*
X43753160Y-12355533D01*
X43753160Y-12355533D02*
X43753160Y-12260295D01*
X43753160Y-12260295D02*
X43800779Y-12165057D01*
X43800779Y-12165057D02*
X43848398Y-12117438D01*
X43848398Y-12117438D02*
X43943636Y-12069819D01*
X43943636Y-12069819D02*
X44181731Y-12069819D01*
X44181731Y-12069819D02*
X44324588Y-12117438D01*
X44753160Y-13069819D02*
X44753160Y-12069819D01*
X44753160Y-12069819D02*
X45134112Y-12069819D01*
X45134112Y-12069819D02*
X45229350Y-12117438D01*
X45229350Y-12117438D02*
X45276969Y-12165057D01*
X45276969Y-12165057D02*
X45324588Y-12260295D01*
X45324588Y-12260295D02*
X45324588Y-12403152D01*
X45324588Y-12403152D02*
X45276969Y-12498390D01*
X45276969Y-12498390D02*
X45229350Y-12546009D01*
X45229350Y-12546009D02*
X45134112Y-12593628D01*
X45134112Y-12593628D02*
X44753160Y-12593628D01*
X45753160Y-12688866D02*
X46515065Y-12688866D01*
X46134112Y-13069819D02*
X46134112Y-12307914D01*
X20910779Y-66666819D02*
X20910779Y-65666819D01*
X21386969Y-66000152D02*
X21386969Y-66666819D01*
X21386969Y-66095390D02*
X21434588Y-66047771D01*
X21434588Y-66047771D02*
X21529826Y-66000152D01*
X21529826Y-66000152D02*
X21672683Y-66000152D01*
X21672683Y-66000152D02*
X21767921Y-66047771D01*
X21767921Y-66047771D02*
X21815540Y-66143009D01*
X21815540Y-66143009D02*
X21815540Y-66666819D01*
X22291731Y-66000152D02*
X22291731Y-67000152D01*
X22291731Y-66047771D02*
X22386969Y-66000152D01*
X22386969Y-66000152D02*
X22577445Y-66000152D01*
X22577445Y-66000152D02*
X22672683Y-66047771D01*
X22672683Y-66047771D02*
X22720302Y-66095390D01*
X22720302Y-66095390D02*
X22767921Y-66190628D01*
X22767921Y-66190628D02*
X22767921Y-66476342D01*
X22767921Y-66476342D02*
X22720302Y-66571580D01*
X22720302Y-66571580D02*
X22672683Y-66619200D01*
X22672683Y-66619200D02*
X22577445Y-66666819D01*
X22577445Y-66666819D02*
X22386969Y-66666819D01*
X22386969Y-66666819D02*
X22291731Y-66619200D01*
X23625064Y-66000152D02*
X23625064Y-66666819D01*
X23196493Y-66000152D02*
X23196493Y-66523961D01*
X23196493Y-66523961D02*
X23244112Y-66619200D01*
X23244112Y-66619200D02*
X23339350Y-66666819D01*
X23339350Y-66666819D02*
X23482207Y-66666819D01*
X23482207Y-66666819D02*
X23577445Y-66619200D01*
X23577445Y-66619200D02*
X23625064Y-66571580D01*
X23958398Y-66000152D02*
X24339350Y-66000152D01*
X24101255Y-65666819D02*
X24101255Y-66523961D01*
X24101255Y-66523961D02*
X24148874Y-66619200D01*
X24148874Y-66619200D02*
X24244112Y-66666819D01*
X24244112Y-66666819D02*
X24339350Y-66666819D01*
X25910779Y-65666819D02*
X25434589Y-65666819D01*
X25434589Y-65666819D02*
X25386970Y-66143009D01*
X25386970Y-66143009D02*
X25434589Y-66095390D01*
X25434589Y-66095390D02*
X25529827Y-66047771D01*
X25529827Y-66047771D02*
X25767922Y-66047771D01*
X25767922Y-66047771D02*
X25863160Y-66095390D01*
X25863160Y-66095390D02*
X25910779Y-66143009D01*
X25910779Y-66143009D02*
X25958398Y-66238247D01*
X25958398Y-66238247D02*
X25958398Y-66476342D01*
X25958398Y-66476342D02*
X25910779Y-66571580D01*
X25910779Y-66571580D02*
X25863160Y-66619200D01*
X25863160Y-66619200D02*
X25767922Y-66666819D01*
X25767922Y-66666819D02*
X25529827Y-66666819D01*
X25529827Y-66666819D02*
X25434589Y-66619200D01*
X25434589Y-66619200D02*
X25386970Y-66571580D01*
X26244113Y-66285866D02*
X26291732Y-66238247D01*
X26291732Y-66238247D02*
X26386970Y-66190628D01*
X26386970Y-66190628D02*
X26577446Y-66285866D01*
X26577446Y-66285866D02*
X26672684Y-66238247D01*
X26672684Y-66238247D02*
X26720303Y-66190628D01*
X27529827Y-65666819D02*
X27339351Y-65666819D01*
X27339351Y-65666819D02*
X27244113Y-65714438D01*
X27244113Y-65714438D02*
X27196494Y-65762057D01*
X27196494Y-65762057D02*
X27101256Y-65904914D01*
X27101256Y-65904914D02*
X27053637Y-66095390D01*
X27053637Y-66095390D02*
X27053637Y-66476342D01*
X27053637Y-66476342D02*
X27101256Y-66571580D01*
X27101256Y-66571580D02*
X27148875Y-66619200D01*
X27148875Y-66619200D02*
X27244113Y-66666819D01*
X27244113Y-66666819D02*
X27434589Y-66666819D01*
X27434589Y-66666819D02*
X27529827Y-66619200D01*
X27529827Y-66619200D02*
X27577446Y-66571580D01*
X27577446Y-66571580D02*
X27625065Y-66476342D01*
X27625065Y-66476342D02*
X27625065Y-66238247D01*
X27625065Y-66238247D02*
X27577446Y-66143009D01*
X27577446Y-66143009D02*
X27529827Y-66095390D01*
X27529827Y-66095390D02*
X27434589Y-66047771D01*
X27434589Y-66047771D02*
X27244113Y-66047771D01*
X27244113Y-66047771D02*
X27148875Y-66095390D01*
X27148875Y-66095390D02*
X27101256Y-66143009D01*
X27101256Y-66143009D02*
X27053637Y-66238247D01*
X27910780Y-65666819D02*
X28244113Y-66666819D01*
X28244113Y-66666819D02*
X28577446Y-65666819D01*
X20910779Y-30666819D02*
X20910779Y-29666819D01*
X21386969Y-30000152D02*
X21386969Y-30666819D01*
X21386969Y-30095390D02*
X21434588Y-30047771D01*
X21434588Y-30047771D02*
X21529826Y-30000152D01*
X21529826Y-30000152D02*
X21672683Y-30000152D01*
X21672683Y-30000152D02*
X21767921Y-30047771D01*
X21767921Y-30047771D02*
X21815540Y-30143009D01*
X21815540Y-30143009D02*
X21815540Y-30666819D01*
X22291731Y-30000152D02*
X22291731Y-31000152D01*
X22291731Y-30047771D02*
X22386969Y-30000152D01*
X22386969Y-30000152D02*
X22577445Y-30000152D01*
X22577445Y-30000152D02*
X22672683Y-30047771D01*
X22672683Y-30047771D02*
X22720302Y-30095390D01*
X22720302Y-30095390D02*
X22767921Y-30190628D01*
X22767921Y-30190628D02*
X22767921Y-30476342D01*
X22767921Y-30476342D02*
X22720302Y-30571580D01*
X22720302Y-30571580D02*
X22672683Y-30619200D01*
X22672683Y-30619200D02*
X22577445Y-30666819D01*
X22577445Y-30666819D02*
X22386969Y-30666819D01*
X22386969Y-30666819D02*
X22291731Y-30619200D01*
X23625064Y-30000152D02*
X23625064Y-30666819D01*
X23196493Y-30000152D02*
X23196493Y-30523961D01*
X23196493Y-30523961D02*
X23244112Y-30619200D01*
X23244112Y-30619200D02*
X23339350Y-30666819D01*
X23339350Y-30666819D02*
X23482207Y-30666819D01*
X23482207Y-30666819D02*
X23577445Y-30619200D01*
X23577445Y-30619200D02*
X23625064Y-30571580D01*
X23958398Y-30000152D02*
X24339350Y-30000152D01*
X24101255Y-29666819D02*
X24101255Y-30523961D01*
X24101255Y-30523961D02*
X24148874Y-30619200D01*
X24148874Y-30619200D02*
X24244112Y-30666819D01*
X24244112Y-30666819D02*
X24339350Y-30666819D01*
X25910779Y-29666819D02*
X25434589Y-29666819D01*
X25434589Y-29666819D02*
X25386970Y-30143009D01*
X25386970Y-30143009D02*
X25434589Y-30095390D01*
X25434589Y-30095390D02*
X25529827Y-30047771D01*
X25529827Y-30047771D02*
X25767922Y-30047771D01*
X25767922Y-30047771D02*
X25863160Y-30095390D01*
X25863160Y-30095390D02*
X25910779Y-30143009D01*
X25910779Y-30143009D02*
X25958398Y-30238247D01*
X25958398Y-30238247D02*
X25958398Y-30476342D01*
X25958398Y-30476342D02*
X25910779Y-30571580D01*
X25910779Y-30571580D02*
X25863160Y-30619200D01*
X25863160Y-30619200D02*
X25767922Y-30666819D01*
X25767922Y-30666819D02*
X25529827Y-30666819D01*
X25529827Y-30666819D02*
X25434589Y-30619200D01*
X25434589Y-30619200D02*
X25386970Y-30571580D01*
X26244113Y-30285866D02*
X26291732Y-30238247D01*
X26291732Y-30238247D02*
X26386970Y-30190628D01*
X26386970Y-30190628D02*
X26577446Y-30285866D01*
X26577446Y-30285866D02*
X26672684Y-30238247D01*
X26672684Y-30238247D02*
X26720303Y-30190628D01*
X27529827Y-29666819D02*
X27339351Y-29666819D01*
X27339351Y-29666819D02*
X27244113Y-29714438D01*
X27244113Y-29714438D02*
X27196494Y-29762057D01*
X27196494Y-29762057D02*
X27101256Y-29904914D01*
X27101256Y-29904914D02*
X27053637Y-30095390D01*
X27053637Y-30095390D02*
X27053637Y-30476342D01*
X27053637Y-30476342D02*
X27101256Y-30571580D01*
X27101256Y-30571580D02*
X27148875Y-30619200D01*
X27148875Y-30619200D02*
X27244113Y-30666819D01*
X27244113Y-30666819D02*
X27434589Y-30666819D01*
X27434589Y-30666819D02*
X27529827Y-30619200D01*
X27529827Y-30619200D02*
X27577446Y-30571580D01*
X27577446Y-30571580D02*
X27625065Y-30476342D01*
X27625065Y-30476342D02*
X27625065Y-30238247D01*
X27625065Y-30238247D02*
X27577446Y-30143009D01*
X27577446Y-30143009D02*
X27529827Y-30095390D01*
X27529827Y-30095390D02*
X27434589Y-30047771D01*
X27434589Y-30047771D02*
X27244113Y-30047771D01*
X27244113Y-30047771D02*
X27148875Y-30095390D01*
X27148875Y-30095390D02*
X27101256Y-30143009D01*
X27101256Y-30143009D02*
X27053637Y-30238247D01*
X27910780Y-29666819D02*
X28244113Y-30666819D01*
X28244113Y-30666819D02*
X28577446Y-29666819D01*
X71038779Y-30666819D02*
X71038779Y-29666819D01*
X71514969Y-30000152D02*
X71514969Y-30666819D01*
X71514969Y-30095390D02*
X71562588Y-30047771D01*
X71562588Y-30047771D02*
X71657826Y-30000152D01*
X71657826Y-30000152D02*
X71800683Y-30000152D01*
X71800683Y-30000152D02*
X71895921Y-30047771D01*
X71895921Y-30047771D02*
X71943540Y-30143009D01*
X71943540Y-30143009D02*
X71943540Y-30666819D01*
X72419731Y-30000152D02*
X72419731Y-31000152D01*
X72419731Y-30047771D02*
X72514969Y-30000152D01*
X72514969Y-30000152D02*
X72705445Y-30000152D01*
X72705445Y-30000152D02*
X72800683Y-30047771D01*
X72800683Y-30047771D02*
X72848302Y-30095390D01*
X72848302Y-30095390D02*
X72895921Y-30190628D01*
X72895921Y-30190628D02*
X72895921Y-30476342D01*
X72895921Y-30476342D02*
X72848302Y-30571580D01*
X72848302Y-30571580D02*
X72800683Y-30619200D01*
X72800683Y-30619200D02*
X72705445Y-30666819D01*
X72705445Y-30666819D02*
X72514969Y-30666819D01*
X72514969Y-30666819D02*
X72419731Y-30619200D01*
X73753064Y-30000152D02*
X73753064Y-30666819D01*
X73324493Y-30000152D02*
X73324493Y-30523961D01*
X73324493Y-30523961D02*
X73372112Y-30619200D01*
X73372112Y-30619200D02*
X73467350Y-30666819D01*
X73467350Y-30666819D02*
X73610207Y-30666819D01*
X73610207Y-30666819D02*
X73705445Y-30619200D01*
X73705445Y-30619200D02*
X73753064Y-30571580D01*
X74086398Y-30000152D02*
X74467350Y-30000152D01*
X74229255Y-29666819D02*
X74229255Y-30523961D01*
X74229255Y-30523961D02*
X74276874Y-30619200D01*
X74276874Y-30619200D02*
X74372112Y-30666819D01*
X74372112Y-30666819D02*
X74467350Y-30666819D01*
X76038779Y-29666819D02*
X75562589Y-29666819D01*
X75562589Y-29666819D02*
X75514970Y-30143009D01*
X75514970Y-30143009D02*
X75562589Y-30095390D01*
X75562589Y-30095390D02*
X75657827Y-30047771D01*
X75657827Y-30047771D02*
X75895922Y-30047771D01*
X75895922Y-30047771D02*
X75991160Y-30095390D01*
X75991160Y-30095390D02*
X76038779Y-30143009D01*
X76038779Y-30143009D02*
X76086398Y-30238247D01*
X76086398Y-30238247D02*
X76086398Y-30476342D01*
X76086398Y-30476342D02*
X76038779Y-30571580D01*
X76038779Y-30571580D02*
X75991160Y-30619200D01*
X75991160Y-30619200D02*
X75895922Y-30666819D01*
X75895922Y-30666819D02*
X75657827Y-30666819D01*
X75657827Y-30666819D02*
X75562589Y-30619200D01*
X75562589Y-30619200D02*
X75514970Y-30571580D01*
X76372113Y-30285866D02*
X76419732Y-30238247D01*
X76419732Y-30238247D02*
X76514970Y-30190628D01*
X76514970Y-30190628D02*
X76705446Y-30285866D01*
X76705446Y-30285866D02*
X76800684Y-30238247D01*
X76800684Y-30238247D02*
X76848303Y-30190628D01*
X77657827Y-29666819D02*
X77467351Y-29666819D01*
X77467351Y-29666819D02*
X77372113Y-29714438D01*
X77372113Y-29714438D02*
X77324494Y-29762057D01*
X77324494Y-29762057D02*
X77229256Y-29904914D01*
X77229256Y-29904914D02*
X77181637Y-30095390D01*
X77181637Y-30095390D02*
X77181637Y-30476342D01*
X77181637Y-30476342D02*
X77229256Y-30571580D01*
X77229256Y-30571580D02*
X77276875Y-30619200D01*
X77276875Y-30619200D02*
X77372113Y-30666819D01*
X77372113Y-30666819D02*
X77562589Y-30666819D01*
X77562589Y-30666819D02*
X77657827Y-30619200D01*
X77657827Y-30619200D02*
X77705446Y-30571580D01*
X77705446Y-30571580D02*
X77753065Y-30476342D01*
X77753065Y-30476342D02*
X77753065Y-30238247D01*
X77753065Y-30238247D02*
X77705446Y-30143009D01*
X77705446Y-30143009D02*
X77657827Y-30095390D01*
X77657827Y-30095390D02*
X77562589Y-30047771D01*
X77562589Y-30047771D02*
X77372113Y-30047771D01*
X77372113Y-30047771D02*
X77276875Y-30095390D01*
X77276875Y-30095390D02*
X77229256Y-30143009D01*
X77229256Y-30143009D02*
X77181637Y-30238247D01*
X78038780Y-29666819D02*
X78372113Y-30666819D01*
X78372113Y-30666819D02*
X78705446Y-29666819D01*
X65425333Y-20954819D02*
X65092000Y-20478628D01*
X64853905Y-20954819D02*
X64853905Y-19954819D01*
X64853905Y-19954819D02*
X65234857Y-19954819D01*
X65234857Y-19954819D02*
X65330095Y-20002438D01*
X65330095Y-20002438D02*
X65377714Y-20050057D01*
X65377714Y-20050057D02*
X65425333Y-20145295D01*
X65425333Y-20145295D02*
X65425333Y-20288152D01*
X65425333Y-20288152D02*
X65377714Y-20383390D01*
X65377714Y-20383390D02*
X65330095Y-20431009D01*
X65330095Y-20431009D02*
X65234857Y-20478628D01*
X65234857Y-20478628D02*
X64853905Y-20478628D01*
X66377714Y-20954819D02*
X65806286Y-20954819D01*
X66092000Y-20954819D02*
X66092000Y-19954819D01*
X66092000Y-19954819D02*
X65996762Y-20097676D01*
X65996762Y-20097676D02*
X65901524Y-20192914D01*
X65901524Y-20192914D02*
X65806286Y-20240533D01*
X69658666Y-23954819D02*
X69658666Y-24669104D01*
X69658666Y-24669104D02*
X69611047Y-24811961D01*
X69611047Y-24811961D02*
X69515809Y-24907200D01*
X69515809Y-24907200D02*
X69372952Y-24954819D01*
X69372952Y-24954819D02*
X69277714Y-24954819D01*
X70087238Y-24050057D02*
X70134857Y-24002438D01*
X70134857Y-24002438D02*
X70230095Y-23954819D01*
X70230095Y-23954819D02*
X70468190Y-23954819D01*
X70468190Y-23954819D02*
X70563428Y-24002438D01*
X70563428Y-24002438D02*
X70611047Y-24050057D01*
X70611047Y-24050057D02*
X70658666Y-24145295D01*
X70658666Y-24145295D02*
X70658666Y-24240533D01*
X70658666Y-24240533D02*
X70611047Y-24383390D01*
X70611047Y-24383390D02*
X70039619Y-24954819D01*
X70039619Y-24954819D02*
X70658666Y-24954819D01*
X23975905Y-26454819D02*
X23975905Y-25454819D01*
X23975905Y-25454819D02*
X24214000Y-25454819D01*
X24214000Y-25454819D02*
X24356857Y-25502438D01*
X24356857Y-25502438D02*
X24452095Y-25597676D01*
X24452095Y-25597676D02*
X24499714Y-25692914D01*
X24499714Y-25692914D02*
X24547333Y-25883390D01*
X24547333Y-25883390D02*
X24547333Y-26026247D01*
X24547333Y-26026247D02*
X24499714Y-26216723D01*
X24499714Y-26216723D02*
X24452095Y-26311961D01*
X24452095Y-26311961D02*
X24356857Y-26407200D01*
X24356857Y-26407200D02*
X24214000Y-26454819D01*
X24214000Y-26454819D02*
X23975905Y-26454819D01*
X25499714Y-26454819D02*
X24928286Y-26454819D01*
X25214000Y-26454819D02*
X25214000Y-25454819D01*
X25214000Y-25454819D02*
X25118762Y-25597676D01*
X25118762Y-25597676D02*
X25023524Y-25692914D01*
X25023524Y-25692914D02*
X24928286Y-25740533D01*
X18297333Y-11559580D02*
X18249714Y-11607200D01*
X18249714Y-11607200D02*
X18106857Y-11654819D01*
X18106857Y-11654819D02*
X18011619Y-11654819D01*
X18011619Y-11654819D02*
X17868762Y-11607200D01*
X17868762Y-11607200D02*
X17773524Y-11511961D01*
X17773524Y-11511961D02*
X17725905Y-11416723D01*
X17725905Y-11416723D02*
X17678286Y-11226247D01*
X17678286Y-11226247D02*
X17678286Y-11083390D01*
X17678286Y-11083390D02*
X17725905Y-10892914D01*
X17725905Y-10892914D02*
X17773524Y-10797676D01*
X17773524Y-10797676D02*
X17868762Y-10702438D01*
X17868762Y-10702438D02*
X18011619Y-10654819D01*
X18011619Y-10654819D02*
X18106857Y-10654819D01*
X18106857Y-10654819D02*
X18249714Y-10702438D01*
X18249714Y-10702438D02*
X18297333Y-10750057D01*
X18678286Y-10750057D02*
X18725905Y-10702438D01*
X18725905Y-10702438D02*
X18821143Y-10654819D01*
X18821143Y-10654819D02*
X19059238Y-10654819D01*
X19059238Y-10654819D02*
X19154476Y-10702438D01*
X19154476Y-10702438D02*
X19202095Y-10750057D01*
X19202095Y-10750057D02*
X19249714Y-10845295D01*
X19249714Y-10845295D02*
X19249714Y-10940533D01*
X19249714Y-10940533D02*
X19202095Y-11083390D01*
X19202095Y-11083390D02*
X18630667Y-11654819D01*
X18630667Y-11654819D02*
X19249714Y-11654819D01*
X34805905Y-59650057D02*
X35567809Y-59650057D01*
X36091619Y-58554819D02*
X36091619Y-59269104D01*
X36091619Y-59269104D02*
X36044000Y-59411961D01*
X36044000Y-59411961D02*
X35948762Y-59507200D01*
X35948762Y-59507200D02*
X35805905Y-59554819D01*
X35805905Y-59554819D02*
X35710667Y-59554819D01*
X37091619Y-59554819D02*
X36520191Y-59554819D01*
X36805905Y-59554819D02*
X36805905Y-58554819D01*
X36805905Y-58554819D02*
X36710667Y-58697676D01*
X36710667Y-58697676D02*
X36615429Y-58792914D01*
X36615429Y-58792914D02*
X36520191Y-58840533D01*
X78702057Y-53877143D02*
X78702057Y-53115238D01*
X78606819Y-52877142D02*
X77606819Y-52877142D01*
X77606819Y-52877142D02*
X77606819Y-52639047D01*
X77606819Y-52639047D02*
X77654438Y-52496190D01*
X77654438Y-52496190D02*
X77749676Y-52400952D01*
X77749676Y-52400952D02*
X77844914Y-52353333D01*
X77844914Y-52353333D02*
X78035390Y-52305714D01*
X78035390Y-52305714D02*
X78178247Y-52305714D01*
X78178247Y-52305714D02*
X78368723Y-52353333D01*
X78368723Y-52353333D02*
X78463961Y-52400952D01*
X78463961Y-52400952D02*
X78559200Y-52496190D01*
X78559200Y-52496190D02*
X78606819Y-52639047D01*
X78606819Y-52639047D02*
X78606819Y-52877142D01*
X77702057Y-51924761D02*
X77654438Y-51877142D01*
X77654438Y-51877142D02*
X77606819Y-51781904D01*
X77606819Y-51781904D02*
X77606819Y-51543809D01*
X77606819Y-51543809D02*
X77654438Y-51448571D01*
X77654438Y-51448571D02*
X77702057Y-51400952D01*
X77702057Y-51400952D02*
X77797295Y-51353333D01*
X77797295Y-51353333D02*
X77892533Y-51353333D01*
X77892533Y-51353333D02*
X78035390Y-51400952D01*
X78035390Y-51400952D02*
X78606819Y-51972380D01*
X78606819Y-51972380D02*
X78606819Y-51353333D01*
X24979333Y-9820580D02*
X24931714Y-9868200D01*
X24931714Y-9868200D02*
X24788857Y-9915819D01*
X24788857Y-9915819D02*
X24693619Y-9915819D01*
X24693619Y-9915819D02*
X24550762Y-9868200D01*
X24550762Y-9868200D02*
X24455524Y-9772961D01*
X24455524Y-9772961D02*
X24407905Y-9677723D01*
X24407905Y-9677723D02*
X24360286Y-9487247D01*
X24360286Y-9487247D02*
X24360286Y-9344390D01*
X24360286Y-9344390D02*
X24407905Y-9153914D01*
X24407905Y-9153914D02*
X24455524Y-9058676D01*
X24455524Y-9058676D02*
X24550762Y-8963438D01*
X24550762Y-8963438D02*
X24693619Y-8915819D01*
X24693619Y-8915819D02*
X24788857Y-8915819D01*
X24788857Y-8915819D02*
X24931714Y-8963438D01*
X24931714Y-8963438D02*
X24979333Y-9011057D01*
X25836476Y-9249152D02*
X25836476Y-9915819D01*
X25598381Y-8868200D02*
X25360286Y-9582485D01*
X25360286Y-9582485D02*
X25979333Y-9582485D01*
X7709819Y-7246142D02*
X8424104Y-7246142D01*
X8424104Y-7246142D02*
X8566961Y-7293761D01*
X8566961Y-7293761D02*
X8662200Y-7388999D01*
X8662200Y-7388999D02*
X8709819Y-7531856D01*
X8709819Y-7531856D02*
X8709819Y-7627094D01*
X8709819Y-6769951D02*
X7709819Y-6769951D01*
X7709819Y-6769951D02*
X7709819Y-6388999D01*
X7709819Y-6388999D02*
X7757438Y-6293761D01*
X7757438Y-6293761D02*
X7805057Y-6246142D01*
X7805057Y-6246142D02*
X7900295Y-6198523D01*
X7900295Y-6198523D02*
X8043152Y-6198523D01*
X8043152Y-6198523D02*
X8138390Y-6246142D01*
X8138390Y-6246142D02*
X8186009Y-6293761D01*
X8186009Y-6293761D02*
X8233628Y-6388999D01*
X8233628Y-6388999D02*
X8233628Y-6769951D01*
X8709819Y-5198523D02*
X8233628Y-5531856D01*
X8709819Y-5769951D02*
X7709819Y-5769951D01*
X7709819Y-5769951D02*
X7709819Y-5388999D01*
X7709819Y-5388999D02*
X7757438Y-5293761D01*
X7757438Y-5293761D02*
X7805057Y-5246142D01*
X7805057Y-5246142D02*
X7900295Y-5198523D01*
X7900295Y-5198523D02*
X8043152Y-5198523D01*
X8043152Y-5198523D02*
X8138390Y-5246142D01*
X8138390Y-5246142D02*
X8186009Y-5293761D01*
X8186009Y-5293761D02*
X8233628Y-5388999D01*
X8233628Y-5388999D02*
X8233628Y-5769951D01*
X7709819Y-4579475D02*
X7709819Y-4388999D01*
X7709819Y-4388999D02*
X7757438Y-4293761D01*
X7757438Y-4293761D02*
X7852676Y-4198523D01*
X7852676Y-4198523D02*
X8043152Y-4150904D01*
X8043152Y-4150904D02*
X8376485Y-4150904D01*
X8376485Y-4150904D02*
X8566961Y-4198523D01*
X8566961Y-4198523D02*
X8662200Y-4293761D01*
X8662200Y-4293761D02*
X8709819Y-4388999D01*
X8709819Y-4388999D02*
X8709819Y-4579475D01*
X8709819Y-4579475D02*
X8662200Y-4674713D01*
X8662200Y-4674713D02*
X8566961Y-4769951D01*
X8566961Y-4769951D02*
X8376485Y-4817570D01*
X8376485Y-4817570D02*
X8043152Y-4817570D01*
X8043152Y-4817570D02*
X7852676Y-4769951D01*
X7852676Y-4769951D02*
X7757438Y-4674713D01*
X7757438Y-4674713D02*
X7709819Y-4579475D01*
X7757438Y-3198523D02*
X7709819Y-3293761D01*
X7709819Y-3293761D02*
X7709819Y-3436618D01*
X7709819Y-3436618D02*
X7757438Y-3579475D01*
X7757438Y-3579475D02*
X7852676Y-3674713D01*
X7852676Y-3674713D02*
X7947914Y-3722332D01*
X7947914Y-3722332D02*
X8138390Y-3769951D01*
X8138390Y-3769951D02*
X8281247Y-3769951D01*
X8281247Y-3769951D02*
X8471723Y-3722332D01*
X8471723Y-3722332D02*
X8566961Y-3674713D01*
X8566961Y-3674713D02*
X8662200Y-3579475D01*
X8662200Y-3579475D02*
X8709819Y-3436618D01*
X8709819Y-3436618D02*
X8709819Y-3341380D01*
X8709819Y-3341380D02*
X8662200Y-3198523D01*
X8662200Y-3198523D02*
X8614580Y-3150904D01*
X8614580Y-3150904D02*
X8281247Y-3150904D01*
X8281247Y-3150904D02*
X8281247Y-3341380D01*
X8709819Y-2198523D02*
X8709819Y-2769951D01*
X8709819Y-2484237D02*
X7709819Y-2484237D01*
X7709819Y-2484237D02*
X7852676Y-2579475D01*
X7852676Y-2579475D02*
X7947914Y-2674713D01*
X7947914Y-2674713D02*
X7995533Y-2769951D01*
X15297333Y-20954819D02*
X14964000Y-20478628D01*
X14725905Y-20954819D02*
X14725905Y-19954819D01*
X14725905Y-19954819D02*
X15106857Y-19954819D01*
X15106857Y-19954819D02*
X15202095Y-20002438D01*
X15202095Y-20002438D02*
X15249714Y-20050057D01*
X15249714Y-20050057D02*
X15297333Y-20145295D01*
X15297333Y-20145295D02*
X15297333Y-20288152D01*
X15297333Y-20288152D02*
X15249714Y-20383390D01*
X15249714Y-20383390D02*
X15202095Y-20431009D01*
X15202095Y-20431009D02*
X15106857Y-20478628D01*
X15106857Y-20478628D02*
X14725905Y-20478628D01*
X16249714Y-20954819D02*
X15678286Y-20954819D01*
X15964000Y-20954819D02*
X15964000Y-19954819D01*
X15964000Y-19954819D02*
X15868762Y-20097676D01*
X15868762Y-20097676D02*
X15773524Y-20192914D01*
X15773524Y-20192914D02*
X15678286Y-20240533D01*
D11*
X59152237Y-20974318D02*
X59152237Y-19704318D01*
X60482714Y-20853365D02*
X60422238Y-20913842D01*
X60422238Y-20913842D02*
X60240809Y-20974318D01*
X60240809Y-20974318D02*
X60119857Y-20974318D01*
X60119857Y-20974318D02*
X59938428Y-20913842D01*
X59938428Y-20913842D02*
X59817476Y-20792889D01*
X59817476Y-20792889D02*
X59756999Y-20671937D01*
X59756999Y-20671937D02*
X59696523Y-20430032D01*
X59696523Y-20430032D02*
X59696523Y-20248603D01*
X59696523Y-20248603D02*
X59756999Y-20006699D01*
X59756999Y-20006699D02*
X59817476Y-19885746D01*
X59817476Y-19885746D02*
X59938428Y-19764794D01*
X59938428Y-19764794D02*
X60119857Y-19704318D01*
X60119857Y-19704318D02*
X60240809Y-19704318D01*
X60240809Y-19704318D02*
X60422238Y-19764794D01*
X60422238Y-19764794D02*
X60482714Y-19825270D01*
X61692238Y-20974318D02*
X60966523Y-20974318D01*
X61329380Y-20974318D02*
X61329380Y-19704318D01*
X61329380Y-19704318D02*
X61208428Y-19885746D01*
X61208428Y-19885746D02*
X61087476Y-20006699D01*
X61087476Y-20006699D02*
X60966523Y-20067175D01*
D10*
X72834857Y-57050057D02*
X73596761Y-57050057D01*
X73834857Y-56954819D02*
X73834857Y-55954819D01*
X73834857Y-55954819D02*
X74072952Y-55954819D01*
X74072952Y-55954819D02*
X74215809Y-56002438D01*
X74215809Y-56002438D02*
X74311047Y-56097676D01*
X74311047Y-56097676D02*
X74358666Y-56192914D01*
X74358666Y-56192914D02*
X74406285Y-56383390D01*
X74406285Y-56383390D02*
X74406285Y-56526247D01*
X74406285Y-56526247D02*
X74358666Y-56716723D01*
X74358666Y-56716723D02*
X74311047Y-56811961D01*
X74311047Y-56811961D02*
X74215809Y-56907200D01*
X74215809Y-56907200D02*
X74072952Y-56954819D01*
X74072952Y-56954819D02*
X73834857Y-56954819D01*
X75358666Y-56954819D02*
X74787238Y-56954819D01*
X75072952Y-56954819D02*
X75072952Y-55954819D01*
X75072952Y-55954819D02*
X74977714Y-56097676D01*
X74977714Y-56097676D02*
X74882476Y-56192914D01*
X74882476Y-56192914D02*
X74787238Y-56240533D01*
X35710666Y-22554819D02*
X35710666Y-23269104D01*
X35710666Y-23269104D02*
X35663047Y-23411961D01*
X35663047Y-23411961D02*
X35567809Y-23507200D01*
X35567809Y-23507200D02*
X35424952Y-23554819D01*
X35424952Y-23554819D02*
X35329714Y-23554819D01*
X36710666Y-23554819D02*
X36139238Y-23554819D01*
X36424952Y-23554819D02*
X36424952Y-22554819D01*
X36424952Y-22554819D02*
X36329714Y-22697676D01*
X36329714Y-22697676D02*
X36234476Y-22792914D01*
X36234476Y-22792914D02*
X36139238Y-22840533D01*
X38911333Y-9820580D02*
X38863714Y-9868200D01*
X38863714Y-9868200D02*
X38720857Y-9915819D01*
X38720857Y-9915819D02*
X38625619Y-9915819D01*
X38625619Y-9915819D02*
X38482762Y-9868200D01*
X38482762Y-9868200D02*
X38387524Y-9772961D01*
X38387524Y-9772961D02*
X38339905Y-9677723D01*
X38339905Y-9677723D02*
X38292286Y-9487247D01*
X38292286Y-9487247D02*
X38292286Y-9344390D01*
X38292286Y-9344390D02*
X38339905Y-9153914D01*
X38339905Y-9153914D02*
X38387524Y-9058676D01*
X38387524Y-9058676D02*
X38482762Y-8963438D01*
X38482762Y-8963438D02*
X38625619Y-8915819D01*
X38625619Y-8915819D02*
X38720857Y-8915819D01*
X38720857Y-8915819D02*
X38863714Y-8963438D01*
X38863714Y-8963438D02*
X38911333Y-9011057D01*
X39768476Y-8915819D02*
X39578000Y-8915819D01*
X39578000Y-8915819D02*
X39482762Y-8963438D01*
X39482762Y-8963438D02*
X39435143Y-9011057D01*
X39435143Y-9011057D02*
X39339905Y-9153914D01*
X39339905Y-9153914D02*
X39292286Y-9344390D01*
X39292286Y-9344390D02*
X39292286Y-9725342D01*
X39292286Y-9725342D02*
X39339905Y-9820580D01*
X39339905Y-9820580D02*
X39387524Y-9868200D01*
X39387524Y-9868200D02*
X39482762Y-9915819D01*
X39482762Y-9915819D02*
X39673238Y-9915819D01*
X39673238Y-9915819D02*
X39768476Y-9868200D01*
X39768476Y-9868200D02*
X39816095Y-9820580D01*
X39816095Y-9820580D02*
X39863714Y-9725342D01*
X39863714Y-9725342D02*
X39863714Y-9487247D01*
X39863714Y-9487247D02*
X39816095Y-9392009D01*
X39816095Y-9392009D02*
X39768476Y-9344390D01*
X39768476Y-9344390D02*
X39673238Y-9296771D01*
X39673238Y-9296771D02*
X39482762Y-9296771D01*
X39482762Y-9296771D02*
X39387524Y-9344390D01*
X39387524Y-9344390D02*
X39339905Y-9392009D01*
X39339905Y-9392009D02*
X39292286Y-9487247D01*
X56025333Y-16147580D02*
X55977714Y-16195200D01*
X55977714Y-16195200D02*
X55834857Y-16242819D01*
X55834857Y-16242819D02*
X55739619Y-16242819D01*
X55739619Y-16242819D02*
X55596762Y-16195200D01*
X55596762Y-16195200D02*
X55501524Y-16099961D01*
X55501524Y-16099961D02*
X55453905Y-16004723D01*
X55453905Y-16004723D02*
X55406286Y-15814247D01*
X55406286Y-15814247D02*
X55406286Y-15671390D01*
X55406286Y-15671390D02*
X55453905Y-15480914D01*
X55453905Y-15480914D02*
X55501524Y-15385676D01*
X55501524Y-15385676D02*
X55596762Y-15290438D01*
X55596762Y-15290438D02*
X55739619Y-15242819D01*
X55739619Y-15242819D02*
X55834857Y-15242819D01*
X55834857Y-15242819D02*
X55977714Y-15290438D01*
X55977714Y-15290438D02*
X56025333Y-15338057D01*
X56596762Y-15671390D02*
X56501524Y-15623771D01*
X56501524Y-15623771D02*
X56453905Y-15576152D01*
X56453905Y-15576152D02*
X56406286Y-15480914D01*
X56406286Y-15480914D02*
X56406286Y-15433295D01*
X56406286Y-15433295D02*
X56453905Y-15338057D01*
X56453905Y-15338057D02*
X56501524Y-15290438D01*
X56501524Y-15290438D02*
X56596762Y-15242819D01*
X56596762Y-15242819D02*
X56787238Y-15242819D01*
X56787238Y-15242819D02*
X56882476Y-15290438D01*
X56882476Y-15290438D02*
X56930095Y-15338057D01*
X56930095Y-15338057D02*
X56977714Y-15433295D01*
X56977714Y-15433295D02*
X56977714Y-15480914D01*
X56977714Y-15480914D02*
X56930095Y-15576152D01*
X56930095Y-15576152D02*
X56882476Y-15623771D01*
X56882476Y-15623771D02*
X56787238Y-15671390D01*
X56787238Y-15671390D02*
X56596762Y-15671390D01*
X56596762Y-15671390D02*
X56501524Y-15719009D01*
X56501524Y-15719009D02*
X56453905Y-15766628D01*
X56453905Y-15766628D02*
X56406286Y-15861866D01*
X56406286Y-15861866D02*
X56406286Y-16052342D01*
X56406286Y-16052342D02*
X56453905Y-16147580D01*
X56453905Y-16147580D02*
X56501524Y-16195200D01*
X56501524Y-16195200D02*
X56596762Y-16242819D01*
X56596762Y-16242819D02*
X56787238Y-16242819D01*
X56787238Y-16242819D02*
X56882476Y-16195200D01*
X56882476Y-16195200D02*
X56930095Y-16147580D01*
X56930095Y-16147580D02*
X56977714Y-16052342D01*
X56977714Y-16052342D02*
X56977714Y-15861866D01*
X56977714Y-15861866D02*
X56930095Y-15766628D01*
X56930095Y-15766628D02*
X56882476Y-15719009D01*
X56882476Y-15719009D02*
X56787238Y-15671390D01*
X56025333Y-18747580D02*
X55977714Y-18795200D01*
X55977714Y-18795200D02*
X55834857Y-18842819D01*
X55834857Y-18842819D02*
X55739619Y-18842819D01*
X55739619Y-18842819D02*
X55596762Y-18795200D01*
X55596762Y-18795200D02*
X55501524Y-18699961D01*
X55501524Y-18699961D02*
X55453905Y-18604723D01*
X55453905Y-18604723D02*
X55406286Y-18414247D01*
X55406286Y-18414247D02*
X55406286Y-18271390D01*
X55406286Y-18271390D02*
X55453905Y-18080914D01*
X55453905Y-18080914D02*
X55501524Y-17985676D01*
X55501524Y-17985676D02*
X55596762Y-17890438D01*
X55596762Y-17890438D02*
X55739619Y-17842819D01*
X55739619Y-17842819D02*
X55834857Y-17842819D01*
X55834857Y-17842819D02*
X55977714Y-17890438D01*
X55977714Y-17890438D02*
X56025333Y-17938057D01*
X56501524Y-18842819D02*
X56692000Y-18842819D01*
X56692000Y-18842819D02*
X56787238Y-18795200D01*
X56787238Y-18795200D02*
X56834857Y-18747580D01*
X56834857Y-18747580D02*
X56930095Y-18604723D01*
X56930095Y-18604723D02*
X56977714Y-18414247D01*
X56977714Y-18414247D02*
X56977714Y-18033295D01*
X56977714Y-18033295D02*
X56930095Y-17938057D01*
X56930095Y-17938057D02*
X56882476Y-17890438D01*
X56882476Y-17890438D02*
X56787238Y-17842819D01*
X56787238Y-17842819D02*
X56596762Y-17842819D01*
X56596762Y-17842819D02*
X56501524Y-17890438D01*
X56501524Y-17890438D02*
X56453905Y-17938057D01*
X56453905Y-17938057D02*
X56406286Y-18033295D01*
X56406286Y-18033295D02*
X56406286Y-18271390D01*
X56406286Y-18271390D02*
X56453905Y-18366628D01*
X56453905Y-18366628D02*
X56501524Y-18414247D01*
X56501524Y-18414247D02*
X56596762Y-18461866D01*
X56596762Y-18461866D02*
X56787238Y-18461866D01*
X56787238Y-18461866D02*
X56882476Y-18414247D01*
X56882476Y-18414247D02*
X56930095Y-18366628D01*
X56930095Y-18366628D02*
X56977714Y-18271390D01*
X65425333Y-11559580D02*
X65377714Y-11607200D01*
X65377714Y-11607200D02*
X65234857Y-11654819D01*
X65234857Y-11654819D02*
X65139619Y-11654819D01*
X65139619Y-11654819D02*
X64996762Y-11607200D01*
X64996762Y-11607200D02*
X64901524Y-11511961D01*
X64901524Y-11511961D02*
X64853905Y-11416723D01*
X64853905Y-11416723D02*
X64806286Y-11226247D01*
X64806286Y-11226247D02*
X64806286Y-11083390D01*
X64806286Y-11083390D02*
X64853905Y-10892914D01*
X64853905Y-10892914D02*
X64901524Y-10797676D01*
X64901524Y-10797676D02*
X64996762Y-10702438D01*
X64996762Y-10702438D02*
X65139619Y-10654819D01*
X65139619Y-10654819D02*
X65234857Y-10654819D01*
X65234857Y-10654819D02*
X65377714Y-10702438D01*
X65377714Y-10702438D02*
X65425333Y-10750057D01*
X66377714Y-11654819D02*
X65806286Y-11654819D01*
X66092000Y-11654819D02*
X66092000Y-10654819D01*
X66092000Y-10654819D02*
X65996762Y-10797676D01*
X65996762Y-10797676D02*
X65901524Y-10892914D01*
X65901524Y-10892914D02*
X65806286Y-10940533D01*
X19264057Y-53857143D02*
X19264057Y-53095238D01*
X19168819Y-52285714D02*
X18692628Y-52619047D01*
X19168819Y-52857142D02*
X18168819Y-52857142D01*
X18168819Y-52857142D02*
X18168819Y-52476190D01*
X18168819Y-52476190D02*
X18216438Y-52380952D01*
X18216438Y-52380952D02*
X18264057Y-52333333D01*
X18264057Y-52333333D02*
X18359295Y-52285714D01*
X18359295Y-52285714D02*
X18502152Y-52285714D01*
X18502152Y-52285714D02*
X18597390Y-52333333D01*
X18597390Y-52333333D02*
X18645009Y-52380952D01*
X18645009Y-52380952D02*
X18692628Y-52476190D01*
X18692628Y-52476190D02*
X18692628Y-52857142D01*
X18264057Y-51904761D02*
X18216438Y-51857142D01*
X18216438Y-51857142D02*
X18168819Y-51761904D01*
X18168819Y-51761904D02*
X18168819Y-51523809D01*
X18168819Y-51523809D02*
X18216438Y-51428571D01*
X18216438Y-51428571D02*
X18264057Y-51380952D01*
X18264057Y-51380952D02*
X18359295Y-51333333D01*
X18359295Y-51333333D02*
X18454533Y-51333333D01*
X18454533Y-51333333D02*
X18597390Y-51380952D01*
X18597390Y-51380952D02*
X19168819Y-51952380D01*
X19168819Y-51952380D02*
X19168819Y-51333333D01*
X89549142Y-11259580D02*
X89501523Y-11307200D01*
X89501523Y-11307200D02*
X89358666Y-11354819D01*
X89358666Y-11354819D02*
X89263428Y-11354819D01*
X89263428Y-11354819D02*
X89120571Y-11307200D01*
X89120571Y-11307200D02*
X89025333Y-11211961D01*
X89025333Y-11211961D02*
X88977714Y-11116723D01*
X88977714Y-11116723D02*
X88930095Y-10926247D01*
X88930095Y-10926247D02*
X88930095Y-10783390D01*
X88930095Y-10783390D02*
X88977714Y-10592914D01*
X88977714Y-10592914D02*
X89025333Y-10497676D01*
X89025333Y-10497676D02*
X89120571Y-10402438D01*
X89120571Y-10402438D02*
X89263428Y-10354819D01*
X89263428Y-10354819D02*
X89358666Y-10354819D01*
X89358666Y-10354819D02*
X89501523Y-10402438D01*
X89501523Y-10402438D02*
X89549142Y-10450057D01*
X90501523Y-11354819D02*
X89930095Y-11354819D01*
X90215809Y-11354819D02*
X90215809Y-10354819D01*
X90215809Y-10354819D02*
X90120571Y-10497676D01*
X90120571Y-10497676D02*
X90025333Y-10592914D01*
X90025333Y-10592914D02*
X89930095Y-10640533D01*
X91120571Y-10354819D02*
X91215809Y-10354819D01*
X91215809Y-10354819D02*
X91311047Y-10402438D01*
X91311047Y-10402438D02*
X91358666Y-10450057D01*
X91358666Y-10450057D02*
X91406285Y-10545295D01*
X91406285Y-10545295D02*
X91453904Y-10735771D01*
X91453904Y-10735771D02*
X91453904Y-10973866D01*
X91453904Y-10973866D02*
X91406285Y-11164342D01*
X91406285Y-11164342D02*
X91358666Y-11259580D01*
X91358666Y-11259580D02*
X91311047Y-11307200D01*
X91311047Y-11307200D02*
X91215809Y-11354819D01*
X91215809Y-11354819D02*
X91120571Y-11354819D01*
X91120571Y-11354819D02*
X91025333Y-11307200D01*
X91025333Y-11307200D02*
X90977714Y-11259580D01*
X90977714Y-11259580D02*
X90930095Y-11164342D01*
X90930095Y-11164342D02*
X90882476Y-10973866D01*
X90882476Y-10973866D02*
X90882476Y-10735771D01*
X90882476Y-10735771D02*
X90930095Y-10545295D01*
X90930095Y-10545295D02*
X90977714Y-10450057D01*
X90977714Y-10450057D02*
X91025333Y-10402438D01*
X91025333Y-10402438D02*
X91120571Y-10354819D01*
X15297333Y-11559580D02*
X15249714Y-11607200D01*
X15249714Y-11607200D02*
X15106857Y-11654819D01*
X15106857Y-11654819D02*
X15011619Y-11654819D01*
X15011619Y-11654819D02*
X14868762Y-11607200D01*
X14868762Y-11607200D02*
X14773524Y-11511961D01*
X14773524Y-11511961D02*
X14725905Y-11416723D01*
X14725905Y-11416723D02*
X14678286Y-11226247D01*
X14678286Y-11226247D02*
X14678286Y-11083390D01*
X14678286Y-11083390D02*
X14725905Y-10892914D01*
X14725905Y-10892914D02*
X14773524Y-10797676D01*
X14773524Y-10797676D02*
X14868762Y-10702438D01*
X14868762Y-10702438D02*
X15011619Y-10654819D01*
X15011619Y-10654819D02*
X15106857Y-10654819D01*
X15106857Y-10654819D02*
X15249714Y-10702438D01*
X15249714Y-10702438D02*
X15297333Y-10750057D01*
X16249714Y-11654819D02*
X15678286Y-11654819D01*
X15964000Y-11654819D02*
X15964000Y-10654819D01*
X15964000Y-10654819D02*
X15868762Y-10797676D01*
X15868762Y-10797676D02*
X15773524Y-10892914D01*
X15773524Y-10892914D02*
X15678286Y-10940533D01*
X92982476Y-19704819D02*
X92982476Y-20419104D01*
X92982476Y-20419104D02*
X92934857Y-20561961D01*
X92934857Y-20561961D02*
X92839619Y-20657200D01*
X92839619Y-20657200D02*
X92696762Y-20704819D01*
X92696762Y-20704819D02*
X92601524Y-20704819D01*
X93411048Y-20657200D02*
X93553905Y-20704819D01*
X93553905Y-20704819D02*
X93792000Y-20704819D01*
X93792000Y-20704819D02*
X93887238Y-20657200D01*
X93887238Y-20657200D02*
X93934857Y-20609580D01*
X93934857Y-20609580D02*
X93982476Y-20514342D01*
X93982476Y-20514342D02*
X93982476Y-20419104D01*
X93982476Y-20419104D02*
X93934857Y-20323866D01*
X93934857Y-20323866D02*
X93887238Y-20276247D01*
X93887238Y-20276247D02*
X93792000Y-20228628D01*
X93792000Y-20228628D02*
X93601524Y-20181009D01*
X93601524Y-20181009D02*
X93506286Y-20133390D01*
X93506286Y-20133390D02*
X93458667Y-20085771D01*
X93458667Y-20085771D02*
X93411048Y-19990533D01*
X93411048Y-19990533D02*
X93411048Y-19895295D01*
X93411048Y-19895295D02*
X93458667Y-19800057D01*
X93458667Y-19800057D02*
X93506286Y-19752438D01*
X93506286Y-19752438D02*
X93601524Y-19704819D01*
X93601524Y-19704819D02*
X93839619Y-19704819D01*
X93839619Y-19704819D02*
X93982476Y-19752438D01*
X94411048Y-20704819D02*
X94411048Y-19704819D01*
X94411048Y-19704819D02*
X94792000Y-19704819D01*
X94792000Y-19704819D02*
X94887238Y-19752438D01*
X94887238Y-19752438D02*
X94934857Y-19800057D01*
X94934857Y-19800057D02*
X94982476Y-19895295D01*
X94982476Y-19895295D02*
X94982476Y-20038152D01*
X94982476Y-20038152D02*
X94934857Y-20133390D01*
X94934857Y-20133390D02*
X94887238Y-20181009D01*
X94887238Y-20181009D02*
X94792000Y-20228628D01*
X94792000Y-20228628D02*
X94411048Y-20228628D01*
X95411048Y-20704819D02*
X95411048Y-19704819D01*
X95982476Y-20704819D02*
X95553905Y-20133390D01*
X95982476Y-19704819D02*
X95411048Y-20276247D01*
X96934857Y-20704819D02*
X96363429Y-20704819D01*
X96649143Y-20704819D02*
X96649143Y-19704819D01*
X96649143Y-19704819D02*
X96553905Y-19847676D01*
X96553905Y-19847676D02*
X96458667Y-19942914D01*
X96458667Y-19942914D02*
X96363429Y-19990533D01*
X7707333Y-10931819D02*
X7374000Y-10455628D01*
X7135905Y-10931819D02*
X7135905Y-9931819D01*
X7135905Y-9931819D02*
X7516857Y-9931819D01*
X7516857Y-9931819D02*
X7612095Y-9979438D01*
X7612095Y-9979438D02*
X7659714Y-10027057D01*
X7659714Y-10027057D02*
X7707333Y-10122295D01*
X7707333Y-10122295D02*
X7707333Y-10265152D01*
X7707333Y-10265152D02*
X7659714Y-10360390D01*
X7659714Y-10360390D02*
X7612095Y-10408009D01*
X7612095Y-10408009D02*
X7516857Y-10455628D01*
X7516857Y-10455628D02*
X7135905Y-10455628D01*
X8564476Y-10265152D02*
X8564476Y-10931819D01*
X8326381Y-9884200D02*
X8088286Y-10598485D01*
X8088286Y-10598485D02*
X8707333Y-10598485D01*
X12825905Y-58350057D02*
X13587809Y-58350057D01*
X14111619Y-57254819D02*
X14111619Y-57969104D01*
X14111619Y-57969104D02*
X14064000Y-58111961D01*
X14064000Y-58111961D02*
X13968762Y-58207200D01*
X13968762Y-58207200D02*
X13825905Y-58254819D01*
X13825905Y-58254819D02*
X13730667Y-58254819D01*
X14540191Y-57350057D02*
X14587810Y-57302438D01*
X14587810Y-57302438D02*
X14683048Y-57254819D01*
X14683048Y-57254819D02*
X14921143Y-57254819D01*
X14921143Y-57254819D02*
X15016381Y-57302438D01*
X15016381Y-57302438D02*
X15064000Y-57350057D01*
X15064000Y-57350057D02*
X15111619Y-57445295D01*
X15111619Y-57445295D02*
X15111619Y-57540533D01*
X15111619Y-57540533D02*
X15064000Y-57683390D01*
X15064000Y-57683390D02*
X14492572Y-58254819D01*
X14492572Y-58254819D02*
X15111619Y-58254819D01*
X30297333Y-18647080D02*
X30249714Y-18694700D01*
X30249714Y-18694700D02*
X30106857Y-18742319D01*
X30106857Y-18742319D02*
X30011619Y-18742319D01*
X30011619Y-18742319D02*
X29868762Y-18694700D01*
X29868762Y-18694700D02*
X29773524Y-18599461D01*
X29773524Y-18599461D02*
X29725905Y-18504223D01*
X29725905Y-18504223D02*
X29678286Y-18313747D01*
X29678286Y-18313747D02*
X29678286Y-18170890D01*
X29678286Y-18170890D02*
X29725905Y-17980414D01*
X29725905Y-17980414D02*
X29773524Y-17885176D01*
X29773524Y-17885176D02*
X29868762Y-17789938D01*
X29868762Y-17789938D02*
X30011619Y-17742319D01*
X30011619Y-17742319D02*
X30106857Y-17742319D01*
X30106857Y-17742319D02*
X30249714Y-17789938D01*
X30249714Y-17789938D02*
X30297333Y-17837557D01*
X30630667Y-17742319D02*
X31249714Y-17742319D01*
X31249714Y-17742319D02*
X30916381Y-18123271D01*
X30916381Y-18123271D02*
X31059238Y-18123271D01*
X31059238Y-18123271D02*
X31154476Y-18170890D01*
X31154476Y-18170890D02*
X31202095Y-18218509D01*
X31202095Y-18218509D02*
X31249714Y-18313747D01*
X31249714Y-18313747D02*
X31249714Y-18551842D01*
X31249714Y-18551842D02*
X31202095Y-18647080D01*
X31202095Y-18647080D02*
X31154476Y-18694700D01*
X31154476Y-18694700D02*
X31059238Y-18742319D01*
X31059238Y-18742319D02*
X30773524Y-18742319D01*
X30773524Y-18742319D02*
X30678286Y-18694700D01*
X30678286Y-18694700D02*
X30630667Y-18647080D01*
X28574057Y-53877143D02*
X28574057Y-53115238D01*
X28478819Y-52877142D02*
X27478819Y-52877142D01*
X27478819Y-52877142D02*
X27478819Y-52639047D01*
X27478819Y-52639047D02*
X27526438Y-52496190D01*
X27526438Y-52496190D02*
X27621676Y-52400952D01*
X27621676Y-52400952D02*
X27716914Y-52353333D01*
X27716914Y-52353333D02*
X27907390Y-52305714D01*
X27907390Y-52305714D02*
X28050247Y-52305714D01*
X28050247Y-52305714D02*
X28240723Y-52353333D01*
X28240723Y-52353333D02*
X28335961Y-52400952D01*
X28335961Y-52400952D02*
X28431200Y-52496190D01*
X28431200Y-52496190D02*
X28478819Y-52639047D01*
X28478819Y-52639047D02*
X28478819Y-52877142D01*
X27574057Y-51924761D02*
X27526438Y-51877142D01*
X27526438Y-51877142D02*
X27478819Y-51781904D01*
X27478819Y-51781904D02*
X27478819Y-51543809D01*
X27478819Y-51543809D02*
X27526438Y-51448571D01*
X27526438Y-51448571D02*
X27574057Y-51400952D01*
X27574057Y-51400952D02*
X27669295Y-51353333D01*
X27669295Y-51353333D02*
X27764533Y-51353333D01*
X27764533Y-51353333D02*
X27907390Y-51400952D01*
X27907390Y-51400952D02*
X28478819Y-51972380D01*
X28478819Y-51972380D02*
X28478819Y-51353333D01*
X5897333Y-18747580D02*
X5849714Y-18795200D01*
X5849714Y-18795200D02*
X5706857Y-18842819D01*
X5706857Y-18842819D02*
X5611619Y-18842819D01*
X5611619Y-18842819D02*
X5468762Y-18795200D01*
X5468762Y-18795200D02*
X5373524Y-18699961D01*
X5373524Y-18699961D02*
X5325905Y-18604723D01*
X5325905Y-18604723D02*
X5278286Y-18414247D01*
X5278286Y-18414247D02*
X5278286Y-18271390D01*
X5278286Y-18271390D02*
X5325905Y-18080914D01*
X5325905Y-18080914D02*
X5373524Y-17985676D01*
X5373524Y-17985676D02*
X5468762Y-17890438D01*
X5468762Y-17890438D02*
X5611619Y-17842819D01*
X5611619Y-17842819D02*
X5706857Y-17842819D01*
X5706857Y-17842819D02*
X5849714Y-17890438D01*
X5849714Y-17890438D02*
X5897333Y-17938057D01*
X6373524Y-18842819D02*
X6564000Y-18842819D01*
X6564000Y-18842819D02*
X6659238Y-18795200D01*
X6659238Y-18795200D02*
X6706857Y-18747580D01*
X6706857Y-18747580D02*
X6802095Y-18604723D01*
X6802095Y-18604723D02*
X6849714Y-18414247D01*
X6849714Y-18414247D02*
X6849714Y-18033295D01*
X6849714Y-18033295D02*
X6802095Y-17938057D01*
X6802095Y-17938057D02*
X6754476Y-17890438D01*
X6754476Y-17890438D02*
X6659238Y-17842819D01*
X6659238Y-17842819D02*
X6468762Y-17842819D01*
X6468762Y-17842819D02*
X6373524Y-17890438D01*
X6373524Y-17890438D02*
X6325905Y-17938057D01*
X6325905Y-17938057D02*
X6278286Y-18033295D01*
X6278286Y-18033295D02*
X6278286Y-18271390D01*
X6278286Y-18271390D02*
X6325905Y-18366628D01*
X6325905Y-18366628D02*
X6373524Y-18414247D01*
X6373524Y-18414247D02*
X6468762Y-18461866D01*
X6468762Y-18461866D02*
X6659238Y-18461866D01*
X6659238Y-18461866D02*
X6754476Y-18414247D01*
X6754476Y-18414247D02*
X6802095Y-18366628D01*
X6802095Y-18366628D02*
X6849714Y-18271390D01*
X5897333Y-13359580D02*
X5849714Y-13407200D01*
X5849714Y-13407200D02*
X5706857Y-13454819D01*
X5706857Y-13454819D02*
X5611619Y-13454819D01*
X5611619Y-13454819D02*
X5468762Y-13407200D01*
X5468762Y-13407200D02*
X5373524Y-13311961D01*
X5373524Y-13311961D02*
X5325905Y-13216723D01*
X5325905Y-13216723D02*
X5278286Y-13026247D01*
X5278286Y-13026247D02*
X5278286Y-12883390D01*
X5278286Y-12883390D02*
X5325905Y-12692914D01*
X5325905Y-12692914D02*
X5373524Y-12597676D01*
X5373524Y-12597676D02*
X5468762Y-12502438D01*
X5468762Y-12502438D02*
X5611619Y-12454819D01*
X5611619Y-12454819D02*
X5706857Y-12454819D01*
X5706857Y-12454819D02*
X5849714Y-12502438D01*
X5849714Y-12502438D02*
X5897333Y-12550057D01*
X6230667Y-12454819D02*
X6897333Y-12454819D01*
X6897333Y-12454819D02*
X6468762Y-13454819D01*
X18297333Y-20954819D02*
X17964000Y-20478628D01*
X17725905Y-20954819D02*
X17725905Y-19954819D01*
X17725905Y-19954819D02*
X18106857Y-19954819D01*
X18106857Y-19954819D02*
X18202095Y-20002438D01*
X18202095Y-20002438D02*
X18249714Y-20050057D01*
X18249714Y-20050057D02*
X18297333Y-20145295D01*
X18297333Y-20145295D02*
X18297333Y-20288152D01*
X18297333Y-20288152D02*
X18249714Y-20383390D01*
X18249714Y-20383390D02*
X18202095Y-20431009D01*
X18202095Y-20431009D02*
X18106857Y-20478628D01*
X18106857Y-20478628D02*
X17725905Y-20478628D01*
X18678286Y-20050057D02*
X18725905Y-20002438D01*
X18725905Y-20002438D02*
X18821143Y-19954819D01*
X18821143Y-19954819D02*
X19059238Y-19954819D01*
X19059238Y-19954819D02*
X19154476Y-20002438D01*
X19154476Y-20002438D02*
X19202095Y-20050057D01*
X19202095Y-20050057D02*
X19249714Y-20145295D01*
X19249714Y-20145295D02*
X19249714Y-20240533D01*
X19249714Y-20240533D02*
X19202095Y-20383390D01*
X19202095Y-20383390D02*
X18630667Y-20954819D01*
X18630667Y-20954819D02*
X19249714Y-20954819D01*
X74103905Y-26454819D02*
X74103905Y-25454819D01*
X74103905Y-25454819D02*
X74342000Y-25454819D01*
X74342000Y-25454819D02*
X74484857Y-25502438D01*
X74484857Y-25502438D02*
X74580095Y-25597676D01*
X74580095Y-25597676D02*
X74627714Y-25692914D01*
X74627714Y-25692914D02*
X74675333Y-25883390D01*
X74675333Y-25883390D02*
X74675333Y-26026247D01*
X74675333Y-26026247D02*
X74627714Y-26216723D01*
X74627714Y-26216723D02*
X74580095Y-26311961D01*
X74580095Y-26311961D02*
X74484857Y-26407200D01*
X74484857Y-26407200D02*
X74342000Y-26454819D01*
X74342000Y-26454819D02*
X74103905Y-26454819D01*
X75627714Y-26454819D02*
X75056286Y-26454819D01*
X75342000Y-26454819D02*
X75342000Y-25454819D01*
X75342000Y-25454819D02*
X75246762Y-25597676D01*
X75246762Y-25597676D02*
X75151524Y-25692914D01*
X75151524Y-25692914D02*
X75056286Y-25740533D01*
X68425333Y-11559580D02*
X68377714Y-11607200D01*
X68377714Y-11607200D02*
X68234857Y-11654819D01*
X68234857Y-11654819D02*
X68139619Y-11654819D01*
X68139619Y-11654819D02*
X67996762Y-11607200D01*
X67996762Y-11607200D02*
X67901524Y-11511961D01*
X67901524Y-11511961D02*
X67853905Y-11416723D01*
X67853905Y-11416723D02*
X67806286Y-11226247D01*
X67806286Y-11226247D02*
X67806286Y-11083390D01*
X67806286Y-11083390D02*
X67853905Y-10892914D01*
X67853905Y-10892914D02*
X67901524Y-10797676D01*
X67901524Y-10797676D02*
X67996762Y-10702438D01*
X67996762Y-10702438D02*
X68139619Y-10654819D01*
X68139619Y-10654819D02*
X68234857Y-10654819D01*
X68234857Y-10654819D02*
X68377714Y-10702438D01*
X68377714Y-10702438D02*
X68425333Y-10750057D01*
X68806286Y-10750057D02*
X68853905Y-10702438D01*
X68853905Y-10702438D02*
X68949143Y-10654819D01*
X68949143Y-10654819D02*
X69187238Y-10654819D01*
X69187238Y-10654819D02*
X69282476Y-10702438D01*
X69282476Y-10702438D02*
X69330095Y-10750057D01*
X69330095Y-10750057D02*
X69377714Y-10845295D01*
X69377714Y-10845295D02*
X69377714Y-10940533D01*
X69377714Y-10940533D02*
X69330095Y-11083390D01*
X69330095Y-11083390D02*
X68758667Y-11654819D01*
X68758667Y-11654819D02*
X69377714Y-11654819D01*
X80425333Y-18647080D02*
X80377714Y-18694700D01*
X80377714Y-18694700D02*
X80234857Y-18742319D01*
X80234857Y-18742319D02*
X80139619Y-18742319D01*
X80139619Y-18742319D02*
X79996762Y-18694700D01*
X79996762Y-18694700D02*
X79901524Y-18599461D01*
X79901524Y-18599461D02*
X79853905Y-18504223D01*
X79853905Y-18504223D02*
X79806286Y-18313747D01*
X79806286Y-18313747D02*
X79806286Y-18170890D01*
X79806286Y-18170890D02*
X79853905Y-17980414D01*
X79853905Y-17980414D02*
X79901524Y-17885176D01*
X79901524Y-17885176D02*
X79996762Y-17789938D01*
X79996762Y-17789938D02*
X80139619Y-17742319D01*
X80139619Y-17742319D02*
X80234857Y-17742319D01*
X80234857Y-17742319D02*
X80377714Y-17789938D01*
X80377714Y-17789938D02*
X80425333Y-17837557D01*
X80758667Y-17742319D02*
X81377714Y-17742319D01*
X81377714Y-17742319D02*
X81044381Y-18123271D01*
X81044381Y-18123271D02*
X81187238Y-18123271D01*
X81187238Y-18123271D02*
X81282476Y-18170890D01*
X81282476Y-18170890D02*
X81330095Y-18218509D01*
X81330095Y-18218509D02*
X81377714Y-18313747D01*
X81377714Y-18313747D02*
X81377714Y-18551842D01*
X81377714Y-18551842D02*
X81330095Y-18647080D01*
X81330095Y-18647080D02*
X81282476Y-18694700D01*
X81282476Y-18694700D02*
X81187238Y-18742319D01*
X81187238Y-18742319D02*
X80901524Y-18742319D01*
X80901524Y-18742319D02*
X80806286Y-18694700D01*
X80806286Y-18694700D02*
X80758667Y-18647080D01*
X39421142Y-11259580D02*
X39373523Y-11307200D01*
X39373523Y-11307200D02*
X39230666Y-11354819D01*
X39230666Y-11354819D02*
X39135428Y-11354819D01*
X39135428Y-11354819D02*
X38992571Y-11307200D01*
X38992571Y-11307200D02*
X38897333Y-11211961D01*
X38897333Y-11211961D02*
X38849714Y-11116723D01*
X38849714Y-11116723D02*
X38802095Y-10926247D01*
X38802095Y-10926247D02*
X38802095Y-10783390D01*
X38802095Y-10783390D02*
X38849714Y-10592914D01*
X38849714Y-10592914D02*
X38897333Y-10497676D01*
X38897333Y-10497676D02*
X38992571Y-10402438D01*
X38992571Y-10402438D02*
X39135428Y-10354819D01*
X39135428Y-10354819D02*
X39230666Y-10354819D01*
X39230666Y-10354819D02*
X39373523Y-10402438D01*
X39373523Y-10402438D02*
X39421142Y-10450057D01*
X40373523Y-11354819D02*
X39802095Y-11354819D01*
X40087809Y-11354819D02*
X40087809Y-10354819D01*
X40087809Y-10354819D02*
X39992571Y-10497676D01*
X39992571Y-10497676D02*
X39897333Y-10592914D01*
X39897333Y-10592914D02*
X39802095Y-10640533D01*
X40992571Y-10354819D02*
X41087809Y-10354819D01*
X41087809Y-10354819D02*
X41183047Y-10402438D01*
X41183047Y-10402438D02*
X41230666Y-10450057D01*
X41230666Y-10450057D02*
X41278285Y-10545295D01*
X41278285Y-10545295D02*
X41325904Y-10735771D01*
X41325904Y-10735771D02*
X41325904Y-10973866D01*
X41325904Y-10973866D02*
X41278285Y-11164342D01*
X41278285Y-11164342D02*
X41230666Y-11259580D01*
X41230666Y-11259580D02*
X41183047Y-11307200D01*
X41183047Y-11307200D02*
X41087809Y-11354819D01*
X41087809Y-11354819D02*
X40992571Y-11354819D01*
X40992571Y-11354819D02*
X40897333Y-11307200D01*
X40897333Y-11307200D02*
X40849714Y-11259580D01*
X40849714Y-11259580D02*
X40802095Y-11164342D01*
X40802095Y-11164342D02*
X40754476Y-10973866D01*
X40754476Y-10973866D02*
X40754476Y-10735771D01*
X40754476Y-10735771D02*
X40802095Y-10545295D01*
X40802095Y-10545295D02*
X40849714Y-10450057D01*
X40849714Y-10450057D02*
X40897333Y-10402438D01*
X40897333Y-10402438D02*
X40992571Y-10354819D01*
X57837819Y-7246142D02*
X58552104Y-7246142D01*
X58552104Y-7246142D02*
X58694961Y-7293761D01*
X58694961Y-7293761D02*
X58790200Y-7388999D01*
X58790200Y-7388999D02*
X58837819Y-7531856D01*
X58837819Y-7531856D02*
X58837819Y-7627094D01*
X58837819Y-6769951D02*
X57837819Y-6769951D01*
X57837819Y-6769951D02*
X57837819Y-6388999D01*
X57837819Y-6388999D02*
X57885438Y-6293761D01*
X57885438Y-6293761D02*
X57933057Y-6246142D01*
X57933057Y-6246142D02*
X58028295Y-6198523D01*
X58028295Y-6198523D02*
X58171152Y-6198523D01*
X58171152Y-6198523D02*
X58266390Y-6246142D01*
X58266390Y-6246142D02*
X58314009Y-6293761D01*
X58314009Y-6293761D02*
X58361628Y-6388999D01*
X58361628Y-6388999D02*
X58361628Y-6769951D01*
X58837819Y-5198523D02*
X58361628Y-5531856D01*
X58837819Y-5769951D02*
X57837819Y-5769951D01*
X57837819Y-5769951D02*
X57837819Y-5388999D01*
X57837819Y-5388999D02*
X57885438Y-5293761D01*
X57885438Y-5293761D02*
X57933057Y-5246142D01*
X57933057Y-5246142D02*
X58028295Y-5198523D01*
X58028295Y-5198523D02*
X58171152Y-5198523D01*
X58171152Y-5198523D02*
X58266390Y-5246142D01*
X58266390Y-5246142D02*
X58314009Y-5293761D01*
X58314009Y-5293761D02*
X58361628Y-5388999D01*
X58361628Y-5388999D02*
X58361628Y-5769951D01*
X57837819Y-4579475D02*
X57837819Y-4388999D01*
X57837819Y-4388999D02*
X57885438Y-4293761D01*
X57885438Y-4293761D02*
X57980676Y-4198523D01*
X57980676Y-4198523D02*
X58171152Y-4150904D01*
X58171152Y-4150904D02*
X58504485Y-4150904D01*
X58504485Y-4150904D02*
X58694961Y-4198523D01*
X58694961Y-4198523D02*
X58790200Y-4293761D01*
X58790200Y-4293761D02*
X58837819Y-4388999D01*
X58837819Y-4388999D02*
X58837819Y-4579475D01*
X58837819Y-4579475D02*
X58790200Y-4674713D01*
X58790200Y-4674713D02*
X58694961Y-4769951D01*
X58694961Y-4769951D02*
X58504485Y-4817570D01*
X58504485Y-4817570D02*
X58171152Y-4817570D01*
X58171152Y-4817570D02*
X57980676Y-4769951D01*
X57980676Y-4769951D02*
X57885438Y-4674713D01*
X57885438Y-4674713D02*
X57837819Y-4579475D01*
X57885438Y-3198523D02*
X57837819Y-3293761D01*
X57837819Y-3293761D02*
X57837819Y-3436618D01*
X57837819Y-3436618D02*
X57885438Y-3579475D01*
X57885438Y-3579475D02*
X57980676Y-3674713D01*
X57980676Y-3674713D02*
X58075914Y-3722332D01*
X58075914Y-3722332D02*
X58266390Y-3769951D01*
X58266390Y-3769951D02*
X58409247Y-3769951D01*
X58409247Y-3769951D02*
X58599723Y-3722332D01*
X58599723Y-3722332D02*
X58694961Y-3674713D01*
X58694961Y-3674713D02*
X58790200Y-3579475D01*
X58790200Y-3579475D02*
X58837819Y-3436618D01*
X58837819Y-3436618D02*
X58837819Y-3341380D01*
X58837819Y-3341380D02*
X58790200Y-3198523D01*
X58790200Y-3198523D02*
X58742580Y-3150904D01*
X58742580Y-3150904D02*
X58409247Y-3150904D01*
X58409247Y-3150904D02*
X58409247Y-3341380D01*
X58837819Y-2198523D02*
X58837819Y-2769951D01*
X58837819Y-2484237D02*
X57837819Y-2484237D01*
X57837819Y-2484237D02*
X57980676Y-2579475D01*
X57980676Y-2579475D02*
X58075914Y-2674713D01*
X58075914Y-2674713D02*
X58123533Y-2769951D01*
D11*
X9024237Y-20974318D02*
X9024237Y-19704318D01*
X10354714Y-20853365D02*
X10294238Y-20913842D01*
X10294238Y-20913842D02*
X10112809Y-20974318D01*
X10112809Y-20974318D02*
X9991857Y-20974318D01*
X9991857Y-20974318D02*
X9810428Y-20913842D01*
X9810428Y-20913842D02*
X9689476Y-20792889D01*
X9689476Y-20792889D02*
X9628999Y-20671937D01*
X9628999Y-20671937D02*
X9568523Y-20430032D01*
X9568523Y-20430032D02*
X9568523Y-20248603D01*
X9568523Y-20248603D02*
X9628999Y-20006699D01*
X9628999Y-20006699D02*
X9689476Y-19885746D01*
X9689476Y-19885746D02*
X9810428Y-19764794D01*
X9810428Y-19764794D02*
X9991857Y-19704318D01*
X9991857Y-19704318D02*
X10112809Y-19704318D01*
X10112809Y-19704318D02*
X10294238Y-19764794D01*
X10294238Y-19764794D02*
X10354714Y-19825270D01*
X11564238Y-20974318D02*
X10838523Y-20974318D01*
X11201380Y-20974318D02*
X11201380Y-19704318D01*
X11201380Y-19704318D02*
X11080428Y-19885746D01*
X11080428Y-19885746D02*
X10959476Y-20006699D01*
X10959476Y-20006699D02*
X10838523Y-20067175D01*
D10*
X72834857Y-42580057D02*
X73596761Y-42580057D01*
X74406285Y-42484819D02*
X74072952Y-42008628D01*
X73834857Y-42484819D02*
X73834857Y-41484819D01*
X73834857Y-41484819D02*
X74215809Y-41484819D01*
X74215809Y-41484819D02*
X74311047Y-41532438D01*
X74311047Y-41532438D02*
X74358666Y-41580057D01*
X74358666Y-41580057D02*
X74406285Y-41675295D01*
X74406285Y-41675295D02*
X74406285Y-41818152D01*
X74406285Y-41818152D02*
X74358666Y-41913390D01*
X74358666Y-41913390D02*
X74311047Y-41961009D01*
X74311047Y-41961009D02*
X74215809Y-42008628D01*
X74215809Y-42008628D02*
X73834857Y-42008628D01*
X75358666Y-42484819D02*
X74787238Y-42484819D01*
X75072952Y-42484819D02*
X75072952Y-41484819D01*
X75072952Y-41484819D02*
X74977714Y-41627676D01*
X74977714Y-41627676D02*
X74882476Y-41722914D01*
X74882476Y-41722914D02*
X74787238Y-41770533D01*
D11*
X33424237Y-20974318D02*
X33424237Y-19704318D01*
X34754714Y-20853365D02*
X34694238Y-20913842D01*
X34694238Y-20913842D02*
X34512809Y-20974318D01*
X34512809Y-20974318D02*
X34391857Y-20974318D01*
X34391857Y-20974318D02*
X34210428Y-20913842D01*
X34210428Y-20913842D02*
X34089476Y-20792889D01*
X34089476Y-20792889D02*
X34028999Y-20671937D01*
X34028999Y-20671937D02*
X33968523Y-20430032D01*
X33968523Y-20430032D02*
X33968523Y-20248603D01*
X33968523Y-20248603D02*
X34028999Y-20006699D01*
X34028999Y-20006699D02*
X34089476Y-19885746D01*
X34089476Y-19885746D02*
X34210428Y-19764794D01*
X34210428Y-19764794D02*
X34391857Y-19704318D01*
X34391857Y-19704318D02*
X34512809Y-19704318D01*
X34512809Y-19704318D02*
X34694238Y-19764794D01*
X34694238Y-19764794D02*
X34754714Y-19825270D01*
X35238523Y-19825270D02*
X35298999Y-19764794D01*
X35298999Y-19764794D02*
X35419952Y-19704318D01*
X35419952Y-19704318D02*
X35722333Y-19704318D01*
X35722333Y-19704318D02*
X35843285Y-19764794D01*
X35843285Y-19764794D02*
X35903761Y-19825270D01*
X35903761Y-19825270D02*
X35964238Y-19946222D01*
X35964238Y-19946222D02*
X35964238Y-20067175D01*
X35964238Y-20067175D02*
X35903761Y-20248603D01*
X35903761Y-20248603D02*
X35178047Y-20974318D01*
X35178047Y-20974318D02*
X35964238Y-20974318D01*
D10*
X62953905Y-58350057D02*
X63715809Y-58350057D01*
X64239619Y-57254819D02*
X64239619Y-57969104D01*
X64239619Y-57969104D02*
X64192000Y-58111961D01*
X64192000Y-58111961D02*
X64096762Y-58207200D01*
X64096762Y-58207200D02*
X63953905Y-58254819D01*
X63953905Y-58254819D02*
X63858667Y-58254819D01*
X64668191Y-57350057D02*
X64715810Y-57302438D01*
X64715810Y-57302438D02*
X64811048Y-57254819D01*
X64811048Y-57254819D02*
X65049143Y-57254819D01*
X65049143Y-57254819D02*
X65144381Y-57302438D01*
X65144381Y-57302438D02*
X65192000Y-57350057D01*
X65192000Y-57350057D02*
X65239619Y-57445295D01*
X65239619Y-57445295D02*
X65239619Y-57540533D01*
X65239619Y-57540533D02*
X65192000Y-57683390D01*
X65192000Y-57683390D02*
X64620572Y-58254819D01*
X64620572Y-58254819D02*
X65239619Y-58254819D01*
X75107333Y-9820580D02*
X75059714Y-9868200D01*
X75059714Y-9868200D02*
X74916857Y-9915819D01*
X74916857Y-9915819D02*
X74821619Y-9915819D01*
X74821619Y-9915819D02*
X74678762Y-9868200D01*
X74678762Y-9868200D02*
X74583524Y-9772961D01*
X74583524Y-9772961D02*
X74535905Y-9677723D01*
X74535905Y-9677723D02*
X74488286Y-9487247D01*
X74488286Y-9487247D02*
X74488286Y-9344390D01*
X74488286Y-9344390D02*
X74535905Y-9153914D01*
X74535905Y-9153914D02*
X74583524Y-9058676D01*
X74583524Y-9058676D02*
X74678762Y-8963438D01*
X74678762Y-8963438D02*
X74821619Y-8915819D01*
X74821619Y-8915819D02*
X74916857Y-8915819D01*
X74916857Y-8915819D02*
X75059714Y-8963438D01*
X75059714Y-8963438D02*
X75107333Y-9011057D01*
X75964476Y-9249152D02*
X75964476Y-9915819D01*
X75726381Y-8868200D02*
X75488286Y-9582485D01*
X75488286Y-9582485D02*
X76107333Y-9582485D01*
X22706857Y-57050057D02*
X23468761Y-57050057D01*
X23706857Y-56954819D02*
X23706857Y-55954819D01*
X23706857Y-55954819D02*
X23944952Y-55954819D01*
X23944952Y-55954819D02*
X24087809Y-56002438D01*
X24087809Y-56002438D02*
X24183047Y-56097676D01*
X24183047Y-56097676D02*
X24230666Y-56192914D01*
X24230666Y-56192914D02*
X24278285Y-56383390D01*
X24278285Y-56383390D02*
X24278285Y-56526247D01*
X24278285Y-56526247D02*
X24230666Y-56716723D01*
X24230666Y-56716723D02*
X24183047Y-56811961D01*
X24183047Y-56811961D02*
X24087809Y-56907200D01*
X24087809Y-56907200D02*
X23944952Y-56954819D01*
X23944952Y-56954819D02*
X23706857Y-56954819D01*
X25230666Y-56954819D02*
X24659238Y-56954819D01*
X24944952Y-56954819D02*
X24944952Y-55954819D01*
X24944952Y-55954819D02*
X24849714Y-56097676D01*
X24849714Y-56097676D02*
X24754476Y-56192914D01*
X24754476Y-56192914D02*
X24659238Y-56240533D01*
X57835333Y-10931819D02*
X57502000Y-10455628D01*
X57263905Y-10931819D02*
X57263905Y-9931819D01*
X57263905Y-9931819D02*
X57644857Y-9931819D01*
X57644857Y-9931819D02*
X57740095Y-9979438D01*
X57740095Y-9979438D02*
X57787714Y-10027057D01*
X57787714Y-10027057D02*
X57835333Y-10122295D01*
X57835333Y-10122295D02*
X57835333Y-10265152D01*
X57835333Y-10265152D02*
X57787714Y-10360390D01*
X57787714Y-10360390D02*
X57740095Y-10408009D01*
X57740095Y-10408009D02*
X57644857Y-10455628D01*
X57644857Y-10455628D02*
X57263905Y-10455628D01*
X58692476Y-10265152D02*
X58692476Y-10931819D01*
X58454381Y-9884200D02*
X58216286Y-10598485D01*
X58216286Y-10598485D02*
X58835333Y-10598485D01*
X85838666Y-22554819D02*
X85838666Y-23269104D01*
X85838666Y-23269104D02*
X85791047Y-23411961D01*
X85791047Y-23411961D02*
X85695809Y-23507200D01*
X85695809Y-23507200D02*
X85552952Y-23554819D01*
X85552952Y-23554819D02*
X85457714Y-23554819D01*
X86838666Y-23554819D02*
X86267238Y-23554819D01*
X86552952Y-23554819D02*
X86552952Y-22554819D01*
X86552952Y-22554819D02*
X86457714Y-22697676D01*
X86457714Y-22697676D02*
X86362476Y-22792914D01*
X86362476Y-22792914D02*
X86267238Y-22840533D01*
X22706857Y-42580057D02*
X23468761Y-42580057D01*
X24278285Y-42484819D02*
X23944952Y-42008628D01*
X23706857Y-42484819D02*
X23706857Y-41484819D01*
X23706857Y-41484819D02*
X24087809Y-41484819D01*
X24087809Y-41484819D02*
X24183047Y-41532438D01*
X24183047Y-41532438D02*
X24230666Y-41580057D01*
X24230666Y-41580057D02*
X24278285Y-41675295D01*
X24278285Y-41675295D02*
X24278285Y-41818152D01*
X24278285Y-41818152D02*
X24230666Y-41913390D01*
X24230666Y-41913390D02*
X24183047Y-41961009D01*
X24183047Y-41961009D02*
X24087809Y-42008628D01*
X24087809Y-42008628D02*
X23706857Y-42008628D01*
X25230666Y-42484819D02*
X24659238Y-42484819D01*
X24944952Y-42484819D02*
X24944952Y-41484819D01*
X24944952Y-41484819D02*
X24849714Y-41627676D01*
X24849714Y-41627676D02*
X24754476Y-41722914D01*
X24754476Y-41722914D02*
X24659238Y-41770533D01*
X21347333Y-11559580D02*
X21299714Y-11607200D01*
X21299714Y-11607200D02*
X21156857Y-11654819D01*
X21156857Y-11654819D02*
X21061619Y-11654819D01*
X21061619Y-11654819D02*
X20918762Y-11607200D01*
X20918762Y-11607200D02*
X20823524Y-11511961D01*
X20823524Y-11511961D02*
X20775905Y-11416723D01*
X20775905Y-11416723D02*
X20728286Y-11226247D01*
X20728286Y-11226247D02*
X20728286Y-11083390D01*
X20728286Y-11083390D02*
X20775905Y-10892914D01*
X20775905Y-10892914D02*
X20823524Y-10797676D01*
X20823524Y-10797676D02*
X20918762Y-10702438D01*
X20918762Y-10702438D02*
X21061619Y-10654819D01*
X21061619Y-10654819D02*
X21156857Y-10654819D01*
X21156857Y-10654819D02*
X21299714Y-10702438D01*
X21299714Y-10702438D02*
X21347333Y-10750057D01*
X22252095Y-10654819D02*
X21775905Y-10654819D01*
X21775905Y-10654819D02*
X21728286Y-11131009D01*
X21728286Y-11131009D02*
X21775905Y-11083390D01*
X21775905Y-11083390D02*
X21871143Y-11035771D01*
X21871143Y-11035771D02*
X22109238Y-11035771D01*
X22109238Y-11035771D02*
X22204476Y-11083390D01*
X22204476Y-11083390D02*
X22252095Y-11131009D01*
X22252095Y-11131009D02*
X22299714Y-11226247D01*
X22299714Y-11226247D02*
X22299714Y-11464342D01*
X22299714Y-11464342D02*
X22252095Y-11559580D01*
X22252095Y-11559580D02*
X22204476Y-11607200D01*
X22204476Y-11607200D02*
X22109238Y-11654819D01*
X22109238Y-11654819D02*
X21871143Y-11654819D01*
X21871143Y-11654819D02*
X21775905Y-11607200D01*
X21775905Y-11607200D02*
X21728286Y-11559580D01*
X89039333Y-9820580D02*
X88991714Y-9868200D01*
X88991714Y-9868200D02*
X88848857Y-9915819D01*
X88848857Y-9915819D02*
X88753619Y-9915819D01*
X88753619Y-9915819D02*
X88610762Y-9868200D01*
X88610762Y-9868200D02*
X88515524Y-9772961D01*
X88515524Y-9772961D02*
X88467905Y-9677723D01*
X88467905Y-9677723D02*
X88420286Y-9487247D01*
X88420286Y-9487247D02*
X88420286Y-9344390D01*
X88420286Y-9344390D02*
X88467905Y-9153914D01*
X88467905Y-9153914D02*
X88515524Y-9058676D01*
X88515524Y-9058676D02*
X88610762Y-8963438D01*
X88610762Y-8963438D02*
X88753619Y-8915819D01*
X88753619Y-8915819D02*
X88848857Y-8915819D01*
X88848857Y-8915819D02*
X88991714Y-8963438D01*
X88991714Y-8963438D02*
X89039333Y-9011057D01*
X89896476Y-8915819D02*
X89706000Y-8915819D01*
X89706000Y-8915819D02*
X89610762Y-8963438D01*
X89610762Y-8963438D02*
X89563143Y-9011057D01*
X89563143Y-9011057D02*
X89467905Y-9153914D01*
X89467905Y-9153914D02*
X89420286Y-9344390D01*
X89420286Y-9344390D02*
X89420286Y-9725342D01*
X89420286Y-9725342D02*
X89467905Y-9820580D01*
X89467905Y-9820580D02*
X89515524Y-9868200D01*
X89515524Y-9868200D02*
X89610762Y-9915819D01*
X89610762Y-9915819D02*
X89801238Y-9915819D01*
X89801238Y-9915819D02*
X89896476Y-9868200D01*
X89896476Y-9868200D02*
X89944095Y-9820580D01*
X89944095Y-9820580D02*
X89991714Y-9725342D01*
X89991714Y-9725342D02*
X89991714Y-9487247D01*
X89991714Y-9487247D02*
X89944095Y-9392009D01*
X89944095Y-9392009D02*
X89896476Y-9344390D01*
X89896476Y-9344390D02*
X89801238Y-9296771D01*
X89801238Y-9296771D02*
X89610762Y-9296771D01*
X89610762Y-9296771D02*
X89515524Y-9344390D01*
X89515524Y-9344390D02*
X89467905Y-9392009D01*
X89467905Y-9392009D02*
X89420286Y-9487247D01*
X84933905Y-59650057D02*
X85695809Y-59650057D01*
X86219619Y-58554819D02*
X86219619Y-59269104D01*
X86219619Y-59269104D02*
X86172000Y-59411961D01*
X86172000Y-59411961D02*
X86076762Y-59507200D01*
X86076762Y-59507200D02*
X85933905Y-59554819D01*
X85933905Y-59554819D02*
X85838667Y-59554819D01*
X87219619Y-59554819D02*
X86648191Y-59554819D01*
X86933905Y-59554819D02*
X86933905Y-58554819D01*
X86933905Y-58554819D02*
X86838667Y-58697676D01*
X86838667Y-58697676D02*
X86743429Y-58792914D01*
X86743429Y-58792914D02*
X86648191Y-58840533D01*
X90025333Y-21054819D02*
X89692000Y-20578628D01*
X89453905Y-21054819D02*
X89453905Y-20054819D01*
X89453905Y-20054819D02*
X89834857Y-20054819D01*
X89834857Y-20054819D02*
X89930095Y-20102438D01*
X89930095Y-20102438D02*
X89977714Y-20150057D01*
X89977714Y-20150057D02*
X90025333Y-20245295D01*
X90025333Y-20245295D02*
X90025333Y-20388152D01*
X90025333Y-20388152D02*
X89977714Y-20483390D01*
X89977714Y-20483390D02*
X89930095Y-20531009D01*
X89930095Y-20531009D02*
X89834857Y-20578628D01*
X89834857Y-20578628D02*
X89453905Y-20578628D01*
X90358667Y-20054819D02*
X90977714Y-20054819D01*
X90977714Y-20054819D02*
X90644381Y-20435771D01*
X90644381Y-20435771D02*
X90787238Y-20435771D01*
X90787238Y-20435771D02*
X90882476Y-20483390D01*
X90882476Y-20483390D02*
X90930095Y-20531009D01*
X90930095Y-20531009D02*
X90977714Y-20626247D01*
X90977714Y-20626247D02*
X90977714Y-20864342D01*
X90977714Y-20864342D02*
X90930095Y-20959580D01*
X90930095Y-20959580D02*
X90882476Y-21007200D01*
X90882476Y-21007200D02*
X90787238Y-21054819D01*
X90787238Y-21054819D02*
X90501524Y-21054819D01*
X90501524Y-21054819D02*
X90406286Y-21007200D01*
X90406286Y-21007200D02*
X90358667Y-20959580D01*
X5897333Y-16147580D02*
X5849714Y-16195200D01*
X5849714Y-16195200D02*
X5706857Y-16242819D01*
X5706857Y-16242819D02*
X5611619Y-16242819D01*
X5611619Y-16242819D02*
X5468762Y-16195200D01*
X5468762Y-16195200D02*
X5373524Y-16099961D01*
X5373524Y-16099961D02*
X5325905Y-16004723D01*
X5325905Y-16004723D02*
X5278286Y-15814247D01*
X5278286Y-15814247D02*
X5278286Y-15671390D01*
X5278286Y-15671390D02*
X5325905Y-15480914D01*
X5325905Y-15480914D02*
X5373524Y-15385676D01*
X5373524Y-15385676D02*
X5468762Y-15290438D01*
X5468762Y-15290438D02*
X5611619Y-15242819D01*
X5611619Y-15242819D02*
X5706857Y-15242819D01*
X5706857Y-15242819D02*
X5849714Y-15290438D01*
X5849714Y-15290438D02*
X5897333Y-15338057D01*
X6468762Y-15671390D02*
X6373524Y-15623771D01*
X6373524Y-15623771D02*
X6325905Y-15576152D01*
X6325905Y-15576152D02*
X6278286Y-15480914D01*
X6278286Y-15480914D02*
X6278286Y-15433295D01*
X6278286Y-15433295D02*
X6325905Y-15338057D01*
X6325905Y-15338057D02*
X6373524Y-15290438D01*
X6373524Y-15290438D02*
X6468762Y-15242819D01*
X6468762Y-15242819D02*
X6659238Y-15242819D01*
X6659238Y-15242819D02*
X6754476Y-15290438D01*
X6754476Y-15290438D02*
X6802095Y-15338057D01*
X6802095Y-15338057D02*
X6849714Y-15433295D01*
X6849714Y-15433295D02*
X6849714Y-15480914D01*
X6849714Y-15480914D02*
X6802095Y-15576152D01*
X6802095Y-15576152D02*
X6754476Y-15623771D01*
X6754476Y-15623771D02*
X6659238Y-15671390D01*
X6659238Y-15671390D02*
X6468762Y-15671390D01*
X6468762Y-15671390D02*
X6373524Y-15719009D01*
X6373524Y-15719009D02*
X6325905Y-15766628D01*
X6325905Y-15766628D02*
X6278286Y-15861866D01*
X6278286Y-15861866D02*
X6278286Y-16052342D01*
X6278286Y-16052342D02*
X6325905Y-16147580D01*
X6325905Y-16147580D02*
X6373524Y-16195200D01*
X6373524Y-16195200D02*
X6468762Y-16242819D01*
X6468762Y-16242819D02*
X6659238Y-16242819D01*
X6659238Y-16242819D02*
X6754476Y-16195200D01*
X6754476Y-16195200D02*
X6802095Y-16147580D01*
X6802095Y-16147580D02*
X6849714Y-16052342D01*
X6849714Y-16052342D02*
X6849714Y-15861866D01*
X6849714Y-15861866D02*
X6802095Y-15766628D01*
X6802095Y-15766628D02*
X6754476Y-15719009D01*
X6754476Y-15719009D02*
X6659238Y-15671390D01*
X73196761Y-19254819D02*
X72863428Y-18778628D01*
X72625333Y-19254819D02*
X72625333Y-18254819D01*
X72625333Y-18254819D02*
X73006285Y-18254819D01*
X73006285Y-18254819D02*
X73101523Y-18302438D01*
X73101523Y-18302438D02*
X73149142Y-18350057D01*
X73149142Y-18350057D02*
X73196761Y-18445295D01*
X73196761Y-18445295D02*
X73196761Y-18588152D01*
X73196761Y-18588152D02*
X73149142Y-18683390D01*
X73149142Y-18683390D02*
X73101523Y-18731009D01*
X73101523Y-18731009D02*
X73006285Y-18778628D01*
X73006285Y-18778628D02*
X72625333Y-18778628D01*
X73482476Y-18254819D02*
X73815809Y-19254819D01*
X73815809Y-19254819D02*
X74149142Y-18254819D01*
X75006285Y-19254819D02*
X74434857Y-19254819D01*
X74720571Y-19254819D02*
X74720571Y-18254819D01*
X74720571Y-18254819D02*
X74625333Y-18397676D01*
X74625333Y-18397676D02*
X74530095Y-18492914D01*
X74530095Y-18492914D02*
X74434857Y-18540533D01*
X68425333Y-20954819D02*
X68092000Y-20478628D01*
X67853905Y-20954819D02*
X67853905Y-19954819D01*
X67853905Y-19954819D02*
X68234857Y-19954819D01*
X68234857Y-19954819D02*
X68330095Y-20002438D01*
X68330095Y-20002438D02*
X68377714Y-20050057D01*
X68377714Y-20050057D02*
X68425333Y-20145295D01*
X68425333Y-20145295D02*
X68425333Y-20288152D01*
X68425333Y-20288152D02*
X68377714Y-20383390D01*
X68377714Y-20383390D02*
X68330095Y-20431009D01*
X68330095Y-20431009D02*
X68234857Y-20478628D01*
X68234857Y-20478628D02*
X67853905Y-20478628D01*
X68806286Y-20050057D02*
X68853905Y-20002438D01*
X68853905Y-20002438D02*
X68949143Y-19954819D01*
X68949143Y-19954819D02*
X69187238Y-19954819D01*
X69187238Y-19954819D02*
X69282476Y-20002438D01*
X69282476Y-20002438D02*
X69330095Y-20050057D01*
X69330095Y-20050057D02*
X69377714Y-20145295D01*
X69377714Y-20145295D02*
X69377714Y-20240533D01*
X69377714Y-20240533D02*
X69330095Y-20383390D01*
X69330095Y-20383390D02*
X68758667Y-20954819D01*
X68758667Y-20954819D02*
X69377714Y-20954819D01*
D11*
X83552237Y-20974318D02*
X83552237Y-19704318D01*
X84882714Y-20853365D02*
X84822238Y-20913842D01*
X84822238Y-20913842D02*
X84640809Y-20974318D01*
X84640809Y-20974318D02*
X84519857Y-20974318D01*
X84519857Y-20974318D02*
X84338428Y-20913842D01*
X84338428Y-20913842D02*
X84217476Y-20792889D01*
X84217476Y-20792889D02*
X84156999Y-20671937D01*
X84156999Y-20671937D02*
X84096523Y-20430032D01*
X84096523Y-20430032D02*
X84096523Y-20248603D01*
X84096523Y-20248603D02*
X84156999Y-20006699D01*
X84156999Y-20006699D02*
X84217476Y-19885746D01*
X84217476Y-19885746D02*
X84338428Y-19764794D01*
X84338428Y-19764794D02*
X84519857Y-19704318D01*
X84519857Y-19704318D02*
X84640809Y-19704318D01*
X84640809Y-19704318D02*
X84822238Y-19764794D01*
X84822238Y-19764794D02*
X84882714Y-19825270D01*
X85366523Y-19825270D02*
X85426999Y-19764794D01*
X85426999Y-19764794D02*
X85547952Y-19704318D01*
X85547952Y-19704318D02*
X85850333Y-19704318D01*
X85850333Y-19704318D02*
X85971285Y-19764794D01*
X85971285Y-19764794D02*
X86031761Y-19825270D01*
X86031761Y-19825270D02*
X86092238Y-19946222D01*
X86092238Y-19946222D02*
X86092238Y-20067175D01*
X86092238Y-20067175D02*
X86031761Y-20248603D01*
X86031761Y-20248603D02*
X85306047Y-20974318D01*
X85306047Y-20974318D02*
X86092238Y-20974318D01*
D10*
X71475333Y-11559580D02*
X71427714Y-11607200D01*
X71427714Y-11607200D02*
X71284857Y-11654819D01*
X71284857Y-11654819D02*
X71189619Y-11654819D01*
X71189619Y-11654819D02*
X71046762Y-11607200D01*
X71046762Y-11607200D02*
X70951524Y-11511961D01*
X70951524Y-11511961D02*
X70903905Y-11416723D01*
X70903905Y-11416723D02*
X70856286Y-11226247D01*
X70856286Y-11226247D02*
X70856286Y-11083390D01*
X70856286Y-11083390D02*
X70903905Y-10892914D01*
X70903905Y-10892914D02*
X70951524Y-10797676D01*
X70951524Y-10797676D02*
X71046762Y-10702438D01*
X71046762Y-10702438D02*
X71189619Y-10654819D01*
X71189619Y-10654819D02*
X71284857Y-10654819D01*
X71284857Y-10654819D02*
X71427714Y-10702438D01*
X71427714Y-10702438D02*
X71475333Y-10750057D01*
X72380095Y-10654819D02*
X71903905Y-10654819D01*
X71903905Y-10654819D02*
X71856286Y-11131009D01*
X71856286Y-11131009D02*
X71903905Y-11083390D01*
X71903905Y-11083390D02*
X71999143Y-11035771D01*
X71999143Y-11035771D02*
X72237238Y-11035771D01*
X72237238Y-11035771D02*
X72332476Y-11083390D01*
X72332476Y-11083390D02*
X72380095Y-11131009D01*
X72380095Y-11131009D02*
X72427714Y-11226247D01*
X72427714Y-11226247D02*
X72427714Y-11464342D01*
X72427714Y-11464342D02*
X72380095Y-11559580D01*
X72380095Y-11559580D02*
X72332476Y-11607200D01*
X72332476Y-11607200D02*
X72237238Y-11654819D01*
X72237238Y-11654819D02*
X71999143Y-11654819D01*
X71999143Y-11654819D02*
X71903905Y-11607200D01*
X71903905Y-11607200D02*
X71856286Y-11559580D01*
X56025333Y-13359580D02*
X55977714Y-13407200D01*
X55977714Y-13407200D02*
X55834857Y-13454819D01*
X55834857Y-13454819D02*
X55739619Y-13454819D01*
X55739619Y-13454819D02*
X55596762Y-13407200D01*
X55596762Y-13407200D02*
X55501524Y-13311961D01*
X55501524Y-13311961D02*
X55453905Y-13216723D01*
X55453905Y-13216723D02*
X55406286Y-13026247D01*
X55406286Y-13026247D02*
X55406286Y-12883390D01*
X55406286Y-12883390D02*
X55453905Y-12692914D01*
X55453905Y-12692914D02*
X55501524Y-12597676D01*
X55501524Y-12597676D02*
X55596762Y-12502438D01*
X55596762Y-12502438D02*
X55739619Y-12454819D01*
X55739619Y-12454819D02*
X55834857Y-12454819D01*
X55834857Y-12454819D02*
X55977714Y-12502438D01*
X55977714Y-12502438D02*
X56025333Y-12550057D01*
X56358667Y-12454819D02*
X57025333Y-12454819D01*
X57025333Y-12454819D02*
X56596762Y-13454819D01*
X69392057Y-53857143D02*
X69392057Y-53095238D01*
X69296819Y-52285714D02*
X68820628Y-52619047D01*
X69296819Y-52857142D02*
X68296819Y-52857142D01*
X68296819Y-52857142D02*
X68296819Y-52476190D01*
X68296819Y-52476190D02*
X68344438Y-52380952D01*
X68344438Y-52380952D02*
X68392057Y-52333333D01*
X68392057Y-52333333D02*
X68487295Y-52285714D01*
X68487295Y-52285714D02*
X68630152Y-52285714D01*
X68630152Y-52285714D02*
X68725390Y-52333333D01*
X68725390Y-52333333D02*
X68773009Y-52380952D01*
X68773009Y-52380952D02*
X68820628Y-52476190D01*
X68820628Y-52476190D02*
X68820628Y-52857142D01*
X68392057Y-51904761D02*
X68344438Y-51857142D01*
X68344438Y-51857142D02*
X68296819Y-51761904D01*
X68296819Y-51761904D02*
X68296819Y-51523809D01*
X68296819Y-51523809D02*
X68344438Y-51428571D01*
X68344438Y-51428571D02*
X68392057Y-51380952D01*
X68392057Y-51380952D02*
X68487295Y-51333333D01*
X68487295Y-51333333D02*
X68582533Y-51333333D01*
X68582533Y-51333333D02*
X68725390Y-51380952D01*
X68725390Y-51380952D02*
X69296819Y-51952380D01*
X69296819Y-51952380D02*
X69296819Y-51333333D01*
X42854476Y-19704819D02*
X42854476Y-20419104D01*
X42854476Y-20419104D02*
X42806857Y-20561961D01*
X42806857Y-20561961D02*
X42711619Y-20657200D01*
X42711619Y-20657200D02*
X42568762Y-20704819D01*
X42568762Y-20704819D02*
X42473524Y-20704819D01*
X43283048Y-20657200D02*
X43425905Y-20704819D01*
X43425905Y-20704819D02*
X43664000Y-20704819D01*
X43664000Y-20704819D02*
X43759238Y-20657200D01*
X43759238Y-20657200D02*
X43806857Y-20609580D01*
X43806857Y-20609580D02*
X43854476Y-20514342D01*
X43854476Y-20514342D02*
X43854476Y-20419104D01*
X43854476Y-20419104D02*
X43806857Y-20323866D01*
X43806857Y-20323866D02*
X43759238Y-20276247D01*
X43759238Y-20276247D02*
X43664000Y-20228628D01*
X43664000Y-20228628D02*
X43473524Y-20181009D01*
X43473524Y-20181009D02*
X43378286Y-20133390D01*
X43378286Y-20133390D02*
X43330667Y-20085771D01*
X43330667Y-20085771D02*
X43283048Y-19990533D01*
X43283048Y-19990533D02*
X43283048Y-19895295D01*
X43283048Y-19895295D02*
X43330667Y-19800057D01*
X43330667Y-19800057D02*
X43378286Y-19752438D01*
X43378286Y-19752438D02*
X43473524Y-19704819D01*
X43473524Y-19704819D02*
X43711619Y-19704819D01*
X43711619Y-19704819D02*
X43854476Y-19752438D01*
X44283048Y-20704819D02*
X44283048Y-19704819D01*
X44283048Y-19704819D02*
X44664000Y-19704819D01*
X44664000Y-19704819D02*
X44759238Y-19752438D01*
X44759238Y-19752438D02*
X44806857Y-19800057D01*
X44806857Y-19800057D02*
X44854476Y-19895295D01*
X44854476Y-19895295D02*
X44854476Y-20038152D01*
X44854476Y-20038152D02*
X44806857Y-20133390D01*
X44806857Y-20133390D02*
X44759238Y-20181009D01*
X44759238Y-20181009D02*
X44664000Y-20228628D01*
X44664000Y-20228628D02*
X44283048Y-20228628D01*
X45283048Y-20704819D02*
X45283048Y-19704819D01*
X45854476Y-20704819D02*
X45425905Y-20133390D01*
X45854476Y-19704819D02*
X45283048Y-20276247D01*
X46806857Y-20704819D02*
X46235429Y-20704819D01*
X46521143Y-20704819D02*
X46521143Y-19704819D01*
X46521143Y-19704819D02*
X46425905Y-19847676D01*
X46425905Y-19847676D02*
X46330667Y-19942914D01*
X46330667Y-19942914D02*
X46235429Y-19990533D01*
X23068761Y-19254819D02*
X22735428Y-18778628D01*
X22497333Y-19254819D02*
X22497333Y-18254819D01*
X22497333Y-18254819D02*
X22878285Y-18254819D01*
X22878285Y-18254819D02*
X22973523Y-18302438D01*
X22973523Y-18302438D02*
X23021142Y-18350057D01*
X23021142Y-18350057D02*
X23068761Y-18445295D01*
X23068761Y-18445295D02*
X23068761Y-18588152D01*
X23068761Y-18588152D02*
X23021142Y-18683390D01*
X23021142Y-18683390D02*
X22973523Y-18731009D01*
X22973523Y-18731009D02*
X22878285Y-18778628D01*
X22878285Y-18778628D02*
X22497333Y-18778628D01*
X23354476Y-18254819D02*
X23687809Y-19254819D01*
X23687809Y-19254819D02*
X24021142Y-18254819D01*
X24878285Y-19254819D02*
X24306857Y-19254819D01*
X24592571Y-19254819D02*
X24592571Y-18254819D01*
X24592571Y-18254819D02*
X24497333Y-18397676D01*
X24497333Y-18397676D02*
X24402095Y-18492914D01*
X24402095Y-18492914D02*
X24306857Y-18540533D01*
X19530666Y-23954819D02*
X19530666Y-24669104D01*
X19530666Y-24669104D02*
X19483047Y-24811961D01*
X19483047Y-24811961D02*
X19387809Y-24907200D01*
X19387809Y-24907200D02*
X19244952Y-24954819D01*
X19244952Y-24954819D02*
X19149714Y-24954819D01*
X19959238Y-24050057D02*
X20006857Y-24002438D01*
X20006857Y-24002438D02*
X20102095Y-23954819D01*
X20102095Y-23954819D02*
X20340190Y-23954819D01*
X20340190Y-23954819D02*
X20435428Y-24002438D01*
X20435428Y-24002438D02*
X20483047Y-24050057D01*
X20483047Y-24050057D02*
X20530666Y-24145295D01*
X20530666Y-24145295D02*
X20530666Y-24240533D01*
X20530666Y-24240533D02*
X20483047Y-24383390D01*
X20483047Y-24383390D02*
X19911619Y-24954819D01*
X19911619Y-24954819D02*
X20530666Y-24954819D01*
X39897333Y-21054819D02*
X39564000Y-20578628D01*
X39325905Y-21054819D02*
X39325905Y-20054819D01*
X39325905Y-20054819D02*
X39706857Y-20054819D01*
X39706857Y-20054819D02*
X39802095Y-20102438D01*
X39802095Y-20102438D02*
X39849714Y-20150057D01*
X39849714Y-20150057D02*
X39897333Y-20245295D01*
X39897333Y-20245295D02*
X39897333Y-20388152D01*
X39897333Y-20388152D02*
X39849714Y-20483390D01*
X39849714Y-20483390D02*
X39802095Y-20531009D01*
X39802095Y-20531009D02*
X39706857Y-20578628D01*
X39706857Y-20578628D02*
X39325905Y-20578628D01*
X40230667Y-20054819D02*
X40849714Y-20054819D01*
X40849714Y-20054819D02*
X40516381Y-20435771D01*
X40516381Y-20435771D02*
X40659238Y-20435771D01*
X40659238Y-20435771D02*
X40754476Y-20483390D01*
X40754476Y-20483390D02*
X40802095Y-20531009D01*
X40802095Y-20531009D02*
X40849714Y-20626247D01*
X40849714Y-20626247D02*
X40849714Y-20864342D01*
X40849714Y-20864342D02*
X40802095Y-20959580D01*
X40802095Y-20959580D02*
X40754476Y-21007200D01*
X40754476Y-21007200D02*
X40659238Y-21054819D01*
X40659238Y-21054819D02*
X40373524Y-21054819D01*
X40373524Y-21054819D02*
X40278286Y-21007200D01*
X40278286Y-21007200D02*
X40230667Y-20959580D01*
D12*
%TO.C,R1*%
X64857000Y-18227064D02*
X64857000Y-17772936D01*
X66327000Y-18227064D02*
X66327000Y-17772936D01*
%TO.C,J2*%
X59592000Y-32120000D02*
X59592000Y-23600000D01*
X68792000Y-32120000D02*
X59592000Y-32120000D01*
X68792000Y-29500000D02*
X68792000Y-32120000D01*
X59392000Y-24450000D02*
X59392000Y-23400000D01*
X59592000Y-23600000D02*
X62192000Y-23600000D01*
X66092000Y-23600000D02*
X68792000Y-23600000D01*
X68792000Y-23600000D02*
X68792000Y-25500000D01*
X60442000Y-23400000D02*
X59392000Y-23400000D01*
%TO.C,D1*%
X27074000Y-25000000D02*
X27074000Y-23000000D01*
X27074000Y-25000000D02*
X23064000Y-25000000D01*
X27074000Y-23000000D02*
X23064000Y-23000000D01*
%TO.C,C2*%
X17729000Y-13898752D02*
X17729000Y-13376248D01*
X19199000Y-13898752D02*
X19199000Y-13376248D01*
%TO.C,_J1*%
X32284000Y-60190000D02*
X32284000Y-66810000D01*
X32284000Y-66810000D02*
X36044000Y-66810000D01*
X33564000Y-68200000D02*
X34064000Y-67200000D01*
X34064000Y-67200000D02*
X34564000Y-68200000D01*
X34564000Y-68200000D02*
X33564000Y-68200000D01*
X36044000Y-60190000D02*
X32284000Y-60190000D01*
X36044000Y-60190000D02*
X39804000Y-60190000D01*
X39804000Y-60190000D02*
X39804000Y-66810000D01*
X39804000Y-66810000D02*
X36044000Y-66810000D01*
%TO.C,_D2*%
X75737000Y-49960000D02*
X72647000Y-49960000D01*
X74191538Y-55509999D02*
G75*
G03*
X75736830Y-49960001I462J2989999D01*
G01*
X72647170Y-49960000D02*
G75*
G03*
X74192462Y-55510000I1544830J-2560000D01*
G01*
X76692000Y-52520000D02*
G75*
G03*
X71692000Y-52520000I-2500000J0D01*
G01*
X71692000Y-52520000D02*
G75*
G03*
X76692000Y-52520000I2500000J0D01*
G01*
%TO.C,C4*%
X14068000Y-3014000D02*
X15068000Y-3014000D01*
X14568000Y-2514000D02*
X14568000Y-3514000D01*
X15308000Y-2228437D02*
X15308000Y-4014000D01*
X15308000Y-2228437D02*
X16372437Y-1164000D01*
X15308000Y-8819563D02*
X15308000Y-7034000D01*
X15308000Y-8819563D02*
X16372437Y-9884000D01*
X16372437Y-1164000D02*
X24028000Y-1164000D01*
X16372437Y-9884000D02*
X24028000Y-9884000D01*
X24028000Y-1164000D02*
X24028000Y-4014000D01*
X24028000Y-9884000D02*
X24028000Y-7034000D01*
%TO.C,JPROG1*%
X9338000Y-1019000D02*
X10668000Y-1019000D01*
X9338000Y-2349000D02*
X9338000Y-1019000D01*
X9338000Y-3619000D02*
X9338000Y-8759000D01*
X9338000Y-3619000D02*
X11998000Y-3619000D01*
X9338000Y-8759000D02*
X11998000Y-8759000D01*
X11998000Y-3619000D02*
X11998000Y-8759000D01*
%TO.C,R1*%
X14729000Y-18227064D02*
X14729000Y-17772936D01*
X16199000Y-18227064D02*
X16199000Y-17772936D01*
D13*
%TO.C,IC1*%
X57907000Y-19163000D02*
X57907000Y-17638000D01*
X58025000Y-17288000D02*
X58025000Y-14088000D01*
X62949000Y-17288000D02*
X58025000Y-17288000D01*
X58025000Y-14088000D02*
X62949000Y-14088000D01*
X62949000Y-14088000D02*
X62949000Y-17288000D01*
D12*
%TO.C,_D1*%
X70832000Y-50915000D02*
X70832000Y-54085000D01*
X70832000Y-54085000D02*
X76692000Y-54085000D01*
X76692000Y-50915000D02*
X70832000Y-50915000D01*
%TO.C,J1*%
X32284000Y-24190000D02*
X32284000Y-30810000D01*
X32284000Y-30810000D02*
X36044000Y-30810000D01*
X33564000Y-32200000D02*
X34064000Y-31200000D01*
X34064000Y-31200000D02*
X34564000Y-32200000D01*
X34564000Y-32200000D02*
X33564000Y-32200000D01*
X36044000Y-24190000D02*
X32284000Y-24190000D01*
X36044000Y-24190000D02*
X39804000Y-24190000D01*
X39804000Y-24190000D02*
X39804000Y-30810000D01*
X39804000Y-30810000D02*
X36044000Y-30810000D01*
%TO.C,C6*%
X27928000Y-3014000D02*
X28928000Y-3014000D01*
X28428000Y-2514000D02*
X28428000Y-3514000D01*
X29168000Y-2228437D02*
X29168000Y-4014000D01*
X29168000Y-2228437D02*
X30232437Y-1164000D01*
X29168000Y-8819563D02*
X29168000Y-7034000D01*
X29168000Y-8819563D02*
X30232437Y-9884000D01*
X30232437Y-1164000D02*
X37888000Y-1164000D01*
X30232437Y-9884000D02*
X37888000Y-9884000D01*
X37888000Y-1164000D02*
X37888000Y-4014000D01*
X37888000Y-9884000D02*
X37888000Y-7034000D01*
%TO.C,C8*%
X53710752Y-16523000D02*
X53188248Y-16523000D01*
X53710752Y-15053000D02*
X53188248Y-15053000D01*
%TO.C,C9*%
X53748252Y-19123000D02*
X53225748Y-19123000D01*
X53748252Y-17653000D02*
X53225748Y-17653000D01*
%TO.C,C1*%
X64857000Y-13898752D02*
X64857000Y-13376248D01*
X66327000Y-13898752D02*
X66327000Y-13376248D01*
%TO.C,_R2*%
X17799000Y-52272936D02*
X17799000Y-52727064D01*
X16329000Y-52272936D02*
X16329000Y-52727064D01*
%TO.C,C10*%
X89457000Y-13723752D02*
X89457000Y-13201248D01*
X90927000Y-13723752D02*
X90927000Y-13201248D01*
%TO.C,C1*%
X14729000Y-13898752D02*
X14729000Y-13376248D01*
X16199000Y-13898752D02*
X16199000Y-13376248D01*
%TO.C,JSPK1*%
X96122000Y-19054000D02*
X94792000Y-19054000D01*
X96122000Y-17724000D02*
X96122000Y-19054000D01*
X96122000Y-16454000D02*
X96122000Y-13854000D01*
X96122000Y-16454000D02*
X93462000Y-16454000D01*
X96122000Y-13854000D02*
X93462000Y-13854000D01*
X93462000Y-16454000D02*
X93462000Y-13854000D01*
%TO.C,R4*%
X10424936Y-9742000D02*
X10879064Y-9742000D01*
X10424936Y-11212000D02*
X10879064Y-11212000D01*
%TO.C,_J2*%
X9464000Y-68120000D02*
X9464000Y-59600000D01*
X18664000Y-68120000D02*
X9464000Y-68120000D01*
X18664000Y-65500000D02*
X18664000Y-68120000D01*
X9264000Y-60450000D02*
X9264000Y-59400000D01*
X9464000Y-59600000D02*
X12064000Y-59600000D01*
X15964000Y-59600000D02*
X18664000Y-59600000D01*
X18664000Y-59600000D02*
X18664000Y-61500000D01*
X10314000Y-59400000D02*
X9264000Y-59400000D01*
%TO.C,C3*%
X29729000Y-15948752D02*
X29729000Y-15426248D01*
X31199000Y-15948752D02*
X31199000Y-15426248D01*
%TO.C,_D2*%
X25609000Y-49960000D02*
X22519000Y-49960000D01*
X24063538Y-55509999D02*
G75*
G03*
X25608830Y-49960001I462J2989999D01*
G01*
X22519170Y-49960000D02*
G75*
G03*
X24064462Y-55510000I1544830J-2560000D01*
G01*
X26564000Y-52520000D02*
G75*
G03*
X21564000Y-52520000I-2500000J0D01*
G01*
X21564000Y-52520000D02*
G75*
G03*
X26564000Y-52520000I2500000J0D01*
G01*
%TO.C,C9*%
X3620252Y-19123000D02*
X3097748Y-19123000D01*
X3620252Y-17653000D02*
X3097748Y-17653000D01*
%TO.C,C7*%
X3582752Y-13723000D02*
X3060248Y-13723000D01*
X3582752Y-12253000D02*
X3060248Y-12253000D01*
%TO.C,R2*%
X17729000Y-18227064D02*
X17729000Y-17772936D01*
X19199000Y-18227064D02*
X19199000Y-17772936D01*
%TO.C,D1*%
X77202000Y-25000000D02*
X77202000Y-23000000D01*
X77202000Y-25000000D02*
X73192000Y-25000000D01*
X77202000Y-23000000D02*
X73192000Y-23000000D01*
%TO.C,C2*%
X67857000Y-13898752D02*
X67857000Y-13376248D01*
X69327000Y-13898752D02*
X69327000Y-13376248D01*
%TO.C,C3*%
X79857000Y-15948752D02*
X79857000Y-15426248D01*
X81327000Y-15948752D02*
X81327000Y-15426248D01*
%TO.C,C10*%
X39329000Y-13723752D02*
X39329000Y-13201248D01*
X40799000Y-13723752D02*
X40799000Y-13201248D01*
%TO.C,JPROG1*%
X59466000Y-1019000D02*
X60796000Y-1019000D01*
X59466000Y-2349000D02*
X59466000Y-1019000D01*
X59466000Y-3619000D02*
X59466000Y-8759000D01*
X59466000Y-3619000D02*
X62126000Y-3619000D01*
X59466000Y-8759000D02*
X62126000Y-8759000D01*
X62126000Y-3619000D02*
X62126000Y-8759000D01*
D13*
%TO.C,IC1*%
X7779000Y-19163000D02*
X7779000Y-17638000D01*
X7897000Y-17288000D02*
X7897000Y-14088000D01*
X12821000Y-17288000D02*
X7897000Y-17288000D01*
X7897000Y-14088000D02*
X12821000Y-14088000D01*
X12821000Y-14088000D02*
X12821000Y-17288000D01*
D12*
%TO.C,_R1*%
X62532000Y-44750000D02*
X69572000Y-44750000D01*
X69572000Y-43030000D02*
X69572000Y-46470000D01*
X69572000Y-46470000D02*
X78812000Y-46470000D01*
X78812000Y-43030000D02*
X69572000Y-43030000D01*
X78812000Y-46470000D02*
X78812000Y-43030000D01*
X85852000Y-44750000D02*
X78812000Y-44750000D01*
D13*
%TO.C,IC2*%
X32213000Y-19163000D02*
X32213000Y-17638000D01*
X32331000Y-17288000D02*
X32331000Y-14088000D01*
X37255000Y-17288000D02*
X32331000Y-17288000D01*
X32331000Y-14088000D02*
X37255000Y-14088000D01*
X37255000Y-14088000D02*
X37255000Y-17288000D01*
D12*
%TO.C,_J2*%
X59592000Y-68120000D02*
X59592000Y-59600000D01*
X68792000Y-68120000D02*
X59592000Y-68120000D01*
X68792000Y-65500000D02*
X68792000Y-68120000D01*
X59392000Y-60450000D02*
X59392000Y-59400000D01*
X59592000Y-59600000D02*
X62192000Y-59600000D01*
X66092000Y-59600000D02*
X68792000Y-59600000D01*
X68792000Y-59600000D02*
X68792000Y-61500000D01*
X60442000Y-59400000D02*
X59392000Y-59400000D01*
%TO.C,C4*%
X64196000Y-3014000D02*
X65196000Y-3014000D01*
X64696000Y-2514000D02*
X64696000Y-3514000D01*
X65436000Y-2228437D02*
X65436000Y-4014000D01*
X65436000Y-2228437D02*
X66500437Y-1164000D01*
X65436000Y-8819563D02*
X65436000Y-7034000D01*
X65436000Y-8819563D02*
X66500437Y-9884000D01*
X66500437Y-1164000D02*
X74156000Y-1164000D01*
X66500437Y-9884000D02*
X74156000Y-9884000D01*
X74156000Y-1164000D02*
X74156000Y-4014000D01*
X74156000Y-9884000D02*
X74156000Y-7034000D01*
%TO.C,_D1*%
X20704000Y-50915000D02*
X20704000Y-54085000D01*
X20704000Y-54085000D02*
X26564000Y-54085000D01*
X26564000Y-50915000D02*
X20704000Y-50915000D01*
%TO.C,R4*%
X60552936Y-9742000D02*
X61007064Y-9742000D01*
X60552936Y-11212000D02*
X61007064Y-11212000D01*
%TO.C,J1*%
X82412000Y-24190000D02*
X82412000Y-30810000D01*
X82412000Y-30810000D02*
X86172000Y-30810000D01*
X83692000Y-32200000D02*
X84192000Y-31200000D01*
X84192000Y-31200000D02*
X84692000Y-32200000D01*
X84692000Y-32200000D02*
X83692000Y-32200000D01*
X86172000Y-24190000D02*
X82412000Y-24190000D01*
X86172000Y-24190000D02*
X89932000Y-24190000D01*
X89932000Y-24190000D02*
X89932000Y-30810000D01*
X89932000Y-30810000D02*
X86172000Y-30810000D01*
%TO.C,_R1*%
X12404000Y-44750000D02*
X19444000Y-44750000D01*
X19444000Y-43030000D02*
X19444000Y-46470000D01*
X19444000Y-46470000D02*
X28684000Y-46470000D01*
X28684000Y-43030000D02*
X19444000Y-43030000D01*
X28684000Y-46470000D02*
X28684000Y-43030000D01*
X35724000Y-44750000D02*
X28684000Y-44750000D01*
%TO.C,C5*%
X20804000Y-13898752D02*
X20804000Y-13376248D01*
X22274000Y-13898752D02*
X22274000Y-13376248D01*
%TO.C,C6*%
X78056000Y-3014000D02*
X79056000Y-3014000D01*
X78556000Y-2514000D02*
X78556000Y-3514000D01*
X79296000Y-2228437D02*
X79296000Y-4014000D01*
X79296000Y-2228437D02*
X80360437Y-1164000D01*
X79296000Y-8819563D02*
X79296000Y-7034000D01*
X79296000Y-8819563D02*
X80360437Y-9884000D01*
X80360437Y-1164000D02*
X88016000Y-1164000D01*
X80360437Y-9884000D02*
X88016000Y-9884000D01*
X88016000Y-1164000D02*
X88016000Y-4014000D01*
X88016000Y-9884000D02*
X88016000Y-7034000D01*
%TO.C,_J1*%
X82412000Y-60190000D02*
X82412000Y-66810000D01*
X82412000Y-66810000D02*
X86172000Y-66810000D01*
X83692000Y-68200000D02*
X84192000Y-67200000D01*
X84192000Y-67200000D02*
X84692000Y-68200000D01*
X84692000Y-68200000D02*
X83692000Y-68200000D01*
X86172000Y-60190000D02*
X82412000Y-60190000D01*
X86172000Y-60190000D02*
X89932000Y-60190000D01*
X89932000Y-60190000D02*
X89932000Y-66810000D01*
X89932000Y-66810000D02*
X86172000Y-66810000D01*
%TO.C,R3*%
X90927000Y-17772936D02*
X90927000Y-18227064D01*
X89457000Y-17772936D02*
X89457000Y-18227064D01*
%TO.C,C8*%
X3582752Y-16523000D02*
X3060248Y-16523000D01*
X3582752Y-15053000D02*
X3060248Y-15053000D01*
%TO.C,RV1*%
X73901000Y-13980000D02*
X73901000Y-17720000D01*
X73901000Y-13980000D02*
X74482000Y-13980000D01*
X73901000Y-17720000D02*
X75281000Y-17720000D01*
X76261000Y-13980000D02*
X76781000Y-13980000D01*
X77761000Y-17720000D02*
X78941000Y-17720000D01*
X78561000Y-13980000D02*
X78941000Y-13980000D01*
X78941000Y-13980000D02*
X78941000Y-17720000D01*
%TO.C,R2*%
X67857000Y-18227064D02*
X67857000Y-17772936D01*
X69327000Y-18227064D02*
X69327000Y-17772936D01*
D13*
%TO.C,IC2*%
X82341000Y-19163000D02*
X82341000Y-17638000D01*
X82459000Y-17288000D02*
X82459000Y-14088000D01*
X87383000Y-17288000D02*
X82459000Y-17288000D01*
X82459000Y-14088000D02*
X87383000Y-14088000D01*
X87383000Y-14088000D02*
X87383000Y-17288000D01*
D12*
%TO.C,C5*%
X70932000Y-13898752D02*
X70932000Y-13376248D01*
X72402000Y-13898752D02*
X72402000Y-13376248D01*
%TO.C,C7*%
X53710752Y-13723000D02*
X53188248Y-13723000D01*
X53710752Y-12253000D02*
X53188248Y-12253000D01*
%TO.C,_R2*%
X67927000Y-52272936D02*
X67927000Y-52727064D01*
X66457000Y-52272936D02*
X66457000Y-52727064D01*
%TO.C,JSPK1*%
X45994000Y-19054000D02*
X44664000Y-19054000D01*
X45994000Y-17724000D02*
X45994000Y-19054000D01*
X45994000Y-16454000D02*
X45994000Y-13854000D01*
X45994000Y-16454000D02*
X43334000Y-16454000D01*
X45994000Y-13854000D02*
X43334000Y-13854000D01*
X43334000Y-16454000D02*
X43334000Y-13854000D01*
%TO.C,RV1*%
X23773000Y-13980000D02*
X23773000Y-17720000D01*
X23773000Y-13980000D02*
X24354000Y-13980000D01*
X23773000Y-17720000D02*
X25153000Y-17720000D01*
X26133000Y-13980000D02*
X26653000Y-13980000D01*
X27633000Y-17720000D02*
X28813000Y-17720000D01*
X28433000Y-13980000D02*
X28813000Y-13980000D01*
X28813000Y-13980000D02*
X28813000Y-17720000D01*
%TO.C,J2*%
X9464000Y-32120000D02*
X9464000Y-23600000D01*
X18664000Y-32120000D02*
X9464000Y-32120000D01*
X18664000Y-29500000D02*
X18664000Y-32120000D01*
X9264000Y-24450000D02*
X9264000Y-23400000D01*
X9464000Y-23600000D02*
X12064000Y-23600000D01*
X15964000Y-23600000D02*
X18664000Y-23600000D01*
X18664000Y-23600000D02*
X18664000Y-25500000D01*
X10314000Y-23400000D02*
X9264000Y-23400000D01*
%TO.C,R3*%
X40799000Y-17772936D02*
X40799000Y-18227064D01*
X39329000Y-17772936D02*
X39329000Y-18227064D01*
%TD*%
%LPC*%
D14*
%TO.C,KiKit_MB_9_2*%
X50128000Y-46542666D03*
%TD*%
%TO.C,KiKit_MB_4_6*%
X80525333Y-33000000D03*
%TD*%
%TO.C,KiKit_MB_4_2*%
X33730666Y-33000000D03*
%TD*%
D15*
%TO.C,R1*%
X65592000Y-19000000D03*
X65592000Y-17000000D03*
%TD*%
D14*
%TO.C,KiKit_MB_8_4*%
X55692000Y-35674143D03*
%TD*%
%TO.C,KiKit_MB_7_4*%
X50192000Y-21521334D03*
%TD*%
D16*
%TO.C,J2*%
X64192000Y-24500000D03*
D17*
X64192000Y-30500000D03*
D18*
X68892000Y-27500000D03*
%TD*%
D14*
%TO.C,KiKit_MB_9_7*%
X84692000Y-35936000D03*
%TD*%
%TO.C,KiKit_MB_3_4*%
X74192000Y-33000000D03*
%TD*%
D19*
%TO.C,H2*%
X94192000Y-4000000D03*
%TD*%
D14*
%TO.C,KiKit_MB_9_3*%
X81358666Y-35936000D03*
%TD*%
D19*
%TO.C,H2*%
X44064000Y-4000000D03*
%TD*%
D14*
%TO.C,KiKit_MB_1_1*%
X60692000Y-33000000D03*
%TD*%
%TO.C,KiKit_MB_8_5*%
X24897333Y-35936000D03*
%TD*%
D20*
%TO.C,D1*%
X26364000Y-24000000D03*
X23064000Y-24000000D03*
%TD*%
D21*
%TO.C,C2*%
X18464000Y-14675000D03*
X18464000Y-12600000D03*
%TD*%
D14*
%TO.C,KiKit_MB_1_6*%
X56525334Y-33000000D03*
%TD*%
%TO.C,KiKit_MB_10_5*%
X91025333Y-35936000D03*
%TD*%
%TO.C,KiKit_MB_5_2*%
X48128000Y-57053333D03*
%TD*%
%TO.C,KiKit_MB_10_5*%
X40897333Y-35936000D03*
%TD*%
D22*
%TO.C,_J1*%
X34064000Y-63500000D03*
D23*
X38024000Y-63500000D03*
%TD*%
D14*
%TO.C,KiKit_MB_2_3*%
X16897334Y-33000000D03*
%TD*%
%TO.C,KiKit_MB_3_3*%
X24897333Y-33000000D03*
%TD*%
D24*
%TO.C,_D2*%
X74192000Y-51250000D03*
D25*
X74192000Y-53790000D03*
%TD*%
D14*
%TO.C,KiKit_MB_6_7*%
X60692000Y-35936000D03*
%TD*%
%TO.C,KiKit_MB_6_5*%
X8897334Y-35936000D03*
%TD*%
%TO.C,KiKit_MB_6_1*%
X5564000Y-35936000D03*
%TD*%
D26*
%TO.C,C4*%
X15968000Y-5524000D03*
X23368000Y-5524000D03*
%TD*%
D14*
%TO.C,KiKit_MB_2_5*%
X65358667Y-33000000D03*
%TD*%
D27*
%TO.C,JPROG1*%
X10668000Y-2349000D03*
D28*
X10668000Y-4889000D03*
X10668000Y-7429000D03*
%TD*%
D15*
%TO.C,R1*%
X15464000Y-19000000D03*
X15464000Y-17000000D03*
%TD*%
D29*
%TO.C,IC1*%
X58582000Y-18400000D03*
X59852000Y-18400000D03*
X61122000Y-18400000D03*
X62392000Y-18400000D03*
X62392000Y-12976000D03*
X61122000Y-12976000D03*
X59852000Y-12976000D03*
X58582000Y-12976000D03*
%TD*%
D30*
%TO.C,_H2*%
X94192000Y-40000000D03*
%TD*%
D31*
%TO.C,_D1*%
X71854500Y-52500000D03*
X76529500Y-52500000D03*
%TD*%
D14*
%TO.C,KiKit_MB_10_2*%
X88525333Y-35936000D03*
%TD*%
%TO.C,KiKit_MB_9_4*%
X50128000Y-44542666D03*
%TD*%
D22*
%TO.C,J1*%
X34064000Y-27500000D03*
D23*
X38024000Y-27500000D03*
%TD*%
D26*
%TO.C,C6*%
X29828000Y-5524000D03*
X37228000Y-5524000D03*
%TD*%
D32*
%TO.C,C8*%
X54487000Y-15788000D03*
X52412000Y-15788000D03*
%TD*%
D14*
%TO.C,KiKit_MB_1_2*%
X9730667Y-33000000D03*
%TD*%
%TO.C,KiKit_MB_2_4*%
X16064000Y-33000000D03*
%TD*%
%TO.C,KiKit_MB_4_3*%
X83025333Y-33000000D03*
%TD*%
D32*
%TO.C,C9*%
X54524500Y-18388000D03*
X52449500Y-18388000D03*
%TD*%
D21*
%TO.C,C1*%
X65592000Y-14675000D03*
X65592000Y-12600000D03*
%TD*%
D14*
%TO.C,KiKit_MB_1_4*%
X58192000Y-33000000D03*
%TD*%
%TO.C,KiKit_MB_7_6*%
X67858667Y-35936000D03*
%TD*%
%TO.C,KiKit_MB_1_1*%
X10564000Y-33000000D03*
%TD*%
%TO.C,KiKit_MB_6_4*%
X58192000Y-35936000D03*
%TD*%
%TO.C,KiKit_MB_7_1*%
X63692000Y-35936000D03*
%TD*%
%TO.C,KiKit_MB_2_7*%
X63692000Y-33000000D03*
%TD*%
D30*
%TO.C,_H2*%
X44064000Y-40000000D03*
%TD*%
D14*
%TO.C,KiKit_MB_5_4*%
X40064000Y-33000000D03*
%TD*%
%TO.C,KiKit_MB_8_7*%
X26564000Y-35936000D03*
%TD*%
%TO.C,KiKit_MB_3_3*%
X75025333Y-33000000D03*
%TD*%
%TO.C,KiKit_MB_6_6*%
X59858667Y-35936000D03*
%TD*%
%TO.C,KiKit_MB_2_2*%
X17730667Y-33000000D03*
%TD*%
%TO.C,KiKit_MB_10_3*%
X39230666Y-35936000D03*
%TD*%
%TO.C,KiKit_MB_10_1*%
X87692000Y-35936000D03*
%TD*%
%TO.C,KiKit_MB_5_7*%
X87692000Y-33000000D03*
%TD*%
%TO.C,KiKit_MB_8_7*%
X55692000Y-33032000D03*
%TD*%
%TO.C,KiKit_MB_1_7*%
X5564000Y-33000000D03*
%TD*%
D19*
%TO.C,H4*%
X4064000Y-29000000D03*
%TD*%
D14*
%TO.C,KiKit_MB_10_3*%
X50128000Y-57053333D03*
%TD*%
%TO.C,KiKit_MB_8_3*%
X23230667Y-35936000D03*
%TD*%
D33*
%TO.C,_R2*%
X17064000Y-51500000D03*
X17064000Y-53500000D03*
%TD*%
D14*
%TO.C,KiKit_MB_9_5*%
X83025333Y-35936000D03*
%TD*%
%TO.C,KiKit_MB_9_5*%
X32897333Y-35936000D03*
%TD*%
%TO.C,KiKit_MB_2_1*%
X68692000Y-33000000D03*
%TD*%
%TO.C,KiKit_MB_8_6*%
X75858666Y-35936000D03*
%TD*%
%TO.C,KiKit_MB_1_2*%
X48064000Y-11010667D03*
%TD*%
%TO.C,KiKit_MB_9_4*%
X82192000Y-35936000D03*
%TD*%
%TO.C,KiKit_MB_8_5*%
X55692000Y-34793429D03*
%TD*%
%TO.C,KiKit_MB_2_2*%
X48064000Y-22521334D03*
%TD*%
%TO.C,KiKit_MB_5_3*%
X91025333Y-33000000D03*
%TD*%
%TO.C,KiKit_MB_3_6*%
X22397334Y-33000000D03*
%TD*%
D21*
%TO.C,C10*%
X90192000Y-14500000D03*
X90192000Y-12425000D03*
%TD*%
D14*
%TO.C,KiKit_MB_6_4*%
X8064000Y-35936000D03*
%TD*%
%TO.C,KiKit_MB_4_5*%
X81358666Y-33000000D03*
%TD*%
%TO.C,KiKit_MB_10_4*%
X50128000Y-56053333D03*
%TD*%
%TO.C,KiKit_MB_3_2*%
X25730666Y-33000000D03*
%TD*%
%TO.C,KiKit_MB_3_4*%
X24064000Y-33000000D03*
%TD*%
D21*
%TO.C,C1*%
X15464000Y-14675000D03*
X15464000Y-12600000D03*
%TD*%
D14*
%TO.C,KiKit_MB_2_1*%
X18564000Y-33000000D03*
%TD*%
%TO.C,KiKit_MB_10_4*%
X90192000Y-35936000D03*
%TD*%
%TO.C,KiKit_MB_2_2*%
X67858667Y-33000000D03*
%TD*%
%TO.C,KiKit_MB_3_7*%
X71692000Y-33000000D03*
%TD*%
D30*
%TO.C,_H3*%
X54192000Y-65000000D03*
%TD*%
D27*
%TO.C,JSPK1*%
X94792000Y-17724000D03*
D28*
X94792000Y-15184000D03*
%TD*%
D14*
%TO.C,KiKit_MB_3_7*%
X44937279Y-36032000D03*
%TD*%
%TO.C,KiKit_MB_1_2*%
X59858667Y-33000000D03*
%TD*%
D34*
%TO.C,R4*%
X9652000Y-10477000D03*
X11652000Y-10477000D03*
%TD*%
D14*
%TO.C,KiKit_MB_6_1*%
X55692000Y-35936000D03*
%TD*%
%TO.C,KiKit_MB_3_7*%
X21564000Y-33000000D03*
%TD*%
%TO.C,KiKit_MB_4_4*%
X32064000Y-33000000D03*
%TD*%
D16*
%TO.C,_J2*%
X14064000Y-60500000D03*
D17*
X14064000Y-66500000D03*
D18*
X18764000Y-63500000D03*
%TD*%
D14*
%TO.C,KiKit_MB_7_6*%
X17730667Y-35936000D03*
%TD*%
%TO.C,KiKit_MB_6_7*%
X10564000Y-35936000D03*
%TD*%
D21*
%TO.C,C3*%
X30464000Y-16725000D03*
X30464000Y-14650000D03*
%TD*%
D24*
%TO.C,_D2*%
X24064000Y-51250000D03*
D25*
X24064000Y-53790000D03*
%TD*%
D32*
%TO.C,C9*%
X4396500Y-18388000D03*
X2321500Y-18388000D03*
%TD*%
D14*
%TO.C,KiKit_MB_7_3*%
X65358667Y-35936000D03*
%TD*%
D32*
%TO.C,C7*%
X4359000Y-12988000D03*
X2284000Y-12988000D03*
%TD*%
D30*
%TO.C,_H1*%
X4064000Y-40000000D03*
%TD*%
D15*
%TO.C,R2*%
X18464000Y-19000000D03*
X18464000Y-17000000D03*
%TD*%
D14*
%TO.C,KiKit_MB_1_6*%
X6397334Y-33000000D03*
%TD*%
D20*
%TO.C,D1*%
X76492000Y-24000000D03*
X73192000Y-24000000D03*
%TD*%
D21*
%TO.C,C2*%
X68592000Y-14675000D03*
X68592000Y-12600000D03*
%TD*%
D14*
%TO.C,KiKit_MB_5_4*%
X90192000Y-33000000D03*
%TD*%
%TO.C,KiKit_MB_8_7*%
X76692000Y-35936000D03*
%TD*%
%TO.C,KiKit_MB_1_3*%
X48064000Y-12010667D03*
%TD*%
D21*
%TO.C,C3*%
X80592000Y-16725000D03*
X80592000Y-14650000D03*
%TD*%
D14*
%TO.C,KiKit_MB_3_2*%
X42564000Y-33912715D03*
%TD*%
D19*
%TO.C,H4*%
X54192000Y-29000000D03*
%TD*%
D14*
%TO.C,KiKit_MB_9_1*%
X79692000Y-35936000D03*
%TD*%
%TO.C,KiKit_MB_6_3*%
X57358667Y-35936000D03*
%TD*%
%TO.C,KiKit_MB_6_2*%
X6397334Y-35936000D03*
%TD*%
%TO.C,KiKit_MB_6_3*%
X7230667Y-35936000D03*
%TD*%
%TO.C,KiKit_MB_4_4*%
X48128000Y-47542666D03*
%TD*%
%TO.C,KiKit_MB_5_7*%
X37564000Y-33000000D03*
%TD*%
D21*
%TO.C,C10*%
X40064000Y-14500000D03*
X40064000Y-12425000D03*
%TD*%
D14*
%TO.C,KiKit_MB_1_7*%
X55692000Y-33000000D03*
%TD*%
D27*
%TO.C,JPROG1*%
X60796000Y-2349000D03*
D28*
X60796000Y-4889000D03*
X60796000Y-7429000D03*
%TD*%
D14*
%TO.C,KiKit_MB_4_3*%
X32897333Y-33000000D03*
%TD*%
D29*
%TO.C,IC1*%
X8454000Y-18400000D03*
X9724000Y-18400000D03*
X10994000Y-18400000D03*
X12264000Y-18400000D03*
X12264000Y-12976000D03*
X10994000Y-12976000D03*
X9724000Y-12976000D03*
X8454000Y-12976000D03*
%TD*%
D35*
%TO.C,_R1*%
X61492000Y-44750000D03*
D36*
X86892000Y-44750000D03*
%TD*%
D14*
%TO.C,KiKit_MB_8_1*%
X21564000Y-35936000D03*
%TD*%
%TO.C,KiKit_MB_1_4*%
X48064000Y-13010667D03*
%TD*%
D29*
%TO.C,IC2*%
X32888000Y-18400000D03*
X34158000Y-18400000D03*
X35428000Y-18400000D03*
X36698000Y-18400000D03*
X36698000Y-12976000D03*
X35428000Y-12976000D03*
X34158000Y-12976000D03*
X32888000Y-12976000D03*
%TD*%
D14*
%TO.C,KiKit_MB_10_2*%
X38397333Y-35936000D03*
%TD*%
%TO.C,KiKit_MB_5_6*%
X38397333Y-33000000D03*
%TD*%
%TO.C,KiKit_MB_3_2*%
X75858666Y-33000000D03*
%TD*%
%TO.C,KiKit_MB_8_3*%
X55073141Y-35936000D03*
%TD*%
%TO.C,KiKit_MB_9_7*%
X34564000Y-35936000D03*
%TD*%
%TO.C,KiKit_MB_8_3*%
X73358667Y-35936000D03*
%TD*%
D16*
%TO.C,_J2*%
X64192000Y-60500000D03*
D17*
X64192000Y-66500000D03*
D18*
X68892000Y-63500000D03*
%TD*%
D14*
%TO.C,KiKit_MB_7_2*%
X50192000Y-23521334D03*
%TD*%
%TO.C,KiKit_MB_1_5*%
X57358667Y-33000000D03*
%TD*%
D26*
%TO.C,C4*%
X66096000Y-5524000D03*
X73496000Y-5524000D03*
%TD*%
D14*
%TO.C,KiKit_MB_2_4*%
X66192000Y-33000000D03*
%TD*%
%TO.C,KiKit_MB_7_3*%
X50192000Y-22521334D03*
%TD*%
D30*
%TO.C,_H1*%
X54192000Y-40000000D03*
%TD*%
D19*
%TO.C,H1*%
X54192000Y-4000000D03*
%TD*%
D14*
%TO.C,KiKit_MB_2_7*%
X13564000Y-33000000D03*
%TD*%
%TO.C,KiKit_MB_7_2*%
X64525334Y-35936000D03*
%TD*%
%TO.C,KiKit_MB_1_3*%
X8897334Y-33000000D03*
%TD*%
%TO.C,KiKit_MB_5_3*%
X48128000Y-58053333D03*
%TD*%
%TO.C,KiKit_MB_10_6*%
X41730666Y-35936000D03*
%TD*%
%TO.C,KiKit_MB_7_1*%
X50192000Y-24521334D03*
%TD*%
%TO.C,KiKit_MB_5_3*%
X40897333Y-33000000D03*
%TD*%
%TO.C,KiKit_MB_1_5*%
X7230667Y-33000000D03*
%TD*%
D31*
%TO.C,_D1*%
X21726500Y-52500000D03*
X26401500Y-52500000D03*
%TD*%
D14*
%TO.C,KiKit_MB_1_3*%
X59025334Y-33000000D03*
%TD*%
%TO.C,KiKit_MB_5_5*%
X89358666Y-33000000D03*
%TD*%
D34*
%TO.C,R4*%
X59780000Y-10477000D03*
X61780000Y-10477000D03*
%TD*%
D14*
%TO.C,KiKit_MB_10_2*%
X50128000Y-58053333D03*
%TD*%
%TO.C,KiKit_MB_7_1*%
X13564000Y-35936000D03*
%TD*%
%TO.C,KiKit_MB_3_3*%
X42564000Y-34793428D03*
%TD*%
%TO.C,KiKit_MB_4_2*%
X48128000Y-45542666D03*
%TD*%
%TO.C,KiKit_MB_10_7*%
X42564000Y-35936000D03*
%TD*%
%TO.C,KiKit_MB_2_1*%
X48064000Y-21521334D03*
%TD*%
%TO.C,KiKit_MB_7_7*%
X18564000Y-35936000D03*
%TD*%
%TO.C,KiKit_MB_8_6*%
X25730666Y-35936000D03*
%TD*%
%TO.C,KiKit_MB_3_5*%
X23230667Y-33000000D03*
%TD*%
%TO.C,KiKit_MB_2_5*%
X15230667Y-33000000D03*
%TD*%
%TO.C,KiKit_MB_7_5*%
X67025334Y-35936000D03*
%TD*%
%TO.C,KiKit_MB_8_4*%
X74192000Y-35936000D03*
%TD*%
D30*
%TO.C,_H4*%
X44064000Y-65000000D03*
%TD*%
D22*
%TO.C,J1*%
X84192000Y-27500000D03*
D23*
X88152000Y-27500000D03*
%TD*%
D14*
%TO.C,KiKit_MB_2_4*%
X48064000Y-24521334D03*
%TD*%
%TO.C,KiKit_MB_9_6*%
X33730666Y-35936000D03*
%TD*%
%TO.C,KiKit_MB_2_6*%
X14397334Y-33000000D03*
%TD*%
%TO.C,KiKit_MB_8_1*%
X53318719Y-36032000D03*
%TD*%
D19*
%TO.C,H1*%
X4064000Y-4000000D03*
%TD*%
D14*
%TO.C,KiKit_MB_5_2*%
X41730666Y-33000000D03*
%TD*%
%TO.C,KiKit_MB_7_2*%
X14397334Y-35936000D03*
%TD*%
%TO.C,KiKit_MB_7_3*%
X15230667Y-35936000D03*
%TD*%
%TO.C,KiKit_MB_4_4*%
X82192000Y-33000000D03*
%TD*%
%TO.C,KiKit_MB_6_5*%
X59025334Y-35936000D03*
%TD*%
%TO.C,KiKit_MB_9_4*%
X32064000Y-35936000D03*
%TD*%
%TO.C,KiKit_MB_10_3*%
X89358666Y-35936000D03*
%TD*%
%TO.C,KiKit_MB_4_1*%
X84692000Y-33000000D03*
%TD*%
%TO.C,KiKit_MB_4_6*%
X30397333Y-33000000D03*
%TD*%
%TO.C,KiKit_MB_8_4*%
X24064000Y-35936000D03*
%TD*%
%TO.C,KiKit_MB_7_4*%
X66192000Y-35936000D03*
%TD*%
%TO.C,KiKit_MB_6_3*%
X50192000Y-11010667D03*
%TD*%
D35*
%TO.C,_R1*%
X11364000Y-44750000D03*
D36*
X36764000Y-44750000D03*
%TD*%
D14*
%TO.C,KiKit_MB_4_7*%
X29564000Y-33000000D03*
%TD*%
%TO.C,KiKit_MB_5_1*%
X42564000Y-33000000D03*
%TD*%
D19*
%TO.C,H3*%
X94192000Y-29000000D03*
%TD*%
D14*
%TO.C,KiKit_MB_5_6*%
X88525333Y-33000000D03*
%TD*%
%TO.C,KiKit_MB_9_3*%
X50128000Y-45542666D03*
%TD*%
%TO.C,KiKit_MB_10_4*%
X40064000Y-35936000D03*
%TD*%
%TO.C,KiKit_MB_6_4*%
X50192000Y-10010667D03*
%TD*%
%TO.C,KiKit_MB_4_3*%
X48128000Y-46542666D03*
%TD*%
D21*
%TO.C,C5*%
X21539000Y-14675000D03*
X21539000Y-12600000D03*
%TD*%
D14*
%TO.C,KiKit_MB_9_3*%
X31230666Y-35936000D03*
%TD*%
%TO.C,KiKit_MB_3_1*%
X42564000Y-33032000D03*
%TD*%
D19*
%TO.C,H3*%
X44064000Y-29000000D03*
%TD*%
D26*
%TO.C,C6*%
X79956000Y-5524000D03*
X87356000Y-5524000D03*
%TD*%
D22*
%TO.C,_J1*%
X84192000Y-63500000D03*
D23*
X88152000Y-63500000D03*
%TD*%
D33*
%TO.C,R3*%
X90192000Y-17000000D03*
X90192000Y-19000000D03*
%TD*%
D14*
%TO.C,KiKit_MB_9_1*%
X29564000Y-35936000D03*
%TD*%
%TO.C,KiKit_MB_6_2*%
X56525334Y-35936000D03*
%TD*%
%TO.C,KiKit_MB_8_5*%
X75025333Y-35936000D03*
%TD*%
%TO.C,KiKit_MB_3_1*%
X26564000Y-33000000D03*
%TD*%
%TO.C,KiKit_MB_8_2*%
X54192427Y-35936000D03*
%TD*%
%TO.C,KiKit_MB_4_1*%
X34564000Y-33000000D03*
%TD*%
%TO.C,KiKit_MB_9_2*%
X30397333Y-35936000D03*
%TD*%
%TO.C,KiKit_MB_10_7*%
X92692000Y-35936000D03*
%TD*%
%TO.C,KiKit_MB_2_6*%
X64525334Y-33000000D03*
%TD*%
D32*
%TO.C,C8*%
X4359000Y-15788000D03*
X2284000Y-15788000D03*
%TD*%
D14*
%TO.C,KiKit_MB_7_5*%
X16897334Y-35936000D03*
%TD*%
%TO.C,KiKit_MB_3_6*%
X72525334Y-33000000D03*
%TD*%
%TO.C,KiKit_MB_4_5*%
X31230666Y-33000000D03*
%TD*%
D37*
%TO.C,RV1*%
X77671000Y-13300000D03*
D38*
X76521000Y-18400000D03*
D37*
X75371000Y-13300000D03*
%TD*%
D14*
%TO.C,KiKit_MB_5_2*%
X91858666Y-33000000D03*
%TD*%
%TO.C,KiKit_MB_8_1*%
X71692000Y-35936000D03*
%TD*%
%TO.C,KiKit_MB_6_6*%
X9730667Y-35936000D03*
%TD*%
%TO.C,KiKit_MB_6_2*%
X50192000Y-12010667D03*
%TD*%
D15*
%TO.C,R2*%
X68592000Y-19000000D03*
X68592000Y-17000000D03*
%TD*%
D14*
%TO.C,KiKit_MB_3_1*%
X76692000Y-33000000D03*
%TD*%
D29*
%TO.C,IC2*%
X83016000Y-18400000D03*
X84286000Y-18400000D03*
X85556000Y-18400000D03*
X86826000Y-18400000D03*
X86826000Y-12976000D03*
X85556000Y-12976000D03*
X84286000Y-12976000D03*
X83016000Y-12976000D03*
%TD*%
D14*
%TO.C,KiKit_MB_5_4*%
X48128000Y-59053333D03*
%TD*%
D30*
%TO.C,_H3*%
X4064000Y-65000000D03*
%TD*%
D14*
%TO.C,KiKit_MB_10_1*%
X50128000Y-59053333D03*
%TD*%
D21*
%TO.C,C5*%
X71667000Y-14675000D03*
X71667000Y-12600000D03*
%TD*%
D14*
%TO.C,KiKit_MB_3_5*%
X73358667Y-33000000D03*
%TD*%
%TO.C,KiKit_MB_2_3*%
X67025334Y-33000000D03*
%TD*%
%TO.C,KiKit_MB_5_1*%
X48128000Y-56053333D03*
%TD*%
%TO.C,KiKit_MB_6_1*%
X50192000Y-13010667D03*
%TD*%
D32*
%TO.C,C7*%
X54487000Y-12988000D03*
X52412000Y-12988000D03*
%TD*%
D33*
%TO.C,_R2*%
X67192000Y-51500000D03*
X67192000Y-53500000D03*
%TD*%
D27*
%TO.C,JSPK1*%
X44664000Y-17724000D03*
D28*
X44664000Y-15184000D03*
%TD*%
D14*
%TO.C,KiKit_MB_8_2*%
X22397334Y-35936000D03*
%TD*%
%TO.C,KiKit_MB_3_4*%
X42564000Y-35674143D03*
%TD*%
%TO.C,KiKit_MB_8_6*%
X55692000Y-33912715D03*
%TD*%
%TO.C,KiKit_MB_3_6*%
X44063572Y-35936000D03*
%TD*%
D37*
%TO.C,RV1*%
X27543000Y-13300000D03*
D38*
X26393000Y-18400000D03*
D37*
X25243000Y-13300000D03*
%TD*%
D14*
%TO.C,KiKit_MB_8_2*%
X72525334Y-35936000D03*
%TD*%
D16*
%TO.C,J2*%
X14064000Y-24500000D03*
D17*
X14064000Y-30500000D03*
D18*
X18764000Y-27500000D03*
%TD*%
D14*
%TO.C,KiKit_MB_10_1*%
X37564000Y-35936000D03*
%TD*%
%TO.C,KiKit_MB_3_5*%
X43182857Y-35936000D03*
%TD*%
%TO.C,KiKit_MB_4_1*%
X48128000Y-44542666D03*
%TD*%
%TO.C,KiKit_MB_5_5*%
X39230666Y-33000000D03*
%TD*%
%TO.C,KiKit_MB_4_2*%
X83858666Y-33000000D03*
%TD*%
D33*
%TO.C,R3*%
X40064000Y-17000000D03*
X40064000Y-19000000D03*
%TD*%
D14*
%TO.C,KiKit_MB_2_3*%
X48064000Y-23521334D03*
%TD*%
%TO.C,KiKit_MB_7_7*%
X68692000Y-35936000D03*
%TD*%
%TO.C,KiKit_MB_9_6*%
X83858666Y-35936000D03*
%TD*%
%TO.C,KiKit_MB_1_1*%
X48064000Y-10010667D03*
%TD*%
%TO.C,KiKit_MB_4_7*%
X79692000Y-33000000D03*
%TD*%
%TO.C,KiKit_MB_5_1*%
X92692000Y-33000000D03*
%TD*%
%TO.C,KiKit_MB_10_6*%
X91858666Y-35936000D03*
%TD*%
D30*
%TO.C,_H4*%
X94192000Y-65000000D03*
%TD*%
D14*
%TO.C,KiKit_MB_9_1*%
X50128000Y-47542666D03*
%TD*%
%TO.C,KiKit_MB_7_4*%
X16064000Y-35936000D03*
%TD*%
%TO.C,KiKit_MB_9_2*%
X80525333Y-35936000D03*
%TD*%
%TO.C,KiKit_MB_1_4*%
X8064000Y-33000000D03*
%TD*%
%LPD*%
M02*
