M48
; DRILL file {KiCad 7.0.10} date Sun 03 Mar 2024 12:06:43 PM CET
; FORMAT={-:-/ absolute / inch / decimal}
; #@! TF.CreationDate,2024-03-03T12:06:43+01:00
; #@! TF.GenerationSoftware,Kicad,Pcbnew,7.0.10
; #@! TF.FileFunction,NonPlated,1,2,NPTH
FMAT,2
INCH
; #@! TA.AperFunction,NonPlated,NPTH,ComponentDrill
T1C0.0197
; #@! TA.AperFunction,NonPlated,NPTH,ComponentDrill
T2C0.1181
; #@! TA.AperFunction,NonPlated,NPTH,ComponentDrill
T3C0.1260
%
G90
G05
T1
X0.2191Y-1.2992
X0.2191Y-1.4148
X0.2519Y-1.2992
X0.2519Y-1.4148
X0.2847Y-1.2992
X0.2847Y-1.4148
X0.3175Y-1.2992
X0.3175Y-1.4148
X0.3503Y-1.2992
X0.3503Y-1.4148
X0.3831Y-1.2992
X0.3831Y-1.4148
X0.4159Y-1.2992
X0.4159Y-1.4148
X0.534Y-1.2992
X0.534Y-1.4148
X0.5668Y-1.2992
X0.5668Y-1.4148
X0.5996Y-1.2992
X0.5996Y-1.4148
X0.6324Y-1.2992
X0.6324Y-1.4148
X0.6652Y-1.2992
X0.6652Y-1.4148
X0.6981Y-1.2992
X0.6981Y-1.4148
X0.7309Y-1.2992
X0.7309Y-1.4148
X0.849Y-1.2992
X0.849Y-1.4148
X0.8818Y-1.2992
X0.8818Y-1.4148
X0.9146Y-1.2992
X0.9146Y-1.4148
X0.9474Y-1.2992
X0.9474Y-1.4148
X0.9802Y-1.2992
X0.9802Y-1.4148
X1.013Y-1.2992
X1.013Y-1.4148
X1.0458Y-1.2992
X1.0458Y-1.4148
X1.1639Y-1.2992
X1.1639Y-1.4148
X1.1967Y-1.2992
X1.1967Y-1.4148
X1.2296Y-1.2992
X1.2296Y-1.4148
X1.2624Y-1.2992
X1.2624Y-1.4148
X1.2952Y-1.2992
X1.2952Y-1.4148
X1.328Y-1.2992
X1.328Y-1.4148
X1.3608Y-1.2992
X1.3608Y-1.4148
X1.4789Y-1.2992
X1.4789Y-1.4148
X1.5117Y-1.2992
X1.5117Y-1.4148
X1.5445Y-1.2992
X1.5445Y-1.4148
X1.5773Y-1.2992
X1.5773Y-1.4148
X1.6101Y-1.2992
X1.6101Y-1.4148
X1.6429Y-1.2992
X1.6429Y-1.4148
X1.6757Y-1.2992
X1.6757Y-1.3005
X1.6757Y-1.3351
X1.6757Y-1.3698
X1.6757Y-1.4045
X1.6757Y-1.4148
X1.7001Y-1.4148
X1.7348Y-1.4148
X1.7692Y-1.4186
X1.8923Y-0.3941
X1.8923Y-0.4335
X1.8923Y-0.4729
X1.8923Y-0.5122
X1.8923Y-0.8473
X1.8923Y-0.8867
X1.8923Y-0.926
X1.8923Y-0.9654
X1.8948Y-1.7536
X1.8948Y-1.793
X1.8948Y-1.8324
X1.8948Y-1.8718
X1.8948Y-2.2068
X1.8948Y-2.2462
X1.8948Y-2.2856
X1.8948Y-2.3249
X1.9735Y-1.7536
X1.9735Y-1.793
X1.9735Y-1.8324
X1.9735Y-1.8718
X1.9735Y-2.2068
X1.9735Y-2.2462
X1.9735Y-2.2856
X1.9735Y-2.3249
X1.9761Y-0.3941
X1.9761Y-0.4335
X1.9761Y-0.4729
X1.9761Y-0.5122
X1.9761Y-0.8473
X1.9761Y-0.8867
X1.9761Y-0.926
X1.9761Y-0.9654
X2.0992Y-1.4186
X2.1336Y-1.4148
X2.1682Y-1.4148
X2.1926Y-1.2992
X2.1926Y-1.3005
X2.1926Y-1.3351
X2.1926Y-1.3698
X2.1926Y-1.4045
X2.1926Y-1.4148
X2.2254Y-1.2992
X2.2254Y-1.4148
X2.2582Y-1.2992
X2.2582Y-1.4148
X2.291Y-1.2992
X2.291Y-1.4148
X2.3238Y-1.2992
X2.3238Y-1.4148
X2.3566Y-1.2992
X2.3566Y-1.4148
X2.3894Y-1.2992
X2.3894Y-1.4148
X2.5076Y-1.2992
X2.5076Y-1.4148
X2.5404Y-1.2992
X2.5404Y-1.4148
X2.5732Y-1.2992
X2.5732Y-1.4148
X2.606Y-1.2992
X2.606Y-1.4148
X2.6388Y-1.2992
X2.6388Y-1.4148
X2.6716Y-1.2992
X2.6716Y-1.4148
X2.7044Y-1.2992
X2.7044Y-1.4148
X2.8225Y-1.2992
X2.8225Y-1.4148
X2.8553Y-1.2992
X2.8553Y-1.4148
X2.8881Y-1.2992
X2.8881Y-1.4148
X2.9209Y-1.2992
X2.9209Y-1.4148
X2.9538Y-1.2992
X2.9538Y-1.4148
X2.9866Y-1.2992
X2.9866Y-1.4148
X3.0194Y-1.2992
X3.0194Y-1.4148
X3.1375Y-1.2992
X3.1375Y-1.4148
X3.1703Y-1.2992
X3.1703Y-1.4148
X3.2031Y-1.2992
X3.2031Y-1.4148
X3.2359Y-1.2992
X3.2359Y-1.4148
X3.2687Y-1.2992
X3.2687Y-1.4148
X3.3015Y-1.2992
X3.3015Y-1.4148
X3.3343Y-1.2992
X3.3343Y-1.4148
X3.4524Y-1.2992
X3.4524Y-1.4148
X3.4852Y-1.2992
X3.4852Y-1.4148
X3.5181Y-1.2992
X3.5181Y-1.4148
X3.5509Y-1.2992
X3.5509Y-1.4148
X3.5837Y-1.2992
X3.5837Y-1.4148
X3.6165Y-1.2992
X3.6165Y-1.4148
X3.6493Y-1.2992
X3.6493Y-1.4148
T2
X0.16Y-1.5748
X0.16Y-2.5591
X1.7348Y-1.5748
X1.7348Y-2.5591
X2.1335Y-1.5748
X2.1335Y-2.5591
X3.7083Y-1.5748
X3.7083Y-2.5591
T3
X0.16Y-0.1575
X0.16Y-1.1417
X1.7348Y-0.1575
X1.7348Y-1.1417
X2.1335Y-0.1575
X2.1335Y-1.1417
X3.7083Y-0.1575
X3.7083Y-1.1417
M30
