%TF.GenerationSoftware,KiCad,Pcbnew,7.0.10*%
%TF.CreationDate,2024-03-03T12:06:43+01:00*%
%TF.ProjectId,explorer-panel,6578706c-6f72-4657-922d-70616e656c2e,rev?*%
%TF.SameCoordinates,Original*%
%TF.FileFunction,Copper,L2,Bot*%
%TF.FilePolarity,Positive*%
%FSLAX46Y46*%
G04 Gerber Fmt 4.6, Leading zero omitted, Abs format (unit mm)*
G04 Created by KiCad (PCBNEW 7.0.10) date 2024-03-03 12:06:43*
%MOMM*%
%LPD*%
G01*
G04 APERTURE LIST*
G04 Aperture macros list*
%AMRoundRect*
0 Rectangle with rounded corners*
0 $1 Rounding radius*
0 $2 $3 $4 $5 $6 $7 $8 $9 X,Y pos of 4 corners*
0 Add a 4 corners polygon primitive as box body*
4,1,4,$2,$3,$4,$5,$6,$7,$8,$9,$2,$3,0*
0 Add four circle primitives for the rounded corners*
1,1,$1+$1,$2,$3*
1,1,$1+$1,$4,$5*
1,1,$1+$1,$6,$7*
1,1,$1+$1,$8,$9*
0 Add four rect primitives between the rounded corners*
20,1,$1+$1,$2,$3,$4,$5,0*
20,1,$1+$1,$4,$5,$6,$7,0*
20,1,$1+$1,$6,$7,$8,$9,0*
20,1,$1+$1,$8,$9,$2,$3,0*%
G04 Aperture macros list end*
%TA.AperFunction,ComponentPad*%
%ADD10R,3.500000X3.500000*%
%TD*%
%TA.AperFunction,ComponentPad*%
%ADD11RoundRect,0.750000X1.000000X-0.750000X1.000000X0.750000X-1.000000X0.750000X-1.000000X-0.750000X0*%
%TD*%
%TA.AperFunction,ComponentPad*%
%ADD12RoundRect,0.875000X0.875000X-0.875000X0.875000X0.875000X-0.875000X0.875000X-0.875000X-0.875000X0*%
%TD*%
%TA.AperFunction,ComponentPad*%
%ADD13RoundRect,0.250001X-0.949999X-0.949999X0.949999X-0.949999X0.949999X0.949999X-0.949999X0.949999X0*%
%TD*%
%TA.AperFunction,ComponentPad*%
%ADD14C,2.400000*%
%TD*%
%TA.AperFunction,ComponentPad*%
%ADD15R,1.800000X1.800000*%
%TD*%
%TA.AperFunction,ComponentPad*%
%ADD16C,1.800000*%
%TD*%
%TA.AperFunction,ComponentPad*%
%ADD17R,1.700000X1.700000*%
%TD*%
%TA.AperFunction,ComponentPad*%
%ADD18O,1.700000X1.700000*%
%TD*%
%TA.AperFunction,ComponentPad*%
%ADD19C,1.600000*%
%TD*%
%TA.AperFunction,ComponentPad*%
%ADD20O,1.600000X1.600000*%
%TD*%
%TA.AperFunction,ViaPad*%
%ADD21C,0.800000*%
%TD*%
%TA.AperFunction,Conductor*%
%ADD22C,1.000000*%
%TD*%
G04 APERTURE END LIST*
D10*
%TO.P,J2,1,Pin_1*%
%TO.N,Board_1-Board_0-/PWR*%
X64192000Y-24500000D03*
D11*
%TO.P,J2,2,Pin_2*%
%TO.N,Board_1-Board_0-GND*%
X64192000Y-30500000D03*
D12*
%TO.P,J2,3,Pin_3*%
X68892000Y-27500000D03*
%TD*%
D13*
%TO.P,_J1,1,Pin_1*%
%TO.N,Board_0-Board_1-VCC*%
X34064000Y-63500000D03*
D14*
%TO.P,_J1,2,Pin_2*%
%TO.N,Board_0-Board_1-GND*%
X38024000Y-63500000D03*
%TD*%
D15*
%TO.P,_D2,1,K*%
%TO.N,Board_1-Board_1-Net-(D1-K)*%
X74192000Y-51250000D03*
D16*
%TO.P,_D2,2,A*%
%TO.N,Board_1-Board_1-VCC*%
X74192000Y-53790000D03*
%TD*%
D17*
%TO.P,JPROG1,1,Pin_1*%
%TO.N,Board_0-Board_0-VCC*%
X10668000Y-2349000D03*
D18*
%TO.P,JPROG1,2,Pin_2*%
%TO.N,Board_0-Board_0-GND*%
X10668000Y-4889000D03*
%TO.P,JPROG1,3,Pin_3*%
%TO.N,Board_0-Board_0-Net-(JPROG1-Pin_3)*%
X10668000Y-7429000D03*
%TD*%
D13*
%TO.P,J1,1,Pin_1*%
%TO.N,Board_0-Board_0-/PWR*%
X34064000Y-27500000D03*
D14*
%TO.P,J1,2,Pin_2*%
%TO.N,Board_0-Board_0-GND*%
X38024000Y-27500000D03*
%TD*%
D17*
%TO.P,JSPK1,1,Pin_1*%
%TO.N,Board_1-Board_0-GND*%
X94792000Y-17724000D03*
D18*
%TO.P,JSPK1,2,Pin_2*%
%TO.N,Board_1-Board_0-/AUDIO_OUT_FILTER*%
X94792000Y-15184000D03*
%TD*%
D10*
%TO.P,_J2,1,Pin_1*%
%TO.N,Board_0-Board_1-VCC*%
X14064000Y-60500000D03*
D11*
%TO.P,_J2,2,Pin_2*%
%TO.N,Board_0-Board_1-GND*%
X14064000Y-66500000D03*
D12*
%TO.P,_J2,3,Pin_3*%
X18764000Y-63500000D03*
%TD*%
D15*
%TO.P,_D2,1,K*%
%TO.N,Board_0-Board_1-Net-(D1-K)*%
X24064000Y-51250000D03*
D16*
%TO.P,_D2,2,A*%
%TO.N,Board_0-Board_1-VCC*%
X24064000Y-53790000D03*
%TD*%
D17*
%TO.P,JPROG1,1,Pin_1*%
%TO.N,Board_1-Board_0-VCC*%
X60796000Y-2349000D03*
D18*
%TO.P,JPROG1,2,Pin_2*%
%TO.N,Board_1-Board_0-GND*%
X60796000Y-4889000D03*
%TO.P,JPROG1,3,Pin_3*%
%TO.N,Board_1-Board_0-Net-(JPROG1-Pin_3)*%
X60796000Y-7429000D03*
%TD*%
D19*
%TO.P,_R1,1*%
%TO.N,Board_1-Board_1-Net-(D1-K)*%
X61492000Y-44750000D03*
D20*
%TO.P,_R1,2*%
%TO.N,Board_1-Board_1-GND*%
X86892000Y-44750000D03*
%TD*%
D10*
%TO.P,_J2,1,Pin_1*%
%TO.N,Board_1-Board_1-VCC*%
X64192000Y-60500000D03*
D11*
%TO.P,_J2,2,Pin_2*%
%TO.N,Board_1-Board_1-GND*%
X64192000Y-66500000D03*
D12*
%TO.P,_J2,3,Pin_3*%
X68892000Y-63500000D03*
%TD*%
D13*
%TO.P,J1,1,Pin_1*%
%TO.N,Board_1-Board_0-/PWR*%
X84192000Y-27500000D03*
D14*
%TO.P,J1,2,Pin_2*%
%TO.N,Board_1-Board_0-GND*%
X88152000Y-27500000D03*
%TD*%
D19*
%TO.P,_R1,1*%
%TO.N,Board_0-Board_1-Net-(D1-K)*%
X11364000Y-44750000D03*
D20*
%TO.P,_R1,2*%
%TO.N,Board_0-Board_1-GND*%
X36764000Y-44750000D03*
%TD*%
D13*
%TO.P,_J1,1,Pin_1*%
%TO.N,Board_1-Board_1-VCC*%
X84192000Y-63500000D03*
D14*
%TO.P,_J1,2,Pin_2*%
%TO.N,Board_1-Board_1-GND*%
X88152000Y-63500000D03*
%TD*%
D17*
%TO.P,JSPK1,1,Pin_1*%
%TO.N,Board_0-Board_0-GND*%
X44664000Y-17724000D03*
D18*
%TO.P,JSPK1,2,Pin_2*%
%TO.N,Board_0-Board_0-/AUDIO_OUT_FILTER*%
X44664000Y-15184000D03*
%TD*%
D10*
%TO.P,J2,1,Pin_1*%
%TO.N,Board_0-Board_0-/PWR*%
X14064000Y-24500000D03*
D11*
%TO.P,J2,2,Pin_2*%
%TO.N,Board_0-Board_0-GND*%
X14064000Y-30500000D03*
D12*
%TO.P,J2,3,Pin_3*%
X18764000Y-27500000D03*
%TD*%
D21*
%TO.N,Board_1-Board_1-Net-(D1-K)*%
X71792000Y-48400000D03*
%TO.N,Board_1-Board_0-GND*%
X60492000Y-15100000D03*
X50992000Y-18400000D03*
X59092000Y-15100000D03*
X50992000Y-13000000D03*
X84291000Y-16700000D03*
X78192000Y-15900000D03*
X76521000Y-15900000D03*
X61892000Y-15100000D03*
X76692000Y-5500000D03*
X59092000Y-16300000D03*
X70192000Y-12600000D03*
X74792000Y-15900000D03*
X86831000Y-16700000D03*
X50992000Y-15800000D03*
X63992000Y-12600000D03*
X60492000Y-16300000D03*
X67092000Y-12600000D03*
X61892000Y-16300000D03*
%TO.N,Board_0-Board_1-Net-(D1-K)*%
X21664000Y-48400000D03*
%TO.N,Board_0-Board_0-GND*%
X8964000Y-15100000D03*
X16964000Y-12600000D03*
X10364000Y-16300000D03*
X24664000Y-15900000D03*
X864000Y-13000000D03*
X26564000Y-5500000D03*
X34163000Y-16700000D03*
X864000Y-15800000D03*
X10364000Y-15100000D03*
X8964000Y-16300000D03*
X11764000Y-16300000D03*
X20064000Y-12600000D03*
X11764000Y-15100000D03*
X26393000Y-15900000D03*
X28064000Y-15900000D03*
X864000Y-18400000D03*
X13864000Y-12600000D03*
X36703000Y-16700000D03*
%TD*%
D22*
%TO.N,Board_1-Board_1-Net-(D1-K)*%
X73567000Y-45875000D02*
X72442000Y-44750000D01*
X74192000Y-51250000D02*
X74192000Y-48400000D01*
X74192000Y-46500000D02*
X73567000Y-45875000D01*
X71792000Y-48400000D02*
X74192000Y-48400000D01*
X72442000Y-44750000D02*
X61492000Y-44750000D01*
X74192000Y-48400000D02*
X74192000Y-46500000D01*
%TO.N,Board_0-Board_1-Net-(D1-K)*%
X24064000Y-48400000D02*
X24064000Y-46500000D01*
X21664000Y-48400000D02*
X24064000Y-48400000D01*
X23439000Y-45875000D02*
X22314000Y-44750000D01*
X24064000Y-46500000D02*
X23439000Y-45875000D01*
X22314000Y-44750000D02*
X11364000Y-44750000D01*
X24064000Y-51250000D02*
X24064000Y-48400000D01*
%TD*%
%TA.AperFunction,Conductor*%
%TO.N,Board_1-Board_0-GND*%
G36*
X94187231Y-500540D02*
G01*
X94366093Y-505070D01*
X94372350Y-505387D01*
X94542902Y-518375D01*
X94549093Y-519005D01*
X94718826Y-540621D01*
X94724940Y-541558D01*
X94893347Y-571742D01*
X94899448Y-572996D01*
X95066069Y-611661D01*
X95072119Y-613227D01*
X95236559Y-660279D01*
X95242522Y-662150D01*
X95404366Y-717470D01*
X95404372Y-717472D01*
X95410262Y-719654D01*
X95415154Y-721608D01*
X95569071Y-783089D01*
X95574799Y-785546D01*
X95730268Y-856979D01*
X95735838Y-859712D01*
X95887469Y-938919D01*
X95892931Y-941951D01*
X96040335Y-1028720D01*
X96045597Y-1032000D01*
X96188438Y-1126142D01*
X96193582Y-1129723D01*
X96331445Y-1230957D01*
X96336401Y-1234793D01*
X96384411Y-1273940D01*
X96468946Y-1342869D01*
X96473703Y-1346953D01*
X96589011Y-1451129D01*
X96600595Y-1461595D01*
X96605149Y-1465924D01*
X96726064Y-1586839D01*
X96730393Y-1591393D01*
X96845043Y-1718294D01*
X96849135Y-1723060D01*
X96957204Y-1855596D01*
X96961049Y-1860564D01*
X97062266Y-1998401D01*
X97065855Y-2003557D01*
X97159962Y-2146347D01*
X97163286Y-2151680D01*
X97250039Y-2299053D01*
X97253087Y-2304545D01*
X97310796Y-2415022D01*
X97322220Y-2436892D01*
X97332263Y-2456117D01*
X97335029Y-2461754D01*
X97339155Y-2470734D01*
X97406432Y-2617157D01*
X97408909Y-2622930D01*
X97472345Y-2781738D01*
X97474525Y-2787623D01*
X97474525Y-2787625D01*
X97474527Y-2787629D01*
X97529843Y-2949460D01*
X97531724Y-2955456D01*
X97578765Y-3119859D01*
X97580339Y-3125940D01*
X97618995Y-3292522D01*
X97620260Y-3298676D01*
X97650434Y-3467027D01*
X97651380Y-3473203D01*
X97672987Y-3642855D01*
X97672987Y-3642856D01*
X97673622Y-3649105D01*
X97686609Y-3819642D01*
X97686927Y-3825916D01*
X97691460Y-4004744D01*
X97691500Y-4007886D01*
X97691500Y-28992112D01*
X97691460Y-28995254D01*
X97686927Y-29174081D01*
X97686609Y-29180355D01*
X97673622Y-29350892D01*
X97672987Y-29357131D01*
X97651381Y-29526788D01*
X97650434Y-29532970D01*
X97620260Y-29701321D01*
X97618995Y-29707475D01*
X97580339Y-29874057D01*
X97578765Y-29880138D01*
X97531724Y-30044541D01*
X97529843Y-30050537D01*
X97474527Y-30212368D01*
X97472345Y-30218259D01*
X97408909Y-30377067D01*
X97406432Y-30382840D01*
X97335031Y-30538239D01*
X97332263Y-30543880D01*
X97253087Y-30695452D01*
X97250039Y-30700944D01*
X97163286Y-30848317D01*
X97159962Y-30853650D01*
X97065855Y-30996440D01*
X97062266Y-31001596D01*
X96961049Y-31139433D01*
X96957204Y-31144401D01*
X96849135Y-31276937D01*
X96845043Y-31281703D01*
X96730393Y-31408604D01*
X96726064Y-31413158D01*
X96605149Y-31534073D01*
X96600595Y-31538402D01*
X96473712Y-31653036D01*
X96468946Y-31657128D01*
X96336414Y-31765194D01*
X96331445Y-31769040D01*
X96193582Y-31870274D01*
X96188428Y-31873862D01*
X96142870Y-31903888D01*
X96045625Y-31967978D01*
X96040302Y-31971297D01*
X95892951Y-32058035D01*
X95887461Y-32061082D01*
X95735858Y-32140275D01*
X95730235Y-32143033D01*
X95577023Y-32213430D01*
X95574838Y-32214434D01*
X95569064Y-32216911D01*
X95410262Y-32280343D01*
X95404372Y-32282525D01*
X95242544Y-32337840D01*
X95236549Y-32339721D01*
X95072135Y-32386766D01*
X95066053Y-32388340D01*
X94899475Y-32426995D01*
X94893321Y-32428260D01*
X94724970Y-32458434D01*
X94718788Y-32459381D01*
X94549132Y-32480987D01*
X94542893Y-32481622D01*
X94372354Y-32494609D01*
X94366080Y-32494927D01*
X94187255Y-32499460D01*
X94184113Y-32499500D01*
X92763961Y-32499500D01*
X92620039Y-32499500D01*
X92620036Y-32499500D01*
X92620034Y-32499501D01*
X92593842Y-32507190D01*
X92576568Y-32510948D01*
X92549544Y-32514834D01*
X92549541Y-32514835D01*
X92524710Y-32526175D01*
X92508141Y-32532355D01*
X92495171Y-32536163D01*
X92481947Y-32540047D01*
X92481945Y-32540047D01*
X92481945Y-32540048D01*
X92458982Y-32554805D01*
X92443461Y-32563280D01*
X92418628Y-32574621D01*
X92418625Y-32574623D01*
X92398000Y-32592495D01*
X92383840Y-32603095D01*
X92360876Y-32617853D01*
X92354173Y-32623662D01*
X92352074Y-32621240D01*
X92306482Y-32650499D01*
X92236612Y-32650453D01*
X92190423Y-32625212D01*
X92132043Y-32574625D01*
X92132037Y-32574622D01*
X92001122Y-32514834D01*
X91921277Y-32503355D01*
X91894465Y-32499500D01*
X91822867Y-32499500D01*
X91809460Y-32501427D01*
X91716209Y-32514834D01*
X91585294Y-32574622D01*
X91585293Y-32574623D01*
X91523201Y-32628425D01*
X91459645Y-32657449D01*
X91390486Y-32647505D01*
X91360797Y-32628424D01*
X91298710Y-32574625D01*
X91298704Y-32574622D01*
X91167789Y-32514834D01*
X91087944Y-32503355D01*
X91061132Y-32499500D01*
X90989534Y-32499500D01*
X90976127Y-32501427D01*
X90882876Y-32514834D01*
X90751961Y-32574622D01*
X90751960Y-32574623D01*
X90689868Y-32628425D01*
X90626312Y-32657449D01*
X90557153Y-32647505D01*
X90527464Y-32628424D01*
X90465377Y-32574625D01*
X90465371Y-32574622D01*
X90334456Y-32514834D01*
X90254611Y-32503355D01*
X90227799Y-32499500D01*
X90156201Y-32499500D01*
X90142794Y-32501427D01*
X90049543Y-32514834D01*
X89918628Y-32574622D01*
X89918627Y-32574623D01*
X89856535Y-32628425D01*
X89792979Y-32657449D01*
X89723820Y-32647505D01*
X89694131Y-32628425D01*
X89659367Y-32598303D01*
X89632039Y-32574623D01*
X89629845Y-32573621D01*
X89501122Y-32514834D01*
X89421277Y-32503355D01*
X89394465Y-32499500D01*
X89322867Y-32499500D01*
X89309460Y-32501427D01*
X89216209Y-32514834D01*
X89085294Y-32574622D01*
X89085293Y-32574623D01*
X89023201Y-32628425D01*
X88959645Y-32657449D01*
X88890486Y-32647505D01*
X88860797Y-32628424D01*
X88798710Y-32574625D01*
X88798704Y-32574622D01*
X88667789Y-32514834D01*
X88587944Y-32503355D01*
X88561132Y-32499500D01*
X88489534Y-32499500D01*
X88476127Y-32501427D01*
X88382876Y-32514834D01*
X88251961Y-32574622D01*
X88251960Y-32574623D01*
X88193575Y-32625213D01*
X88130019Y-32654237D01*
X88060860Y-32644293D01*
X88031196Y-32622083D01*
X88029828Y-32623663D01*
X88023123Y-32617853D01*
X88000160Y-32603095D01*
X87986000Y-32592496D01*
X87971781Y-32580176D01*
X87965373Y-32574623D01*
X87940541Y-32563282D01*
X87925019Y-32554806D01*
X87925017Y-32554805D01*
X87902053Y-32540047D01*
X87902051Y-32540046D01*
X87875858Y-32532355D01*
X87859288Y-32526174D01*
X87834457Y-32514835D01*
X87807423Y-32510947D01*
X87790154Y-32507190D01*
X87763963Y-32499500D01*
X87763961Y-32499500D01*
X87727799Y-32499500D01*
X84763961Y-32499500D01*
X84620039Y-32499500D01*
X84620036Y-32499500D01*
X84620034Y-32499501D01*
X84593842Y-32507190D01*
X84576568Y-32510948D01*
X84549544Y-32514834D01*
X84549541Y-32514835D01*
X84524710Y-32526175D01*
X84508141Y-32532355D01*
X84495171Y-32536163D01*
X84481947Y-32540047D01*
X84481945Y-32540047D01*
X84481945Y-32540048D01*
X84458982Y-32554805D01*
X84443461Y-32563280D01*
X84418628Y-32574621D01*
X84418625Y-32574623D01*
X84398000Y-32592495D01*
X84383840Y-32603095D01*
X84360876Y-32617853D01*
X84354173Y-32623662D01*
X84352074Y-32621240D01*
X84306482Y-32650499D01*
X84236612Y-32650453D01*
X84190423Y-32625212D01*
X84132043Y-32574625D01*
X84132037Y-32574622D01*
X84001122Y-32514834D01*
X83921277Y-32503355D01*
X83894465Y-32499500D01*
X83822867Y-32499500D01*
X83809460Y-32501427D01*
X83716209Y-32514834D01*
X83585294Y-32574622D01*
X83585293Y-32574623D01*
X83523201Y-32628425D01*
X83459645Y-32657449D01*
X83390486Y-32647505D01*
X83360797Y-32628424D01*
X83298710Y-32574625D01*
X83298704Y-32574622D01*
X83167789Y-32514834D01*
X83087944Y-32503355D01*
X83061132Y-32499500D01*
X82989534Y-32499500D01*
X82976127Y-32501427D01*
X82882876Y-32514834D01*
X82751961Y-32574622D01*
X82751960Y-32574623D01*
X82689868Y-32628425D01*
X82626312Y-32657449D01*
X82557153Y-32647505D01*
X82527464Y-32628424D01*
X82465377Y-32574625D01*
X82465371Y-32574622D01*
X82334456Y-32514834D01*
X82254611Y-32503355D01*
X82227799Y-32499500D01*
X82156201Y-32499500D01*
X82142794Y-32501427D01*
X82049543Y-32514834D01*
X81918628Y-32574622D01*
X81918627Y-32574623D01*
X81856535Y-32628425D01*
X81792979Y-32657449D01*
X81723820Y-32647505D01*
X81694131Y-32628425D01*
X81659367Y-32598303D01*
X81632039Y-32574623D01*
X81629845Y-32573621D01*
X81501122Y-32514834D01*
X81421277Y-32503355D01*
X81394465Y-32499500D01*
X81322867Y-32499500D01*
X81309460Y-32501427D01*
X81216209Y-32514834D01*
X81085294Y-32574622D01*
X81085293Y-32574623D01*
X81023201Y-32628425D01*
X80959645Y-32657449D01*
X80890486Y-32647505D01*
X80860797Y-32628424D01*
X80798710Y-32574625D01*
X80798704Y-32574622D01*
X80667789Y-32514834D01*
X80587944Y-32503355D01*
X80561132Y-32499500D01*
X80489534Y-32499500D01*
X80476127Y-32501427D01*
X80382876Y-32514834D01*
X80251961Y-32574622D01*
X80251960Y-32574623D01*
X80193575Y-32625213D01*
X80130019Y-32654237D01*
X80060860Y-32644293D01*
X80031196Y-32622083D01*
X80029828Y-32623663D01*
X80023123Y-32617853D01*
X80000160Y-32603095D01*
X79986000Y-32592496D01*
X79971781Y-32580176D01*
X79965373Y-32574623D01*
X79940541Y-32563282D01*
X79925019Y-32554806D01*
X79925017Y-32554805D01*
X79902053Y-32540047D01*
X79902051Y-32540046D01*
X79875858Y-32532355D01*
X79859288Y-32526174D01*
X79834457Y-32514835D01*
X79807423Y-32510947D01*
X79790154Y-32507190D01*
X79763963Y-32499500D01*
X79763961Y-32499500D01*
X79727799Y-32499500D01*
X76763961Y-32499500D01*
X76620039Y-32499500D01*
X76620036Y-32499500D01*
X76620034Y-32499501D01*
X76593842Y-32507190D01*
X76576568Y-32510948D01*
X76549544Y-32514834D01*
X76549541Y-32514835D01*
X76524710Y-32526175D01*
X76508141Y-32532355D01*
X76495171Y-32536163D01*
X76481947Y-32540047D01*
X76481945Y-32540047D01*
X76481945Y-32540048D01*
X76458982Y-32554805D01*
X76443461Y-32563280D01*
X76418628Y-32574621D01*
X76418625Y-32574623D01*
X76398000Y-32592495D01*
X76383840Y-32603095D01*
X76360876Y-32617853D01*
X76354173Y-32623662D01*
X76352074Y-32621240D01*
X76306482Y-32650499D01*
X76236612Y-32650453D01*
X76190423Y-32625212D01*
X76132043Y-32574625D01*
X76132037Y-32574622D01*
X76001122Y-32514834D01*
X75921277Y-32503355D01*
X75894465Y-32499500D01*
X75822867Y-32499500D01*
X75809460Y-32501427D01*
X75716209Y-32514834D01*
X75585294Y-32574622D01*
X75585293Y-32574623D01*
X75523201Y-32628425D01*
X75459645Y-32657449D01*
X75390486Y-32647505D01*
X75360797Y-32628424D01*
X75298710Y-32574625D01*
X75298704Y-32574622D01*
X75167789Y-32514834D01*
X75087944Y-32503355D01*
X75061132Y-32499500D01*
X74989534Y-32499500D01*
X74976127Y-32501427D01*
X74882876Y-32514834D01*
X74751961Y-32574622D01*
X74751960Y-32574623D01*
X74689868Y-32628425D01*
X74626312Y-32657449D01*
X74557153Y-32647505D01*
X74527464Y-32628424D01*
X74465377Y-32574625D01*
X74465371Y-32574622D01*
X74334456Y-32514834D01*
X74254611Y-32503355D01*
X74227799Y-32499500D01*
X74156201Y-32499500D01*
X74142794Y-32501427D01*
X74049543Y-32514834D01*
X73918628Y-32574622D01*
X73918627Y-32574623D01*
X73856535Y-32628425D01*
X73792979Y-32657449D01*
X73723820Y-32647505D01*
X73694131Y-32628424D01*
X73632044Y-32574625D01*
X73632038Y-32574622D01*
X73501123Y-32514834D01*
X73421278Y-32503355D01*
X73394466Y-32499500D01*
X73322868Y-32499500D01*
X73309461Y-32501427D01*
X73216210Y-32514834D01*
X73085295Y-32574622D01*
X73085294Y-32574623D01*
X73023202Y-32628425D01*
X72959646Y-32657449D01*
X72890487Y-32647505D01*
X72860798Y-32628424D01*
X72798711Y-32574625D01*
X72798705Y-32574622D01*
X72667790Y-32514834D01*
X72587945Y-32503355D01*
X72561133Y-32499500D01*
X72489535Y-32499500D01*
X72476128Y-32501427D01*
X72382877Y-32514834D01*
X72251962Y-32574622D01*
X72251956Y-32574625D01*
X72193574Y-32625213D01*
X72130018Y-32654237D01*
X72060859Y-32644292D01*
X72031196Y-32622083D01*
X72029828Y-32623663D01*
X72023123Y-32617853D01*
X72000160Y-32603095D01*
X71986000Y-32592496D01*
X71971781Y-32580176D01*
X71965373Y-32574623D01*
X71940541Y-32563282D01*
X71925019Y-32554806D01*
X71925017Y-32554805D01*
X71902053Y-32540047D01*
X71902051Y-32540046D01*
X71875858Y-32532355D01*
X71859288Y-32526174D01*
X71834457Y-32514835D01*
X71807423Y-32510947D01*
X71790154Y-32507190D01*
X71763963Y-32499500D01*
X71763961Y-32499500D01*
X71727799Y-32499500D01*
X68763961Y-32499500D01*
X68620039Y-32499500D01*
X68620036Y-32499500D01*
X68620034Y-32499501D01*
X68593842Y-32507190D01*
X68576568Y-32510948D01*
X68549544Y-32514834D01*
X68549541Y-32514835D01*
X68524710Y-32526175D01*
X68508141Y-32532355D01*
X68495171Y-32536163D01*
X68481947Y-32540047D01*
X68481945Y-32540047D01*
X68481945Y-32540048D01*
X68458982Y-32554805D01*
X68443461Y-32563280D01*
X68418628Y-32574621D01*
X68418625Y-32574623D01*
X68398000Y-32592495D01*
X68383840Y-32603095D01*
X68360876Y-32617853D01*
X68354173Y-32623662D01*
X68352070Y-32621235D01*
X68306526Y-32650486D01*
X68236657Y-32650466D01*
X68190424Y-32625212D01*
X68132044Y-32574625D01*
X68132038Y-32574622D01*
X68001123Y-32514834D01*
X67921278Y-32503355D01*
X67894466Y-32499500D01*
X67822868Y-32499500D01*
X67809461Y-32501427D01*
X67716210Y-32514834D01*
X67585295Y-32574622D01*
X67585294Y-32574623D01*
X67523202Y-32628425D01*
X67459646Y-32657449D01*
X67390487Y-32647505D01*
X67360798Y-32628424D01*
X67298711Y-32574625D01*
X67298705Y-32574622D01*
X67167790Y-32514834D01*
X67087945Y-32503355D01*
X67061133Y-32499500D01*
X66989535Y-32499500D01*
X66976128Y-32501427D01*
X66882877Y-32514834D01*
X66751962Y-32574622D01*
X66751961Y-32574623D01*
X66689869Y-32628425D01*
X66626313Y-32657449D01*
X66557154Y-32647505D01*
X66527465Y-32628425D01*
X66492701Y-32598303D01*
X66465373Y-32574623D01*
X66463179Y-32573621D01*
X66334456Y-32514834D01*
X66254611Y-32503355D01*
X66227799Y-32499500D01*
X66156201Y-32499500D01*
X66142794Y-32501427D01*
X66049543Y-32514834D01*
X65918628Y-32574622D01*
X65918627Y-32574623D01*
X65856535Y-32628425D01*
X65792979Y-32657449D01*
X65723820Y-32647505D01*
X65694130Y-32628423D01*
X65663407Y-32601801D01*
X65625633Y-32543023D01*
X65625633Y-32473153D01*
X65663408Y-32414375D01*
X65693329Y-32395190D01*
X65811375Y-32341571D01*
X65811380Y-32341568D01*
X65996323Y-32213440D01*
X65996335Y-32213430D01*
X66155430Y-32054335D01*
X66155440Y-32054323D01*
X66283568Y-31869380D01*
X66283571Y-31869374D01*
X66376622Y-31664519D01*
X66431599Y-31446332D01*
X66441999Y-31314196D01*
X66442000Y-31314184D01*
X66442000Y-30750000D01*
X65625686Y-30750000D01*
X65651493Y-30709844D01*
X65692000Y-30571889D01*
X65692000Y-30428111D01*
X65651493Y-30290156D01*
X65625686Y-30250000D01*
X66441999Y-30250000D01*
X66441999Y-29685817D01*
X66441998Y-29685802D01*
X66431599Y-29553667D01*
X66376622Y-29335480D01*
X66283571Y-29130625D01*
X66283568Y-29130619D01*
X66155440Y-28945676D01*
X66155430Y-28945664D01*
X65996335Y-28786569D01*
X65996323Y-28786559D01*
X65811380Y-28658431D01*
X65811374Y-28658428D01*
X65606519Y-28565377D01*
X65388332Y-28510400D01*
X65256196Y-28500000D01*
X64442000Y-28500000D01*
X64442000Y-30000000D01*
X63942000Y-30000000D01*
X63942000Y-28500000D01*
X63127817Y-28500000D01*
X63127802Y-28500001D01*
X62995667Y-28510400D01*
X62777480Y-28565377D01*
X62572625Y-28658428D01*
X62572619Y-28658431D01*
X62387676Y-28786559D01*
X62387664Y-28786569D01*
X62228569Y-28945664D01*
X62228559Y-28945676D01*
X62100431Y-29130619D01*
X62100428Y-29130625D01*
X62007377Y-29335480D01*
X61952400Y-29553667D01*
X61942000Y-29685803D01*
X61942000Y-30250000D01*
X62758314Y-30250000D01*
X62732507Y-30290156D01*
X62692000Y-30428111D01*
X62692000Y-30571889D01*
X62732507Y-30709844D01*
X62758314Y-30750000D01*
X61942001Y-30750000D01*
X61942001Y-31314197D01*
X61952400Y-31446332D01*
X62007377Y-31664519D01*
X62100428Y-31869374D01*
X62100431Y-31869380D01*
X62228559Y-32054323D01*
X62228569Y-32054335D01*
X62387664Y-32213430D01*
X62387669Y-32213434D01*
X62474472Y-32273571D01*
X62518368Y-32327930D01*
X62525908Y-32397392D01*
X62494697Y-32459903D01*
X62434645Y-32495617D01*
X62403856Y-32499500D01*
X60763961Y-32499500D01*
X60620039Y-32499500D01*
X60620036Y-32499500D01*
X60620034Y-32499501D01*
X60593842Y-32507190D01*
X60576568Y-32510948D01*
X60549544Y-32514834D01*
X60549541Y-32514835D01*
X60524710Y-32526175D01*
X60508141Y-32532355D01*
X60495171Y-32536163D01*
X60481947Y-32540047D01*
X60481945Y-32540047D01*
X60481945Y-32540048D01*
X60458982Y-32554805D01*
X60443461Y-32563280D01*
X60418628Y-32574621D01*
X60418625Y-32574623D01*
X60398000Y-32592495D01*
X60383840Y-32603095D01*
X60360876Y-32617853D01*
X60354173Y-32623662D01*
X60352070Y-32621235D01*
X60306526Y-32650486D01*
X60236657Y-32650466D01*
X60190424Y-32625212D01*
X60132044Y-32574625D01*
X60132038Y-32574622D01*
X60001123Y-32514834D01*
X59921278Y-32503355D01*
X59894466Y-32499500D01*
X59822868Y-32499500D01*
X59809461Y-32501427D01*
X59716210Y-32514834D01*
X59585295Y-32574622D01*
X59585294Y-32574623D01*
X59523202Y-32628425D01*
X59459646Y-32657449D01*
X59390487Y-32647505D01*
X59360798Y-32628424D01*
X59298711Y-32574625D01*
X59298705Y-32574622D01*
X59167790Y-32514834D01*
X59087945Y-32503355D01*
X59061133Y-32499500D01*
X58989535Y-32499500D01*
X58976128Y-32501427D01*
X58882877Y-32514834D01*
X58751962Y-32574622D01*
X58751961Y-32574623D01*
X58689869Y-32628425D01*
X58626313Y-32657449D01*
X58557154Y-32647505D01*
X58527465Y-32628425D01*
X58492701Y-32598303D01*
X58465373Y-32574623D01*
X58463179Y-32573621D01*
X58334456Y-32514834D01*
X58254611Y-32503355D01*
X58227799Y-32499500D01*
X58156201Y-32499500D01*
X58142794Y-32501427D01*
X58049543Y-32514834D01*
X57918628Y-32574622D01*
X57918627Y-32574623D01*
X57856535Y-32628425D01*
X57792979Y-32657449D01*
X57723820Y-32647505D01*
X57694131Y-32628424D01*
X57632044Y-32574625D01*
X57632038Y-32574622D01*
X57501123Y-32514834D01*
X57421278Y-32503355D01*
X57394466Y-32499500D01*
X57322868Y-32499500D01*
X57309461Y-32501427D01*
X57216210Y-32514834D01*
X57085295Y-32574622D01*
X57085294Y-32574623D01*
X57023202Y-32628425D01*
X56959646Y-32657449D01*
X56890487Y-32647505D01*
X56860798Y-32628424D01*
X56798711Y-32574625D01*
X56798705Y-32574622D01*
X56667790Y-32514834D01*
X56587945Y-32503355D01*
X56561133Y-32499500D01*
X56489535Y-32499500D01*
X56476128Y-32501427D01*
X56382877Y-32514834D01*
X56251962Y-32574622D01*
X56251956Y-32574625D01*
X56193574Y-32625213D01*
X56130018Y-32654237D01*
X56060859Y-32644292D01*
X56031196Y-32622083D01*
X56029828Y-32623663D01*
X56023123Y-32617853D01*
X56000160Y-32603095D01*
X55986000Y-32592496D01*
X55971781Y-32580176D01*
X55965373Y-32574623D01*
X55940541Y-32563282D01*
X55925019Y-32554806D01*
X55925017Y-32554805D01*
X55902053Y-32540047D01*
X55902051Y-32540046D01*
X55875858Y-32532355D01*
X55859288Y-32526174D01*
X55834457Y-32514835D01*
X55807423Y-32510947D01*
X55790154Y-32507190D01*
X55763963Y-32499500D01*
X55763961Y-32499500D01*
X55727799Y-32499500D01*
X54199887Y-32499500D01*
X54196745Y-32499460D01*
X54017916Y-32494927D01*
X54011642Y-32494609D01*
X53841105Y-32481622D01*
X53834870Y-32480988D01*
X53665203Y-32459380D01*
X53659027Y-32458434D01*
X53490676Y-32428260D01*
X53484522Y-32426995D01*
X53317940Y-32388339D01*
X53311859Y-32386765D01*
X53147456Y-32339724D01*
X53141460Y-32337843D01*
X52979629Y-32282527D01*
X52973738Y-32280345D01*
X52968846Y-32278391D01*
X52814929Y-32216908D01*
X52809157Y-32214432D01*
X52653758Y-32143031D01*
X52648117Y-32140263D01*
X52496545Y-32061087D01*
X52491053Y-32058039D01*
X52343680Y-31971286D01*
X52338347Y-31967962D01*
X52195557Y-31873855D01*
X52190401Y-31870266D01*
X52052564Y-31769049D01*
X52047596Y-31765204D01*
X51915060Y-31657135D01*
X51910294Y-31653043D01*
X51783393Y-31538393D01*
X51778839Y-31534064D01*
X51657924Y-31413149D01*
X51653595Y-31408595D01*
X51568309Y-31314196D01*
X51538953Y-31281703D01*
X51534869Y-31276946D01*
X51484360Y-31215002D01*
X51426793Y-31144401D01*
X51422957Y-31139445D01*
X51321723Y-31001582D01*
X51318147Y-30996446D01*
X51224000Y-30853597D01*
X51220720Y-30848335D01*
X51133951Y-30700931D01*
X51130915Y-30695461D01*
X51051712Y-30543838D01*
X51048979Y-30538268D01*
X50977546Y-30382799D01*
X50975086Y-30377064D01*
X50911654Y-30218262D01*
X50909472Y-30212372D01*
X50892420Y-30162484D01*
X50854150Y-30050522D01*
X50852276Y-30044549D01*
X50852274Y-30044541D01*
X50805227Y-29880119D01*
X50803657Y-29874053D01*
X50774870Y-29749998D01*
X50764996Y-29707448D01*
X50763742Y-29701347D01*
X50733558Y-29532940D01*
X50732621Y-29526826D01*
X50711005Y-29357093D01*
X50710375Y-29350893D01*
X50709318Y-29337018D01*
X50697387Y-29180350D01*
X50697070Y-29174083D01*
X50697013Y-29171848D01*
X50694377Y-29067763D01*
X52337787Y-29067763D01*
X52367413Y-29337013D01*
X52367415Y-29337024D01*
X52424053Y-29553667D01*
X52435928Y-29599088D01*
X52541870Y-29848390D01*
X52590902Y-29928731D01*
X52682979Y-30079605D01*
X52682986Y-30079615D01*
X52856253Y-30287819D01*
X52856259Y-30287824D01*
X52960439Y-30381169D01*
X53057998Y-30468582D01*
X53283910Y-30618044D01*
X53529176Y-30733020D01*
X53529183Y-30733022D01*
X53529185Y-30733023D01*
X53788557Y-30811057D01*
X53788564Y-30811058D01*
X53788569Y-30811060D01*
X54056561Y-30850500D01*
X54056566Y-30850500D01*
X54259629Y-30850500D01*
X54259631Y-30850500D01*
X54259636Y-30850499D01*
X54259648Y-30850499D01*
X54297191Y-30847750D01*
X54462156Y-30835677D01*
X54589311Y-30807352D01*
X54726546Y-30776782D01*
X54726548Y-30776781D01*
X54726553Y-30776780D01*
X54979558Y-30680014D01*
X55215777Y-30547441D01*
X55430177Y-30381888D01*
X55618186Y-30186881D01*
X55775799Y-29966579D01*
X55849787Y-29822669D01*
X55899649Y-29725690D01*
X55899651Y-29725684D01*
X55899656Y-29725675D01*
X55987118Y-29469305D01*
X56036319Y-29202933D01*
X56046212Y-28932235D01*
X56016586Y-28662982D01*
X55948072Y-28400912D01*
X55842130Y-28151610D01*
X55701018Y-27920390D01*
X55611747Y-27813119D01*
X55527746Y-27712180D01*
X55527740Y-27712175D01*
X55326002Y-27531418D01*
X55100092Y-27381957D01*
X55100090Y-27381956D01*
X54854824Y-27266980D01*
X54854819Y-27266978D01*
X54854814Y-27266976D01*
X54595442Y-27188942D01*
X54595428Y-27188939D01*
X54479791Y-27171921D01*
X54327439Y-27149500D01*
X54124369Y-27149500D01*
X54124351Y-27149500D01*
X53921844Y-27164323D01*
X53921831Y-27164325D01*
X53657453Y-27223217D01*
X53657446Y-27223220D01*
X53404439Y-27319987D01*
X53168226Y-27452557D01*
X52953822Y-27618112D01*
X52765822Y-27813109D01*
X52765816Y-27813116D01*
X52608202Y-28033419D01*
X52608199Y-28033424D01*
X52484350Y-28274309D01*
X52484343Y-28274327D01*
X52396884Y-28530685D01*
X52396881Y-28530699D01*
X52347681Y-28797068D01*
X52347680Y-28797075D01*
X52337787Y-29067763D01*
X50694377Y-29067763D01*
X50692540Y-28995231D01*
X50692500Y-28992091D01*
X50692500Y-26297870D01*
X61941500Y-26297870D01*
X61941501Y-26297876D01*
X61947908Y-26357483D01*
X61998202Y-26492328D01*
X61998206Y-26492335D01*
X62084452Y-26607544D01*
X62084455Y-26607547D01*
X62199664Y-26693793D01*
X62199671Y-26693797D01*
X62334517Y-26744091D01*
X62334516Y-26744091D01*
X62341444Y-26744835D01*
X62394127Y-26750500D01*
X65989872Y-26750499D01*
X66049483Y-26744091D01*
X66184331Y-26693796D01*
X66299546Y-26607546D01*
X66385796Y-26492331D01*
X66404012Y-26443491D01*
X66445880Y-26387560D01*
X66511344Y-26363141D01*
X66579617Y-26377991D01*
X66629024Y-26427396D01*
X66644018Y-26493401D01*
X66642001Y-26531374D01*
X66642000Y-26531421D01*
X66642000Y-27250000D01*
X68392000Y-27250000D01*
X68392000Y-27750000D01*
X66642001Y-27750000D01*
X66642001Y-28468588D01*
X66644794Y-28521191D01*
X66689237Y-28750987D01*
X66771879Y-28969975D01*
X66890339Y-29171841D01*
X66890344Y-29171848D01*
X67041211Y-29350786D01*
X67041213Y-29350788D01*
X67220151Y-29501655D01*
X67220158Y-29501660D01*
X67422024Y-29620120D01*
X67641012Y-29702762D01*
X67870809Y-29747205D01*
X67923382Y-29749998D01*
X67923421Y-29749999D01*
X68641999Y-29749999D01*
X68642000Y-29749998D01*
X68642000Y-28933686D01*
X68682156Y-28959493D01*
X68820111Y-29000000D01*
X68963889Y-29000000D01*
X69101844Y-28959493D01*
X69142000Y-28933686D01*
X69142000Y-29749999D01*
X69860576Y-29749999D01*
X69860588Y-29749998D01*
X69913191Y-29747205D01*
X70142987Y-29702762D01*
X70361975Y-29620120D01*
X70563841Y-29501660D01*
X70563848Y-29501655D01*
X70742786Y-29350788D01*
X70742788Y-29350786D01*
X70893655Y-29171848D01*
X70893660Y-29171841D01*
X71012120Y-28969975D01*
X71094762Y-28750987D01*
X71139205Y-28521191D01*
X71139205Y-28521190D01*
X71140330Y-28500015D01*
X82491500Y-28500015D01*
X82502000Y-28602795D01*
X82502001Y-28602796D01*
X82557186Y-28769335D01*
X82557187Y-28769337D01*
X82649286Y-28918651D01*
X82649289Y-28918655D01*
X82773344Y-29042710D01*
X82773348Y-29042713D01*
X82922662Y-29134812D01*
X82922664Y-29134813D01*
X82922666Y-29134814D01*
X83089203Y-29189999D01*
X83191992Y-29200500D01*
X83191997Y-29200500D01*
X85192003Y-29200500D01*
X85192008Y-29200500D01*
X85294797Y-29189999D01*
X85461334Y-29134814D01*
X85610655Y-29042711D01*
X85734711Y-28918655D01*
X85826814Y-28769334D01*
X85881999Y-28602797D01*
X85892500Y-28500008D01*
X85892500Y-27500004D01*
X86447233Y-27500004D01*
X86466273Y-27754079D01*
X86522968Y-28002477D01*
X86522973Y-28002494D01*
X86616058Y-28239671D01*
X86616057Y-28239671D01*
X86743454Y-28460327D01*
X86743461Y-28460338D01*
X86785452Y-28512991D01*
X86785453Y-28512992D01*
X87511859Y-27786586D01*
X87571680Y-27900566D01*
X87684405Y-28027806D01*
X87824305Y-28124371D01*
X87865542Y-28140010D01*
X87138813Y-28866738D01*
X87299616Y-28976371D01*
X87299624Y-28976376D01*
X87529176Y-29086921D01*
X87529174Y-29086921D01*
X87772652Y-29162024D01*
X87772658Y-29162026D01*
X88024595Y-29199999D01*
X88024604Y-29200000D01*
X88279396Y-29200000D01*
X88279404Y-29199999D01*
X88531341Y-29162026D01*
X88531347Y-29162024D01*
X88774824Y-29086921D01*
X88814607Y-29067763D01*
X92337787Y-29067763D01*
X92367413Y-29337013D01*
X92367415Y-29337024D01*
X92424053Y-29553667D01*
X92435928Y-29599088D01*
X92541870Y-29848390D01*
X92590902Y-29928731D01*
X92682979Y-30079605D01*
X92682986Y-30079615D01*
X92856253Y-30287819D01*
X92856259Y-30287824D01*
X92960439Y-30381169D01*
X93057998Y-30468582D01*
X93283910Y-30618044D01*
X93529176Y-30733020D01*
X93529183Y-30733022D01*
X93529185Y-30733023D01*
X93788557Y-30811057D01*
X93788564Y-30811058D01*
X93788569Y-30811060D01*
X94056561Y-30850500D01*
X94056566Y-30850500D01*
X94259629Y-30850500D01*
X94259631Y-30850500D01*
X94259636Y-30850499D01*
X94259648Y-30850499D01*
X94297191Y-30847750D01*
X94462156Y-30835677D01*
X94589311Y-30807352D01*
X94726546Y-30776782D01*
X94726548Y-30776781D01*
X94726553Y-30776780D01*
X94979558Y-30680014D01*
X95215777Y-30547441D01*
X95430177Y-30381888D01*
X95618186Y-30186881D01*
X95775799Y-29966579D01*
X95849787Y-29822669D01*
X95899649Y-29725690D01*
X95899651Y-29725684D01*
X95899656Y-29725675D01*
X95987118Y-29469305D01*
X96036319Y-29202933D01*
X96046212Y-28932235D01*
X96016586Y-28662982D01*
X95948072Y-28400912D01*
X95842130Y-28151610D01*
X95701018Y-27920390D01*
X95611747Y-27813119D01*
X95527746Y-27712180D01*
X95527740Y-27712175D01*
X95326002Y-27531418D01*
X95100092Y-27381957D01*
X95100090Y-27381956D01*
X94854824Y-27266980D01*
X94854819Y-27266978D01*
X94854814Y-27266976D01*
X94595442Y-27188942D01*
X94595428Y-27188939D01*
X94479791Y-27171921D01*
X94327439Y-27149500D01*
X94124369Y-27149500D01*
X94124351Y-27149500D01*
X93921844Y-27164323D01*
X93921831Y-27164325D01*
X93657453Y-27223217D01*
X93657446Y-27223220D01*
X93404439Y-27319987D01*
X93168226Y-27452557D01*
X92953822Y-27618112D01*
X92765822Y-27813109D01*
X92765816Y-27813116D01*
X92608202Y-28033419D01*
X92608199Y-28033424D01*
X92484350Y-28274309D01*
X92484343Y-28274327D01*
X92396884Y-28530685D01*
X92396881Y-28530699D01*
X92347681Y-28797068D01*
X92347680Y-28797075D01*
X92337787Y-29067763D01*
X88814607Y-29067763D01*
X89004376Y-28976376D01*
X89004377Y-28976375D01*
X89165185Y-28866738D01*
X88438457Y-28140010D01*
X88479695Y-28124371D01*
X88619595Y-28027806D01*
X88732320Y-27900566D01*
X88792139Y-27786587D01*
X89518544Y-28512992D01*
X89518546Y-28512991D01*
X89560544Y-28460330D01*
X89687941Y-28239671D01*
X89781026Y-28002494D01*
X89781031Y-28002477D01*
X89837726Y-27754079D01*
X89856767Y-27500004D01*
X89856767Y-27499995D01*
X89837726Y-27245920D01*
X89781031Y-26997522D01*
X89781026Y-26997505D01*
X89687941Y-26760328D01*
X89687942Y-26760328D01*
X89560545Y-26539672D01*
X89518545Y-26487006D01*
X88792139Y-27213412D01*
X88732320Y-27099434D01*
X88619595Y-26972194D01*
X88479695Y-26875629D01*
X88438457Y-26859989D01*
X89165185Y-26133260D01*
X89004384Y-26023628D01*
X89004376Y-26023623D01*
X88774823Y-25913078D01*
X88774825Y-25913078D01*
X88531347Y-25837975D01*
X88531341Y-25837973D01*
X88279404Y-25800000D01*
X88024595Y-25800000D01*
X87772658Y-25837973D01*
X87772652Y-25837975D01*
X87529175Y-25913078D01*
X87299622Y-26023625D01*
X87299609Y-26023632D01*
X87138813Y-26133259D01*
X87865543Y-26859989D01*
X87824305Y-26875629D01*
X87684405Y-26972194D01*
X87571680Y-27099434D01*
X87511859Y-27213413D01*
X86785452Y-26487006D01*
X86743457Y-26539667D01*
X86616058Y-26760328D01*
X86522973Y-26997505D01*
X86522968Y-26997522D01*
X86466273Y-27245920D01*
X86447233Y-27499995D01*
X86447233Y-27500004D01*
X85892500Y-27500004D01*
X85892500Y-26499992D01*
X85881999Y-26397203D01*
X85826814Y-26230666D01*
X85824491Y-26226900D01*
X85734713Y-26081348D01*
X85734710Y-26081344D01*
X85610655Y-25957289D01*
X85610651Y-25957286D01*
X85461337Y-25865187D01*
X85461335Y-25865186D01*
X85349570Y-25828151D01*
X85294797Y-25810001D01*
X85294795Y-25810000D01*
X85192015Y-25799500D01*
X85192008Y-25799500D01*
X83191992Y-25799500D01*
X83191984Y-25799500D01*
X83089204Y-25810000D01*
X83089203Y-25810001D01*
X82922664Y-25865186D01*
X82922662Y-25865187D01*
X82773348Y-25957286D01*
X82773344Y-25957289D01*
X82649289Y-26081344D01*
X82649286Y-26081348D01*
X82557187Y-26230662D01*
X82557186Y-26230664D01*
X82502001Y-26397203D01*
X82502000Y-26397204D01*
X82491500Y-26499984D01*
X82491500Y-28500015D01*
X71140330Y-28500015D01*
X71141998Y-28468617D01*
X71142000Y-28468578D01*
X71142000Y-27750000D01*
X69392000Y-27750000D01*
X69392000Y-27250000D01*
X71141999Y-27250000D01*
X71141999Y-26531423D01*
X71141998Y-26531411D01*
X71139205Y-26478808D01*
X71094762Y-26249012D01*
X71012120Y-26030024D01*
X70893660Y-25828158D01*
X70893655Y-25828151D01*
X70742788Y-25649213D01*
X70742786Y-25649211D01*
X70563848Y-25498344D01*
X70563841Y-25498339D01*
X70361975Y-25379879D01*
X70142987Y-25297237D01*
X69913190Y-25252794D01*
X69860617Y-25250001D01*
X69860579Y-25250000D01*
X69142000Y-25250000D01*
X69142000Y-26066313D01*
X69101844Y-26040507D01*
X68963889Y-26000000D01*
X68820111Y-26000000D01*
X68682156Y-26040507D01*
X68642000Y-26066313D01*
X68642000Y-25250000D01*
X67923423Y-25250000D01*
X67923411Y-25250001D01*
X67870808Y-25252794D01*
X67641012Y-25297237D01*
X67422024Y-25379879D01*
X67220158Y-25498339D01*
X67220151Y-25498344D01*
X67041213Y-25649211D01*
X67041211Y-25649213D01*
X66890344Y-25828151D01*
X66890339Y-25828158D01*
X66771879Y-26030024D01*
X66689236Y-26249014D01*
X66688241Y-26254161D01*
X66656179Y-26316240D01*
X66595644Y-26351130D01*
X66525856Y-26347754D01*
X66468972Y-26307184D01*
X66443052Y-26242300D01*
X66442499Y-26230624D01*
X66442499Y-22702128D01*
X66436091Y-22642517D01*
X66417732Y-22593295D01*
X66385797Y-22507671D01*
X66385793Y-22507664D01*
X66299547Y-22392455D01*
X66299544Y-22392452D01*
X66184335Y-22306206D01*
X66184328Y-22306202D01*
X66049482Y-22255908D01*
X66049483Y-22255908D01*
X65989883Y-22249501D01*
X65989881Y-22249500D01*
X65989873Y-22249500D01*
X65989864Y-22249500D01*
X62394129Y-22249500D01*
X62394123Y-22249501D01*
X62334516Y-22255908D01*
X62199671Y-22306202D01*
X62199664Y-22306206D01*
X62084455Y-22392452D01*
X62084452Y-22392455D01*
X61998206Y-22507664D01*
X61998202Y-22507671D01*
X61947908Y-22642517D01*
X61941501Y-22702116D01*
X61941501Y-22702123D01*
X61941500Y-22702135D01*
X61941500Y-26297870D01*
X50692500Y-26297870D01*
X50692500Y-24449373D01*
X50692499Y-24449371D01*
X50692448Y-24449193D01*
X50684811Y-24423184D01*
X50681050Y-24405896D01*
X50677165Y-24378879D01*
X50677165Y-24378876D01*
X50677163Y-24378871D01*
X50665826Y-24354046D01*
X50659643Y-24337469D01*
X50651953Y-24311281D01*
X50651953Y-24311279D01*
X50637192Y-24288311D01*
X50628714Y-24272784D01*
X50628005Y-24271232D01*
X50617377Y-24247960D01*
X50599500Y-24227329D01*
X50588905Y-24213177D01*
X50574143Y-24190205D01*
X50574142Y-24190204D01*
X50553510Y-24172325D01*
X50541006Y-24159821D01*
X50523128Y-24139190D01*
X50523123Y-24139186D01*
X50501775Y-24125466D01*
X50456021Y-24072662D01*
X50446078Y-24003503D01*
X50475104Y-23939948D01*
X50487614Y-23927439D01*
X50574143Y-23852462D01*
X50651953Y-23731387D01*
X50692500Y-23593295D01*
X50692500Y-23449373D01*
X50651953Y-23311281D01*
X50574143Y-23190206D01*
X50487403Y-23115046D01*
X50449629Y-23056270D01*
X50449629Y-22986400D01*
X50487403Y-22927622D01*
X50487404Y-22927621D01*
X50574143Y-22852462D01*
X50651953Y-22731387D01*
X50692500Y-22593295D01*
X50692500Y-22449373D01*
X50651953Y-22311281D01*
X50574143Y-22190206D01*
X50487611Y-22115226D01*
X50449837Y-22056448D01*
X50449837Y-21986578D01*
X50487611Y-21927800D01*
X50501772Y-21917199D01*
X50523128Y-21903476D01*
X50540999Y-21882850D01*
X50553513Y-21870337D01*
X50574143Y-21852462D01*
X50588907Y-21829486D01*
X50599502Y-21815333D01*
X50617377Y-21794706D01*
X50628716Y-21769873D01*
X50637187Y-21754361D01*
X50651953Y-21731387D01*
X50659644Y-21705188D01*
X50665824Y-21688620D01*
X50677165Y-21663790D01*
X50681051Y-21636757D01*
X50684807Y-21619492D01*
X50692500Y-21593295D01*
X50692500Y-21449373D01*
X50692500Y-21449372D01*
X50692500Y-15184000D01*
X93436341Y-15184000D01*
X93456936Y-15419403D01*
X93456938Y-15419413D01*
X93518094Y-15647655D01*
X93518096Y-15647659D01*
X93518097Y-15647663D01*
X93617965Y-15861830D01*
X93617967Y-15861834D01*
X93726281Y-16016521D01*
X93753501Y-16055396D01*
X93753506Y-16055402D01*
X93875818Y-16177714D01*
X93909303Y-16239037D01*
X93904319Y-16308729D01*
X93862447Y-16364662D01*
X93831471Y-16381577D01*
X93699912Y-16430646D01*
X93699906Y-16430649D01*
X93584812Y-16516809D01*
X93584809Y-16516812D01*
X93498649Y-16631906D01*
X93498645Y-16631913D01*
X93448403Y-16766620D01*
X93448401Y-16766627D01*
X93442000Y-16826155D01*
X93442000Y-17474000D01*
X94358314Y-17474000D01*
X94332507Y-17514156D01*
X94292000Y-17652111D01*
X94292000Y-17795889D01*
X94332507Y-17933844D01*
X94358314Y-17974000D01*
X93442000Y-17974000D01*
X93442000Y-18621844D01*
X93448401Y-18681372D01*
X93448403Y-18681379D01*
X93498645Y-18816086D01*
X93498649Y-18816093D01*
X93584809Y-18931187D01*
X93584812Y-18931190D01*
X93699906Y-19017350D01*
X93699913Y-19017354D01*
X93834620Y-19067596D01*
X93834627Y-19067598D01*
X93894155Y-19073999D01*
X93894172Y-19074000D01*
X94542000Y-19074000D01*
X94542000Y-18159501D01*
X94649685Y-18208680D01*
X94756237Y-18224000D01*
X94827763Y-18224000D01*
X94934315Y-18208680D01*
X95042000Y-18159501D01*
X95042000Y-19074000D01*
X95689828Y-19074000D01*
X95689844Y-19073999D01*
X95749372Y-19067598D01*
X95749379Y-19067596D01*
X95884086Y-19017354D01*
X95884093Y-19017350D01*
X95999187Y-18931190D01*
X95999190Y-18931187D01*
X96085350Y-18816093D01*
X96085354Y-18816086D01*
X96135596Y-18681379D01*
X96135598Y-18681372D01*
X96141999Y-18621844D01*
X96142000Y-18621827D01*
X96142000Y-17974000D01*
X95225686Y-17974000D01*
X95251493Y-17933844D01*
X95292000Y-17795889D01*
X95292000Y-17652111D01*
X95251493Y-17514156D01*
X95225686Y-17474000D01*
X96142000Y-17474000D01*
X96142000Y-16826172D01*
X96141999Y-16826155D01*
X96135598Y-16766627D01*
X96135596Y-16766620D01*
X96085354Y-16631913D01*
X96085350Y-16631906D01*
X95999190Y-16516812D01*
X95999187Y-16516809D01*
X95884093Y-16430649D01*
X95884088Y-16430646D01*
X95752528Y-16381577D01*
X95696595Y-16339705D01*
X95672178Y-16274241D01*
X95687030Y-16205968D01*
X95708175Y-16177720D01*
X95830495Y-16055401D01*
X95966035Y-15861830D01*
X96065903Y-15647663D01*
X96127063Y-15419408D01*
X96147659Y-15184000D01*
X96127063Y-14948592D01*
X96065903Y-14720337D01*
X95966035Y-14506171D01*
X95830495Y-14312599D01*
X95830494Y-14312597D01*
X95663402Y-14145506D01*
X95663395Y-14145501D01*
X95469834Y-14009967D01*
X95469830Y-14009965D01*
X95469828Y-14009964D01*
X95255663Y-13910097D01*
X95255659Y-13910096D01*
X95255655Y-13910094D01*
X95027413Y-13848938D01*
X95027403Y-13848936D01*
X94792001Y-13828341D01*
X94791999Y-13828341D01*
X94556596Y-13848936D01*
X94556586Y-13848938D01*
X94328344Y-13910094D01*
X94328335Y-13910098D01*
X94114171Y-14009964D01*
X94114169Y-14009965D01*
X93920597Y-14145505D01*
X93753505Y-14312597D01*
X93617965Y-14506169D01*
X93617964Y-14506171D01*
X93518098Y-14720335D01*
X93518094Y-14720344D01*
X93456938Y-14948586D01*
X93456936Y-14948596D01*
X93436341Y-15183999D01*
X93436341Y-15184000D01*
X50692500Y-15184000D01*
X50692500Y-12974867D01*
X50692500Y-12938706D01*
X50692500Y-12938705D01*
X50692500Y-12938704D01*
X50684811Y-12912521D01*
X50681049Y-12895226D01*
X50677165Y-12868210D01*
X50677164Y-12868207D01*
X50665826Y-12843379D01*
X50659643Y-12826802D01*
X50651953Y-12800614D01*
X50651953Y-12800612D01*
X50637192Y-12777644D01*
X50628714Y-12762117D01*
X50628005Y-12760565D01*
X50617377Y-12737293D01*
X50599500Y-12716662D01*
X50588905Y-12702510D01*
X50574143Y-12679538D01*
X50574142Y-12679537D01*
X50553510Y-12661658D01*
X50541006Y-12649154D01*
X50523128Y-12628523D01*
X50523123Y-12628519D01*
X50501775Y-12614799D01*
X50456021Y-12561995D01*
X50446078Y-12492836D01*
X50475104Y-12429281D01*
X50487614Y-12416772D01*
X50574143Y-12341795D01*
X50651953Y-12220720D01*
X50692500Y-12082628D01*
X50692500Y-11938706D01*
X50651953Y-11800614D01*
X50574143Y-11679539D01*
X50487403Y-11604379D01*
X50449629Y-11545603D01*
X50449629Y-11475733D01*
X50487403Y-11416955D01*
X50487404Y-11416954D01*
X50574143Y-11341795D01*
X50651953Y-11220720D01*
X50692500Y-11082628D01*
X50692500Y-10938706D01*
X50651953Y-10800614D01*
X50574143Y-10679539D01*
X50487611Y-10604559D01*
X50449837Y-10545781D01*
X50449837Y-10475911D01*
X50487611Y-10417133D01*
X50501772Y-10406532D01*
X50523128Y-10392809D01*
X50540999Y-10372183D01*
X50553513Y-10359670D01*
X50574143Y-10341795D01*
X50588907Y-10318819D01*
X50599502Y-10304666D01*
X50617377Y-10284039D01*
X50628716Y-10259206D01*
X50637187Y-10243694D01*
X50651953Y-10220720D01*
X50659644Y-10194521D01*
X50665824Y-10177953D01*
X50677165Y-10153123D01*
X50681051Y-10126090D01*
X50684807Y-10108825D01*
X50692500Y-10082628D01*
X50692500Y-9938706D01*
X50692500Y-9938705D01*
X50692500Y-7429000D01*
X59440341Y-7429000D01*
X59460936Y-7664403D01*
X59460938Y-7664413D01*
X59522094Y-7892655D01*
X59522096Y-7892659D01*
X59522097Y-7892663D01*
X59621965Y-8106830D01*
X59621967Y-8106834D01*
X59730281Y-8261521D01*
X59757505Y-8300401D01*
X59924599Y-8467495D01*
X60021384Y-8535265D01*
X60118165Y-8603032D01*
X60118167Y-8603033D01*
X60118170Y-8603035D01*
X60332337Y-8702903D01*
X60560592Y-8764063D01*
X60748918Y-8780539D01*
X60795999Y-8784659D01*
X60796000Y-8784659D01*
X60796001Y-8784659D01*
X60835234Y-8781226D01*
X61031408Y-8764063D01*
X61259663Y-8702903D01*
X61473830Y-8603035D01*
X61667401Y-8467495D01*
X61834495Y-8300401D01*
X61970035Y-8106830D01*
X62069903Y-7892663D01*
X62131063Y-7664408D01*
X62151659Y-7429000D01*
X62131063Y-7193592D01*
X62069903Y-6965337D01*
X61970035Y-6751171D01*
X61834495Y-6557599D01*
X61834494Y-6557597D01*
X61667402Y-6390506D01*
X61667401Y-6390505D01*
X61481405Y-6260269D01*
X61437781Y-6205692D01*
X61430588Y-6136193D01*
X61462110Y-6073839D01*
X61481405Y-6057119D01*
X61667082Y-5927105D01*
X61834105Y-5760082D01*
X61969600Y-5566578D01*
X62069429Y-5352492D01*
X62069432Y-5352486D01*
X62126636Y-5139000D01*
X61229686Y-5139000D01*
X61255493Y-5098844D01*
X61296000Y-4960889D01*
X61296000Y-4817111D01*
X61255493Y-4679156D01*
X61229686Y-4639000D01*
X62126636Y-4639000D01*
X62126635Y-4638999D01*
X62069432Y-4425513D01*
X62069429Y-4425507D01*
X61969600Y-4211422D01*
X61969599Y-4211420D01*
X61869009Y-4067763D01*
X92337787Y-4067763D01*
X92367413Y-4337013D01*
X92367415Y-4337024D01*
X92425239Y-4558202D01*
X92435928Y-4599088D01*
X92541870Y-4848390D01*
X92613998Y-4966575D01*
X92682979Y-5079605D01*
X92682986Y-5079615D01*
X92856253Y-5287819D01*
X92856259Y-5287824D01*
X93057998Y-5468582D01*
X93283910Y-5618044D01*
X93529176Y-5733020D01*
X93529183Y-5733022D01*
X93529185Y-5733023D01*
X93788557Y-5811057D01*
X93788564Y-5811058D01*
X93788569Y-5811060D01*
X94056561Y-5850500D01*
X94056566Y-5850500D01*
X94259629Y-5850500D01*
X94259631Y-5850500D01*
X94259636Y-5850499D01*
X94259648Y-5850499D01*
X94297191Y-5847750D01*
X94462156Y-5835677D01*
X94574758Y-5810593D01*
X94726546Y-5776782D01*
X94726548Y-5776781D01*
X94726553Y-5776780D01*
X94979558Y-5680014D01*
X95215777Y-5547441D01*
X95430177Y-5381888D01*
X95618186Y-5186881D01*
X95775799Y-4966579D01*
X95852646Y-4817111D01*
X95899649Y-4725690D01*
X95899651Y-4725684D01*
X95899656Y-4725675D01*
X95987118Y-4469305D01*
X96036319Y-4202933D01*
X96046212Y-3932235D01*
X96016586Y-3662982D01*
X95948072Y-3400912D01*
X95842130Y-3151610D01*
X95701018Y-2920390D01*
X95679158Y-2894122D01*
X95527746Y-2712180D01*
X95527740Y-2712175D01*
X95326002Y-2531418D01*
X95100092Y-2381957D01*
X95100090Y-2381956D01*
X94854824Y-2266980D01*
X94854819Y-2266978D01*
X94854814Y-2266976D01*
X94595442Y-2188942D01*
X94595428Y-2188939D01*
X94479791Y-2171921D01*
X94327439Y-2149500D01*
X94124369Y-2149500D01*
X94124351Y-2149500D01*
X93921844Y-2164323D01*
X93921831Y-2164325D01*
X93657453Y-2223217D01*
X93657446Y-2223220D01*
X93404439Y-2319987D01*
X93168226Y-2452557D01*
X93168224Y-2452558D01*
X93168223Y-2452559D01*
X93105893Y-2500688D01*
X92953822Y-2618112D01*
X92765822Y-2813109D01*
X92765816Y-2813116D01*
X92608202Y-3033419D01*
X92608199Y-3033424D01*
X92484350Y-3274309D01*
X92484343Y-3274327D01*
X92396884Y-3530685D01*
X92396882Y-3530695D01*
X92348046Y-3795094D01*
X92347681Y-3797068D01*
X92347680Y-3797075D01*
X92337787Y-4067763D01*
X61869009Y-4067763D01*
X61834113Y-4017926D01*
X61834108Y-4017920D01*
X61712053Y-3895865D01*
X61678568Y-3834542D01*
X61683552Y-3764850D01*
X61725424Y-3708917D01*
X61756400Y-3692002D01*
X61871416Y-3649105D01*
X61888326Y-3642798D01*
X61888326Y-3642797D01*
X61888331Y-3642796D01*
X62003546Y-3556546D01*
X62089796Y-3441331D01*
X62140091Y-3306483D01*
X62146500Y-3246873D01*
X62146499Y-1451128D01*
X62140091Y-1391517D01*
X62122685Y-1344850D01*
X62089797Y-1256671D01*
X62089793Y-1256664D01*
X62003547Y-1141455D01*
X62003544Y-1141452D01*
X61888335Y-1055206D01*
X61888328Y-1055202D01*
X61753482Y-1004908D01*
X61753483Y-1004908D01*
X61693883Y-998501D01*
X61693881Y-998500D01*
X61693873Y-998500D01*
X61693864Y-998500D01*
X59898129Y-998500D01*
X59898123Y-998501D01*
X59838516Y-1004908D01*
X59703671Y-1055202D01*
X59703664Y-1055206D01*
X59588455Y-1141452D01*
X59588452Y-1141455D01*
X59502206Y-1256664D01*
X59502202Y-1256671D01*
X59451908Y-1391517D01*
X59445885Y-1447547D01*
X59445501Y-1451123D01*
X59445500Y-1451135D01*
X59445500Y-3246870D01*
X59445501Y-3246876D01*
X59451908Y-3306483D01*
X59502202Y-3441328D01*
X59502206Y-3441335D01*
X59588452Y-3556544D01*
X59588455Y-3556547D01*
X59703664Y-3642793D01*
X59703671Y-3642797D01*
X59757801Y-3662986D01*
X59835598Y-3692002D01*
X59891531Y-3733873D01*
X59915949Y-3799337D01*
X59901098Y-3867610D01*
X59879947Y-3895865D01*
X59757886Y-4017926D01*
X59622400Y-4211420D01*
X59622399Y-4211422D01*
X59522570Y-4425507D01*
X59522567Y-4425513D01*
X59465364Y-4638999D01*
X59465364Y-4639000D01*
X60362314Y-4639000D01*
X60336507Y-4679156D01*
X60296000Y-4817111D01*
X60296000Y-4960889D01*
X60336507Y-5098844D01*
X60362314Y-5139000D01*
X59465364Y-5139000D01*
X59522567Y-5352486D01*
X59522570Y-5352492D01*
X59622399Y-5566578D01*
X59757894Y-5760082D01*
X59924917Y-5927105D01*
X60110595Y-6057119D01*
X60154219Y-6111696D01*
X60161412Y-6181195D01*
X60129890Y-6243549D01*
X60110595Y-6260269D01*
X59924594Y-6390508D01*
X59757505Y-6557597D01*
X59621965Y-6751169D01*
X59621964Y-6751171D01*
X59522098Y-6965335D01*
X59522094Y-6965344D01*
X59460938Y-7193586D01*
X59460936Y-7193596D01*
X59440341Y-7428999D01*
X59440341Y-7429000D01*
X50692500Y-7429000D01*
X50692500Y-4067763D01*
X52337787Y-4067763D01*
X52367413Y-4337013D01*
X52367415Y-4337024D01*
X52425239Y-4558202D01*
X52435928Y-4599088D01*
X52541870Y-4848390D01*
X52613998Y-4966575D01*
X52682979Y-5079605D01*
X52682986Y-5079615D01*
X52856253Y-5287819D01*
X52856259Y-5287824D01*
X53057998Y-5468582D01*
X53283910Y-5618044D01*
X53529176Y-5733020D01*
X53529183Y-5733022D01*
X53529185Y-5733023D01*
X53788557Y-5811057D01*
X53788564Y-5811058D01*
X53788569Y-5811060D01*
X54056561Y-5850500D01*
X54056566Y-5850500D01*
X54259629Y-5850500D01*
X54259631Y-5850500D01*
X54259636Y-5850499D01*
X54259648Y-5850499D01*
X54297191Y-5847750D01*
X54462156Y-5835677D01*
X54574758Y-5810593D01*
X54726546Y-5776782D01*
X54726548Y-5776781D01*
X54726553Y-5776780D01*
X54979558Y-5680014D01*
X55215777Y-5547441D01*
X55430177Y-5381888D01*
X55618186Y-5186881D01*
X55775799Y-4966579D01*
X55852646Y-4817111D01*
X55899649Y-4725690D01*
X55899651Y-4725684D01*
X55899656Y-4725675D01*
X55987118Y-4469305D01*
X56036319Y-4202933D01*
X56046212Y-3932235D01*
X56016586Y-3662982D01*
X55948072Y-3400912D01*
X55842130Y-3151610D01*
X55701018Y-2920390D01*
X55679158Y-2894122D01*
X55527746Y-2712180D01*
X55527740Y-2712175D01*
X55326002Y-2531418D01*
X55100092Y-2381957D01*
X55100090Y-2381956D01*
X54854824Y-2266980D01*
X54854819Y-2266978D01*
X54854814Y-2266976D01*
X54595442Y-2188942D01*
X54595428Y-2188939D01*
X54479791Y-2171921D01*
X54327439Y-2149500D01*
X54124369Y-2149500D01*
X54124351Y-2149500D01*
X53921844Y-2164323D01*
X53921831Y-2164325D01*
X53657453Y-2223217D01*
X53657446Y-2223220D01*
X53404439Y-2319987D01*
X53168226Y-2452557D01*
X53168224Y-2452558D01*
X53168223Y-2452559D01*
X53105893Y-2500688D01*
X52953822Y-2618112D01*
X52765822Y-2813109D01*
X52765816Y-2813116D01*
X52608202Y-3033419D01*
X52608199Y-3033424D01*
X52484350Y-3274309D01*
X52484343Y-3274327D01*
X52396884Y-3530685D01*
X52396882Y-3530695D01*
X52348046Y-3795094D01*
X52347681Y-3797068D01*
X52347680Y-3797075D01*
X52337787Y-4067763D01*
X50692500Y-4067763D01*
X50692500Y-4007886D01*
X50692540Y-4004767D01*
X50692821Y-3993664D01*
X50697070Y-3825902D01*
X50697388Y-3819638D01*
X50698290Y-3807793D01*
X50710376Y-3649091D01*
X50711004Y-3642908D01*
X50732622Y-3473165D01*
X50733557Y-3467062D01*
X50763743Y-3298642D01*
X50764994Y-3292557D01*
X50803663Y-3125918D01*
X50805224Y-3119887D01*
X50852282Y-2955426D01*
X50854146Y-2949486D01*
X50909478Y-2787607D01*
X50911654Y-2781735D01*
X50939439Y-2712175D01*
X50975095Y-2622911D01*
X50977540Y-2617212D01*
X51048986Y-2461714D01*
X51051704Y-2456174D01*
X51130928Y-2304511D01*
X51133941Y-2299083D01*
X51220731Y-2151644D01*
X51223989Y-2146417D01*
X51318159Y-2003533D01*
X51321723Y-1998415D01*
X51336088Y-1978851D01*
X51422964Y-1860542D01*
X51426780Y-1855611D01*
X51534893Y-1723022D01*
X51538936Y-1718313D01*
X51653613Y-1591382D01*
X51657904Y-1586868D01*
X51778859Y-1465913D01*
X51783393Y-1461604D01*
X51910294Y-1346954D01*
X51915060Y-1342862D01*
X52047610Y-1234782D01*
X52052549Y-1230958D01*
X52190426Y-1129713D01*
X52195532Y-1126159D01*
X52338365Y-1032023D01*
X52343680Y-1028711D01*
X52491053Y-941958D01*
X52496536Y-938915D01*
X52648152Y-859716D01*
X52653722Y-856983D01*
X52809190Y-785550D01*
X52814895Y-783102D01*
X52973779Y-719636D01*
X52979588Y-717484D01*
X53141492Y-662143D01*
X53147434Y-660279D01*
X53311873Y-613228D01*
X53317914Y-611664D01*
X53484557Y-572994D01*
X53490642Y-571743D01*
X53659062Y-541557D01*
X53665165Y-540622D01*
X53834908Y-519004D01*
X53841092Y-518376D01*
X54011649Y-505387D01*
X54017902Y-505070D01*
X54196768Y-500540D01*
X54199908Y-500500D01*
X94184091Y-500500D01*
X94187231Y-500540D01*
G37*
%TD.AperFunction*%
%TD*%
%TA.AperFunction,Conductor*%
%TO.N,Board_0-Board_1-GND*%
G36*
X43674725Y-36267966D02*
G01*
X43704416Y-36287047D01*
X43790194Y-36361374D01*
X43790197Y-36361375D01*
X43790199Y-36361377D01*
X43921115Y-36421165D01*
X44027773Y-36436500D01*
X44027776Y-36436500D01*
X44099368Y-36436500D01*
X44099371Y-36436500D01*
X44206029Y-36421165D01*
X44336945Y-36361377D01*
X44368220Y-36334276D01*
X44431774Y-36305252D01*
X44500932Y-36315195D01*
X44548925Y-36356779D01*
X44549331Y-36356428D01*
X44551776Y-36359249D01*
X44553733Y-36360946D01*
X44555136Y-36363128D01*
X44555484Y-36363430D01*
X44574556Y-36384200D01*
X44574827Y-36384572D01*
X44574828Y-36384573D01*
X44574831Y-36384576D01*
X44617594Y-36417519D01*
X44623090Y-36422010D01*
X44663906Y-36457377D01*
X44664309Y-36457561D01*
X44688481Y-36472129D01*
X44688839Y-36472405D01*
X44739159Y-36491969D01*
X44745713Y-36494737D01*
X44794822Y-36517165D01*
X44839710Y-36523618D01*
X44850067Y-36525560D01*
X44954101Y-36549702D01*
X44960168Y-36551273D01*
X45127721Y-36599217D01*
X45133705Y-36601094D01*
X45298615Y-36657461D01*
X45304478Y-36659632D01*
X45466324Y-36724282D01*
X45472071Y-36726749D01*
X45472088Y-36726757D01*
X45630398Y-36799496D01*
X45636039Y-36802262D01*
X45790508Y-36882950D01*
X45796001Y-36885999D01*
X45946176Y-36974402D01*
X45951507Y-36977725D01*
X46097002Y-37073613D01*
X46102135Y-37077185D01*
X46242656Y-37180373D01*
X46247535Y-37184149D01*
X46382639Y-37294312D01*
X46387386Y-37298387D01*
X46516687Y-37415207D01*
X46521240Y-37419535D01*
X46644462Y-37542757D01*
X46648790Y-37547310D01*
X46765610Y-37676611D01*
X46769688Y-37681361D01*
X46879843Y-37816457D01*
X46883629Y-37821346D01*
X46986806Y-37961854D01*
X46990384Y-37966995D01*
X47086272Y-38112490D01*
X47089595Y-38117821D01*
X47177998Y-38267996D01*
X47181047Y-38273489D01*
X47261735Y-38427958D01*
X47264501Y-38433599D01*
X47337240Y-38591908D01*
X47339718Y-38597681D01*
X47404361Y-38759512D01*
X47406543Y-38765404D01*
X47462899Y-38930279D01*
X47464780Y-38936273D01*
X47512726Y-39103834D01*
X47514300Y-39109916D01*
X47553686Y-39279642D01*
X47554951Y-39285797D01*
X47585695Y-39457335D01*
X47586646Y-39463544D01*
X47608658Y-39636377D01*
X47609294Y-39642628D01*
X47622526Y-39816400D01*
X47622844Y-39822672D01*
X47627460Y-40004750D01*
X47627500Y-40007893D01*
X47627500Y-44614629D01*
X47635190Y-44640820D01*
X47638947Y-44658089D01*
X47642835Y-44685123D01*
X47654173Y-44709949D01*
X47660355Y-44726524D01*
X47668046Y-44752717D01*
X47668047Y-44752719D01*
X47682806Y-44775685D01*
X47691282Y-44791207D01*
X47702623Y-44816039D01*
X47714437Y-44829673D01*
X47720496Y-44836666D01*
X47731095Y-44850826D01*
X47745853Y-44873789D01*
X47745857Y-44873794D01*
X47766488Y-44891672D01*
X47778992Y-44904176D01*
X47796871Y-44924808D01*
X47796872Y-44924809D01*
X47818222Y-44938529D01*
X47863978Y-44991331D01*
X47873923Y-45060489D01*
X47844901Y-45124046D01*
X47832388Y-45136559D01*
X47745856Y-45211539D01*
X47668045Y-45332615D01*
X47627500Y-45470702D01*
X47627500Y-45614629D01*
X47668045Y-45752716D01*
X47668047Y-45752719D01*
X47745857Y-45873794D01*
X47832596Y-45948953D01*
X47870370Y-46007731D01*
X47870370Y-46077601D01*
X47832596Y-46136378D01*
X47795449Y-46168567D01*
X47745856Y-46211539D01*
X47668045Y-46332615D01*
X47627500Y-46470702D01*
X47627500Y-46614629D01*
X47668045Y-46752716D01*
X47668047Y-46752719D01*
X47745857Y-46873794D01*
X47821600Y-46939425D01*
X47832387Y-46948772D01*
X47870161Y-47007550D01*
X47870161Y-47077420D01*
X47832387Y-47136198D01*
X47818225Y-47146799D01*
X47796876Y-47160519D01*
X47796871Y-47160523D01*
X47778993Y-47181155D01*
X47766489Y-47193659D01*
X47745857Y-47211537D01*
X47745853Y-47211542D01*
X47731095Y-47234506D01*
X47720495Y-47248666D01*
X47702623Y-47269291D01*
X47702621Y-47269294D01*
X47691280Y-47294127D01*
X47682805Y-47309648D01*
X47668048Y-47332611D01*
X47660355Y-47358807D01*
X47654175Y-47375376D01*
X47642835Y-47400207D01*
X47642834Y-47400210D01*
X47638948Y-47427234D01*
X47635190Y-47444508D01*
X47627501Y-47470700D01*
X47627500Y-47470708D01*
X47627500Y-56125296D01*
X47635190Y-56151487D01*
X47638947Y-56168756D01*
X47642835Y-56195790D01*
X47654173Y-56220616D01*
X47660355Y-56237191D01*
X47668046Y-56263384D01*
X47668047Y-56263386D01*
X47682806Y-56286352D01*
X47691282Y-56301874D01*
X47702623Y-56326706D01*
X47714437Y-56340340D01*
X47720496Y-56347333D01*
X47731095Y-56361493D01*
X47745853Y-56384456D01*
X47745857Y-56384461D01*
X47766488Y-56402339D01*
X47778992Y-56414843D01*
X47796871Y-56435475D01*
X47796872Y-56435476D01*
X47818222Y-56449196D01*
X47863978Y-56501998D01*
X47873923Y-56571156D01*
X47844901Y-56634713D01*
X47832388Y-56647226D01*
X47745856Y-56722206D01*
X47668045Y-56843282D01*
X47627500Y-56981369D01*
X47627500Y-57125296D01*
X47668045Y-57263383D01*
X47668047Y-57263386D01*
X47745857Y-57384461D01*
X47832596Y-57459620D01*
X47870370Y-57518398D01*
X47870370Y-57588268D01*
X47832596Y-57647046D01*
X47745856Y-57722206D01*
X47668045Y-57843282D01*
X47627500Y-57981369D01*
X47627500Y-58125296D01*
X47668045Y-58263383D01*
X47668047Y-58263386D01*
X47745857Y-58384461D01*
X47832387Y-58459439D01*
X47870161Y-58518217D01*
X47870161Y-58588087D01*
X47832387Y-58646865D01*
X47818225Y-58657466D01*
X47796876Y-58671186D01*
X47796871Y-58671190D01*
X47778993Y-58691822D01*
X47766489Y-58704326D01*
X47745857Y-58722204D01*
X47745853Y-58722209D01*
X47731095Y-58745173D01*
X47720495Y-58759333D01*
X47702623Y-58779958D01*
X47702621Y-58779961D01*
X47691280Y-58804794D01*
X47682805Y-58820315D01*
X47668048Y-58843278D01*
X47660355Y-58869474D01*
X47654175Y-58886043D01*
X47642835Y-58910874D01*
X47642834Y-58910877D01*
X47638948Y-58937901D01*
X47635190Y-58955175D01*
X47627501Y-58981367D01*
X47627500Y-58981375D01*
X47627500Y-64992105D01*
X47627460Y-64995248D01*
X47622844Y-65177325D01*
X47622526Y-65183597D01*
X47609294Y-65357369D01*
X47608658Y-65363620D01*
X47586646Y-65536453D01*
X47585695Y-65542662D01*
X47554951Y-65714200D01*
X47553686Y-65720355D01*
X47514300Y-65890081D01*
X47512726Y-65896163D01*
X47464780Y-66063724D01*
X47462899Y-66069718D01*
X47406543Y-66234593D01*
X47404361Y-66240485D01*
X47339718Y-66402316D01*
X47337240Y-66408089D01*
X47264501Y-66566398D01*
X47261735Y-66572039D01*
X47181047Y-66726508D01*
X47177998Y-66732001D01*
X47089595Y-66882176D01*
X47086272Y-66887507D01*
X46990384Y-67033002D01*
X46986795Y-67038159D01*
X46883643Y-67178631D01*
X46879844Y-67183540D01*
X46782196Y-67303296D01*
X46769703Y-67318619D01*
X46765610Y-67323386D01*
X46648790Y-67452687D01*
X46644462Y-67457240D01*
X46521240Y-67580462D01*
X46516687Y-67584790D01*
X46387386Y-67701610D01*
X46382619Y-67705703D01*
X46247559Y-67815828D01*
X46242631Y-67819643D01*
X46115724Y-67912833D01*
X46102159Y-67922795D01*
X46097002Y-67926384D01*
X45951507Y-68022272D01*
X45946176Y-68025595D01*
X45796001Y-68113998D01*
X45790508Y-68117047D01*
X45636039Y-68197735D01*
X45630398Y-68200501D01*
X45472084Y-68273242D01*
X45466311Y-68275720D01*
X45304492Y-68340359D01*
X45298600Y-68342541D01*
X45133714Y-68398900D01*
X45127720Y-68400781D01*
X44960166Y-68448725D01*
X44954084Y-68450299D01*
X44784353Y-68489686D01*
X44778199Y-68490951D01*
X44606664Y-68521696D01*
X44600482Y-68522643D01*
X44427617Y-68544658D01*
X44421372Y-68545293D01*
X44247597Y-68558526D01*
X44241325Y-68558844D01*
X44065769Y-68563294D01*
X44059247Y-68563460D01*
X44056106Y-68563500D01*
X15759765Y-68563500D01*
X15692726Y-68543815D01*
X15646971Y-68491011D01*
X15637027Y-68421853D01*
X15666052Y-68358297D01*
X15689149Y-68337571D01*
X15868330Y-68213434D01*
X15868335Y-68213430D01*
X16027430Y-68054335D01*
X16027440Y-68054323D01*
X16155568Y-67869380D01*
X16155571Y-67869374D01*
X16248622Y-67664519D01*
X16303599Y-67446332D01*
X16313999Y-67314196D01*
X16314000Y-67314184D01*
X16314000Y-66750000D01*
X15497686Y-66750000D01*
X15523493Y-66709844D01*
X15564000Y-66571889D01*
X15564000Y-66428111D01*
X15523493Y-66290156D01*
X15497686Y-66250000D01*
X16313999Y-66250000D01*
X16313999Y-65685817D01*
X16313998Y-65685802D01*
X16303599Y-65553667D01*
X16248622Y-65335480D01*
X16155571Y-65130625D01*
X16155568Y-65130619D01*
X16027440Y-64945676D01*
X16027430Y-64945664D01*
X15868335Y-64786569D01*
X15868323Y-64786559D01*
X15683380Y-64658431D01*
X15683374Y-64658428D01*
X15478519Y-64565377D01*
X15260332Y-64510400D01*
X15128196Y-64500000D01*
X14314000Y-64500000D01*
X14314000Y-66000000D01*
X13814000Y-66000000D01*
X13814000Y-64500000D01*
X12999817Y-64500000D01*
X12999802Y-64500001D01*
X12867667Y-64510400D01*
X12649480Y-64565377D01*
X12444625Y-64658428D01*
X12444619Y-64658431D01*
X12259676Y-64786559D01*
X12259664Y-64786569D01*
X12100569Y-64945664D01*
X12100559Y-64945676D01*
X11972431Y-65130619D01*
X11972428Y-65130625D01*
X11879377Y-65335480D01*
X11824400Y-65553667D01*
X11814000Y-65685803D01*
X11814000Y-66250000D01*
X12630314Y-66250000D01*
X12604507Y-66290156D01*
X12564000Y-66428111D01*
X12564000Y-66571889D01*
X12604507Y-66709844D01*
X12630314Y-66750000D01*
X11814001Y-66750000D01*
X11814001Y-67314197D01*
X11824400Y-67446332D01*
X11879377Y-67664519D01*
X11972428Y-67869374D01*
X11972431Y-67869380D01*
X12100559Y-68054323D01*
X12100569Y-68054335D01*
X12259664Y-68213430D01*
X12259669Y-68213434D01*
X12438851Y-68337571D01*
X12482747Y-68391930D01*
X12490287Y-68461392D01*
X12459076Y-68523903D01*
X12399024Y-68559617D01*
X12368235Y-68563500D01*
X4071894Y-68563500D01*
X4068752Y-68563460D01*
X4062087Y-68563291D01*
X3886672Y-68558844D01*
X3880400Y-68558526D01*
X3706628Y-68545294D01*
X3700377Y-68544658D01*
X3527544Y-68522646D01*
X3521335Y-68521695D01*
X3349797Y-68490951D01*
X3343642Y-68489686D01*
X3173916Y-68450300D01*
X3167834Y-68448726D01*
X3000273Y-68400780D01*
X2994279Y-68398899D01*
X2829404Y-68342543D01*
X2823512Y-68340361D01*
X2661681Y-68275718D01*
X2655908Y-68273240D01*
X2497599Y-68200501D01*
X2491958Y-68197735D01*
X2337489Y-68117047D01*
X2331996Y-68113998D01*
X2181821Y-68025595D01*
X2176490Y-68022272D01*
X2030995Y-67926384D01*
X2025854Y-67922806D01*
X1885346Y-67819629D01*
X1880457Y-67815843D01*
X1745361Y-67705688D01*
X1740611Y-67701610D01*
X1611310Y-67584790D01*
X1606757Y-67580462D01*
X1483535Y-67457240D01*
X1479207Y-67452687D01*
X1427304Y-67395239D01*
X1362385Y-67323383D01*
X1358312Y-67318639D01*
X1248149Y-67183535D01*
X1244373Y-67178656D01*
X1141185Y-67038135D01*
X1137613Y-67033002D01*
X1041725Y-66887507D01*
X1038402Y-66882176D01*
X949999Y-66732001D01*
X946950Y-66726508D01*
X866262Y-66572039D01*
X863496Y-66566398D01*
X799957Y-66428111D01*
X790749Y-66408071D01*
X788277Y-66402311D01*
X787484Y-66400325D01*
X723632Y-66240478D01*
X721456Y-66234600D01*
X682941Y-66121920D01*
X665094Y-66069705D01*
X663216Y-66063720D01*
X628277Y-65941614D01*
X615268Y-65896150D01*
X613698Y-65890084D01*
X574307Y-65720334D01*
X573050Y-65714219D01*
X542296Y-65542634D01*
X541359Y-65536521D01*
X519334Y-65363575D01*
X518704Y-65357373D01*
X518202Y-65350786D01*
X505470Y-65183595D01*
X505153Y-65177325D01*
X504765Y-65162026D01*
X503984Y-65131187D01*
X2313500Y-65131187D01*
X2323948Y-65200499D01*
X2352604Y-65390615D01*
X2352605Y-65390617D01*
X2352606Y-65390623D01*
X2429938Y-65641326D01*
X2543767Y-65877696D01*
X2543768Y-65877697D01*
X2543770Y-65877700D01*
X2543772Y-65877704D01*
X2674685Y-66069718D01*
X2691567Y-66094479D01*
X2870014Y-66286801D01*
X2870018Y-66286804D01*
X2870019Y-66286805D01*
X3075143Y-66450386D01*
X3302357Y-66581568D01*
X3546584Y-66677420D01*
X3802370Y-66735802D01*
X3802376Y-66735802D01*
X3802379Y-66735803D01*
X3998484Y-66750499D01*
X3998503Y-66750499D01*
X3998506Y-66750500D01*
X3998508Y-66750500D01*
X4129492Y-66750500D01*
X4129494Y-66750500D01*
X4129496Y-66750499D01*
X4129515Y-66750499D01*
X4325620Y-66735803D01*
X4325622Y-66735802D01*
X4325630Y-66735802D01*
X4581416Y-66677420D01*
X4825643Y-66581568D01*
X5052857Y-66450386D01*
X5257981Y-66286805D01*
X5436433Y-66094479D01*
X5584228Y-65877704D01*
X5698063Y-65641323D01*
X5775396Y-65390615D01*
X5814500Y-65131182D01*
X5814500Y-64868818D01*
X5775396Y-64609385D01*
X5698063Y-64358677D01*
X5640753Y-64239671D01*
X5584232Y-64122303D01*
X5584231Y-64122302D01*
X5584230Y-64122301D01*
X5584228Y-64122296D01*
X5436433Y-63905521D01*
X5388214Y-63853553D01*
X5257985Y-63713198D01*
X5097223Y-63584995D01*
X5052857Y-63549614D01*
X4825643Y-63418432D01*
X4581416Y-63322580D01*
X4581411Y-63322578D01*
X4581402Y-63322576D01*
X4363818Y-63272914D01*
X4325630Y-63264198D01*
X4325629Y-63264197D01*
X4325625Y-63264197D01*
X4325620Y-63264196D01*
X4129515Y-63249500D01*
X4129494Y-63249500D01*
X3998506Y-63249500D01*
X3998484Y-63249500D01*
X3802379Y-63264196D01*
X3802374Y-63264197D01*
X3546597Y-63322576D01*
X3546578Y-63322582D01*
X3302356Y-63418432D01*
X3075143Y-63549614D01*
X2870014Y-63713198D01*
X2691567Y-63905520D01*
X2543768Y-64122302D01*
X2543767Y-64122303D01*
X2429938Y-64358673D01*
X2352606Y-64609376D01*
X2352605Y-64609381D01*
X2352604Y-64609385D01*
X2337853Y-64707247D01*
X2313500Y-64868812D01*
X2313500Y-65131187D01*
X503984Y-65131187D01*
X500540Y-64995223D01*
X500500Y-64992083D01*
X500500Y-62297870D01*
X11813500Y-62297870D01*
X11813501Y-62297876D01*
X11819908Y-62357483D01*
X11870202Y-62492328D01*
X11870206Y-62492335D01*
X11956452Y-62607544D01*
X11956455Y-62607547D01*
X12071664Y-62693793D01*
X12071671Y-62693797D01*
X12206517Y-62744091D01*
X12206516Y-62744091D01*
X12213444Y-62744835D01*
X12266127Y-62750500D01*
X15861872Y-62750499D01*
X15921483Y-62744091D01*
X16056331Y-62693796D01*
X16171546Y-62607546D01*
X16257796Y-62492331D01*
X16276012Y-62443491D01*
X16317880Y-62387560D01*
X16383344Y-62363141D01*
X16451617Y-62377991D01*
X16501024Y-62427396D01*
X16516018Y-62493401D01*
X16514001Y-62531374D01*
X16514000Y-62531421D01*
X16514000Y-63250000D01*
X18264000Y-63250000D01*
X18264000Y-63750000D01*
X16514001Y-63750000D01*
X16514001Y-64468588D01*
X16516794Y-64521191D01*
X16561237Y-64750987D01*
X16643879Y-64969975D01*
X16762339Y-65171841D01*
X16762344Y-65171848D01*
X16913211Y-65350786D01*
X16913213Y-65350788D01*
X17092151Y-65501655D01*
X17092158Y-65501660D01*
X17294024Y-65620120D01*
X17513012Y-65702762D01*
X17742809Y-65747205D01*
X17795382Y-65749998D01*
X17795421Y-65749999D01*
X18513999Y-65749999D01*
X18514000Y-65749998D01*
X18514000Y-64933686D01*
X18554156Y-64959493D01*
X18692111Y-65000000D01*
X18835889Y-65000000D01*
X18973844Y-64959493D01*
X19014000Y-64933686D01*
X19014000Y-65749999D01*
X19732576Y-65749999D01*
X19732588Y-65749998D01*
X19785191Y-65747205D01*
X20014987Y-65702762D01*
X20233975Y-65620120D01*
X20435841Y-65501660D01*
X20435848Y-65501655D01*
X20614786Y-65350788D01*
X20614788Y-65350786D01*
X20765655Y-65171848D01*
X20765660Y-65171841D01*
X20884120Y-64969975D01*
X20966762Y-64750987D01*
X21011205Y-64521191D01*
X21011205Y-64521190D01*
X21012330Y-64500015D01*
X32363500Y-64500015D01*
X32374000Y-64602795D01*
X32374001Y-64602796D01*
X32429186Y-64769335D01*
X32429187Y-64769337D01*
X32521286Y-64918651D01*
X32521289Y-64918655D01*
X32645344Y-65042710D01*
X32645348Y-65042713D01*
X32794662Y-65134812D01*
X32794664Y-65134813D01*
X32794666Y-65134814D01*
X32961203Y-65189999D01*
X33063992Y-65200500D01*
X33063997Y-65200500D01*
X35064003Y-65200500D01*
X35064008Y-65200500D01*
X35166797Y-65189999D01*
X35333334Y-65134814D01*
X35482655Y-65042711D01*
X35606711Y-64918655D01*
X35698814Y-64769334D01*
X35753999Y-64602797D01*
X35764500Y-64500008D01*
X35764500Y-63500004D01*
X36319233Y-63500004D01*
X36338273Y-63754079D01*
X36394968Y-64002477D01*
X36394973Y-64002494D01*
X36488058Y-64239671D01*
X36488057Y-64239671D01*
X36615454Y-64460327D01*
X36615461Y-64460338D01*
X36657452Y-64512991D01*
X36657453Y-64512992D01*
X37383859Y-63786586D01*
X37443680Y-63900566D01*
X37556405Y-64027806D01*
X37696305Y-64124371D01*
X37737542Y-64140010D01*
X37010813Y-64866738D01*
X37171616Y-64976371D01*
X37171624Y-64976376D01*
X37401176Y-65086921D01*
X37401174Y-65086921D01*
X37644652Y-65162024D01*
X37644658Y-65162026D01*
X37896595Y-65199999D01*
X37896604Y-65200000D01*
X38151396Y-65200000D01*
X38151404Y-65199999D01*
X38403341Y-65162026D01*
X38403347Y-65162024D01*
X38503318Y-65131187D01*
X42313500Y-65131187D01*
X42323948Y-65200499D01*
X42352604Y-65390615D01*
X42352605Y-65390617D01*
X42352606Y-65390623D01*
X42429938Y-65641326D01*
X42543767Y-65877696D01*
X42543768Y-65877697D01*
X42543770Y-65877700D01*
X42543772Y-65877704D01*
X42674685Y-66069718D01*
X42691567Y-66094479D01*
X42870014Y-66286801D01*
X42870018Y-66286804D01*
X42870019Y-66286805D01*
X43075143Y-66450386D01*
X43302357Y-66581568D01*
X43546584Y-66677420D01*
X43802370Y-66735802D01*
X43802376Y-66735802D01*
X43802379Y-66735803D01*
X43998484Y-66750499D01*
X43998503Y-66750499D01*
X43998506Y-66750500D01*
X43998508Y-66750500D01*
X44129492Y-66750500D01*
X44129494Y-66750500D01*
X44129496Y-66750499D01*
X44129515Y-66750499D01*
X44325620Y-66735803D01*
X44325622Y-66735802D01*
X44325630Y-66735802D01*
X44581416Y-66677420D01*
X44825643Y-66581568D01*
X45052857Y-66450386D01*
X45257981Y-66286805D01*
X45436433Y-66094479D01*
X45584228Y-65877704D01*
X45698063Y-65641323D01*
X45775396Y-65390615D01*
X45814500Y-65131182D01*
X45814500Y-64868818D01*
X45775396Y-64609385D01*
X45698063Y-64358677D01*
X45640753Y-64239671D01*
X45584232Y-64122303D01*
X45584231Y-64122302D01*
X45584230Y-64122301D01*
X45584228Y-64122296D01*
X45436433Y-63905521D01*
X45388214Y-63853553D01*
X45257985Y-63713198D01*
X45097223Y-63584995D01*
X45052857Y-63549614D01*
X44825643Y-63418432D01*
X44581416Y-63322580D01*
X44581411Y-63322578D01*
X44581402Y-63322576D01*
X44363818Y-63272914D01*
X44325630Y-63264198D01*
X44325629Y-63264197D01*
X44325625Y-63264197D01*
X44325620Y-63264196D01*
X44129515Y-63249500D01*
X44129494Y-63249500D01*
X43998506Y-63249500D01*
X43998484Y-63249500D01*
X43802379Y-63264196D01*
X43802374Y-63264197D01*
X43546597Y-63322576D01*
X43546578Y-63322582D01*
X43302356Y-63418432D01*
X43075143Y-63549614D01*
X42870014Y-63713198D01*
X42691567Y-63905520D01*
X42543768Y-64122302D01*
X42543767Y-64122303D01*
X42429938Y-64358673D01*
X42352606Y-64609376D01*
X42352605Y-64609381D01*
X42352604Y-64609385D01*
X42337853Y-64707247D01*
X42313500Y-64868812D01*
X42313500Y-65131187D01*
X38503318Y-65131187D01*
X38646824Y-65086921D01*
X38876376Y-64976376D01*
X38876377Y-64976375D01*
X39037185Y-64866738D01*
X38310457Y-64140010D01*
X38351695Y-64124371D01*
X38491595Y-64027806D01*
X38604320Y-63900566D01*
X38664139Y-63786587D01*
X39390544Y-64512992D01*
X39390546Y-64512991D01*
X39432544Y-64460330D01*
X39559941Y-64239671D01*
X39653026Y-64002494D01*
X39653031Y-64002477D01*
X39709726Y-63754079D01*
X39728767Y-63500004D01*
X39728767Y-63499995D01*
X39709726Y-63245920D01*
X39653031Y-62997522D01*
X39653026Y-62997505D01*
X39559941Y-62760328D01*
X39559942Y-62760328D01*
X39432545Y-62539672D01*
X39390545Y-62487006D01*
X38664139Y-63213412D01*
X38604320Y-63099434D01*
X38491595Y-62972194D01*
X38351695Y-62875629D01*
X38310457Y-62859989D01*
X39037185Y-62133260D01*
X38876384Y-62023628D01*
X38876376Y-62023623D01*
X38646823Y-61913078D01*
X38646825Y-61913078D01*
X38403347Y-61837975D01*
X38403341Y-61837973D01*
X38151404Y-61800000D01*
X37896595Y-61800000D01*
X37644658Y-61837973D01*
X37644652Y-61837975D01*
X37401175Y-61913078D01*
X37171622Y-62023625D01*
X37171609Y-62023632D01*
X37010813Y-62133259D01*
X37737543Y-62859989D01*
X37696305Y-62875629D01*
X37556405Y-62972194D01*
X37443680Y-63099434D01*
X37383859Y-63213413D01*
X36657452Y-62487006D01*
X36615457Y-62539667D01*
X36488058Y-62760328D01*
X36394973Y-62997505D01*
X36394968Y-62997522D01*
X36338273Y-63245920D01*
X36319233Y-63499995D01*
X36319233Y-63500004D01*
X35764500Y-63500004D01*
X35764500Y-62499992D01*
X35753999Y-62397203D01*
X35698814Y-62230666D01*
X35696491Y-62226900D01*
X35606713Y-62081348D01*
X35606710Y-62081344D01*
X35482655Y-61957289D01*
X35482651Y-61957286D01*
X35333337Y-61865187D01*
X35333335Y-61865186D01*
X35221570Y-61828151D01*
X35166797Y-61810001D01*
X35166795Y-61810000D01*
X35064015Y-61799500D01*
X35064008Y-61799500D01*
X33063992Y-61799500D01*
X33063984Y-61799500D01*
X32961204Y-61810000D01*
X32961203Y-61810001D01*
X32794664Y-61865186D01*
X32794662Y-61865187D01*
X32645348Y-61957286D01*
X32645344Y-61957289D01*
X32521289Y-62081344D01*
X32521286Y-62081348D01*
X32429187Y-62230662D01*
X32429186Y-62230664D01*
X32374001Y-62397203D01*
X32374000Y-62397204D01*
X32363500Y-62499984D01*
X32363500Y-64500015D01*
X21012330Y-64500015D01*
X21013998Y-64468617D01*
X21014000Y-64468578D01*
X21014000Y-63750000D01*
X19264000Y-63750000D01*
X19264000Y-63250000D01*
X21013999Y-63250000D01*
X21013999Y-62531423D01*
X21013998Y-62531411D01*
X21011205Y-62478808D01*
X20966762Y-62249012D01*
X20884120Y-62030024D01*
X20765660Y-61828158D01*
X20765655Y-61828151D01*
X20614788Y-61649213D01*
X20614786Y-61649211D01*
X20435848Y-61498344D01*
X20435841Y-61498339D01*
X20233975Y-61379879D01*
X20014987Y-61297237D01*
X19785190Y-61252794D01*
X19732617Y-61250001D01*
X19732579Y-61250000D01*
X19014000Y-61250000D01*
X19014000Y-62066313D01*
X18973844Y-62040507D01*
X18835889Y-62000000D01*
X18692111Y-62000000D01*
X18554156Y-62040507D01*
X18514000Y-62066313D01*
X18514000Y-61250000D01*
X17795423Y-61250000D01*
X17795411Y-61250001D01*
X17742808Y-61252794D01*
X17513012Y-61297237D01*
X17294024Y-61379879D01*
X17092158Y-61498339D01*
X17092151Y-61498344D01*
X16913213Y-61649211D01*
X16913211Y-61649213D01*
X16762344Y-61828151D01*
X16762339Y-61828158D01*
X16643879Y-62030024D01*
X16561236Y-62249014D01*
X16560241Y-62254161D01*
X16528179Y-62316240D01*
X16467644Y-62351130D01*
X16397856Y-62347754D01*
X16340972Y-62307184D01*
X16315052Y-62242300D01*
X16314499Y-62230624D01*
X16314499Y-58702128D01*
X16308091Y-58642517D01*
X16269294Y-58538498D01*
X16257797Y-58507671D01*
X16257793Y-58507664D01*
X16171547Y-58392455D01*
X16171544Y-58392452D01*
X16056335Y-58306206D01*
X16056328Y-58306202D01*
X15921482Y-58255908D01*
X15921483Y-58255908D01*
X15861883Y-58249501D01*
X15861881Y-58249500D01*
X15861873Y-58249500D01*
X15861864Y-58249500D01*
X12266129Y-58249500D01*
X12266123Y-58249501D01*
X12206516Y-58255908D01*
X12071671Y-58306202D01*
X12071664Y-58306206D01*
X11956455Y-58392452D01*
X11956452Y-58392455D01*
X11870206Y-58507664D01*
X11870202Y-58507671D01*
X11819908Y-58642517D01*
X11813501Y-58702116D01*
X11813501Y-58702123D01*
X11813500Y-58702135D01*
X11813500Y-62297870D01*
X500500Y-62297870D01*
X500500Y-44750001D01*
X10058532Y-44750001D01*
X10078364Y-44976686D01*
X10078366Y-44976697D01*
X10137258Y-45196488D01*
X10137261Y-45196497D01*
X10233431Y-45402732D01*
X10233432Y-45402734D01*
X10363954Y-45589141D01*
X10524858Y-45750045D01*
X10524861Y-45750047D01*
X10711266Y-45880568D01*
X10917504Y-45976739D01*
X10917509Y-45976740D01*
X10917511Y-45976741D01*
X10970415Y-45990916D01*
X11137308Y-46035635D01*
X11299230Y-46049801D01*
X11363998Y-46055468D01*
X11364000Y-46055468D01*
X11364002Y-46055468D01*
X11420673Y-46050509D01*
X11590692Y-46035635D01*
X11810496Y-45976739D01*
X12016734Y-45880568D01*
X12170465Y-45772924D01*
X12236671Y-45750598D01*
X12241588Y-45750500D01*
X21848217Y-45750500D01*
X21915256Y-45770185D01*
X21935898Y-45786819D01*
X23027181Y-46878102D01*
X23060666Y-46939425D01*
X23063500Y-46965783D01*
X23063500Y-47275500D01*
X23043815Y-47342539D01*
X22991011Y-47388294D01*
X22939500Y-47399500D01*
X21613257Y-47399500D01*
X21461560Y-47414925D01*
X21267420Y-47475837D01*
X21267405Y-47475844D01*
X21089500Y-47574589D01*
X21089495Y-47574592D01*
X20935106Y-47707132D01*
X20935104Y-47707134D01*
X20810554Y-47868037D01*
X20810553Y-47868040D01*
X20720940Y-48050728D01*
X20669937Y-48247714D01*
X20659631Y-48450936D01*
X20690442Y-48652063D01*
X20690445Y-48652075D01*
X20761111Y-48842881D01*
X20761115Y-48842888D01*
X20868745Y-49015567D01*
X20868747Y-49015569D01*
X20868748Y-49015571D01*
X21008941Y-49163053D01*
X21137344Y-49252424D01*
X21175949Y-49279294D01*
X21175950Y-49279294D01*
X21175951Y-49279295D01*
X21362942Y-49359540D01*
X21562259Y-49400500D01*
X22939500Y-49400500D01*
X23006539Y-49420185D01*
X23052294Y-49472989D01*
X23063500Y-49524500D01*
X23063500Y-49767209D01*
X23043815Y-49834248D01*
X22991011Y-49880003D01*
X22982833Y-49883391D01*
X22921671Y-49906202D01*
X22921664Y-49906206D01*
X22806455Y-49992452D01*
X22806452Y-49992455D01*
X22720206Y-50107664D01*
X22720202Y-50107671D01*
X22669908Y-50242517D01*
X22663501Y-50302116D01*
X22663501Y-50302123D01*
X22663500Y-50302135D01*
X22663500Y-52197870D01*
X22663501Y-52197876D01*
X22669908Y-52257483D01*
X22720202Y-52392328D01*
X22720206Y-52392335D01*
X22806452Y-52507544D01*
X22806455Y-52507547D01*
X22921664Y-52593793D01*
X22921673Y-52593798D01*
X23001904Y-52623722D01*
X23057838Y-52665593D01*
X23082256Y-52731057D01*
X23067405Y-52799330D01*
X23049802Y-52823886D01*
X22955019Y-52926849D01*
X22828075Y-53121151D01*
X22734842Y-53333699D01*
X22677866Y-53558691D01*
X22677864Y-53558702D01*
X22658700Y-53789993D01*
X22658700Y-53790006D01*
X22677864Y-54021297D01*
X22677866Y-54021308D01*
X22734842Y-54246300D01*
X22828075Y-54458848D01*
X22955016Y-54653147D01*
X22955019Y-54653151D01*
X22955021Y-54653153D01*
X23112216Y-54823913D01*
X23112219Y-54823915D01*
X23112222Y-54823918D01*
X23295365Y-54966464D01*
X23295371Y-54966468D01*
X23295374Y-54966470D01*
X23499497Y-55076936D01*
X23613487Y-55116068D01*
X23719015Y-55152297D01*
X23719017Y-55152297D01*
X23719019Y-55152298D01*
X23947951Y-55190500D01*
X23947952Y-55190500D01*
X24180048Y-55190500D01*
X24180049Y-55190500D01*
X24408981Y-55152298D01*
X24628503Y-55076936D01*
X24832626Y-54966470D01*
X25015784Y-54823913D01*
X25172979Y-54653153D01*
X25299924Y-54458849D01*
X25393157Y-54246300D01*
X25450134Y-54021305D01*
X25469300Y-53790000D01*
X25469300Y-53789993D01*
X25450135Y-53558702D01*
X25450133Y-53558691D01*
X25393157Y-53333699D01*
X25299924Y-53121151D01*
X25172983Y-52926852D01*
X25172980Y-52926849D01*
X25172979Y-52926847D01*
X25078195Y-52823884D01*
X25047275Y-52761232D01*
X25055135Y-52691806D01*
X25099283Y-52637651D01*
X25126095Y-52623722D01*
X25206326Y-52593798D01*
X25206326Y-52593797D01*
X25206331Y-52593796D01*
X25321546Y-52507546D01*
X25407796Y-52392331D01*
X25458091Y-52257483D01*
X25464500Y-52197873D01*
X25464499Y-50302128D01*
X25458091Y-50242517D01*
X25407796Y-50107669D01*
X25407795Y-50107668D01*
X25407793Y-50107664D01*
X25321547Y-49992455D01*
X25321544Y-49992452D01*
X25206335Y-49906206D01*
X25206328Y-49906202D01*
X25145167Y-49883391D01*
X25089233Y-49841520D01*
X25064816Y-49776056D01*
X25064500Y-49767209D01*
X25064500Y-48428499D01*
X25064659Y-48422219D01*
X25068369Y-48349064D01*
X25065930Y-48333142D01*
X25064500Y-48314366D01*
X25064500Y-46514237D01*
X25064540Y-46511095D01*
X25066756Y-46423642D01*
X25066755Y-46423641D01*
X25066756Y-46423636D01*
X25056345Y-46365554D01*
X25055042Y-46356260D01*
X25049074Y-46297562D01*
X25047396Y-46292214D01*
X25039967Y-46268536D01*
X25036224Y-46253287D01*
X25030858Y-46223348D01*
X25008976Y-46168567D01*
X25005822Y-46159709D01*
X24988159Y-46103412D01*
X24988158Y-46103411D01*
X24988157Y-46103406D01*
X24973396Y-46076814D01*
X24966659Y-46062629D01*
X24955378Y-46034385D01*
X24955375Y-46034380D01*
X24922918Y-45985131D01*
X24918036Y-45977074D01*
X24917850Y-45976739D01*
X24889409Y-45925498D01*
X24869588Y-45902410D01*
X24860144Y-45889885D01*
X24843402Y-45864481D01*
X24801699Y-45822778D01*
X24795294Y-45815868D01*
X24756867Y-45771106D01*
X24732804Y-45752479D01*
X24721027Y-45742106D01*
X24225472Y-45246552D01*
X24225470Y-45246549D01*
X23628244Y-44649324D01*
X23478919Y-44499999D01*
X35485127Y-44499999D01*
X35485128Y-44500000D01*
X36448314Y-44500000D01*
X36436359Y-44511955D01*
X36378835Y-44624852D01*
X36359014Y-44750000D01*
X36378835Y-44875148D01*
X36436359Y-44988045D01*
X36448314Y-45000000D01*
X35485128Y-45000000D01*
X35537730Y-45196317D01*
X35537734Y-45196326D01*
X35633865Y-45402482D01*
X35764342Y-45588820D01*
X35925179Y-45749657D01*
X36111517Y-45880134D01*
X36317673Y-45976265D01*
X36317682Y-45976269D01*
X36513999Y-46028872D01*
X36514000Y-46028871D01*
X36514000Y-45065686D01*
X36525955Y-45077641D01*
X36638852Y-45135165D01*
X36732519Y-45150000D01*
X36795481Y-45150000D01*
X36889148Y-45135165D01*
X37002045Y-45077641D01*
X37014000Y-45065686D01*
X37014000Y-46028872D01*
X37210317Y-45976269D01*
X37210326Y-45976265D01*
X37416482Y-45880134D01*
X37602820Y-45749657D01*
X37763657Y-45588820D01*
X37894134Y-45402482D01*
X37990265Y-45196326D01*
X37990269Y-45196317D01*
X38042872Y-45000000D01*
X37079686Y-45000000D01*
X37091641Y-44988045D01*
X37149165Y-44875148D01*
X37168986Y-44750000D01*
X37149165Y-44624852D01*
X37091641Y-44511955D01*
X37079686Y-44500000D01*
X38042872Y-44500000D01*
X38042872Y-44499999D01*
X37990269Y-44303682D01*
X37990265Y-44303673D01*
X37894134Y-44097517D01*
X37763657Y-43911179D01*
X37602820Y-43750342D01*
X37416482Y-43619865D01*
X37210328Y-43523734D01*
X37014000Y-43471127D01*
X37014000Y-44434314D01*
X37002045Y-44422359D01*
X36889148Y-44364835D01*
X36795481Y-44350000D01*
X36732519Y-44350000D01*
X36638852Y-44364835D01*
X36525955Y-44422359D01*
X36514000Y-44434314D01*
X36514000Y-43471127D01*
X36317671Y-43523734D01*
X36111517Y-43619865D01*
X35925179Y-43750342D01*
X35764342Y-43911179D01*
X35633865Y-44097517D01*
X35537734Y-44303673D01*
X35537730Y-44303682D01*
X35485127Y-44499999D01*
X23478919Y-44499999D01*
X23031565Y-44052645D01*
X23029373Y-44050397D01*
X22969061Y-43986949D01*
X22969060Y-43986948D01*
X22969059Y-43986947D01*
X22920640Y-43953246D01*
X22913120Y-43947575D01*
X22867413Y-43910305D01*
X22867406Y-43910301D01*
X22840441Y-43896216D01*
X22827026Y-43888089D01*
X22802049Y-43870705D01*
X22802046Y-43870703D01*
X22802045Y-43870703D01*
X22802041Y-43870701D01*
X22747845Y-43847443D01*
X22739336Y-43843402D01*
X22687057Y-43816094D01*
X22687046Y-43816090D01*
X22657806Y-43807723D01*
X22643021Y-43802459D01*
X22615058Y-43790459D01*
X22557273Y-43778583D01*
X22548127Y-43776338D01*
X22491423Y-43760113D01*
X22467699Y-43758306D01*
X22461072Y-43757801D01*
X22445533Y-43755622D01*
X22415742Y-43749500D01*
X22415741Y-43749500D01*
X22356759Y-43749500D01*
X22347344Y-43749142D01*
X22344643Y-43748936D01*
X22288524Y-43744662D01*
X22258349Y-43748506D01*
X22242682Y-43749500D01*
X12241588Y-43749500D01*
X12174549Y-43729815D01*
X12170465Y-43727075D01*
X12016734Y-43619432D01*
X12016732Y-43619431D01*
X11810497Y-43523261D01*
X11810488Y-43523258D01*
X11590697Y-43464366D01*
X11590693Y-43464365D01*
X11590692Y-43464365D01*
X11590691Y-43464364D01*
X11590686Y-43464364D01*
X11364002Y-43444532D01*
X11363998Y-43444532D01*
X11137313Y-43464364D01*
X11137302Y-43464366D01*
X10917511Y-43523258D01*
X10917502Y-43523261D01*
X10711267Y-43619431D01*
X10711265Y-43619432D01*
X10524858Y-43749954D01*
X10363954Y-43910858D01*
X10233432Y-44097265D01*
X10233431Y-44097267D01*
X10137261Y-44303502D01*
X10137258Y-44303511D01*
X10078366Y-44523302D01*
X10078364Y-44523313D01*
X10058532Y-44749998D01*
X10058532Y-44750001D01*
X500500Y-44750001D01*
X500500Y-40131187D01*
X2313500Y-40131187D01*
X2333794Y-40265823D01*
X2352604Y-40390615D01*
X2352605Y-40390617D01*
X2352606Y-40390623D01*
X2429938Y-40641326D01*
X2543767Y-40877696D01*
X2543768Y-40877697D01*
X2543770Y-40877700D01*
X2543772Y-40877704D01*
X2691567Y-41094479D01*
X2870014Y-41286801D01*
X2870018Y-41286804D01*
X2870019Y-41286805D01*
X3075143Y-41450386D01*
X3302357Y-41581568D01*
X3546584Y-41677420D01*
X3802370Y-41735802D01*
X3802376Y-41735802D01*
X3802379Y-41735803D01*
X3998484Y-41750499D01*
X3998503Y-41750499D01*
X3998506Y-41750500D01*
X3998508Y-41750500D01*
X4129492Y-41750500D01*
X4129494Y-41750500D01*
X4129496Y-41750499D01*
X4129515Y-41750499D01*
X4325620Y-41735803D01*
X4325622Y-41735802D01*
X4325630Y-41735802D01*
X4581416Y-41677420D01*
X4825643Y-41581568D01*
X5052857Y-41450386D01*
X5257981Y-41286805D01*
X5436433Y-41094479D01*
X5584228Y-40877704D01*
X5698063Y-40641323D01*
X5775396Y-40390615D01*
X5814499Y-40131187D01*
X42313500Y-40131187D01*
X42333794Y-40265823D01*
X42352604Y-40390615D01*
X42352605Y-40390617D01*
X42352606Y-40390623D01*
X42429938Y-40641326D01*
X42543767Y-40877696D01*
X42543768Y-40877697D01*
X42543770Y-40877700D01*
X42543772Y-40877704D01*
X42691567Y-41094479D01*
X42870014Y-41286801D01*
X42870018Y-41286804D01*
X42870019Y-41286805D01*
X43075143Y-41450386D01*
X43302357Y-41581568D01*
X43546584Y-41677420D01*
X43802370Y-41735802D01*
X43802376Y-41735802D01*
X43802379Y-41735803D01*
X43998484Y-41750499D01*
X43998503Y-41750499D01*
X43998506Y-41750500D01*
X43998508Y-41750500D01*
X44129492Y-41750500D01*
X44129494Y-41750500D01*
X44129496Y-41750499D01*
X44129515Y-41750499D01*
X44325620Y-41735803D01*
X44325622Y-41735802D01*
X44325630Y-41735802D01*
X44581416Y-41677420D01*
X44825643Y-41581568D01*
X45052857Y-41450386D01*
X45257981Y-41286805D01*
X45436433Y-41094479D01*
X45584228Y-40877704D01*
X45698063Y-40641323D01*
X45775396Y-40390615D01*
X45814500Y-40131182D01*
X45814500Y-39868818D01*
X45775396Y-39609385D01*
X45698063Y-39358677D01*
X45657085Y-39273585D01*
X45584232Y-39122303D01*
X45584231Y-39122302D01*
X45584230Y-39122301D01*
X45584228Y-39122296D01*
X45436433Y-38905521D01*
X45369458Y-38833339D01*
X45257985Y-38713198D01*
X45158054Y-38633506D01*
X45052857Y-38549614D01*
X44825643Y-38418432D01*
X44581416Y-38322580D01*
X44581411Y-38322578D01*
X44581402Y-38322576D01*
X44342270Y-38267996D01*
X44325630Y-38264198D01*
X44325629Y-38264197D01*
X44325625Y-38264197D01*
X44325620Y-38264196D01*
X44129515Y-38249500D01*
X44129494Y-38249500D01*
X43998506Y-38249500D01*
X43998484Y-38249500D01*
X43802379Y-38264196D01*
X43802374Y-38264197D01*
X43546597Y-38322576D01*
X43546578Y-38322582D01*
X43302356Y-38418432D01*
X43075143Y-38549614D01*
X42870014Y-38713198D01*
X42691567Y-38905520D01*
X42543768Y-39122302D01*
X42543767Y-39122303D01*
X42429938Y-39358673D01*
X42352606Y-39609376D01*
X42352605Y-39609381D01*
X42352604Y-39609385D01*
X42337853Y-39707247D01*
X42313500Y-39868812D01*
X42313500Y-40131187D01*
X5814499Y-40131187D01*
X5814500Y-40131182D01*
X5814500Y-39868818D01*
X5775396Y-39609385D01*
X5698063Y-39358677D01*
X5657085Y-39273585D01*
X5584232Y-39122303D01*
X5584231Y-39122302D01*
X5584230Y-39122301D01*
X5584228Y-39122296D01*
X5436433Y-38905521D01*
X5369458Y-38833339D01*
X5257985Y-38713198D01*
X5158054Y-38633506D01*
X5052857Y-38549614D01*
X4825643Y-38418432D01*
X4581416Y-38322580D01*
X4581411Y-38322578D01*
X4581402Y-38322576D01*
X4342270Y-38267996D01*
X4325630Y-38264198D01*
X4325629Y-38264197D01*
X4325625Y-38264197D01*
X4325620Y-38264196D01*
X4129515Y-38249500D01*
X4129494Y-38249500D01*
X3998506Y-38249500D01*
X3998484Y-38249500D01*
X3802379Y-38264196D01*
X3802374Y-38264197D01*
X3546597Y-38322576D01*
X3546578Y-38322582D01*
X3302356Y-38418432D01*
X3075143Y-38549614D01*
X2870014Y-38713198D01*
X2691567Y-38905520D01*
X2543768Y-39122302D01*
X2543767Y-39122303D01*
X2429938Y-39358673D01*
X2352606Y-39609376D01*
X2352605Y-39609381D01*
X2352604Y-39609385D01*
X2337853Y-39707247D01*
X2313500Y-39868812D01*
X2313500Y-40131187D01*
X500500Y-40131187D01*
X500500Y-40007915D01*
X500540Y-40004775D01*
X505153Y-39822672D01*
X505471Y-39816397D01*
X518705Y-39642613D01*
X519333Y-39636426D01*
X541360Y-39463470D01*
X542295Y-39457369D01*
X573051Y-39285771D01*
X574305Y-39279670D01*
X613704Y-39109888D01*
X615265Y-39103856D01*
X663222Y-38936256D01*
X665090Y-38930303D01*
X721466Y-38765369D01*
X723627Y-38759532D01*
X788288Y-38597659D01*
X790743Y-38591940D01*
X863502Y-38433585D01*
X866262Y-38427958D01*
X884630Y-38392796D01*
X946954Y-38273480D01*
X949999Y-38267996D01*
X952235Y-38264198D01*
X1038413Y-38117802D01*
X1041713Y-38112508D01*
X1137624Y-37966978D01*
X1141172Y-37961880D01*
X1244387Y-37821321D01*
X1248134Y-37816481D01*
X1358328Y-37681338D01*
X1362367Y-37676633D01*
X1479225Y-37547290D01*
X1483515Y-37542777D01*
X1606777Y-37419515D01*
X1611290Y-37415225D01*
X1740633Y-37298367D01*
X1745338Y-37294328D01*
X1880481Y-37184134D01*
X1885321Y-37180387D01*
X2025880Y-37077172D01*
X2030978Y-37073624D01*
X2176508Y-36977713D01*
X2181802Y-36974413D01*
X2332004Y-36885994D01*
X2337480Y-36882954D01*
X2491970Y-36802255D01*
X2497586Y-36799502D01*
X2655936Y-36726744D01*
X2661653Y-36724290D01*
X2823539Y-36659625D01*
X2829377Y-36657463D01*
X2994300Y-36601091D01*
X3000252Y-36599223D01*
X3167859Y-36551264D01*
X3173891Y-36549703D01*
X3343677Y-36510303D01*
X3349769Y-36509051D01*
X3521338Y-36478301D01*
X3527539Y-36477351D01*
X3700377Y-36455340D01*
X3706621Y-36454704D01*
X3880406Y-36441470D01*
X3886661Y-36441153D01*
X4068776Y-36436539D01*
X4071916Y-36436500D01*
X5635960Y-36436500D01*
X5635961Y-36436500D01*
X5662153Y-36428809D01*
X5679436Y-36425050D01*
X5683882Y-36424410D01*
X5706457Y-36421165D01*
X5731287Y-36409824D01*
X5747862Y-36403642D01*
X5774053Y-36395953D01*
X5797020Y-36381192D01*
X5812540Y-36372717D01*
X5837373Y-36361377D01*
X5858006Y-36343497D01*
X5872148Y-36332910D01*
X5895128Y-36318143D01*
X5895131Y-36318138D01*
X5901831Y-36312334D01*
X5903939Y-36314766D01*
X5949424Y-36285527D01*
X6019293Y-36285518D01*
X6065575Y-36310786D01*
X6123961Y-36361377D01*
X6254877Y-36421165D01*
X6361535Y-36436500D01*
X6361538Y-36436500D01*
X6433130Y-36436500D01*
X6433133Y-36436500D01*
X6539791Y-36421165D01*
X6670707Y-36361377D01*
X6732799Y-36307573D01*
X6796352Y-36278550D01*
X6865511Y-36288493D01*
X6895202Y-36307575D01*
X6957289Y-36361374D01*
X6957292Y-36361375D01*
X6957294Y-36361377D01*
X7088210Y-36421165D01*
X7194868Y-36436500D01*
X7194871Y-36436500D01*
X7266463Y-36436500D01*
X7266466Y-36436500D01*
X7373124Y-36421165D01*
X7504040Y-36361377D01*
X7566132Y-36307573D01*
X7629685Y-36278550D01*
X7698844Y-36288493D01*
X7728535Y-36307575D01*
X7790622Y-36361374D01*
X7790625Y-36361375D01*
X7790627Y-36361377D01*
X7921543Y-36421165D01*
X8028201Y-36436500D01*
X8028204Y-36436500D01*
X8099796Y-36436500D01*
X8099799Y-36436500D01*
X8206457Y-36421165D01*
X8337373Y-36361377D01*
X8399467Y-36307572D01*
X8463019Y-36278549D01*
X8532178Y-36288492D01*
X8561864Y-36307570D01*
X8623961Y-36361377D01*
X8754877Y-36421165D01*
X8861535Y-36436500D01*
X8861538Y-36436500D01*
X8933130Y-36436500D01*
X8933133Y-36436500D01*
X9039791Y-36421165D01*
X9170707Y-36361377D01*
X9232799Y-36307573D01*
X9296352Y-36278550D01*
X9365511Y-36288493D01*
X9395202Y-36307575D01*
X9457289Y-36361374D01*
X9457292Y-36361375D01*
X9457294Y-36361377D01*
X9588210Y-36421165D01*
X9694868Y-36436500D01*
X9694871Y-36436500D01*
X9766463Y-36436500D01*
X9766466Y-36436500D01*
X9873124Y-36421165D01*
X10004040Y-36361377D01*
X10004042Y-36361374D01*
X10004044Y-36361374D01*
X10062423Y-36310788D01*
X10125978Y-36281762D01*
X10195137Y-36291705D01*
X10224805Y-36313916D01*
X10226173Y-36312338D01*
X10232870Y-36318141D01*
X10232872Y-36318143D01*
X10255844Y-36332905D01*
X10269996Y-36343500D01*
X10290627Y-36361377D01*
X10306084Y-36368436D01*
X10315451Y-36372714D01*
X10330978Y-36381192D01*
X10353947Y-36395953D01*
X10380136Y-36403643D01*
X10396713Y-36409826D01*
X10421538Y-36421163D01*
X10421539Y-36421163D01*
X10421543Y-36421165D01*
X10448564Y-36425050D01*
X10465846Y-36428809D01*
X10492039Y-36436500D01*
X13635960Y-36436500D01*
X13635961Y-36436500D01*
X13662153Y-36428809D01*
X13679436Y-36425050D01*
X13683882Y-36424410D01*
X13706457Y-36421165D01*
X13731287Y-36409824D01*
X13747862Y-36403642D01*
X13774053Y-36395953D01*
X13797020Y-36381192D01*
X13812540Y-36372717D01*
X13837373Y-36361377D01*
X13858006Y-36343497D01*
X13872148Y-36332910D01*
X13895128Y-36318143D01*
X13895131Y-36318138D01*
X13901831Y-36312334D01*
X13903939Y-36314766D01*
X13949424Y-36285527D01*
X14019293Y-36285518D01*
X14065575Y-36310786D01*
X14123961Y-36361377D01*
X14254877Y-36421165D01*
X14361535Y-36436500D01*
X14361538Y-36436500D01*
X14433130Y-36436500D01*
X14433133Y-36436500D01*
X14539791Y-36421165D01*
X14670707Y-36361377D01*
X14732799Y-36307573D01*
X14796352Y-36278550D01*
X14865511Y-36288493D01*
X14895202Y-36307575D01*
X14957289Y-36361374D01*
X14957292Y-36361375D01*
X14957294Y-36361377D01*
X15088210Y-36421165D01*
X15194868Y-36436500D01*
X15194871Y-36436500D01*
X15266463Y-36436500D01*
X15266466Y-36436500D01*
X15373124Y-36421165D01*
X15504040Y-36361377D01*
X15566132Y-36307573D01*
X15629685Y-36278550D01*
X15698844Y-36288493D01*
X15728535Y-36307575D01*
X15790622Y-36361374D01*
X15790625Y-36361375D01*
X15790627Y-36361377D01*
X15921543Y-36421165D01*
X16028201Y-36436500D01*
X16028204Y-36436500D01*
X16099796Y-36436500D01*
X16099799Y-36436500D01*
X16206457Y-36421165D01*
X16337373Y-36361377D01*
X16399467Y-36307572D01*
X16463019Y-36278549D01*
X16532178Y-36288492D01*
X16561864Y-36307570D01*
X16623961Y-36361377D01*
X16754877Y-36421165D01*
X16861535Y-36436500D01*
X16861538Y-36436500D01*
X16933130Y-36436500D01*
X16933133Y-36436500D01*
X17039791Y-36421165D01*
X17170707Y-36361377D01*
X17232799Y-36307573D01*
X17296352Y-36278550D01*
X17365511Y-36288493D01*
X17395202Y-36307575D01*
X17457289Y-36361374D01*
X17457292Y-36361375D01*
X17457294Y-36361377D01*
X17588210Y-36421165D01*
X17694868Y-36436500D01*
X17694871Y-36436500D01*
X17766463Y-36436500D01*
X17766466Y-36436500D01*
X17873124Y-36421165D01*
X18004040Y-36361377D01*
X18004042Y-36361374D01*
X18004044Y-36361374D01*
X18062423Y-36310788D01*
X18125978Y-36281762D01*
X18195137Y-36291705D01*
X18224805Y-36313916D01*
X18226173Y-36312338D01*
X18232870Y-36318141D01*
X18232872Y-36318143D01*
X18255844Y-36332905D01*
X18269996Y-36343500D01*
X18290627Y-36361377D01*
X18306084Y-36368436D01*
X18315451Y-36372714D01*
X18330978Y-36381192D01*
X18353947Y-36395953D01*
X18380136Y-36403643D01*
X18396713Y-36409826D01*
X18421538Y-36421163D01*
X18421539Y-36421163D01*
X18421543Y-36421165D01*
X18448564Y-36425050D01*
X18465846Y-36428809D01*
X18492039Y-36436500D01*
X21635960Y-36436500D01*
X21635961Y-36436500D01*
X21662153Y-36428809D01*
X21679436Y-36425050D01*
X21683882Y-36424410D01*
X21706457Y-36421165D01*
X21731287Y-36409824D01*
X21747862Y-36403642D01*
X21774053Y-36395953D01*
X21797020Y-36381192D01*
X21812540Y-36372717D01*
X21837373Y-36361377D01*
X21858006Y-36343497D01*
X21872148Y-36332910D01*
X21895128Y-36318143D01*
X21895131Y-36318138D01*
X21901831Y-36312334D01*
X21903939Y-36314766D01*
X21949424Y-36285527D01*
X22019293Y-36285518D01*
X22065575Y-36310786D01*
X22123961Y-36361377D01*
X22254877Y-36421165D01*
X22361535Y-36436500D01*
X22361538Y-36436500D01*
X22433130Y-36436500D01*
X22433133Y-36436500D01*
X22539791Y-36421165D01*
X22670707Y-36361377D01*
X22732799Y-36307573D01*
X22796352Y-36278550D01*
X22865511Y-36288493D01*
X22895202Y-36307575D01*
X22957289Y-36361374D01*
X22957292Y-36361375D01*
X22957294Y-36361377D01*
X23088210Y-36421165D01*
X23194868Y-36436500D01*
X23194871Y-36436500D01*
X23266463Y-36436500D01*
X23266466Y-36436500D01*
X23373124Y-36421165D01*
X23504040Y-36361377D01*
X23566132Y-36307573D01*
X23629685Y-36278550D01*
X23698844Y-36288493D01*
X23728535Y-36307575D01*
X23790622Y-36361374D01*
X23790625Y-36361375D01*
X23790627Y-36361377D01*
X23921543Y-36421165D01*
X24028201Y-36436500D01*
X24028204Y-36436500D01*
X24099796Y-36436500D01*
X24099799Y-36436500D01*
X24206457Y-36421165D01*
X24337373Y-36361377D01*
X24399465Y-36307573D01*
X24463018Y-36278550D01*
X24532177Y-36288493D01*
X24561868Y-36307575D01*
X24623955Y-36361374D01*
X24623958Y-36361375D01*
X24623960Y-36361377D01*
X24754876Y-36421165D01*
X24861534Y-36436500D01*
X24861537Y-36436500D01*
X24933129Y-36436500D01*
X24933132Y-36436500D01*
X25039790Y-36421165D01*
X25170706Y-36361377D01*
X25232798Y-36307573D01*
X25296351Y-36278550D01*
X25365510Y-36288493D01*
X25395201Y-36307575D01*
X25457288Y-36361374D01*
X25457291Y-36361375D01*
X25457293Y-36361377D01*
X25588209Y-36421165D01*
X25694867Y-36436500D01*
X25694870Y-36436500D01*
X25766462Y-36436500D01*
X25766465Y-36436500D01*
X25873123Y-36421165D01*
X26004039Y-36361377D01*
X26004041Y-36361374D01*
X26004043Y-36361374D01*
X26062422Y-36310788D01*
X26125977Y-36281762D01*
X26195136Y-36291705D01*
X26224809Y-36313911D01*
X26226173Y-36312338D01*
X26232870Y-36318141D01*
X26232872Y-36318143D01*
X26255844Y-36332905D01*
X26269996Y-36343500D01*
X26290627Y-36361377D01*
X26306084Y-36368436D01*
X26315451Y-36372714D01*
X26330978Y-36381192D01*
X26353947Y-36395953D01*
X26380136Y-36403643D01*
X26396713Y-36409826D01*
X26421538Y-36421163D01*
X26421539Y-36421163D01*
X26421543Y-36421165D01*
X26448564Y-36425050D01*
X26465846Y-36428809D01*
X26492039Y-36436500D01*
X29635960Y-36436500D01*
X29635961Y-36436500D01*
X29662153Y-36428809D01*
X29679436Y-36425050D01*
X29683882Y-36424410D01*
X29706457Y-36421165D01*
X29731287Y-36409824D01*
X29747862Y-36403642D01*
X29774053Y-36395953D01*
X29797020Y-36381192D01*
X29812540Y-36372717D01*
X29837373Y-36361377D01*
X29858006Y-36343497D01*
X29872148Y-36332910D01*
X29895128Y-36318143D01*
X29895131Y-36318138D01*
X29901831Y-36312334D01*
X29903943Y-36314772D01*
X29949379Y-36285540D01*
X30019249Y-36285505D01*
X30065574Y-36310786D01*
X30123960Y-36361377D01*
X30254876Y-36421165D01*
X30361534Y-36436500D01*
X30361537Y-36436500D01*
X30433129Y-36436500D01*
X30433132Y-36436500D01*
X30539790Y-36421165D01*
X30670706Y-36361377D01*
X30732798Y-36307573D01*
X30796351Y-36278550D01*
X30865510Y-36288493D01*
X30895201Y-36307575D01*
X30957288Y-36361374D01*
X30957291Y-36361375D01*
X30957293Y-36361377D01*
X31088209Y-36421165D01*
X31194867Y-36436500D01*
X31194870Y-36436500D01*
X31266462Y-36436500D01*
X31266465Y-36436500D01*
X31373123Y-36421165D01*
X31504039Y-36361377D01*
X31566133Y-36307572D01*
X31629685Y-36278549D01*
X31698844Y-36288492D01*
X31728530Y-36307570D01*
X31790627Y-36361377D01*
X31921543Y-36421165D01*
X32028201Y-36436500D01*
X32028204Y-36436500D01*
X32099796Y-36436500D01*
X32099799Y-36436500D01*
X32206457Y-36421165D01*
X32337373Y-36361377D01*
X32399465Y-36307573D01*
X32463018Y-36278550D01*
X32532177Y-36288493D01*
X32561868Y-36307575D01*
X32623955Y-36361374D01*
X32623958Y-36361375D01*
X32623960Y-36361377D01*
X32754876Y-36421165D01*
X32861534Y-36436500D01*
X32861537Y-36436500D01*
X32933129Y-36436500D01*
X32933132Y-36436500D01*
X33039790Y-36421165D01*
X33170706Y-36361377D01*
X33232798Y-36307573D01*
X33296351Y-36278550D01*
X33365510Y-36288493D01*
X33395201Y-36307575D01*
X33457288Y-36361374D01*
X33457291Y-36361375D01*
X33457293Y-36361377D01*
X33588209Y-36421165D01*
X33694867Y-36436500D01*
X33694870Y-36436500D01*
X33766462Y-36436500D01*
X33766465Y-36436500D01*
X33873123Y-36421165D01*
X34004039Y-36361377D01*
X34004041Y-36361374D01*
X34004043Y-36361374D01*
X34062422Y-36310788D01*
X34125977Y-36281762D01*
X34195136Y-36291705D01*
X34224809Y-36313911D01*
X34226173Y-36312338D01*
X34232870Y-36318141D01*
X34232872Y-36318143D01*
X34255844Y-36332905D01*
X34269996Y-36343500D01*
X34290627Y-36361377D01*
X34306084Y-36368436D01*
X34315451Y-36372714D01*
X34330978Y-36381192D01*
X34353947Y-36395953D01*
X34380136Y-36403643D01*
X34396713Y-36409826D01*
X34421538Y-36421163D01*
X34421539Y-36421163D01*
X34421543Y-36421165D01*
X34448564Y-36425050D01*
X34465846Y-36428809D01*
X34492039Y-36436500D01*
X37635960Y-36436500D01*
X37635961Y-36436500D01*
X37662153Y-36428809D01*
X37679436Y-36425050D01*
X37683882Y-36424410D01*
X37706457Y-36421165D01*
X37731287Y-36409824D01*
X37747862Y-36403642D01*
X37774053Y-36395953D01*
X37797020Y-36381192D01*
X37812540Y-36372717D01*
X37837373Y-36361377D01*
X37858006Y-36343497D01*
X37872148Y-36332910D01*
X37895128Y-36318143D01*
X37895131Y-36318138D01*
X37901831Y-36312334D01*
X37903943Y-36314772D01*
X37949379Y-36285540D01*
X38019249Y-36285505D01*
X38065574Y-36310786D01*
X38123960Y-36361377D01*
X38254876Y-36421165D01*
X38361534Y-36436500D01*
X38361537Y-36436500D01*
X38433129Y-36436500D01*
X38433132Y-36436500D01*
X38539790Y-36421165D01*
X38670706Y-36361377D01*
X38732798Y-36307573D01*
X38796351Y-36278550D01*
X38865510Y-36288493D01*
X38895201Y-36307575D01*
X38957288Y-36361374D01*
X38957291Y-36361375D01*
X38957293Y-36361377D01*
X39088209Y-36421165D01*
X39194867Y-36436500D01*
X39194870Y-36436500D01*
X39266462Y-36436500D01*
X39266465Y-36436500D01*
X39373123Y-36421165D01*
X39504039Y-36361377D01*
X39566133Y-36307572D01*
X39629685Y-36278549D01*
X39698844Y-36288492D01*
X39728530Y-36307570D01*
X39790627Y-36361377D01*
X39921543Y-36421165D01*
X40028201Y-36436500D01*
X40028204Y-36436500D01*
X40099796Y-36436500D01*
X40099799Y-36436500D01*
X40206457Y-36421165D01*
X40337373Y-36361377D01*
X40399465Y-36307573D01*
X40463018Y-36278550D01*
X40532177Y-36288493D01*
X40561868Y-36307575D01*
X40623955Y-36361374D01*
X40623958Y-36361375D01*
X40623960Y-36361377D01*
X40754876Y-36421165D01*
X40861534Y-36436500D01*
X40861537Y-36436500D01*
X40933129Y-36436500D01*
X40933132Y-36436500D01*
X41039790Y-36421165D01*
X41170706Y-36361377D01*
X41232798Y-36307573D01*
X41296351Y-36278550D01*
X41365510Y-36288493D01*
X41395201Y-36307575D01*
X41457288Y-36361374D01*
X41457291Y-36361375D01*
X41457293Y-36361377D01*
X41588209Y-36421165D01*
X41694867Y-36436500D01*
X41694870Y-36436500D01*
X41766462Y-36436500D01*
X41766465Y-36436500D01*
X41873123Y-36421165D01*
X42004039Y-36361377D01*
X42066133Y-36307572D01*
X42129685Y-36278549D01*
X42198844Y-36288492D01*
X42228530Y-36307570D01*
X42290627Y-36361377D01*
X42421543Y-36421165D01*
X42528201Y-36436500D01*
X42528204Y-36436500D01*
X42599796Y-36436500D01*
X42599799Y-36436500D01*
X42706457Y-36421165D01*
X42821916Y-36368435D01*
X42891075Y-36358492D01*
X42924940Y-36368436D01*
X43022464Y-36412974D01*
X43040400Y-36421165D01*
X43147058Y-36436500D01*
X43147061Y-36436500D01*
X43218653Y-36436500D01*
X43218656Y-36436500D01*
X43325314Y-36421165D01*
X43456230Y-36361377D01*
X43542013Y-36287045D01*
X43605567Y-36258022D01*
X43674725Y-36267966D01*
G37*
%TD.AperFunction*%
%TD*%
%TA.AperFunction,Conductor*%
%TO.N,Board_1-Board_1-GND*%
G36*
X54684295Y-36267966D02*
G01*
X54713982Y-36287044D01*
X54799768Y-36361377D01*
X54930684Y-36421165D01*
X55037342Y-36436500D01*
X55037345Y-36436500D01*
X55108937Y-36436500D01*
X55108940Y-36436500D01*
X55215598Y-36421165D01*
X55331059Y-36368434D01*
X55400216Y-36358491D01*
X55434081Y-36368434D01*
X55549543Y-36421165D01*
X55656201Y-36436500D01*
X55656204Y-36436500D01*
X55727796Y-36436500D01*
X55727799Y-36436500D01*
X55834457Y-36421165D01*
X55965373Y-36361377D01*
X56027467Y-36307572D01*
X56091019Y-36278549D01*
X56160178Y-36288492D01*
X56189864Y-36307570D01*
X56251961Y-36361377D01*
X56382877Y-36421165D01*
X56489535Y-36436500D01*
X56489538Y-36436500D01*
X56561130Y-36436500D01*
X56561133Y-36436500D01*
X56667791Y-36421165D01*
X56798707Y-36361377D01*
X56860799Y-36307573D01*
X56924352Y-36278550D01*
X56993511Y-36288493D01*
X57023202Y-36307575D01*
X57085289Y-36361374D01*
X57085292Y-36361375D01*
X57085294Y-36361377D01*
X57216210Y-36421165D01*
X57322868Y-36436500D01*
X57322871Y-36436500D01*
X57394463Y-36436500D01*
X57394466Y-36436500D01*
X57501124Y-36421165D01*
X57632040Y-36361377D01*
X57694132Y-36307573D01*
X57757685Y-36278550D01*
X57826844Y-36288493D01*
X57856535Y-36307575D01*
X57918622Y-36361374D01*
X57918625Y-36361375D01*
X57918627Y-36361377D01*
X58049543Y-36421165D01*
X58156201Y-36436500D01*
X58156204Y-36436500D01*
X58227796Y-36436500D01*
X58227799Y-36436500D01*
X58334457Y-36421165D01*
X58465373Y-36361377D01*
X58527467Y-36307572D01*
X58591019Y-36278549D01*
X58660178Y-36288492D01*
X58689864Y-36307570D01*
X58751961Y-36361377D01*
X58882877Y-36421165D01*
X58989535Y-36436500D01*
X58989538Y-36436500D01*
X59061130Y-36436500D01*
X59061133Y-36436500D01*
X59167791Y-36421165D01*
X59298707Y-36361377D01*
X59360799Y-36307573D01*
X59424352Y-36278550D01*
X59493511Y-36288493D01*
X59523202Y-36307575D01*
X59585289Y-36361374D01*
X59585292Y-36361375D01*
X59585294Y-36361377D01*
X59716210Y-36421165D01*
X59822868Y-36436500D01*
X59822871Y-36436500D01*
X59894463Y-36436500D01*
X59894466Y-36436500D01*
X60001124Y-36421165D01*
X60132040Y-36361377D01*
X60132042Y-36361374D01*
X60132044Y-36361374D01*
X60185832Y-36314766D01*
X60190423Y-36310787D01*
X60253978Y-36281762D01*
X60323137Y-36291705D01*
X60352805Y-36313916D01*
X60354173Y-36312338D01*
X60360870Y-36318141D01*
X60360872Y-36318143D01*
X60383844Y-36332905D01*
X60397996Y-36343500D01*
X60418627Y-36361377D01*
X60434082Y-36368435D01*
X60443451Y-36372714D01*
X60458978Y-36381192D01*
X60481947Y-36395953D01*
X60508136Y-36403643D01*
X60524713Y-36409826D01*
X60549538Y-36421163D01*
X60549539Y-36421163D01*
X60549543Y-36421165D01*
X60576564Y-36425050D01*
X60593846Y-36428809D01*
X60620039Y-36436500D01*
X63763960Y-36436500D01*
X63763961Y-36436500D01*
X63790153Y-36428809D01*
X63807436Y-36425050D01*
X63811882Y-36424410D01*
X63834457Y-36421165D01*
X63859287Y-36409824D01*
X63875862Y-36403642D01*
X63902053Y-36395953D01*
X63925020Y-36381192D01*
X63940540Y-36372717D01*
X63965373Y-36361377D01*
X63986006Y-36343497D01*
X64000148Y-36332910D01*
X64023128Y-36318143D01*
X64023131Y-36318138D01*
X64029831Y-36312334D01*
X64031939Y-36314766D01*
X64077424Y-36285527D01*
X64147293Y-36285518D01*
X64193575Y-36310786D01*
X64251961Y-36361377D01*
X64382877Y-36421165D01*
X64489535Y-36436500D01*
X64489538Y-36436500D01*
X64561130Y-36436500D01*
X64561133Y-36436500D01*
X64667791Y-36421165D01*
X64798707Y-36361377D01*
X64860799Y-36307573D01*
X64924352Y-36278550D01*
X64993511Y-36288493D01*
X65023202Y-36307575D01*
X65085289Y-36361374D01*
X65085292Y-36361375D01*
X65085294Y-36361377D01*
X65216210Y-36421165D01*
X65322868Y-36436500D01*
X65322871Y-36436500D01*
X65394463Y-36436500D01*
X65394466Y-36436500D01*
X65501124Y-36421165D01*
X65632040Y-36361377D01*
X65694132Y-36307573D01*
X65757685Y-36278550D01*
X65826844Y-36288493D01*
X65856535Y-36307575D01*
X65918622Y-36361374D01*
X65918625Y-36361375D01*
X65918627Y-36361377D01*
X66049543Y-36421165D01*
X66156201Y-36436500D01*
X66156204Y-36436500D01*
X66227796Y-36436500D01*
X66227799Y-36436500D01*
X66334457Y-36421165D01*
X66465373Y-36361377D01*
X66527467Y-36307572D01*
X66591019Y-36278549D01*
X66660178Y-36288492D01*
X66689864Y-36307570D01*
X66751961Y-36361377D01*
X66882877Y-36421165D01*
X66989535Y-36436500D01*
X66989538Y-36436500D01*
X67061130Y-36436500D01*
X67061133Y-36436500D01*
X67167791Y-36421165D01*
X67298707Y-36361377D01*
X67360799Y-36307573D01*
X67424352Y-36278550D01*
X67493511Y-36288493D01*
X67523202Y-36307575D01*
X67585289Y-36361374D01*
X67585292Y-36361375D01*
X67585294Y-36361377D01*
X67716210Y-36421165D01*
X67822868Y-36436500D01*
X67822871Y-36436500D01*
X67894463Y-36436500D01*
X67894466Y-36436500D01*
X68001124Y-36421165D01*
X68132040Y-36361377D01*
X68132042Y-36361374D01*
X68132044Y-36361374D01*
X68185832Y-36314766D01*
X68190423Y-36310787D01*
X68253978Y-36281762D01*
X68323137Y-36291705D01*
X68352805Y-36313916D01*
X68354173Y-36312338D01*
X68360870Y-36318141D01*
X68360872Y-36318143D01*
X68383844Y-36332905D01*
X68397996Y-36343500D01*
X68418627Y-36361377D01*
X68434082Y-36368435D01*
X68443451Y-36372714D01*
X68458978Y-36381192D01*
X68481947Y-36395953D01*
X68508136Y-36403643D01*
X68524713Y-36409826D01*
X68549538Y-36421163D01*
X68549539Y-36421163D01*
X68549543Y-36421165D01*
X68576564Y-36425050D01*
X68593846Y-36428809D01*
X68620039Y-36436500D01*
X71763960Y-36436500D01*
X71763961Y-36436500D01*
X71790153Y-36428809D01*
X71807436Y-36425050D01*
X71811882Y-36424410D01*
X71834457Y-36421165D01*
X71859287Y-36409824D01*
X71875862Y-36403642D01*
X71902053Y-36395953D01*
X71925020Y-36381192D01*
X71940540Y-36372717D01*
X71965373Y-36361377D01*
X71986006Y-36343497D01*
X72000148Y-36332910D01*
X72023128Y-36318143D01*
X72023131Y-36318138D01*
X72029831Y-36312334D01*
X72031939Y-36314766D01*
X72077424Y-36285527D01*
X72147293Y-36285518D01*
X72193575Y-36310786D01*
X72251961Y-36361377D01*
X72382877Y-36421165D01*
X72489535Y-36436500D01*
X72489538Y-36436500D01*
X72561130Y-36436500D01*
X72561133Y-36436500D01*
X72667791Y-36421165D01*
X72798707Y-36361377D01*
X72860799Y-36307573D01*
X72924352Y-36278550D01*
X72993511Y-36288493D01*
X73023202Y-36307575D01*
X73085289Y-36361374D01*
X73085292Y-36361375D01*
X73085294Y-36361377D01*
X73216210Y-36421165D01*
X73322868Y-36436500D01*
X73322871Y-36436500D01*
X73394463Y-36436500D01*
X73394466Y-36436500D01*
X73501124Y-36421165D01*
X73632040Y-36361377D01*
X73694132Y-36307573D01*
X73757685Y-36278550D01*
X73826844Y-36288493D01*
X73856535Y-36307575D01*
X73918622Y-36361374D01*
X73918625Y-36361375D01*
X73918627Y-36361377D01*
X74049543Y-36421165D01*
X74156201Y-36436500D01*
X74156204Y-36436500D01*
X74227796Y-36436500D01*
X74227799Y-36436500D01*
X74334457Y-36421165D01*
X74465373Y-36361377D01*
X74527465Y-36307573D01*
X74591018Y-36278550D01*
X74660177Y-36288493D01*
X74689868Y-36307575D01*
X74751955Y-36361374D01*
X74751958Y-36361375D01*
X74751960Y-36361377D01*
X74882876Y-36421165D01*
X74989534Y-36436500D01*
X74989537Y-36436500D01*
X75061129Y-36436500D01*
X75061132Y-36436500D01*
X75167790Y-36421165D01*
X75298706Y-36361377D01*
X75360798Y-36307573D01*
X75424351Y-36278550D01*
X75493510Y-36288493D01*
X75523201Y-36307575D01*
X75585288Y-36361374D01*
X75585291Y-36361375D01*
X75585293Y-36361377D01*
X75716209Y-36421165D01*
X75822867Y-36436500D01*
X75822870Y-36436500D01*
X75894462Y-36436500D01*
X75894465Y-36436500D01*
X76001123Y-36421165D01*
X76132039Y-36361377D01*
X76132041Y-36361374D01*
X76132043Y-36361374D01*
X76185831Y-36314766D01*
X76190422Y-36310787D01*
X76253977Y-36281762D01*
X76323136Y-36291705D01*
X76352809Y-36313911D01*
X76354173Y-36312338D01*
X76360870Y-36318141D01*
X76360872Y-36318143D01*
X76383844Y-36332905D01*
X76397996Y-36343500D01*
X76418627Y-36361377D01*
X76434082Y-36368435D01*
X76443451Y-36372714D01*
X76458978Y-36381192D01*
X76481947Y-36395953D01*
X76508136Y-36403643D01*
X76524713Y-36409826D01*
X76549538Y-36421163D01*
X76549539Y-36421163D01*
X76549543Y-36421165D01*
X76576564Y-36425050D01*
X76593846Y-36428809D01*
X76620039Y-36436500D01*
X79763960Y-36436500D01*
X79763961Y-36436500D01*
X79790153Y-36428809D01*
X79807436Y-36425050D01*
X79811882Y-36424410D01*
X79834457Y-36421165D01*
X79859287Y-36409824D01*
X79875862Y-36403642D01*
X79902053Y-36395953D01*
X79925020Y-36381192D01*
X79940540Y-36372717D01*
X79965373Y-36361377D01*
X79986006Y-36343497D01*
X80000148Y-36332910D01*
X80023128Y-36318143D01*
X80023131Y-36318138D01*
X80029831Y-36312334D01*
X80031943Y-36314772D01*
X80077379Y-36285540D01*
X80147249Y-36285505D01*
X80193574Y-36310786D01*
X80251960Y-36361377D01*
X80382876Y-36421165D01*
X80489534Y-36436500D01*
X80489537Y-36436500D01*
X80561129Y-36436500D01*
X80561132Y-36436500D01*
X80667790Y-36421165D01*
X80798706Y-36361377D01*
X80860798Y-36307573D01*
X80924351Y-36278550D01*
X80993510Y-36288493D01*
X81023201Y-36307575D01*
X81085288Y-36361374D01*
X81085291Y-36361375D01*
X81085293Y-36361377D01*
X81216209Y-36421165D01*
X81322867Y-36436500D01*
X81322870Y-36436500D01*
X81394462Y-36436500D01*
X81394465Y-36436500D01*
X81501123Y-36421165D01*
X81632039Y-36361377D01*
X81694133Y-36307572D01*
X81757685Y-36278549D01*
X81826844Y-36288492D01*
X81856530Y-36307570D01*
X81918627Y-36361377D01*
X82049543Y-36421165D01*
X82156201Y-36436500D01*
X82156204Y-36436500D01*
X82227796Y-36436500D01*
X82227799Y-36436500D01*
X82334457Y-36421165D01*
X82465373Y-36361377D01*
X82527465Y-36307573D01*
X82591018Y-36278550D01*
X82660177Y-36288493D01*
X82689868Y-36307575D01*
X82751955Y-36361374D01*
X82751958Y-36361375D01*
X82751960Y-36361377D01*
X82882876Y-36421165D01*
X82989534Y-36436500D01*
X82989537Y-36436500D01*
X83061129Y-36436500D01*
X83061132Y-36436500D01*
X83167790Y-36421165D01*
X83298706Y-36361377D01*
X83360798Y-36307573D01*
X83424351Y-36278550D01*
X83493510Y-36288493D01*
X83523201Y-36307575D01*
X83585288Y-36361374D01*
X83585291Y-36361375D01*
X83585293Y-36361377D01*
X83716209Y-36421165D01*
X83822867Y-36436500D01*
X83822870Y-36436500D01*
X83894462Y-36436500D01*
X83894465Y-36436500D01*
X84001123Y-36421165D01*
X84132039Y-36361377D01*
X84132041Y-36361374D01*
X84132043Y-36361374D01*
X84185831Y-36314766D01*
X84190422Y-36310787D01*
X84253977Y-36281762D01*
X84323136Y-36291705D01*
X84352809Y-36313911D01*
X84354173Y-36312338D01*
X84360870Y-36318141D01*
X84360872Y-36318143D01*
X84383844Y-36332905D01*
X84397996Y-36343500D01*
X84418627Y-36361377D01*
X84434082Y-36368435D01*
X84443451Y-36372714D01*
X84458978Y-36381192D01*
X84481947Y-36395953D01*
X84508136Y-36403643D01*
X84524713Y-36409826D01*
X84549538Y-36421163D01*
X84549539Y-36421163D01*
X84549543Y-36421165D01*
X84576564Y-36425050D01*
X84593846Y-36428809D01*
X84620039Y-36436500D01*
X87763960Y-36436500D01*
X87763961Y-36436500D01*
X87790153Y-36428809D01*
X87807436Y-36425050D01*
X87811882Y-36424410D01*
X87834457Y-36421165D01*
X87859287Y-36409824D01*
X87875862Y-36403642D01*
X87902053Y-36395953D01*
X87925020Y-36381192D01*
X87940540Y-36372717D01*
X87965373Y-36361377D01*
X87986006Y-36343497D01*
X88000148Y-36332910D01*
X88023128Y-36318143D01*
X88023131Y-36318138D01*
X88029831Y-36312334D01*
X88031943Y-36314772D01*
X88077379Y-36285540D01*
X88147249Y-36285505D01*
X88193574Y-36310786D01*
X88251960Y-36361377D01*
X88382876Y-36421165D01*
X88489534Y-36436500D01*
X88489537Y-36436500D01*
X88561129Y-36436500D01*
X88561132Y-36436500D01*
X88667790Y-36421165D01*
X88798706Y-36361377D01*
X88860798Y-36307573D01*
X88924351Y-36278550D01*
X88993510Y-36288493D01*
X89023201Y-36307575D01*
X89085288Y-36361374D01*
X89085291Y-36361375D01*
X89085293Y-36361377D01*
X89216209Y-36421165D01*
X89322867Y-36436500D01*
X89322870Y-36436500D01*
X89394462Y-36436500D01*
X89394465Y-36436500D01*
X89501123Y-36421165D01*
X89632039Y-36361377D01*
X89694133Y-36307572D01*
X89757685Y-36278549D01*
X89826844Y-36288492D01*
X89856530Y-36307570D01*
X89918627Y-36361377D01*
X90049543Y-36421165D01*
X90156201Y-36436500D01*
X90156204Y-36436500D01*
X90227796Y-36436500D01*
X90227799Y-36436500D01*
X90334457Y-36421165D01*
X90465373Y-36361377D01*
X90527465Y-36307573D01*
X90591018Y-36278550D01*
X90660177Y-36288493D01*
X90689868Y-36307575D01*
X90751955Y-36361374D01*
X90751958Y-36361375D01*
X90751960Y-36361377D01*
X90882876Y-36421165D01*
X90989534Y-36436500D01*
X90989537Y-36436500D01*
X91061129Y-36436500D01*
X91061132Y-36436500D01*
X91167790Y-36421165D01*
X91298706Y-36361377D01*
X91360798Y-36307573D01*
X91424351Y-36278550D01*
X91493510Y-36288493D01*
X91523201Y-36307575D01*
X91585288Y-36361374D01*
X91585291Y-36361375D01*
X91585293Y-36361377D01*
X91716209Y-36421165D01*
X91822867Y-36436500D01*
X91822870Y-36436500D01*
X91894462Y-36436500D01*
X91894465Y-36436500D01*
X92001123Y-36421165D01*
X92132039Y-36361377D01*
X92132041Y-36361374D01*
X92132043Y-36361374D01*
X92185831Y-36314766D01*
X92190422Y-36310787D01*
X92253977Y-36281762D01*
X92323136Y-36291705D01*
X92352809Y-36313911D01*
X92354173Y-36312338D01*
X92360870Y-36318141D01*
X92360872Y-36318143D01*
X92383844Y-36332905D01*
X92397996Y-36343500D01*
X92418627Y-36361377D01*
X92434082Y-36368435D01*
X92443451Y-36372714D01*
X92458978Y-36381192D01*
X92481947Y-36395953D01*
X92508136Y-36403643D01*
X92524713Y-36409826D01*
X92549538Y-36421163D01*
X92549539Y-36421163D01*
X92549543Y-36421165D01*
X92576564Y-36425050D01*
X92593846Y-36428809D01*
X92620039Y-36436500D01*
X92656201Y-36436500D01*
X94184084Y-36436500D01*
X94187223Y-36436539D01*
X94369334Y-36441153D01*
X94375595Y-36441470D01*
X94549380Y-36454704D01*
X94555575Y-36455334D01*
X94728521Y-36477359D01*
X94734634Y-36478296D01*
X94906219Y-36509050D01*
X94912334Y-36510307D01*
X95082100Y-36549702D01*
X95088150Y-36551268D01*
X95255730Y-36599219D01*
X95261705Y-36601094D01*
X95426615Y-36657461D01*
X95432478Y-36659632D01*
X95594324Y-36724282D01*
X95600071Y-36726749D01*
X95600088Y-36726757D01*
X95758398Y-36799496D01*
X95764039Y-36802262D01*
X95918508Y-36882950D01*
X95924001Y-36885999D01*
X96074176Y-36974402D01*
X96079507Y-36977725D01*
X96225002Y-37073613D01*
X96230135Y-37077185D01*
X96370656Y-37180373D01*
X96375535Y-37184149D01*
X96510639Y-37294312D01*
X96515386Y-37298387D01*
X96644687Y-37415207D01*
X96649240Y-37419535D01*
X96772462Y-37542757D01*
X96776790Y-37547310D01*
X96893610Y-37676611D01*
X96897688Y-37681361D01*
X97007843Y-37816457D01*
X97011629Y-37821346D01*
X97114806Y-37961854D01*
X97118384Y-37966995D01*
X97214272Y-38112490D01*
X97217595Y-38117821D01*
X97305998Y-38267996D01*
X97309047Y-38273489D01*
X97389735Y-38427958D01*
X97392501Y-38433599D01*
X97465240Y-38591908D01*
X97467718Y-38597681D01*
X97532361Y-38759512D01*
X97534543Y-38765404D01*
X97590899Y-38930279D01*
X97592780Y-38936273D01*
X97640726Y-39103834D01*
X97642300Y-39109916D01*
X97681686Y-39279642D01*
X97682951Y-39285797D01*
X97713695Y-39457335D01*
X97714646Y-39463544D01*
X97736658Y-39636377D01*
X97737294Y-39642628D01*
X97750526Y-39816400D01*
X97750844Y-39822672D01*
X97755460Y-40004750D01*
X97755500Y-40007893D01*
X97755500Y-64992105D01*
X97755460Y-64995248D01*
X97750844Y-65177325D01*
X97750526Y-65183597D01*
X97737294Y-65357369D01*
X97736658Y-65363620D01*
X97714646Y-65536453D01*
X97713695Y-65542662D01*
X97682951Y-65714200D01*
X97681686Y-65720355D01*
X97642300Y-65890081D01*
X97640726Y-65896163D01*
X97592780Y-66063724D01*
X97590899Y-66069718D01*
X97534543Y-66234593D01*
X97532361Y-66240485D01*
X97467718Y-66402316D01*
X97465240Y-66408089D01*
X97392501Y-66566398D01*
X97389735Y-66572039D01*
X97309047Y-66726508D01*
X97305998Y-66732001D01*
X97217595Y-66882176D01*
X97214272Y-66887507D01*
X97118384Y-67033002D01*
X97114795Y-67038159D01*
X97011643Y-67178631D01*
X97007844Y-67183540D01*
X96910196Y-67303296D01*
X96897703Y-67318619D01*
X96893610Y-67323386D01*
X96776790Y-67452687D01*
X96772462Y-67457240D01*
X96649240Y-67580462D01*
X96644687Y-67584790D01*
X96515386Y-67701610D01*
X96510619Y-67705703D01*
X96375559Y-67815828D01*
X96370631Y-67819643D01*
X96243724Y-67912833D01*
X96230159Y-67922795D01*
X96225002Y-67926384D01*
X96079507Y-68022272D01*
X96074176Y-68025595D01*
X95924001Y-68113998D01*
X95918508Y-68117047D01*
X95764039Y-68197735D01*
X95758398Y-68200501D01*
X95600084Y-68273242D01*
X95594311Y-68275720D01*
X95432492Y-68340359D01*
X95426600Y-68342541D01*
X95261714Y-68398900D01*
X95255720Y-68400781D01*
X95088166Y-68448725D01*
X95082084Y-68450299D01*
X94912353Y-68489686D01*
X94906199Y-68490951D01*
X94734664Y-68521696D01*
X94728482Y-68522643D01*
X94555617Y-68544658D01*
X94549372Y-68545293D01*
X94375597Y-68558526D01*
X94369325Y-68558844D01*
X94193769Y-68563294D01*
X94187247Y-68563460D01*
X94184106Y-68563500D01*
X65887765Y-68563500D01*
X65820726Y-68543815D01*
X65774971Y-68491011D01*
X65765027Y-68421853D01*
X65794052Y-68358297D01*
X65817149Y-68337571D01*
X65996330Y-68213434D01*
X65996335Y-68213430D01*
X66155430Y-68054335D01*
X66155440Y-68054323D01*
X66283568Y-67869380D01*
X66283571Y-67869374D01*
X66376622Y-67664519D01*
X66431599Y-67446332D01*
X66441999Y-67314196D01*
X66442000Y-67314184D01*
X66442000Y-66750000D01*
X65625686Y-66750000D01*
X65651493Y-66709844D01*
X65692000Y-66571889D01*
X65692000Y-66428111D01*
X65651493Y-66290156D01*
X65625686Y-66250000D01*
X66441999Y-66250000D01*
X66441999Y-65685817D01*
X66441998Y-65685802D01*
X66431599Y-65553667D01*
X66376622Y-65335480D01*
X66283571Y-65130625D01*
X66283568Y-65130619D01*
X66155440Y-64945676D01*
X66155430Y-64945664D01*
X65996335Y-64786569D01*
X65996323Y-64786559D01*
X65811380Y-64658431D01*
X65811374Y-64658428D01*
X65606519Y-64565377D01*
X65388332Y-64510400D01*
X65256196Y-64500000D01*
X64442000Y-64500000D01*
X64442000Y-66000000D01*
X63942000Y-66000000D01*
X63942000Y-64500000D01*
X63127817Y-64500000D01*
X63127802Y-64500001D01*
X62995667Y-64510400D01*
X62777480Y-64565377D01*
X62572625Y-64658428D01*
X62572619Y-64658431D01*
X62387676Y-64786559D01*
X62387664Y-64786569D01*
X62228569Y-64945664D01*
X62228559Y-64945676D01*
X62100431Y-65130619D01*
X62100428Y-65130625D01*
X62007377Y-65335480D01*
X61952400Y-65553667D01*
X61942000Y-65685803D01*
X61942000Y-66250000D01*
X62758314Y-66250000D01*
X62732507Y-66290156D01*
X62692000Y-66428111D01*
X62692000Y-66571889D01*
X62732507Y-66709844D01*
X62758314Y-66750000D01*
X61942001Y-66750000D01*
X61942001Y-67314197D01*
X61952400Y-67446332D01*
X62007377Y-67664519D01*
X62100428Y-67869374D01*
X62100431Y-67869380D01*
X62228559Y-68054323D01*
X62228569Y-68054335D01*
X62387664Y-68213430D01*
X62387669Y-68213434D01*
X62566851Y-68337571D01*
X62610747Y-68391930D01*
X62618287Y-68461392D01*
X62587076Y-68523903D01*
X62527024Y-68559617D01*
X62496235Y-68563500D01*
X54199894Y-68563500D01*
X54196752Y-68563460D01*
X54190087Y-68563291D01*
X54014672Y-68558844D01*
X54008400Y-68558526D01*
X53834628Y-68545294D01*
X53828377Y-68544658D01*
X53655544Y-68522646D01*
X53649335Y-68521695D01*
X53477797Y-68490951D01*
X53471642Y-68489686D01*
X53301916Y-68450300D01*
X53295834Y-68448726D01*
X53128273Y-68400780D01*
X53122279Y-68398899D01*
X52957404Y-68342543D01*
X52951512Y-68340361D01*
X52789681Y-68275718D01*
X52783908Y-68273240D01*
X52625599Y-68200501D01*
X52619958Y-68197735D01*
X52465489Y-68117047D01*
X52459996Y-68113998D01*
X52309821Y-68025595D01*
X52304490Y-68022272D01*
X52158995Y-67926384D01*
X52153854Y-67922806D01*
X52013346Y-67819629D01*
X52008457Y-67815843D01*
X51873361Y-67705688D01*
X51868611Y-67701610D01*
X51739310Y-67584790D01*
X51734757Y-67580462D01*
X51611535Y-67457240D01*
X51607207Y-67452687D01*
X51555304Y-67395239D01*
X51490385Y-67323383D01*
X51486312Y-67318639D01*
X51376149Y-67183535D01*
X51372373Y-67178656D01*
X51269185Y-67038135D01*
X51265613Y-67033002D01*
X51169725Y-66887507D01*
X51166402Y-66882176D01*
X51077999Y-66732001D01*
X51074950Y-66726508D01*
X50994262Y-66572039D01*
X50991496Y-66566398D01*
X50927957Y-66428111D01*
X50918749Y-66408071D01*
X50916277Y-66402311D01*
X50915484Y-66400325D01*
X50851632Y-66240478D01*
X50849456Y-66234600D01*
X50810941Y-66121920D01*
X50793094Y-66069705D01*
X50791216Y-66063720D01*
X50756277Y-65941614D01*
X50743268Y-65896150D01*
X50741698Y-65890084D01*
X50702307Y-65720334D01*
X50701050Y-65714219D01*
X50670296Y-65542634D01*
X50669359Y-65536521D01*
X50647334Y-65363575D01*
X50646704Y-65357373D01*
X50646202Y-65350786D01*
X50633470Y-65183595D01*
X50633153Y-65177325D01*
X50632765Y-65162026D01*
X50631984Y-65131187D01*
X52441500Y-65131187D01*
X52451948Y-65200499D01*
X52480604Y-65390615D01*
X52480605Y-65390617D01*
X52480606Y-65390623D01*
X52557938Y-65641326D01*
X52671767Y-65877696D01*
X52671768Y-65877697D01*
X52671770Y-65877700D01*
X52671772Y-65877704D01*
X52802685Y-66069718D01*
X52819567Y-66094479D01*
X52998014Y-66286801D01*
X52998018Y-66286804D01*
X52998019Y-66286805D01*
X53203143Y-66450386D01*
X53430357Y-66581568D01*
X53674584Y-66677420D01*
X53930370Y-66735802D01*
X53930376Y-66735802D01*
X53930379Y-66735803D01*
X54126484Y-66750499D01*
X54126503Y-66750499D01*
X54126506Y-66750500D01*
X54126508Y-66750500D01*
X54257492Y-66750500D01*
X54257494Y-66750500D01*
X54257496Y-66750499D01*
X54257515Y-66750499D01*
X54453620Y-66735803D01*
X54453622Y-66735802D01*
X54453630Y-66735802D01*
X54709416Y-66677420D01*
X54953643Y-66581568D01*
X55180857Y-66450386D01*
X55385981Y-66286805D01*
X55564433Y-66094479D01*
X55712228Y-65877704D01*
X55826063Y-65641323D01*
X55903396Y-65390615D01*
X55942500Y-65131182D01*
X55942500Y-64868818D01*
X55903396Y-64609385D01*
X55826063Y-64358677D01*
X55768753Y-64239671D01*
X55712232Y-64122303D01*
X55712231Y-64122302D01*
X55712230Y-64122301D01*
X55712228Y-64122296D01*
X55564433Y-63905521D01*
X55516214Y-63853553D01*
X55385985Y-63713198D01*
X55225223Y-63584995D01*
X55180857Y-63549614D01*
X54953643Y-63418432D01*
X54709416Y-63322580D01*
X54709411Y-63322578D01*
X54709402Y-63322576D01*
X54491818Y-63272914D01*
X54453630Y-63264198D01*
X54453629Y-63264197D01*
X54453625Y-63264197D01*
X54453620Y-63264196D01*
X54257515Y-63249500D01*
X54257494Y-63249500D01*
X54126506Y-63249500D01*
X54126484Y-63249500D01*
X53930379Y-63264196D01*
X53930374Y-63264197D01*
X53674597Y-63322576D01*
X53674578Y-63322582D01*
X53430356Y-63418432D01*
X53203143Y-63549614D01*
X52998014Y-63713198D01*
X52819567Y-63905520D01*
X52671768Y-64122302D01*
X52671767Y-64122303D01*
X52557938Y-64358673D01*
X52480606Y-64609376D01*
X52480605Y-64609381D01*
X52480604Y-64609385D01*
X52465853Y-64707247D01*
X52441500Y-64868812D01*
X52441500Y-65131187D01*
X50631984Y-65131187D01*
X50628540Y-64995223D01*
X50628500Y-64992083D01*
X50628500Y-62297870D01*
X61941500Y-62297870D01*
X61941501Y-62297876D01*
X61947908Y-62357483D01*
X61998202Y-62492328D01*
X61998206Y-62492335D01*
X62084452Y-62607544D01*
X62084455Y-62607547D01*
X62199664Y-62693793D01*
X62199671Y-62693797D01*
X62334517Y-62744091D01*
X62334516Y-62744091D01*
X62341444Y-62744835D01*
X62394127Y-62750500D01*
X65989872Y-62750499D01*
X66049483Y-62744091D01*
X66184331Y-62693796D01*
X66299546Y-62607546D01*
X66385796Y-62492331D01*
X66404012Y-62443491D01*
X66445880Y-62387560D01*
X66511344Y-62363141D01*
X66579617Y-62377991D01*
X66629024Y-62427396D01*
X66644018Y-62493401D01*
X66642001Y-62531374D01*
X66642000Y-62531421D01*
X66642000Y-63250000D01*
X68392000Y-63250000D01*
X68392000Y-63750000D01*
X66642001Y-63750000D01*
X66642001Y-64468588D01*
X66644794Y-64521191D01*
X66689237Y-64750987D01*
X66771879Y-64969975D01*
X66890339Y-65171841D01*
X66890344Y-65171848D01*
X67041211Y-65350786D01*
X67041213Y-65350788D01*
X67220151Y-65501655D01*
X67220158Y-65501660D01*
X67422024Y-65620120D01*
X67641012Y-65702762D01*
X67870809Y-65747205D01*
X67923382Y-65749998D01*
X67923421Y-65749999D01*
X68641999Y-65749999D01*
X68642000Y-65749998D01*
X68642000Y-64933686D01*
X68682156Y-64959493D01*
X68820111Y-65000000D01*
X68963889Y-65000000D01*
X69101844Y-64959493D01*
X69142000Y-64933686D01*
X69142000Y-65749999D01*
X69860576Y-65749999D01*
X69860588Y-65749998D01*
X69913191Y-65747205D01*
X70142987Y-65702762D01*
X70361975Y-65620120D01*
X70563841Y-65501660D01*
X70563848Y-65501655D01*
X70742786Y-65350788D01*
X70742788Y-65350786D01*
X70893655Y-65171848D01*
X70893660Y-65171841D01*
X71012120Y-64969975D01*
X71094762Y-64750987D01*
X71139205Y-64521191D01*
X71139205Y-64521190D01*
X71140330Y-64500015D01*
X82491500Y-64500015D01*
X82502000Y-64602795D01*
X82502001Y-64602796D01*
X82557186Y-64769335D01*
X82557187Y-64769337D01*
X82649286Y-64918651D01*
X82649289Y-64918655D01*
X82773344Y-65042710D01*
X82773348Y-65042713D01*
X82922662Y-65134812D01*
X82922664Y-65134813D01*
X82922666Y-65134814D01*
X83089203Y-65189999D01*
X83191992Y-65200500D01*
X83191997Y-65200500D01*
X85192003Y-65200500D01*
X85192008Y-65200500D01*
X85294797Y-65189999D01*
X85461334Y-65134814D01*
X85610655Y-65042711D01*
X85734711Y-64918655D01*
X85826814Y-64769334D01*
X85881999Y-64602797D01*
X85892500Y-64500008D01*
X85892500Y-63500004D01*
X86447233Y-63500004D01*
X86466273Y-63754079D01*
X86522968Y-64002477D01*
X86522973Y-64002494D01*
X86616058Y-64239671D01*
X86616057Y-64239671D01*
X86743454Y-64460327D01*
X86743461Y-64460338D01*
X86785452Y-64512991D01*
X86785453Y-64512992D01*
X87511859Y-63786586D01*
X87571680Y-63900566D01*
X87684405Y-64027806D01*
X87824305Y-64124371D01*
X87865542Y-64140010D01*
X87138813Y-64866738D01*
X87299616Y-64976371D01*
X87299624Y-64976376D01*
X87529176Y-65086921D01*
X87529174Y-65086921D01*
X87772652Y-65162024D01*
X87772658Y-65162026D01*
X88024595Y-65199999D01*
X88024604Y-65200000D01*
X88279396Y-65200000D01*
X88279404Y-65199999D01*
X88531341Y-65162026D01*
X88531347Y-65162024D01*
X88631318Y-65131187D01*
X92441500Y-65131187D01*
X92451948Y-65200499D01*
X92480604Y-65390615D01*
X92480605Y-65390617D01*
X92480606Y-65390623D01*
X92557938Y-65641326D01*
X92671767Y-65877696D01*
X92671768Y-65877697D01*
X92671770Y-65877700D01*
X92671772Y-65877704D01*
X92802685Y-66069718D01*
X92819567Y-66094479D01*
X92998014Y-66286801D01*
X92998018Y-66286804D01*
X92998019Y-66286805D01*
X93203143Y-66450386D01*
X93430357Y-66581568D01*
X93674584Y-66677420D01*
X93930370Y-66735802D01*
X93930376Y-66735802D01*
X93930379Y-66735803D01*
X94126484Y-66750499D01*
X94126503Y-66750499D01*
X94126506Y-66750500D01*
X94126508Y-66750500D01*
X94257492Y-66750500D01*
X94257494Y-66750500D01*
X94257496Y-66750499D01*
X94257515Y-66750499D01*
X94453620Y-66735803D01*
X94453622Y-66735802D01*
X94453630Y-66735802D01*
X94709416Y-66677420D01*
X94953643Y-66581568D01*
X95180857Y-66450386D01*
X95385981Y-66286805D01*
X95564433Y-66094479D01*
X95712228Y-65877704D01*
X95826063Y-65641323D01*
X95903396Y-65390615D01*
X95942500Y-65131182D01*
X95942500Y-64868818D01*
X95903396Y-64609385D01*
X95826063Y-64358677D01*
X95768753Y-64239671D01*
X95712232Y-64122303D01*
X95712231Y-64122302D01*
X95712230Y-64122301D01*
X95712228Y-64122296D01*
X95564433Y-63905521D01*
X95516214Y-63853553D01*
X95385985Y-63713198D01*
X95225223Y-63584995D01*
X95180857Y-63549614D01*
X94953643Y-63418432D01*
X94709416Y-63322580D01*
X94709411Y-63322578D01*
X94709402Y-63322576D01*
X94491818Y-63272914D01*
X94453630Y-63264198D01*
X94453629Y-63264197D01*
X94453625Y-63264197D01*
X94453620Y-63264196D01*
X94257515Y-63249500D01*
X94257494Y-63249500D01*
X94126506Y-63249500D01*
X94126484Y-63249500D01*
X93930379Y-63264196D01*
X93930374Y-63264197D01*
X93674597Y-63322576D01*
X93674578Y-63322582D01*
X93430356Y-63418432D01*
X93203143Y-63549614D01*
X92998014Y-63713198D01*
X92819567Y-63905520D01*
X92671768Y-64122302D01*
X92671767Y-64122303D01*
X92557938Y-64358673D01*
X92480606Y-64609376D01*
X92480605Y-64609381D01*
X92480604Y-64609385D01*
X92465853Y-64707247D01*
X92441500Y-64868812D01*
X92441500Y-65131187D01*
X88631318Y-65131187D01*
X88774824Y-65086921D01*
X89004376Y-64976376D01*
X89004377Y-64976375D01*
X89165185Y-64866738D01*
X88438457Y-64140010D01*
X88479695Y-64124371D01*
X88619595Y-64027806D01*
X88732320Y-63900566D01*
X88792139Y-63786587D01*
X89518544Y-64512992D01*
X89518546Y-64512991D01*
X89560544Y-64460330D01*
X89687941Y-64239671D01*
X89781026Y-64002494D01*
X89781031Y-64002477D01*
X89837726Y-63754079D01*
X89856767Y-63500004D01*
X89856767Y-63499995D01*
X89837726Y-63245920D01*
X89781031Y-62997522D01*
X89781026Y-62997505D01*
X89687941Y-62760328D01*
X89687942Y-62760328D01*
X89560545Y-62539672D01*
X89518545Y-62487006D01*
X88792139Y-63213412D01*
X88732320Y-63099434D01*
X88619595Y-62972194D01*
X88479695Y-62875629D01*
X88438457Y-62859989D01*
X89165185Y-62133260D01*
X89004384Y-62023628D01*
X89004376Y-62023623D01*
X88774823Y-61913078D01*
X88774825Y-61913078D01*
X88531347Y-61837975D01*
X88531341Y-61837973D01*
X88279404Y-61800000D01*
X88024595Y-61800000D01*
X87772658Y-61837973D01*
X87772652Y-61837975D01*
X87529175Y-61913078D01*
X87299622Y-62023625D01*
X87299609Y-62023632D01*
X87138813Y-62133259D01*
X87865543Y-62859989D01*
X87824305Y-62875629D01*
X87684405Y-62972194D01*
X87571680Y-63099434D01*
X87511859Y-63213413D01*
X86785452Y-62487006D01*
X86743457Y-62539667D01*
X86616058Y-62760328D01*
X86522973Y-62997505D01*
X86522968Y-62997522D01*
X86466273Y-63245920D01*
X86447233Y-63499995D01*
X86447233Y-63500004D01*
X85892500Y-63500004D01*
X85892500Y-62499992D01*
X85881999Y-62397203D01*
X85826814Y-62230666D01*
X85824491Y-62226900D01*
X85734713Y-62081348D01*
X85734710Y-62081344D01*
X85610655Y-61957289D01*
X85610651Y-61957286D01*
X85461337Y-61865187D01*
X85461335Y-61865186D01*
X85349570Y-61828151D01*
X85294797Y-61810001D01*
X85294795Y-61810000D01*
X85192015Y-61799500D01*
X85192008Y-61799500D01*
X83191992Y-61799500D01*
X83191984Y-61799500D01*
X83089204Y-61810000D01*
X83089203Y-61810001D01*
X82922664Y-61865186D01*
X82922662Y-61865187D01*
X82773348Y-61957286D01*
X82773344Y-61957289D01*
X82649289Y-62081344D01*
X82649286Y-62081348D01*
X82557187Y-62230662D01*
X82557186Y-62230664D01*
X82502001Y-62397203D01*
X82502000Y-62397204D01*
X82491500Y-62499984D01*
X82491500Y-64500015D01*
X71140330Y-64500015D01*
X71141998Y-64468617D01*
X71142000Y-64468578D01*
X71142000Y-63750000D01*
X69392000Y-63750000D01*
X69392000Y-63250000D01*
X71141999Y-63250000D01*
X71141999Y-62531423D01*
X71141998Y-62531411D01*
X71139205Y-62478808D01*
X71094762Y-62249012D01*
X71012120Y-62030024D01*
X70893660Y-61828158D01*
X70893655Y-61828151D01*
X70742788Y-61649213D01*
X70742786Y-61649211D01*
X70563848Y-61498344D01*
X70563841Y-61498339D01*
X70361975Y-61379879D01*
X70142987Y-61297237D01*
X69913190Y-61252794D01*
X69860617Y-61250001D01*
X69860579Y-61250000D01*
X69142000Y-61250000D01*
X69142000Y-62066313D01*
X69101844Y-62040507D01*
X68963889Y-62000000D01*
X68820111Y-62000000D01*
X68682156Y-62040507D01*
X68642000Y-62066313D01*
X68642000Y-61250000D01*
X67923423Y-61250000D01*
X67923411Y-61250001D01*
X67870808Y-61252794D01*
X67641012Y-61297237D01*
X67422024Y-61379879D01*
X67220158Y-61498339D01*
X67220151Y-61498344D01*
X67041213Y-61649211D01*
X67041211Y-61649213D01*
X66890344Y-61828151D01*
X66890339Y-61828158D01*
X66771879Y-62030024D01*
X66689236Y-62249014D01*
X66688241Y-62254161D01*
X66656179Y-62316240D01*
X66595644Y-62351130D01*
X66525856Y-62347754D01*
X66468972Y-62307184D01*
X66443052Y-62242300D01*
X66442499Y-62230624D01*
X66442499Y-58702128D01*
X66436091Y-58642517D01*
X66421972Y-58604663D01*
X66385797Y-58507671D01*
X66385793Y-58507664D01*
X66299547Y-58392455D01*
X66299544Y-58392452D01*
X66184335Y-58306206D01*
X66184328Y-58306202D01*
X66049482Y-58255908D01*
X66049483Y-58255908D01*
X65989883Y-58249501D01*
X65989881Y-58249500D01*
X65989873Y-58249500D01*
X65989864Y-58249500D01*
X62394129Y-58249500D01*
X62394123Y-58249501D01*
X62334516Y-58255908D01*
X62199671Y-58306202D01*
X62199664Y-58306206D01*
X62084455Y-58392452D01*
X62084452Y-58392455D01*
X61998206Y-58507664D01*
X61998202Y-58507671D01*
X61947908Y-58642517D01*
X61941501Y-58702116D01*
X61941501Y-58702123D01*
X61941500Y-58702135D01*
X61941500Y-62297870D01*
X50628500Y-62297870D01*
X50628500Y-58981372D01*
X50620809Y-58955179D01*
X50617050Y-58937897D01*
X50613165Y-58910879D01*
X50613165Y-58910876D01*
X50613163Y-58910871D01*
X50601826Y-58886046D01*
X50595643Y-58869469D01*
X50587953Y-58843281D01*
X50587953Y-58843279D01*
X50573192Y-58820311D01*
X50564714Y-58804784D01*
X50564005Y-58803232D01*
X50553377Y-58779960D01*
X50535500Y-58759329D01*
X50524905Y-58745177D01*
X50510143Y-58722205D01*
X50510142Y-58722204D01*
X50489510Y-58704325D01*
X50477006Y-58691821D01*
X50459128Y-58671190D01*
X50459122Y-58671185D01*
X50437776Y-58657467D01*
X50392021Y-58604663D01*
X50382077Y-58535505D01*
X50411102Y-58471949D01*
X50423613Y-58459439D01*
X50500917Y-58392455D01*
X50510143Y-58384461D01*
X50587953Y-58263386D01*
X50590149Y-58255909D01*
X50628499Y-58125296D01*
X50628500Y-58125295D01*
X50628500Y-57981371D01*
X50628499Y-57981369D01*
X50587954Y-57843282D01*
X50587953Y-57843280D01*
X50510143Y-57722205D01*
X50423403Y-57647045D01*
X50385629Y-57588269D01*
X50385629Y-57518399D01*
X50423403Y-57459621D01*
X50423404Y-57459620D01*
X50510143Y-57384461D01*
X50587953Y-57263386D01*
X50628500Y-57125294D01*
X50628500Y-56981372D01*
X50587953Y-56843280D01*
X50510143Y-56722205D01*
X50423611Y-56647225D01*
X50385837Y-56588447D01*
X50385837Y-56518577D01*
X50423611Y-56459799D01*
X50437771Y-56449200D01*
X50459128Y-56435476D01*
X50477015Y-56414832D01*
X50489499Y-56402348D01*
X50510143Y-56384461D01*
X50524910Y-56361481D01*
X50535497Y-56347339D01*
X50553377Y-56326706D01*
X50564717Y-56301873D01*
X50573192Y-56286353D01*
X50587953Y-56263386D01*
X50595642Y-56237195D01*
X50601824Y-56220620D01*
X50613165Y-56195790D01*
X50617050Y-56168769D01*
X50620809Y-56151486D01*
X50628500Y-56125294D01*
X50628500Y-55981372D01*
X50628500Y-47506867D01*
X50628500Y-47470705D01*
X50620809Y-47444512D01*
X50617050Y-47427230D01*
X50613165Y-47400212D01*
X50613165Y-47400209D01*
X50612841Y-47399500D01*
X50601826Y-47375379D01*
X50595643Y-47358802D01*
X50587953Y-47332614D01*
X50587953Y-47332612D01*
X50573192Y-47309644D01*
X50564714Y-47294117D01*
X50564005Y-47292565D01*
X50553377Y-47269293D01*
X50535500Y-47248662D01*
X50524905Y-47234510D01*
X50510143Y-47211538D01*
X50510142Y-47211537D01*
X50489510Y-47193658D01*
X50477006Y-47181154D01*
X50459128Y-47160523D01*
X50459122Y-47160518D01*
X50437776Y-47146800D01*
X50392021Y-47093996D01*
X50382077Y-47024838D01*
X50411102Y-46961282D01*
X50423613Y-46948772D01*
X50434400Y-46939425D01*
X50510143Y-46873794D01*
X50587953Y-46752719D01*
X50628500Y-46614627D01*
X50628500Y-46470705D01*
X50614681Y-46423642D01*
X50587954Y-46332615D01*
X50546773Y-46268536D01*
X50510143Y-46211538D01*
X50423403Y-46136378D01*
X50385629Y-46077602D01*
X50385629Y-46007732D01*
X50423403Y-45948954D01*
X50423404Y-45948953D01*
X50477112Y-45902415D01*
X50510143Y-45873794D01*
X50587953Y-45752719D01*
X50588024Y-45752479D01*
X50628499Y-45614629D01*
X50628500Y-45614628D01*
X50628500Y-45470704D01*
X50628499Y-45470702D01*
X50587954Y-45332615D01*
X50528102Y-45239483D01*
X50510143Y-45211538D01*
X50423611Y-45136558D01*
X50385837Y-45077780D01*
X50385837Y-45007910D01*
X50423611Y-44949132D01*
X50437771Y-44938533D01*
X50459128Y-44924809D01*
X50477015Y-44904165D01*
X50489499Y-44891681D01*
X50510143Y-44873794D01*
X50524910Y-44850814D01*
X50535497Y-44836672D01*
X50553377Y-44816039D01*
X50564717Y-44791206D01*
X50573192Y-44775686D01*
X50587953Y-44752719D01*
X50588751Y-44750001D01*
X60186532Y-44750001D01*
X60206364Y-44976686D01*
X60206366Y-44976697D01*
X60265258Y-45196488D01*
X60265261Y-45196497D01*
X60361431Y-45402732D01*
X60361432Y-45402734D01*
X60491954Y-45589141D01*
X60652858Y-45750045D01*
X60652861Y-45750047D01*
X60839266Y-45880568D01*
X61045504Y-45976739D01*
X61045509Y-45976740D01*
X61045511Y-45976741D01*
X61098415Y-45990916D01*
X61265308Y-46035635D01*
X61427230Y-46049801D01*
X61491998Y-46055468D01*
X61492000Y-46055468D01*
X61492002Y-46055468D01*
X61548673Y-46050509D01*
X61718692Y-46035635D01*
X61938496Y-45976739D01*
X62144734Y-45880568D01*
X62298465Y-45772924D01*
X62364671Y-45750598D01*
X62369588Y-45750500D01*
X71976217Y-45750500D01*
X72043256Y-45770185D01*
X72063898Y-45786819D01*
X73155181Y-46878102D01*
X73188666Y-46939425D01*
X73191500Y-46965783D01*
X73191500Y-47275500D01*
X73171815Y-47342539D01*
X73119011Y-47388294D01*
X73067500Y-47399500D01*
X71741257Y-47399500D01*
X71589560Y-47414925D01*
X71395420Y-47475837D01*
X71395405Y-47475844D01*
X71217500Y-47574589D01*
X71217495Y-47574592D01*
X71063106Y-47707132D01*
X71063104Y-47707134D01*
X70938554Y-47868037D01*
X70938553Y-47868040D01*
X70848940Y-48050728D01*
X70797937Y-48247714D01*
X70787631Y-48450936D01*
X70818442Y-48652063D01*
X70818445Y-48652075D01*
X70889111Y-48842881D01*
X70889115Y-48842888D01*
X70996745Y-49015567D01*
X70996747Y-49015569D01*
X70996748Y-49015571D01*
X71136941Y-49163053D01*
X71265344Y-49252424D01*
X71303949Y-49279294D01*
X71303950Y-49279294D01*
X71303951Y-49279295D01*
X71490942Y-49359540D01*
X71690259Y-49400500D01*
X73067500Y-49400500D01*
X73134539Y-49420185D01*
X73180294Y-49472989D01*
X73191500Y-49524500D01*
X73191500Y-49767209D01*
X73171815Y-49834248D01*
X73119011Y-49880003D01*
X73110833Y-49883391D01*
X73049671Y-49906202D01*
X73049664Y-49906206D01*
X72934455Y-49992452D01*
X72934452Y-49992455D01*
X72848206Y-50107664D01*
X72848202Y-50107671D01*
X72797908Y-50242517D01*
X72791501Y-50302116D01*
X72791501Y-50302123D01*
X72791500Y-50302135D01*
X72791500Y-52197870D01*
X72791501Y-52197876D01*
X72797908Y-52257483D01*
X72848202Y-52392328D01*
X72848206Y-52392335D01*
X72934452Y-52507544D01*
X72934455Y-52507547D01*
X73049664Y-52593793D01*
X73049673Y-52593798D01*
X73129904Y-52623722D01*
X73185838Y-52665593D01*
X73210256Y-52731057D01*
X73195405Y-52799330D01*
X73177802Y-52823886D01*
X73083019Y-52926849D01*
X72956075Y-53121151D01*
X72862842Y-53333699D01*
X72805866Y-53558691D01*
X72805864Y-53558702D01*
X72786700Y-53789993D01*
X72786700Y-53790006D01*
X72805864Y-54021297D01*
X72805866Y-54021308D01*
X72862842Y-54246300D01*
X72956075Y-54458848D01*
X73083016Y-54653147D01*
X73083019Y-54653151D01*
X73083021Y-54653153D01*
X73240216Y-54823913D01*
X73240219Y-54823915D01*
X73240222Y-54823918D01*
X73423365Y-54966464D01*
X73423371Y-54966468D01*
X73423374Y-54966470D01*
X73627497Y-55076936D01*
X73741487Y-55116068D01*
X73847015Y-55152297D01*
X73847017Y-55152297D01*
X73847019Y-55152298D01*
X74075951Y-55190500D01*
X74075952Y-55190500D01*
X74308048Y-55190500D01*
X74308049Y-55190500D01*
X74536981Y-55152298D01*
X74756503Y-55076936D01*
X74960626Y-54966470D01*
X75143784Y-54823913D01*
X75300979Y-54653153D01*
X75427924Y-54458849D01*
X75521157Y-54246300D01*
X75578134Y-54021305D01*
X75597300Y-53790000D01*
X75597300Y-53789993D01*
X75578135Y-53558702D01*
X75578133Y-53558691D01*
X75521157Y-53333699D01*
X75427924Y-53121151D01*
X75300983Y-52926852D01*
X75300980Y-52926849D01*
X75300979Y-52926847D01*
X75206195Y-52823884D01*
X75175275Y-52761232D01*
X75183135Y-52691806D01*
X75227283Y-52637651D01*
X75254095Y-52623722D01*
X75334326Y-52593798D01*
X75334326Y-52593797D01*
X75334331Y-52593796D01*
X75449546Y-52507546D01*
X75535796Y-52392331D01*
X75586091Y-52257483D01*
X75592500Y-52197873D01*
X75592499Y-50302128D01*
X75586091Y-50242517D01*
X75535796Y-50107669D01*
X75535795Y-50107668D01*
X75535793Y-50107664D01*
X75449547Y-49992455D01*
X75449544Y-49992452D01*
X75334335Y-49906206D01*
X75334328Y-49906202D01*
X75273167Y-49883391D01*
X75217233Y-49841520D01*
X75192816Y-49776056D01*
X75192500Y-49767209D01*
X75192500Y-48428499D01*
X75192659Y-48422219D01*
X75196369Y-48349064D01*
X75193930Y-48333142D01*
X75192500Y-48314366D01*
X75192500Y-46514237D01*
X75192540Y-46511095D01*
X75194756Y-46423642D01*
X75194755Y-46423641D01*
X75194756Y-46423636D01*
X75184345Y-46365554D01*
X75183042Y-46356260D01*
X75177074Y-46297562D01*
X75175396Y-46292214D01*
X75167967Y-46268536D01*
X75164224Y-46253287D01*
X75158858Y-46223348D01*
X75136976Y-46168567D01*
X75133822Y-46159709D01*
X75116159Y-46103412D01*
X75116158Y-46103411D01*
X75116157Y-46103406D01*
X75101396Y-46076814D01*
X75094659Y-46062629D01*
X75083378Y-46034385D01*
X75083375Y-46034380D01*
X75050918Y-45985131D01*
X75046036Y-45977074D01*
X75045850Y-45976739D01*
X75017409Y-45925498D01*
X74997588Y-45902410D01*
X74988144Y-45889885D01*
X74971402Y-45864481D01*
X74929699Y-45822778D01*
X74923294Y-45815868D01*
X74884867Y-45771106D01*
X74860804Y-45752479D01*
X74849027Y-45742106D01*
X74353472Y-45246552D01*
X74353470Y-45246549D01*
X73756244Y-44649324D01*
X73606919Y-44499999D01*
X85613127Y-44499999D01*
X85613128Y-44500000D01*
X86576314Y-44500000D01*
X86564359Y-44511955D01*
X86506835Y-44624852D01*
X86487014Y-44750000D01*
X86506835Y-44875148D01*
X86564359Y-44988045D01*
X86576314Y-45000000D01*
X85613128Y-45000000D01*
X85665730Y-45196317D01*
X85665734Y-45196326D01*
X85761865Y-45402482D01*
X85892342Y-45588820D01*
X86053179Y-45749657D01*
X86239517Y-45880134D01*
X86445673Y-45976265D01*
X86445682Y-45976269D01*
X86641999Y-46028872D01*
X86642000Y-46028871D01*
X86642000Y-45065686D01*
X86653955Y-45077641D01*
X86766852Y-45135165D01*
X86860519Y-45150000D01*
X86923481Y-45150000D01*
X87017148Y-45135165D01*
X87130045Y-45077641D01*
X87142000Y-45065686D01*
X87142000Y-46028872D01*
X87338317Y-45976269D01*
X87338326Y-45976265D01*
X87544482Y-45880134D01*
X87730820Y-45749657D01*
X87891657Y-45588820D01*
X88022134Y-45402482D01*
X88118265Y-45196326D01*
X88118269Y-45196317D01*
X88170872Y-45000000D01*
X87207686Y-45000000D01*
X87219641Y-44988045D01*
X87277165Y-44875148D01*
X87296986Y-44750000D01*
X87277165Y-44624852D01*
X87219641Y-44511955D01*
X87207686Y-44500000D01*
X88170872Y-44500000D01*
X88170872Y-44499999D01*
X88118269Y-44303682D01*
X88118265Y-44303673D01*
X88022134Y-44097517D01*
X87891657Y-43911179D01*
X87730820Y-43750342D01*
X87544482Y-43619865D01*
X87338328Y-43523734D01*
X87142000Y-43471127D01*
X87142000Y-44434314D01*
X87130045Y-44422359D01*
X87017148Y-44364835D01*
X86923481Y-44350000D01*
X86860519Y-44350000D01*
X86766852Y-44364835D01*
X86653955Y-44422359D01*
X86642000Y-44434314D01*
X86642000Y-43471127D01*
X86445671Y-43523734D01*
X86239517Y-43619865D01*
X86053179Y-43750342D01*
X85892342Y-43911179D01*
X85761865Y-44097517D01*
X85665734Y-44303673D01*
X85665730Y-44303682D01*
X85613127Y-44499999D01*
X73606919Y-44499999D01*
X73159565Y-44052645D01*
X73157373Y-44050397D01*
X73097061Y-43986949D01*
X73097060Y-43986948D01*
X73097059Y-43986947D01*
X73048640Y-43953246D01*
X73041120Y-43947575D01*
X72995413Y-43910305D01*
X72995406Y-43910301D01*
X72968441Y-43896216D01*
X72955026Y-43888089D01*
X72930049Y-43870705D01*
X72930046Y-43870703D01*
X72930045Y-43870703D01*
X72930041Y-43870701D01*
X72875845Y-43847443D01*
X72867336Y-43843402D01*
X72815057Y-43816094D01*
X72815046Y-43816090D01*
X72785806Y-43807723D01*
X72771021Y-43802459D01*
X72743058Y-43790459D01*
X72685273Y-43778583D01*
X72676127Y-43776338D01*
X72619423Y-43760113D01*
X72595699Y-43758306D01*
X72589072Y-43757801D01*
X72573533Y-43755622D01*
X72543742Y-43749500D01*
X72543741Y-43749500D01*
X72484759Y-43749500D01*
X72475344Y-43749142D01*
X72472643Y-43748936D01*
X72416524Y-43744662D01*
X72386349Y-43748506D01*
X72370682Y-43749500D01*
X62369588Y-43749500D01*
X62302549Y-43729815D01*
X62298465Y-43727075D01*
X62144734Y-43619432D01*
X62144732Y-43619431D01*
X61938497Y-43523261D01*
X61938488Y-43523258D01*
X61718697Y-43464366D01*
X61718693Y-43464365D01*
X61718692Y-43464365D01*
X61718691Y-43464364D01*
X61718686Y-43464364D01*
X61492002Y-43444532D01*
X61491998Y-43444532D01*
X61265313Y-43464364D01*
X61265302Y-43464366D01*
X61045511Y-43523258D01*
X61045502Y-43523261D01*
X60839267Y-43619431D01*
X60839265Y-43619432D01*
X60652858Y-43749954D01*
X60491954Y-43910858D01*
X60361432Y-44097265D01*
X60361431Y-44097267D01*
X60265261Y-44303502D01*
X60265258Y-44303511D01*
X60206366Y-44523302D01*
X60206364Y-44523313D01*
X60186532Y-44749998D01*
X60186532Y-44750001D01*
X50588751Y-44750001D01*
X50595642Y-44726528D01*
X50601824Y-44709953D01*
X50613165Y-44685123D01*
X50617050Y-44658102D01*
X50620809Y-44640819D01*
X50628500Y-44614627D01*
X50628500Y-44470705D01*
X50628500Y-40131187D01*
X52441500Y-40131187D01*
X52461794Y-40265823D01*
X52480604Y-40390615D01*
X52480605Y-40390617D01*
X52480606Y-40390623D01*
X52557938Y-40641326D01*
X52671767Y-40877696D01*
X52671768Y-40877697D01*
X52671770Y-40877700D01*
X52671772Y-40877704D01*
X52819567Y-41094479D01*
X52998014Y-41286801D01*
X52998018Y-41286804D01*
X52998019Y-41286805D01*
X53203143Y-41450386D01*
X53430357Y-41581568D01*
X53674584Y-41677420D01*
X53930370Y-41735802D01*
X53930376Y-41735802D01*
X53930379Y-41735803D01*
X54126484Y-41750499D01*
X54126503Y-41750499D01*
X54126506Y-41750500D01*
X54126508Y-41750500D01*
X54257492Y-41750500D01*
X54257494Y-41750500D01*
X54257496Y-41750499D01*
X54257515Y-41750499D01*
X54453620Y-41735803D01*
X54453622Y-41735802D01*
X54453630Y-41735802D01*
X54709416Y-41677420D01*
X54953643Y-41581568D01*
X55180857Y-41450386D01*
X55385981Y-41286805D01*
X55564433Y-41094479D01*
X55712228Y-40877704D01*
X55826063Y-40641323D01*
X55903396Y-40390615D01*
X55942499Y-40131187D01*
X92441500Y-40131187D01*
X92461794Y-40265823D01*
X92480604Y-40390615D01*
X92480605Y-40390617D01*
X92480606Y-40390623D01*
X92557938Y-40641326D01*
X92671767Y-40877696D01*
X92671768Y-40877697D01*
X92671770Y-40877700D01*
X92671772Y-40877704D01*
X92819567Y-41094479D01*
X92998014Y-41286801D01*
X92998018Y-41286804D01*
X92998019Y-41286805D01*
X93203143Y-41450386D01*
X93430357Y-41581568D01*
X93674584Y-41677420D01*
X93930370Y-41735802D01*
X93930376Y-41735802D01*
X93930379Y-41735803D01*
X94126484Y-41750499D01*
X94126503Y-41750499D01*
X94126506Y-41750500D01*
X94126508Y-41750500D01*
X94257492Y-41750500D01*
X94257494Y-41750500D01*
X94257496Y-41750499D01*
X94257515Y-41750499D01*
X94453620Y-41735803D01*
X94453622Y-41735802D01*
X94453630Y-41735802D01*
X94709416Y-41677420D01*
X94953643Y-41581568D01*
X95180857Y-41450386D01*
X95385981Y-41286805D01*
X95564433Y-41094479D01*
X95712228Y-40877704D01*
X95826063Y-40641323D01*
X95903396Y-40390615D01*
X95942500Y-40131182D01*
X95942500Y-39868818D01*
X95903396Y-39609385D01*
X95826063Y-39358677D01*
X95785085Y-39273585D01*
X95712232Y-39122303D01*
X95712231Y-39122302D01*
X95712230Y-39122301D01*
X95712228Y-39122296D01*
X95564433Y-38905521D01*
X95497458Y-38833339D01*
X95385985Y-38713198D01*
X95286054Y-38633506D01*
X95180857Y-38549614D01*
X94953643Y-38418432D01*
X94709416Y-38322580D01*
X94709411Y-38322578D01*
X94709402Y-38322576D01*
X94470270Y-38267996D01*
X94453630Y-38264198D01*
X94453629Y-38264197D01*
X94453625Y-38264197D01*
X94453620Y-38264196D01*
X94257515Y-38249500D01*
X94257494Y-38249500D01*
X94126506Y-38249500D01*
X94126484Y-38249500D01*
X93930379Y-38264196D01*
X93930374Y-38264197D01*
X93674597Y-38322576D01*
X93674578Y-38322582D01*
X93430356Y-38418432D01*
X93203143Y-38549614D01*
X92998014Y-38713198D01*
X92819567Y-38905520D01*
X92671768Y-39122302D01*
X92671767Y-39122303D01*
X92557938Y-39358673D01*
X92480606Y-39609376D01*
X92480605Y-39609381D01*
X92480604Y-39609385D01*
X92465853Y-39707247D01*
X92441500Y-39868812D01*
X92441500Y-40131187D01*
X55942499Y-40131187D01*
X55942500Y-40131182D01*
X55942500Y-39868818D01*
X55903396Y-39609385D01*
X55826063Y-39358677D01*
X55785085Y-39273585D01*
X55712232Y-39122303D01*
X55712231Y-39122302D01*
X55712230Y-39122301D01*
X55712228Y-39122296D01*
X55564433Y-38905521D01*
X55497458Y-38833339D01*
X55385985Y-38713198D01*
X55286054Y-38633506D01*
X55180857Y-38549614D01*
X54953643Y-38418432D01*
X54709416Y-38322580D01*
X54709411Y-38322578D01*
X54709402Y-38322576D01*
X54470270Y-38267996D01*
X54453630Y-38264198D01*
X54453629Y-38264197D01*
X54453625Y-38264197D01*
X54453620Y-38264196D01*
X54257515Y-38249500D01*
X54257494Y-38249500D01*
X54126506Y-38249500D01*
X54126484Y-38249500D01*
X53930379Y-38264196D01*
X53930374Y-38264197D01*
X53674597Y-38322576D01*
X53674578Y-38322582D01*
X53430356Y-38418432D01*
X53203143Y-38549614D01*
X52998014Y-38713198D01*
X52819567Y-38905520D01*
X52671768Y-39122302D01*
X52671767Y-39122303D01*
X52557938Y-39358673D01*
X52480606Y-39609376D01*
X52480605Y-39609381D01*
X52480604Y-39609385D01*
X52465853Y-39707247D01*
X52441500Y-39868812D01*
X52441500Y-40131187D01*
X50628500Y-40131187D01*
X50628500Y-40007893D01*
X50628540Y-40004775D01*
X50633153Y-39822672D01*
X50633471Y-39816397D01*
X50646705Y-39642613D01*
X50647333Y-39636426D01*
X50669360Y-39463470D01*
X50670295Y-39457369D01*
X50701051Y-39285771D01*
X50702305Y-39279670D01*
X50741704Y-39109888D01*
X50743265Y-39103856D01*
X50791222Y-38936256D01*
X50793090Y-38930303D01*
X50849466Y-38765369D01*
X50851627Y-38759532D01*
X50916288Y-38597659D01*
X50918743Y-38591940D01*
X50991502Y-38433585D01*
X50994262Y-38427958D01*
X51012630Y-38392796D01*
X51074954Y-38273480D01*
X51077999Y-38267996D01*
X51080235Y-38264198D01*
X51166413Y-38117802D01*
X51169713Y-38112508D01*
X51265624Y-37966978D01*
X51269172Y-37961880D01*
X51372387Y-37821321D01*
X51376134Y-37816481D01*
X51486328Y-37681338D01*
X51490367Y-37676633D01*
X51607225Y-37547290D01*
X51611515Y-37542777D01*
X51734777Y-37419515D01*
X51739290Y-37415225D01*
X51868633Y-37298367D01*
X51873338Y-37294328D01*
X52008481Y-37184134D01*
X52013321Y-37180387D01*
X52153880Y-37077172D01*
X52158978Y-37073624D01*
X52304508Y-36977713D01*
X52309802Y-36974413D01*
X52460004Y-36885994D01*
X52465480Y-36882954D01*
X52619970Y-36802255D01*
X52625586Y-36799502D01*
X52783936Y-36726744D01*
X52789653Y-36724290D01*
X52951539Y-36659625D01*
X52957377Y-36657463D01*
X53122300Y-36601091D01*
X53128252Y-36599223D01*
X53295855Y-36551265D01*
X53301887Y-36549704D01*
X53405934Y-36525559D01*
X53416260Y-36523622D01*
X53461176Y-36517165D01*
X53510278Y-36494739D01*
X53516835Y-36491971D01*
X53535028Y-36484897D01*
X53567160Y-36472405D01*
X53567516Y-36472130D01*
X53591687Y-36457561D01*
X53592092Y-36457377D01*
X53632897Y-36422017D01*
X53638397Y-36417522D01*
X53681172Y-36384571D01*
X53681428Y-36384217D01*
X53700523Y-36363421D01*
X53700862Y-36363128D01*
X53702259Y-36360954D01*
X53704212Y-36359261D01*
X53706671Y-36356424D01*
X53707078Y-36356777D01*
X53755059Y-36315198D01*
X53824218Y-36305251D01*
X53887773Y-36334272D01*
X53919054Y-36361377D01*
X54049970Y-36421165D01*
X54156628Y-36436500D01*
X54156631Y-36436500D01*
X54228223Y-36436500D01*
X54228226Y-36436500D01*
X54334884Y-36421165D01*
X54465800Y-36361377D01*
X54551583Y-36287045D01*
X54615137Y-36258022D01*
X54684295Y-36267966D01*
G37*
%TD.AperFunction*%
%TD*%
%TA.AperFunction,Conductor*%
%TO.N,Board_0-Board_0-GND*%
G36*
X44059231Y-500540D02*
G01*
X44238093Y-505070D01*
X44244350Y-505387D01*
X44414902Y-518375D01*
X44421093Y-519005D01*
X44590826Y-540621D01*
X44596940Y-541558D01*
X44765347Y-571742D01*
X44771448Y-572996D01*
X44938069Y-611661D01*
X44944119Y-613227D01*
X45108559Y-660279D01*
X45114522Y-662150D01*
X45276366Y-717470D01*
X45276372Y-717472D01*
X45282262Y-719654D01*
X45287154Y-721608D01*
X45441071Y-783089D01*
X45446799Y-785546D01*
X45602268Y-856979D01*
X45607838Y-859712D01*
X45759469Y-938919D01*
X45764931Y-941951D01*
X45912335Y-1028720D01*
X45917597Y-1032000D01*
X46060438Y-1126142D01*
X46065582Y-1129723D01*
X46203445Y-1230957D01*
X46208401Y-1234793D01*
X46256411Y-1273940D01*
X46340946Y-1342869D01*
X46345703Y-1346953D01*
X46461011Y-1451129D01*
X46472595Y-1461595D01*
X46477149Y-1465924D01*
X46598064Y-1586839D01*
X46602393Y-1591393D01*
X46717043Y-1718294D01*
X46721135Y-1723060D01*
X46829204Y-1855596D01*
X46833049Y-1860564D01*
X46934266Y-1998401D01*
X46937855Y-2003557D01*
X47031962Y-2146347D01*
X47035286Y-2151680D01*
X47122039Y-2299053D01*
X47125087Y-2304545D01*
X47182796Y-2415022D01*
X47194220Y-2436892D01*
X47204263Y-2456117D01*
X47207029Y-2461754D01*
X47211155Y-2470734D01*
X47278432Y-2617157D01*
X47280909Y-2622930D01*
X47344345Y-2781738D01*
X47346525Y-2787623D01*
X47346525Y-2787625D01*
X47346527Y-2787629D01*
X47401843Y-2949460D01*
X47403724Y-2955456D01*
X47450765Y-3119859D01*
X47452339Y-3125940D01*
X47490995Y-3292522D01*
X47492260Y-3298676D01*
X47522434Y-3467027D01*
X47523380Y-3473203D01*
X47544987Y-3642855D01*
X47544987Y-3642856D01*
X47545622Y-3649105D01*
X47558609Y-3819642D01*
X47558927Y-3825916D01*
X47563460Y-4004744D01*
X47563500Y-4007886D01*
X47563500Y-10082628D01*
X47571188Y-10108812D01*
X47574949Y-10126098D01*
X47578835Y-10153124D01*
X47590174Y-10177955D01*
X47596354Y-10194523D01*
X47604046Y-10220718D01*
X47604049Y-10220723D01*
X47618807Y-10243687D01*
X47627286Y-10259215D01*
X47638623Y-10284039D01*
X47656494Y-10304664D01*
X47667093Y-10318822D01*
X47681857Y-10341795D01*
X47702494Y-10359677D01*
X47714995Y-10372178D01*
X47729812Y-10389277D01*
X47732871Y-10392808D01*
X47732876Y-10392813D01*
X47754224Y-10406532D01*
X47799979Y-10459336D01*
X47809923Y-10528494D01*
X47780898Y-10592050D01*
X47768388Y-10604560D01*
X47681856Y-10679540D01*
X47604045Y-10800616D01*
X47563500Y-10938703D01*
X47563500Y-11082630D01*
X47604045Y-11220717D01*
X47604047Y-11220720D01*
X47681857Y-11341795D01*
X47768596Y-11416954D01*
X47806370Y-11475732D01*
X47806370Y-11545602D01*
X47768596Y-11604380D01*
X47681856Y-11679540D01*
X47604045Y-11800616D01*
X47563500Y-11938703D01*
X47563500Y-12082630D01*
X47604045Y-12220717D01*
X47604047Y-12220720D01*
X47681857Y-12341795D01*
X47768386Y-12416772D01*
X47806160Y-12475550D01*
X47806160Y-12545420D01*
X47768386Y-12604198D01*
X47754226Y-12614798D01*
X47732875Y-12628519D01*
X47732871Y-12628523D01*
X47714993Y-12649155D01*
X47702489Y-12661659D01*
X47681857Y-12679537D01*
X47681853Y-12679542D01*
X47667095Y-12702506D01*
X47656495Y-12716666D01*
X47638623Y-12737291D01*
X47638621Y-12737294D01*
X47627280Y-12762127D01*
X47618805Y-12777648D01*
X47604048Y-12800611D01*
X47596355Y-12826807D01*
X47590175Y-12843376D01*
X47578835Y-12868208D01*
X47574947Y-12895240D01*
X47571189Y-12912515D01*
X47563500Y-12938705D01*
X47563500Y-21593295D01*
X47571188Y-21619479D01*
X47574949Y-21636765D01*
X47578835Y-21663791D01*
X47590174Y-21688622D01*
X47596354Y-21705190D01*
X47604046Y-21731385D01*
X47604049Y-21731390D01*
X47618807Y-21754354D01*
X47627286Y-21769882D01*
X47638623Y-21794706D01*
X47656494Y-21815331D01*
X47667093Y-21829489D01*
X47681857Y-21852462D01*
X47702494Y-21870344D01*
X47714995Y-21882845D01*
X47729812Y-21899944D01*
X47732871Y-21903475D01*
X47732876Y-21903480D01*
X47754224Y-21917199D01*
X47799979Y-21970003D01*
X47809923Y-22039161D01*
X47780898Y-22102717D01*
X47768388Y-22115227D01*
X47681856Y-22190207D01*
X47604045Y-22311283D01*
X47563500Y-22449370D01*
X47563500Y-22593297D01*
X47604045Y-22731384D01*
X47604047Y-22731387D01*
X47681857Y-22852462D01*
X47768596Y-22927621D01*
X47806370Y-22986399D01*
X47806370Y-23056269D01*
X47768596Y-23115047D01*
X47681856Y-23190207D01*
X47604045Y-23311283D01*
X47563500Y-23449370D01*
X47563500Y-23593297D01*
X47604045Y-23731384D01*
X47604047Y-23731387D01*
X47681857Y-23852462D01*
X47768386Y-23927439D01*
X47806160Y-23986217D01*
X47806160Y-24056087D01*
X47768386Y-24114865D01*
X47754226Y-24125465D01*
X47732875Y-24139186D01*
X47732871Y-24139190D01*
X47714993Y-24159822D01*
X47702489Y-24172326D01*
X47681857Y-24190204D01*
X47681853Y-24190209D01*
X47667095Y-24213173D01*
X47656495Y-24227333D01*
X47638623Y-24247958D01*
X47638621Y-24247961D01*
X47627280Y-24272794D01*
X47618805Y-24288315D01*
X47604048Y-24311278D01*
X47596355Y-24337474D01*
X47590175Y-24354043D01*
X47578835Y-24378874D01*
X47578834Y-24378879D01*
X47574949Y-24405896D01*
X47571192Y-24423172D01*
X47563591Y-24449064D01*
X47563500Y-24449373D01*
X47563500Y-24449374D01*
X47563500Y-28992112D01*
X47563460Y-28995254D01*
X47558927Y-29174081D01*
X47558609Y-29180355D01*
X47545622Y-29350892D01*
X47544987Y-29357131D01*
X47523381Y-29526788D01*
X47522434Y-29532970D01*
X47492260Y-29701321D01*
X47490995Y-29707475D01*
X47452339Y-29874057D01*
X47450765Y-29880138D01*
X47403724Y-30044541D01*
X47401843Y-30050537D01*
X47346527Y-30212368D01*
X47344345Y-30218259D01*
X47280909Y-30377067D01*
X47278432Y-30382840D01*
X47207031Y-30538239D01*
X47204263Y-30543880D01*
X47125087Y-30695452D01*
X47122039Y-30700944D01*
X47035286Y-30848317D01*
X47031962Y-30853650D01*
X46937855Y-30996440D01*
X46934266Y-31001596D01*
X46833049Y-31139433D01*
X46829204Y-31144401D01*
X46721135Y-31276937D01*
X46717043Y-31281703D01*
X46602393Y-31408604D01*
X46598064Y-31413158D01*
X46477149Y-31534073D01*
X46472595Y-31538402D01*
X46345712Y-31653036D01*
X46340946Y-31657128D01*
X46208414Y-31765194D01*
X46203445Y-31769040D01*
X46065582Y-31870274D01*
X46060428Y-31873862D01*
X46014870Y-31903888D01*
X45917625Y-31967978D01*
X45912302Y-31971297D01*
X45764951Y-32058035D01*
X45759461Y-32061082D01*
X45607858Y-32140275D01*
X45602235Y-32143033D01*
X45449023Y-32213430D01*
X45446838Y-32214434D01*
X45441064Y-32216911D01*
X45282262Y-32280343D01*
X45276372Y-32282525D01*
X45114544Y-32337840D01*
X45108549Y-32339721D01*
X44944135Y-32386766D01*
X44938053Y-32388340D01*
X44771475Y-32426995D01*
X44765321Y-32428260D01*
X44596970Y-32458434D01*
X44590788Y-32459381D01*
X44421132Y-32480987D01*
X44414893Y-32481622D01*
X44244354Y-32494609D01*
X44238080Y-32494927D01*
X44059255Y-32499460D01*
X44056113Y-32499500D01*
X42635961Y-32499500D01*
X42492039Y-32499500D01*
X42492036Y-32499500D01*
X42492034Y-32499501D01*
X42465842Y-32507190D01*
X42448568Y-32510948D01*
X42421544Y-32514834D01*
X42421541Y-32514835D01*
X42396710Y-32526175D01*
X42380141Y-32532355D01*
X42367171Y-32536163D01*
X42353947Y-32540047D01*
X42353945Y-32540047D01*
X42353945Y-32540048D01*
X42330982Y-32554805D01*
X42315461Y-32563280D01*
X42290628Y-32574621D01*
X42290625Y-32574623D01*
X42270000Y-32592495D01*
X42255840Y-32603095D01*
X42232876Y-32617853D01*
X42226173Y-32623662D01*
X42224074Y-32621240D01*
X42178482Y-32650499D01*
X42108612Y-32650453D01*
X42062423Y-32625212D01*
X42004043Y-32574625D01*
X42004037Y-32574622D01*
X41873122Y-32514834D01*
X41793277Y-32503355D01*
X41766465Y-32499500D01*
X41694867Y-32499500D01*
X41681460Y-32501427D01*
X41588209Y-32514834D01*
X41457294Y-32574622D01*
X41457293Y-32574623D01*
X41395201Y-32628425D01*
X41331645Y-32657449D01*
X41262486Y-32647505D01*
X41232797Y-32628424D01*
X41170710Y-32574625D01*
X41170704Y-32574622D01*
X41039789Y-32514834D01*
X40959944Y-32503355D01*
X40933132Y-32499500D01*
X40861534Y-32499500D01*
X40848127Y-32501427D01*
X40754876Y-32514834D01*
X40623961Y-32574622D01*
X40623960Y-32574623D01*
X40561868Y-32628425D01*
X40498312Y-32657449D01*
X40429153Y-32647505D01*
X40399464Y-32628424D01*
X40337377Y-32574625D01*
X40337371Y-32574622D01*
X40206456Y-32514834D01*
X40126611Y-32503355D01*
X40099799Y-32499500D01*
X40028201Y-32499500D01*
X40014794Y-32501427D01*
X39921543Y-32514834D01*
X39790628Y-32574622D01*
X39790627Y-32574623D01*
X39728535Y-32628425D01*
X39664979Y-32657449D01*
X39595820Y-32647505D01*
X39566131Y-32628425D01*
X39531367Y-32598303D01*
X39504039Y-32574623D01*
X39501843Y-32573620D01*
X39373122Y-32514834D01*
X39293277Y-32503355D01*
X39266465Y-32499500D01*
X39194867Y-32499500D01*
X39181460Y-32501427D01*
X39088209Y-32514834D01*
X38957294Y-32574622D01*
X38957293Y-32574623D01*
X38895201Y-32628425D01*
X38831645Y-32657449D01*
X38762486Y-32647505D01*
X38732797Y-32628424D01*
X38670710Y-32574625D01*
X38670704Y-32574622D01*
X38539789Y-32514834D01*
X38459944Y-32503355D01*
X38433132Y-32499500D01*
X38361534Y-32499500D01*
X38348127Y-32501427D01*
X38254876Y-32514834D01*
X38123961Y-32574622D01*
X38123960Y-32574623D01*
X38065575Y-32625213D01*
X38002019Y-32654237D01*
X37932860Y-32644293D01*
X37903196Y-32622083D01*
X37901828Y-32623663D01*
X37895123Y-32617853D01*
X37872160Y-32603095D01*
X37858000Y-32592496D01*
X37843779Y-32580174D01*
X37837373Y-32574623D01*
X37812541Y-32563282D01*
X37797019Y-32554806D01*
X37797017Y-32554805D01*
X37774053Y-32540047D01*
X37774051Y-32540046D01*
X37747858Y-32532355D01*
X37731288Y-32526174D01*
X37706457Y-32514835D01*
X37679423Y-32510947D01*
X37662154Y-32507190D01*
X37635963Y-32499500D01*
X37635961Y-32499500D01*
X37599799Y-32499500D01*
X34635961Y-32499500D01*
X34492039Y-32499500D01*
X34492036Y-32499500D01*
X34492034Y-32499501D01*
X34465842Y-32507190D01*
X34448568Y-32510948D01*
X34421544Y-32514834D01*
X34421541Y-32514835D01*
X34396710Y-32526175D01*
X34380141Y-32532355D01*
X34367171Y-32536163D01*
X34353947Y-32540047D01*
X34353945Y-32540047D01*
X34353945Y-32540048D01*
X34330982Y-32554805D01*
X34315461Y-32563280D01*
X34290628Y-32574621D01*
X34290625Y-32574623D01*
X34270000Y-32592495D01*
X34255840Y-32603095D01*
X34232876Y-32617853D01*
X34226173Y-32623662D01*
X34224074Y-32621240D01*
X34178482Y-32650499D01*
X34108612Y-32650453D01*
X34062423Y-32625212D01*
X34004043Y-32574625D01*
X34004037Y-32574622D01*
X33873122Y-32514834D01*
X33793277Y-32503355D01*
X33766465Y-32499500D01*
X33694867Y-32499500D01*
X33681460Y-32501427D01*
X33588209Y-32514834D01*
X33457294Y-32574622D01*
X33457293Y-32574623D01*
X33395201Y-32628425D01*
X33331645Y-32657449D01*
X33262486Y-32647505D01*
X33232797Y-32628424D01*
X33170710Y-32574625D01*
X33170704Y-32574622D01*
X33039789Y-32514834D01*
X32959944Y-32503355D01*
X32933132Y-32499500D01*
X32861534Y-32499500D01*
X32848127Y-32501427D01*
X32754876Y-32514834D01*
X32623961Y-32574622D01*
X32623960Y-32574623D01*
X32561868Y-32628425D01*
X32498312Y-32657449D01*
X32429153Y-32647505D01*
X32399464Y-32628424D01*
X32337377Y-32574625D01*
X32337371Y-32574622D01*
X32206456Y-32514834D01*
X32126611Y-32503355D01*
X32099799Y-32499500D01*
X32028201Y-32499500D01*
X32014794Y-32501427D01*
X31921543Y-32514834D01*
X31790628Y-32574622D01*
X31790627Y-32574623D01*
X31728535Y-32628425D01*
X31664979Y-32657449D01*
X31595820Y-32647505D01*
X31566131Y-32628425D01*
X31531367Y-32598303D01*
X31504039Y-32574623D01*
X31501843Y-32573620D01*
X31373122Y-32514834D01*
X31293277Y-32503355D01*
X31266465Y-32499500D01*
X31194867Y-32499500D01*
X31181460Y-32501427D01*
X31088209Y-32514834D01*
X30957294Y-32574622D01*
X30957293Y-32574623D01*
X30895201Y-32628425D01*
X30831645Y-32657449D01*
X30762486Y-32647505D01*
X30732797Y-32628424D01*
X30670710Y-32574625D01*
X30670704Y-32574622D01*
X30539789Y-32514834D01*
X30459944Y-32503355D01*
X30433132Y-32499500D01*
X30361534Y-32499500D01*
X30348127Y-32501427D01*
X30254876Y-32514834D01*
X30123961Y-32574622D01*
X30123960Y-32574623D01*
X30065575Y-32625213D01*
X30002019Y-32654237D01*
X29932860Y-32644293D01*
X29903196Y-32622083D01*
X29901828Y-32623663D01*
X29895123Y-32617853D01*
X29872160Y-32603095D01*
X29858000Y-32592496D01*
X29843779Y-32580174D01*
X29837373Y-32574623D01*
X29812541Y-32563282D01*
X29797019Y-32554806D01*
X29797017Y-32554805D01*
X29774053Y-32540047D01*
X29774051Y-32540046D01*
X29747858Y-32532355D01*
X29731288Y-32526174D01*
X29706457Y-32514835D01*
X29679423Y-32510947D01*
X29662154Y-32507190D01*
X29635963Y-32499500D01*
X29635961Y-32499500D01*
X29599799Y-32499500D01*
X26635961Y-32499500D01*
X26492039Y-32499500D01*
X26492036Y-32499500D01*
X26492034Y-32499501D01*
X26465842Y-32507190D01*
X26448568Y-32510948D01*
X26421544Y-32514834D01*
X26421541Y-32514835D01*
X26396710Y-32526175D01*
X26380141Y-32532355D01*
X26367171Y-32536163D01*
X26353947Y-32540047D01*
X26353945Y-32540047D01*
X26353945Y-32540048D01*
X26330982Y-32554805D01*
X26315461Y-32563280D01*
X26290628Y-32574621D01*
X26290625Y-32574623D01*
X26270000Y-32592495D01*
X26255840Y-32603095D01*
X26232876Y-32617853D01*
X26226173Y-32623662D01*
X26224074Y-32621240D01*
X26178482Y-32650499D01*
X26108612Y-32650453D01*
X26062423Y-32625212D01*
X26004043Y-32574625D01*
X26004037Y-32574622D01*
X25873122Y-32514834D01*
X25793277Y-32503355D01*
X25766465Y-32499500D01*
X25694867Y-32499500D01*
X25681460Y-32501427D01*
X25588209Y-32514834D01*
X25457294Y-32574622D01*
X25457293Y-32574623D01*
X25395201Y-32628425D01*
X25331645Y-32657449D01*
X25262486Y-32647505D01*
X25232797Y-32628424D01*
X25170710Y-32574625D01*
X25170704Y-32574622D01*
X25039789Y-32514834D01*
X24959944Y-32503355D01*
X24933132Y-32499500D01*
X24861534Y-32499500D01*
X24848127Y-32501427D01*
X24754876Y-32514834D01*
X24623961Y-32574622D01*
X24623960Y-32574623D01*
X24561868Y-32628425D01*
X24498312Y-32657449D01*
X24429153Y-32647505D01*
X24399464Y-32628424D01*
X24337377Y-32574625D01*
X24337371Y-32574622D01*
X24206456Y-32514834D01*
X24126611Y-32503355D01*
X24099799Y-32499500D01*
X24028201Y-32499500D01*
X24014794Y-32501427D01*
X23921543Y-32514834D01*
X23790628Y-32574622D01*
X23790627Y-32574623D01*
X23728535Y-32628425D01*
X23664979Y-32657449D01*
X23595820Y-32647505D01*
X23566131Y-32628424D01*
X23504044Y-32574625D01*
X23504038Y-32574622D01*
X23373123Y-32514834D01*
X23293278Y-32503355D01*
X23266466Y-32499500D01*
X23194868Y-32499500D01*
X23181461Y-32501427D01*
X23088210Y-32514834D01*
X22957295Y-32574622D01*
X22957294Y-32574623D01*
X22895202Y-32628425D01*
X22831646Y-32657449D01*
X22762487Y-32647505D01*
X22732798Y-32628424D01*
X22670711Y-32574625D01*
X22670705Y-32574622D01*
X22539790Y-32514834D01*
X22459945Y-32503355D01*
X22433133Y-32499500D01*
X22361535Y-32499500D01*
X22348128Y-32501427D01*
X22254877Y-32514834D01*
X22123962Y-32574622D01*
X22123956Y-32574625D01*
X22065574Y-32625213D01*
X22002018Y-32654237D01*
X21932859Y-32644292D01*
X21903196Y-32622083D01*
X21901828Y-32623663D01*
X21895123Y-32617853D01*
X21872160Y-32603095D01*
X21858000Y-32592496D01*
X21843779Y-32580174D01*
X21837373Y-32574623D01*
X21812541Y-32563282D01*
X21797019Y-32554806D01*
X21797017Y-32554805D01*
X21774053Y-32540047D01*
X21774051Y-32540046D01*
X21747858Y-32532355D01*
X21731288Y-32526174D01*
X21706457Y-32514835D01*
X21679423Y-32510947D01*
X21662154Y-32507190D01*
X21635963Y-32499500D01*
X21635961Y-32499500D01*
X21599799Y-32499500D01*
X18635961Y-32499500D01*
X18492039Y-32499500D01*
X18492036Y-32499500D01*
X18492034Y-32499501D01*
X18465842Y-32507190D01*
X18448568Y-32510948D01*
X18421544Y-32514834D01*
X18421541Y-32514835D01*
X18396710Y-32526175D01*
X18380141Y-32532355D01*
X18367171Y-32536163D01*
X18353947Y-32540047D01*
X18353945Y-32540047D01*
X18353945Y-32540048D01*
X18330982Y-32554805D01*
X18315461Y-32563280D01*
X18290628Y-32574621D01*
X18290625Y-32574623D01*
X18270000Y-32592495D01*
X18255840Y-32603095D01*
X18232876Y-32617853D01*
X18226173Y-32623662D01*
X18224070Y-32621235D01*
X18178526Y-32650486D01*
X18108657Y-32650466D01*
X18062424Y-32625212D01*
X18004044Y-32574625D01*
X18004038Y-32574622D01*
X17873123Y-32514834D01*
X17793278Y-32503355D01*
X17766466Y-32499500D01*
X17694868Y-32499500D01*
X17681461Y-32501427D01*
X17588210Y-32514834D01*
X17457295Y-32574622D01*
X17457294Y-32574623D01*
X17395202Y-32628425D01*
X17331646Y-32657449D01*
X17262487Y-32647505D01*
X17232798Y-32628424D01*
X17170711Y-32574625D01*
X17170705Y-32574622D01*
X17039790Y-32514834D01*
X16959945Y-32503355D01*
X16933133Y-32499500D01*
X16861535Y-32499500D01*
X16848128Y-32501427D01*
X16754877Y-32514834D01*
X16623962Y-32574622D01*
X16623961Y-32574623D01*
X16561869Y-32628425D01*
X16498313Y-32657449D01*
X16429154Y-32647505D01*
X16399465Y-32628425D01*
X16364701Y-32598303D01*
X16337373Y-32574623D01*
X16335177Y-32573620D01*
X16206456Y-32514834D01*
X16126611Y-32503355D01*
X16099799Y-32499500D01*
X16028201Y-32499500D01*
X16014794Y-32501427D01*
X15921543Y-32514834D01*
X15790628Y-32574622D01*
X15790627Y-32574623D01*
X15728535Y-32628425D01*
X15664979Y-32657449D01*
X15595820Y-32647505D01*
X15566130Y-32628423D01*
X15535407Y-32601801D01*
X15497633Y-32543023D01*
X15497633Y-32473153D01*
X15535408Y-32414375D01*
X15565329Y-32395190D01*
X15683375Y-32341571D01*
X15683380Y-32341568D01*
X15868323Y-32213440D01*
X15868335Y-32213430D01*
X16027430Y-32054335D01*
X16027440Y-32054323D01*
X16155568Y-31869380D01*
X16155571Y-31869374D01*
X16248622Y-31664519D01*
X16303599Y-31446332D01*
X16313999Y-31314196D01*
X16314000Y-31314184D01*
X16314000Y-30750000D01*
X15497686Y-30750000D01*
X15523493Y-30709844D01*
X15564000Y-30571889D01*
X15564000Y-30428111D01*
X15523493Y-30290156D01*
X15497686Y-30250000D01*
X16313999Y-30250000D01*
X16313999Y-29685817D01*
X16313998Y-29685802D01*
X16303599Y-29553667D01*
X16248622Y-29335480D01*
X16155571Y-29130625D01*
X16155568Y-29130619D01*
X16027440Y-28945676D01*
X16027430Y-28945664D01*
X15868335Y-28786569D01*
X15868323Y-28786559D01*
X15683380Y-28658431D01*
X15683374Y-28658428D01*
X15478519Y-28565377D01*
X15260332Y-28510400D01*
X15128196Y-28500000D01*
X14314000Y-28500000D01*
X14314000Y-30000000D01*
X13814000Y-30000000D01*
X13814000Y-28500000D01*
X12999817Y-28500000D01*
X12999802Y-28500001D01*
X12867667Y-28510400D01*
X12649480Y-28565377D01*
X12444625Y-28658428D01*
X12444619Y-28658431D01*
X12259676Y-28786559D01*
X12259664Y-28786569D01*
X12100569Y-28945664D01*
X12100559Y-28945676D01*
X11972431Y-29130619D01*
X11972428Y-29130625D01*
X11879377Y-29335480D01*
X11824400Y-29553667D01*
X11814000Y-29685803D01*
X11814000Y-30250000D01*
X12630314Y-30250000D01*
X12604507Y-30290156D01*
X12564000Y-30428111D01*
X12564000Y-30571889D01*
X12604507Y-30709844D01*
X12630314Y-30750000D01*
X11814001Y-30750000D01*
X11814001Y-31314197D01*
X11824400Y-31446332D01*
X11879377Y-31664519D01*
X11972428Y-31869374D01*
X11972431Y-31869380D01*
X12100559Y-32054323D01*
X12100569Y-32054335D01*
X12259664Y-32213430D01*
X12259669Y-32213434D01*
X12346472Y-32273571D01*
X12390368Y-32327930D01*
X12397908Y-32397392D01*
X12366697Y-32459903D01*
X12306645Y-32495617D01*
X12275856Y-32499500D01*
X10635961Y-32499500D01*
X10492039Y-32499500D01*
X10492036Y-32499500D01*
X10492034Y-32499501D01*
X10465842Y-32507190D01*
X10448568Y-32510948D01*
X10421544Y-32514834D01*
X10421541Y-32514835D01*
X10396710Y-32526175D01*
X10380141Y-32532355D01*
X10367171Y-32536163D01*
X10353947Y-32540047D01*
X10353945Y-32540047D01*
X10353945Y-32540048D01*
X10330982Y-32554805D01*
X10315461Y-32563280D01*
X10290628Y-32574621D01*
X10290625Y-32574623D01*
X10270000Y-32592495D01*
X10255840Y-32603095D01*
X10232876Y-32617853D01*
X10226173Y-32623662D01*
X10224070Y-32621235D01*
X10178526Y-32650486D01*
X10108657Y-32650466D01*
X10062424Y-32625212D01*
X10004044Y-32574625D01*
X10004038Y-32574622D01*
X9873123Y-32514834D01*
X9793278Y-32503355D01*
X9766466Y-32499500D01*
X9694868Y-32499500D01*
X9681461Y-32501427D01*
X9588210Y-32514834D01*
X9457295Y-32574622D01*
X9457294Y-32574623D01*
X9395202Y-32628425D01*
X9331646Y-32657449D01*
X9262487Y-32647505D01*
X9232798Y-32628424D01*
X9170711Y-32574625D01*
X9170705Y-32574622D01*
X9039790Y-32514834D01*
X8959945Y-32503355D01*
X8933133Y-32499500D01*
X8861535Y-32499500D01*
X8848128Y-32501427D01*
X8754877Y-32514834D01*
X8623962Y-32574622D01*
X8623961Y-32574623D01*
X8561869Y-32628425D01*
X8498313Y-32657449D01*
X8429154Y-32647505D01*
X8399465Y-32628425D01*
X8364701Y-32598303D01*
X8337373Y-32574623D01*
X8335177Y-32573620D01*
X8206456Y-32514834D01*
X8126611Y-32503355D01*
X8099799Y-32499500D01*
X8028201Y-32499500D01*
X8014794Y-32501427D01*
X7921543Y-32514834D01*
X7790628Y-32574622D01*
X7790627Y-32574623D01*
X7728535Y-32628425D01*
X7664979Y-32657449D01*
X7595820Y-32647505D01*
X7566131Y-32628424D01*
X7504044Y-32574625D01*
X7504038Y-32574622D01*
X7373123Y-32514834D01*
X7293278Y-32503355D01*
X7266466Y-32499500D01*
X7194868Y-32499500D01*
X7181461Y-32501427D01*
X7088210Y-32514834D01*
X6957295Y-32574622D01*
X6957294Y-32574623D01*
X6895202Y-32628425D01*
X6831646Y-32657449D01*
X6762487Y-32647505D01*
X6732798Y-32628424D01*
X6670711Y-32574625D01*
X6670705Y-32574622D01*
X6539790Y-32514834D01*
X6459945Y-32503355D01*
X6433133Y-32499500D01*
X6361535Y-32499500D01*
X6348128Y-32501427D01*
X6254877Y-32514834D01*
X6123962Y-32574622D01*
X6123956Y-32574625D01*
X6065574Y-32625213D01*
X6002018Y-32654237D01*
X5932859Y-32644292D01*
X5903196Y-32622083D01*
X5901828Y-32623663D01*
X5895123Y-32617853D01*
X5872160Y-32603095D01*
X5858000Y-32592496D01*
X5843779Y-32580174D01*
X5837373Y-32574623D01*
X5812541Y-32563282D01*
X5797019Y-32554806D01*
X5797017Y-32554805D01*
X5774053Y-32540047D01*
X5774051Y-32540046D01*
X5747858Y-32532355D01*
X5731288Y-32526174D01*
X5706457Y-32514835D01*
X5679423Y-32510947D01*
X5662154Y-32507190D01*
X5635963Y-32499500D01*
X5635961Y-32499500D01*
X5599799Y-32499500D01*
X4071887Y-32499500D01*
X4068745Y-32499460D01*
X3889916Y-32494927D01*
X3883642Y-32494609D01*
X3713105Y-32481622D01*
X3706870Y-32480988D01*
X3537203Y-32459380D01*
X3531027Y-32458434D01*
X3362676Y-32428260D01*
X3356522Y-32426995D01*
X3189940Y-32388339D01*
X3183859Y-32386765D01*
X3019456Y-32339724D01*
X3013460Y-32337843D01*
X2851629Y-32282527D01*
X2845738Y-32280345D01*
X2840846Y-32278391D01*
X2686929Y-32216908D01*
X2681157Y-32214432D01*
X2525758Y-32143031D01*
X2520117Y-32140263D01*
X2368545Y-32061087D01*
X2363053Y-32058039D01*
X2215680Y-31971286D01*
X2210347Y-31967962D01*
X2067557Y-31873855D01*
X2062401Y-31870266D01*
X1924564Y-31769049D01*
X1919596Y-31765204D01*
X1787060Y-31657135D01*
X1782294Y-31653043D01*
X1655393Y-31538393D01*
X1650839Y-31534064D01*
X1529924Y-31413149D01*
X1525595Y-31408595D01*
X1440309Y-31314196D01*
X1410953Y-31281703D01*
X1406869Y-31276946D01*
X1356360Y-31215002D01*
X1298793Y-31144401D01*
X1294957Y-31139445D01*
X1193723Y-31001582D01*
X1190147Y-30996446D01*
X1096000Y-30853597D01*
X1092720Y-30848335D01*
X1005951Y-30700931D01*
X1002915Y-30695461D01*
X923712Y-30543838D01*
X920979Y-30538268D01*
X849546Y-30382799D01*
X847086Y-30377064D01*
X783654Y-30218262D01*
X781472Y-30212372D01*
X764420Y-30162484D01*
X726150Y-30050522D01*
X724276Y-30044549D01*
X724274Y-30044541D01*
X677227Y-29880119D01*
X675657Y-29874053D01*
X646870Y-29749998D01*
X636996Y-29707448D01*
X635742Y-29701347D01*
X605558Y-29532940D01*
X604621Y-29526826D01*
X583005Y-29357093D01*
X582375Y-29350893D01*
X581318Y-29337018D01*
X569387Y-29180350D01*
X569070Y-29174083D01*
X569013Y-29171848D01*
X566377Y-29067763D01*
X2209787Y-29067763D01*
X2239413Y-29337013D01*
X2239415Y-29337024D01*
X2296053Y-29553667D01*
X2307928Y-29599088D01*
X2413870Y-29848390D01*
X2462902Y-29928731D01*
X2554979Y-30079605D01*
X2554986Y-30079615D01*
X2728253Y-30287819D01*
X2728259Y-30287824D01*
X2832439Y-30381169D01*
X2929998Y-30468582D01*
X3155910Y-30618044D01*
X3401176Y-30733020D01*
X3401183Y-30733022D01*
X3401185Y-30733023D01*
X3660557Y-30811057D01*
X3660564Y-30811058D01*
X3660569Y-30811060D01*
X3928561Y-30850500D01*
X3928566Y-30850500D01*
X4131629Y-30850500D01*
X4131631Y-30850500D01*
X4131636Y-30850499D01*
X4131648Y-30850499D01*
X4169191Y-30847750D01*
X4334156Y-30835677D01*
X4461311Y-30807352D01*
X4598546Y-30776782D01*
X4598548Y-30776781D01*
X4598553Y-30776780D01*
X4851558Y-30680014D01*
X5087777Y-30547441D01*
X5302177Y-30381888D01*
X5490186Y-30186881D01*
X5647799Y-29966579D01*
X5721787Y-29822669D01*
X5771649Y-29725690D01*
X5771651Y-29725684D01*
X5771656Y-29725675D01*
X5859118Y-29469305D01*
X5908319Y-29202933D01*
X5918212Y-28932235D01*
X5888586Y-28662982D01*
X5820072Y-28400912D01*
X5714130Y-28151610D01*
X5573018Y-27920390D01*
X5483747Y-27813119D01*
X5399746Y-27712180D01*
X5399740Y-27712175D01*
X5198002Y-27531418D01*
X4972092Y-27381957D01*
X4972090Y-27381956D01*
X4726824Y-27266980D01*
X4726819Y-27266978D01*
X4726814Y-27266976D01*
X4467442Y-27188942D01*
X4467428Y-27188939D01*
X4351791Y-27171921D01*
X4199439Y-27149500D01*
X3996369Y-27149500D01*
X3996351Y-27149500D01*
X3793844Y-27164323D01*
X3793831Y-27164325D01*
X3529453Y-27223217D01*
X3529446Y-27223220D01*
X3276439Y-27319987D01*
X3040226Y-27452557D01*
X2825822Y-27618112D01*
X2637822Y-27813109D01*
X2637816Y-27813116D01*
X2480202Y-28033419D01*
X2480199Y-28033424D01*
X2356350Y-28274309D01*
X2356343Y-28274327D01*
X2268884Y-28530685D01*
X2268881Y-28530699D01*
X2219681Y-28797068D01*
X2219680Y-28797075D01*
X2209787Y-29067763D01*
X566377Y-29067763D01*
X564540Y-28995231D01*
X564500Y-28992091D01*
X564500Y-26297870D01*
X11813500Y-26297870D01*
X11813501Y-26297876D01*
X11819908Y-26357483D01*
X11870202Y-26492328D01*
X11870206Y-26492335D01*
X11956452Y-26607544D01*
X11956455Y-26607547D01*
X12071664Y-26693793D01*
X12071671Y-26693797D01*
X12206517Y-26744091D01*
X12206516Y-26744091D01*
X12213444Y-26744835D01*
X12266127Y-26750500D01*
X15861872Y-26750499D01*
X15921483Y-26744091D01*
X16056331Y-26693796D01*
X16171546Y-26607546D01*
X16257796Y-26492331D01*
X16276012Y-26443491D01*
X16317880Y-26387560D01*
X16383344Y-26363141D01*
X16451617Y-26377991D01*
X16501024Y-26427396D01*
X16516018Y-26493401D01*
X16514001Y-26531374D01*
X16514000Y-26531421D01*
X16514000Y-27250000D01*
X18264000Y-27250000D01*
X18264000Y-27750000D01*
X16514001Y-27750000D01*
X16514001Y-28468588D01*
X16516794Y-28521191D01*
X16561237Y-28750987D01*
X16643879Y-28969975D01*
X16762339Y-29171841D01*
X16762344Y-29171848D01*
X16913211Y-29350786D01*
X16913213Y-29350788D01*
X17092151Y-29501655D01*
X17092158Y-29501660D01*
X17294024Y-29620120D01*
X17513012Y-29702762D01*
X17742809Y-29747205D01*
X17795382Y-29749998D01*
X17795421Y-29749999D01*
X18513999Y-29749999D01*
X18514000Y-29749998D01*
X18514000Y-28933686D01*
X18554156Y-28959493D01*
X18692111Y-29000000D01*
X18835889Y-29000000D01*
X18973844Y-28959493D01*
X19014000Y-28933686D01*
X19014000Y-29749999D01*
X19732576Y-29749999D01*
X19732588Y-29749998D01*
X19785191Y-29747205D01*
X20014987Y-29702762D01*
X20233975Y-29620120D01*
X20435841Y-29501660D01*
X20435848Y-29501655D01*
X20614786Y-29350788D01*
X20614788Y-29350786D01*
X20765655Y-29171848D01*
X20765660Y-29171841D01*
X20884120Y-28969975D01*
X20966762Y-28750987D01*
X21011205Y-28521191D01*
X21011205Y-28521190D01*
X21012330Y-28500015D01*
X32363500Y-28500015D01*
X32374000Y-28602795D01*
X32374001Y-28602796D01*
X32429186Y-28769335D01*
X32429187Y-28769337D01*
X32521286Y-28918651D01*
X32521289Y-28918655D01*
X32645344Y-29042710D01*
X32645348Y-29042713D01*
X32794662Y-29134812D01*
X32794664Y-29134813D01*
X32794666Y-29134814D01*
X32961203Y-29189999D01*
X33063992Y-29200500D01*
X33063997Y-29200500D01*
X35064003Y-29200500D01*
X35064008Y-29200500D01*
X35166797Y-29189999D01*
X35333334Y-29134814D01*
X35482655Y-29042711D01*
X35606711Y-28918655D01*
X35698814Y-28769334D01*
X35753999Y-28602797D01*
X35764500Y-28500008D01*
X35764500Y-27500004D01*
X36319233Y-27500004D01*
X36338273Y-27754079D01*
X36394968Y-28002477D01*
X36394973Y-28002494D01*
X36488058Y-28239671D01*
X36488057Y-28239671D01*
X36615454Y-28460327D01*
X36615461Y-28460338D01*
X36657452Y-28512991D01*
X36657453Y-28512992D01*
X37383859Y-27786586D01*
X37443680Y-27900566D01*
X37556405Y-28027806D01*
X37696305Y-28124371D01*
X37737542Y-28140010D01*
X37010813Y-28866738D01*
X37171616Y-28976371D01*
X37171624Y-28976376D01*
X37401176Y-29086921D01*
X37401174Y-29086921D01*
X37644652Y-29162024D01*
X37644658Y-29162026D01*
X37896595Y-29199999D01*
X37896604Y-29200000D01*
X38151396Y-29200000D01*
X38151404Y-29199999D01*
X38403341Y-29162026D01*
X38403347Y-29162024D01*
X38646824Y-29086921D01*
X38686607Y-29067763D01*
X42209787Y-29067763D01*
X42239413Y-29337013D01*
X42239415Y-29337024D01*
X42296053Y-29553667D01*
X42307928Y-29599088D01*
X42413870Y-29848390D01*
X42462902Y-29928731D01*
X42554979Y-30079605D01*
X42554986Y-30079615D01*
X42728253Y-30287819D01*
X42728259Y-30287824D01*
X42832439Y-30381169D01*
X42929998Y-30468582D01*
X43155910Y-30618044D01*
X43401176Y-30733020D01*
X43401183Y-30733022D01*
X43401185Y-30733023D01*
X43660557Y-30811057D01*
X43660564Y-30811058D01*
X43660569Y-30811060D01*
X43928561Y-30850500D01*
X43928566Y-30850500D01*
X44131629Y-30850500D01*
X44131631Y-30850500D01*
X44131636Y-30850499D01*
X44131648Y-30850499D01*
X44169191Y-30847750D01*
X44334156Y-30835677D01*
X44461311Y-30807352D01*
X44598546Y-30776782D01*
X44598548Y-30776781D01*
X44598553Y-30776780D01*
X44851558Y-30680014D01*
X45087777Y-30547441D01*
X45302177Y-30381888D01*
X45490186Y-30186881D01*
X45647799Y-29966579D01*
X45721787Y-29822669D01*
X45771649Y-29725690D01*
X45771651Y-29725684D01*
X45771656Y-29725675D01*
X45859118Y-29469305D01*
X45908319Y-29202933D01*
X45918212Y-28932235D01*
X45888586Y-28662982D01*
X45820072Y-28400912D01*
X45714130Y-28151610D01*
X45573018Y-27920390D01*
X45483747Y-27813119D01*
X45399746Y-27712180D01*
X45399740Y-27712175D01*
X45198002Y-27531418D01*
X44972092Y-27381957D01*
X44972090Y-27381956D01*
X44726824Y-27266980D01*
X44726819Y-27266978D01*
X44726814Y-27266976D01*
X44467442Y-27188942D01*
X44467428Y-27188939D01*
X44351791Y-27171921D01*
X44199439Y-27149500D01*
X43996369Y-27149500D01*
X43996351Y-27149500D01*
X43793844Y-27164323D01*
X43793831Y-27164325D01*
X43529453Y-27223217D01*
X43529446Y-27223220D01*
X43276439Y-27319987D01*
X43040226Y-27452557D01*
X42825822Y-27618112D01*
X42637822Y-27813109D01*
X42637816Y-27813116D01*
X42480202Y-28033419D01*
X42480199Y-28033424D01*
X42356350Y-28274309D01*
X42356343Y-28274327D01*
X42268884Y-28530685D01*
X42268881Y-28530699D01*
X42219681Y-28797068D01*
X42219680Y-28797075D01*
X42209787Y-29067763D01*
X38686607Y-29067763D01*
X38876376Y-28976376D01*
X38876377Y-28976375D01*
X39037185Y-28866738D01*
X38310457Y-28140010D01*
X38351695Y-28124371D01*
X38491595Y-28027806D01*
X38604320Y-27900566D01*
X38664139Y-27786587D01*
X39390544Y-28512992D01*
X39390546Y-28512991D01*
X39432544Y-28460330D01*
X39559941Y-28239671D01*
X39653026Y-28002494D01*
X39653031Y-28002477D01*
X39709726Y-27754079D01*
X39728767Y-27500004D01*
X39728767Y-27499995D01*
X39709726Y-27245920D01*
X39653031Y-26997522D01*
X39653026Y-26997505D01*
X39559941Y-26760328D01*
X39559942Y-26760328D01*
X39432545Y-26539672D01*
X39390545Y-26487006D01*
X38664139Y-27213412D01*
X38604320Y-27099434D01*
X38491595Y-26972194D01*
X38351695Y-26875629D01*
X38310457Y-26859989D01*
X39037185Y-26133260D01*
X38876384Y-26023628D01*
X38876376Y-26023623D01*
X38646823Y-25913078D01*
X38646825Y-25913078D01*
X38403347Y-25837975D01*
X38403341Y-25837973D01*
X38151404Y-25800000D01*
X37896595Y-25800000D01*
X37644658Y-25837973D01*
X37644652Y-25837975D01*
X37401175Y-25913078D01*
X37171622Y-26023625D01*
X37171609Y-26023632D01*
X37010813Y-26133259D01*
X37737543Y-26859989D01*
X37696305Y-26875629D01*
X37556405Y-26972194D01*
X37443680Y-27099434D01*
X37383859Y-27213413D01*
X36657452Y-26487006D01*
X36615457Y-26539667D01*
X36488058Y-26760328D01*
X36394973Y-26997505D01*
X36394968Y-26997522D01*
X36338273Y-27245920D01*
X36319233Y-27499995D01*
X36319233Y-27500004D01*
X35764500Y-27500004D01*
X35764500Y-26499992D01*
X35753999Y-26397203D01*
X35698814Y-26230666D01*
X35696491Y-26226900D01*
X35606713Y-26081348D01*
X35606710Y-26081344D01*
X35482655Y-25957289D01*
X35482651Y-25957286D01*
X35333337Y-25865187D01*
X35333335Y-25865186D01*
X35221570Y-25828151D01*
X35166797Y-25810001D01*
X35166795Y-25810000D01*
X35064015Y-25799500D01*
X35064008Y-25799500D01*
X33063992Y-25799500D01*
X33063984Y-25799500D01*
X32961204Y-25810000D01*
X32961203Y-25810001D01*
X32794664Y-25865186D01*
X32794662Y-25865187D01*
X32645348Y-25957286D01*
X32645344Y-25957289D01*
X32521289Y-26081344D01*
X32521286Y-26081348D01*
X32429187Y-26230662D01*
X32429186Y-26230664D01*
X32374001Y-26397203D01*
X32374000Y-26397204D01*
X32363500Y-26499984D01*
X32363500Y-28500015D01*
X21012330Y-28500015D01*
X21013998Y-28468617D01*
X21014000Y-28468578D01*
X21014000Y-27750000D01*
X19264000Y-27750000D01*
X19264000Y-27250000D01*
X21013999Y-27250000D01*
X21013999Y-26531423D01*
X21013998Y-26531411D01*
X21011205Y-26478808D01*
X20966762Y-26249012D01*
X20884120Y-26030024D01*
X20765660Y-25828158D01*
X20765655Y-25828151D01*
X20614788Y-25649213D01*
X20614786Y-25649211D01*
X20435848Y-25498344D01*
X20435841Y-25498339D01*
X20233975Y-25379879D01*
X20014987Y-25297237D01*
X19785190Y-25252794D01*
X19732617Y-25250001D01*
X19732579Y-25250000D01*
X19014000Y-25250000D01*
X19014000Y-26066313D01*
X18973844Y-26040507D01*
X18835889Y-26000000D01*
X18692111Y-26000000D01*
X18554156Y-26040507D01*
X18514000Y-26066313D01*
X18514000Y-25250000D01*
X17795423Y-25250000D01*
X17795411Y-25250001D01*
X17742808Y-25252794D01*
X17513012Y-25297237D01*
X17294024Y-25379879D01*
X17092158Y-25498339D01*
X17092151Y-25498344D01*
X16913213Y-25649211D01*
X16913211Y-25649213D01*
X16762344Y-25828151D01*
X16762339Y-25828158D01*
X16643879Y-26030024D01*
X16561236Y-26249014D01*
X16560241Y-26254161D01*
X16528179Y-26316240D01*
X16467644Y-26351130D01*
X16397856Y-26347754D01*
X16340972Y-26307184D01*
X16315052Y-26242300D01*
X16314499Y-26230624D01*
X16314499Y-22702128D01*
X16308091Y-22642517D01*
X16289732Y-22593295D01*
X16257797Y-22507671D01*
X16257793Y-22507664D01*
X16171547Y-22392455D01*
X16171544Y-22392452D01*
X16056335Y-22306206D01*
X16056328Y-22306202D01*
X15921482Y-22255908D01*
X15921483Y-22255908D01*
X15861883Y-22249501D01*
X15861881Y-22249500D01*
X15861873Y-22249500D01*
X15861864Y-22249500D01*
X12266129Y-22249500D01*
X12266123Y-22249501D01*
X12206516Y-22255908D01*
X12071671Y-22306202D01*
X12071664Y-22306206D01*
X11956455Y-22392452D01*
X11956452Y-22392455D01*
X11870206Y-22507664D01*
X11870202Y-22507671D01*
X11819908Y-22642517D01*
X11813501Y-22702116D01*
X11813501Y-22702123D01*
X11813500Y-22702135D01*
X11813500Y-26297870D01*
X564500Y-26297870D01*
X564500Y-15184000D01*
X43308341Y-15184000D01*
X43328936Y-15419403D01*
X43328938Y-15419413D01*
X43390094Y-15647655D01*
X43390096Y-15647659D01*
X43390097Y-15647663D01*
X43489965Y-15861830D01*
X43489967Y-15861834D01*
X43598281Y-16016521D01*
X43625501Y-16055396D01*
X43625506Y-16055402D01*
X43747818Y-16177714D01*
X43781303Y-16239037D01*
X43776319Y-16308729D01*
X43734447Y-16364662D01*
X43703471Y-16381577D01*
X43571912Y-16430646D01*
X43571906Y-16430649D01*
X43456812Y-16516809D01*
X43456809Y-16516812D01*
X43370649Y-16631906D01*
X43370645Y-16631913D01*
X43320403Y-16766620D01*
X43320401Y-16766627D01*
X43314000Y-16826155D01*
X43314000Y-17474000D01*
X44230314Y-17474000D01*
X44204507Y-17514156D01*
X44164000Y-17652111D01*
X44164000Y-17795889D01*
X44204507Y-17933844D01*
X44230314Y-17974000D01*
X43314000Y-17974000D01*
X43314000Y-18621844D01*
X43320401Y-18681372D01*
X43320403Y-18681379D01*
X43370645Y-18816086D01*
X43370649Y-18816093D01*
X43456809Y-18931187D01*
X43456812Y-18931190D01*
X43571906Y-19017350D01*
X43571913Y-19017354D01*
X43706620Y-19067596D01*
X43706627Y-19067598D01*
X43766155Y-19073999D01*
X43766172Y-19074000D01*
X44414000Y-19074000D01*
X44414000Y-18159501D01*
X44521685Y-18208680D01*
X44628237Y-18224000D01*
X44699763Y-18224000D01*
X44806315Y-18208680D01*
X44914000Y-18159501D01*
X44914000Y-19074000D01*
X45561828Y-19074000D01*
X45561844Y-19073999D01*
X45621372Y-19067598D01*
X45621379Y-19067596D01*
X45756086Y-19017354D01*
X45756093Y-19017350D01*
X45871187Y-18931190D01*
X45871190Y-18931187D01*
X45957350Y-18816093D01*
X45957354Y-18816086D01*
X46007596Y-18681379D01*
X46007598Y-18681372D01*
X46013999Y-18621844D01*
X46014000Y-18621827D01*
X46014000Y-17974000D01*
X45097686Y-17974000D01*
X45123493Y-17933844D01*
X45164000Y-17795889D01*
X45164000Y-17652111D01*
X45123493Y-17514156D01*
X45097686Y-17474000D01*
X46014000Y-17474000D01*
X46014000Y-16826172D01*
X46013999Y-16826155D01*
X46007598Y-16766627D01*
X46007596Y-16766620D01*
X45957354Y-16631913D01*
X45957350Y-16631906D01*
X45871190Y-16516812D01*
X45871187Y-16516809D01*
X45756093Y-16430649D01*
X45756088Y-16430646D01*
X45624528Y-16381577D01*
X45568595Y-16339705D01*
X45544178Y-16274241D01*
X45559030Y-16205968D01*
X45580175Y-16177720D01*
X45702495Y-16055401D01*
X45838035Y-15861830D01*
X45937903Y-15647663D01*
X45999063Y-15419408D01*
X46019659Y-15184000D01*
X45999063Y-14948592D01*
X45937903Y-14720337D01*
X45838035Y-14506171D01*
X45702495Y-14312599D01*
X45702494Y-14312597D01*
X45535402Y-14145506D01*
X45535395Y-14145501D01*
X45341834Y-14009967D01*
X45341830Y-14009965D01*
X45341828Y-14009964D01*
X45127663Y-13910097D01*
X45127659Y-13910096D01*
X45127655Y-13910094D01*
X44899413Y-13848938D01*
X44899403Y-13848936D01*
X44664001Y-13828341D01*
X44663999Y-13828341D01*
X44428596Y-13848936D01*
X44428586Y-13848938D01*
X44200344Y-13910094D01*
X44200335Y-13910098D01*
X43986171Y-14009964D01*
X43986169Y-14009965D01*
X43792597Y-14145505D01*
X43625505Y-14312597D01*
X43489965Y-14506169D01*
X43489964Y-14506171D01*
X43390098Y-14720335D01*
X43390094Y-14720344D01*
X43328938Y-14948586D01*
X43328936Y-14948596D01*
X43308341Y-15183999D01*
X43308341Y-15184000D01*
X564500Y-15184000D01*
X564500Y-7429000D01*
X9312341Y-7429000D01*
X9332936Y-7664403D01*
X9332938Y-7664413D01*
X9394094Y-7892655D01*
X9394096Y-7892659D01*
X9394097Y-7892663D01*
X9493965Y-8106830D01*
X9493967Y-8106834D01*
X9602281Y-8261521D01*
X9629505Y-8300401D01*
X9796599Y-8467495D01*
X9893384Y-8535265D01*
X9990165Y-8603032D01*
X9990167Y-8603033D01*
X9990170Y-8603035D01*
X10204337Y-8702903D01*
X10432592Y-8764063D01*
X10620918Y-8780539D01*
X10667999Y-8784659D01*
X10668000Y-8784659D01*
X10668001Y-8784659D01*
X10707234Y-8781226D01*
X10903408Y-8764063D01*
X11131663Y-8702903D01*
X11345830Y-8603035D01*
X11539401Y-8467495D01*
X11706495Y-8300401D01*
X11842035Y-8106830D01*
X11941903Y-7892663D01*
X12003063Y-7664408D01*
X12023659Y-7429000D01*
X12003063Y-7193592D01*
X11941903Y-6965337D01*
X11842035Y-6751171D01*
X11706495Y-6557599D01*
X11706494Y-6557597D01*
X11539402Y-6390506D01*
X11539401Y-6390505D01*
X11353405Y-6260269D01*
X11309781Y-6205692D01*
X11302588Y-6136193D01*
X11334110Y-6073839D01*
X11353405Y-6057119D01*
X11539082Y-5927105D01*
X11706105Y-5760082D01*
X11841600Y-5566578D01*
X11941429Y-5352492D01*
X11941432Y-5352486D01*
X11998636Y-5139000D01*
X11101686Y-5139000D01*
X11127493Y-5098844D01*
X11168000Y-4960889D01*
X11168000Y-4817111D01*
X11127493Y-4679156D01*
X11101686Y-4639000D01*
X11998636Y-4639000D01*
X11998635Y-4638999D01*
X11941432Y-4425513D01*
X11941429Y-4425507D01*
X11841600Y-4211422D01*
X11841599Y-4211420D01*
X11741009Y-4067763D01*
X42209787Y-4067763D01*
X42239413Y-4337013D01*
X42239415Y-4337024D01*
X42297239Y-4558202D01*
X42307928Y-4599088D01*
X42413870Y-4848390D01*
X42485998Y-4966575D01*
X42554979Y-5079605D01*
X42554986Y-5079615D01*
X42728253Y-5287819D01*
X42728259Y-5287824D01*
X42929998Y-5468582D01*
X43155910Y-5618044D01*
X43401176Y-5733020D01*
X43401183Y-5733022D01*
X43401185Y-5733023D01*
X43660557Y-5811057D01*
X43660564Y-5811058D01*
X43660569Y-5811060D01*
X43928561Y-5850500D01*
X43928566Y-5850500D01*
X44131629Y-5850500D01*
X44131631Y-5850500D01*
X44131636Y-5850499D01*
X44131648Y-5850499D01*
X44169191Y-5847750D01*
X44334156Y-5835677D01*
X44446758Y-5810593D01*
X44598546Y-5776782D01*
X44598548Y-5776781D01*
X44598553Y-5776780D01*
X44851558Y-5680014D01*
X45087777Y-5547441D01*
X45302177Y-5381888D01*
X45490186Y-5186881D01*
X45647799Y-4966579D01*
X45724646Y-4817111D01*
X45771649Y-4725690D01*
X45771651Y-4725684D01*
X45771656Y-4725675D01*
X45859118Y-4469305D01*
X45908319Y-4202933D01*
X45918212Y-3932235D01*
X45888586Y-3662982D01*
X45820072Y-3400912D01*
X45714130Y-3151610D01*
X45573018Y-2920390D01*
X45551158Y-2894122D01*
X45399746Y-2712180D01*
X45399740Y-2712175D01*
X45198002Y-2531418D01*
X44972092Y-2381957D01*
X44972090Y-2381956D01*
X44726824Y-2266980D01*
X44726819Y-2266978D01*
X44726814Y-2266976D01*
X44467442Y-2188942D01*
X44467428Y-2188939D01*
X44351791Y-2171921D01*
X44199439Y-2149500D01*
X43996369Y-2149500D01*
X43996351Y-2149500D01*
X43793844Y-2164323D01*
X43793831Y-2164325D01*
X43529453Y-2223217D01*
X43529446Y-2223220D01*
X43276439Y-2319987D01*
X43040226Y-2452557D01*
X43040224Y-2452558D01*
X43040223Y-2452559D01*
X42977893Y-2500688D01*
X42825822Y-2618112D01*
X42637822Y-2813109D01*
X42637816Y-2813116D01*
X42480202Y-3033419D01*
X42480199Y-3033424D01*
X42356350Y-3274309D01*
X42356343Y-3274327D01*
X42268884Y-3530685D01*
X42268882Y-3530695D01*
X42220046Y-3795094D01*
X42219681Y-3797068D01*
X42219680Y-3797075D01*
X42209787Y-4067763D01*
X11741009Y-4067763D01*
X11706113Y-4017926D01*
X11706108Y-4017920D01*
X11584053Y-3895865D01*
X11550568Y-3834542D01*
X11555552Y-3764850D01*
X11597424Y-3708917D01*
X11628400Y-3692002D01*
X11743416Y-3649105D01*
X11760326Y-3642798D01*
X11760326Y-3642797D01*
X11760331Y-3642796D01*
X11875546Y-3556546D01*
X11961796Y-3441331D01*
X12012091Y-3306483D01*
X12018500Y-3246873D01*
X12018499Y-1451128D01*
X12012091Y-1391517D01*
X11994685Y-1344850D01*
X11961797Y-1256671D01*
X11961793Y-1256664D01*
X11875547Y-1141455D01*
X11875544Y-1141452D01*
X11760335Y-1055206D01*
X11760328Y-1055202D01*
X11625482Y-1004908D01*
X11625483Y-1004908D01*
X11565883Y-998501D01*
X11565881Y-998500D01*
X11565873Y-998500D01*
X11565864Y-998500D01*
X9770129Y-998500D01*
X9770123Y-998501D01*
X9710516Y-1004908D01*
X9575671Y-1055202D01*
X9575664Y-1055206D01*
X9460455Y-1141452D01*
X9460452Y-1141455D01*
X9374206Y-1256664D01*
X9374202Y-1256671D01*
X9323908Y-1391517D01*
X9317885Y-1447547D01*
X9317501Y-1451123D01*
X9317500Y-1451135D01*
X9317500Y-3246870D01*
X9317501Y-3246876D01*
X9323908Y-3306483D01*
X9374202Y-3441328D01*
X9374206Y-3441335D01*
X9460452Y-3556544D01*
X9460455Y-3556547D01*
X9575664Y-3642793D01*
X9575671Y-3642797D01*
X9629801Y-3662986D01*
X9707598Y-3692002D01*
X9763531Y-3733873D01*
X9787949Y-3799337D01*
X9773098Y-3867610D01*
X9751947Y-3895865D01*
X9629886Y-4017926D01*
X9494400Y-4211420D01*
X9494399Y-4211422D01*
X9394570Y-4425507D01*
X9394567Y-4425513D01*
X9337364Y-4638999D01*
X9337364Y-4639000D01*
X10234314Y-4639000D01*
X10208507Y-4679156D01*
X10168000Y-4817111D01*
X10168000Y-4960889D01*
X10208507Y-5098844D01*
X10234314Y-5139000D01*
X9337364Y-5139000D01*
X9394567Y-5352486D01*
X9394570Y-5352492D01*
X9494399Y-5566578D01*
X9629894Y-5760082D01*
X9796917Y-5927105D01*
X9982595Y-6057119D01*
X10026219Y-6111696D01*
X10033412Y-6181195D01*
X10001890Y-6243549D01*
X9982595Y-6260269D01*
X9796594Y-6390508D01*
X9629505Y-6557597D01*
X9493965Y-6751169D01*
X9493964Y-6751171D01*
X9394098Y-6965335D01*
X9394094Y-6965344D01*
X9332938Y-7193586D01*
X9332936Y-7193596D01*
X9312341Y-7428999D01*
X9312341Y-7429000D01*
X564500Y-7429000D01*
X564500Y-4067763D01*
X2209787Y-4067763D01*
X2239413Y-4337013D01*
X2239415Y-4337024D01*
X2297239Y-4558202D01*
X2307928Y-4599088D01*
X2413870Y-4848390D01*
X2485998Y-4966575D01*
X2554979Y-5079605D01*
X2554986Y-5079615D01*
X2728253Y-5287819D01*
X2728259Y-5287824D01*
X2929998Y-5468582D01*
X3155910Y-5618044D01*
X3401176Y-5733020D01*
X3401183Y-5733022D01*
X3401185Y-5733023D01*
X3660557Y-5811057D01*
X3660564Y-5811058D01*
X3660569Y-5811060D01*
X3928561Y-5850500D01*
X3928566Y-5850500D01*
X4131629Y-5850500D01*
X4131631Y-5850500D01*
X4131636Y-5850499D01*
X4131648Y-5850499D01*
X4169191Y-5847750D01*
X4334156Y-5835677D01*
X4446758Y-5810593D01*
X4598546Y-5776782D01*
X4598548Y-5776781D01*
X4598553Y-5776780D01*
X4851558Y-5680014D01*
X5087777Y-5547441D01*
X5302177Y-5381888D01*
X5490186Y-5186881D01*
X5647799Y-4966579D01*
X5724646Y-4817111D01*
X5771649Y-4725690D01*
X5771651Y-4725684D01*
X5771656Y-4725675D01*
X5859118Y-4469305D01*
X5908319Y-4202933D01*
X5918212Y-3932235D01*
X5888586Y-3662982D01*
X5820072Y-3400912D01*
X5714130Y-3151610D01*
X5573018Y-2920390D01*
X5551158Y-2894122D01*
X5399746Y-2712180D01*
X5399740Y-2712175D01*
X5198002Y-2531418D01*
X4972092Y-2381957D01*
X4972090Y-2381956D01*
X4726824Y-2266980D01*
X4726819Y-2266978D01*
X4726814Y-2266976D01*
X4467442Y-2188942D01*
X4467428Y-2188939D01*
X4351791Y-2171921D01*
X4199439Y-2149500D01*
X3996369Y-2149500D01*
X3996351Y-2149500D01*
X3793844Y-2164323D01*
X3793831Y-2164325D01*
X3529453Y-2223217D01*
X3529446Y-2223220D01*
X3276439Y-2319987D01*
X3040226Y-2452557D01*
X3040224Y-2452558D01*
X3040223Y-2452559D01*
X2977893Y-2500688D01*
X2825822Y-2618112D01*
X2637822Y-2813109D01*
X2637816Y-2813116D01*
X2480202Y-3033419D01*
X2480199Y-3033424D01*
X2356350Y-3274309D01*
X2356343Y-3274327D01*
X2268884Y-3530685D01*
X2268882Y-3530695D01*
X2220046Y-3795094D01*
X2219681Y-3797068D01*
X2219680Y-3797075D01*
X2209787Y-4067763D01*
X564500Y-4067763D01*
X564500Y-4007907D01*
X564540Y-4004767D01*
X564821Y-3993664D01*
X569070Y-3825902D01*
X569388Y-3819638D01*
X570290Y-3807793D01*
X582376Y-3649091D01*
X583004Y-3642908D01*
X604622Y-3473165D01*
X605557Y-3467062D01*
X635743Y-3298642D01*
X636994Y-3292557D01*
X675663Y-3125918D01*
X677224Y-3119887D01*
X724282Y-2955426D01*
X726146Y-2949486D01*
X781478Y-2787607D01*
X783654Y-2781735D01*
X811439Y-2712175D01*
X847095Y-2622911D01*
X849540Y-2617212D01*
X920986Y-2461714D01*
X923704Y-2456174D01*
X1002928Y-2304511D01*
X1005941Y-2299083D01*
X1092731Y-2151644D01*
X1095989Y-2146417D01*
X1190159Y-2003533D01*
X1193723Y-1998415D01*
X1208088Y-1978851D01*
X1294964Y-1860542D01*
X1298780Y-1855611D01*
X1406893Y-1723022D01*
X1410936Y-1718313D01*
X1525613Y-1591382D01*
X1529904Y-1586868D01*
X1650859Y-1465913D01*
X1655393Y-1461604D01*
X1782294Y-1346954D01*
X1787060Y-1342862D01*
X1919610Y-1234782D01*
X1924549Y-1230958D01*
X2062426Y-1129713D01*
X2067532Y-1126159D01*
X2210365Y-1032023D01*
X2215680Y-1028711D01*
X2363053Y-941958D01*
X2368536Y-938915D01*
X2520152Y-859716D01*
X2525722Y-856983D01*
X2681190Y-785550D01*
X2686895Y-783102D01*
X2845779Y-719636D01*
X2851588Y-717484D01*
X3013492Y-662143D01*
X3019434Y-660279D01*
X3183873Y-613228D01*
X3189914Y-611664D01*
X3356557Y-572994D01*
X3362642Y-571743D01*
X3531062Y-541557D01*
X3537165Y-540622D01*
X3706908Y-519004D01*
X3713092Y-518376D01*
X3883649Y-505387D01*
X3889902Y-505070D01*
X4068768Y-500540D01*
X4071908Y-500500D01*
X44056091Y-500500D01*
X44059231Y-500540D01*
G37*
%TD.AperFunction*%
%TD*%
M02*
