M48
; DRILL file {KiCad 7.0.10} date Sun 03 Mar 2024 12:06:43 PM CET
; FORMAT={-:-/ absolute / inch / decimal}
; #@! TF.CreationDate,2024-03-03T12:06:43+01:00
; #@! TF.GenerationSoftware,Kicad,Pcbnew,7.0.10
; #@! TF.FileFunction,Plated,1,2,PTH
FMAT,2
INCH
; #@! TA.AperFunction,Plated,PTH,ViaDrill
T1C0.0157
; #@! TA.AperFunction,Plated,PTH,ComponentDrill
T2C0.0315
; #@! TA.AperFunction,Plated,PTH,ComponentDrill
T3C0.0354
; #@! TA.AperFunction,Plated,PTH,ComponentDrill
T4C0.0394
; #@! TA.AperFunction,Plated,PTH,ComponentDrill
T5C0.0551
%
G90
G05
T1
X0.034Y-0.5118
X0.034Y-0.622
X0.034Y-0.7244
X0.3529Y-0.5945
X0.3529Y-0.6417
X0.408Y-0.5945
X0.408Y-0.6417
X0.4631Y-0.5945
X0.4631Y-0.6417
X0.5458Y-0.4961
X0.6679Y-0.4961
X0.7899Y-0.4961
X0.8529Y-1.9055
X0.971Y-0.626
X1.0391Y-0.626
X1.0458Y-0.2165
X1.1049Y-0.626
X1.345Y-0.6575
X1.445Y-0.6575
X2.0076Y-0.5118
X2.0076Y-0.622
X2.0076Y-0.7244
X2.3265Y-0.5945
X2.3265Y-0.6417
X2.3816Y-0.5945
X2.3816Y-0.6417
X2.4367Y-0.5945
X2.4367Y-0.6417
X2.5194Y-0.4961
X2.6414Y-0.4961
X2.7635Y-0.4961
X2.8265Y-1.9055
X2.9446Y-0.626
X3.0126Y-0.626
X3.0194Y-0.2165
X3.0784Y-0.626
X3.3185Y-0.6575
X3.4185Y-0.6575
T2
X0.4474Y-1.7618
X1.4474Y-1.7618
X2.4209Y-1.7618
X3.4209Y-1.7618
T3
X0.9474Y-2.0177
X0.9474Y-2.1177
X2.9209Y-2.0177
X2.9209Y-2.1177
T4
X0.42Y-0.0925
X0.42Y-0.1925
X0.42Y-0.2925
X1.7584Y-0.5978
X1.7584Y-0.6978
X2.3935Y-0.0925
X2.3935Y-0.1925
X2.3935Y-0.2925
X3.732Y-0.5978
X3.732Y-0.6978
T5
X1.3411Y-1.0827
X1.3411Y-2.5
X1.497Y-1.0827
X1.497Y-2.5
X3.3146Y-1.0827
X3.3146Y-2.5
X3.4706Y-1.0827
X3.4706Y-2.5
T4
G00X0.5143Y-0.9646
M15
G01X0.5931Y-0.9646
M16
G05
G00X0.5143Y-1.2008
M15
G01X0.5931Y-1.2008
M16
G05
G00X0.5143Y-2.3819
M15
G01X0.5931Y-2.3819
M16
G05
G00X0.5143Y-2.6181
M15
G01X0.5931Y-2.6181
M16
G05
G00X0.7387Y-1.122
M15
G01X0.7387Y-1.0433
M16
G05
G00X0.7387Y-2.5394
M15
G01X0.7387Y-2.4606
M16
G05
G00X2.4879Y-0.9646
M15
G01X2.5666Y-0.9646
M16
G05
G00X2.4879Y-1.2008
M15
G01X2.5666Y-1.2008
M16
G05
G00X2.4879Y-2.3819
M15
G01X2.5666Y-2.3819
M16
G05
G00X2.4879Y-2.6181
M15
G01X2.5666Y-2.6181
M16
G05
G00X2.7123Y-1.122
M15
G01X2.7123Y-1.0433
M16
G05
G00X2.7123Y-2.5394
M15
G01X2.7123Y-2.4606
M16
G05
M30
