%TF.GenerationSoftware,KiCad,Pcbnew,7.0.10*%
%TF.CreationDate,2024-03-02T17:11:43+01:00*%
%TF.ProjectId,explorer-light,6578706c-6f72-4657-922d-6c696768742e,rev?*%
%TF.SameCoordinates,Original*%
%TF.FileFunction,Copper,L2,Bot*%
%TF.FilePolarity,Positive*%
%FSLAX46Y46*%
G04 Gerber Fmt 4.6, Leading zero omitted, Abs format (unit mm)*
G04 Created by KiCad (PCBNEW 7.0.10) date 2024-03-02 17:11:43*
%MOMM*%
%LPD*%
G01*
G04 APERTURE LIST*
G04 Aperture macros list*
%AMRoundRect*
0 Rectangle with rounded corners*
0 $1 Rounding radius*
0 $2 $3 $4 $5 $6 $7 $8 $9 X,Y pos of 4 corners*
0 Add a 4 corners polygon primitive as box body*
4,1,4,$2,$3,$4,$5,$6,$7,$8,$9,$2,$3,0*
0 Add four circle primitives for the rounded corners*
1,1,$1+$1,$2,$3*
1,1,$1+$1,$4,$5*
1,1,$1+$1,$6,$7*
1,1,$1+$1,$8,$9*
0 Add four rect primitives between the rounded corners*
20,1,$1+$1,$2,$3,$4,$5,0*
20,1,$1+$1,$4,$5,$6,$7,0*
20,1,$1+$1,$6,$7,$8,$9,0*
20,1,$1+$1,$8,$9,$2,$3,0*%
G04 Aperture macros list end*
%TA.AperFunction,ComponentPad*%
%ADD10R,3.500000X3.500000*%
%TD*%
%TA.AperFunction,ComponentPad*%
%ADD11RoundRect,0.750000X1.000000X-0.750000X1.000000X0.750000X-1.000000X0.750000X-1.000000X-0.750000X0*%
%TD*%
%TA.AperFunction,ComponentPad*%
%ADD12RoundRect,0.875000X0.875000X-0.875000X0.875000X0.875000X-0.875000X0.875000X-0.875000X-0.875000X0*%
%TD*%
%TA.AperFunction,ComponentPad*%
%ADD13RoundRect,0.250001X-0.949999X-0.949999X0.949999X-0.949999X0.949999X0.949999X-0.949999X0.949999X0*%
%TD*%
%TA.AperFunction,ComponentPad*%
%ADD14C,2.400000*%
%TD*%
%TA.AperFunction,ComponentPad*%
%ADD15R,1.800000X1.800000*%
%TD*%
%TA.AperFunction,ComponentPad*%
%ADD16C,1.800000*%
%TD*%
%TA.AperFunction,ComponentPad*%
%ADD17C,1.600000*%
%TD*%
%TA.AperFunction,ComponentPad*%
%ADD18O,1.600000X1.600000*%
%TD*%
%TA.AperFunction,ViaPad*%
%ADD19C,0.800000*%
%TD*%
%TA.AperFunction,Conductor*%
%ADD20C,1.000000*%
%TD*%
G04 APERTURE END LIST*
D10*
%TO.P,J2,1,Pin_1*%
%TO.N,VCC*%
X103014800Y-75116800D03*
D11*
%TO.P,J2,2,Pin_2*%
%TO.N,GND*%
X103014800Y-81116800D03*
D12*
%TO.P,J2,3,Pin_3*%
X107714800Y-78116800D03*
%TD*%
D13*
%TO.P,J1,1,Pin_1*%
%TO.N,VCC*%
X123014800Y-78116800D03*
D14*
%TO.P,J1,2,Pin_2*%
%TO.N,GND*%
X126974800Y-78116800D03*
%TD*%
D15*
%TO.P,D2,1,K*%
%TO.N,Net-(D1-K)*%
X113014800Y-65866800D03*
D16*
%TO.P,D2,2,A*%
%TO.N,VCC*%
X113014800Y-68406800D03*
%TD*%
D17*
%TO.P,R1,1*%
%TO.N,Net-(D1-K)*%
X100314800Y-59366800D03*
D18*
%TO.P,R1,2*%
%TO.N,GND*%
X125714800Y-59366800D03*
%TD*%
D19*
%TO.N,Net-(D1-K)*%
X110614800Y-63016800D03*
%TD*%
D20*
%TO.N,Net-(D1-K)*%
X113014800Y-61116800D02*
X112389800Y-60491800D01*
X110614800Y-63016800D02*
X113014800Y-63016800D01*
X111264800Y-59366800D02*
X100314800Y-59366800D01*
X113014800Y-65866800D02*
X113014800Y-63016800D01*
X112389800Y-60491800D02*
X111264800Y-59366800D01*
X113014800Y-63016800D02*
X113014800Y-61116800D01*
%TD*%
%TA.AperFunction,Conductor*%
%TO.N,GND*%
G36*
X133721715Y-50618142D02*
G01*
X133774176Y-50625924D01*
X133784371Y-50627876D01*
X133967788Y-50671015D01*
X133969443Y-50671416D01*
X134150698Y-50716818D01*
X134159972Y-50719529D01*
X134339809Y-50779804D01*
X134341933Y-50780540D01*
X134516882Y-50843139D01*
X134525115Y-50846424D01*
X134699099Y-50923246D01*
X134701900Y-50924526D01*
X134869283Y-51003692D01*
X134876593Y-51007452D01*
X135043003Y-51100142D01*
X135046347Y-51102074D01*
X135204826Y-51197062D01*
X135211092Y-51201081D01*
X135368442Y-51308868D01*
X135372219Y-51311562D01*
X135520393Y-51421457D01*
X135525743Y-51425656D01*
X135672504Y-51547524D01*
X135676560Y-51551044D01*
X135813206Y-51674892D01*
X135817614Y-51679089D01*
X135952509Y-51813984D01*
X135956706Y-51818392D01*
X136080554Y-51955038D01*
X136084074Y-51959094D01*
X136205942Y-52105855D01*
X136210141Y-52111205D01*
X136320036Y-52259379D01*
X136322739Y-52263169D01*
X136430500Y-52420480D01*
X136434547Y-52426790D01*
X136529500Y-52585210D01*
X136531470Y-52588619D01*
X136624143Y-52754999D01*
X136627909Y-52762321D01*
X136707050Y-52929650D01*
X136708384Y-52932571D01*
X136785163Y-53106456D01*
X136788473Y-53114751D01*
X136851015Y-53289543D01*
X136851836Y-53291912D01*
X136912068Y-53471623D01*
X136914780Y-53480900D01*
X136960172Y-53662117D01*
X136960594Y-53663856D01*
X137003723Y-53847229D01*
X137005675Y-53857424D01*
X137033485Y-54044903D01*
X137033639Y-54045975D01*
X137034533Y-54052387D01*
X137035719Y-54068758D01*
X137078298Y-61093970D01*
X137078300Y-61094722D01*
X137078300Y-79613927D01*
X137078168Y-79619654D01*
X137070328Y-79789229D01*
X137070311Y-79789586D01*
X137060335Y-79992659D01*
X137059295Y-80003707D01*
X137033628Y-80187697D01*
X137033475Y-80188760D01*
X137005674Y-80376176D01*
X137003722Y-80386370D01*
X136960598Y-80569726D01*
X136960176Y-80571466D01*
X136914780Y-80752698D01*
X136912068Y-80761975D01*
X136851836Y-80941686D01*
X136851015Y-80944055D01*
X136788473Y-81118847D01*
X136785156Y-81127159D01*
X136708389Y-81301018D01*
X136707050Y-81303948D01*
X136627909Y-81471277D01*
X136624143Y-81478599D01*
X136531470Y-81644979D01*
X136529500Y-81648388D01*
X136434559Y-81806789D01*
X136430500Y-81813118D01*
X136322739Y-81970429D01*
X136320036Y-81974219D01*
X136210141Y-82122393D01*
X136205942Y-82127743D01*
X136084074Y-82274504D01*
X136080554Y-82278560D01*
X135956706Y-82415206D01*
X135952509Y-82419614D01*
X135817614Y-82554509D01*
X135813206Y-82558706D01*
X135676560Y-82682554D01*
X135672504Y-82686074D01*
X135525743Y-82807942D01*
X135520393Y-82812141D01*
X135372219Y-82922036D01*
X135368429Y-82924739D01*
X135211118Y-83032500D01*
X135204789Y-83036559D01*
X135046388Y-83131500D01*
X135042979Y-83133470D01*
X134876599Y-83226143D01*
X134869277Y-83229909D01*
X134701948Y-83309050D01*
X134699018Y-83310389D01*
X134525159Y-83387156D01*
X134516847Y-83390473D01*
X134342055Y-83453015D01*
X134339686Y-83453836D01*
X134159975Y-83514068D01*
X134150698Y-83516780D01*
X133969466Y-83562176D01*
X133967727Y-83562598D01*
X133784373Y-83605722D01*
X133774181Y-83607673D01*
X133721715Y-83615457D01*
X133703517Y-83616800D01*
X92326082Y-83616800D01*
X92307884Y-83615457D01*
X92255419Y-83607673D01*
X92245228Y-83605722D01*
X92061872Y-83562598D01*
X92060132Y-83562176D01*
X91878900Y-83516780D01*
X91869623Y-83514068D01*
X91689912Y-83453836D01*
X91687543Y-83453015D01*
X91512751Y-83390473D01*
X91504456Y-83387163D01*
X91330571Y-83310384D01*
X91327650Y-83309050D01*
X91160321Y-83229909D01*
X91152999Y-83226143D01*
X90986619Y-83133470D01*
X90983210Y-83131500D01*
X90958681Y-83116798D01*
X90824790Y-83036547D01*
X90818490Y-83032506D01*
X90661169Y-82924739D01*
X90657379Y-82922036D01*
X90509205Y-82812141D01*
X90503855Y-82807942D01*
X90357094Y-82686074D01*
X90353038Y-82682554D01*
X90216392Y-82558706D01*
X90211984Y-82554509D01*
X90077089Y-82419614D01*
X90072892Y-82415206D01*
X89949044Y-82278560D01*
X89945524Y-82274504D01*
X89823656Y-82127743D01*
X89819457Y-82122393D01*
X89709562Y-81974219D01*
X89706859Y-81970429D01*
X89599081Y-81813092D01*
X89595062Y-81806826D01*
X89500074Y-81648347D01*
X89498142Y-81645003D01*
X89405452Y-81478593D01*
X89401689Y-81471277D01*
X89322526Y-81303900D01*
X89321246Y-81301099D01*
X89244424Y-81127115D01*
X89241139Y-81118882D01*
X89178540Y-80943933D01*
X89177804Y-80941809D01*
X89117529Y-80761972D01*
X89114818Y-80752698D01*
X89069426Y-80571481D01*
X89069004Y-80569742D01*
X89063976Y-80548364D01*
X89025874Y-80386362D01*
X89023923Y-80376171D01*
X89022118Y-80364005D01*
X89016141Y-80323713D01*
X89014800Y-80305520D01*
X89014800Y-79747987D01*
X91264300Y-79747987D01*
X91274748Y-79817299D01*
X91303404Y-80007415D01*
X91303405Y-80007417D01*
X91303406Y-80007423D01*
X91380738Y-80258126D01*
X91494567Y-80494496D01*
X91494568Y-80494497D01*
X91494570Y-80494500D01*
X91494572Y-80494504D01*
X91588397Y-80632120D01*
X91642367Y-80711279D01*
X91820814Y-80903601D01*
X91820818Y-80903604D01*
X91820819Y-80903605D01*
X92025943Y-81067186D01*
X92253157Y-81198368D01*
X92497384Y-81294220D01*
X92753170Y-81352602D01*
X92753176Y-81352602D01*
X92753179Y-81352603D01*
X92949284Y-81367299D01*
X92949303Y-81367299D01*
X92949306Y-81367300D01*
X92949308Y-81367300D01*
X93080292Y-81367300D01*
X93080294Y-81367300D01*
X93080296Y-81367299D01*
X93080315Y-81367299D01*
X93276420Y-81352603D01*
X93276422Y-81352602D01*
X93276430Y-81352602D01*
X93532216Y-81294220D01*
X93776443Y-81198368D01*
X94003657Y-81067186D01*
X94208781Y-80903605D01*
X94242931Y-80866800D01*
X100764800Y-80866800D01*
X101581114Y-80866800D01*
X101555307Y-80906956D01*
X101514800Y-81044911D01*
X101514800Y-81188689D01*
X101555307Y-81326644D01*
X101581114Y-81366800D01*
X100764801Y-81366800D01*
X100764801Y-81930997D01*
X100775200Y-82063132D01*
X100830177Y-82281319D01*
X100923228Y-82486174D01*
X100923231Y-82486180D01*
X101051359Y-82671123D01*
X101051369Y-82671135D01*
X101210464Y-82830230D01*
X101210476Y-82830240D01*
X101395419Y-82958368D01*
X101395425Y-82958371D01*
X101600280Y-83051422D01*
X101818467Y-83106399D01*
X101950610Y-83116799D01*
X102764799Y-83116799D01*
X102764800Y-83116798D01*
X102764800Y-81616800D01*
X103264800Y-81616800D01*
X103264800Y-83116799D01*
X104078982Y-83116799D01*
X104078997Y-83116798D01*
X104211132Y-83106399D01*
X104429319Y-83051422D01*
X104634174Y-82958371D01*
X104634180Y-82958368D01*
X104819123Y-82830240D01*
X104819135Y-82830230D01*
X104978230Y-82671135D01*
X104978240Y-82671123D01*
X105106368Y-82486180D01*
X105106371Y-82486174D01*
X105199422Y-82281319D01*
X105254399Y-82063132D01*
X105264799Y-81930996D01*
X105264800Y-81930984D01*
X105264800Y-81366800D01*
X104448486Y-81366800D01*
X104474293Y-81326644D01*
X104514800Y-81188689D01*
X104514800Y-81044911D01*
X104474293Y-80906956D01*
X104448486Y-80866800D01*
X105264799Y-80866800D01*
X105264799Y-80302617D01*
X105264798Y-80302602D01*
X105254399Y-80170467D01*
X105199422Y-79952280D01*
X105106371Y-79747425D01*
X105106368Y-79747419D01*
X104978240Y-79562476D01*
X104978230Y-79562464D01*
X104819135Y-79403369D01*
X104819123Y-79403359D01*
X104634180Y-79275231D01*
X104634174Y-79275228D01*
X104429319Y-79182177D01*
X104211132Y-79127200D01*
X104078996Y-79116800D01*
X103264800Y-79116800D01*
X103264800Y-80616800D01*
X102764800Y-80616800D01*
X102764800Y-79116800D01*
X101950617Y-79116800D01*
X101950602Y-79116801D01*
X101818467Y-79127200D01*
X101600280Y-79182177D01*
X101395425Y-79275228D01*
X101395419Y-79275231D01*
X101210476Y-79403359D01*
X101210464Y-79403369D01*
X101051369Y-79562464D01*
X101051359Y-79562476D01*
X100923231Y-79747419D01*
X100923228Y-79747425D01*
X100830177Y-79952280D01*
X100775200Y-80170467D01*
X100764800Y-80302603D01*
X100764800Y-80866800D01*
X94242931Y-80866800D01*
X94387233Y-80711279D01*
X94535028Y-80494504D01*
X94648863Y-80258123D01*
X94726196Y-80007415D01*
X94765300Y-79747982D01*
X94765300Y-79485618D01*
X94726196Y-79226185D01*
X94648863Y-78975477D01*
X94591553Y-78856471D01*
X94535032Y-78739103D01*
X94535031Y-78739102D01*
X94535030Y-78739101D01*
X94535028Y-78739096D01*
X94387233Y-78522321D01*
X94339014Y-78470353D01*
X94208785Y-78329998D01*
X94048023Y-78201795D01*
X94003657Y-78166414D01*
X93776443Y-78035232D01*
X93532216Y-77939380D01*
X93532211Y-77939378D01*
X93532202Y-77939376D01*
X93314618Y-77889714D01*
X93276430Y-77880998D01*
X93276429Y-77880997D01*
X93276425Y-77880997D01*
X93276420Y-77880996D01*
X93080315Y-77866300D01*
X93080294Y-77866300D01*
X92949306Y-77866300D01*
X92949284Y-77866300D01*
X92753179Y-77880996D01*
X92753174Y-77880997D01*
X92497397Y-77939376D01*
X92497378Y-77939382D01*
X92253156Y-78035232D01*
X92025943Y-78166414D01*
X91820814Y-78329998D01*
X91642367Y-78522320D01*
X91494568Y-78739102D01*
X91494567Y-78739103D01*
X91380738Y-78975473D01*
X91303406Y-79226176D01*
X91303405Y-79226181D01*
X91303404Y-79226185D01*
X91288653Y-79324047D01*
X91264300Y-79485612D01*
X91264300Y-79747987D01*
X89014800Y-79747987D01*
X89014800Y-76914670D01*
X100764300Y-76914670D01*
X100764301Y-76914676D01*
X100770708Y-76974283D01*
X100821002Y-77109128D01*
X100821006Y-77109135D01*
X100907252Y-77224344D01*
X100907255Y-77224347D01*
X101022464Y-77310593D01*
X101022471Y-77310597D01*
X101157317Y-77360891D01*
X101157316Y-77360891D01*
X101164244Y-77361635D01*
X101216927Y-77367300D01*
X104812672Y-77367299D01*
X104872283Y-77360891D01*
X105007131Y-77310596D01*
X105122346Y-77224346D01*
X105208596Y-77109131D01*
X105226812Y-77060291D01*
X105268680Y-77004360D01*
X105334144Y-76979941D01*
X105402417Y-76994791D01*
X105451824Y-77044196D01*
X105466818Y-77110201D01*
X105464801Y-77148174D01*
X105464800Y-77148221D01*
X105464800Y-77866800D01*
X107214800Y-77866800D01*
X107214800Y-78366800D01*
X105464801Y-78366800D01*
X105464801Y-79085388D01*
X105467594Y-79137991D01*
X105512037Y-79367787D01*
X105594679Y-79586775D01*
X105713139Y-79788641D01*
X105713144Y-79788648D01*
X105864011Y-79967586D01*
X105864013Y-79967588D01*
X106042951Y-80118455D01*
X106042958Y-80118460D01*
X106244824Y-80236920D01*
X106463812Y-80319562D01*
X106693609Y-80364005D01*
X106746182Y-80366798D01*
X106746221Y-80366799D01*
X107464799Y-80366799D01*
X107464800Y-80366798D01*
X107464800Y-79550486D01*
X107504956Y-79576293D01*
X107642911Y-79616800D01*
X107786689Y-79616800D01*
X107924644Y-79576293D01*
X107964800Y-79550486D01*
X107964800Y-80366799D01*
X108683376Y-80366799D01*
X108683388Y-80366798D01*
X108735991Y-80364005D01*
X108965787Y-80319562D01*
X109184775Y-80236920D01*
X109386641Y-80118460D01*
X109386648Y-80118455D01*
X109565586Y-79967588D01*
X109565588Y-79967586D01*
X109716455Y-79788648D01*
X109716460Y-79788641D01*
X109834920Y-79586775D01*
X109917562Y-79367787D01*
X109962005Y-79137991D01*
X109962005Y-79137990D01*
X109963130Y-79116815D01*
X121314300Y-79116815D01*
X121324800Y-79219595D01*
X121324801Y-79219596D01*
X121379986Y-79386135D01*
X121379987Y-79386137D01*
X121472086Y-79535451D01*
X121472089Y-79535455D01*
X121596144Y-79659510D01*
X121596148Y-79659513D01*
X121745462Y-79751612D01*
X121745464Y-79751613D01*
X121745466Y-79751614D01*
X121912003Y-79806799D01*
X122014792Y-79817300D01*
X122014797Y-79817300D01*
X124014803Y-79817300D01*
X124014808Y-79817300D01*
X124117597Y-79806799D01*
X124284134Y-79751614D01*
X124433455Y-79659511D01*
X124557511Y-79535455D01*
X124649614Y-79386134D01*
X124704799Y-79219597D01*
X124715300Y-79116808D01*
X124715300Y-78116804D01*
X125270033Y-78116804D01*
X125289073Y-78370879D01*
X125345768Y-78619277D01*
X125345773Y-78619294D01*
X125438858Y-78856471D01*
X125438857Y-78856471D01*
X125566254Y-79077127D01*
X125566261Y-79077138D01*
X125608252Y-79129791D01*
X125608253Y-79129792D01*
X126334659Y-78403386D01*
X126394480Y-78517366D01*
X126507205Y-78644606D01*
X126647105Y-78741171D01*
X126688342Y-78756810D01*
X125961613Y-79483538D01*
X126122416Y-79593171D01*
X126122424Y-79593176D01*
X126351976Y-79703721D01*
X126351974Y-79703721D01*
X126595452Y-79778824D01*
X126595458Y-79778826D01*
X126847395Y-79816799D01*
X126847404Y-79816800D01*
X127102196Y-79816800D01*
X127102204Y-79816799D01*
X127354141Y-79778826D01*
X127354147Y-79778824D01*
X127454118Y-79747987D01*
X131264300Y-79747987D01*
X131274748Y-79817299D01*
X131303404Y-80007415D01*
X131303405Y-80007417D01*
X131303406Y-80007423D01*
X131380738Y-80258126D01*
X131494567Y-80494496D01*
X131494568Y-80494497D01*
X131494570Y-80494500D01*
X131494572Y-80494504D01*
X131588397Y-80632120D01*
X131642367Y-80711279D01*
X131820814Y-80903601D01*
X131820818Y-80903604D01*
X131820819Y-80903605D01*
X132025943Y-81067186D01*
X132253157Y-81198368D01*
X132497384Y-81294220D01*
X132753170Y-81352602D01*
X132753176Y-81352602D01*
X132753179Y-81352603D01*
X132949284Y-81367299D01*
X132949303Y-81367299D01*
X132949306Y-81367300D01*
X132949308Y-81367300D01*
X133080292Y-81367300D01*
X133080294Y-81367300D01*
X133080296Y-81367299D01*
X133080315Y-81367299D01*
X133276420Y-81352603D01*
X133276422Y-81352602D01*
X133276430Y-81352602D01*
X133532216Y-81294220D01*
X133776443Y-81198368D01*
X134003657Y-81067186D01*
X134208781Y-80903605D01*
X134387233Y-80711279D01*
X134535028Y-80494504D01*
X134648863Y-80258123D01*
X134726196Y-80007415D01*
X134765300Y-79747982D01*
X134765300Y-79485618D01*
X134726196Y-79226185D01*
X134648863Y-78975477D01*
X134591553Y-78856471D01*
X134535032Y-78739103D01*
X134535031Y-78739102D01*
X134535030Y-78739101D01*
X134535028Y-78739096D01*
X134387233Y-78522321D01*
X134339014Y-78470353D01*
X134208785Y-78329998D01*
X134048023Y-78201795D01*
X134003657Y-78166414D01*
X133776443Y-78035232D01*
X133532216Y-77939380D01*
X133532211Y-77939378D01*
X133532202Y-77939376D01*
X133314618Y-77889714D01*
X133276430Y-77880998D01*
X133276429Y-77880997D01*
X133276425Y-77880997D01*
X133276420Y-77880996D01*
X133080315Y-77866300D01*
X133080294Y-77866300D01*
X132949306Y-77866300D01*
X132949284Y-77866300D01*
X132753179Y-77880996D01*
X132753174Y-77880997D01*
X132497397Y-77939376D01*
X132497378Y-77939382D01*
X132253156Y-78035232D01*
X132025943Y-78166414D01*
X131820814Y-78329998D01*
X131642367Y-78522320D01*
X131494568Y-78739102D01*
X131494567Y-78739103D01*
X131380738Y-78975473D01*
X131303406Y-79226176D01*
X131303405Y-79226181D01*
X131303404Y-79226185D01*
X131288653Y-79324047D01*
X131264300Y-79485612D01*
X131264300Y-79747987D01*
X127454118Y-79747987D01*
X127597624Y-79703721D01*
X127827176Y-79593176D01*
X127827177Y-79593175D01*
X127987985Y-79483538D01*
X127261257Y-78756810D01*
X127302495Y-78741171D01*
X127442395Y-78644606D01*
X127555120Y-78517366D01*
X127614939Y-78403387D01*
X128341344Y-79129792D01*
X128341346Y-79129791D01*
X128383344Y-79077130D01*
X128510741Y-78856471D01*
X128603826Y-78619294D01*
X128603831Y-78619277D01*
X128660526Y-78370879D01*
X128679567Y-78116804D01*
X128679567Y-78116795D01*
X128660526Y-77862720D01*
X128603831Y-77614322D01*
X128603826Y-77614305D01*
X128510741Y-77377128D01*
X128510742Y-77377128D01*
X128383345Y-77156472D01*
X128341345Y-77103806D01*
X127614939Y-77830212D01*
X127555120Y-77716234D01*
X127442395Y-77588994D01*
X127302495Y-77492429D01*
X127261257Y-77476789D01*
X127987985Y-76750060D01*
X127827184Y-76640428D01*
X127827176Y-76640423D01*
X127597623Y-76529878D01*
X127597625Y-76529878D01*
X127354147Y-76454775D01*
X127354141Y-76454773D01*
X127102204Y-76416800D01*
X126847395Y-76416800D01*
X126595458Y-76454773D01*
X126595452Y-76454775D01*
X126351975Y-76529878D01*
X126122422Y-76640425D01*
X126122409Y-76640432D01*
X125961613Y-76750059D01*
X126688343Y-77476789D01*
X126647105Y-77492429D01*
X126507205Y-77588994D01*
X126394480Y-77716234D01*
X126334659Y-77830213D01*
X125608252Y-77103806D01*
X125566257Y-77156467D01*
X125438858Y-77377128D01*
X125345773Y-77614305D01*
X125345768Y-77614322D01*
X125289073Y-77862720D01*
X125270033Y-78116795D01*
X125270033Y-78116804D01*
X124715300Y-78116804D01*
X124715300Y-77116792D01*
X124704799Y-77014003D01*
X124649614Y-76847466D01*
X124647291Y-76843700D01*
X124557513Y-76698148D01*
X124557510Y-76698144D01*
X124433455Y-76574089D01*
X124433451Y-76574086D01*
X124284137Y-76481987D01*
X124284135Y-76481986D01*
X124172370Y-76444951D01*
X124117597Y-76426801D01*
X124117595Y-76426800D01*
X124014815Y-76416300D01*
X124014808Y-76416300D01*
X122014792Y-76416300D01*
X122014784Y-76416300D01*
X121912004Y-76426800D01*
X121912003Y-76426801D01*
X121745464Y-76481986D01*
X121745462Y-76481987D01*
X121596148Y-76574086D01*
X121596144Y-76574089D01*
X121472089Y-76698144D01*
X121472086Y-76698148D01*
X121379987Y-76847462D01*
X121379986Y-76847464D01*
X121324801Y-77014003D01*
X121324800Y-77014004D01*
X121314300Y-77116784D01*
X121314300Y-79116815D01*
X109963130Y-79116815D01*
X109964798Y-79085417D01*
X109964800Y-79085378D01*
X109964800Y-78366800D01*
X108214800Y-78366800D01*
X108214800Y-77866800D01*
X109964799Y-77866800D01*
X109964799Y-77148223D01*
X109964798Y-77148211D01*
X109962005Y-77095608D01*
X109917562Y-76865812D01*
X109834920Y-76646824D01*
X109716460Y-76444958D01*
X109716455Y-76444951D01*
X109565588Y-76266013D01*
X109565586Y-76266011D01*
X109386648Y-76115144D01*
X109386641Y-76115139D01*
X109184775Y-75996679D01*
X108965787Y-75914037D01*
X108735990Y-75869594D01*
X108683417Y-75866801D01*
X108683379Y-75866800D01*
X107964800Y-75866800D01*
X107964800Y-76683113D01*
X107924644Y-76657307D01*
X107786689Y-76616800D01*
X107642911Y-76616800D01*
X107504956Y-76657307D01*
X107464800Y-76683113D01*
X107464800Y-75866800D01*
X106746223Y-75866800D01*
X106746211Y-75866801D01*
X106693608Y-75869594D01*
X106463812Y-75914037D01*
X106244824Y-75996679D01*
X106042958Y-76115139D01*
X106042951Y-76115144D01*
X105864013Y-76266011D01*
X105864011Y-76266013D01*
X105713144Y-76444951D01*
X105713139Y-76444958D01*
X105594679Y-76646824D01*
X105512036Y-76865814D01*
X105511041Y-76870961D01*
X105478979Y-76933040D01*
X105418444Y-76967930D01*
X105348656Y-76964554D01*
X105291772Y-76923984D01*
X105265852Y-76859100D01*
X105265299Y-76847424D01*
X105265299Y-73318928D01*
X105258891Y-73259317D01*
X105208596Y-73124469D01*
X105208595Y-73124468D01*
X105208593Y-73124464D01*
X105122347Y-73009255D01*
X105122344Y-73009252D01*
X105007135Y-72923006D01*
X105007128Y-72923002D01*
X104872282Y-72872708D01*
X104872283Y-72872708D01*
X104812683Y-72866301D01*
X104812681Y-72866300D01*
X104812673Y-72866300D01*
X104812664Y-72866300D01*
X101216929Y-72866300D01*
X101216923Y-72866301D01*
X101157316Y-72872708D01*
X101022471Y-72923002D01*
X101022464Y-72923006D01*
X100907255Y-73009252D01*
X100907252Y-73009255D01*
X100821006Y-73124464D01*
X100821002Y-73124471D01*
X100770708Y-73259317D01*
X100764301Y-73318916D01*
X100764301Y-73318923D01*
X100764300Y-73318935D01*
X100764300Y-76914670D01*
X89014800Y-76914670D01*
X89014800Y-59366801D01*
X99009332Y-59366801D01*
X99029164Y-59593486D01*
X99029166Y-59593497D01*
X99088058Y-59813288D01*
X99088061Y-59813297D01*
X99184231Y-60019532D01*
X99184232Y-60019534D01*
X99314754Y-60205941D01*
X99475658Y-60366845D01*
X99475661Y-60366847D01*
X99662066Y-60497368D01*
X99868304Y-60593539D01*
X99868309Y-60593540D01*
X99868311Y-60593541D01*
X99921215Y-60607716D01*
X100088108Y-60652435D01*
X100250030Y-60666601D01*
X100314798Y-60672268D01*
X100314800Y-60672268D01*
X100314802Y-60672268D01*
X100371473Y-60667309D01*
X100541492Y-60652435D01*
X100761296Y-60593539D01*
X100967534Y-60497368D01*
X101121265Y-60389724D01*
X101187471Y-60367398D01*
X101192388Y-60367300D01*
X110799017Y-60367300D01*
X110866056Y-60386985D01*
X110886698Y-60403619D01*
X111977981Y-61494902D01*
X112011466Y-61556225D01*
X112014300Y-61582583D01*
X112014300Y-61892300D01*
X111994615Y-61959339D01*
X111941811Y-62005094D01*
X111890300Y-62016300D01*
X110564057Y-62016300D01*
X110412360Y-62031725D01*
X110218220Y-62092637D01*
X110218205Y-62092644D01*
X110040300Y-62191389D01*
X110040295Y-62191392D01*
X109885906Y-62323932D01*
X109885904Y-62323934D01*
X109761354Y-62484837D01*
X109761353Y-62484840D01*
X109671740Y-62667528D01*
X109620737Y-62864514D01*
X109610431Y-63067736D01*
X109641242Y-63268863D01*
X109641245Y-63268875D01*
X109711911Y-63459681D01*
X109711915Y-63459688D01*
X109819545Y-63632367D01*
X109819547Y-63632369D01*
X109819548Y-63632371D01*
X109959741Y-63779853D01*
X110088144Y-63869224D01*
X110126749Y-63896094D01*
X110126750Y-63896094D01*
X110126751Y-63896095D01*
X110313742Y-63976340D01*
X110513059Y-64017300D01*
X111890300Y-64017300D01*
X111957339Y-64036985D01*
X112003094Y-64089789D01*
X112014300Y-64141300D01*
X112014300Y-64384009D01*
X111994615Y-64451048D01*
X111941811Y-64496803D01*
X111933633Y-64500191D01*
X111872471Y-64523002D01*
X111872464Y-64523006D01*
X111757255Y-64609252D01*
X111757252Y-64609255D01*
X111671006Y-64724464D01*
X111671002Y-64724471D01*
X111620708Y-64859317D01*
X111614301Y-64918916D01*
X111614301Y-64918923D01*
X111614300Y-64918935D01*
X111614300Y-66814670D01*
X111614301Y-66814676D01*
X111620708Y-66874283D01*
X111671002Y-67009128D01*
X111671006Y-67009135D01*
X111757252Y-67124344D01*
X111757255Y-67124347D01*
X111872464Y-67210593D01*
X111872473Y-67210598D01*
X111952704Y-67240522D01*
X112008638Y-67282393D01*
X112033056Y-67347857D01*
X112018205Y-67416130D01*
X112000602Y-67440686D01*
X111905819Y-67543649D01*
X111778875Y-67737951D01*
X111685642Y-67950499D01*
X111628666Y-68175491D01*
X111628664Y-68175502D01*
X111609500Y-68406793D01*
X111609500Y-68406806D01*
X111628664Y-68638097D01*
X111628666Y-68638108D01*
X111685642Y-68863100D01*
X111778875Y-69075648D01*
X111905816Y-69269947D01*
X111905819Y-69269951D01*
X111905821Y-69269953D01*
X112063016Y-69440713D01*
X112063019Y-69440715D01*
X112063022Y-69440718D01*
X112246165Y-69583264D01*
X112246171Y-69583268D01*
X112246174Y-69583270D01*
X112450297Y-69693736D01*
X112564287Y-69732868D01*
X112669815Y-69769097D01*
X112669817Y-69769097D01*
X112669819Y-69769098D01*
X112898751Y-69807300D01*
X112898752Y-69807300D01*
X113130848Y-69807300D01*
X113130849Y-69807300D01*
X113359781Y-69769098D01*
X113579303Y-69693736D01*
X113783426Y-69583270D01*
X113966584Y-69440713D01*
X114123779Y-69269953D01*
X114250724Y-69075649D01*
X114343957Y-68863100D01*
X114400934Y-68638105D01*
X114420100Y-68406800D01*
X114420100Y-68406793D01*
X114400935Y-68175502D01*
X114400933Y-68175491D01*
X114343957Y-67950499D01*
X114250724Y-67737951D01*
X114123783Y-67543652D01*
X114123780Y-67543649D01*
X114123779Y-67543647D01*
X114028995Y-67440684D01*
X113998075Y-67378032D01*
X114005935Y-67308606D01*
X114050083Y-67254451D01*
X114076895Y-67240522D01*
X114157126Y-67210598D01*
X114157126Y-67210597D01*
X114157131Y-67210596D01*
X114272346Y-67124346D01*
X114358596Y-67009131D01*
X114408891Y-66874283D01*
X114415300Y-66814673D01*
X114415299Y-64918928D01*
X114408891Y-64859317D01*
X114358596Y-64724469D01*
X114358595Y-64724468D01*
X114358593Y-64724464D01*
X114272347Y-64609255D01*
X114272344Y-64609252D01*
X114157135Y-64523006D01*
X114157128Y-64523002D01*
X114095967Y-64500191D01*
X114040033Y-64458320D01*
X114015616Y-64392856D01*
X114015300Y-64384009D01*
X114015300Y-63045299D01*
X114015459Y-63039019D01*
X114019169Y-62965864D01*
X114016730Y-62949942D01*
X114015300Y-62931166D01*
X114015300Y-61131037D01*
X114015340Y-61127895D01*
X114017556Y-61040442D01*
X114017555Y-61040441D01*
X114017556Y-61040436D01*
X114007145Y-60982354D01*
X114005842Y-60973060D01*
X113999874Y-60914362D01*
X113998196Y-60909014D01*
X113990767Y-60885336D01*
X113987024Y-60870087D01*
X113981658Y-60840148D01*
X113959776Y-60785367D01*
X113956622Y-60776509D01*
X113938959Y-60720212D01*
X113938958Y-60720211D01*
X113938957Y-60720206D01*
X113924196Y-60693614D01*
X113917459Y-60679429D01*
X113906178Y-60651185D01*
X113906175Y-60651180D01*
X113873718Y-60601931D01*
X113868836Y-60593874D01*
X113868650Y-60593539D01*
X113840209Y-60542298D01*
X113820388Y-60519210D01*
X113810944Y-60506685D01*
X113794202Y-60481281D01*
X113752499Y-60439578D01*
X113746094Y-60432668D01*
X113707667Y-60387906D01*
X113683604Y-60369279D01*
X113671827Y-60358906D01*
X113176272Y-59863352D01*
X113176270Y-59863349D01*
X112429719Y-59116799D01*
X124435927Y-59116799D01*
X124435928Y-59116800D01*
X125399114Y-59116800D01*
X125387159Y-59128755D01*
X125329635Y-59241652D01*
X125309814Y-59366800D01*
X125329635Y-59491948D01*
X125387159Y-59604845D01*
X125399114Y-59616800D01*
X124435928Y-59616800D01*
X124488530Y-59813117D01*
X124488534Y-59813126D01*
X124584665Y-60019282D01*
X124715142Y-60205620D01*
X124875979Y-60366457D01*
X125062317Y-60496934D01*
X125268473Y-60593065D01*
X125268482Y-60593069D01*
X125464799Y-60645672D01*
X125464800Y-60645671D01*
X125464800Y-59682486D01*
X125476755Y-59694441D01*
X125589652Y-59751965D01*
X125683319Y-59766800D01*
X125746281Y-59766800D01*
X125839948Y-59751965D01*
X125952845Y-59694441D01*
X125964800Y-59682486D01*
X125964800Y-60645672D01*
X126161117Y-60593069D01*
X126161126Y-60593065D01*
X126367282Y-60496934D01*
X126553620Y-60366457D01*
X126714457Y-60205620D01*
X126844934Y-60019282D01*
X126941065Y-59813126D01*
X126941069Y-59813117D01*
X126993672Y-59616800D01*
X126030486Y-59616800D01*
X126042441Y-59604845D01*
X126099965Y-59491948D01*
X126119786Y-59366800D01*
X126099965Y-59241652D01*
X126042441Y-59128755D01*
X126030486Y-59116800D01*
X126993672Y-59116800D01*
X126993672Y-59116799D01*
X126941069Y-58920482D01*
X126941065Y-58920473D01*
X126844934Y-58714317D01*
X126714457Y-58527979D01*
X126553620Y-58367142D01*
X126367282Y-58236665D01*
X126161128Y-58140534D01*
X125964800Y-58087927D01*
X125964800Y-59051114D01*
X125952845Y-59039159D01*
X125839948Y-58981635D01*
X125746281Y-58966800D01*
X125683319Y-58966800D01*
X125589652Y-58981635D01*
X125476755Y-59039159D01*
X125464800Y-59051114D01*
X125464800Y-58087927D01*
X125268471Y-58140534D01*
X125062317Y-58236665D01*
X124875979Y-58367142D01*
X124715142Y-58527979D01*
X124584665Y-58714317D01*
X124488534Y-58920473D01*
X124488530Y-58920482D01*
X124435927Y-59116799D01*
X112429719Y-59116799D01*
X111982366Y-58669446D01*
X111980173Y-58667197D01*
X111919861Y-58603749D01*
X111919860Y-58603748D01*
X111919859Y-58603747D01*
X111871440Y-58570046D01*
X111863920Y-58564375D01*
X111818213Y-58527105D01*
X111818206Y-58527101D01*
X111791241Y-58513016D01*
X111777826Y-58504889D01*
X111752849Y-58487505D01*
X111752846Y-58487503D01*
X111752845Y-58487503D01*
X111752841Y-58487501D01*
X111698645Y-58464243D01*
X111690136Y-58460202D01*
X111637857Y-58432894D01*
X111637846Y-58432890D01*
X111608606Y-58424523D01*
X111593821Y-58419259D01*
X111565858Y-58407259D01*
X111508073Y-58395383D01*
X111498927Y-58393138D01*
X111442223Y-58376913D01*
X111418499Y-58375106D01*
X111411872Y-58374601D01*
X111396333Y-58372422D01*
X111366542Y-58366300D01*
X111366541Y-58366300D01*
X111307559Y-58366300D01*
X111298144Y-58365942D01*
X111295443Y-58365736D01*
X111239324Y-58361462D01*
X111209149Y-58365306D01*
X111193482Y-58366300D01*
X101192388Y-58366300D01*
X101125349Y-58346615D01*
X101121265Y-58343875D01*
X100967534Y-58236232D01*
X100967532Y-58236231D01*
X100761297Y-58140061D01*
X100761288Y-58140058D01*
X100541497Y-58081166D01*
X100541493Y-58081165D01*
X100541492Y-58081165D01*
X100541491Y-58081164D01*
X100541486Y-58081164D01*
X100314802Y-58061332D01*
X100314798Y-58061332D01*
X100088113Y-58081164D01*
X100088102Y-58081166D01*
X99868311Y-58140058D01*
X99868302Y-58140061D01*
X99662067Y-58236231D01*
X99662065Y-58236232D01*
X99475658Y-58366754D01*
X99314754Y-58527658D01*
X99184232Y-58714065D01*
X99184231Y-58714067D01*
X99088061Y-58920302D01*
X99088058Y-58920311D01*
X99029166Y-59140102D01*
X99029164Y-59140113D01*
X99009332Y-59366798D01*
X99009332Y-59366801D01*
X89014800Y-59366801D01*
X89014800Y-54747987D01*
X91264300Y-54747987D01*
X91284594Y-54882623D01*
X91303404Y-55007415D01*
X91303405Y-55007417D01*
X91303406Y-55007423D01*
X91380738Y-55258126D01*
X91494567Y-55494496D01*
X91494568Y-55494497D01*
X91494570Y-55494500D01*
X91494572Y-55494504D01*
X91642367Y-55711279D01*
X91820814Y-55903601D01*
X91820818Y-55903604D01*
X91820819Y-55903605D01*
X92025943Y-56067186D01*
X92253157Y-56198368D01*
X92497384Y-56294220D01*
X92753170Y-56352602D01*
X92753176Y-56352602D01*
X92753179Y-56352603D01*
X92949284Y-56367299D01*
X92949303Y-56367299D01*
X92949306Y-56367300D01*
X92949308Y-56367300D01*
X93080292Y-56367300D01*
X93080294Y-56367300D01*
X93080296Y-56367299D01*
X93080315Y-56367299D01*
X93276420Y-56352603D01*
X93276422Y-56352602D01*
X93276430Y-56352602D01*
X93532216Y-56294220D01*
X93776443Y-56198368D01*
X94003657Y-56067186D01*
X94208781Y-55903605D01*
X94387233Y-55711279D01*
X94535028Y-55494504D01*
X94648863Y-55258123D01*
X94726196Y-55007415D01*
X94765299Y-54747987D01*
X131264300Y-54747987D01*
X131284594Y-54882623D01*
X131303404Y-55007415D01*
X131303405Y-55007417D01*
X131303406Y-55007423D01*
X131380738Y-55258126D01*
X131494567Y-55494496D01*
X131494568Y-55494497D01*
X131494570Y-55494500D01*
X131494572Y-55494504D01*
X131642367Y-55711279D01*
X131820814Y-55903601D01*
X131820818Y-55903604D01*
X131820819Y-55903605D01*
X132025943Y-56067186D01*
X132253157Y-56198368D01*
X132497384Y-56294220D01*
X132753170Y-56352602D01*
X132753176Y-56352602D01*
X132753179Y-56352603D01*
X132949284Y-56367299D01*
X132949303Y-56367299D01*
X132949306Y-56367300D01*
X132949308Y-56367300D01*
X133080292Y-56367300D01*
X133080294Y-56367300D01*
X133080296Y-56367299D01*
X133080315Y-56367299D01*
X133276420Y-56352603D01*
X133276422Y-56352602D01*
X133276430Y-56352602D01*
X133532216Y-56294220D01*
X133776443Y-56198368D01*
X134003657Y-56067186D01*
X134208781Y-55903605D01*
X134387233Y-55711279D01*
X134535028Y-55494504D01*
X134648863Y-55258123D01*
X134726196Y-55007415D01*
X134765300Y-54747982D01*
X134765300Y-54485618D01*
X134726196Y-54226185D01*
X134648863Y-53975477D01*
X134592012Y-53857424D01*
X134535032Y-53739103D01*
X134535031Y-53739102D01*
X134535030Y-53739101D01*
X134535028Y-53739096D01*
X134387233Y-53522321D01*
X134348788Y-53480887D01*
X134208785Y-53329998D01*
X134158056Y-53289543D01*
X134003657Y-53166414D01*
X133776443Y-53035232D01*
X133532216Y-52939380D01*
X133532211Y-52939378D01*
X133532202Y-52939376D01*
X133314618Y-52889714D01*
X133276430Y-52880998D01*
X133276429Y-52880997D01*
X133276425Y-52880997D01*
X133276420Y-52880996D01*
X133080315Y-52866300D01*
X133080294Y-52866300D01*
X132949306Y-52866300D01*
X132949284Y-52866300D01*
X132753179Y-52880996D01*
X132753174Y-52880997D01*
X132497397Y-52939376D01*
X132497378Y-52939382D01*
X132253156Y-53035232D01*
X132025943Y-53166414D01*
X131820814Y-53329998D01*
X131642367Y-53522320D01*
X131494568Y-53739102D01*
X131494567Y-53739103D01*
X131380738Y-53975473D01*
X131303406Y-54226176D01*
X131303405Y-54226181D01*
X131303404Y-54226185D01*
X131288653Y-54324047D01*
X131264300Y-54485612D01*
X131264300Y-54747987D01*
X94765299Y-54747987D01*
X94765300Y-54747982D01*
X94765300Y-54485618D01*
X94726196Y-54226185D01*
X94648863Y-53975477D01*
X94592012Y-53857424D01*
X94535032Y-53739103D01*
X94535031Y-53739102D01*
X94535030Y-53739101D01*
X94535028Y-53739096D01*
X94387233Y-53522321D01*
X94348788Y-53480887D01*
X94208785Y-53329998D01*
X94158056Y-53289543D01*
X94003657Y-53166414D01*
X93776443Y-53035232D01*
X93532216Y-52939380D01*
X93532211Y-52939378D01*
X93532202Y-52939376D01*
X93314618Y-52889714D01*
X93276430Y-52880998D01*
X93276429Y-52880997D01*
X93276425Y-52880997D01*
X93276420Y-52880996D01*
X93080315Y-52866300D01*
X93080294Y-52866300D01*
X92949306Y-52866300D01*
X92949284Y-52866300D01*
X92753179Y-52880996D01*
X92753174Y-52880997D01*
X92497397Y-52939376D01*
X92497378Y-52939382D01*
X92253156Y-53035232D01*
X92025943Y-53166414D01*
X91820814Y-53329998D01*
X91642367Y-53522320D01*
X91494568Y-53739102D01*
X91494567Y-53739103D01*
X91380738Y-53975473D01*
X91303406Y-54226176D01*
X91303405Y-54226181D01*
X91303404Y-54226185D01*
X91288653Y-54324047D01*
X91264300Y-54485612D01*
X91264300Y-54747987D01*
X89014800Y-54747987D01*
X89014800Y-53928080D01*
X89016142Y-53909886D01*
X89023924Y-53857423D01*
X89025876Y-53847228D01*
X89069031Y-53663743D01*
X89069401Y-53662217D01*
X89114821Y-53480887D01*
X89117524Y-53471641D01*
X89177826Y-53291726D01*
X89178518Y-53289728D01*
X89241145Y-53114698D01*
X89244416Y-53106503D01*
X89321273Y-52932439D01*
X89322499Y-52929756D01*
X89401704Y-52762291D01*
X89405438Y-52755030D01*
X89498173Y-52588540D01*
X89500042Y-52585306D01*
X89595081Y-52426743D01*
X89599061Y-52420536D01*
X89706904Y-52263105D01*
X89709516Y-52259442D01*
X89819466Y-52111192D01*
X89823645Y-52105867D01*
X89945556Y-51959056D01*
X89949009Y-51955077D01*
X90072930Y-51818351D01*
X90077049Y-51814025D01*
X90212025Y-51679049D01*
X90216351Y-51674930D01*
X90353077Y-51551009D01*
X90357056Y-51547556D01*
X90503867Y-51425645D01*
X90509192Y-51421466D01*
X90657442Y-51311516D01*
X90661105Y-51308904D01*
X90818536Y-51201061D01*
X90824743Y-51197081D01*
X90983306Y-51102042D01*
X90986540Y-51100173D01*
X91153030Y-51007438D01*
X91160291Y-51003704D01*
X91327756Y-50924499D01*
X91330439Y-50923273D01*
X91504503Y-50846416D01*
X91512698Y-50843145D01*
X91687728Y-50780518D01*
X91689726Y-50779826D01*
X91869641Y-50719524D01*
X91878887Y-50716821D01*
X92060217Y-50671401D01*
X92061743Y-50671031D01*
X92245236Y-50627874D01*
X92255420Y-50625924D01*
X92280782Y-50622162D01*
X92307886Y-50618142D01*
X92326080Y-50616800D01*
X133703520Y-50616800D01*
X133721715Y-50618142D01*
G37*
%TD.AperFunction*%
%TD*%
M02*
