%TF.GenerationSoftware,KiCad,Pcbnew,7.0.10*%
%TF.CreationDate,2024-03-02T17:11:43+01:00*%
%TF.ProjectId,explorer-light,6578706c-6f72-4657-922d-6c696768742e,rev?*%
%TF.SameCoordinates,Original*%
%TF.FileFunction,Copper,L1,Top*%
%TF.FilePolarity,Positive*%
%FSLAX46Y46*%
G04 Gerber Fmt 4.6, Leading zero omitted, Abs format (unit mm)*
G04 Created by KiCad (PCBNEW 7.0.10) date 2024-03-02 17:11:43*
%MOMM*%
%LPD*%
G01*
G04 APERTURE LIST*
G04 Aperture macros list*
%AMRoundRect*
0 Rectangle with rounded corners*
0 $1 Rounding radius*
0 $2 $3 $4 $5 $6 $7 $8 $9 X,Y pos of 4 corners*
0 Add a 4 corners polygon primitive as box body*
4,1,4,$2,$3,$4,$5,$6,$7,$8,$9,$2,$3,0*
0 Add four circle primitives for the rounded corners*
1,1,$1+$1,$2,$3*
1,1,$1+$1,$4,$5*
1,1,$1+$1,$6,$7*
1,1,$1+$1,$8,$9*
0 Add four rect primitives between the rounded corners*
20,1,$1+$1,$2,$3,$4,$5,0*
20,1,$1+$1,$4,$5,$6,$7,0*
20,1,$1+$1,$6,$7,$8,$9,0*
20,1,$1+$1,$8,$9,$2,$3,0*%
G04 Aperture macros list end*
%TA.AperFunction,ComponentPad*%
%ADD10R,3.500000X3.500000*%
%TD*%
%TA.AperFunction,ComponentPad*%
%ADD11RoundRect,0.750000X1.000000X-0.750000X1.000000X0.750000X-1.000000X0.750000X-1.000000X-0.750000X0*%
%TD*%
%TA.AperFunction,ComponentPad*%
%ADD12RoundRect,0.875000X0.875000X-0.875000X0.875000X0.875000X-0.875000X0.875000X-0.875000X-0.875000X0*%
%TD*%
%TA.AperFunction,ComponentPad*%
%ADD13RoundRect,0.250001X-0.949999X-0.949999X0.949999X-0.949999X0.949999X0.949999X-0.949999X0.949999X0*%
%TD*%
%TA.AperFunction,ComponentPad*%
%ADD14C,2.400000*%
%TD*%
%TA.AperFunction,ComponentPad*%
%ADD15R,1.800000X1.800000*%
%TD*%
%TA.AperFunction,ComponentPad*%
%ADD16C,1.800000*%
%TD*%
%TA.AperFunction,SMDPad,CuDef*%
%ADD17RoundRect,0.249999X-0.512501X-1.075001X0.512501X-1.075001X0.512501X1.075001X-0.512501X1.075001X0*%
%TD*%
%TA.AperFunction,ComponentPad*%
%ADD18C,1.600000*%
%TD*%
%TA.AperFunction,ComponentPad*%
%ADD19O,1.600000X1.600000*%
%TD*%
%TA.AperFunction,SMDPad,CuDef*%
%ADD20RoundRect,0.250000X-0.450000X0.350000X-0.450000X-0.350000X0.450000X-0.350000X0.450000X0.350000X0*%
%TD*%
%TA.AperFunction,ViaPad*%
%ADD21C,0.800000*%
%TD*%
%TA.AperFunction,Conductor*%
%ADD22C,1.000000*%
%TD*%
G04 APERTURE END LIST*
D10*
%TO.P,J2,1,Pin_1*%
%TO.N,VCC*%
X103014800Y-75116800D03*
D11*
%TO.P,J2,2,Pin_2*%
%TO.N,GND*%
X103014800Y-81116800D03*
D12*
%TO.P,J2,3,Pin_3*%
X107714800Y-78116800D03*
%TD*%
D13*
%TO.P,J1,1,Pin_1*%
%TO.N,VCC*%
X123014800Y-78116800D03*
D14*
%TO.P,J1,2,Pin_2*%
%TO.N,GND*%
X126974800Y-78116800D03*
%TD*%
D15*
%TO.P,D2,1,K*%
%TO.N,Net-(D1-K)*%
X113014800Y-65866800D03*
D16*
%TO.P,D2,2,A*%
%TO.N,VCC*%
X113014800Y-68406800D03*
%TD*%
D17*
%TO.P,D1,1,K*%
%TO.N,Net-(D1-K)*%
X110677300Y-67116800D03*
%TO.P,D1,2,A*%
%TO.N,VCC*%
X115352300Y-67116800D03*
%TD*%
D18*
%TO.P,R1,1*%
%TO.N,Net-(D1-K)*%
X100314800Y-59366800D03*
D19*
%TO.P,R1,2*%
%TO.N,GND*%
X125714800Y-59366800D03*
%TD*%
D20*
%TO.P,R2,1*%
%TO.N,Net-(D1-K)*%
X106014800Y-66116800D03*
%TO.P,R2,2*%
%TO.N,GND*%
X106014800Y-68116800D03*
%TD*%
D21*
%TO.N,Net-(D1-K)*%
X110614800Y-63016800D03*
%TD*%
D22*
%TO.N,VCC*%
X122014800Y-75116800D02*
X123014800Y-76116800D01*
X113764800Y-70116800D02*
X115352300Y-70116800D01*
X115352300Y-67116800D02*
X115352300Y-70116800D01*
X115514800Y-75116800D02*
X122014800Y-75116800D01*
X103014800Y-75116800D02*
X115514800Y-75116800D01*
X113014800Y-69366800D02*
X113764800Y-70116800D01*
X115352300Y-70116800D02*
X115352300Y-74954300D01*
X113014800Y-68406800D02*
X113014800Y-69366800D01*
X123014800Y-76116800D02*
X123014800Y-78116800D01*
X115352300Y-74954300D02*
X115514800Y-75116800D01*
%TO.N,Net-(D1-K)*%
X110614800Y-64416800D02*
X106614800Y-64416800D01*
X106014800Y-65016800D02*
X106014800Y-66116800D01*
X106614800Y-64416800D02*
X106014800Y-65016800D01*
X110614800Y-63016800D02*
X110614800Y-64416800D01*
X110614800Y-64416800D02*
X110614800Y-67054300D01*
X110614800Y-67054300D02*
X110677300Y-67116800D01*
%TD*%
%TA.AperFunction,Conductor*%
%TO.N,GND*%
G36*
X133721715Y-50618142D02*
G01*
X133774176Y-50625924D01*
X133784371Y-50627876D01*
X133967788Y-50671015D01*
X133969443Y-50671416D01*
X134150698Y-50716818D01*
X134159972Y-50719529D01*
X134339809Y-50779804D01*
X134341933Y-50780540D01*
X134516882Y-50843139D01*
X134525115Y-50846424D01*
X134699099Y-50923246D01*
X134701900Y-50924526D01*
X134869283Y-51003692D01*
X134876593Y-51007452D01*
X135043003Y-51100142D01*
X135046347Y-51102074D01*
X135204826Y-51197062D01*
X135211092Y-51201081D01*
X135368442Y-51308868D01*
X135372219Y-51311562D01*
X135520393Y-51421457D01*
X135525743Y-51425656D01*
X135672504Y-51547524D01*
X135676560Y-51551044D01*
X135813206Y-51674892D01*
X135817614Y-51679089D01*
X135952509Y-51813984D01*
X135956706Y-51818392D01*
X136080554Y-51955038D01*
X136084074Y-51959094D01*
X136205942Y-52105855D01*
X136210141Y-52111205D01*
X136320036Y-52259379D01*
X136322739Y-52263169D01*
X136430500Y-52420480D01*
X136434547Y-52426790D01*
X136529500Y-52585210D01*
X136531470Y-52588619D01*
X136624143Y-52754999D01*
X136627909Y-52762321D01*
X136707050Y-52929650D01*
X136708384Y-52932571D01*
X136785163Y-53106456D01*
X136788473Y-53114751D01*
X136851015Y-53289543D01*
X136851836Y-53291912D01*
X136912068Y-53471623D01*
X136914780Y-53480900D01*
X136960172Y-53662117D01*
X136960594Y-53663856D01*
X137003723Y-53847229D01*
X137005675Y-53857424D01*
X137033485Y-54044903D01*
X137033639Y-54045975D01*
X137034533Y-54052387D01*
X137035719Y-54068758D01*
X137078298Y-61093970D01*
X137078300Y-61094722D01*
X137078300Y-79613927D01*
X137078168Y-79619654D01*
X137070328Y-79789229D01*
X137070311Y-79789586D01*
X137060335Y-79992659D01*
X137059295Y-80003707D01*
X137033628Y-80187697D01*
X137033475Y-80188760D01*
X137005674Y-80376176D01*
X137003722Y-80386370D01*
X136960598Y-80569726D01*
X136960176Y-80571466D01*
X136914780Y-80752698D01*
X136912068Y-80761975D01*
X136851836Y-80941686D01*
X136851015Y-80944055D01*
X136788473Y-81118847D01*
X136785156Y-81127159D01*
X136708389Y-81301018D01*
X136707050Y-81303948D01*
X136627909Y-81471277D01*
X136624143Y-81478599D01*
X136531470Y-81644979D01*
X136529500Y-81648388D01*
X136434559Y-81806789D01*
X136430500Y-81813118D01*
X136322739Y-81970429D01*
X136320036Y-81974219D01*
X136210141Y-82122393D01*
X136205942Y-82127743D01*
X136084074Y-82274504D01*
X136080554Y-82278560D01*
X135956706Y-82415206D01*
X135952509Y-82419614D01*
X135817614Y-82554509D01*
X135813206Y-82558706D01*
X135676560Y-82682554D01*
X135672504Y-82686074D01*
X135525743Y-82807942D01*
X135520393Y-82812141D01*
X135372219Y-82922036D01*
X135368429Y-82924739D01*
X135211118Y-83032500D01*
X135204789Y-83036559D01*
X135046388Y-83131500D01*
X135042979Y-83133470D01*
X134876599Y-83226143D01*
X134869277Y-83229909D01*
X134701948Y-83309050D01*
X134699018Y-83310389D01*
X134525159Y-83387156D01*
X134516847Y-83390473D01*
X134342055Y-83453015D01*
X134339686Y-83453836D01*
X134159975Y-83514068D01*
X134150698Y-83516780D01*
X133969466Y-83562176D01*
X133967727Y-83562598D01*
X133784373Y-83605722D01*
X133774181Y-83607673D01*
X133721715Y-83615457D01*
X133703517Y-83616800D01*
X92326082Y-83616800D01*
X92307884Y-83615457D01*
X92255419Y-83607673D01*
X92245228Y-83605722D01*
X92061872Y-83562598D01*
X92060132Y-83562176D01*
X91878900Y-83516780D01*
X91869623Y-83514068D01*
X91689912Y-83453836D01*
X91687543Y-83453015D01*
X91512751Y-83390473D01*
X91504456Y-83387163D01*
X91330571Y-83310384D01*
X91327650Y-83309050D01*
X91160321Y-83229909D01*
X91152999Y-83226143D01*
X90986619Y-83133470D01*
X90983210Y-83131500D01*
X90958681Y-83116798D01*
X90824790Y-83036547D01*
X90818490Y-83032506D01*
X90661169Y-82924739D01*
X90657379Y-82922036D01*
X90509205Y-82812141D01*
X90503855Y-82807942D01*
X90357094Y-82686074D01*
X90353038Y-82682554D01*
X90216392Y-82558706D01*
X90211984Y-82554509D01*
X90077089Y-82419614D01*
X90072892Y-82415206D01*
X89949044Y-82278560D01*
X89945524Y-82274504D01*
X89823656Y-82127743D01*
X89819457Y-82122393D01*
X89709562Y-81974219D01*
X89706859Y-81970429D01*
X89599081Y-81813092D01*
X89595062Y-81806826D01*
X89500074Y-81648347D01*
X89498142Y-81645003D01*
X89405452Y-81478593D01*
X89401689Y-81471277D01*
X89322526Y-81303900D01*
X89321246Y-81301099D01*
X89244424Y-81127115D01*
X89241139Y-81118882D01*
X89178540Y-80943933D01*
X89177804Y-80941809D01*
X89117529Y-80761972D01*
X89114818Y-80752698D01*
X89069426Y-80571481D01*
X89069004Y-80569742D01*
X89063976Y-80548364D01*
X89025874Y-80386362D01*
X89023923Y-80376171D01*
X89022118Y-80364005D01*
X89016141Y-80323713D01*
X89014800Y-80305520D01*
X89014800Y-79747987D01*
X91264300Y-79747987D01*
X91274748Y-79817299D01*
X91303404Y-80007415D01*
X91303405Y-80007417D01*
X91303406Y-80007423D01*
X91380738Y-80258126D01*
X91494567Y-80494496D01*
X91494568Y-80494497D01*
X91494570Y-80494500D01*
X91494572Y-80494504D01*
X91588397Y-80632120D01*
X91642367Y-80711279D01*
X91820814Y-80903601D01*
X91820818Y-80903604D01*
X91820819Y-80903605D01*
X92025943Y-81067186D01*
X92253157Y-81198368D01*
X92497384Y-81294220D01*
X92753170Y-81352602D01*
X92753176Y-81352602D01*
X92753179Y-81352603D01*
X92949284Y-81367299D01*
X92949303Y-81367299D01*
X92949306Y-81367300D01*
X92949308Y-81367300D01*
X93080292Y-81367300D01*
X93080294Y-81367300D01*
X93080296Y-81367299D01*
X93080315Y-81367299D01*
X93276420Y-81352603D01*
X93276422Y-81352602D01*
X93276430Y-81352602D01*
X93532216Y-81294220D01*
X93776443Y-81198368D01*
X94003657Y-81067186D01*
X94208781Y-80903605D01*
X94242931Y-80866800D01*
X100764800Y-80866800D01*
X101581114Y-80866800D01*
X101555307Y-80906956D01*
X101514800Y-81044911D01*
X101514800Y-81188689D01*
X101555307Y-81326644D01*
X101581114Y-81366800D01*
X100764801Y-81366800D01*
X100764801Y-81930997D01*
X100775200Y-82063132D01*
X100830177Y-82281319D01*
X100923228Y-82486174D01*
X100923231Y-82486180D01*
X101051359Y-82671123D01*
X101051369Y-82671135D01*
X101210464Y-82830230D01*
X101210476Y-82830240D01*
X101395419Y-82958368D01*
X101395425Y-82958371D01*
X101600280Y-83051422D01*
X101818467Y-83106399D01*
X101950610Y-83116799D01*
X102764799Y-83116799D01*
X102764800Y-83116798D01*
X102764800Y-81616800D01*
X103264800Y-81616800D01*
X103264800Y-83116799D01*
X104078982Y-83116799D01*
X104078997Y-83116798D01*
X104211132Y-83106399D01*
X104429319Y-83051422D01*
X104634174Y-82958371D01*
X104634180Y-82958368D01*
X104819123Y-82830240D01*
X104819135Y-82830230D01*
X104978230Y-82671135D01*
X104978240Y-82671123D01*
X105106368Y-82486180D01*
X105106371Y-82486174D01*
X105199422Y-82281319D01*
X105254399Y-82063132D01*
X105264799Y-81930996D01*
X105264800Y-81930984D01*
X105264800Y-81366800D01*
X104448486Y-81366800D01*
X104474293Y-81326644D01*
X104514800Y-81188689D01*
X104514800Y-81044911D01*
X104474293Y-80906956D01*
X104448486Y-80866800D01*
X105264799Y-80866800D01*
X105264799Y-80302617D01*
X105264798Y-80302602D01*
X105254399Y-80170467D01*
X105199422Y-79952280D01*
X105106371Y-79747425D01*
X105106368Y-79747419D01*
X104978240Y-79562476D01*
X104978230Y-79562464D01*
X104819135Y-79403369D01*
X104819123Y-79403359D01*
X104634180Y-79275231D01*
X104634174Y-79275228D01*
X104429319Y-79182177D01*
X104211132Y-79127200D01*
X104078996Y-79116800D01*
X103264800Y-79116800D01*
X103264800Y-80616800D01*
X102764800Y-80616800D01*
X102764800Y-79116800D01*
X101950617Y-79116800D01*
X101950602Y-79116801D01*
X101818467Y-79127200D01*
X101600280Y-79182177D01*
X101395425Y-79275228D01*
X101395419Y-79275231D01*
X101210476Y-79403359D01*
X101210464Y-79403369D01*
X101051369Y-79562464D01*
X101051359Y-79562476D01*
X100923231Y-79747419D01*
X100923228Y-79747425D01*
X100830177Y-79952280D01*
X100775200Y-80170467D01*
X100764800Y-80302603D01*
X100764800Y-80866800D01*
X94242931Y-80866800D01*
X94387233Y-80711279D01*
X94535028Y-80494504D01*
X94648863Y-80258123D01*
X94726196Y-80007415D01*
X94765300Y-79747982D01*
X94765300Y-79485618D01*
X94726196Y-79226185D01*
X94648863Y-78975477D01*
X94591553Y-78856471D01*
X94535032Y-78739103D01*
X94535031Y-78739102D01*
X94535030Y-78739101D01*
X94535028Y-78739096D01*
X94387233Y-78522321D01*
X94339014Y-78470353D01*
X94208785Y-78329998D01*
X94048023Y-78201795D01*
X94003657Y-78166414D01*
X93776443Y-78035232D01*
X93532216Y-77939380D01*
X93532211Y-77939378D01*
X93532202Y-77939376D01*
X93314618Y-77889714D01*
X93276430Y-77880998D01*
X93276429Y-77880997D01*
X93276425Y-77880997D01*
X93276420Y-77880996D01*
X93080315Y-77866300D01*
X93080294Y-77866300D01*
X92949306Y-77866300D01*
X92949284Y-77866300D01*
X92753179Y-77880996D01*
X92753174Y-77880997D01*
X92497397Y-77939376D01*
X92497378Y-77939382D01*
X92253156Y-78035232D01*
X92025943Y-78166414D01*
X91820814Y-78329998D01*
X91642367Y-78522320D01*
X91494568Y-78739102D01*
X91494567Y-78739103D01*
X91380738Y-78975473D01*
X91303406Y-79226176D01*
X91303405Y-79226181D01*
X91303404Y-79226185D01*
X91288653Y-79324047D01*
X91264300Y-79485612D01*
X91264300Y-79747987D01*
X89014800Y-79747987D01*
X89014800Y-76914670D01*
X100764300Y-76914670D01*
X100764301Y-76914676D01*
X100770708Y-76974283D01*
X100821002Y-77109128D01*
X100821006Y-77109135D01*
X100907252Y-77224344D01*
X100907255Y-77224347D01*
X101022464Y-77310593D01*
X101022471Y-77310597D01*
X101157317Y-77360891D01*
X101157316Y-77360891D01*
X101164244Y-77361635D01*
X101216927Y-77367300D01*
X104812672Y-77367299D01*
X104872283Y-77360891D01*
X105007131Y-77310596D01*
X105122346Y-77224346D01*
X105208596Y-77109131D01*
X105226812Y-77060291D01*
X105268680Y-77004360D01*
X105334144Y-76979941D01*
X105402417Y-76994791D01*
X105451824Y-77044196D01*
X105466818Y-77110201D01*
X105464801Y-77148174D01*
X105464800Y-77148221D01*
X105464800Y-77866800D01*
X107214800Y-77866800D01*
X107214800Y-78366800D01*
X105464801Y-78366800D01*
X105464801Y-79085388D01*
X105467594Y-79137991D01*
X105512037Y-79367787D01*
X105594679Y-79586775D01*
X105713139Y-79788641D01*
X105713144Y-79788648D01*
X105864011Y-79967586D01*
X105864013Y-79967588D01*
X106042951Y-80118455D01*
X106042958Y-80118460D01*
X106244824Y-80236920D01*
X106463812Y-80319562D01*
X106693609Y-80364005D01*
X106746182Y-80366798D01*
X106746221Y-80366799D01*
X107464799Y-80366799D01*
X107464800Y-80366798D01*
X107464800Y-79550486D01*
X107504956Y-79576293D01*
X107642911Y-79616800D01*
X107786689Y-79616800D01*
X107924644Y-79576293D01*
X107964800Y-79550486D01*
X107964800Y-80366799D01*
X108683376Y-80366799D01*
X108683388Y-80366798D01*
X108735991Y-80364005D01*
X108965787Y-80319562D01*
X109184775Y-80236920D01*
X109386641Y-80118460D01*
X109386648Y-80118455D01*
X109565586Y-79967588D01*
X109565588Y-79967586D01*
X109716455Y-79788648D01*
X109716460Y-79788641D01*
X109834920Y-79586775D01*
X109917562Y-79367787D01*
X109962005Y-79137991D01*
X109962005Y-79137990D01*
X109964798Y-79085417D01*
X109964800Y-79085378D01*
X109964800Y-78366800D01*
X108214800Y-78366800D01*
X108214800Y-77866800D01*
X109964799Y-77866800D01*
X109964799Y-77148223D01*
X109964798Y-77148211D01*
X109962005Y-77095608D01*
X109917562Y-76865812D01*
X109834920Y-76646824D01*
X109716460Y-76444958D01*
X109716455Y-76444951D01*
X109612142Y-76321229D01*
X109583978Y-76257287D01*
X109594855Y-76188269D01*
X109641319Y-76136088D01*
X109706943Y-76117300D01*
X115413059Y-76117300D01*
X115472042Y-76117300D01*
X115481456Y-76117657D01*
X115489810Y-76118294D01*
X115540276Y-76122137D01*
X115540276Y-76122136D01*
X115540277Y-76122137D01*
X115570452Y-76118293D01*
X115586119Y-76117300D01*
X121549017Y-76117300D01*
X121616056Y-76136985D01*
X121636698Y-76153619D01*
X121770397Y-76287318D01*
X121803882Y-76348641D01*
X121798898Y-76418333D01*
X121757026Y-76474266D01*
X121747814Y-76480537D01*
X121596145Y-76574088D01*
X121472089Y-76698144D01*
X121472086Y-76698148D01*
X121379987Y-76847462D01*
X121379986Y-76847464D01*
X121324801Y-77014003D01*
X121324800Y-77014004D01*
X121314300Y-77116784D01*
X121314300Y-79116815D01*
X121324800Y-79219595D01*
X121324801Y-79219596D01*
X121379986Y-79386135D01*
X121379987Y-79386137D01*
X121472086Y-79535451D01*
X121472089Y-79535455D01*
X121596144Y-79659510D01*
X121596148Y-79659513D01*
X121745462Y-79751612D01*
X121745464Y-79751613D01*
X121745466Y-79751614D01*
X121912003Y-79806799D01*
X122014792Y-79817300D01*
X122014797Y-79817300D01*
X124014803Y-79817300D01*
X124014808Y-79817300D01*
X124117597Y-79806799D01*
X124284134Y-79751614D01*
X124433455Y-79659511D01*
X124557511Y-79535455D01*
X124649614Y-79386134D01*
X124704799Y-79219597D01*
X124715300Y-79116808D01*
X124715300Y-78116804D01*
X125270033Y-78116804D01*
X125289073Y-78370879D01*
X125345768Y-78619277D01*
X125345773Y-78619294D01*
X125438858Y-78856471D01*
X125438857Y-78856471D01*
X125566254Y-79077127D01*
X125566261Y-79077138D01*
X125608252Y-79129791D01*
X125608253Y-79129792D01*
X126334659Y-78403386D01*
X126394480Y-78517366D01*
X126507205Y-78644606D01*
X126647105Y-78741171D01*
X126688342Y-78756810D01*
X125961613Y-79483538D01*
X126122416Y-79593171D01*
X126122424Y-79593176D01*
X126351976Y-79703721D01*
X126351974Y-79703721D01*
X126595452Y-79778824D01*
X126595458Y-79778826D01*
X126847395Y-79816799D01*
X126847404Y-79816800D01*
X127102196Y-79816800D01*
X127102204Y-79816799D01*
X127354141Y-79778826D01*
X127354147Y-79778824D01*
X127454118Y-79747987D01*
X131264300Y-79747987D01*
X131274748Y-79817299D01*
X131303404Y-80007415D01*
X131303405Y-80007417D01*
X131303406Y-80007423D01*
X131380738Y-80258126D01*
X131494567Y-80494496D01*
X131494568Y-80494497D01*
X131494570Y-80494500D01*
X131494572Y-80494504D01*
X131588397Y-80632120D01*
X131642367Y-80711279D01*
X131820814Y-80903601D01*
X131820818Y-80903604D01*
X131820819Y-80903605D01*
X132025943Y-81067186D01*
X132253157Y-81198368D01*
X132497384Y-81294220D01*
X132753170Y-81352602D01*
X132753176Y-81352602D01*
X132753179Y-81352603D01*
X132949284Y-81367299D01*
X132949303Y-81367299D01*
X132949306Y-81367300D01*
X132949308Y-81367300D01*
X133080292Y-81367300D01*
X133080294Y-81367300D01*
X133080296Y-81367299D01*
X133080315Y-81367299D01*
X133276420Y-81352603D01*
X133276422Y-81352602D01*
X133276430Y-81352602D01*
X133532216Y-81294220D01*
X133776443Y-81198368D01*
X134003657Y-81067186D01*
X134208781Y-80903605D01*
X134387233Y-80711279D01*
X134535028Y-80494504D01*
X134648863Y-80258123D01*
X134726196Y-80007415D01*
X134765300Y-79747982D01*
X134765300Y-79485618D01*
X134726196Y-79226185D01*
X134648863Y-78975477D01*
X134591553Y-78856471D01*
X134535032Y-78739103D01*
X134535031Y-78739102D01*
X134535030Y-78739101D01*
X134535028Y-78739096D01*
X134387233Y-78522321D01*
X134339014Y-78470353D01*
X134208785Y-78329998D01*
X134048023Y-78201795D01*
X134003657Y-78166414D01*
X133776443Y-78035232D01*
X133532216Y-77939380D01*
X133532211Y-77939378D01*
X133532202Y-77939376D01*
X133314618Y-77889714D01*
X133276430Y-77880998D01*
X133276429Y-77880997D01*
X133276425Y-77880997D01*
X133276420Y-77880996D01*
X133080315Y-77866300D01*
X133080294Y-77866300D01*
X132949306Y-77866300D01*
X132949284Y-77866300D01*
X132753179Y-77880996D01*
X132753174Y-77880997D01*
X132497397Y-77939376D01*
X132497378Y-77939382D01*
X132253156Y-78035232D01*
X132025943Y-78166414D01*
X131820814Y-78329998D01*
X131642367Y-78522320D01*
X131494568Y-78739102D01*
X131494567Y-78739103D01*
X131380738Y-78975473D01*
X131303406Y-79226176D01*
X131303405Y-79226181D01*
X131303404Y-79226185D01*
X131288653Y-79324047D01*
X131264300Y-79485612D01*
X131264300Y-79747987D01*
X127454118Y-79747987D01*
X127597624Y-79703721D01*
X127827176Y-79593176D01*
X127827177Y-79593175D01*
X127987985Y-79483538D01*
X127261257Y-78756810D01*
X127302495Y-78741171D01*
X127442395Y-78644606D01*
X127555120Y-78517366D01*
X127614939Y-78403387D01*
X128341344Y-79129792D01*
X128341346Y-79129791D01*
X128383344Y-79077130D01*
X128510741Y-78856471D01*
X128603826Y-78619294D01*
X128603831Y-78619277D01*
X128660526Y-78370879D01*
X128679567Y-78116804D01*
X128679567Y-78116795D01*
X128660526Y-77862720D01*
X128603831Y-77614322D01*
X128603826Y-77614305D01*
X128510741Y-77377128D01*
X128510742Y-77377128D01*
X128383345Y-77156472D01*
X128341345Y-77103806D01*
X127614939Y-77830212D01*
X127555120Y-77716234D01*
X127442395Y-77588994D01*
X127302495Y-77492429D01*
X127261257Y-77476789D01*
X127987985Y-76750060D01*
X127827184Y-76640428D01*
X127827176Y-76640423D01*
X127597623Y-76529878D01*
X127597625Y-76529878D01*
X127354147Y-76454775D01*
X127354141Y-76454773D01*
X127102204Y-76416800D01*
X126847395Y-76416800D01*
X126595458Y-76454773D01*
X126595452Y-76454775D01*
X126351975Y-76529878D01*
X126122422Y-76640425D01*
X126122409Y-76640432D01*
X125961613Y-76750059D01*
X126688343Y-77476789D01*
X126647105Y-77492429D01*
X126507205Y-77588994D01*
X126394480Y-77716234D01*
X126334659Y-77830213D01*
X125608252Y-77103806D01*
X125566257Y-77156467D01*
X125438858Y-77377128D01*
X125345773Y-77614305D01*
X125345768Y-77614322D01*
X125289073Y-77862720D01*
X125270033Y-78116795D01*
X125270033Y-78116804D01*
X124715300Y-78116804D01*
X124715300Y-77116792D01*
X124704799Y-77014003D01*
X124649614Y-76847466D01*
X124647291Y-76843700D01*
X124557513Y-76698148D01*
X124557510Y-76698144D01*
X124433455Y-76574089D01*
X124433451Y-76574086D01*
X124284137Y-76481987D01*
X124284135Y-76481986D01*
X124117595Y-76426800D01*
X124113333Y-76425888D01*
X124051902Y-76392601D01*
X124018219Y-76331386D01*
X124015300Y-76304637D01*
X124015300Y-76131077D01*
X124015340Y-76127935D01*
X124017557Y-76040442D01*
X124017556Y-76040441D01*
X124017557Y-76040437D01*
X124007146Y-75982358D01*
X124005839Y-75973032D01*
X123999874Y-75914360D01*
X123999873Y-75914359D01*
X123990767Y-75885336D01*
X123987026Y-75870097D01*
X123981659Y-75840148D01*
X123959772Y-75785354D01*
X123956616Y-75776490D01*
X123938959Y-75720212D01*
X123924192Y-75693607D01*
X123917465Y-75679440D01*
X123906178Y-75651183D01*
X123873714Y-75601925D01*
X123868840Y-75593882D01*
X123840209Y-75542298D01*
X123820390Y-75519212D01*
X123810945Y-75506684D01*
X123794204Y-75481284D01*
X123752499Y-75439579D01*
X123746106Y-75432682D01*
X123707666Y-75387905D01*
X123683600Y-75369276D01*
X123671822Y-75358902D01*
X122732367Y-74419447D01*
X122730174Y-74417198D01*
X122669861Y-74353749D01*
X122669860Y-74353748D01*
X122669859Y-74353747D01*
X122621440Y-74320046D01*
X122613920Y-74314375D01*
X122568213Y-74277105D01*
X122568206Y-74277101D01*
X122541241Y-74263016D01*
X122527826Y-74254889D01*
X122502849Y-74237505D01*
X122502846Y-74237503D01*
X122502845Y-74237503D01*
X122502841Y-74237501D01*
X122448645Y-74214243D01*
X122440136Y-74210202D01*
X122387857Y-74182894D01*
X122387846Y-74182890D01*
X122358606Y-74174523D01*
X122343821Y-74169259D01*
X122315858Y-74157259D01*
X122258073Y-74145383D01*
X122248927Y-74143138D01*
X122192223Y-74126913D01*
X122168499Y-74125106D01*
X122161872Y-74124601D01*
X122146333Y-74122422D01*
X122116542Y-74116300D01*
X122116541Y-74116300D01*
X122057559Y-74116300D01*
X122048144Y-74115942D01*
X122045443Y-74115736D01*
X121989324Y-74111462D01*
X121959149Y-74115306D01*
X121943482Y-74116300D01*
X116476800Y-74116300D01*
X116409761Y-74096615D01*
X116364006Y-74043811D01*
X116352800Y-73992300D01*
X116352800Y-70145299D01*
X116352959Y-70139019D01*
X116356669Y-70065864D01*
X116354230Y-70049942D01*
X116352800Y-70031166D01*
X116352800Y-68816530D01*
X116372485Y-68749491D01*
X116389119Y-68728849D01*
X116457512Y-68660456D01*
X116549614Y-68511135D01*
X116604799Y-68344598D01*
X116615300Y-68241810D01*
X116615300Y-65991790D01*
X116604799Y-65889002D01*
X116549614Y-65722465D01*
X116457512Y-65573144D01*
X116333456Y-65449088D01*
X116184135Y-65356986D01*
X116017598Y-65301801D01*
X116017596Y-65301800D01*
X115914817Y-65291300D01*
X115914810Y-65291300D01*
X114789790Y-65291300D01*
X114789782Y-65291300D01*
X114687003Y-65301800D01*
X114686999Y-65301801D01*
X114578302Y-65337820D01*
X114508474Y-65340222D01*
X114448432Y-65304490D01*
X114417240Y-65241969D01*
X114415299Y-65220114D01*
X114415299Y-64918929D01*
X114415298Y-64918923D01*
X114408891Y-64859316D01*
X114358597Y-64724471D01*
X114358593Y-64724464D01*
X114272347Y-64609255D01*
X114272344Y-64609252D01*
X114157135Y-64523006D01*
X114157128Y-64523002D01*
X114022282Y-64472708D01*
X114022283Y-64472708D01*
X113962683Y-64466301D01*
X113962681Y-64466300D01*
X113962673Y-64466300D01*
X113962664Y-64466300D01*
X112066929Y-64466300D01*
X112066923Y-64466301D01*
X112007316Y-64472708D01*
X111872471Y-64523002D01*
X111872468Y-64523004D01*
X111813611Y-64567065D01*
X111748147Y-64591482D01*
X111679874Y-64576630D01*
X111630468Y-64527225D01*
X111615300Y-64467798D01*
X111615300Y-64445299D01*
X111615459Y-64439019D01*
X111616541Y-64417682D01*
X111619169Y-64365864D01*
X111616730Y-64349942D01*
X111615300Y-64331166D01*
X111615300Y-62966056D01*
X111599874Y-62814360D01*
X111538962Y-62620220D01*
X111538960Y-62620216D01*
X111538959Y-62620212D01*
X111440209Y-62442298D01*
X111440208Y-62442297D01*
X111440207Y-62442295D01*
X111307667Y-62287906D01*
X111307665Y-62287904D01*
X111146762Y-62163354D01*
X111146759Y-62163353D01*
X111146758Y-62163352D01*
X110964071Y-62073740D01*
X110767085Y-62022737D01*
X110767087Y-62022737D01*
X110631604Y-62015866D01*
X110563864Y-62012431D01*
X110563863Y-62012431D01*
X110563861Y-62012431D01*
X110362736Y-62043242D01*
X110362724Y-62043245D01*
X110171918Y-62113911D01*
X110171911Y-62113915D01*
X109999232Y-62221545D01*
X109999227Y-62221549D01*
X109851749Y-62361738D01*
X109851748Y-62361740D01*
X109735505Y-62528749D01*
X109655259Y-62715743D01*
X109614300Y-62915058D01*
X109614300Y-63292300D01*
X109594615Y-63359339D01*
X109541811Y-63405094D01*
X109490300Y-63416300D01*
X106629062Y-63416300D01*
X106625921Y-63416260D01*
X106624700Y-63416229D01*
X106538439Y-63414042D01*
X106538435Y-63414042D01*
X106480378Y-63424448D01*
X106471052Y-63425756D01*
X106412364Y-63431725D01*
X106412362Y-63431726D01*
X106383326Y-63440835D01*
X106368090Y-63444574D01*
X106338150Y-63449941D01*
X106338149Y-63449941D01*
X106283367Y-63471822D01*
X106274498Y-63474979D01*
X106218214Y-63492640D01*
X106218210Y-63492642D01*
X106191611Y-63507405D01*
X106177438Y-63514136D01*
X106149182Y-63525423D01*
X106149178Y-63525425D01*
X106099922Y-63557886D01*
X106091869Y-63562765D01*
X106040301Y-63591388D01*
X106017213Y-63611208D01*
X106004687Y-63620652D01*
X105979285Y-63637394D01*
X105979278Y-63637400D01*
X105937575Y-63679102D01*
X105930670Y-63685502D01*
X105885904Y-63723934D01*
X105867279Y-63747995D01*
X105856907Y-63759770D01*
X105317445Y-64299233D01*
X105315198Y-64301425D01*
X105251746Y-64361742D01*
X105218045Y-64410161D01*
X105212374Y-64417682D01*
X105175102Y-64463392D01*
X105175098Y-64463398D01*
X105161009Y-64490368D01*
X105152882Y-64503783D01*
X105135502Y-64528755D01*
X105112238Y-64582965D01*
X105108198Y-64591472D01*
X105080890Y-64643751D01*
X105080890Y-64643752D01*
X105072520Y-64673001D01*
X105067259Y-64687779D01*
X105055259Y-64715743D01*
X105043388Y-64773511D01*
X105041142Y-64782660D01*
X105024913Y-64839377D01*
X105022602Y-64869726D01*
X105020422Y-64885266D01*
X105014300Y-64915058D01*
X105014300Y-64974040D01*
X105013942Y-64983456D01*
X105009462Y-65042274D01*
X105013306Y-65072449D01*
X105014300Y-65088117D01*
X105014300Y-65204570D01*
X104994615Y-65271609D01*
X104977981Y-65292251D01*
X104972089Y-65298142D01*
X104879987Y-65447463D01*
X104879985Y-65447468D01*
X104859106Y-65510477D01*
X104824801Y-65614003D01*
X104824801Y-65614004D01*
X104824800Y-65614004D01*
X104814300Y-65716783D01*
X104814300Y-66516801D01*
X104814301Y-66516819D01*
X104824800Y-66619596D01*
X104824801Y-66619599D01*
X104879985Y-66786131D01*
X104879987Y-66786136D01*
X104972089Y-66935457D01*
X105066104Y-67029472D01*
X105099589Y-67090795D01*
X105094605Y-67160487D01*
X105066105Y-67204834D01*
X104972482Y-67298457D01*
X104880443Y-67447675D01*
X104880441Y-67447680D01*
X104825294Y-67614102D01*
X104825293Y-67614109D01*
X104814800Y-67716813D01*
X104814800Y-67866800D01*
X107214799Y-67866800D01*
X107214799Y-67716828D01*
X107214798Y-67716813D01*
X107204305Y-67614102D01*
X107149158Y-67447680D01*
X107149156Y-67447675D01*
X107057115Y-67298454D01*
X106963495Y-67204834D01*
X106930010Y-67143511D01*
X106934994Y-67073819D01*
X106963491Y-67029476D01*
X107057512Y-66935456D01*
X107149614Y-66786134D01*
X107204799Y-66619597D01*
X107215300Y-66516809D01*
X107215299Y-65716792D01*
X107204799Y-65614003D01*
X107204797Y-65613995D01*
X107193633Y-65580305D01*
X107191230Y-65510477D01*
X107226961Y-65450435D01*
X107289481Y-65419242D01*
X107311338Y-65417300D01*
X109446039Y-65417300D01*
X109513078Y-65436985D01*
X109558833Y-65489789D01*
X109568777Y-65558947D01*
X109551578Y-65606394D01*
X109521107Y-65655796D01*
X109479987Y-65722462D01*
X109479986Y-65722465D01*
X109424801Y-65889002D01*
X109424801Y-65889003D01*
X109424800Y-65889003D01*
X109414300Y-65991782D01*
X109414300Y-68241817D01*
X109424800Y-68344596D01*
X109479985Y-68511132D01*
X109479987Y-68511137D01*
X109514870Y-68567690D01*
X109572088Y-68660456D01*
X109696144Y-68784512D01*
X109845465Y-68876614D01*
X110012002Y-68931799D01*
X110114790Y-68942300D01*
X110114795Y-68942300D01*
X111239805Y-68942300D01*
X111239810Y-68942300D01*
X111342598Y-68931799D01*
X111509135Y-68876614D01*
X111531351Y-68862910D01*
X111598742Y-68844470D01*
X111665406Y-68865392D01*
X111710004Y-68918638D01*
X111778876Y-69075650D01*
X111864238Y-69206306D01*
X111905821Y-69269953D01*
X111979467Y-69349955D01*
X112010389Y-69412609D01*
X112012197Y-69437073D01*
X112012043Y-69443157D01*
X112012043Y-69443168D01*
X112022448Y-69501221D01*
X112023756Y-69510547D01*
X112029725Y-69569230D01*
X112029727Y-69569244D01*
X112038833Y-69598268D01*
X112042572Y-69613501D01*
X112047942Y-69643453D01*
X112047942Y-69643455D01*
X112069820Y-69698224D01*
X112072977Y-69707092D01*
X112090641Y-69763388D01*
X112090642Y-69763389D01*
X112090644Y-69763395D01*
X112105403Y-69789985D01*
X112112136Y-69804161D01*
X112123422Y-69832414D01*
X112123427Y-69832424D01*
X112155880Y-69881666D01*
X112160762Y-69889723D01*
X112189388Y-69941298D01*
X112189389Y-69941300D01*
X112189391Y-69941302D01*
X112209210Y-69964388D01*
X112218655Y-69976915D01*
X112235399Y-70002321D01*
X112277099Y-70044021D01*
X112283503Y-70050930D01*
X112321932Y-70095693D01*
X112321934Y-70095695D01*
X112345993Y-70114318D01*
X112357772Y-70124693D01*
X113047232Y-70814152D01*
X113049425Y-70816401D01*
X113109740Y-70879852D01*
X113109748Y-70879858D01*
X113158162Y-70913555D01*
X113165671Y-70919216D01*
X113211393Y-70956498D01*
X113238365Y-70970586D01*
X113251782Y-70978716D01*
X113276751Y-70996095D01*
X113330963Y-71019359D01*
X113339452Y-71023390D01*
X113391751Y-71050709D01*
X113413798Y-71057016D01*
X113420984Y-71059073D01*
X113435776Y-71064339D01*
X113463739Y-71076339D01*
X113463742Y-71076340D01*
X113521527Y-71088214D01*
X113530669Y-71090457D01*
X113587382Y-71106686D01*
X113617718Y-71108996D01*
X113633257Y-71111176D01*
X113663055Y-71117300D01*
X113663059Y-71117300D01*
X113722044Y-71117300D01*
X113731459Y-71117657D01*
X113790276Y-71122137D01*
X113820451Y-71118293D01*
X113836118Y-71117300D01*
X114227800Y-71117300D01*
X114294839Y-71136985D01*
X114340594Y-71189789D01*
X114351800Y-71241300D01*
X114351800Y-73992300D01*
X114332115Y-74059339D01*
X114279311Y-74105094D01*
X114227800Y-74116300D01*
X105389299Y-74116300D01*
X105322260Y-74096615D01*
X105276505Y-74043811D01*
X105265299Y-73992300D01*
X105265299Y-73318929D01*
X105265298Y-73318923D01*
X105265297Y-73318916D01*
X105258891Y-73259317D01*
X105208596Y-73124469D01*
X105208595Y-73124468D01*
X105208593Y-73124464D01*
X105122347Y-73009255D01*
X105122344Y-73009252D01*
X105007135Y-72923006D01*
X105007128Y-72923002D01*
X104872282Y-72872708D01*
X104872283Y-72872708D01*
X104812683Y-72866301D01*
X104812681Y-72866300D01*
X104812673Y-72866300D01*
X104812664Y-72866300D01*
X101216929Y-72866300D01*
X101216923Y-72866301D01*
X101157316Y-72872708D01*
X101022471Y-72923002D01*
X101022464Y-72923006D01*
X100907255Y-73009252D01*
X100907252Y-73009255D01*
X100821006Y-73124464D01*
X100821002Y-73124471D01*
X100770708Y-73259317D01*
X100764301Y-73318916D01*
X100764301Y-73318923D01*
X100764300Y-73318935D01*
X100764300Y-76914670D01*
X89014800Y-76914670D01*
X89014800Y-68366800D01*
X104814801Y-68366800D01*
X104814801Y-68516786D01*
X104825294Y-68619497D01*
X104880441Y-68785919D01*
X104880443Y-68785924D01*
X104972484Y-68935145D01*
X105096454Y-69059115D01*
X105245675Y-69151156D01*
X105245680Y-69151158D01*
X105412102Y-69206305D01*
X105412109Y-69206306D01*
X105514819Y-69216799D01*
X105764799Y-69216799D01*
X105764800Y-69216798D01*
X105764800Y-68366800D01*
X106264800Y-68366800D01*
X106264800Y-69216799D01*
X106514772Y-69216799D01*
X106514786Y-69216798D01*
X106617497Y-69206305D01*
X106783919Y-69151158D01*
X106783924Y-69151156D01*
X106933145Y-69059115D01*
X107057115Y-68935145D01*
X107149156Y-68785924D01*
X107149158Y-68785919D01*
X107204305Y-68619497D01*
X107204306Y-68619490D01*
X107214799Y-68516786D01*
X107214800Y-68516773D01*
X107214800Y-68366800D01*
X106264800Y-68366800D01*
X105764800Y-68366800D01*
X104814801Y-68366800D01*
X89014800Y-68366800D01*
X89014800Y-59366801D01*
X99009332Y-59366801D01*
X99029164Y-59593486D01*
X99029166Y-59593497D01*
X99088058Y-59813288D01*
X99088061Y-59813297D01*
X99184231Y-60019532D01*
X99184232Y-60019534D01*
X99314754Y-60205941D01*
X99475658Y-60366845D01*
X99475661Y-60366847D01*
X99662066Y-60497368D01*
X99868304Y-60593539D01*
X100088108Y-60652435D01*
X100250030Y-60666601D01*
X100314798Y-60672268D01*
X100314800Y-60672268D01*
X100314802Y-60672268D01*
X100371473Y-60667309D01*
X100541492Y-60652435D01*
X100761296Y-60593539D01*
X100967534Y-60497368D01*
X101153939Y-60366847D01*
X101314847Y-60205939D01*
X101445368Y-60019534D01*
X101541539Y-59813296D01*
X101600435Y-59593492D01*
X101620268Y-59366800D01*
X101600435Y-59140108D01*
X101594189Y-59116799D01*
X124435927Y-59116799D01*
X124435928Y-59116800D01*
X125399114Y-59116800D01*
X125387159Y-59128755D01*
X125329635Y-59241652D01*
X125309814Y-59366800D01*
X125329635Y-59491948D01*
X125387159Y-59604845D01*
X125399114Y-59616800D01*
X124435928Y-59616800D01*
X124488530Y-59813117D01*
X124488534Y-59813126D01*
X124584665Y-60019282D01*
X124715142Y-60205620D01*
X124875979Y-60366457D01*
X125062317Y-60496934D01*
X125268473Y-60593065D01*
X125268482Y-60593069D01*
X125464799Y-60645672D01*
X125464800Y-60645671D01*
X125464800Y-59682486D01*
X125476755Y-59694441D01*
X125589652Y-59751965D01*
X125683319Y-59766800D01*
X125746281Y-59766800D01*
X125839948Y-59751965D01*
X125952845Y-59694441D01*
X125964800Y-59682486D01*
X125964800Y-60645672D01*
X126161117Y-60593069D01*
X126161126Y-60593065D01*
X126367282Y-60496934D01*
X126553620Y-60366457D01*
X126714457Y-60205620D01*
X126844934Y-60019282D01*
X126941065Y-59813126D01*
X126941069Y-59813117D01*
X126993672Y-59616800D01*
X126030486Y-59616800D01*
X126042441Y-59604845D01*
X126099965Y-59491948D01*
X126119786Y-59366800D01*
X126099965Y-59241652D01*
X126042441Y-59128755D01*
X126030486Y-59116800D01*
X126993672Y-59116800D01*
X126993672Y-59116799D01*
X126941069Y-58920482D01*
X126941065Y-58920473D01*
X126844934Y-58714317D01*
X126714457Y-58527979D01*
X126553620Y-58367142D01*
X126367282Y-58236665D01*
X126161128Y-58140534D01*
X125964800Y-58087927D01*
X125964800Y-59051114D01*
X125952845Y-59039159D01*
X125839948Y-58981635D01*
X125746281Y-58966800D01*
X125683319Y-58966800D01*
X125589652Y-58981635D01*
X125476755Y-59039159D01*
X125464800Y-59051114D01*
X125464800Y-58087927D01*
X125268471Y-58140534D01*
X125062317Y-58236665D01*
X124875979Y-58367142D01*
X124715142Y-58527979D01*
X124584665Y-58714317D01*
X124488534Y-58920473D01*
X124488530Y-58920482D01*
X124435927Y-59116799D01*
X101594189Y-59116799D01*
X101541539Y-58920304D01*
X101445368Y-58714066D01*
X101314847Y-58527661D01*
X101314845Y-58527658D01*
X101153941Y-58366754D01*
X100967534Y-58236232D01*
X100967532Y-58236231D01*
X100761297Y-58140061D01*
X100761288Y-58140058D01*
X100541497Y-58081166D01*
X100541493Y-58081165D01*
X100541492Y-58081165D01*
X100541491Y-58081164D01*
X100541486Y-58081164D01*
X100314802Y-58061332D01*
X100314798Y-58061332D01*
X100088113Y-58081164D01*
X100088102Y-58081166D01*
X99868311Y-58140058D01*
X99868302Y-58140061D01*
X99662067Y-58236231D01*
X99662065Y-58236232D01*
X99475658Y-58366754D01*
X99314754Y-58527658D01*
X99184232Y-58714065D01*
X99184231Y-58714067D01*
X99088061Y-58920302D01*
X99088058Y-58920311D01*
X99029166Y-59140102D01*
X99029164Y-59140113D01*
X99009332Y-59366798D01*
X99009332Y-59366801D01*
X89014800Y-59366801D01*
X89014800Y-54747987D01*
X91264300Y-54747987D01*
X91284594Y-54882623D01*
X91303404Y-55007415D01*
X91303405Y-55007417D01*
X91303406Y-55007423D01*
X91380738Y-55258126D01*
X91494567Y-55494496D01*
X91494568Y-55494497D01*
X91494570Y-55494500D01*
X91494572Y-55494504D01*
X91642367Y-55711279D01*
X91820814Y-55903601D01*
X91820818Y-55903604D01*
X91820819Y-55903605D01*
X92025943Y-56067186D01*
X92253157Y-56198368D01*
X92497384Y-56294220D01*
X92753170Y-56352602D01*
X92753176Y-56352602D01*
X92753179Y-56352603D01*
X92949284Y-56367299D01*
X92949303Y-56367299D01*
X92949306Y-56367300D01*
X92949308Y-56367300D01*
X93080292Y-56367300D01*
X93080294Y-56367300D01*
X93080296Y-56367299D01*
X93080315Y-56367299D01*
X93276420Y-56352603D01*
X93276422Y-56352602D01*
X93276430Y-56352602D01*
X93532216Y-56294220D01*
X93776443Y-56198368D01*
X94003657Y-56067186D01*
X94208781Y-55903605D01*
X94387233Y-55711279D01*
X94535028Y-55494504D01*
X94648863Y-55258123D01*
X94726196Y-55007415D01*
X94765299Y-54747987D01*
X131264300Y-54747987D01*
X131284594Y-54882623D01*
X131303404Y-55007415D01*
X131303405Y-55007417D01*
X131303406Y-55007423D01*
X131380738Y-55258126D01*
X131494567Y-55494496D01*
X131494568Y-55494497D01*
X131494570Y-55494500D01*
X131494572Y-55494504D01*
X131642367Y-55711279D01*
X131820814Y-55903601D01*
X131820818Y-55903604D01*
X131820819Y-55903605D01*
X132025943Y-56067186D01*
X132253157Y-56198368D01*
X132497384Y-56294220D01*
X132753170Y-56352602D01*
X132753176Y-56352602D01*
X132753179Y-56352603D01*
X132949284Y-56367299D01*
X132949303Y-56367299D01*
X132949306Y-56367300D01*
X132949308Y-56367300D01*
X133080292Y-56367300D01*
X133080294Y-56367300D01*
X133080296Y-56367299D01*
X133080315Y-56367299D01*
X133276420Y-56352603D01*
X133276422Y-56352602D01*
X133276430Y-56352602D01*
X133532216Y-56294220D01*
X133776443Y-56198368D01*
X134003657Y-56067186D01*
X134208781Y-55903605D01*
X134387233Y-55711279D01*
X134535028Y-55494504D01*
X134648863Y-55258123D01*
X134726196Y-55007415D01*
X134765300Y-54747982D01*
X134765300Y-54485618D01*
X134726196Y-54226185D01*
X134648863Y-53975477D01*
X134592012Y-53857424D01*
X134535032Y-53739103D01*
X134535031Y-53739102D01*
X134535030Y-53739101D01*
X134535028Y-53739096D01*
X134387233Y-53522321D01*
X134348788Y-53480887D01*
X134208785Y-53329998D01*
X134158056Y-53289543D01*
X134003657Y-53166414D01*
X133776443Y-53035232D01*
X133532216Y-52939380D01*
X133532211Y-52939378D01*
X133532202Y-52939376D01*
X133314618Y-52889714D01*
X133276430Y-52880998D01*
X133276429Y-52880997D01*
X133276425Y-52880997D01*
X133276420Y-52880996D01*
X133080315Y-52866300D01*
X133080294Y-52866300D01*
X132949306Y-52866300D01*
X132949284Y-52866300D01*
X132753179Y-52880996D01*
X132753174Y-52880997D01*
X132497397Y-52939376D01*
X132497378Y-52939382D01*
X132253156Y-53035232D01*
X132025943Y-53166414D01*
X131820814Y-53329998D01*
X131642367Y-53522320D01*
X131494568Y-53739102D01*
X131494567Y-53739103D01*
X131380738Y-53975473D01*
X131303406Y-54226176D01*
X131303405Y-54226181D01*
X131303404Y-54226185D01*
X131288653Y-54324047D01*
X131264300Y-54485612D01*
X131264300Y-54747987D01*
X94765299Y-54747987D01*
X94765300Y-54747982D01*
X94765300Y-54485618D01*
X94726196Y-54226185D01*
X94648863Y-53975477D01*
X94592012Y-53857424D01*
X94535032Y-53739103D01*
X94535031Y-53739102D01*
X94535030Y-53739101D01*
X94535028Y-53739096D01*
X94387233Y-53522321D01*
X94348788Y-53480887D01*
X94208785Y-53329998D01*
X94158056Y-53289543D01*
X94003657Y-53166414D01*
X93776443Y-53035232D01*
X93532216Y-52939380D01*
X93532211Y-52939378D01*
X93532202Y-52939376D01*
X93314618Y-52889714D01*
X93276430Y-52880998D01*
X93276429Y-52880997D01*
X93276425Y-52880997D01*
X93276420Y-52880996D01*
X93080315Y-52866300D01*
X93080294Y-52866300D01*
X92949306Y-52866300D01*
X92949284Y-52866300D01*
X92753179Y-52880996D01*
X92753174Y-52880997D01*
X92497397Y-52939376D01*
X92497378Y-52939382D01*
X92253156Y-53035232D01*
X92025943Y-53166414D01*
X91820814Y-53329998D01*
X91642367Y-53522320D01*
X91494568Y-53739102D01*
X91494567Y-53739103D01*
X91380738Y-53975473D01*
X91303406Y-54226176D01*
X91303405Y-54226181D01*
X91303404Y-54226185D01*
X91288653Y-54324047D01*
X91264300Y-54485612D01*
X91264300Y-54747987D01*
X89014800Y-54747987D01*
X89014800Y-53928080D01*
X89016142Y-53909886D01*
X89023924Y-53857423D01*
X89025876Y-53847228D01*
X89069031Y-53663743D01*
X89069401Y-53662217D01*
X89114821Y-53480887D01*
X89117524Y-53471641D01*
X89177826Y-53291726D01*
X89178518Y-53289728D01*
X89241145Y-53114698D01*
X89244416Y-53106503D01*
X89321273Y-52932439D01*
X89322499Y-52929756D01*
X89401704Y-52762291D01*
X89405438Y-52755030D01*
X89498173Y-52588540D01*
X89500042Y-52585306D01*
X89595081Y-52426743D01*
X89599061Y-52420536D01*
X89706904Y-52263105D01*
X89709516Y-52259442D01*
X89819466Y-52111192D01*
X89823645Y-52105867D01*
X89945556Y-51959056D01*
X89949009Y-51955077D01*
X90072930Y-51818351D01*
X90077049Y-51814025D01*
X90212025Y-51679049D01*
X90216351Y-51674930D01*
X90353077Y-51551009D01*
X90357056Y-51547556D01*
X90503867Y-51425645D01*
X90509192Y-51421466D01*
X90657442Y-51311516D01*
X90661105Y-51308904D01*
X90818536Y-51201061D01*
X90824743Y-51197081D01*
X90983306Y-51102042D01*
X90986540Y-51100173D01*
X91153030Y-51007438D01*
X91160291Y-51003704D01*
X91327756Y-50924499D01*
X91330439Y-50923273D01*
X91504503Y-50846416D01*
X91512698Y-50843145D01*
X91687728Y-50780518D01*
X91689726Y-50779826D01*
X91869641Y-50719524D01*
X91878887Y-50716821D01*
X92060217Y-50671401D01*
X92061743Y-50671031D01*
X92245236Y-50627874D01*
X92255420Y-50625924D01*
X92280782Y-50622162D01*
X92307886Y-50618142D01*
X92326080Y-50616800D01*
X133703520Y-50616800D01*
X133721715Y-50618142D01*
G37*
%TD.AperFunction*%
%TD*%
M02*
