%TF.GenerationSoftware,KiCad,Pcbnew,7.0.10*%
%TF.CreationDate,2024-03-02T17:11:43+01:00*%
%TF.ProjectId,explorer-light,6578706c-6f72-4657-922d-6c696768742e,rev?*%
%TF.SameCoordinates,Original*%
%TF.FileFunction,Legend,Top*%
%TF.FilePolarity,Positive*%
%FSLAX46Y46*%
G04 Gerber Fmt 4.6, Leading zero omitted, Abs format (unit mm)*
G04 Created by KiCad (PCBNEW 7.0.10) date 2024-03-02 17:11:43*
%MOMM*%
%LPD*%
G01*
G04 APERTURE LIST*
G04 Aperture macros list*
%AMRoundRect*
0 Rectangle with rounded corners*
0 $1 Rounding radius*
0 $2 $3 $4 $5 $6 $7 $8 $9 X,Y pos of 4 corners*
0 Add a 4 corners polygon primitive as box body*
4,1,4,$2,$3,$4,$5,$6,$7,$8,$9,$2,$3,0*
0 Add four circle primitives for the rounded corners*
1,1,$1+$1,$2,$3*
1,1,$1+$1,$4,$5*
1,1,$1+$1,$6,$7*
1,1,$1+$1,$8,$9*
0 Add four rect primitives between the rounded corners*
20,1,$1+$1,$2,$3,$4,$5,0*
20,1,$1+$1,$4,$5,$6,$7,0*
20,1,$1+$1,$6,$7,$8,$9,0*
20,1,$1+$1,$8,$9,$2,$3,0*%
G04 Aperture macros list end*
%ADD10C,0.150000*%
%ADD11C,0.120000*%
%ADD12R,3.500000X3.500000*%
%ADD13RoundRect,0.750000X1.000000X-0.750000X1.000000X0.750000X-1.000000X0.750000X-1.000000X-0.750000X0*%
%ADD14RoundRect,0.875000X0.875000X-0.875000X0.875000X0.875000X-0.875000X0.875000X-0.875000X-0.875000X0*%
%ADD15C,3.000000*%
%ADD16RoundRect,0.250001X-0.949999X-0.949999X0.949999X-0.949999X0.949999X0.949999X-0.949999X0.949999X0*%
%ADD17C,2.400000*%
%ADD18R,1.800000X1.800000*%
%ADD19C,1.800000*%
%ADD20RoundRect,0.249999X-0.512501X-1.075001X0.512501X-1.075001X0.512501X1.075001X-0.512501X1.075001X0*%
%ADD21C,1.600000*%
%ADD22O,1.600000X1.600000*%
%ADD23RoundRect,0.250000X-0.450000X0.350000X-0.450000X-0.350000X0.450000X-0.350000X0.450000X0.350000X0*%
G04 APERTURE END LIST*
D10*
X108219619Y-83900133D02*
X108933904Y-83900133D01*
X108933904Y-83900133D02*
X109076761Y-83947752D01*
X109076761Y-83947752D02*
X109172000Y-84042990D01*
X109172000Y-84042990D02*
X109219619Y-84185847D01*
X109219619Y-84185847D02*
X109219619Y-84281085D01*
X108314857Y-83471561D02*
X108267238Y-83423942D01*
X108267238Y-83423942D02*
X108219619Y-83328704D01*
X108219619Y-83328704D02*
X108219619Y-83090609D01*
X108219619Y-83090609D02*
X108267238Y-82995371D01*
X108267238Y-82995371D02*
X108314857Y-82947752D01*
X108314857Y-82947752D02*
X108410095Y-82900133D01*
X108410095Y-82900133D02*
X108505333Y-82900133D01*
X108505333Y-82900133D02*
X108648190Y-82947752D01*
X108648190Y-82947752D02*
X109219619Y-83519180D01*
X109219619Y-83519180D02*
X109219619Y-82900133D01*
X117429619Y-67874894D02*
X116429619Y-67874894D01*
X116429619Y-67874894D02*
X116429619Y-67636799D01*
X116429619Y-67636799D02*
X116477238Y-67493942D01*
X116477238Y-67493942D02*
X116572476Y-67398704D01*
X116572476Y-67398704D02*
X116667714Y-67351085D01*
X116667714Y-67351085D02*
X116858190Y-67303466D01*
X116858190Y-67303466D02*
X117001047Y-67303466D01*
X117001047Y-67303466D02*
X117191523Y-67351085D01*
X117191523Y-67351085D02*
X117286761Y-67398704D01*
X117286761Y-67398704D02*
X117382000Y-67493942D01*
X117382000Y-67493942D02*
X117429619Y-67636799D01*
X117429619Y-67636799D02*
X117429619Y-67874894D01*
X116524857Y-66922513D02*
X116477238Y-66874894D01*
X116477238Y-66874894D02*
X116429619Y-66779656D01*
X116429619Y-66779656D02*
X116429619Y-66541561D01*
X116429619Y-66541561D02*
X116477238Y-66446323D01*
X116477238Y-66446323D02*
X116524857Y-66398704D01*
X116524857Y-66398704D02*
X116620095Y-66351085D01*
X116620095Y-66351085D02*
X116715333Y-66351085D01*
X116715333Y-66351085D02*
X116858190Y-66398704D01*
X116858190Y-66398704D02*
X117429619Y-66970132D01*
X117429619Y-66970132D02*
X117429619Y-66351085D01*
X112276705Y-71571619D02*
X112276705Y-70571619D01*
X112276705Y-70571619D02*
X112514800Y-70571619D01*
X112514800Y-70571619D02*
X112657657Y-70619238D01*
X112657657Y-70619238D02*
X112752895Y-70714476D01*
X112752895Y-70714476D02*
X112800514Y-70809714D01*
X112800514Y-70809714D02*
X112848133Y-71000190D01*
X112848133Y-71000190D02*
X112848133Y-71143047D01*
X112848133Y-71143047D02*
X112800514Y-71333523D01*
X112800514Y-71333523D02*
X112752895Y-71428761D01*
X112752895Y-71428761D02*
X112657657Y-71524000D01*
X112657657Y-71524000D02*
X112514800Y-71571619D01*
X112514800Y-71571619D02*
X112276705Y-71571619D01*
X113800514Y-71571619D02*
X113229086Y-71571619D01*
X113514800Y-71571619D02*
X113514800Y-70571619D01*
X113514800Y-70571619D02*
X113419562Y-70714476D01*
X113419562Y-70714476D02*
X113324324Y-70809714D01*
X113324324Y-70809714D02*
X113229086Y-70857333D01*
X112848133Y-57101619D02*
X112514800Y-56625428D01*
X112276705Y-57101619D02*
X112276705Y-56101619D01*
X112276705Y-56101619D02*
X112657657Y-56101619D01*
X112657657Y-56101619D02*
X112752895Y-56149238D01*
X112752895Y-56149238D02*
X112800514Y-56196857D01*
X112800514Y-56196857D02*
X112848133Y-56292095D01*
X112848133Y-56292095D02*
X112848133Y-56434952D01*
X112848133Y-56434952D02*
X112800514Y-56530190D01*
X112800514Y-56530190D02*
X112752895Y-56577809D01*
X112752895Y-56577809D02*
X112657657Y-56625428D01*
X112657657Y-56625428D02*
X112276705Y-56625428D01*
X113800514Y-57101619D02*
X113229086Y-57101619D01*
X113514800Y-57101619D02*
X113514800Y-56101619D01*
X113514800Y-56101619D02*
X113419562Y-56244476D01*
X113419562Y-56244476D02*
X113324324Y-56339714D01*
X113324324Y-56339714D02*
X113229086Y-56387333D01*
X108119619Y-67283466D02*
X107643428Y-67616799D01*
X108119619Y-67854894D02*
X107119619Y-67854894D01*
X107119619Y-67854894D02*
X107119619Y-67473942D01*
X107119619Y-67473942D02*
X107167238Y-67378704D01*
X107167238Y-67378704D02*
X107214857Y-67331085D01*
X107214857Y-67331085D02*
X107310095Y-67283466D01*
X107310095Y-67283466D02*
X107452952Y-67283466D01*
X107452952Y-67283466D02*
X107548190Y-67331085D01*
X107548190Y-67331085D02*
X107595809Y-67378704D01*
X107595809Y-67378704D02*
X107643428Y-67473942D01*
X107643428Y-67473942D02*
X107643428Y-67854894D01*
X107214857Y-66902513D02*
X107167238Y-66854894D01*
X107167238Y-66854894D02*
X107119619Y-66759656D01*
X107119619Y-66759656D02*
X107119619Y-66521561D01*
X107119619Y-66521561D02*
X107167238Y-66426323D01*
X107167238Y-66426323D02*
X107214857Y-66378704D01*
X107214857Y-66378704D02*
X107310095Y-66331085D01*
X107310095Y-66331085D02*
X107405333Y-66331085D01*
X107405333Y-66331085D02*
X107548190Y-66378704D01*
X107548190Y-66378704D02*
X108119619Y-66950132D01*
X108119619Y-66950132D02*
X108119619Y-66331085D01*
D11*
%TO.C,J2*%
X98414800Y-88916800D02*
X98414800Y-74216800D01*
X107614800Y-88916800D02*
X98414800Y-88916800D01*
X107614800Y-80116800D02*
X107614800Y-88916800D01*
X98214800Y-75066800D02*
X98214800Y-74016800D01*
X98414800Y-74216800D02*
X101014800Y-74216800D01*
X104914800Y-74216800D02*
X107614800Y-74216800D01*
X107614800Y-74216800D02*
X107614800Y-76116800D01*
X99264800Y-74016800D02*
X98214800Y-74016800D01*
%TO.C,J1*%
X121234800Y-74806800D02*
X121234800Y-81426800D01*
X121234800Y-81426800D02*
X124994800Y-81426800D01*
X122514800Y-82816800D02*
X123014800Y-81816800D01*
X123014800Y-81816800D02*
X123514800Y-82816800D01*
X123514800Y-82816800D02*
X122514800Y-82816800D01*
X124994800Y-74806800D02*
X121234800Y-74806800D01*
X124994800Y-74806800D02*
X128754800Y-74806800D01*
X128754800Y-74806800D02*
X128754800Y-81426800D01*
X128754800Y-81426800D02*
X124994800Y-81426800D01*
%TO.C,D2*%
X114559800Y-64576800D02*
X111469800Y-64576800D01*
X113014338Y-70126799D02*
G75*
G03*
X114559630Y-64576801I462J2989999D01*
G01*
X111469970Y-64576800D02*
G75*
G03*
X113015262Y-70126800I1544830J-2560000D01*
G01*
X115514800Y-67136800D02*
G75*
G03*
X110514800Y-67136800I-2500000J0D01*
G01*
X110514800Y-67136800D02*
G75*
G03*
X115514800Y-67136800I2500000J0D01*
G01*
%TO.C,D1*%
X109654800Y-65531800D02*
X109654800Y-68701800D01*
X109654800Y-68701800D02*
X115514800Y-68701800D01*
X115514800Y-65531800D02*
X109654800Y-65531800D01*
%TO.C,R1*%
X101354800Y-59366800D02*
X108394800Y-59366800D01*
X108394800Y-57646800D02*
X108394800Y-61086800D01*
X108394800Y-61086800D02*
X117634800Y-61086800D01*
X117634800Y-57646800D02*
X108394800Y-57646800D01*
X117634800Y-61086800D02*
X117634800Y-57646800D01*
X124674800Y-59366800D02*
X117634800Y-59366800D01*
%TO.C,R2*%
X106749800Y-66889736D02*
X106749800Y-67343864D01*
X105279800Y-66889736D02*
X105279800Y-67343864D01*
%TD*%
%LPC*%
D12*
%TO.C,J2*%
X103014800Y-75116800D03*
D13*
X103014800Y-81116800D03*
D14*
X107714800Y-78116800D03*
%TD*%
D15*
%TO.C,H1*%
X93014800Y-54616800D03*
%TD*%
D16*
%TO.C,J1*%
X123014800Y-78116800D03*
D17*
X126974800Y-78116800D03*
%TD*%
D18*
%TO.C,D2*%
X113014800Y-65866800D03*
D19*
X113014800Y-68406800D03*
%TD*%
D20*
%TO.C,D1*%
X110677300Y-67116800D03*
X115352300Y-67116800D03*
%TD*%
D15*
%TO.C,H3*%
X93014800Y-79616800D03*
%TD*%
%TO.C,H4*%
X133014800Y-79616800D03*
%TD*%
D21*
%TO.C,R1*%
X100314800Y-59366800D03*
D22*
X125714800Y-59366800D03*
%TD*%
D15*
%TO.C,H2*%
X133014800Y-54616800D03*
%TD*%
D23*
%TO.C,R2*%
X106014800Y-66116800D03*
X106014800Y-68116800D03*
%TD*%
%LPD*%
M02*
