M48
; DRILL file {KiCad 7.0.10} date Sat 02 Mar 2024 10:01:54 PM CET
; FORMAT={-:-/ absolute / inch / decimal}
; #@! TF.CreationDate,2024-03-02T22:01:54+01:00
; #@! TF.GenerationSoftware,Kicad,Pcbnew,7.0.10
; #@! TF.FileFunction,NonPlated,1,2,NPTH
FMAT,2
INCH
; #@! TA.AperFunction,NonPlated,NPTH,ComponentDrill
T1C0.0197
; #@! TA.AperFunction,NonPlated,NPTH,ComponentDrill
T2C0.1181
; #@! TA.AperFunction,NonPlated,NPTH,ComponentDrill
T3C0.1260
%
G90
G05
T1
X0.2191Y-1.2992
X0.2191Y-1.4148
X0.2519Y-1.2992
X0.2519Y-1.4148
X0.2847Y-1.2992
X0.2847Y-1.4148
X0.3175Y-1.2992
X0.3175Y-1.4148
X0.3503Y-1.2992
X0.3503Y-1.4148
X0.3831Y-1.2992
X0.3831Y-1.4148
X0.4159Y-1.2992
X0.4159Y-1.4148
X0.534Y-1.2992
X0.534Y-1.4148
X0.5668Y-1.2992
X0.5668Y-1.4148
X0.5996Y-1.2992
X0.5996Y-1.4148
X0.6324Y-1.2992
X0.6324Y-1.4148
X0.6652Y-1.2992
X0.6652Y-1.4148
X0.6981Y-1.2992
X0.6981Y-1.4148
X0.7309Y-1.2992
X0.7309Y-1.4148
X0.849Y-1.2992
X0.849Y-1.4148
X0.8818Y-1.2992
X0.8818Y-1.4148
X0.9146Y-1.2992
X0.9146Y-1.4148
X0.9474Y-1.2992
X0.9474Y-1.4148
X0.9802Y-1.2992
X0.9802Y-1.4148
X1.013Y-1.2992
X1.013Y-1.4148
X1.0458Y-1.2992
X1.0458Y-1.4148
X1.1639Y-1.2992
X1.1639Y-1.4148
X1.1967Y-1.2992
X1.1967Y-1.4148
X1.2296Y-1.2992
X1.2296Y-1.4148
X1.2624Y-1.2992
X1.2624Y-1.4148
X1.2952Y-1.2992
X1.2952Y-1.4148
X1.328Y-1.2992
X1.328Y-1.4148
X1.3608Y-1.2992
X1.3608Y-1.4148
X1.4789Y-1.2992
X1.4789Y-1.4148
X1.5117Y-1.2992
X1.5117Y-1.4148
X1.5445Y-1.2992
X1.5445Y-1.4148
X1.5773Y-1.2992
X1.5773Y-1.4148
X1.6101Y-1.2992
X1.6101Y-1.4148
X1.6429Y-1.2992
X1.6429Y-1.4148
X1.6757Y-1.2992
X1.6757Y-1.3279
X1.6757Y-1.3612
X1.6757Y-1.3945
X1.6757Y-1.4148
X1.6803Y-1.2992
X1.6887Y-1.4148
X1.7136Y-1.2992
X1.722Y-1.4148
X1.7468Y-1.2987
X1.7552Y-1.4162
X1.7795Y-1.2927
X1.7875Y-1.4238
X1.8102Y-1.28
X1.8176Y-1.4379
X1.8375Y-1.2611
X1.8441Y-1.458
X1.8923Y-0.2415
X1.8923Y-0.2743
X1.8923Y-0.3071
X1.8923Y-0.3399
X1.8923Y-0.3727
X1.8923Y-0.4055
X1.8923Y-0.4383
X1.8923Y-0.5813
X1.8923Y-0.6141
X1.8923Y-0.647
X1.8923Y-0.6798
X1.8923Y-0.7126
X1.8923Y-0.7454
X1.8923Y-0.7782
X1.8923Y-0.9212
X1.8923Y-0.954
X1.8923Y-0.9868
X1.8923Y-1.0196
X1.8923Y-1.0525
X1.8923Y-1.0853
X1.8923Y-1.1181
X1.8948Y-1.601
X1.8948Y-1.6338
X1.8948Y-1.6666
X1.8948Y-1.6994
X1.8948Y-1.7322
X1.8948Y-1.765
X1.8948Y-1.7978
X1.8948Y-1.9409
X1.8948Y-1.9737
X1.8948Y-2.0065
X1.8948Y-2.0393
X1.8948Y-2.0721
X1.8948Y-2.1049
X1.8948Y-2.1377
X1.8948Y-2.2807
X1.8948Y-2.3136
X1.8948Y-2.3464
X1.8948Y-2.3792
X1.8948Y-2.412
X1.8948Y-2.4448
X1.8948Y-2.4776
X2.0129Y-1.601
X2.0129Y-1.6338
X2.0129Y-1.6666
X2.0129Y-1.6994
X2.0129Y-1.7322
X2.0129Y-1.765
X2.0129Y-1.7978
X2.0129Y-1.9409
X2.0129Y-1.9737
X2.0129Y-2.0065
X2.0129Y-2.0393
X2.0129Y-2.0721
X2.0129Y-2.1049
X2.0129Y-2.1377
X2.0129Y-2.2807
X2.0129Y-2.3136
X2.0129Y-2.3464
X2.0129Y-2.3792
X2.0129Y-2.412
X2.0129Y-2.4448
X2.0129Y-2.4776
X2.0154Y-0.2415
X2.0154Y-0.2743
X2.0154Y-0.3071
X2.0154Y-0.3399
X2.0154Y-0.3727
X2.0154Y-0.4055
X2.0154Y-0.4383
X2.0154Y-0.5813
X2.0154Y-0.6141
X2.0154Y-0.647
X2.0154Y-0.6798
X2.0154Y-0.7126
X2.0154Y-0.7454
X2.0154Y-0.7782
X2.0154Y-0.9212
X2.0154Y-0.954
X2.0154Y-0.9868
X2.0154Y-1.0196
X2.0154Y-1.0525
X2.0154Y-1.0853
X2.0154Y-1.1181
X2.0637Y-1.458
X2.0702Y-1.2611
X2.0901Y-1.4379
X2.0975Y-1.28
X2.1202Y-1.4238
X2.1282Y-1.2927
X2.1525Y-1.4162
X2.1609Y-1.2987
X2.1857Y-1.4148
X2.1941Y-1.2992
X2.219Y-1.4148
X2.2274Y-1.2992
X2.232Y-1.2992
X2.232Y-1.3279
X2.232Y-1.3612
X2.232Y-1.3945
X2.232Y-1.4148
X2.2648Y-1.2992
X2.2648Y-1.4148
X2.2976Y-1.2992
X2.2976Y-1.4148
X2.3304Y-1.2992
X2.3304Y-1.4148
X2.3632Y-1.2992
X2.3632Y-1.4148
X2.396Y-1.2992
X2.396Y-1.4148
X2.4288Y-1.2992
X2.4288Y-1.4148
X2.5469Y-1.2992
X2.5469Y-1.4148
X2.5797Y-1.2992
X2.5797Y-1.4148
X2.6125Y-1.2992
X2.6125Y-1.4148
X2.6454Y-1.2992
X2.6454Y-1.4148
X2.6782Y-1.2992
X2.6782Y-1.4148
X2.711Y-1.2992
X2.711Y-1.4148
X2.7438Y-1.2992
X2.7438Y-1.4148
X2.8619Y-1.2992
X2.8619Y-1.4148
X2.8947Y-1.2992
X2.8947Y-1.4148
X2.9275Y-1.2992
X2.9275Y-1.4148
X2.9603Y-1.2992
X2.9603Y-1.4148
X2.9931Y-1.2992
X2.9931Y-1.4148
X3.0259Y-1.2992
X3.0259Y-1.4148
X3.0587Y-1.2992
X3.0587Y-1.4148
X3.1769Y-1.2992
X3.1769Y-1.4148
X3.2097Y-1.2992
X3.2097Y-1.4148
X3.2425Y-1.2992
X3.2425Y-1.4148
X3.2753Y-1.2992
X3.2753Y-1.4148
X3.3081Y-1.2992
X3.3081Y-1.4148
X3.3409Y-1.2992
X3.3409Y-1.4148
X3.3737Y-1.2992
X3.3737Y-1.4148
X3.4918Y-1.2992
X3.4918Y-1.4148
X3.5246Y-1.2992
X3.5246Y-1.4148
X3.5574Y-1.2992
X3.5574Y-1.4148
X3.5902Y-1.2992
X3.5902Y-1.4148
X3.623Y-1.2992
X3.623Y-1.4148
X3.6559Y-1.2992
X3.6559Y-1.4148
X3.6887Y-1.2992
X3.6887Y-1.4148
T2
X0.16Y-1.5748
X0.16Y-2.5591
X1.7348Y-1.5748
X1.7348Y-2.5591
X2.1729Y-1.5748
X2.1729Y-2.5591
X3.7477Y-1.5748
X3.7477Y-2.5591
T3
X0.16Y-0.1575
X0.16Y-1.1417
X1.7348Y-0.1575
X1.7348Y-1.1417
X2.1729Y-0.1575
X2.1729Y-1.1417
X3.7477Y-0.1575
X3.7477Y-1.1417
M30
