%TF.GenerationSoftware,KiCad,Pcbnew,7.0.10*%
%TF.CreationDate,2024-03-02T22:01:54+01:00*%
%TF.ProjectId,explorer-panel_panelized,6578706c-6f72-4657-922d-70616e656c5f,rev?*%
%TF.SameCoordinates,Original*%
%TF.FileFunction,Other,Comment*%
%FSLAX46Y46*%
G04 Gerber Fmt 4.6, Leading zero omitted, Abs format (unit mm)*
G04 Created by KiCad (PCBNEW 7.0.10) date 2024-03-02 22:01:54*
%MOMM*%
%LPD*%
G01*
G04 APERTURE LIST*
%ADD10C,0.150000*%
G04 APERTURE END LIST*
D10*
%TO.C,.H3*%
X58192000Y-65000000D02*
G75*
G03*
X52192000Y-65000000I-3000000J0D01*
G01*
X52192000Y-65000000D02*
G75*
G03*
X58192000Y-65000000I3000000J0D01*
G01*
%TO.C,.H2*%
X47064000Y-40000000D02*
G75*
G03*
X41064000Y-40000000I-3000000J0D01*
G01*
X41064000Y-40000000D02*
G75*
G03*
X47064000Y-40000000I3000000J0D01*
G01*
%TO.C,H3*%
X47264000Y-29000000D02*
G75*
G03*
X40864000Y-29000000I-3200000J0D01*
G01*
X40864000Y-29000000D02*
G75*
G03*
X47264000Y-29000000I3200000J0D01*
G01*
%TO.C,H4*%
X7264000Y-29000000D02*
G75*
G03*
X864000Y-29000000I-3200000J0D01*
G01*
X864000Y-29000000D02*
G75*
G03*
X7264000Y-29000000I3200000J0D01*
G01*
%TO.C,H2*%
X98392000Y-4000000D02*
G75*
G03*
X91992000Y-4000000I-3200000J0D01*
G01*
X91992000Y-4000000D02*
G75*
G03*
X98392000Y-4000000I3200000J0D01*
G01*
%TO.C,.H4*%
X98192000Y-65000000D02*
G75*
G03*
X92192000Y-65000000I-3000000J0D01*
G01*
X92192000Y-65000000D02*
G75*
G03*
X98192000Y-65000000I3000000J0D01*
G01*
%TO.C,.H1*%
X58192000Y-40000000D02*
G75*
G03*
X52192000Y-40000000I-3000000J0D01*
G01*
X52192000Y-40000000D02*
G75*
G03*
X58192000Y-40000000I3000000J0D01*
G01*
%TO.C,H4*%
X58392000Y-29000000D02*
G75*
G03*
X51992000Y-29000000I-3200000J0D01*
G01*
X51992000Y-29000000D02*
G75*
G03*
X58392000Y-29000000I3200000J0D01*
G01*
%TO.C,.H2*%
X98192000Y-40000000D02*
G75*
G03*
X92192000Y-40000000I-3000000J0D01*
G01*
X92192000Y-40000000D02*
G75*
G03*
X98192000Y-40000000I3000000J0D01*
G01*
%TO.C,.H1*%
X7064000Y-40000000D02*
G75*
G03*
X1064000Y-40000000I-3000000J0D01*
G01*
X1064000Y-40000000D02*
G75*
G03*
X7064000Y-40000000I3000000J0D01*
G01*
%TO.C,.H4*%
X47064000Y-65000000D02*
G75*
G03*
X41064000Y-65000000I-3000000J0D01*
G01*
X41064000Y-65000000D02*
G75*
G03*
X47064000Y-65000000I3000000J0D01*
G01*
%TO.C,H2*%
X47264000Y-4000000D02*
G75*
G03*
X40864000Y-4000000I-3200000J0D01*
G01*
X40864000Y-4000000D02*
G75*
G03*
X47264000Y-4000000I3200000J0D01*
G01*
%TO.C,H1*%
X7264000Y-4000000D02*
G75*
G03*
X864000Y-4000000I-3200000J0D01*
G01*
X864000Y-4000000D02*
G75*
G03*
X7264000Y-4000000I3200000J0D01*
G01*
%TO.C,.H3*%
X7064000Y-65000000D02*
G75*
G03*
X1064000Y-65000000I-3000000J0D01*
G01*
X1064000Y-65000000D02*
G75*
G03*
X7064000Y-65000000I3000000J0D01*
G01*
%TO.C,H1*%
X58392000Y-4000000D02*
G75*
G03*
X51992000Y-4000000I-3200000J0D01*
G01*
X51992000Y-4000000D02*
G75*
G03*
X58392000Y-4000000I3200000J0D01*
G01*
%TO.C,H3*%
X98392000Y-29000000D02*
G75*
G03*
X91992000Y-29000000I-3200000J0D01*
G01*
X91992000Y-29000000D02*
G75*
G03*
X98392000Y-29000000I3200000J0D01*
G01*
%TD*%
M02*
