%TF.GenerationSoftware,KiCad,Pcbnew,7.0.10*%
%TF.CreationDate,2024-03-02T22:01:54+01:00*%
%TF.ProjectId,explorer-panel_panelized,6578706c-6f72-4657-922d-70616e656c5f,rev?*%
%TF.SameCoordinates,Original*%
%TF.FileFunction,Paste,Top*%
%TF.FilePolarity,Positive*%
%FSLAX46Y46*%
G04 Gerber Fmt 4.6, Leading zero omitted, Abs format (unit mm)*
G04 Created by KiCad (PCBNEW 7.0.10) date 2024-03-02 22:01:54*
%MOMM*%
%LPD*%
G01*
G04 APERTURE LIST*
G04 Aperture macros list*
%AMRoundRect*
0 Rectangle with rounded corners*
0 $1 Rounding radius*
0 $2 $3 $4 $5 $6 $7 $8 $9 X,Y pos of 4 corners*
0 Add a 4 corners polygon primitive as box body*
4,1,4,$2,$3,$4,$5,$6,$7,$8,$9,$2,$3,0*
0 Add four circle primitives for the rounded corners*
1,1,$1+$1,$2,$3*
1,1,$1+$1,$4,$5*
1,1,$1+$1,$6,$7*
1,1,$1+$1,$8,$9*
0 Add four rect primitives between the rounded corners*
20,1,$1+$1,$2,$3,$4,$5,0*
20,1,$1+$1,$4,$5,$6,$7,0*
20,1,$1+$1,$6,$7,$8,$9,0*
20,1,$1+$1,$8,$9,$2,$3,0*%
G04 Aperture macros list end*
%ADD10R,0.650000X1.525000*%
%ADD11RoundRect,0.250000X-0.350000X-0.450000X0.350000X-0.450000X0.350000X0.450000X-0.350000X0.450000X0*%
%ADD12RoundRect,0.250000X0.475000X-0.337500X0.475000X0.337500X-0.475000X0.337500X-0.475000X-0.337500X0*%
%ADD13RoundRect,0.250000X-1.950000X-1.000000X1.950000X-1.000000X1.950000X1.000000X-1.950000X1.000000X0*%
%ADD14RoundRect,0.250000X0.337500X0.475000X-0.337500X0.475000X-0.337500X-0.475000X0.337500X-0.475000X0*%
%ADD15RoundRect,0.250000X0.450000X-0.350000X0.450000X0.350000X-0.450000X0.350000X-0.450000X-0.350000X0*%
%ADD16R,1.300000X2.000000*%
%ADD17R,2.000000X2.000000*%
%ADD18RoundRect,0.250000X-0.450000X0.350000X-0.450000X-0.350000X0.450000X-0.350000X0.450000X0.350000X0*%
%ADD19RoundRect,0.112500X0.187500X0.112500X-0.187500X0.112500X-0.187500X-0.112500X0.187500X-0.112500X0*%
%ADD20RoundRect,0.249999X-0.512501X-1.075001X0.512501X-1.075001X0.512501X1.075001X-0.512501X1.075001X0*%
G04 APERTURE END LIST*
D10*
%TO.C,IC1*%
X59582000Y-18400000D03*
X60852000Y-18400000D03*
X62122000Y-18400000D03*
X63392000Y-18400000D03*
X63392000Y-12976000D03*
X62122000Y-12976000D03*
X60852000Y-12976000D03*
X59582000Y-12976000D03*
%TD*%
D11*
%TO.C,R4*%
X60780000Y-10477000D03*
X62780000Y-10477000D03*
%TD*%
D12*
%TO.C,C2*%
X18464000Y-14675000D03*
X18464000Y-12600000D03*
%TD*%
D13*
%TO.C,C4*%
X15968000Y-5524000D03*
X23368000Y-5524000D03*
%TD*%
D14*
%TO.C,C7*%
X55487000Y-12988000D03*
X53412000Y-12988000D03*
%TD*%
D15*
%TO.C,R1*%
X15464000Y-19000000D03*
X15464000Y-17000000D03*
%TD*%
D16*
%TO.C,RV1*%
X25243000Y-13688000D03*
D17*
X26393000Y-17688000D03*
D16*
X27543000Y-13688000D03*
%TD*%
D12*
%TO.C,C10*%
X40064000Y-14500000D03*
X40064000Y-12425000D03*
%TD*%
D18*
%TO.C,.R2*%
X17064000Y-51500000D03*
X17064000Y-53500000D03*
%TD*%
D19*
%TO.C,D1*%
X25114000Y-24000000D03*
X23014000Y-24000000D03*
%TD*%
D10*
%TO.C,IC2*%
X32888000Y-18400000D03*
X34158000Y-18400000D03*
X35428000Y-18400000D03*
X36698000Y-18400000D03*
X36698000Y-12976000D03*
X35428000Y-12976000D03*
X34158000Y-12976000D03*
X32888000Y-12976000D03*
%TD*%
D15*
%TO.C,R2*%
X18464000Y-19000000D03*
X18464000Y-17000000D03*
%TD*%
D14*
%TO.C,C7*%
X4359000Y-12988000D03*
X2284000Y-12988000D03*
%TD*%
D12*
%TO.C,C5*%
X72667000Y-14675000D03*
X72667000Y-12600000D03*
%TD*%
D14*
%TO.C,C8*%
X55487000Y-15788000D03*
X53412000Y-15788000D03*
%TD*%
D12*
%TO.C,C3*%
X30464000Y-16725000D03*
X30464000Y-14650000D03*
%TD*%
D16*
%TO.C,RV1*%
X76371000Y-13688000D03*
D17*
X77521000Y-17688000D03*
D16*
X78671000Y-13688000D03*
%TD*%
D10*
%TO.C,IC1*%
X8454000Y-18400000D03*
X9724000Y-18400000D03*
X10994000Y-18400000D03*
X12264000Y-18400000D03*
X12264000Y-12976000D03*
X10994000Y-12976000D03*
X9724000Y-12976000D03*
X8454000Y-12976000D03*
%TD*%
D15*
%TO.C,R1*%
X66592000Y-19000000D03*
X66592000Y-17000000D03*
%TD*%
D12*
%TO.C,C3*%
X81592000Y-16725000D03*
X81592000Y-14650000D03*
%TD*%
D13*
%TO.C,C4*%
X67096000Y-5524000D03*
X74496000Y-5524000D03*
%TD*%
D12*
%TO.C,C1*%
X66592000Y-14675000D03*
X66592000Y-12600000D03*
%TD*%
%TO.C,C1*%
X15464000Y-14675000D03*
X15464000Y-12600000D03*
%TD*%
D14*
%TO.C,C8*%
X4359000Y-15788000D03*
X2284000Y-15788000D03*
%TD*%
%TO.C,C9*%
X4396500Y-18388000D03*
X2321500Y-18388000D03*
%TD*%
D12*
%TO.C,C10*%
X91192000Y-14500000D03*
X91192000Y-12425000D03*
%TD*%
D13*
%TO.C,C6*%
X29828000Y-5524000D03*
X37228000Y-5524000D03*
%TD*%
D19*
%TO.C,D1*%
X76242000Y-24000000D03*
X74142000Y-24000000D03*
%TD*%
D14*
%TO.C,C9*%
X55524500Y-18388000D03*
X53449500Y-18388000D03*
%TD*%
D15*
%TO.C,R2*%
X69592000Y-19000000D03*
X69592000Y-17000000D03*
%TD*%
D10*
%TO.C,IC2*%
X84016000Y-18400000D03*
X85286000Y-18400000D03*
X86556000Y-18400000D03*
X87826000Y-18400000D03*
X87826000Y-12976000D03*
X86556000Y-12976000D03*
X85286000Y-12976000D03*
X84016000Y-12976000D03*
%TD*%
D12*
%TO.C,C5*%
X21539000Y-14675000D03*
X21539000Y-12600000D03*
%TD*%
D13*
%TO.C,C6*%
X80956000Y-5524000D03*
X88356000Y-5524000D03*
%TD*%
D18*
%TO.C,.R2*%
X68192000Y-51500000D03*
X68192000Y-53500000D03*
%TD*%
D12*
%TO.C,C2*%
X69592000Y-14675000D03*
X69592000Y-12600000D03*
%TD*%
D18*
%TO.C,R3*%
X40064000Y-17000000D03*
X40064000Y-19000000D03*
%TD*%
%TO.C,R3*%
X91192000Y-17000000D03*
X91192000Y-19000000D03*
%TD*%
D11*
%TO.C,R4*%
X9652000Y-10477000D03*
X11652000Y-10477000D03*
%TD*%
D20*
%TO.C,.D1*%
X72854500Y-52500000D03*
X77529500Y-52500000D03*
%TD*%
%TO.C,.D1*%
X21726500Y-52500000D03*
X26401500Y-52500000D03*
%TD*%
M02*
