%TF.GenerationSoftware,KiCad,Pcbnew,7.0.10*%
%TF.CreationDate,2024-03-02T22:01:54+01:00*%
%TF.ProjectId,explorer-panel_panelized,6578706c-6f72-4657-922d-70616e656c5f,rev?*%
%TF.SameCoordinates,Original*%
%TF.FileFunction,Legend,Top*%
%TF.FilePolarity,Positive*%
%FSLAX46Y46*%
G04 Gerber Fmt 4.6, Leading zero omitted, Abs format (unit mm)*
G04 Created by KiCad (PCBNEW 7.0.10) date 2024-03-02 22:01:54*
%MOMM*%
%LPD*%
G01*
G04 APERTURE LIST*
G04 Aperture macros list*
%AMRoundRect*
0 Rectangle with rounded corners*
0 $1 Rounding radius*
0 $2 $3 $4 $5 $6 $7 $8 $9 X,Y pos of 4 corners*
0 Add a 4 corners polygon primitive as box body*
4,1,4,$2,$3,$4,$5,$6,$7,$8,$9,$2,$3,0*
0 Add four circle primitives for the rounded corners*
1,1,$1+$1,$2,$3*
1,1,$1+$1,$4,$5*
1,1,$1+$1,$6,$7*
1,1,$1+$1,$8,$9*
0 Add four rect primitives between the rounded corners*
20,1,$1+$1,$2,$3,$4,$5,0*
20,1,$1+$1,$4,$5,$6,$7,0*
20,1,$1+$1,$6,$7,$8,$9,0*
20,1,$1+$1,$8,$9,$2,$3,0*%
G04 Aperture macros list end*
%ADD10C,0.150000*%
%ADD11C,0.254000*%
%ADD12C,0.200000*%
%ADD13C,0.120000*%
%ADD14R,0.650000X1.525000*%
%ADD15C,0.500000*%
%ADD16RoundRect,0.250000X-0.350000X-0.450000X0.350000X-0.450000X0.350000X0.450000X-0.350000X0.450000X0*%
%ADD17R,1.800000X1.800000*%
%ADD18C,1.800000*%
%ADD19RoundRect,0.250001X-0.949999X-0.949999X0.949999X-0.949999X0.949999X0.949999X-0.949999X0.949999X0*%
%ADD20C,2.400000*%
%ADD21RoundRect,0.250000X0.475000X-0.337500X0.475000X0.337500X-0.475000X0.337500X-0.475000X-0.337500X0*%
%ADD22RoundRect,0.250000X-1.950000X-1.000000X1.950000X-1.000000X1.950000X1.000000X-1.950000X1.000000X0*%
%ADD23R,3.500000X3.500000*%
%ADD24RoundRect,0.750000X1.000000X-0.750000X1.000000X0.750000X-1.000000X0.750000X-1.000000X-0.750000X0*%
%ADD25RoundRect,0.875000X0.875000X-0.875000X0.875000X0.875000X-0.875000X0.875000X-0.875000X-0.875000X0*%
%ADD26C,3.000000*%
%ADD27RoundRect,0.250000X0.337500X0.475000X-0.337500X0.475000X-0.337500X-0.475000X0.337500X-0.475000X0*%
%ADD28RoundRect,0.250000X0.450000X-0.350000X0.450000X0.350000X-0.450000X0.350000X-0.450000X-0.350000X0*%
%ADD29R,1.300000X2.000000*%
%ADD30R,2.000000X2.000000*%
%ADD31C,3.200000*%
%ADD32RoundRect,0.250000X-0.450000X0.350000X-0.450000X-0.350000X0.450000X-0.350000X0.450000X0.350000X0*%
%ADD33R,1.700000X1.700000*%
%ADD34O,1.700000X1.700000*%
%ADD35RoundRect,0.112500X0.187500X0.112500X-0.187500X0.112500X-0.187500X-0.112500X0.187500X-0.112500X0*%
%ADD36C,1.600000*%
%ADD37O,1.600000X1.600000*%
%ADD38RoundRect,0.249999X-0.512501X-1.075001X0.512501X-1.075001X0.512501X1.075001X-0.512501X1.075001X0*%
G04 APERTURE END LIST*
D10*
X43753160Y-13022200D02*
X43896017Y-13069819D01*
X43896017Y-13069819D02*
X44134112Y-13069819D01*
X44134112Y-13069819D02*
X44229350Y-13022200D01*
X44229350Y-13022200D02*
X44276969Y-12974580D01*
X44276969Y-12974580D02*
X44324588Y-12879342D01*
X44324588Y-12879342D02*
X44324588Y-12784104D01*
X44324588Y-12784104D02*
X44276969Y-12688866D01*
X44276969Y-12688866D02*
X44229350Y-12641247D01*
X44229350Y-12641247D02*
X44134112Y-12593628D01*
X44134112Y-12593628D02*
X43943636Y-12546009D01*
X43943636Y-12546009D02*
X43848398Y-12498390D01*
X43848398Y-12498390D02*
X43800779Y-12450771D01*
X43800779Y-12450771D02*
X43753160Y-12355533D01*
X43753160Y-12355533D02*
X43753160Y-12260295D01*
X43753160Y-12260295D02*
X43800779Y-12165057D01*
X43800779Y-12165057D02*
X43848398Y-12117438D01*
X43848398Y-12117438D02*
X43943636Y-12069819D01*
X43943636Y-12069819D02*
X44181731Y-12069819D01*
X44181731Y-12069819D02*
X44324588Y-12117438D01*
X44753160Y-13069819D02*
X44753160Y-12069819D01*
X44753160Y-12069819D02*
X45134112Y-12069819D01*
X45134112Y-12069819D02*
X45229350Y-12117438D01*
X45229350Y-12117438D02*
X45276969Y-12165057D01*
X45276969Y-12165057D02*
X45324588Y-12260295D01*
X45324588Y-12260295D02*
X45324588Y-12403152D01*
X45324588Y-12403152D02*
X45276969Y-12498390D01*
X45276969Y-12498390D02*
X45229350Y-12546009D01*
X45229350Y-12546009D02*
X45134112Y-12593628D01*
X45134112Y-12593628D02*
X44753160Y-12593628D01*
X45753160Y-12688866D02*
X46515065Y-12688866D01*
X46134112Y-13069819D02*
X46134112Y-12307914D01*
X94881160Y-13022200D02*
X95024017Y-13069819D01*
X95024017Y-13069819D02*
X95262112Y-13069819D01*
X95262112Y-13069819D02*
X95357350Y-13022200D01*
X95357350Y-13022200D02*
X95404969Y-12974580D01*
X95404969Y-12974580D02*
X95452588Y-12879342D01*
X95452588Y-12879342D02*
X95452588Y-12784104D01*
X95452588Y-12784104D02*
X95404969Y-12688866D01*
X95404969Y-12688866D02*
X95357350Y-12641247D01*
X95357350Y-12641247D02*
X95262112Y-12593628D01*
X95262112Y-12593628D02*
X95071636Y-12546009D01*
X95071636Y-12546009D02*
X94976398Y-12498390D01*
X94976398Y-12498390D02*
X94928779Y-12450771D01*
X94928779Y-12450771D02*
X94881160Y-12355533D01*
X94881160Y-12355533D02*
X94881160Y-12260295D01*
X94881160Y-12260295D02*
X94928779Y-12165057D01*
X94928779Y-12165057D02*
X94976398Y-12117438D01*
X94976398Y-12117438D02*
X95071636Y-12069819D01*
X95071636Y-12069819D02*
X95309731Y-12069819D01*
X95309731Y-12069819D02*
X95452588Y-12117438D01*
X95881160Y-13069819D02*
X95881160Y-12069819D01*
X95881160Y-12069819D02*
X96262112Y-12069819D01*
X96262112Y-12069819D02*
X96357350Y-12117438D01*
X96357350Y-12117438D02*
X96404969Y-12165057D01*
X96404969Y-12165057D02*
X96452588Y-12260295D01*
X96452588Y-12260295D02*
X96452588Y-12403152D01*
X96452588Y-12403152D02*
X96404969Y-12498390D01*
X96404969Y-12498390D02*
X96357350Y-12546009D01*
X96357350Y-12546009D02*
X96262112Y-12593628D01*
X96262112Y-12593628D02*
X95881160Y-12593628D01*
X96881160Y-12688866D02*
X97643065Y-12688866D01*
X97262112Y-13069819D02*
X97262112Y-12307914D01*
X72038779Y-66666819D02*
X72038779Y-65666819D01*
X72514969Y-66000152D02*
X72514969Y-66666819D01*
X72514969Y-66095390D02*
X72562588Y-66047771D01*
X72562588Y-66047771D02*
X72657826Y-66000152D01*
X72657826Y-66000152D02*
X72800683Y-66000152D01*
X72800683Y-66000152D02*
X72895921Y-66047771D01*
X72895921Y-66047771D02*
X72943540Y-66143009D01*
X72943540Y-66143009D02*
X72943540Y-66666819D01*
X73419731Y-66000152D02*
X73419731Y-67000152D01*
X73419731Y-66047771D02*
X73514969Y-66000152D01*
X73514969Y-66000152D02*
X73705445Y-66000152D01*
X73705445Y-66000152D02*
X73800683Y-66047771D01*
X73800683Y-66047771D02*
X73848302Y-66095390D01*
X73848302Y-66095390D02*
X73895921Y-66190628D01*
X73895921Y-66190628D02*
X73895921Y-66476342D01*
X73895921Y-66476342D02*
X73848302Y-66571580D01*
X73848302Y-66571580D02*
X73800683Y-66619200D01*
X73800683Y-66619200D02*
X73705445Y-66666819D01*
X73705445Y-66666819D02*
X73514969Y-66666819D01*
X73514969Y-66666819D02*
X73419731Y-66619200D01*
X74753064Y-66000152D02*
X74753064Y-66666819D01*
X74324493Y-66000152D02*
X74324493Y-66523961D01*
X74324493Y-66523961D02*
X74372112Y-66619200D01*
X74372112Y-66619200D02*
X74467350Y-66666819D01*
X74467350Y-66666819D02*
X74610207Y-66666819D01*
X74610207Y-66666819D02*
X74705445Y-66619200D01*
X74705445Y-66619200D02*
X74753064Y-66571580D01*
X75086398Y-66000152D02*
X75467350Y-66000152D01*
X75229255Y-65666819D02*
X75229255Y-66523961D01*
X75229255Y-66523961D02*
X75276874Y-66619200D01*
X75276874Y-66619200D02*
X75372112Y-66666819D01*
X75372112Y-66666819D02*
X75467350Y-66666819D01*
X77038779Y-65666819D02*
X76562589Y-65666819D01*
X76562589Y-65666819D02*
X76514970Y-66143009D01*
X76514970Y-66143009D02*
X76562589Y-66095390D01*
X76562589Y-66095390D02*
X76657827Y-66047771D01*
X76657827Y-66047771D02*
X76895922Y-66047771D01*
X76895922Y-66047771D02*
X76991160Y-66095390D01*
X76991160Y-66095390D02*
X77038779Y-66143009D01*
X77038779Y-66143009D02*
X77086398Y-66238247D01*
X77086398Y-66238247D02*
X77086398Y-66476342D01*
X77086398Y-66476342D02*
X77038779Y-66571580D01*
X77038779Y-66571580D02*
X76991160Y-66619200D01*
X76991160Y-66619200D02*
X76895922Y-66666819D01*
X76895922Y-66666819D02*
X76657827Y-66666819D01*
X76657827Y-66666819D02*
X76562589Y-66619200D01*
X76562589Y-66619200D02*
X76514970Y-66571580D01*
X77372113Y-66285866D02*
X77419732Y-66238247D01*
X77419732Y-66238247D02*
X77514970Y-66190628D01*
X77514970Y-66190628D02*
X77705446Y-66285866D01*
X77705446Y-66285866D02*
X77800684Y-66238247D01*
X77800684Y-66238247D02*
X77848303Y-66190628D01*
X78657827Y-65666819D02*
X78467351Y-65666819D01*
X78467351Y-65666819D02*
X78372113Y-65714438D01*
X78372113Y-65714438D02*
X78324494Y-65762057D01*
X78324494Y-65762057D02*
X78229256Y-65904914D01*
X78229256Y-65904914D02*
X78181637Y-66095390D01*
X78181637Y-66095390D02*
X78181637Y-66476342D01*
X78181637Y-66476342D02*
X78229256Y-66571580D01*
X78229256Y-66571580D02*
X78276875Y-66619200D01*
X78276875Y-66619200D02*
X78372113Y-66666819D01*
X78372113Y-66666819D02*
X78562589Y-66666819D01*
X78562589Y-66666819D02*
X78657827Y-66619200D01*
X78657827Y-66619200D02*
X78705446Y-66571580D01*
X78705446Y-66571580D02*
X78753065Y-66476342D01*
X78753065Y-66476342D02*
X78753065Y-66238247D01*
X78753065Y-66238247D02*
X78705446Y-66143009D01*
X78705446Y-66143009D02*
X78657827Y-66095390D01*
X78657827Y-66095390D02*
X78562589Y-66047771D01*
X78562589Y-66047771D02*
X78372113Y-66047771D01*
X78372113Y-66047771D02*
X78276875Y-66095390D01*
X78276875Y-66095390D02*
X78229256Y-66143009D01*
X78229256Y-66143009D02*
X78181637Y-66238247D01*
X79038780Y-65666819D02*
X79372113Y-66666819D01*
X79372113Y-66666819D02*
X79705446Y-65666819D01*
X20910779Y-30666819D02*
X20910779Y-29666819D01*
X21386969Y-30000152D02*
X21386969Y-30666819D01*
X21386969Y-30095390D02*
X21434588Y-30047771D01*
X21434588Y-30047771D02*
X21529826Y-30000152D01*
X21529826Y-30000152D02*
X21672683Y-30000152D01*
X21672683Y-30000152D02*
X21767921Y-30047771D01*
X21767921Y-30047771D02*
X21815540Y-30143009D01*
X21815540Y-30143009D02*
X21815540Y-30666819D01*
X22291731Y-30000152D02*
X22291731Y-31000152D01*
X22291731Y-30047771D02*
X22386969Y-30000152D01*
X22386969Y-30000152D02*
X22577445Y-30000152D01*
X22577445Y-30000152D02*
X22672683Y-30047771D01*
X22672683Y-30047771D02*
X22720302Y-30095390D01*
X22720302Y-30095390D02*
X22767921Y-30190628D01*
X22767921Y-30190628D02*
X22767921Y-30476342D01*
X22767921Y-30476342D02*
X22720302Y-30571580D01*
X22720302Y-30571580D02*
X22672683Y-30619200D01*
X22672683Y-30619200D02*
X22577445Y-30666819D01*
X22577445Y-30666819D02*
X22386969Y-30666819D01*
X22386969Y-30666819D02*
X22291731Y-30619200D01*
X23625064Y-30000152D02*
X23625064Y-30666819D01*
X23196493Y-30000152D02*
X23196493Y-30523961D01*
X23196493Y-30523961D02*
X23244112Y-30619200D01*
X23244112Y-30619200D02*
X23339350Y-30666819D01*
X23339350Y-30666819D02*
X23482207Y-30666819D01*
X23482207Y-30666819D02*
X23577445Y-30619200D01*
X23577445Y-30619200D02*
X23625064Y-30571580D01*
X23958398Y-30000152D02*
X24339350Y-30000152D01*
X24101255Y-29666819D02*
X24101255Y-30523961D01*
X24101255Y-30523961D02*
X24148874Y-30619200D01*
X24148874Y-30619200D02*
X24244112Y-30666819D01*
X24244112Y-30666819D02*
X24339350Y-30666819D01*
X25910779Y-29666819D02*
X25434589Y-29666819D01*
X25434589Y-29666819D02*
X25386970Y-30143009D01*
X25386970Y-30143009D02*
X25434589Y-30095390D01*
X25434589Y-30095390D02*
X25529827Y-30047771D01*
X25529827Y-30047771D02*
X25767922Y-30047771D01*
X25767922Y-30047771D02*
X25863160Y-30095390D01*
X25863160Y-30095390D02*
X25910779Y-30143009D01*
X25910779Y-30143009D02*
X25958398Y-30238247D01*
X25958398Y-30238247D02*
X25958398Y-30476342D01*
X25958398Y-30476342D02*
X25910779Y-30571580D01*
X25910779Y-30571580D02*
X25863160Y-30619200D01*
X25863160Y-30619200D02*
X25767922Y-30666819D01*
X25767922Y-30666819D02*
X25529827Y-30666819D01*
X25529827Y-30666819D02*
X25434589Y-30619200D01*
X25434589Y-30619200D02*
X25386970Y-30571580D01*
X26244113Y-30285866D02*
X26291732Y-30238247D01*
X26291732Y-30238247D02*
X26386970Y-30190628D01*
X26386970Y-30190628D02*
X26577446Y-30285866D01*
X26577446Y-30285866D02*
X26672684Y-30238247D01*
X26672684Y-30238247D02*
X26720303Y-30190628D01*
X27529827Y-29666819D02*
X27339351Y-29666819D01*
X27339351Y-29666819D02*
X27244113Y-29714438D01*
X27244113Y-29714438D02*
X27196494Y-29762057D01*
X27196494Y-29762057D02*
X27101256Y-29904914D01*
X27101256Y-29904914D02*
X27053637Y-30095390D01*
X27053637Y-30095390D02*
X27053637Y-30476342D01*
X27053637Y-30476342D02*
X27101256Y-30571580D01*
X27101256Y-30571580D02*
X27148875Y-30619200D01*
X27148875Y-30619200D02*
X27244113Y-30666819D01*
X27244113Y-30666819D02*
X27434589Y-30666819D01*
X27434589Y-30666819D02*
X27529827Y-30619200D01*
X27529827Y-30619200D02*
X27577446Y-30571580D01*
X27577446Y-30571580D02*
X27625065Y-30476342D01*
X27625065Y-30476342D02*
X27625065Y-30238247D01*
X27625065Y-30238247D02*
X27577446Y-30143009D01*
X27577446Y-30143009D02*
X27529827Y-30095390D01*
X27529827Y-30095390D02*
X27434589Y-30047771D01*
X27434589Y-30047771D02*
X27244113Y-30047771D01*
X27244113Y-30047771D02*
X27148875Y-30095390D01*
X27148875Y-30095390D02*
X27101256Y-30143009D01*
X27101256Y-30143009D02*
X27053637Y-30238247D01*
X27910780Y-29666819D02*
X28244113Y-30666819D01*
X28244113Y-30666819D02*
X28577446Y-29666819D01*
X20910779Y-66666819D02*
X20910779Y-65666819D01*
X21386969Y-66000152D02*
X21386969Y-66666819D01*
X21386969Y-66095390D02*
X21434588Y-66047771D01*
X21434588Y-66047771D02*
X21529826Y-66000152D01*
X21529826Y-66000152D02*
X21672683Y-66000152D01*
X21672683Y-66000152D02*
X21767921Y-66047771D01*
X21767921Y-66047771D02*
X21815540Y-66143009D01*
X21815540Y-66143009D02*
X21815540Y-66666819D01*
X22291731Y-66000152D02*
X22291731Y-67000152D01*
X22291731Y-66047771D02*
X22386969Y-66000152D01*
X22386969Y-66000152D02*
X22577445Y-66000152D01*
X22577445Y-66000152D02*
X22672683Y-66047771D01*
X22672683Y-66047771D02*
X22720302Y-66095390D01*
X22720302Y-66095390D02*
X22767921Y-66190628D01*
X22767921Y-66190628D02*
X22767921Y-66476342D01*
X22767921Y-66476342D02*
X22720302Y-66571580D01*
X22720302Y-66571580D02*
X22672683Y-66619200D01*
X22672683Y-66619200D02*
X22577445Y-66666819D01*
X22577445Y-66666819D02*
X22386969Y-66666819D01*
X22386969Y-66666819D02*
X22291731Y-66619200D01*
X23625064Y-66000152D02*
X23625064Y-66666819D01*
X23196493Y-66000152D02*
X23196493Y-66523961D01*
X23196493Y-66523961D02*
X23244112Y-66619200D01*
X23244112Y-66619200D02*
X23339350Y-66666819D01*
X23339350Y-66666819D02*
X23482207Y-66666819D01*
X23482207Y-66666819D02*
X23577445Y-66619200D01*
X23577445Y-66619200D02*
X23625064Y-66571580D01*
X23958398Y-66000152D02*
X24339350Y-66000152D01*
X24101255Y-65666819D02*
X24101255Y-66523961D01*
X24101255Y-66523961D02*
X24148874Y-66619200D01*
X24148874Y-66619200D02*
X24244112Y-66666819D01*
X24244112Y-66666819D02*
X24339350Y-66666819D01*
X25910779Y-65666819D02*
X25434589Y-65666819D01*
X25434589Y-65666819D02*
X25386970Y-66143009D01*
X25386970Y-66143009D02*
X25434589Y-66095390D01*
X25434589Y-66095390D02*
X25529827Y-66047771D01*
X25529827Y-66047771D02*
X25767922Y-66047771D01*
X25767922Y-66047771D02*
X25863160Y-66095390D01*
X25863160Y-66095390D02*
X25910779Y-66143009D01*
X25910779Y-66143009D02*
X25958398Y-66238247D01*
X25958398Y-66238247D02*
X25958398Y-66476342D01*
X25958398Y-66476342D02*
X25910779Y-66571580D01*
X25910779Y-66571580D02*
X25863160Y-66619200D01*
X25863160Y-66619200D02*
X25767922Y-66666819D01*
X25767922Y-66666819D02*
X25529827Y-66666819D01*
X25529827Y-66666819D02*
X25434589Y-66619200D01*
X25434589Y-66619200D02*
X25386970Y-66571580D01*
X26244113Y-66285866D02*
X26291732Y-66238247D01*
X26291732Y-66238247D02*
X26386970Y-66190628D01*
X26386970Y-66190628D02*
X26577446Y-66285866D01*
X26577446Y-66285866D02*
X26672684Y-66238247D01*
X26672684Y-66238247D02*
X26720303Y-66190628D01*
X27529827Y-65666819D02*
X27339351Y-65666819D01*
X27339351Y-65666819D02*
X27244113Y-65714438D01*
X27244113Y-65714438D02*
X27196494Y-65762057D01*
X27196494Y-65762057D02*
X27101256Y-65904914D01*
X27101256Y-65904914D02*
X27053637Y-66095390D01*
X27053637Y-66095390D02*
X27053637Y-66476342D01*
X27053637Y-66476342D02*
X27101256Y-66571580D01*
X27101256Y-66571580D02*
X27148875Y-66619200D01*
X27148875Y-66619200D02*
X27244113Y-66666819D01*
X27244113Y-66666819D02*
X27434589Y-66666819D01*
X27434589Y-66666819D02*
X27529827Y-66619200D01*
X27529827Y-66619200D02*
X27577446Y-66571580D01*
X27577446Y-66571580D02*
X27625065Y-66476342D01*
X27625065Y-66476342D02*
X27625065Y-66238247D01*
X27625065Y-66238247D02*
X27577446Y-66143009D01*
X27577446Y-66143009D02*
X27529827Y-66095390D01*
X27529827Y-66095390D02*
X27434589Y-66047771D01*
X27434589Y-66047771D02*
X27244113Y-66047771D01*
X27244113Y-66047771D02*
X27148875Y-66095390D01*
X27148875Y-66095390D02*
X27101256Y-66143009D01*
X27101256Y-66143009D02*
X27053637Y-66238247D01*
X27910780Y-65666819D02*
X28244113Y-66666819D01*
X28244113Y-66666819D02*
X28577446Y-65666819D01*
X72038779Y-30666819D02*
X72038779Y-29666819D01*
X72514969Y-30000152D02*
X72514969Y-30666819D01*
X72514969Y-30095390D02*
X72562588Y-30047771D01*
X72562588Y-30047771D02*
X72657826Y-30000152D01*
X72657826Y-30000152D02*
X72800683Y-30000152D01*
X72800683Y-30000152D02*
X72895921Y-30047771D01*
X72895921Y-30047771D02*
X72943540Y-30143009D01*
X72943540Y-30143009D02*
X72943540Y-30666819D01*
X73419731Y-30000152D02*
X73419731Y-31000152D01*
X73419731Y-30047771D02*
X73514969Y-30000152D01*
X73514969Y-30000152D02*
X73705445Y-30000152D01*
X73705445Y-30000152D02*
X73800683Y-30047771D01*
X73800683Y-30047771D02*
X73848302Y-30095390D01*
X73848302Y-30095390D02*
X73895921Y-30190628D01*
X73895921Y-30190628D02*
X73895921Y-30476342D01*
X73895921Y-30476342D02*
X73848302Y-30571580D01*
X73848302Y-30571580D02*
X73800683Y-30619200D01*
X73800683Y-30619200D02*
X73705445Y-30666819D01*
X73705445Y-30666819D02*
X73514969Y-30666819D01*
X73514969Y-30666819D02*
X73419731Y-30619200D01*
X74753064Y-30000152D02*
X74753064Y-30666819D01*
X74324493Y-30000152D02*
X74324493Y-30523961D01*
X74324493Y-30523961D02*
X74372112Y-30619200D01*
X74372112Y-30619200D02*
X74467350Y-30666819D01*
X74467350Y-30666819D02*
X74610207Y-30666819D01*
X74610207Y-30666819D02*
X74705445Y-30619200D01*
X74705445Y-30619200D02*
X74753064Y-30571580D01*
X75086398Y-30000152D02*
X75467350Y-30000152D01*
X75229255Y-29666819D02*
X75229255Y-30523961D01*
X75229255Y-30523961D02*
X75276874Y-30619200D01*
X75276874Y-30619200D02*
X75372112Y-30666819D01*
X75372112Y-30666819D02*
X75467350Y-30666819D01*
X77038779Y-29666819D02*
X76562589Y-29666819D01*
X76562589Y-29666819D02*
X76514970Y-30143009D01*
X76514970Y-30143009D02*
X76562589Y-30095390D01*
X76562589Y-30095390D02*
X76657827Y-30047771D01*
X76657827Y-30047771D02*
X76895922Y-30047771D01*
X76895922Y-30047771D02*
X76991160Y-30095390D01*
X76991160Y-30095390D02*
X77038779Y-30143009D01*
X77038779Y-30143009D02*
X77086398Y-30238247D01*
X77086398Y-30238247D02*
X77086398Y-30476342D01*
X77086398Y-30476342D02*
X77038779Y-30571580D01*
X77038779Y-30571580D02*
X76991160Y-30619200D01*
X76991160Y-30619200D02*
X76895922Y-30666819D01*
X76895922Y-30666819D02*
X76657827Y-30666819D01*
X76657827Y-30666819D02*
X76562589Y-30619200D01*
X76562589Y-30619200D02*
X76514970Y-30571580D01*
X77372113Y-30285866D02*
X77419732Y-30238247D01*
X77419732Y-30238247D02*
X77514970Y-30190628D01*
X77514970Y-30190628D02*
X77705446Y-30285866D01*
X77705446Y-30285866D02*
X77800684Y-30238247D01*
X77800684Y-30238247D02*
X77848303Y-30190628D01*
X78657827Y-29666819D02*
X78467351Y-29666819D01*
X78467351Y-29666819D02*
X78372113Y-29714438D01*
X78372113Y-29714438D02*
X78324494Y-29762057D01*
X78324494Y-29762057D02*
X78229256Y-29904914D01*
X78229256Y-29904914D02*
X78181637Y-30095390D01*
X78181637Y-30095390D02*
X78181637Y-30476342D01*
X78181637Y-30476342D02*
X78229256Y-30571580D01*
X78229256Y-30571580D02*
X78276875Y-30619200D01*
X78276875Y-30619200D02*
X78372113Y-30666819D01*
X78372113Y-30666819D02*
X78562589Y-30666819D01*
X78562589Y-30666819D02*
X78657827Y-30619200D01*
X78657827Y-30619200D02*
X78705446Y-30571580D01*
X78705446Y-30571580D02*
X78753065Y-30476342D01*
X78753065Y-30476342D02*
X78753065Y-30238247D01*
X78753065Y-30238247D02*
X78705446Y-30143009D01*
X78705446Y-30143009D02*
X78657827Y-30095390D01*
X78657827Y-30095390D02*
X78562589Y-30047771D01*
X78562589Y-30047771D02*
X78372113Y-30047771D01*
X78372113Y-30047771D02*
X78276875Y-30095390D01*
X78276875Y-30095390D02*
X78229256Y-30143009D01*
X78229256Y-30143009D02*
X78181637Y-30238247D01*
X79038780Y-29666819D02*
X79372113Y-30666819D01*
X79372113Y-30666819D02*
X79705446Y-29666819D01*
D11*
X60247237Y-20924318D02*
X60247237Y-19654318D01*
X61577714Y-20803365D02*
X61517238Y-20863842D01*
X61517238Y-20863842D02*
X61335809Y-20924318D01*
X61335809Y-20924318D02*
X61214857Y-20924318D01*
X61214857Y-20924318D02*
X61033428Y-20863842D01*
X61033428Y-20863842D02*
X60912476Y-20742889D01*
X60912476Y-20742889D02*
X60851999Y-20621937D01*
X60851999Y-20621937D02*
X60791523Y-20380032D01*
X60791523Y-20380032D02*
X60791523Y-20198603D01*
X60791523Y-20198603D02*
X60851999Y-19956699D01*
X60851999Y-19956699D02*
X60912476Y-19835746D01*
X60912476Y-19835746D02*
X61033428Y-19714794D01*
X61033428Y-19714794D02*
X61214857Y-19654318D01*
X61214857Y-19654318D02*
X61335809Y-19654318D01*
X61335809Y-19654318D02*
X61517238Y-19714794D01*
X61517238Y-19714794D02*
X61577714Y-19775270D01*
X62787238Y-20924318D02*
X62061523Y-20924318D01*
X62424380Y-20924318D02*
X62424380Y-19654318D01*
X62424380Y-19654318D02*
X62303428Y-19835746D01*
X62303428Y-19835746D02*
X62182476Y-19956699D01*
X62182476Y-19956699D02*
X62061523Y-20017175D01*
D10*
X58835333Y-10931819D02*
X58502000Y-10455628D01*
X58263905Y-10931819D02*
X58263905Y-9931819D01*
X58263905Y-9931819D02*
X58644857Y-9931819D01*
X58644857Y-9931819D02*
X58740095Y-9979438D01*
X58740095Y-9979438D02*
X58787714Y-10027057D01*
X58787714Y-10027057D02*
X58835333Y-10122295D01*
X58835333Y-10122295D02*
X58835333Y-10265152D01*
X58835333Y-10265152D02*
X58787714Y-10360390D01*
X58787714Y-10360390D02*
X58740095Y-10408009D01*
X58740095Y-10408009D02*
X58644857Y-10455628D01*
X58644857Y-10455628D02*
X58263905Y-10455628D01*
X59692476Y-10265152D02*
X59692476Y-10931819D01*
X59454381Y-9884200D02*
X59216286Y-10598485D01*
X59216286Y-10598485D02*
X59835333Y-10598485D01*
X28383580Y-53496189D02*
X28431200Y-53448570D01*
X28431200Y-53448570D02*
X28478819Y-53496189D01*
X28478819Y-53496189D02*
X28431200Y-53543808D01*
X28431200Y-53543808D02*
X28383580Y-53496189D01*
X28383580Y-53496189D02*
X28478819Y-53496189D01*
X28478819Y-53019999D02*
X27478819Y-53019999D01*
X27478819Y-53019999D02*
X27478819Y-52781904D01*
X27478819Y-52781904D02*
X27526438Y-52639047D01*
X27526438Y-52639047D02*
X27621676Y-52543809D01*
X27621676Y-52543809D02*
X27716914Y-52496190D01*
X27716914Y-52496190D02*
X27907390Y-52448571D01*
X27907390Y-52448571D02*
X28050247Y-52448571D01*
X28050247Y-52448571D02*
X28240723Y-52496190D01*
X28240723Y-52496190D02*
X28335961Y-52543809D01*
X28335961Y-52543809D02*
X28431200Y-52639047D01*
X28431200Y-52639047D02*
X28478819Y-52781904D01*
X28478819Y-52781904D02*
X28478819Y-53019999D01*
X27574057Y-52067618D02*
X27526438Y-52019999D01*
X27526438Y-52019999D02*
X27478819Y-51924761D01*
X27478819Y-51924761D02*
X27478819Y-51686666D01*
X27478819Y-51686666D02*
X27526438Y-51591428D01*
X27526438Y-51591428D02*
X27574057Y-51543809D01*
X27574057Y-51543809D02*
X27669295Y-51496190D01*
X27669295Y-51496190D02*
X27764533Y-51496190D01*
X27764533Y-51496190D02*
X27907390Y-51543809D01*
X27907390Y-51543809D02*
X28478819Y-52115237D01*
X28478819Y-52115237D02*
X28478819Y-51496190D01*
X86314857Y-59459580D02*
X86362476Y-59507200D01*
X86362476Y-59507200D02*
X86314857Y-59554819D01*
X86314857Y-59554819D02*
X86267238Y-59507200D01*
X86267238Y-59507200D02*
X86314857Y-59459580D01*
X86314857Y-59459580D02*
X86314857Y-59554819D01*
X87076761Y-58554819D02*
X87076761Y-59269104D01*
X87076761Y-59269104D02*
X87029142Y-59411961D01*
X87029142Y-59411961D02*
X86933904Y-59507200D01*
X86933904Y-59507200D02*
X86791047Y-59554819D01*
X86791047Y-59554819D02*
X86695809Y-59554819D01*
X88076761Y-59554819D02*
X87505333Y-59554819D01*
X87791047Y-59554819D02*
X87791047Y-58554819D01*
X87791047Y-58554819D02*
X87695809Y-58697676D01*
X87695809Y-58697676D02*
X87600571Y-58792914D01*
X87600571Y-58792914D02*
X87505333Y-58840533D01*
X18297333Y-11559580D02*
X18249714Y-11607200D01*
X18249714Y-11607200D02*
X18106857Y-11654819D01*
X18106857Y-11654819D02*
X18011619Y-11654819D01*
X18011619Y-11654819D02*
X17868762Y-11607200D01*
X17868762Y-11607200D02*
X17773524Y-11511961D01*
X17773524Y-11511961D02*
X17725905Y-11416723D01*
X17725905Y-11416723D02*
X17678286Y-11226247D01*
X17678286Y-11226247D02*
X17678286Y-11083390D01*
X17678286Y-11083390D02*
X17725905Y-10892914D01*
X17725905Y-10892914D02*
X17773524Y-10797676D01*
X17773524Y-10797676D02*
X17868762Y-10702438D01*
X17868762Y-10702438D02*
X18011619Y-10654819D01*
X18011619Y-10654819D02*
X18106857Y-10654819D01*
X18106857Y-10654819D02*
X18249714Y-10702438D01*
X18249714Y-10702438D02*
X18297333Y-10750057D01*
X18678286Y-10750057D02*
X18725905Y-10702438D01*
X18725905Y-10702438D02*
X18821143Y-10654819D01*
X18821143Y-10654819D02*
X19059238Y-10654819D01*
X19059238Y-10654819D02*
X19154476Y-10702438D01*
X19154476Y-10702438D02*
X19202095Y-10750057D01*
X19202095Y-10750057D02*
X19249714Y-10845295D01*
X19249714Y-10845295D02*
X19249714Y-10940533D01*
X19249714Y-10940533D02*
X19202095Y-11083390D01*
X19202095Y-11083390D02*
X18630667Y-11654819D01*
X18630667Y-11654819D02*
X19249714Y-11654819D01*
X24979333Y-9820580D02*
X24931714Y-9868200D01*
X24931714Y-9868200D02*
X24788857Y-9915819D01*
X24788857Y-9915819D02*
X24693619Y-9915819D01*
X24693619Y-9915819D02*
X24550762Y-9868200D01*
X24550762Y-9868200D02*
X24455524Y-9772961D01*
X24455524Y-9772961D02*
X24407905Y-9677723D01*
X24407905Y-9677723D02*
X24360286Y-9487247D01*
X24360286Y-9487247D02*
X24360286Y-9344390D01*
X24360286Y-9344390D02*
X24407905Y-9153914D01*
X24407905Y-9153914D02*
X24455524Y-9058676D01*
X24455524Y-9058676D02*
X24550762Y-8963438D01*
X24550762Y-8963438D02*
X24693619Y-8915819D01*
X24693619Y-8915819D02*
X24788857Y-8915819D01*
X24788857Y-8915819D02*
X24931714Y-8963438D01*
X24931714Y-8963438D02*
X24979333Y-9011057D01*
X25836476Y-9249152D02*
X25836476Y-9915819D01*
X25598381Y-8868200D02*
X25360286Y-9582485D01*
X25360286Y-9582485D02*
X25979333Y-9582485D01*
X57025333Y-13359580D02*
X56977714Y-13407200D01*
X56977714Y-13407200D02*
X56834857Y-13454819D01*
X56834857Y-13454819D02*
X56739619Y-13454819D01*
X56739619Y-13454819D02*
X56596762Y-13407200D01*
X56596762Y-13407200D02*
X56501524Y-13311961D01*
X56501524Y-13311961D02*
X56453905Y-13216723D01*
X56453905Y-13216723D02*
X56406286Y-13026247D01*
X56406286Y-13026247D02*
X56406286Y-12883390D01*
X56406286Y-12883390D02*
X56453905Y-12692914D01*
X56453905Y-12692914D02*
X56501524Y-12597676D01*
X56501524Y-12597676D02*
X56596762Y-12502438D01*
X56596762Y-12502438D02*
X56739619Y-12454819D01*
X56739619Y-12454819D02*
X56834857Y-12454819D01*
X56834857Y-12454819D02*
X56977714Y-12502438D01*
X56977714Y-12502438D02*
X57025333Y-12550057D01*
X57358667Y-12454819D02*
X58025333Y-12454819D01*
X58025333Y-12454819D02*
X57596762Y-13454819D01*
X15297333Y-20954819D02*
X14964000Y-20478628D01*
X14725905Y-20954819D02*
X14725905Y-19954819D01*
X14725905Y-19954819D02*
X15106857Y-19954819D01*
X15106857Y-19954819D02*
X15202095Y-20002438D01*
X15202095Y-20002438D02*
X15249714Y-20050057D01*
X15249714Y-20050057D02*
X15297333Y-20145295D01*
X15297333Y-20145295D02*
X15297333Y-20288152D01*
X15297333Y-20288152D02*
X15249714Y-20383390D01*
X15249714Y-20383390D02*
X15202095Y-20431009D01*
X15202095Y-20431009D02*
X15106857Y-20478628D01*
X15106857Y-20478628D02*
X14725905Y-20478628D01*
X16249714Y-20954819D02*
X15678286Y-20954819D01*
X15964000Y-20954819D02*
X15964000Y-19954819D01*
X15964000Y-19954819D02*
X15868762Y-20097676D01*
X15868762Y-20097676D02*
X15773524Y-20192914D01*
X15773524Y-20192914D02*
X15678286Y-20240533D01*
X25714761Y-20179819D02*
X25381428Y-19703628D01*
X25143333Y-20179819D02*
X25143333Y-19179819D01*
X25143333Y-19179819D02*
X25524285Y-19179819D01*
X25524285Y-19179819D02*
X25619523Y-19227438D01*
X25619523Y-19227438D02*
X25667142Y-19275057D01*
X25667142Y-19275057D02*
X25714761Y-19370295D01*
X25714761Y-19370295D02*
X25714761Y-19513152D01*
X25714761Y-19513152D02*
X25667142Y-19608390D01*
X25667142Y-19608390D02*
X25619523Y-19656009D01*
X25619523Y-19656009D02*
X25524285Y-19703628D01*
X25524285Y-19703628D02*
X25143333Y-19703628D01*
X26000476Y-19179819D02*
X26333809Y-20179819D01*
X26333809Y-20179819D02*
X26667142Y-19179819D01*
X27524285Y-20179819D02*
X26952857Y-20179819D01*
X27238571Y-20179819D02*
X27238571Y-19179819D01*
X27238571Y-19179819D02*
X27143333Y-19322676D01*
X27143333Y-19322676D02*
X27048095Y-19417914D01*
X27048095Y-19417914D02*
X26952857Y-19465533D01*
X39421142Y-11259580D02*
X39373523Y-11307200D01*
X39373523Y-11307200D02*
X39230666Y-11354819D01*
X39230666Y-11354819D02*
X39135428Y-11354819D01*
X39135428Y-11354819D02*
X38992571Y-11307200D01*
X38992571Y-11307200D02*
X38897333Y-11211961D01*
X38897333Y-11211961D02*
X38849714Y-11116723D01*
X38849714Y-11116723D02*
X38802095Y-10926247D01*
X38802095Y-10926247D02*
X38802095Y-10783390D01*
X38802095Y-10783390D02*
X38849714Y-10592914D01*
X38849714Y-10592914D02*
X38897333Y-10497676D01*
X38897333Y-10497676D02*
X38992571Y-10402438D01*
X38992571Y-10402438D02*
X39135428Y-10354819D01*
X39135428Y-10354819D02*
X39230666Y-10354819D01*
X39230666Y-10354819D02*
X39373523Y-10402438D01*
X39373523Y-10402438D02*
X39421142Y-10450057D01*
X40373523Y-11354819D02*
X39802095Y-11354819D01*
X40087809Y-11354819D02*
X40087809Y-10354819D01*
X40087809Y-10354819D02*
X39992571Y-10497676D01*
X39992571Y-10497676D02*
X39897333Y-10592914D01*
X39897333Y-10592914D02*
X39802095Y-10640533D01*
X40992571Y-10354819D02*
X41087809Y-10354819D01*
X41087809Y-10354819D02*
X41183047Y-10402438D01*
X41183047Y-10402438D02*
X41230666Y-10450057D01*
X41230666Y-10450057D02*
X41278285Y-10545295D01*
X41278285Y-10545295D02*
X41325904Y-10735771D01*
X41325904Y-10735771D02*
X41325904Y-10973866D01*
X41325904Y-10973866D02*
X41278285Y-11164342D01*
X41278285Y-11164342D02*
X41230666Y-11259580D01*
X41230666Y-11259580D02*
X41183047Y-11307200D01*
X41183047Y-11307200D02*
X41087809Y-11354819D01*
X41087809Y-11354819D02*
X40992571Y-11354819D01*
X40992571Y-11354819D02*
X40897333Y-11307200D01*
X40897333Y-11307200D02*
X40849714Y-11259580D01*
X40849714Y-11259580D02*
X40802095Y-11164342D01*
X40802095Y-11164342D02*
X40754476Y-10973866D01*
X40754476Y-10973866D02*
X40754476Y-10735771D01*
X40754476Y-10735771D02*
X40802095Y-10545295D01*
X40802095Y-10545295D02*
X40849714Y-10450057D01*
X40849714Y-10450057D02*
X40897333Y-10402438D01*
X40897333Y-10402438D02*
X40992571Y-10354819D01*
X19073580Y-53476189D02*
X19121200Y-53428570D01*
X19121200Y-53428570D02*
X19168819Y-53476189D01*
X19168819Y-53476189D02*
X19121200Y-53523808D01*
X19121200Y-53523808D02*
X19073580Y-53476189D01*
X19073580Y-53476189D02*
X19168819Y-53476189D01*
X19168819Y-52428571D02*
X18692628Y-52761904D01*
X19168819Y-52999999D02*
X18168819Y-52999999D01*
X18168819Y-52999999D02*
X18168819Y-52619047D01*
X18168819Y-52619047D02*
X18216438Y-52523809D01*
X18216438Y-52523809D02*
X18264057Y-52476190D01*
X18264057Y-52476190D02*
X18359295Y-52428571D01*
X18359295Y-52428571D02*
X18502152Y-52428571D01*
X18502152Y-52428571D02*
X18597390Y-52476190D01*
X18597390Y-52476190D02*
X18645009Y-52523809D01*
X18645009Y-52523809D02*
X18692628Y-52619047D01*
X18692628Y-52619047D02*
X18692628Y-52999999D01*
X18264057Y-52047618D02*
X18216438Y-51999999D01*
X18216438Y-51999999D02*
X18168819Y-51904761D01*
X18168819Y-51904761D02*
X18168819Y-51666666D01*
X18168819Y-51666666D02*
X18216438Y-51571428D01*
X18216438Y-51571428D02*
X18264057Y-51523809D01*
X18264057Y-51523809D02*
X18359295Y-51476190D01*
X18359295Y-51476190D02*
X18454533Y-51476190D01*
X18454533Y-51476190D02*
X18597390Y-51523809D01*
X18597390Y-51523809D02*
X19168819Y-52095237D01*
X19168819Y-52095237D02*
X19168819Y-51476190D01*
X7709819Y-7246142D02*
X8424104Y-7246142D01*
X8424104Y-7246142D02*
X8566961Y-7293761D01*
X8566961Y-7293761D02*
X8662200Y-7388999D01*
X8662200Y-7388999D02*
X8709819Y-7531856D01*
X8709819Y-7531856D02*
X8709819Y-7627094D01*
X8709819Y-6769951D02*
X7709819Y-6769951D01*
X7709819Y-6769951D02*
X7709819Y-6388999D01*
X7709819Y-6388999D02*
X7757438Y-6293761D01*
X7757438Y-6293761D02*
X7805057Y-6246142D01*
X7805057Y-6246142D02*
X7900295Y-6198523D01*
X7900295Y-6198523D02*
X8043152Y-6198523D01*
X8043152Y-6198523D02*
X8138390Y-6246142D01*
X8138390Y-6246142D02*
X8186009Y-6293761D01*
X8186009Y-6293761D02*
X8233628Y-6388999D01*
X8233628Y-6388999D02*
X8233628Y-6769951D01*
X8709819Y-5198523D02*
X8233628Y-5531856D01*
X8709819Y-5769951D02*
X7709819Y-5769951D01*
X7709819Y-5769951D02*
X7709819Y-5388999D01*
X7709819Y-5388999D02*
X7757438Y-5293761D01*
X7757438Y-5293761D02*
X7805057Y-5246142D01*
X7805057Y-5246142D02*
X7900295Y-5198523D01*
X7900295Y-5198523D02*
X8043152Y-5198523D01*
X8043152Y-5198523D02*
X8138390Y-5246142D01*
X8138390Y-5246142D02*
X8186009Y-5293761D01*
X8186009Y-5293761D02*
X8233628Y-5388999D01*
X8233628Y-5388999D02*
X8233628Y-5769951D01*
X7709819Y-4579475D02*
X7709819Y-4388999D01*
X7709819Y-4388999D02*
X7757438Y-4293761D01*
X7757438Y-4293761D02*
X7852676Y-4198523D01*
X7852676Y-4198523D02*
X8043152Y-4150904D01*
X8043152Y-4150904D02*
X8376485Y-4150904D01*
X8376485Y-4150904D02*
X8566961Y-4198523D01*
X8566961Y-4198523D02*
X8662200Y-4293761D01*
X8662200Y-4293761D02*
X8709819Y-4388999D01*
X8709819Y-4388999D02*
X8709819Y-4579475D01*
X8709819Y-4579475D02*
X8662200Y-4674713D01*
X8662200Y-4674713D02*
X8566961Y-4769951D01*
X8566961Y-4769951D02*
X8376485Y-4817570D01*
X8376485Y-4817570D02*
X8043152Y-4817570D01*
X8043152Y-4817570D02*
X7852676Y-4769951D01*
X7852676Y-4769951D02*
X7757438Y-4674713D01*
X7757438Y-4674713D02*
X7709819Y-4579475D01*
X7757438Y-3198523D02*
X7709819Y-3293761D01*
X7709819Y-3293761D02*
X7709819Y-3436618D01*
X7709819Y-3436618D02*
X7757438Y-3579475D01*
X7757438Y-3579475D02*
X7852676Y-3674713D01*
X7852676Y-3674713D02*
X7947914Y-3722332D01*
X7947914Y-3722332D02*
X8138390Y-3769951D01*
X8138390Y-3769951D02*
X8281247Y-3769951D01*
X8281247Y-3769951D02*
X8471723Y-3722332D01*
X8471723Y-3722332D02*
X8566961Y-3674713D01*
X8566961Y-3674713D02*
X8662200Y-3579475D01*
X8662200Y-3579475D02*
X8709819Y-3436618D01*
X8709819Y-3436618D02*
X8709819Y-3341380D01*
X8709819Y-3341380D02*
X8662200Y-3198523D01*
X8662200Y-3198523D02*
X8614580Y-3150904D01*
X8614580Y-3150904D02*
X8281247Y-3150904D01*
X8281247Y-3150904D02*
X8281247Y-3341380D01*
X8709819Y-2198523D02*
X8709819Y-2769951D01*
X8709819Y-2484237D02*
X7709819Y-2484237D01*
X7709819Y-2484237D02*
X7852676Y-2579475D01*
X7852676Y-2579475D02*
X7947914Y-2674713D01*
X7947914Y-2674713D02*
X7995533Y-2769951D01*
X23325905Y-26304819D02*
X23325905Y-25304819D01*
X23325905Y-25304819D02*
X23564000Y-25304819D01*
X23564000Y-25304819D02*
X23706857Y-25352438D01*
X23706857Y-25352438D02*
X23802095Y-25447676D01*
X23802095Y-25447676D02*
X23849714Y-25542914D01*
X23849714Y-25542914D02*
X23897333Y-25733390D01*
X23897333Y-25733390D02*
X23897333Y-25876247D01*
X23897333Y-25876247D02*
X23849714Y-26066723D01*
X23849714Y-26066723D02*
X23802095Y-26161961D01*
X23802095Y-26161961D02*
X23706857Y-26257200D01*
X23706857Y-26257200D02*
X23564000Y-26304819D01*
X23564000Y-26304819D02*
X23325905Y-26304819D01*
X24849714Y-26304819D02*
X24278286Y-26304819D01*
X24564000Y-26304819D02*
X24564000Y-25304819D01*
X24564000Y-25304819D02*
X24468762Y-25447676D01*
X24468762Y-25447676D02*
X24373524Y-25542914D01*
X24373524Y-25542914D02*
X24278286Y-25590533D01*
D11*
X33553237Y-20924318D02*
X33553237Y-19654318D01*
X34883714Y-20803365D02*
X34823238Y-20863842D01*
X34823238Y-20863842D02*
X34641809Y-20924318D01*
X34641809Y-20924318D02*
X34520857Y-20924318D01*
X34520857Y-20924318D02*
X34339428Y-20863842D01*
X34339428Y-20863842D02*
X34218476Y-20742889D01*
X34218476Y-20742889D02*
X34157999Y-20621937D01*
X34157999Y-20621937D02*
X34097523Y-20380032D01*
X34097523Y-20380032D02*
X34097523Y-20198603D01*
X34097523Y-20198603D02*
X34157999Y-19956699D01*
X34157999Y-19956699D02*
X34218476Y-19835746D01*
X34218476Y-19835746D02*
X34339428Y-19714794D01*
X34339428Y-19714794D02*
X34520857Y-19654318D01*
X34520857Y-19654318D02*
X34641809Y-19654318D01*
X34641809Y-19654318D02*
X34823238Y-19714794D01*
X34823238Y-19714794D02*
X34883714Y-19775270D01*
X35367523Y-19775270D02*
X35427999Y-19714794D01*
X35427999Y-19714794D02*
X35548952Y-19654318D01*
X35548952Y-19654318D02*
X35851333Y-19654318D01*
X35851333Y-19654318D02*
X35972285Y-19714794D01*
X35972285Y-19714794D02*
X36032761Y-19775270D01*
X36032761Y-19775270D02*
X36093238Y-19896222D01*
X36093238Y-19896222D02*
X36093238Y-20017175D01*
X36093238Y-20017175D02*
X36032761Y-20198603D01*
X36032761Y-20198603D02*
X35307047Y-20924318D01*
X35307047Y-20924318D02*
X36093238Y-20924318D01*
D10*
X18297333Y-20954819D02*
X17964000Y-20478628D01*
X17725905Y-20954819D02*
X17725905Y-19954819D01*
X17725905Y-19954819D02*
X18106857Y-19954819D01*
X18106857Y-19954819D02*
X18202095Y-20002438D01*
X18202095Y-20002438D02*
X18249714Y-20050057D01*
X18249714Y-20050057D02*
X18297333Y-20145295D01*
X18297333Y-20145295D02*
X18297333Y-20288152D01*
X18297333Y-20288152D02*
X18249714Y-20383390D01*
X18249714Y-20383390D02*
X18202095Y-20431009D01*
X18202095Y-20431009D02*
X18106857Y-20478628D01*
X18106857Y-20478628D02*
X17725905Y-20478628D01*
X18678286Y-20050057D02*
X18725905Y-20002438D01*
X18725905Y-20002438D02*
X18821143Y-19954819D01*
X18821143Y-19954819D02*
X19059238Y-19954819D01*
X19059238Y-19954819D02*
X19154476Y-20002438D01*
X19154476Y-20002438D02*
X19202095Y-20050057D01*
X19202095Y-20050057D02*
X19249714Y-20145295D01*
X19249714Y-20145295D02*
X19249714Y-20240533D01*
X19249714Y-20240533D02*
X19202095Y-20383390D01*
X19202095Y-20383390D02*
X18630667Y-20954819D01*
X18630667Y-20954819D02*
X19249714Y-20954819D01*
X5897333Y-13359580D02*
X5849714Y-13407200D01*
X5849714Y-13407200D02*
X5706857Y-13454819D01*
X5706857Y-13454819D02*
X5611619Y-13454819D01*
X5611619Y-13454819D02*
X5468762Y-13407200D01*
X5468762Y-13407200D02*
X5373524Y-13311961D01*
X5373524Y-13311961D02*
X5325905Y-13216723D01*
X5325905Y-13216723D02*
X5278286Y-13026247D01*
X5278286Y-13026247D02*
X5278286Y-12883390D01*
X5278286Y-12883390D02*
X5325905Y-12692914D01*
X5325905Y-12692914D02*
X5373524Y-12597676D01*
X5373524Y-12597676D02*
X5468762Y-12502438D01*
X5468762Y-12502438D02*
X5611619Y-12454819D01*
X5611619Y-12454819D02*
X5706857Y-12454819D01*
X5706857Y-12454819D02*
X5849714Y-12502438D01*
X5849714Y-12502438D02*
X5897333Y-12550057D01*
X6230667Y-12454819D02*
X6897333Y-12454819D01*
X6897333Y-12454819D02*
X6468762Y-13454819D01*
X72475333Y-11559580D02*
X72427714Y-11607200D01*
X72427714Y-11607200D02*
X72284857Y-11654819D01*
X72284857Y-11654819D02*
X72189619Y-11654819D01*
X72189619Y-11654819D02*
X72046762Y-11607200D01*
X72046762Y-11607200D02*
X71951524Y-11511961D01*
X71951524Y-11511961D02*
X71903905Y-11416723D01*
X71903905Y-11416723D02*
X71856286Y-11226247D01*
X71856286Y-11226247D02*
X71856286Y-11083390D01*
X71856286Y-11083390D02*
X71903905Y-10892914D01*
X71903905Y-10892914D02*
X71951524Y-10797676D01*
X71951524Y-10797676D02*
X72046762Y-10702438D01*
X72046762Y-10702438D02*
X72189619Y-10654819D01*
X72189619Y-10654819D02*
X72284857Y-10654819D01*
X72284857Y-10654819D02*
X72427714Y-10702438D01*
X72427714Y-10702438D02*
X72475333Y-10750057D01*
X73380095Y-10654819D02*
X72903905Y-10654819D01*
X72903905Y-10654819D02*
X72856286Y-11131009D01*
X72856286Y-11131009D02*
X72903905Y-11083390D01*
X72903905Y-11083390D02*
X72999143Y-11035771D01*
X72999143Y-11035771D02*
X73237238Y-11035771D01*
X73237238Y-11035771D02*
X73332476Y-11083390D01*
X73332476Y-11083390D02*
X73380095Y-11131009D01*
X73380095Y-11131009D02*
X73427714Y-11226247D01*
X73427714Y-11226247D02*
X73427714Y-11464342D01*
X73427714Y-11464342D02*
X73380095Y-11559580D01*
X73380095Y-11559580D02*
X73332476Y-11607200D01*
X73332476Y-11607200D02*
X73237238Y-11654819D01*
X73237238Y-11654819D02*
X72999143Y-11654819D01*
X72999143Y-11654819D02*
X72903905Y-11607200D01*
X72903905Y-11607200D02*
X72856286Y-11559580D01*
X57025333Y-16147580D02*
X56977714Y-16195200D01*
X56977714Y-16195200D02*
X56834857Y-16242819D01*
X56834857Y-16242819D02*
X56739619Y-16242819D01*
X56739619Y-16242819D02*
X56596762Y-16195200D01*
X56596762Y-16195200D02*
X56501524Y-16099961D01*
X56501524Y-16099961D02*
X56453905Y-16004723D01*
X56453905Y-16004723D02*
X56406286Y-15814247D01*
X56406286Y-15814247D02*
X56406286Y-15671390D01*
X56406286Y-15671390D02*
X56453905Y-15480914D01*
X56453905Y-15480914D02*
X56501524Y-15385676D01*
X56501524Y-15385676D02*
X56596762Y-15290438D01*
X56596762Y-15290438D02*
X56739619Y-15242819D01*
X56739619Y-15242819D02*
X56834857Y-15242819D01*
X56834857Y-15242819D02*
X56977714Y-15290438D01*
X56977714Y-15290438D02*
X57025333Y-15338057D01*
X57596762Y-15671390D02*
X57501524Y-15623771D01*
X57501524Y-15623771D02*
X57453905Y-15576152D01*
X57453905Y-15576152D02*
X57406286Y-15480914D01*
X57406286Y-15480914D02*
X57406286Y-15433295D01*
X57406286Y-15433295D02*
X57453905Y-15338057D01*
X57453905Y-15338057D02*
X57501524Y-15290438D01*
X57501524Y-15290438D02*
X57596762Y-15242819D01*
X57596762Y-15242819D02*
X57787238Y-15242819D01*
X57787238Y-15242819D02*
X57882476Y-15290438D01*
X57882476Y-15290438D02*
X57930095Y-15338057D01*
X57930095Y-15338057D02*
X57977714Y-15433295D01*
X57977714Y-15433295D02*
X57977714Y-15480914D01*
X57977714Y-15480914D02*
X57930095Y-15576152D01*
X57930095Y-15576152D02*
X57882476Y-15623771D01*
X57882476Y-15623771D02*
X57787238Y-15671390D01*
X57787238Y-15671390D02*
X57596762Y-15671390D01*
X57596762Y-15671390D02*
X57501524Y-15719009D01*
X57501524Y-15719009D02*
X57453905Y-15766628D01*
X57453905Y-15766628D02*
X57406286Y-15861866D01*
X57406286Y-15861866D02*
X57406286Y-16052342D01*
X57406286Y-16052342D02*
X57453905Y-16147580D01*
X57453905Y-16147580D02*
X57501524Y-16195200D01*
X57501524Y-16195200D02*
X57596762Y-16242819D01*
X57596762Y-16242819D02*
X57787238Y-16242819D01*
X57787238Y-16242819D02*
X57882476Y-16195200D01*
X57882476Y-16195200D02*
X57930095Y-16147580D01*
X57930095Y-16147580D02*
X57977714Y-16052342D01*
X57977714Y-16052342D02*
X57977714Y-15861866D01*
X57977714Y-15861866D02*
X57930095Y-15766628D01*
X57930095Y-15766628D02*
X57882476Y-15719009D01*
X57882476Y-15719009D02*
X57787238Y-15671390D01*
X30297333Y-18647080D02*
X30249714Y-18694700D01*
X30249714Y-18694700D02*
X30106857Y-18742319D01*
X30106857Y-18742319D02*
X30011619Y-18742319D01*
X30011619Y-18742319D02*
X29868762Y-18694700D01*
X29868762Y-18694700D02*
X29773524Y-18599461D01*
X29773524Y-18599461D02*
X29725905Y-18504223D01*
X29725905Y-18504223D02*
X29678286Y-18313747D01*
X29678286Y-18313747D02*
X29678286Y-18170890D01*
X29678286Y-18170890D02*
X29725905Y-17980414D01*
X29725905Y-17980414D02*
X29773524Y-17885176D01*
X29773524Y-17885176D02*
X29868762Y-17789938D01*
X29868762Y-17789938D02*
X30011619Y-17742319D01*
X30011619Y-17742319D02*
X30106857Y-17742319D01*
X30106857Y-17742319D02*
X30249714Y-17789938D01*
X30249714Y-17789938D02*
X30297333Y-17837557D01*
X30630667Y-17742319D02*
X31249714Y-17742319D01*
X31249714Y-17742319D02*
X30916381Y-18123271D01*
X30916381Y-18123271D02*
X31059238Y-18123271D01*
X31059238Y-18123271D02*
X31154476Y-18170890D01*
X31154476Y-18170890D02*
X31202095Y-18218509D01*
X31202095Y-18218509D02*
X31249714Y-18313747D01*
X31249714Y-18313747D02*
X31249714Y-18551842D01*
X31249714Y-18551842D02*
X31202095Y-18647080D01*
X31202095Y-18647080D02*
X31154476Y-18694700D01*
X31154476Y-18694700D02*
X31059238Y-18742319D01*
X31059238Y-18742319D02*
X30773524Y-18742319D01*
X30773524Y-18742319D02*
X30678286Y-18694700D01*
X30678286Y-18694700D02*
X30630667Y-18647080D01*
X76842761Y-20179819D02*
X76509428Y-19703628D01*
X76271333Y-20179819D02*
X76271333Y-19179819D01*
X76271333Y-19179819D02*
X76652285Y-19179819D01*
X76652285Y-19179819D02*
X76747523Y-19227438D01*
X76747523Y-19227438D02*
X76795142Y-19275057D01*
X76795142Y-19275057D02*
X76842761Y-19370295D01*
X76842761Y-19370295D02*
X76842761Y-19513152D01*
X76842761Y-19513152D02*
X76795142Y-19608390D01*
X76795142Y-19608390D02*
X76747523Y-19656009D01*
X76747523Y-19656009D02*
X76652285Y-19703628D01*
X76652285Y-19703628D02*
X76271333Y-19703628D01*
X77128476Y-19179819D02*
X77461809Y-20179819D01*
X77461809Y-20179819D02*
X77795142Y-19179819D01*
X78652285Y-20179819D02*
X78080857Y-20179819D01*
X78366571Y-20179819D02*
X78366571Y-19179819D01*
X78366571Y-19179819D02*
X78271333Y-19322676D01*
X78271333Y-19322676D02*
X78176095Y-19417914D01*
X78176095Y-19417914D02*
X78080857Y-19465533D01*
X13206857Y-58159580D02*
X13254476Y-58207200D01*
X13254476Y-58207200D02*
X13206857Y-58254819D01*
X13206857Y-58254819D02*
X13159238Y-58207200D01*
X13159238Y-58207200D02*
X13206857Y-58159580D01*
X13206857Y-58159580D02*
X13206857Y-58254819D01*
X13968761Y-57254819D02*
X13968761Y-57969104D01*
X13968761Y-57969104D02*
X13921142Y-58111961D01*
X13921142Y-58111961D02*
X13825904Y-58207200D01*
X13825904Y-58207200D02*
X13683047Y-58254819D01*
X13683047Y-58254819D02*
X13587809Y-58254819D01*
X14397333Y-57350057D02*
X14444952Y-57302438D01*
X14444952Y-57302438D02*
X14540190Y-57254819D01*
X14540190Y-57254819D02*
X14778285Y-57254819D01*
X14778285Y-57254819D02*
X14873523Y-57302438D01*
X14873523Y-57302438D02*
X14921142Y-57350057D01*
X14921142Y-57350057D02*
X14968761Y-57445295D01*
X14968761Y-57445295D02*
X14968761Y-57540533D01*
X14968761Y-57540533D02*
X14921142Y-57683390D01*
X14921142Y-57683390D02*
X14349714Y-58254819D01*
X14349714Y-58254819D02*
X14968761Y-58254819D01*
D11*
X9119237Y-20924318D02*
X9119237Y-19654318D01*
X10449714Y-20803365D02*
X10389238Y-20863842D01*
X10389238Y-20863842D02*
X10207809Y-20924318D01*
X10207809Y-20924318D02*
X10086857Y-20924318D01*
X10086857Y-20924318D02*
X9905428Y-20863842D01*
X9905428Y-20863842D02*
X9784476Y-20742889D01*
X9784476Y-20742889D02*
X9723999Y-20621937D01*
X9723999Y-20621937D02*
X9663523Y-20380032D01*
X9663523Y-20380032D02*
X9663523Y-20198603D01*
X9663523Y-20198603D02*
X9723999Y-19956699D01*
X9723999Y-19956699D02*
X9784476Y-19835746D01*
X9784476Y-19835746D02*
X9905428Y-19714794D01*
X9905428Y-19714794D02*
X10086857Y-19654318D01*
X10086857Y-19654318D02*
X10207809Y-19654318D01*
X10207809Y-19654318D02*
X10389238Y-19714794D01*
X10389238Y-19714794D02*
X10449714Y-19775270D01*
X11659238Y-20924318D02*
X10933523Y-20924318D01*
X11296380Y-20924318D02*
X11296380Y-19654318D01*
X11296380Y-19654318D02*
X11175428Y-19835746D01*
X11175428Y-19835746D02*
X11054476Y-19956699D01*
X11054476Y-19956699D02*
X10933523Y-20017175D01*
D10*
X64334857Y-58159580D02*
X64382476Y-58207200D01*
X64382476Y-58207200D02*
X64334857Y-58254819D01*
X64334857Y-58254819D02*
X64287238Y-58207200D01*
X64287238Y-58207200D02*
X64334857Y-58159580D01*
X64334857Y-58159580D02*
X64334857Y-58254819D01*
X65096761Y-57254819D02*
X65096761Y-57969104D01*
X65096761Y-57969104D02*
X65049142Y-58111961D01*
X65049142Y-58111961D02*
X64953904Y-58207200D01*
X64953904Y-58207200D02*
X64811047Y-58254819D01*
X64811047Y-58254819D02*
X64715809Y-58254819D01*
X65525333Y-57350057D02*
X65572952Y-57302438D01*
X65572952Y-57302438D02*
X65668190Y-57254819D01*
X65668190Y-57254819D02*
X65906285Y-57254819D01*
X65906285Y-57254819D02*
X66001523Y-57302438D01*
X66001523Y-57302438D02*
X66049142Y-57350057D01*
X66049142Y-57350057D02*
X66096761Y-57445295D01*
X66096761Y-57445295D02*
X66096761Y-57540533D01*
X66096761Y-57540533D02*
X66049142Y-57683390D01*
X66049142Y-57683390D02*
X65477714Y-58254819D01*
X65477714Y-58254819D02*
X66096761Y-58254819D01*
X66425333Y-20954819D02*
X66092000Y-20478628D01*
X65853905Y-20954819D02*
X65853905Y-19954819D01*
X65853905Y-19954819D02*
X66234857Y-19954819D01*
X66234857Y-19954819D02*
X66330095Y-20002438D01*
X66330095Y-20002438D02*
X66377714Y-20050057D01*
X66377714Y-20050057D02*
X66425333Y-20145295D01*
X66425333Y-20145295D02*
X66425333Y-20288152D01*
X66425333Y-20288152D02*
X66377714Y-20383390D01*
X66377714Y-20383390D02*
X66330095Y-20431009D01*
X66330095Y-20431009D02*
X66234857Y-20478628D01*
X66234857Y-20478628D02*
X65853905Y-20478628D01*
X67377714Y-20954819D02*
X66806286Y-20954819D01*
X67092000Y-20954819D02*
X67092000Y-19954819D01*
X67092000Y-19954819D02*
X66996762Y-20097676D01*
X66996762Y-20097676D02*
X66901524Y-20192914D01*
X66901524Y-20192914D02*
X66806286Y-20240533D01*
X81425333Y-18647080D02*
X81377714Y-18694700D01*
X81377714Y-18694700D02*
X81234857Y-18742319D01*
X81234857Y-18742319D02*
X81139619Y-18742319D01*
X81139619Y-18742319D02*
X80996762Y-18694700D01*
X80996762Y-18694700D02*
X80901524Y-18599461D01*
X80901524Y-18599461D02*
X80853905Y-18504223D01*
X80853905Y-18504223D02*
X80806286Y-18313747D01*
X80806286Y-18313747D02*
X80806286Y-18170890D01*
X80806286Y-18170890D02*
X80853905Y-17980414D01*
X80853905Y-17980414D02*
X80901524Y-17885176D01*
X80901524Y-17885176D02*
X80996762Y-17789938D01*
X80996762Y-17789938D02*
X81139619Y-17742319D01*
X81139619Y-17742319D02*
X81234857Y-17742319D01*
X81234857Y-17742319D02*
X81377714Y-17789938D01*
X81377714Y-17789938D02*
X81425333Y-17837557D01*
X81758667Y-17742319D02*
X82377714Y-17742319D01*
X82377714Y-17742319D02*
X82044381Y-18123271D01*
X82044381Y-18123271D02*
X82187238Y-18123271D01*
X82187238Y-18123271D02*
X82282476Y-18170890D01*
X82282476Y-18170890D02*
X82330095Y-18218509D01*
X82330095Y-18218509D02*
X82377714Y-18313747D01*
X82377714Y-18313747D02*
X82377714Y-18551842D01*
X82377714Y-18551842D02*
X82330095Y-18647080D01*
X82330095Y-18647080D02*
X82282476Y-18694700D01*
X82282476Y-18694700D02*
X82187238Y-18742319D01*
X82187238Y-18742319D02*
X81901524Y-18742319D01*
X81901524Y-18742319D02*
X81806286Y-18694700D01*
X81806286Y-18694700D02*
X81758667Y-18647080D01*
X76107333Y-9820580D02*
X76059714Y-9868200D01*
X76059714Y-9868200D02*
X75916857Y-9915819D01*
X75916857Y-9915819D02*
X75821619Y-9915819D01*
X75821619Y-9915819D02*
X75678762Y-9868200D01*
X75678762Y-9868200D02*
X75583524Y-9772961D01*
X75583524Y-9772961D02*
X75535905Y-9677723D01*
X75535905Y-9677723D02*
X75488286Y-9487247D01*
X75488286Y-9487247D02*
X75488286Y-9344390D01*
X75488286Y-9344390D02*
X75535905Y-9153914D01*
X75535905Y-9153914D02*
X75583524Y-9058676D01*
X75583524Y-9058676D02*
X75678762Y-8963438D01*
X75678762Y-8963438D02*
X75821619Y-8915819D01*
X75821619Y-8915819D02*
X75916857Y-8915819D01*
X75916857Y-8915819D02*
X76059714Y-8963438D01*
X76059714Y-8963438D02*
X76107333Y-9011057D01*
X76964476Y-9249152D02*
X76964476Y-9915819D01*
X76726381Y-8868200D02*
X76488286Y-9582485D01*
X76488286Y-9582485D02*
X77107333Y-9582485D01*
X58837819Y-7246142D02*
X59552104Y-7246142D01*
X59552104Y-7246142D02*
X59694961Y-7293761D01*
X59694961Y-7293761D02*
X59790200Y-7388999D01*
X59790200Y-7388999D02*
X59837819Y-7531856D01*
X59837819Y-7531856D02*
X59837819Y-7627094D01*
X59837819Y-6769951D02*
X58837819Y-6769951D01*
X58837819Y-6769951D02*
X58837819Y-6388999D01*
X58837819Y-6388999D02*
X58885438Y-6293761D01*
X58885438Y-6293761D02*
X58933057Y-6246142D01*
X58933057Y-6246142D02*
X59028295Y-6198523D01*
X59028295Y-6198523D02*
X59171152Y-6198523D01*
X59171152Y-6198523D02*
X59266390Y-6246142D01*
X59266390Y-6246142D02*
X59314009Y-6293761D01*
X59314009Y-6293761D02*
X59361628Y-6388999D01*
X59361628Y-6388999D02*
X59361628Y-6769951D01*
X59837819Y-5198523D02*
X59361628Y-5531856D01*
X59837819Y-5769951D02*
X58837819Y-5769951D01*
X58837819Y-5769951D02*
X58837819Y-5388999D01*
X58837819Y-5388999D02*
X58885438Y-5293761D01*
X58885438Y-5293761D02*
X58933057Y-5246142D01*
X58933057Y-5246142D02*
X59028295Y-5198523D01*
X59028295Y-5198523D02*
X59171152Y-5198523D01*
X59171152Y-5198523D02*
X59266390Y-5246142D01*
X59266390Y-5246142D02*
X59314009Y-5293761D01*
X59314009Y-5293761D02*
X59361628Y-5388999D01*
X59361628Y-5388999D02*
X59361628Y-5769951D01*
X58837819Y-4579475D02*
X58837819Y-4388999D01*
X58837819Y-4388999D02*
X58885438Y-4293761D01*
X58885438Y-4293761D02*
X58980676Y-4198523D01*
X58980676Y-4198523D02*
X59171152Y-4150904D01*
X59171152Y-4150904D02*
X59504485Y-4150904D01*
X59504485Y-4150904D02*
X59694961Y-4198523D01*
X59694961Y-4198523D02*
X59790200Y-4293761D01*
X59790200Y-4293761D02*
X59837819Y-4388999D01*
X59837819Y-4388999D02*
X59837819Y-4579475D01*
X59837819Y-4579475D02*
X59790200Y-4674713D01*
X59790200Y-4674713D02*
X59694961Y-4769951D01*
X59694961Y-4769951D02*
X59504485Y-4817570D01*
X59504485Y-4817570D02*
X59171152Y-4817570D01*
X59171152Y-4817570D02*
X58980676Y-4769951D01*
X58980676Y-4769951D02*
X58885438Y-4674713D01*
X58885438Y-4674713D02*
X58837819Y-4579475D01*
X58885438Y-3198523D02*
X58837819Y-3293761D01*
X58837819Y-3293761D02*
X58837819Y-3436618D01*
X58837819Y-3436618D02*
X58885438Y-3579475D01*
X58885438Y-3579475D02*
X58980676Y-3674713D01*
X58980676Y-3674713D02*
X59075914Y-3722332D01*
X59075914Y-3722332D02*
X59266390Y-3769951D01*
X59266390Y-3769951D02*
X59409247Y-3769951D01*
X59409247Y-3769951D02*
X59599723Y-3722332D01*
X59599723Y-3722332D02*
X59694961Y-3674713D01*
X59694961Y-3674713D02*
X59790200Y-3579475D01*
X59790200Y-3579475D02*
X59837819Y-3436618D01*
X59837819Y-3436618D02*
X59837819Y-3341380D01*
X59837819Y-3341380D02*
X59790200Y-3198523D01*
X59790200Y-3198523D02*
X59742580Y-3150904D01*
X59742580Y-3150904D02*
X59409247Y-3150904D01*
X59409247Y-3150904D02*
X59409247Y-3341380D01*
X59837819Y-2198523D02*
X59837819Y-2769951D01*
X59837819Y-2484237D02*
X58837819Y-2484237D01*
X58837819Y-2484237D02*
X58980676Y-2579475D01*
X58980676Y-2579475D02*
X59075914Y-2674713D01*
X59075914Y-2674713D02*
X59123533Y-2769951D01*
X66425333Y-11559580D02*
X66377714Y-11607200D01*
X66377714Y-11607200D02*
X66234857Y-11654819D01*
X66234857Y-11654819D02*
X66139619Y-11654819D01*
X66139619Y-11654819D02*
X65996762Y-11607200D01*
X65996762Y-11607200D02*
X65901524Y-11511961D01*
X65901524Y-11511961D02*
X65853905Y-11416723D01*
X65853905Y-11416723D02*
X65806286Y-11226247D01*
X65806286Y-11226247D02*
X65806286Y-11083390D01*
X65806286Y-11083390D02*
X65853905Y-10892914D01*
X65853905Y-10892914D02*
X65901524Y-10797676D01*
X65901524Y-10797676D02*
X65996762Y-10702438D01*
X65996762Y-10702438D02*
X66139619Y-10654819D01*
X66139619Y-10654819D02*
X66234857Y-10654819D01*
X66234857Y-10654819D02*
X66377714Y-10702438D01*
X66377714Y-10702438D02*
X66425333Y-10750057D01*
X67377714Y-11654819D02*
X66806286Y-11654819D01*
X67092000Y-11654819D02*
X67092000Y-10654819D01*
X67092000Y-10654819D02*
X66996762Y-10797676D01*
X66996762Y-10797676D02*
X66901524Y-10892914D01*
X66901524Y-10892914D02*
X66806286Y-10940533D01*
X15297333Y-11559580D02*
X15249714Y-11607200D01*
X15249714Y-11607200D02*
X15106857Y-11654819D01*
X15106857Y-11654819D02*
X15011619Y-11654819D01*
X15011619Y-11654819D02*
X14868762Y-11607200D01*
X14868762Y-11607200D02*
X14773524Y-11511961D01*
X14773524Y-11511961D02*
X14725905Y-11416723D01*
X14725905Y-11416723D02*
X14678286Y-11226247D01*
X14678286Y-11226247D02*
X14678286Y-11083390D01*
X14678286Y-11083390D02*
X14725905Y-10892914D01*
X14725905Y-10892914D02*
X14773524Y-10797676D01*
X14773524Y-10797676D02*
X14868762Y-10702438D01*
X14868762Y-10702438D02*
X15011619Y-10654819D01*
X15011619Y-10654819D02*
X15106857Y-10654819D01*
X15106857Y-10654819D02*
X15249714Y-10702438D01*
X15249714Y-10702438D02*
X15297333Y-10750057D01*
X16249714Y-11654819D02*
X15678286Y-11654819D01*
X15964000Y-11654819D02*
X15964000Y-10654819D01*
X15964000Y-10654819D02*
X15868762Y-10797676D01*
X15868762Y-10797676D02*
X15773524Y-10892914D01*
X15773524Y-10892914D02*
X15678286Y-10940533D01*
X5897333Y-16147580D02*
X5849714Y-16195200D01*
X5849714Y-16195200D02*
X5706857Y-16242819D01*
X5706857Y-16242819D02*
X5611619Y-16242819D01*
X5611619Y-16242819D02*
X5468762Y-16195200D01*
X5468762Y-16195200D02*
X5373524Y-16099961D01*
X5373524Y-16099961D02*
X5325905Y-16004723D01*
X5325905Y-16004723D02*
X5278286Y-15814247D01*
X5278286Y-15814247D02*
X5278286Y-15671390D01*
X5278286Y-15671390D02*
X5325905Y-15480914D01*
X5325905Y-15480914D02*
X5373524Y-15385676D01*
X5373524Y-15385676D02*
X5468762Y-15290438D01*
X5468762Y-15290438D02*
X5611619Y-15242819D01*
X5611619Y-15242819D02*
X5706857Y-15242819D01*
X5706857Y-15242819D02*
X5849714Y-15290438D01*
X5849714Y-15290438D02*
X5897333Y-15338057D01*
X6468762Y-15671390D02*
X6373524Y-15623771D01*
X6373524Y-15623771D02*
X6325905Y-15576152D01*
X6325905Y-15576152D02*
X6278286Y-15480914D01*
X6278286Y-15480914D02*
X6278286Y-15433295D01*
X6278286Y-15433295D02*
X6325905Y-15338057D01*
X6325905Y-15338057D02*
X6373524Y-15290438D01*
X6373524Y-15290438D02*
X6468762Y-15242819D01*
X6468762Y-15242819D02*
X6659238Y-15242819D01*
X6659238Y-15242819D02*
X6754476Y-15290438D01*
X6754476Y-15290438D02*
X6802095Y-15338057D01*
X6802095Y-15338057D02*
X6849714Y-15433295D01*
X6849714Y-15433295D02*
X6849714Y-15480914D01*
X6849714Y-15480914D02*
X6802095Y-15576152D01*
X6802095Y-15576152D02*
X6754476Y-15623771D01*
X6754476Y-15623771D02*
X6659238Y-15671390D01*
X6659238Y-15671390D02*
X6468762Y-15671390D01*
X6468762Y-15671390D02*
X6373524Y-15719009D01*
X6373524Y-15719009D02*
X6325905Y-15766628D01*
X6325905Y-15766628D02*
X6278286Y-15861866D01*
X6278286Y-15861866D02*
X6278286Y-16052342D01*
X6278286Y-16052342D02*
X6325905Y-16147580D01*
X6325905Y-16147580D02*
X6373524Y-16195200D01*
X6373524Y-16195200D02*
X6468762Y-16242819D01*
X6468762Y-16242819D02*
X6659238Y-16242819D01*
X6659238Y-16242819D02*
X6754476Y-16195200D01*
X6754476Y-16195200D02*
X6802095Y-16147580D01*
X6802095Y-16147580D02*
X6849714Y-16052342D01*
X6849714Y-16052342D02*
X6849714Y-15861866D01*
X6849714Y-15861866D02*
X6802095Y-15766628D01*
X6802095Y-15766628D02*
X6754476Y-15719009D01*
X6754476Y-15719009D02*
X6659238Y-15671390D01*
X5897333Y-18747580D02*
X5849714Y-18795200D01*
X5849714Y-18795200D02*
X5706857Y-18842819D01*
X5706857Y-18842819D02*
X5611619Y-18842819D01*
X5611619Y-18842819D02*
X5468762Y-18795200D01*
X5468762Y-18795200D02*
X5373524Y-18699961D01*
X5373524Y-18699961D02*
X5325905Y-18604723D01*
X5325905Y-18604723D02*
X5278286Y-18414247D01*
X5278286Y-18414247D02*
X5278286Y-18271390D01*
X5278286Y-18271390D02*
X5325905Y-18080914D01*
X5325905Y-18080914D02*
X5373524Y-17985676D01*
X5373524Y-17985676D02*
X5468762Y-17890438D01*
X5468762Y-17890438D02*
X5611619Y-17842819D01*
X5611619Y-17842819D02*
X5706857Y-17842819D01*
X5706857Y-17842819D02*
X5849714Y-17890438D01*
X5849714Y-17890438D02*
X5897333Y-17938057D01*
X6373524Y-18842819D02*
X6564000Y-18842819D01*
X6564000Y-18842819D02*
X6659238Y-18795200D01*
X6659238Y-18795200D02*
X6706857Y-18747580D01*
X6706857Y-18747580D02*
X6802095Y-18604723D01*
X6802095Y-18604723D02*
X6849714Y-18414247D01*
X6849714Y-18414247D02*
X6849714Y-18033295D01*
X6849714Y-18033295D02*
X6802095Y-17938057D01*
X6802095Y-17938057D02*
X6754476Y-17890438D01*
X6754476Y-17890438D02*
X6659238Y-17842819D01*
X6659238Y-17842819D02*
X6468762Y-17842819D01*
X6468762Y-17842819D02*
X6373524Y-17890438D01*
X6373524Y-17890438D02*
X6325905Y-17938057D01*
X6325905Y-17938057D02*
X6278286Y-18033295D01*
X6278286Y-18033295D02*
X6278286Y-18271390D01*
X6278286Y-18271390D02*
X6325905Y-18366628D01*
X6325905Y-18366628D02*
X6373524Y-18414247D01*
X6373524Y-18414247D02*
X6468762Y-18461866D01*
X6468762Y-18461866D02*
X6659238Y-18461866D01*
X6659238Y-18461866D02*
X6754476Y-18414247D01*
X6754476Y-18414247D02*
X6802095Y-18366628D01*
X6802095Y-18366628D02*
X6849714Y-18271390D01*
X74215810Y-42389580D02*
X74263429Y-42437200D01*
X74263429Y-42437200D02*
X74215810Y-42484819D01*
X74215810Y-42484819D02*
X74168191Y-42437200D01*
X74168191Y-42437200D02*
X74215810Y-42389580D01*
X74215810Y-42389580D02*
X74215810Y-42484819D01*
X75263428Y-42484819D02*
X74930095Y-42008628D01*
X74692000Y-42484819D02*
X74692000Y-41484819D01*
X74692000Y-41484819D02*
X75072952Y-41484819D01*
X75072952Y-41484819D02*
X75168190Y-41532438D01*
X75168190Y-41532438D02*
X75215809Y-41580057D01*
X75215809Y-41580057D02*
X75263428Y-41675295D01*
X75263428Y-41675295D02*
X75263428Y-41818152D01*
X75263428Y-41818152D02*
X75215809Y-41913390D01*
X75215809Y-41913390D02*
X75168190Y-41961009D01*
X75168190Y-41961009D02*
X75072952Y-42008628D01*
X75072952Y-42008628D02*
X74692000Y-42008628D01*
X76215809Y-42484819D02*
X75644381Y-42484819D01*
X75930095Y-42484819D02*
X75930095Y-41484819D01*
X75930095Y-41484819D02*
X75834857Y-41627676D01*
X75834857Y-41627676D02*
X75739619Y-41722914D01*
X75739619Y-41722914D02*
X75644381Y-41770533D01*
X35710666Y-22554819D02*
X35710666Y-23269104D01*
X35710666Y-23269104D02*
X35663047Y-23411961D01*
X35663047Y-23411961D02*
X35567809Y-23507200D01*
X35567809Y-23507200D02*
X35424952Y-23554819D01*
X35424952Y-23554819D02*
X35329714Y-23554819D01*
X36710666Y-23554819D02*
X36139238Y-23554819D01*
X36424952Y-23554819D02*
X36424952Y-22554819D01*
X36424952Y-22554819D02*
X36329714Y-22697676D01*
X36329714Y-22697676D02*
X36234476Y-22792914D01*
X36234476Y-22792914D02*
X36139238Y-22840533D01*
X90549142Y-11259580D02*
X90501523Y-11307200D01*
X90501523Y-11307200D02*
X90358666Y-11354819D01*
X90358666Y-11354819D02*
X90263428Y-11354819D01*
X90263428Y-11354819D02*
X90120571Y-11307200D01*
X90120571Y-11307200D02*
X90025333Y-11211961D01*
X90025333Y-11211961D02*
X89977714Y-11116723D01*
X89977714Y-11116723D02*
X89930095Y-10926247D01*
X89930095Y-10926247D02*
X89930095Y-10783390D01*
X89930095Y-10783390D02*
X89977714Y-10592914D01*
X89977714Y-10592914D02*
X90025333Y-10497676D01*
X90025333Y-10497676D02*
X90120571Y-10402438D01*
X90120571Y-10402438D02*
X90263428Y-10354819D01*
X90263428Y-10354819D02*
X90358666Y-10354819D01*
X90358666Y-10354819D02*
X90501523Y-10402438D01*
X90501523Y-10402438D02*
X90549142Y-10450057D01*
X91501523Y-11354819D02*
X90930095Y-11354819D01*
X91215809Y-11354819D02*
X91215809Y-10354819D01*
X91215809Y-10354819D02*
X91120571Y-10497676D01*
X91120571Y-10497676D02*
X91025333Y-10592914D01*
X91025333Y-10592914D02*
X90930095Y-10640533D01*
X92120571Y-10354819D02*
X92215809Y-10354819D01*
X92215809Y-10354819D02*
X92311047Y-10402438D01*
X92311047Y-10402438D02*
X92358666Y-10450057D01*
X92358666Y-10450057D02*
X92406285Y-10545295D01*
X92406285Y-10545295D02*
X92453904Y-10735771D01*
X92453904Y-10735771D02*
X92453904Y-10973866D01*
X92453904Y-10973866D02*
X92406285Y-11164342D01*
X92406285Y-11164342D02*
X92358666Y-11259580D01*
X92358666Y-11259580D02*
X92311047Y-11307200D01*
X92311047Y-11307200D02*
X92215809Y-11354819D01*
X92215809Y-11354819D02*
X92120571Y-11354819D01*
X92120571Y-11354819D02*
X92025333Y-11307200D01*
X92025333Y-11307200D02*
X91977714Y-11259580D01*
X91977714Y-11259580D02*
X91930095Y-11164342D01*
X91930095Y-11164342D02*
X91882476Y-10973866D01*
X91882476Y-10973866D02*
X91882476Y-10735771D01*
X91882476Y-10735771D02*
X91930095Y-10545295D01*
X91930095Y-10545295D02*
X91977714Y-10450057D01*
X91977714Y-10450057D02*
X92025333Y-10402438D01*
X92025333Y-10402438D02*
X92120571Y-10354819D01*
X38911333Y-9820580D02*
X38863714Y-9868200D01*
X38863714Y-9868200D02*
X38720857Y-9915819D01*
X38720857Y-9915819D02*
X38625619Y-9915819D01*
X38625619Y-9915819D02*
X38482762Y-9868200D01*
X38482762Y-9868200D02*
X38387524Y-9772961D01*
X38387524Y-9772961D02*
X38339905Y-9677723D01*
X38339905Y-9677723D02*
X38292286Y-9487247D01*
X38292286Y-9487247D02*
X38292286Y-9344390D01*
X38292286Y-9344390D02*
X38339905Y-9153914D01*
X38339905Y-9153914D02*
X38387524Y-9058676D01*
X38387524Y-9058676D02*
X38482762Y-8963438D01*
X38482762Y-8963438D02*
X38625619Y-8915819D01*
X38625619Y-8915819D02*
X38720857Y-8915819D01*
X38720857Y-8915819D02*
X38863714Y-8963438D01*
X38863714Y-8963438D02*
X38911333Y-9011057D01*
X39768476Y-8915819D02*
X39578000Y-8915819D01*
X39578000Y-8915819D02*
X39482762Y-8963438D01*
X39482762Y-8963438D02*
X39435143Y-9011057D01*
X39435143Y-9011057D02*
X39339905Y-9153914D01*
X39339905Y-9153914D02*
X39292286Y-9344390D01*
X39292286Y-9344390D02*
X39292286Y-9725342D01*
X39292286Y-9725342D02*
X39339905Y-9820580D01*
X39339905Y-9820580D02*
X39387524Y-9868200D01*
X39387524Y-9868200D02*
X39482762Y-9915819D01*
X39482762Y-9915819D02*
X39673238Y-9915819D01*
X39673238Y-9915819D02*
X39768476Y-9868200D01*
X39768476Y-9868200D02*
X39816095Y-9820580D01*
X39816095Y-9820580D02*
X39863714Y-9725342D01*
X39863714Y-9725342D02*
X39863714Y-9487247D01*
X39863714Y-9487247D02*
X39816095Y-9392009D01*
X39816095Y-9392009D02*
X39768476Y-9344390D01*
X39768476Y-9344390D02*
X39673238Y-9296771D01*
X39673238Y-9296771D02*
X39482762Y-9296771D01*
X39482762Y-9296771D02*
X39387524Y-9344390D01*
X39387524Y-9344390D02*
X39339905Y-9392009D01*
X39339905Y-9392009D02*
X39292286Y-9487247D01*
X79511580Y-53496189D02*
X79559200Y-53448570D01*
X79559200Y-53448570D02*
X79606819Y-53496189D01*
X79606819Y-53496189D02*
X79559200Y-53543808D01*
X79559200Y-53543808D02*
X79511580Y-53496189D01*
X79511580Y-53496189D02*
X79606819Y-53496189D01*
X79606819Y-53019999D02*
X78606819Y-53019999D01*
X78606819Y-53019999D02*
X78606819Y-52781904D01*
X78606819Y-52781904D02*
X78654438Y-52639047D01*
X78654438Y-52639047D02*
X78749676Y-52543809D01*
X78749676Y-52543809D02*
X78844914Y-52496190D01*
X78844914Y-52496190D02*
X79035390Y-52448571D01*
X79035390Y-52448571D02*
X79178247Y-52448571D01*
X79178247Y-52448571D02*
X79368723Y-52496190D01*
X79368723Y-52496190D02*
X79463961Y-52543809D01*
X79463961Y-52543809D02*
X79559200Y-52639047D01*
X79559200Y-52639047D02*
X79606819Y-52781904D01*
X79606819Y-52781904D02*
X79606819Y-53019999D01*
X78702057Y-52067618D02*
X78654438Y-52019999D01*
X78654438Y-52019999D02*
X78606819Y-51924761D01*
X78606819Y-51924761D02*
X78606819Y-51686666D01*
X78606819Y-51686666D02*
X78654438Y-51591428D01*
X78654438Y-51591428D02*
X78702057Y-51543809D01*
X78702057Y-51543809D02*
X78797295Y-51496190D01*
X78797295Y-51496190D02*
X78892533Y-51496190D01*
X78892533Y-51496190D02*
X79035390Y-51543809D01*
X79035390Y-51543809D02*
X79606819Y-52115237D01*
X79606819Y-52115237D02*
X79606819Y-51496190D01*
X74453905Y-26304819D02*
X74453905Y-25304819D01*
X74453905Y-25304819D02*
X74692000Y-25304819D01*
X74692000Y-25304819D02*
X74834857Y-25352438D01*
X74834857Y-25352438D02*
X74930095Y-25447676D01*
X74930095Y-25447676D02*
X74977714Y-25542914D01*
X74977714Y-25542914D02*
X75025333Y-25733390D01*
X75025333Y-25733390D02*
X75025333Y-25876247D01*
X75025333Y-25876247D02*
X74977714Y-26066723D01*
X74977714Y-26066723D02*
X74930095Y-26161961D01*
X74930095Y-26161961D02*
X74834857Y-26257200D01*
X74834857Y-26257200D02*
X74692000Y-26304819D01*
X74692000Y-26304819D02*
X74453905Y-26304819D01*
X75977714Y-26304819D02*
X75406286Y-26304819D01*
X75692000Y-26304819D02*
X75692000Y-25304819D01*
X75692000Y-25304819D02*
X75596762Y-25447676D01*
X75596762Y-25447676D02*
X75501524Y-25542914D01*
X75501524Y-25542914D02*
X75406286Y-25590533D01*
X57025333Y-18747580D02*
X56977714Y-18795200D01*
X56977714Y-18795200D02*
X56834857Y-18842819D01*
X56834857Y-18842819D02*
X56739619Y-18842819D01*
X56739619Y-18842819D02*
X56596762Y-18795200D01*
X56596762Y-18795200D02*
X56501524Y-18699961D01*
X56501524Y-18699961D02*
X56453905Y-18604723D01*
X56453905Y-18604723D02*
X56406286Y-18414247D01*
X56406286Y-18414247D02*
X56406286Y-18271390D01*
X56406286Y-18271390D02*
X56453905Y-18080914D01*
X56453905Y-18080914D02*
X56501524Y-17985676D01*
X56501524Y-17985676D02*
X56596762Y-17890438D01*
X56596762Y-17890438D02*
X56739619Y-17842819D01*
X56739619Y-17842819D02*
X56834857Y-17842819D01*
X56834857Y-17842819D02*
X56977714Y-17890438D01*
X56977714Y-17890438D02*
X57025333Y-17938057D01*
X57501524Y-18842819D02*
X57692000Y-18842819D01*
X57692000Y-18842819D02*
X57787238Y-18795200D01*
X57787238Y-18795200D02*
X57834857Y-18747580D01*
X57834857Y-18747580D02*
X57930095Y-18604723D01*
X57930095Y-18604723D02*
X57977714Y-18414247D01*
X57977714Y-18414247D02*
X57977714Y-18033295D01*
X57977714Y-18033295D02*
X57930095Y-17938057D01*
X57930095Y-17938057D02*
X57882476Y-17890438D01*
X57882476Y-17890438D02*
X57787238Y-17842819D01*
X57787238Y-17842819D02*
X57596762Y-17842819D01*
X57596762Y-17842819D02*
X57501524Y-17890438D01*
X57501524Y-17890438D02*
X57453905Y-17938057D01*
X57453905Y-17938057D02*
X57406286Y-18033295D01*
X57406286Y-18033295D02*
X57406286Y-18271390D01*
X57406286Y-18271390D02*
X57453905Y-18366628D01*
X57453905Y-18366628D02*
X57501524Y-18414247D01*
X57501524Y-18414247D02*
X57596762Y-18461866D01*
X57596762Y-18461866D02*
X57787238Y-18461866D01*
X57787238Y-18461866D02*
X57882476Y-18414247D01*
X57882476Y-18414247D02*
X57930095Y-18366628D01*
X57930095Y-18366628D02*
X57977714Y-18271390D01*
X69425333Y-20954819D02*
X69092000Y-20478628D01*
X68853905Y-20954819D02*
X68853905Y-19954819D01*
X68853905Y-19954819D02*
X69234857Y-19954819D01*
X69234857Y-19954819D02*
X69330095Y-20002438D01*
X69330095Y-20002438D02*
X69377714Y-20050057D01*
X69377714Y-20050057D02*
X69425333Y-20145295D01*
X69425333Y-20145295D02*
X69425333Y-20288152D01*
X69425333Y-20288152D02*
X69377714Y-20383390D01*
X69377714Y-20383390D02*
X69330095Y-20431009D01*
X69330095Y-20431009D02*
X69234857Y-20478628D01*
X69234857Y-20478628D02*
X68853905Y-20478628D01*
X69806286Y-20050057D02*
X69853905Y-20002438D01*
X69853905Y-20002438D02*
X69949143Y-19954819D01*
X69949143Y-19954819D02*
X70187238Y-19954819D01*
X70187238Y-19954819D02*
X70282476Y-20002438D01*
X70282476Y-20002438D02*
X70330095Y-20050057D01*
X70330095Y-20050057D02*
X70377714Y-20145295D01*
X70377714Y-20145295D02*
X70377714Y-20240533D01*
X70377714Y-20240533D02*
X70330095Y-20383390D01*
X70330095Y-20383390D02*
X69758667Y-20954819D01*
X69758667Y-20954819D02*
X70377714Y-20954819D01*
X93982476Y-19704819D02*
X93982476Y-20419104D01*
X93982476Y-20419104D02*
X93934857Y-20561961D01*
X93934857Y-20561961D02*
X93839619Y-20657200D01*
X93839619Y-20657200D02*
X93696762Y-20704819D01*
X93696762Y-20704819D02*
X93601524Y-20704819D01*
X94411048Y-20657200D02*
X94553905Y-20704819D01*
X94553905Y-20704819D02*
X94792000Y-20704819D01*
X94792000Y-20704819D02*
X94887238Y-20657200D01*
X94887238Y-20657200D02*
X94934857Y-20609580D01*
X94934857Y-20609580D02*
X94982476Y-20514342D01*
X94982476Y-20514342D02*
X94982476Y-20419104D01*
X94982476Y-20419104D02*
X94934857Y-20323866D01*
X94934857Y-20323866D02*
X94887238Y-20276247D01*
X94887238Y-20276247D02*
X94792000Y-20228628D01*
X94792000Y-20228628D02*
X94601524Y-20181009D01*
X94601524Y-20181009D02*
X94506286Y-20133390D01*
X94506286Y-20133390D02*
X94458667Y-20085771D01*
X94458667Y-20085771D02*
X94411048Y-19990533D01*
X94411048Y-19990533D02*
X94411048Y-19895295D01*
X94411048Y-19895295D02*
X94458667Y-19800057D01*
X94458667Y-19800057D02*
X94506286Y-19752438D01*
X94506286Y-19752438D02*
X94601524Y-19704819D01*
X94601524Y-19704819D02*
X94839619Y-19704819D01*
X94839619Y-19704819D02*
X94982476Y-19752438D01*
X95411048Y-20704819D02*
X95411048Y-19704819D01*
X95411048Y-19704819D02*
X95792000Y-19704819D01*
X95792000Y-19704819D02*
X95887238Y-19752438D01*
X95887238Y-19752438D02*
X95934857Y-19800057D01*
X95934857Y-19800057D02*
X95982476Y-19895295D01*
X95982476Y-19895295D02*
X95982476Y-20038152D01*
X95982476Y-20038152D02*
X95934857Y-20133390D01*
X95934857Y-20133390D02*
X95887238Y-20181009D01*
X95887238Y-20181009D02*
X95792000Y-20228628D01*
X95792000Y-20228628D02*
X95411048Y-20228628D01*
X96411048Y-20704819D02*
X96411048Y-19704819D01*
X96982476Y-20704819D02*
X96553905Y-20133390D01*
X96982476Y-19704819D02*
X96411048Y-20276247D01*
X97934857Y-20704819D02*
X97363429Y-20704819D01*
X97649143Y-20704819D02*
X97649143Y-19704819D01*
X97649143Y-19704819D02*
X97553905Y-19847676D01*
X97553905Y-19847676D02*
X97458667Y-19942914D01*
X97458667Y-19942914D02*
X97363429Y-19990533D01*
D11*
X84681237Y-20924318D02*
X84681237Y-19654318D01*
X86011714Y-20803365D02*
X85951238Y-20863842D01*
X85951238Y-20863842D02*
X85769809Y-20924318D01*
X85769809Y-20924318D02*
X85648857Y-20924318D01*
X85648857Y-20924318D02*
X85467428Y-20863842D01*
X85467428Y-20863842D02*
X85346476Y-20742889D01*
X85346476Y-20742889D02*
X85285999Y-20621937D01*
X85285999Y-20621937D02*
X85225523Y-20380032D01*
X85225523Y-20380032D02*
X85225523Y-20198603D01*
X85225523Y-20198603D02*
X85285999Y-19956699D01*
X85285999Y-19956699D02*
X85346476Y-19835746D01*
X85346476Y-19835746D02*
X85467428Y-19714794D01*
X85467428Y-19714794D02*
X85648857Y-19654318D01*
X85648857Y-19654318D02*
X85769809Y-19654318D01*
X85769809Y-19654318D02*
X85951238Y-19714794D01*
X85951238Y-19714794D02*
X86011714Y-19775270D01*
X86495523Y-19775270D02*
X86555999Y-19714794D01*
X86555999Y-19714794D02*
X86676952Y-19654318D01*
X86676952Y-19654318D02*
X86979333Y-19654318D01*
X86979333Y-19654318D02*
X87100285Y-19714794D01*
X87100285Y-19714794D02*
X87160761Y-19775270D01*
X87160761Y-19775270D02*
X87221238Y-19896222D01*
X87221238Y-19896222D02*
X87221238Y-20017175D01*
X87221238Y-20017175D02*
X87160761Y-20198603D01*
X87160761Y-20198603D02*
X86435047Y-20924318D01*
X86435047Y-20924318D02*
X87221238Y-20924318D01*
D10*
X21347333Y-11559580D02*
X21299714Y-11607200D01*
X21299714Y-11607200D02*
X21156857Y-11654819D01*
X21156857Y-11654819D02*
X21061619Y-11654819D01*
X21061619Y-11654819D02*
X20918762Y-11607200D01*
X20918762Y-11607200D02*
X20823524Y-11511961D01*
X20823524Y-11511961D02*
X20775905Y-11416723D01*
X20775905Y-11416723D02*
X20728286Y-11226247D01*
X20728286Y-11226247D02*
X20728286Y-11083390D01*
X20728286Y-11083390D02*
X20775905Y-10892914D01*
X20775905Y-10892914D02*
X20823524Y-10797676D01*
X20823524Y-10797676D02*
X20918762Y-10702438D01*
X20918762Y-10702438D02*
X21061619Y-10654819D01*
X21061619Y-10654819D02*
X21156857Y-10654819D01*
X21156857Y-10654819D02*
X21299714Y-10702438D01*
X21299714Y-10702438D02*
X21347333Y-10750057D01*
X22252095Y-10654819D02*
X21775905Y-10654819D01*
X21775905Y-10654819D02*
X21728286Y-11131009D01*
X21728286Y-11131009D02*
X21775905Y-11083390D01*
X21775905Y-11083390D02*
X21871143Y-11035771D01*
X21871143Y-11035771D02*
X22109238Y-11035771D01*
X22109238Y-11035771D02*
X22204476Y-11083390D01*
X22204476Y-11083390D02*
X22252095Y-11131009D01*
X22252095Y-11131009D02*
X22299714Y-11226247D01*
X22299714Y-11226247D02*
X22299714Y-11464342D01*
X22299714Y-11464342D02*
X22252095Y-11559580D01*
X22252095Y-11559580D02*
X22204476Y-11607200D01*
X22204476Y-11607200D02*
X22109238Y-11654819D01*
X22109238Y-11654819D02*
X21871143Y-11654819D01*
X21871143Y-11654819D02*
X21775905Y-11607200D01*
X21775905Y-11607200D02*
X21728286Y-11559580D01*
X90039333Y-9820580D02*
X89991714Y-9868200D01*
X89991714Y-9868200D02*
X89848857Y-9915819D01*
X89848857Y-9915819D02*
X89753619Y-9915819D01*
X89753619Y-9915819D02*
X89610762Y-9868200D01*
X89610762Y-9868200D02*
X89515524Y-9772961D01*
X89515524Y-9772961D02*
X89467905Y-9677723D01*
X89467905Y-9677723D02*
X89420286Y-9487247D01*
X89420286Y-9487247D02*
X89420286Y-9344390D01*
X89420286Y-9344390D02*
X89467905Y-9153914D01*
X89467905Y-9153914D02*
X89515524Y-9058676D01*
X89515524Y-9058676D02*
X89610762Y-8963438D01*
X89610762Y-8963438D02*
X89753619Y-8915819D01*
X89753619Y-8915819D02*
X89848857Y-8915819D01*
X89848857Y-8915819D02*
X89991714Y-8963438D01*
X89991714Y-8963438D02*
X90039333Y-9011057D01*
X90896476Y-8915819D02*
X90706000Y-8915819D01*
X90706000Y-8915819D02*
X90610762Y-8963438D01*
X90610762Y-8963438D02*
X90563143Y-9011057D01*
X90563143Y-9011057D02*
X90467905Y-9153914D01*
X90467905Y-9153914D02*
X90420286Y-9344390D01*
X90420286Y-9344390D02*
X90420286Y-9725342D01*
X90420286Y-9725342D02*
X90467905Y-9820580D01*
X90467905Y-9820580D02*
X90515524Y-9868200D01*
X90515524Y-9868200D02*
X90610762Y-9915819D01*
X90610762Y-9915819D02*
X90801238Y-9915819D01*
X90801238Y-9915819D02*
X90896476Y-9868200D01*
X90896476Y-9868200D02*
X90944095Y-9820580D01*
X90944095Y-9820580D02*
X90991714Y-9725342D01*
X90991714Y-9725342D02*
X90991714Y-9487247D01*
X90991714Y-9487247D02*
X90944095Y-9392009D01*
X90944095Y-9392009D02*
X90896476Y-9344390D01*
X90896476Y-9344390D02*
X90801238Y-9296771D01*
X90801238Y-9296771D02*
X90610762Y-9296771D01*
X90610762Y-9296771D02*
X90515524Y-9344390D01*
X90515524Y-9344390D02*
X90467905Y-9392009D01*
X90467905Y-9392009D02*
X90420286Y-9487247D01*
X23087810Y-42389580D02*
X23135429Y-42437200D01*
X23135429Y-42437200D02*
X23087810Y-42484819D01*
X23087810Y-42484819D02*
X23040191Y-42437200D01*
X23040191Y-42437200D02*
X23087810Y-42389580D01*
X23087810Y-42389580D02*
X23087810Y-42484819D01*
X24135428Y-42484819D02*
X23802095Y-42008628D01*
X23564000Y-42484819D02*
X23564000Y-41484819D01*
X23564000Y-41484819D02*
X23944952Y-41484819D01*
X23944952Y-41484819D02*
X24040190Y-41532438D01*
X24040190Y-41532438D02*
X24087809Y-41580057D01*
X24087809Y-41580057D02*
X24135428Y-41675295D01*
X24135428Y-41675295D02*
X24135428Y-41818152D01*
X24135428Y-41818152D02*
X24087809Y-41913390D01*
X24087809Y-41913390D02*
X24040190Y-41961009D01*
X24040190Y-41961009D02*
X23944952Y-42008628D01*
X23944952Y-42008628D02*
X23564000Y-42008628D01*
X25087809Y-42484819D02*
X24516381Y-42484819D01*
X24802095Y-42484819D02*
X24802095Y-41484819D01*
X24802095Y-41484819D02*
X24706857Y-41627676D01*
X24706857Y-41627676D02*
X24611619Y-41722914D01*
X24611619Y-41722914D02*
X24516381Y-41770533D01*
X42854476Y-19704819D02*
X42854476Y-20419104D01*
X42854476Y-20419104D02*
X42806857Y-20561961D01*
X42806857Y-20561961D02*
X42711619Y-20657200D01*
X42711619Y-20657200D02*
X42568762Y-20704819D01*
X42568762Y-20704819D02*
X42473524Y-20704819D01*
X43283048Y-20657200D02*
X43425905Y-20704819D01*
X43425905Y-20704819D02*
X43664000Y-20704819D01*
X43664000Y-20704819D02*
X43759238Y-20657200D01*
X43759238Y-20657200D02*
X43806857Y-20609580D01*
X43806857Y-20609580D02*
X43854476Y-20514342D01*
X43854476Y-20514342D02*
X43854476Y-20419104D01*
X43854476Y-20419104D02*
X43806857Y-20323866D01*
X43806857Y-20323866D02*
X43759238Y-20276247D01*
X43759238Y-20276247D02*
X43664000Y-20228628D01*
X43664000Y-20228628D02*
X43473524Y-20181009D01*
X43473524Y-20181009D02*
X43378286Y-20133390D01*
X43378286Y-20133390D02*
X43330667Y-20085771D01*
X43330667Y-20085771D02*
X43283048Y-19990533D01*
X43283048Y-19990533D02*
X43283048Y-19895295D01*
X43283048Y-19895295D02*
X43330667Y-19800057D01*
X43330667Y-19800057D02*
X43378286Y-19752438D01*
X43378286Y-19752438D02*
X43473524Y-19704819D01*
X43473524Y-19704819D02*
X43711619Y-19704819D01*
X43711619Y-19704819D02*
X43854476Y-19752438D01*
X44283048Y-20704819D02*
X44283048Y-19704819D01*
X44283048Y-19704819D02*
X44664000Y-19704819D01*
X44664000Y-19704819D02*
X44759238Y-19752438D01*
X44759238Y-19752438D02*
X44806857Y-19800057D01*
X44806857Y-19800057D02*
X44854476Y-19895295D01*
X44854476Y-19895295D02*
X44854476Y-20038152D01*
X44854476Y-20038152D02*
X44806857Y-20133390D01*
X44806857Y-20133390D02*
X44759238Y-20181009D01*
X44759238Y-20181009D02*
X44664000Y-20228628D01*
X44664000Y-20228628D02*
X44283048Y-20228628D01*
X45283048Y-20704819D02*
X45283048Y-19704819D01*
X45854476Y-20704819D02*
X45425905Y-20133390D01*
X45854476Y-19704819D02*
X45283048Y-20276247D01*
X46806857Y-20704819D02*
X46235429Y-20704819D01*
X46521143Y-20704819D02*
X46521143Y-19704819D01*
X46521143Y-19704819D02*
X46425905Y-19847676D01*
X46425905Y-19847676D02*
X46330667Y-19942914D01*
X46330667Y-19942914D02*
X46235429Y-19990533D01*
X70201580Y-53476189D02*
X70249200Y-53428570D01*
X70249200Y-53428570D02*
X70296819Y-53476189D01*
X70296819Y-53476189D02*
X70249200Y-53523808D01*
X70249200Y-53523808D02*
X70201580Y-53476189D01*
X70201580Y-53476189D02*
X70296819Y-53476189D01*
X70296819Y-52428571D02*
X69820628Y-52761904D01*
X70296819Y-52999999D02*
X69296819Y-52999999D01*
X69296819Y-52999999D02*
X69296819Y-52619047D01*
X69296819Y-52619047D02*
X69344438Y-52523809D01*
X69344438Y-52523809D02*
X69392057Y-52476190D01*
X69392057Y-52476190D02*
X69487295Y-52428571D01*
X69487295Y-52428571D02*
X69630152Y-52428571D01*
X69630152Y-52428571D02*
X69725390Y-52476190D01*
X69725390Y-52476190D02*
X69773009Y-52523809D01*
X69773009Y-52523809D02*
X69820628Y-52619047D01*
X69820628Y-52619047D02*
X69820628Y-52999999D01*
X69392057Y-52047618D02*
X69344438Y-51999999D01*
X69344438Y-51999999D02*
X69296819Y-51904761D01*
X69296819Y-51904761D02*
X69296819Y-51666666D01*
X69296819Y-51666666D02*
X69344438Y-51571428D01*
X69344438Y-51571428D02*
X69392057Y-51523809D01*
X69392057Y-51523809D02*
X69487295Y-51476190D01*
X69487295Y-51476190D02*
X69582533Y-51476190D01*
X69582533Y-51476190D02*
X69725390Y-51523809D01*
X69725390Y-51523809D02*
X70296819Y-52095237D01*
X70296819Y-52095237D02*
X70296819Y-51476190D01*
X86838666Y-22554819D02*
X86838666Y-23269104D01*
X86838666Y-23269104D02*
X86791047Y-23411961D01*
X86791047Y-23411961D02*
X86695809Y-23507200D01*
X86695809Y-23507200D02*
X86552952Y-23554819D01*
X86552952Y-23554819D02*
X86457714Y-23554819D01*
X87838666Y-23554819D02*
X87267238Y-23554819D01*
X87552952Y-23554819D02*
X87552952Y-22554819D01*
X87552952Y-22554819D02*
X87457714Y-22697676D01*
X87457714Y-22697676D02*
X87362476Y-22792914D01*
X87362476Y-22792914D02*
X87267238Y-22840533D01*
X69425333Y-11559580D02*
X69377714Y-11607200D01*
X69377714Y-11607200D02*
X69234857Y-11654819D01*
X69234857Y-11654819D02*
X69139619Y-11654819D01*
X69139619Y-11654819D02*
X68996762Y-11607200D01*
X68996762Y-11607200D02*
X68901524Y-11511961D01*
X68901524Y-11511961D02*
X68853905Y-11416723D01*
X68853905Y-11416723D02*
X68806286Y-11226247D01*
X68806286Y-11226247D02*
X68806286Y-11083390D01*
X68806286Y-11083390D02*
X68853905Y-10892914D01*
X68853905Y-10892914D02*
X68901524Y-10797676D01*
X68901524Y-10797676D02*
X68996762Y-10702438D01*
X68996762Y-10702438D02*
X69139619Y-10654819D01*
X69139619Y-10654819D02*
X69234857Y-10654819D01*
X69234857Y-10654819D02*
X69377714Y-10702438D01*
X69377714Y-10702438D02*
X69425333Y-10750057D01*
X69806286Y-10750057D02*
X69853905Y-10702438D01*
X69853905Y-10702438D02*
X69949143Y-10654819D01*
X69949143Y-10654819D02*
X70187238Y-10654819D01*
X70187238Y-10654819D02*
X70282476Y-10702438D01*
X70282476Y-10702438D02*
X70330095Y-10750057D01*
X70330095Y-10750057D02*
X70377714Y-10845295D01*
X70377714Y-10845295D02*
X70377714Y-10940533D01*
X70377714Y-10940533D02*
X70330095Y-11083390D01*
X70330095Y-11083390D02*
X69758667Y-11654819D01*
X69758667Y-11654819D02*
X70377714Y-11654819D01*
X39897333Y-21054819D02*
X39564000Y-20578628D01*
X39325905Y-21054819D02*
X39325905Y-20054819D01*
X39325905Y-20054819D02*
X39706857Y-20054819D01*
X39706857Y-20054819D02*
X39802095Y-20102438D01*
X39802095Y-20102438D02*
X39849714Y-20150057D01*
X39849714Y-20150057D02*
X39897333Y-20245295D01*
X39897333Y-20245295D02*
X39897333Y-20388152D01*
X39897333Y-20388152D02*
X39849714Y-20483390D01*
X39849714Y-20483390D02*
X39802095Y-20531009D01*
X39802095Y-20531009D02*
X39706857Y-20578628D01*
X39706857Y-20578628D02*
X39325905Y-20578628D01*
X40230667Y-20054819D02*
X40849714Y-20054819D01*
X40849714Y-20054819D02*
X40516381Y-20435771D01*
X40516381Y-20435771D02*
X40659238Y-20435771D01*
X40659238Y-20435771D02*
X40754476Y-20483390D01*
X40754476Y-20483390D02*
X40802095Y-20531009D01*
X40802095Y-20531009D02*
X40849714Y-20626247D01*
X40849714Y-20626247D02*
X40849714Y-20864342D01*
X40849714Y-20864342D02*
X40802095Y-20959580D01*
X40802095Y-20959580D02*
X40754476Y-21007200D01*
X40754476Y-21007200D02*
X40659238Y-21054819D01*
X40659238Y-21054819D02*
X40373524Y-21054819D01*
X40373524Y-21054819D02*
X40278286Y-21007200D01*
X40278286Y-21007200D02*
X40230667Y-20959580D01*
X91025333Y-21054819D02*
X90692000Y-20578628D01*
X90453905Y-21054819D02*
X90453905Y-20054819D01*
X90453905Y-20054819D02*
X90834857Y-20054819D01*
X90834857Y-20054819D02*
X90930095Y-20102438D01*
X90930095Y-20102438D02*
X90977714Y-20150057D01*
X90977714Y-20150057D02*
X91025333Y-20245295D01*
X91025333Y-20245295D02*
X91025333Y-20388152D01*
X91025333Y-20388152D02*
X90977714Y-20483390D01*
X90977714Y-20483390D02*
X90930095Y-20531009D01*
X90930095Y-20531009D02*
X90834857Y-20578628D01*
X90834857Y-20578628D02*
X90453905Y-20578628D01*
X91358667Y-20054819D02*
X91977714Y-20054819D01*
X91977714Y-20054819D02*
X91644381Y-20435771D01*
X91644381Y-20435771D02*
X91787238Y-20435771D01*
X91787238Y-20435771D02*
X91882476Y-20483390D01*
X91882476Y-20483390D02*
X91930095Y-20531009D01*
X91930095Y-20531009D02*
X91977714Y-20626247D01*
X91977714Y-20626247D02*
X91977714Y-20864342D01*
X91977714Y-20864342D02*
X91930095Y-20959580D01*
X91930095Y-20959580D02*
X91882476Y-21007200D01*
X91882476Y-21007200D02*
X91787238Y-21054819D01*
X91787238Y-21054819D02*
X91501524Y-21054819D01*
X91501524Y-21054819D02*
X91406286Y-21007200D01*
X91406286Y-21007200D02*
X91358667Y-20959580D01*
X7707333Y-10931819D02*
X7374000Y-10455628D01*
X7135905Y-10931819D02*
X7135905Y-9931819D01*
X7135905Y-9931819D02*
X7516857Y-9931819D01*
X7516857Y-9931819D02*
X7612095Y-9979438D01*
X7612095Y-9979438D02*
X7659714Y-10027057D01*
X7659714Y-10027057D02*
X7707333Y-10122295D01*
X7707333Y-10122295D02*
X7707333Y-10265152D01*
X7707333Y-10265152D02*
X7659714Y-10360390D01*
X7659714Y-10360390D02*
X7612095Y-10408009D01*
X7612095Y-10408009D02*
X7516857Y-10455628D01*
X7516857Y-10455628D02*
X7135905Y-10455628D01*
X8564476Y-10265152D02*
X8564476Y-10931819D01*
X8326381Y-9884200D02*
X8088286Y-10598485D01*
X8088286Y-10598485D02*
X8707333Y-10598485D01*
X74215810Y-56859580D02*
X74263429Y-56907200D01*
X74263429Y-56907200D02*
X74215810Y-56954819D01*
X74215810Y-56954819D02*
X74168191Y-56907200D01*
X74168191Y-56907200D02*
X74215810Y-56859580D01*
X74215810Y-56859580D02*
X74215810Y-56954819D01*
X74692000Y-56954819D02*
X74692000Y-55954819D01*
X74692000Y-55954819D02*
X74930095Y-55954819D01*
X74930095Y-55954819D02*
X75072952Y-56002438D01*
X75072952Y-56002438D02*
X75168190Y-56097676D01*
X75168190Y-56097676D02*
X75215809Y-56192914D01*
X75215809Y-56192914D02*
X75263428Y-56383390D01*
X75263428Y-56383390D02*
X75263428Y-56526247D01*
X75263428Y-56526247D02*
X75215809Y-56716723D01*
X75215809Y-56716723D02*
X75168190Y-56811961D01*
X75168190Y-56811961D02*
X75072952Y-56907200D01*
X75072952Y-56907200D02*
X74930095Y-56954819D01*
X74930095Y-56954819D02*
X74692000Y-56954819D01*
X76215809Y-56954819D02*
X75644381Y-56954819D01*
X75930095Y-56954819D02*
X75930095Y-55954819D01*
X75930095Y-55954819D02*
X75834857Y-56097676D01*
X75834857Y-56097676D02*
X75739619Y-56192914D01*
X75739619Y-56192914D02*
X75644381Y-56240533D01*
X35186857Y-59459580D02*
X35234476Y-59507200D01*
X35234476Y-59507200D02*
X35186857Y-59554819D01*
X35186857Y-59554819D02*
X35139238Y-59507200D01*
X35139238Y-59507200D02*
X35186857Y-59459580D01*
X35186857Y-59459580D02*
X35186857Y-59554819D01*
X35948761Y-58554819D02*
X35948761Y-59269104D01*
X35948761Y-59269104D02*
X35901142Y-59411961D01*
X35901142Y-59411961D02*
X35805904Y-59507200D01*
X35805904Y-59507200D02*
X35663047Y-59554819D01*
X35663047Y-59554819D02*
X35567809Y-59554819D01*
X36948761Y-59554819D02*
X36377333Y-59554819D01*
X36663047Y-59554819D02*
X36663047Y-58554819D01*
X36663047Y-58554819D02*
X36567809Y-58697676D01*
X36567809Y-58697676D02*
X36472571Y-58792914D01*
X36472571Y-58792914D02*
X36377333Y-58840533D01*
X23087810Y-56859580D02*
X23135429Y-56907200D01*
X23135429Y-56907200D02*
X23087810Y-56954819D01*
X23087810Y-56954819D02*
X23040191Y-56907200D01*
X23040191Y-56907200D02*
X23087810Y-56859580D01*
X23087810Y-56859580D02*
X23087810Y-56954819D01*
X23564000Y-56954819D02*
X23564000Y-55954819D01*
X23564000Y-55954819D02*
X23802095Y-55954819D01*
X23802095Y-55954819D02*
X23944952Y-56002438D01*
X23944952Y-56002438D02*
X24040190Y-56097676D01*
X24040190Y-56097676D02*
X24087809Y-56192914D01*
X24087809Y-56192914D02*
X24135428Y-56383390D01*
X24135428Y-56383390D02*
X24135428Y-56526247D01*
X24135428Y-56526247D02*
X24087809Y-56716723D01*
X24087809Y-56716723D02*
X24040190Y-56811961D01*
X24040190Y-56811961D02*
X23944952Y-56907200D01*
X23944952Y-56907200D02*
X23802095Y-56954819D01*
X23802095Y-56954819D02*
X23564000Y-56954819D01*
X25087809Y-56954819D02*
X24516381Y-56954819D01*
X24802095Y-56954819D02*
X24802095Y-55954819D01*
X24802095Y-55954819D02*
X24706857Y-56097676D01*
X24706857Y-56097676D02*
X24611619Y-56192914D01*
X24611619Y-56192914D02*
X24516381Y-56240533D01*
D12*
%TO.C,IC1*%
X58907000Y-19163000D02*
X58907000Y-17638000D01*
X59025000Y-17288000D02*
X59025000Y-14088000D01*
X63949000Y-17288000D02*
X59025000Y-17288000D01*
X59025000Y-14088000D02*
X63949000Y-14088000D01*
X63949000Y-14088000D02*
X63949000Y-17288000D01*
D13*
%TO.C,R4*%
X61552936Y-9742000D02*
X62007064Y-9742000D01*
X61552936Y-11212000D02*
X62007064Y-11212000D01*
%TO.C,.D2*%
X25609000Y-49960000D02*
X22519000Y-49960000D01*
X24063538Y-55509999D02*
G75*
G03*
X25608830Y-49960001I462J2989999D01*
G01*
X22519170Y-49960000D02*
G75*
G03*
X24064462Y-55510000I1544830J-2560000D01*
G01*
X26564000Y-52520000D02*
G75*
G03*
X21564000Y-52520000I-2500000J0D01*
G01*
X21564000Y-52520000D02*
G75*
G03*
X26564000Y-52520000I2500000J0D01*
G01*
%TO.C,.J1*%
X83412000Y-60190000D02*
X83412000Y-66810000D01*
X83412000Y-66810000D02*
X87172000Y-66810000D01*
X84692000Y-68200000D02*
X85192000Y-67200000D01*
X85192000Y-67200000D02*
X85692000Y-68200000D01*
X85692000Y-68200000D02*
X84692000Y-68200000D01*
X87172000Y-60190000D02*
X83412000Y-60190000D01*
X87172000Y-60190000D02*
X90932000Y-60190000D01*
X90932000Y-60190000D02*
X90932000Y-66810000D01*
X90932000Y-66810000D02*
X87172000Y-66810000D01*
%TO.C,C2*%
X17729000Y-13898752D02*
X17729000Y-13376248D01*
X19199000Y-13898752D02*
X19199000Y-13376248D01*
%TO.C,C4*%
X14068000Y-3014000D02*
X15068000Y-3014000D01*
X14568000Y-2514000D02*
X14568000Y-3514000D01*
X15308000Y-2228437D02*
X15308000Y-4014000D01*
X15308000Y-2228437D02*
X16372437Y-1164000D01*
X15308000Y-8819563D02*
X15308000Y-7034000D01*
X15308000Y-8819563D02*
X16372437Y-9884000D01*
X16372437Y-1164000D02*
X24028000Y-1164000D01*
X16372437Y-9884000D02*
X24028000Y-9884000D01*
X24028000Y-1164000D02*
X24028000Y-4014000D01*
X24028000Y-9884000D02*
X24028000Y-7034000D01*
%TO.C,C7*%
X54710752Y-13723000D02*
X54188248Y-13723000D01*
X54710752Y-12253000D02*
X54188248Y-12253000D01*
%TO.C,R1*%
X14729000Y-18227064D02*
X14729000Y-17772936D01*
X16199000Y-18227064D02*
X16199000Y-17772936D01*
%TO.C,RV1*%
X23873000Y-18108000D02*
X25153000Y-18108000D01*
X23873000Y-18108000D02*
X23873000Y-13268000D01*
X24253000Y-18108000D02*
X24253000Y-18108000D01*
X24253000Y-18108000D02*
X25153000Y-18108000D01*
X24253000Y-18108000D02*
X25153000Y-18108000D01*
X27633000Y-18108000D02*
X28913000Y-18108000D01*
X28913000Y-18108000D02*
X28913000Y-13268000D01*
X23873000Y-13268000D02*
X24353000Y-13268000D01*
X26133000Y-13268000D02*
X26653000Y-13268000D01*
X28433000Y-13268000D02*
X28913000Y-13268000D01*
%TO.C,C10*%
X39329000Y-13723752D02*
X39329000Y-13201248D01*
X40799000Y-13723752D02*
X40799000Y-13201248D01*
%TO.C,.R2*%
X17799000Y-52272936D02*
X17799000Y-52727064D01*
X16329000Y-52272936D02*
X16329000Y-52727064D01*
%TO.C,JPROG1*%
X9338000Y-1019000D02*
X10668000Y-1019000D01*
X9338000Y-2349000D02*
X9338000Y-1019000D01*
X9338000Y-3619000D02*
X9338000Y-8759000D01*
X9338000Y-3619000D02*
X11998000Y-3619000D01*
X9338000Y-8759000D02*
X11998000Y-8759000D01*
X11998000Y-3619000D02*
X11998000Y-8759000D01*
%TO.C,D1*%
X25674000Y-24850000D02*
X25674000Y-23150000D01*
X25674000Y-24850000D02*
X23014000Y-24850000D01*
X25674000Y-23150000D02*
X23014000Y-23150000D01*
D12*
%TO.C,IC2*%
X32213000Y-19163000D02*
X32213000Y-17638000D01*
X32331000Y-17288000D02*
X32331000Y-14088000D01*
X37255000Y-17288000D02*
X32331000Y-17288000D01*
X32331000Y-14088000D02*
X37255000Y-14088000D01*
X37255000Y-14088000D02*
X37255000Y-17288000D01*
D13*
%TO.C,R2*%
X17729000Y-18227064D02*
X17729000Y-17772936D01*
X19199000Y-18227064D02*
X19199000Y-17772936D01*
%TO.C,C7*%
X3582752Y-13723000D02*
X3060248Y-13723000D01*
X3582752Y-12253000D02*
X3060248Y-12253000D01*
%TO.C,C5*%
X71932000Y-13898752D02*
X71932000Y-13376248D01*
X73402000Y-13898752D02*
X73402000Y-13376248D01*
%TO.C,C8*%
X54710752Y-16523000D02*
X54188248Y-16523000D01*
X54710752Y-15053000D02*
X54188248Y-15053000D01*
%TO.C,C3*%
X29729000Y-15948752D02*
X29729000Y-15426248D01*
X31199000Y-15948752D02*
X31199000Y-15426248D01*
%TO.C,RV1*%
X75001000Y-18108000D02*
X76281000Y-18108000D01*
X75001000Y-18108000D02*
X75001000Y-13268000D01*
X75381000Y-18108000D02*
X75381000Y-18108000D01*
X75381000Y-18108000D02*
X76281000Y-18108000D01*
X75381000Y-18108000D02*
X76281000Y-18108000D01*
X78761000Y-18108000D02*
X80041000Y-18108000D01*
X80041000Y-18108000D02*
X80041000Y-13268000D01*
X75001000Y-13268000D02*
X75481000Y-13268000D01*
X77261000Y-13268000D02*
X77781000Y-13268000D01*
X79561000Y-13268000D02*
X80041000Y-13268000D01*
D12*
%TO.C,IC1*%
X7779000Y-19163000D02*
X7779000Y-17638000D01*
X7897000Y-17288000D02*
X7897000Y-14088000D01*
X12821000Y-17288000D02*
X7897000Y-17288000D01*
X7897000Y-14088000D02*
X12821000Y-14088000D01*
X12821000Y-14088000D02*
X12821000Y-17288000D01*
D13*
%TO.C,R1*%
X65857000Y-18227064D02*
X65857000Y-17772936D01*
X67327000Y-18227064D02*
X67327000Y-17772936D01*
%TO.C,C3*%
X80857000Y-15948752D02*
X80857000Y-15426248D01*
X82327000Y-15948752D02*
X82327000Y-15426248D01*
%TO.C,C4*%
X65196000Y-3014000D02*
X66196000Y-3014000D01*
X65696000Y-2514000D02*
X65696000Y-3514000D01*
X66436000Y-2228437D02*
X66436000Y-4014000D01*
X66436000Y-2228437D02*
X67500437Y-1164000D01*
X66436000Y-8819563D02*
X66436000Y-7034000D01*
X66436000Y-8819563D02*
X67500437Y-9884000D01*
X67500437Y-1164000D02*
X75156000Y-1164000D01*
X67500437Y-9884000D02*
X75156000Y-9884000D01*
X75156000Y-1164000D02*
X75156000Y-4014000D01*
X75156000Y-9884000D02*
X75156000Y-7034000D01*
%TO.C,JPROG1*%
X60466000Y-1019000D02*
X61796000Y-1019000D01*
X60466000Y-2349000D02*
X60466000Y-1019000D01*
X60466000Y-3619000D02*
X60466000Y-8759000D01*
X60466000Y-3619000D02*
X63126000Y-3619000D01*
X60466000Y-8759000D02*
X63126000Y-8759000D01*
X63126000Y-3619000D02*
X63126000Y-8759000D01*
%TO.C,C1*%
X65857000Y-13898752D02*
X65857000Y-13376248D01*
X67327000Y-13898752D02*
X67327000Y-13376248D01*
X14729000Y-13898752D02*
X14729000Y-13376248D01*
X16199000Y-13898752D02*
X16199000Y-13376248D01*
%TO.C,C8*%
X3582752Y-16523000D02*
X3060248Y-16523000D01*
X3582752Y-15053000D02*
X3060248Y-15053000D01*
%TO.C,C9*%
X3620252Y-19123000D02*
X3097748Y-19123000D01*
X3620252Y-17653000D02*
X3097748Y-17653000D01*
%TO.C,.R1*%
X63532000Y-44750000D02*
X70572000Y-44750000D01*
X70572000Y-43030000D02*
X70572000Y-46470000D01*
X70572000Y-46470000D02*
X79812000Y-46470000D01*
X79812000Y-43030000D02*
X70572000Y-43030000D01*
X79812000Y-46470000D02*
X79812000Y-43030000D01*
X86852000Y-44750000D02*
X79812000Y-44750000D01*
%TO.C,J1*%
X32284000Y-24190000D02*
X32284000Y-30810000D01*
X32284000Y-30810000D02*
X36044000Y-30810000D01*
X33564000Y-32200000D02*
X34064000Y-31200000D01*
X34064000Y-31200000D02*
X34564000Y-32200000D01*
X34564000Y-32200000D02*
X33564000Y-32200000D01*
X36044000Y-24190000D02*
X32284000Y-24190000D01*
X36044000Y-24190000D02*
X39804000Y-24190000D01*
X39804000Y-24190000D02*
X39804000Y-30810000D01*
X39804000Y-30810000D02*
X36044000Y-30810000D01*
%TO.C,C10*%
X90457000Y-13723752D02*
X90457000Y-13201248D01*
X91927000Y-13723752D02*
X91927000Y-13201248D01*
%TO.C,C6*%
X27928000Y-3014000D02*
X28928000Y-3014000D01*
X28428000Y-2514000D02*
X28428000Y-3514000D01*
X29168000Y-2228437D02*
X29168000Y-4014000D01*
X29168000Y-2228437D02*
X30232437Y-1164000D01*
X29168000Y-8819563D02*
X29168000Y-7034000D01*
X29168000Y-8819563D02*
X30232437Y-9884000D01*
X30232437Y-1164000D02*
X37888000Y-1164000D01*
X30232437Y-9884000D02*
X37888000Y-9884000D01*
X37888000Y-1164000D02*
X37888000Y-4014000D01*
X37888000Y-9884000D02*
X37888000Y-7034000D01*
%TO.C,.D2*%
X76737000Y-49960000D02*
X73647000Y-49960000D01*
X75191538Y-55509999D02*
G75*
G03*
X76736830Y-49960001I462J2989999D01*
G01*
X73647170Y-49960000D02*
G75*
G03*
X75192462Y-55510000I1544830J-2560000D01*
G01*
X77692000Y-52520000D02*
G75*
G03*
X72692000Y-52520000I-2500000J0D01*
G01*
X72692000Y-52520000D02*
G75*
G03*
X77692000Y-52520000I2500000J0D01*
G01*
%TO.C,D1*%
X76802000Y-24850000D02*
X76802000Y-23150000D01*
X76802000Y-24850000D02*
X74142000Y-24850000D01*
X76802000Y-23150000D02*
X74142000Y-23150000D01*
%TO.C,C9*%
X54748252Y-19123000D02*
X54225748Y-19123000D01*
X54748252Y-17653000D02*
X54225748Y-17653000D01*
%TO.C,R2*%
X68857000Y-18227064D02*
X68857000Y-17772936D01*
X70327000Y-18227064D02*
X70327000Y-17772936D01*
%TO.C,JSPK1*%
X97122000Y-19054000D02*
X95792000Y-19054000D01*
X97122000Y-17724000D02*
X97122000Y-19054000D01*
X97122000Y-16454000D02*
X97122000Y-13854000D01*
X97122000Y-16454000D02*
X94462000Y-16454000D01*
X97122000Y-13854000D02*
X94462000Y-13854000D01*
X94462000Y-16454000D02*
X94462000Y-13854000D01*
D12*
%TO.C,IC2*%
X83341000Y-19163000D02*
X83341000Y-17638000D01*
X83459000Y-17288000D02*
X83459000Y-14088000D01*
X88383000Y-17288000D02*
X83459000Y-17288000D01*
X83459000Y-14088000D02*
X88383000Y-14088000D01*
X88383000Y-14088000D02*
X88383000Y-17288000D01*
D13*
%TO.C,C5*%
X20804000Y-13898752D02*
X20804000Y-13376248D01*
X22274000Y-13898752D02*
X22274000Y-13376248D01*
%TO.C,C6*%
X79056000Y-3014000D02*
X80056000Y-3014000D01*
X79556000Y-2514000D02*
X79556000Y-3514000D01*
X80296000Y-2228437D02*
X80296000Y-4014000D01*
X80296000Y-2228437D02*
X81360437Y-1164000D01*
X80296000Y-8819563D02*
X80296000Y-7034000D01*
X80296000Y-8819563D02*
X81360437Y-9884000D01*
X81360437Y-1164000D02*
X89016000Y-1164000D01*
X81360437Y-9884000D02*
X89016000Y-9884000D01*
X89016000Y-1164000D02*
X89016000Y-4014000D01*
X89016000Y-9884000D02*
X89016000Y-7034000D01*
%TO.C,.R1*%
X12404000Y-44750000D02*
X19444000Y-44750000D01*
X19444000Y-43030000D02*
X19444000Y-46470000D01*
X19444000Y-46470000D02*
X28684000Y-46470000D01*
X28684000Y-43030000D02*
X19444000Y-43030000D01*
X28684000Y-46470000D02*
X28684000Y-43030000D01*
X35724000Y-44750000D02*
X28684000Y-44750000D01*
%TO.C,JSPK1*%
X45994000Y-19054000D02*
X44664000Y-19054000D01*
X45994000Y-17724000D02*
X45994000Y-19054000D01*
X45994000Y-16454000D02*
X45994000Y-13854000D01*
X45994000Y-16454000D02*
X43334000Y-16454000D01*
X45994000Y-13854000D02*
X43334000Y-13854000D01*
X43334000Y-16454000D02*
X43334000Y-13854000D01*
%TO.C,.R2*%
X68927000Y-52272936D02*
X68927000Y-52727064D01*
X67457000Y-52272936D02*
X67457000Y-52727064D01*
%TO.C,J1*%
X83412000Y-24190000D02*
X83412000Y-30810000D01*
X83412000Y-30810000D02*
X87172000Y-30810000D01*
X84692000Y-32200000D02*
X85192000Y-31200000D01*
X85192000Y-31200000D02*
X85692000Y-32200000D01*
X85692000Y-32200000D02*
X84692000Y-32200000D01*
X87172000Y-24190000D02*
X83412000Y-24190000D01*
X87172000Y-24190000D02*
X90932000Y-24190000D01*
X90932000Y-24190000D02*
X90932000Y-30810000D01*
X90932000Y-30810000D02*
X87172000Y-30810000D01*
%TO.C,C2*%
X68857000Y-13898752D02*
X68857000Y-13376248D01*
X70327000Y-13898752D02*
X70327000Y-13376248D01*
%TO.C,R3*%
X40799000Y-17772936D02*
X40799000Y-18227064D01*
X39329000Y-17772936D02*
X39329000Y-18227064D01*
X91927000Y-17772936D02*
X91927000Y-18227064D01*
X90457000Y-17772936D02*
X90457000Y-18227064D01*
%TO.C,R4*%
X10424936Y-9742000D02*
X10879064Y-9742000D01*
X10424936Y-11212000D02*
X10879064Y-11212000D01*
%TO.C,.D1*%
X71832000Y-50915000D02*
X71832000Y-54085000D01*
X71832000Y-54085000D02*
X77692000Y-54085000D01*
X77692000Y-50915000D02*
X71832000Y-50915000D01*
%TO.C,.J1*%
X32284000Y-60190000D02*
X32284000Y-66810000D01*
X32284000Y-66810000D02*
X36044000Y-66810000D01*
X33564000Y-68200000D02*
X34064000Y-67200000D01*
X34064000Y-67200000D02*
X34564000Y-68200000D01*
X34564000Y-68200000D02*
X33564000Y-68200000D01*
X36044000Y-60190000D02*
X32284000Y-60190000D01*
X36044000Y-60190000D02*
X39804000Y-60190000D01*
X39804000Y-60190000D02*
X39804000Y-66810000D01*
X39804000Y-66810000D02*
X36044000Y-66810000D01*
%TO.C,.D1*%
X20704000Y-50915000D02*
X20704000Y-54085000D01*
X20704000Y-54085000D02*
X26564000Y-54085000D01*
X26564000Y-50915000D02*
X20704000Y-50915000D01*
%TD*%
%LPC*%
D14*
%TO.C,IC1*%
X59582000Y-18400000D03*
X60852000Y-18400000D03*
X62122000Y-18400000D03*
X63392000Y-18400000D03*
X63392000Y-12976000D03*
X62122000Y-12976000D03*
X60852000Y-12976000D03*
X59582000Y-12976000D03*
%TD*%
D15*
%TO.C,KiKit_MB_11_7*%
X56692000Y-35419858D03*
%TD*%
%TO.C,KiKit_MB_7_3*%
X15230667Y-35936000D03*
%TD*%
%TO.C,KiKit_MB_14_2*%
X51128000Y-62097666D03*
%TD*%
%TO.C,KiKit_MB_6_1*%
X56692000Y-35936000D03*
%TD*%
%TO.C,KiKit_MB_6_1*%
X48128000Y-49298000D03*
%TD*%
%TO.C,KiKit_MB_4_6*%
X30397333Y-33000000D03*
%TD*%
%TO.C,KiKit_MB_2_4*%
X67192000Y-33000000D03*
%TD*%
%TO.C,KiKit_MB_12_2*%
X51128000Y-44831666D03*
%TD*%
%TO.C,KiKit_MB_10_5*%
X92025333Y-35936000D03*
%TD*%
%TO.C,KiKit_MB_9_3*%
X51192000Y-18099334D03*
%TD*%
%TO.C,KiKit_MB_11_6*%
X56362936Y-35936000D03*
%TD*%
%TO.C,KiKit_MB_8_3*%
X23230667Y-35936000D03*
%TD*%
D16*
%TO.C,R4*%
X60780000Y-10477000D03*
X62780000Y-10477000D03*
%TD*%
D15*
%TO.C,KiKit_MB_10_1*%
X88692000Y-35936000D03*
%TD*%
%TO.C,KiKit_MB_13_6*%
X51128000Y-50131333D03*
%TD*%
%TO.C,KiKit_MB_3_7*%
X48064000Y-28399000D03*
%TD*%
%TO.C,KiKit_MB_3_6*%
X22397334Y-33000000D03*
%TD*%
%TO.C,KiKit_MB_1_3*%
X8897334Y-33000000D03*
%TD*%
%TO.C,KiKit_MB_5_6*%
X38397333Y-33000000D03*
%TD*%
D17*
%TO.C,.D2*%
X24064000Y-51250000D03*
D18*
X24064000Y-53790000D03*
%TD*%
D15*
%TO.C,KiKit_MB_4_2*%
X33730666Y-33000000D03*
%TD*%
%TO.C,KiKit_MB_8_2*%
X51192000Y-10299667D03*
%TD*%
%TO.C,KiKit_MB_2_1*%
X18564000Y-33000000D03*
%TD*%
%TO.C,KiKit_MB_2_4*%
X48064000Y-17266000D03*
%TD*%
%TO.C,KiKit_MB_11_5*%
X55517731Y-35936000D03*
%TD*%
%TO.C,KiKit_MB_2_3*%
X68025334Y-33000000D03*
%TD*%
D19*
%TO.C,.J1*%
X85192000Y-63500000D03*
D20*
X89152000Y-63500000D03*
%TD*%
D21*
%TO.C,C2*%
X18464000Y-14675000D03*
X18464000Y-12600000D03*
%TD*%
D15*
%TO.C,KiKit_MB_2_3*%
X16897334Y-33000000D03*
%TD*%
%TO.C,KiKit_MB_6_5*%
X60025334Y-35936000D03*
%TD*%
%TO.C,KiKit_MB_10_3*%
X51192000Y-26732334D03*
%TD*%
%TO.C,KiKit_MB_1_4*%
X59192000Y-33000000D03*
%TD*%
%TO.C,KiKit_MB_9_2*%
X30397333Y-35936000D03*
%TD*%
%TO.C,KiKit_MB_4_2*%
X84858666Y-33000000D03*
%TD*%
D22*
%TO.C,C4*%
X15968000Y-5524000D03*
X23368000Y-5524000D03*
%TD*%
D15*
%TO.C,KiKit_MB_14_5*%
X51128000Y-59597666D03*
%TD*%
D23*
%TO.C,J2*%
X14064000Y-24500000D03*
D24*
X14064000Y-30500000D03*
D25*
X18764000Y-27500000D03*
%TD*%
D26*
%TO.C,.H3*%
X55192000Y-65000000D03*
%TD*%
D15*
%TO.C,KiKit_MB_7_3*%
X66358667Y-35936000D03*
%TD*%
%TO.C,KiKit_MB_5_1*%
X93692000Y-33000000D03*
%TD*%
%TO.C,KiKit_MB_9_5*%
X32897333Y-35936000D03*
%TD*%
%TO.C,KiKit_MB_9_3*%
X82358666Y-35936000D03*
%TD*%
%TO.C,KiKit_MB_5_4*%
X91192000Y-33000000D03*
%TD*%
D27*
%TO.C,C7*%
X55487000Y-12988000D03*
X53412000Y-12988000D03*
%TD*%
D15*
%TO.C,KiKit_MB_8_6*%
X76858666Y-35936000D03*
%TD*%
D28*
%TO.C,R1*%
X15464000Y-19000000D03*
X15464000Y-17000000D03*
%TD*%
D15*
%TO.C,KiKit_MB_1_2*%
X48064000Y-6966334D03*
%TD*%
%TO.C,KiKit_MB_4_5*%
X43524960Y-33000000D03*
%TD*%
%TO.C,KiKit_MB_11_12*%
X54886197Y-32987007D03*
%TD*%
%TO.C,KiKit_MB_1_3*%
X60025334Y-33000000D03*
%TD*%
%TO.C,KiKit_MB_10_3*%
X90358666Y-35936000D03*
%TD*%
%TO.C,KiKit_MB_7_6*%
X48128000Y-62097666D03*
%TD*%
%TO.C,KiKit_MB_9_7*%
X51192000Y-14766000D03*
%TD*%
%TO.C,KiKit_MB_4_7*%
X80692000Y-33000000D03*
%TD*%
D26*
%TO.C,.H2*%
X44064000Y-40000000D03*
%TD*%
D15*
%TO.C,KiKit_MB_8_4*%
X75192000Y-35936000D03*
%TD*%
%TO.C,KiKit_MB_9_4*%
X83192000Y-35936000D03*
%TD*%
D29*
%TO.C,RV1*%
X25243000Y-13688000D03*
D30*
X26393000Y-17688000D03*
D29*
X27543000Y-13688000D03*
%TD*%
D15*
%TO.C,KiKit_MB_2_7*%
X48064000Y-19766000D03*
%TD*%
%TO.C,KiKit_MB_5_1*%
X42564000Y-33000000D03*
%TD*%
%TO.C,KiKit_MB_11_2*%
X53089742Y-36523175D03*
%TD*%
%TO.C,KiKit_MB_11_13*%
X54056653Y-32834328D03*
%TD*%
D31*
%TO.C,H3*%
X44064000Y-29000000D03*
%TD*%
D15*
%TO.C,KiKit_MB_5_3*%
X40897333Y-33000000D03*
%TD*%
%TO.C,KiKit_MB_10_2*%
X51192000Y-27565667D03*
%TD*%
%TO.C,KiKit_MB_6_1*%
X5564000Y-35936000D03*
%TD*%
%TO.C,KiKit_MB_3_5*%
X74358667Y-33000000D03*
%TD*%
%TO.C,KiKit_MB_7_7*%
X48128000Y-62931000D03*
%TD*%
%TO.C,KiKit_MB_13_7*%
X51128000Y-49298000D03*
%TD*%
D21*
%TO.C,C10*%
X40064000Y-14500000D03*
X40064000Y-12425000D03*
%TD*%
D15*
%TO.C,KiKit_MB_2_2*%
X48064000Y-15599334D03*
%TD*%
%TO.C,KiKit_MB_7_3*%
X48128000Y-59597666D03*
%TD*%
%TO.C,KiKit_MB_4_6*%
X81525333Y-33000000D03*
%TD*%
%TO.C,KiKit_MB_7_6*%
X17730667Y-35936000D03*
%TD*%
%TO.C,KiKit_MB_4_4*%
X32064000Y-33000000D03*
%TD*%
%TO.C,KiKit_MB_3_4*%
X75192000Y-33000000D03*
%TD*%
%TO.C,KiKit_MB_10_6*%
X51192000Y-24232334D03*
%TD*%
%TO.C,KiKit_MB_5_7*%
X37564000Y-33000000D03*
%TD*%
D32*
%TO.C,.R2*%
X17064000Y-51500000D03*
X17064000Y-53500000D03*
%TD*%
D15*
%TO.C,KiKit_MB_8_7*%
X51192000Y-6133000D03*
%TD*%
%TO.C,KiKit_MB_2_5*%
X66358667Y-33000000D03*
%TD*%
%TO.C,KiKit_MB_4_8*%
X42564000Y-34574653D03*
%TD*%
D31*
%TO.C,H4*%
X4064000Y-29000000D03*
%TD*%
D15*
%TO.C,KiKit_MB_4_10*%
X42893063Y-35936000D03*
%TD*%
%TO.C,KiKit_MB_3_2*%
X48064000Y-24232334D03*
%TD*%
%TO.C,KiKit_MB_7_5*%
X48128000Y-61264333D03*
%TD*%
%TO.C,KiKit_MB_8_5*%
X76025333Y-35936000D03*
%TD*%
%TO.C,KiKit_MB_9_6*%
X33730666Y-35936000D03*
%TD*%
%TO.C,KiKit_MB_1_5*%
X58358667Y-33000000D03*
%TD*%
%TO.C,KiKit_MB_10_5*%
X51192000Y-25065667D03*
%TD*%
D31*
%TO.C,H2*%
X95192000Y-4000000D03*
%TD*%
D15*
%TO.C,KiKit_MB_4_3*%
X32897333Y-33000000D03*
%TD*%
%TO.C,KiKit_MB_7_2*%
X65525334Y-35936000D03*
%TD*%
D26*
%TO.C,.H4*%
X95192000Y-65000000D03*
%TD*%
D15*
%TO.C,KiKit_MB_7_1*%
X64692000Y-35936000D03*
%TD*%
%TO.C,KiKit_MB_1_4*%
X8064000Y-33000000D03*
%TD*%
%TO.C,KiKit_MB_1_1*%
X48064000Y-6133000D03*
%TD*%
D33*
%TO.C,JPROG1*%
X10668000Y-2349000D03*
D34*
X10668000Y-4889000D03*
X10668000Y-7429000D03*
%TD*%
D15*
%TO.C,KiKit_MB_2_7*%
X64692000Y-33000000D03*
%TD*%
%TO.C,KiKit_MB_7_2*%
X14397334Y-35936000D03*
%TD*%
%TO.C,KiKit_MB_5_3*%
X92025333Y-33000000D03*
%TD*%
%TO.C,KiKit_MB_8_1*%
X21564000Y-35936000D03*
%TD*%
%TO.C,KiKit_MB_6_7*%
X48128000Y-54298000D03*
%TD*%
%TO.C,KiKit_MB_3_1*%
X48064000Y-23399000D03*
%TD*%
%TO.C,KiKit_MB_1_7*%
X5564000Y-33000000D03*
%TD*%
%TO.C,KiKit_MB_13_1*%
X51128000Y-54298000D03*
%TD*%
%TO.C,KiKit_MB_10_4*%
X51192000Y-25899000D03*
%TD*%
%TO.C,KiKit_MB_1_7*%
X48064000Y-11133000D03*
%TD*%
%TO.C,KiKit_MB_4_4*%
X44369801Y-32987007D03*
%TD*%
%TO.C,KiKit_MB_2_6*%
X65525334Y-33000000D03*
%TD*%
D35*
%TO.C,D1*%
X25114000Y-24000000D03*
X23014000Y-24000000D03*
%TD*%
D26*
%TO.C,.H1*%
X55192000Y-40000000D03*
%TD*%
D15*
%TO.C,KiKit_MB_8_2*%
X22397334Y-35936000D03*
%TD*%
%TO.C,KiKit_MB_10_2*%
X89525333Y-35936000D03*
%TD*%
%TO.C,KiKit_MB_7_2*%
X48128000Y-58764333D03*
%TD*%
D23*
%TO.C,J2*%
X65192000Y-24500000D03*
D24*
X65192000Y-30500000D03*
D25*
X69892000Y-27500000D03*
%TD*%
D15*
%TO.C,KiKit_MB_6_4*%
X59192000Y-35936000D03*
%TD*%
D14*
%TO.C,IC2*%
X32888000Y-18400000D03*
X34158000Y-18400000D03*
X35428000Y-18400000D03*
X36698000Y-18400000D03*
X36698000Y-12976000D03*
X35428000Y-12976000D03*
X34158000Y-12976000D03*
X32888000Y-12976000D03*
%TD*%
D28*
%TO.C,R2*%
X18464000Y-19000000D03*
X18464000Y-17000000D03*
%TD*%
D15*
%TO.C,KiKit_MB_9_1*%
X80692000Y-35936000D03*
%TD*%
%TO.C,KiKit_MB_7_5*%
X16897334Y-35936000D03*
%TD*%
%TO.C,KiKit_MB_6_3*%
X58358667Y-35936000D03*
%TD*%
%TO.C,KiKit_MB_12_1*%
X51128000Y-45665000D03*
%TD*%
%TO.C,KiKit_MB_4_5*%
X31230666Y-33000000D03*
%TD*%
D27*
%TO.C,C7*%
X4359000Y-12988000D03*
X2284000Y-12988000D03*
%TD*%
D15*
%TO.C,KiKit_MB_14_1*%
X51128000Y-62931000D03*
%TD*%
%TO.C,KiKit_MB_9_1*%
X29564000Y-35936000D03*
%TD*%
%TO.C,KiKit_MB_3_3*%
X76025333Y-33000000D03*
%TD*%
%TO.C,KiKit_MB_7_4*%
X48128000Y-60431000D03*
%TD*%
D21*
%TO.C,C5*%
X72667000Y-14675000D03*
X72667000Y-12600000D03*
%TD*%
D15*
%TO.C,KiKit_MB_4_15*%
X46839121Y-37032000D03*
%TD*%
%TO.C,KiKit_MB_8_7*%
X26564000Y-35936000D03*
%TD*%
%TO.C,KiKit_MB_7_4*%
X16064000Y-35936000D03*
%TD*%
%TO.C,KiKit_MB_11_9*%
X56692000Y-33729449D03*
%TD*%
D27*
%TO.C,C8*%
X55487000Y-15788000D03*
X53412000Y-15788000D03*
%TD*%
D21*
%TO.C,C3*%
X30464000Y-16725000D03*
X30464000Y-14650000D03*
%TD*%
D15*
%TO.C,KiKit_MB_2_2*%
X68858667Y-33000000D03*
%TD*%
%TO.C,KiKit_MB_9_7*%
X34564000Y-35936000D03*
%TD*%
%TO.C,KiKit_MB_4_4*%
X83192000Y-33000000D03*
%TD*%
%TO.C,KiKit_MB_14_7*%
X51128000Y-57931000D03*
%TD*%
%TO.C,KiKit_MB_6_5*%
X8897334Y-35936000D03*
%TD*%
D29*
%TO.C,RV1*%
X76371000Y-13688000D03*
D30*
X77521000Y-17688000D03*
D29*
X78671000Y-13688000D03*
%TD*%
D15*
%TO.C,KiKit_MB_4_12*%
X44581950Y-35970452D03*
%TD*%
%TO.C,KiKit_MB_4_7*%
X42564000Y-33729449D03*
%TD*%
%TO.C,KiKit_MB_2_6*%
X48064000Y-18932667D03*
%TD*%
%TO.C,KiKit_MB_5_4*%
X48128000Y-43165000D03*
%TD*%
%TO.C,KiKit_MB_7_1*%
X13564000Y-35936000D03*
%TD*%
%TO.C,KiKit_MB_4_3*%
X45199345Y-32834328D03*
%TD*%
%TO.C,KiKit_MB_7_1*%
X48128000Y-57931000D03*
%TD*%
%TO.C,KiKit_MB_4_1*%
X85692000Y-33000000D03*
%TD*%
%TO.C,KiKit_MB_2_7*%
X13564000Y-33000000D03*
%TD*%
%TO.C,KiKit_MB_9_2*%
X51192000Y-18932667D03*
%TD*%
%TO.C,KiKit_MB_1_7*%
X56692000Y-33000000D03*
%TD*%
%TO.C,KiKit_MB_11_15*%
X52583154Y-32032000D03*
%TD*%
%TO.C,KiKit_MB_9_6*%
X84858666Y-35936000D03*
%TD*%
%TO.C,KiKit_MB_3_6*%
X48064000Y-27565667D03*
%TD*%
%TO.C,KiKit_MB_12_6*%
X51128000Y-41498333D03*
%TD*%
%TO.C,KiKit_MB_1_3*%
X48064000Y-7799667D03*
%TD*%
%TO.C,KiKit_MB_10_1*%
X51192000Y-28399000D03*
%TD*%
%TO.C,KiKit_MB_5_4*%
X40064000Y-33000000D03*
%TD*%
%TO.C,KiKit_MB_6_5*%
X48128000Y-52631333D03*
%TD*%
%TO.C,KiKit_MB_3_7*%
X21564000Y-33000000D03*
%TD*%
%TO.C,KiKit_MB_6_6*%
X48128000Y-53464666D03*
%TD*%
%TO.C,KiKit_MB_3_4*%
X24064000Y-33000000D03*
%TD*%
%TO.C,KiKit_MB_10_4*%
X91192000Y-35936000D03*
%TD*%
%TO.C,KiKit_MB_9_4*%
X51192000Y-17266000D03*
%TD*%
D23*
%TO.C,.J2*%
X14064000Y-60500000D03*
D24*
X14064000Y-66500000D03*
D25*
X18764000Y-63500000D03*
%TD*%
D15*
%TO.C,KiKit_MB_7_4*%
X67192000Y-35936000D03*
%TD*%
%TO.C,KiKit_MB_4_3*%
X84025333Y-33000000D03*
%TD*%
%TO.C,KiKit_MB_10_7*%
X51192000Y-23399000D03*
%TD*%
%TO.C,KiKit_MB_8_5*%
X51192000Y-7799667D03*
%TD*%
%TO.C,KiKit_MB_8_6*%
X51192000Y-6966334D03*
%TD*%
%TO.C,KiKit_MB_6_7*%
X61692000Y-35936000D03*
%TD*%
%TO.C,KiKit_MB_6_7*%
X10564000Y-35936000D03*
%TD*%
%TO.C,KiKit_MB_6_2*%
X48128000Y-50131333D03*
%TD*%
%TO.C,KiKit_MB_2_5*%
X48064000Y-18099334D03*
%TD*%
D14*
%TO.C,IC1*%
X8454000Y-18400000D03*
X9724000Y-18400000D03*
X10994000Y-18400000D03*
X12264000Y-18400000D03*
X12264000Y-12976000D03*
X10994000Y-12976000D03*
X9724000Y-12976000D03*
X8454000Y-12976000D03*
%TD*%
D15*
%TO.C,KiKit_MB_3_2*%
X76858666Y-33000000D03*
%TD*%
%TO.C,KiKit_MB_8_1*%
X72692000Y-35936000D03*
%TD*%
%TO.C,KiKit_MB_5_2*%
X48128000Y-41498333D03*
%TD*%
D23*
%TO.C,.J2*%
X65192000Y-60500000D03*
D24*
X65192000Y-66500000D03*
D25*
X69892000Y-63500000D03*
%TD*%
D15*
%TO.C,KiKit_MB_9_4*%
X32064000Y-35936000D03*
%TD*%
%TO.C,KiKit_MB_9_3*%
X31230666Y-35936000D03*
%TD*%
%TO.C,KiKit_MB_8_4*%
X24064000Y-35936000D03*
%TD*%
%TO.C,KiKit_MB_4_9*%
X42564000Y-35419858D03*
%TD*%
%TO.C,KiKit_MB_3_7*%
X72692000Y-33000000D03*
%TD*%
%TO.C,KiKit_MB_1_2*%
X9730667Y-33000000D03*
%TD*%
%TO.C,KiKit_MB_3_1*%
X26564000Y-33000000D03*
%TD*%
%TO.C,KiKit_MB_4_7*%
X29564000Y-33000000D03*
%TD*%
%TO.C,KiKit_MB_3_4*%
X48064000Y-25899000D03*
%TD*%
%TO.C,KiKit_MB_10_4*%
X40064000Y-35936000D03*
%TD*%
%TO.C,KiKit_MB_1_6*%
X48064000Y-10299667D03*
%TD*%
%TO.C,KiKit_MB_6_4*%
X48128000Y-51798000D03*
%TD*%
D28*
%TO.C,R1*%
X66592000Y-19000000D03*
X66592000Y-17000000D03*
%TD*%
D15*
%TO.C,KiKit_MB_8_7*%
X77692000Y-35936000D03*
%TD*%
%TO.C,KiKit_MB_6_6*%
X9730667Y-35936000D03*
%TD*%
D21*
%TO.C,C3*%
X81592000Y-16725000D03*
X81592000Y-14650000D03*
%TD*%
D15*
%TO.C,KiKit_MB_5_6*%
X48128000Y-44831666D03*
%TD*%
%TO.C,KiKit_MB_8_2*%
X73525334Y-35936000D03*
%TD*%
D22*
%TO.C,C4*%
X67096000Y-5524000D03*
X74496000Y-5524000D03*
%TD*%
D33*
%TO.C,JPROG1*%
X61796000Y-2349000D03*
D34*
X61796000Y-4889000D03*
X61796000Y-7429000D03*
%TD*%
D21*
%TO.C,C1*%
X66592000Y-14675000D03*
X66592000Y-12600000D03*
%TD*%
D15*
%TO.C,KiKit_MB_1_5*%
X7230667Y-33000000D03*
%TD*%
D21*
%TO.C,C1*%
X15464000Y-14675000D03*
X15464000Y-12600000D03*
%TD*%
D27*
%TO.C,C8*%
X4359000Y-15788000D03*
X2284000Y-15788000D03*
%TD*%
%TO.C,C9*%
X4396500Y-18388000D03*
X2321500Y-18388000D03*
%TD*%
D36*
%TO.C,.R1*%
X62492000Y-44750000D03*
D37*
X87892000Y-44750000D03*
%TD*%
D15*
%TO.C,KiKit_MB_2_5*%
X15230667Y-33000000D03*
%TD*%
%TO.C,KiKit_MB_6_3*%
X7230667Y-35936000D03*
%TD*%
%TO.C,KiKit_MB_9_5*%
X51192000Y-16432667D03*
%TD*%
D31*
%TO.C,H4*%
X55192000Y-29000000D03*
%TD*%
D15*
%TO.C,KiKit_MB_5_7*%
X88692000Y-33000000D03*
%TD*%
%TO.C,KiKit_MB_11_3*%
X53853082Y-36164183D03*
%TD*%
D19*
%TO.C,J1*%
X34064000Y-27500000D03*
D20*
X38024000Y-27500000D03*
%TD*%
D15*
%TO.C,KiKit_MB_9_1*%
X51192000Y-19766000D03*
%TD*%
%TO.C,KiKit_MB_2_3*%
X48064000Y-16432667D03*
%TD*%
D21*
%TO.C,C10*%
X91192000Y-14500000D03*
X91192000Y-12425000D03*
%TD*%
D15*
%TO.C,KiKit_MB_5_1*%
X48128000Y-40665000D03*
%TD*%
%TO.C,KiKit_MB_11_14*%
X53277419Y-32511295D03*
%TD*%
D22*
%TO.C,C6*%
X29828000Y-5524000D03*
X37228000Y-5524000D03*
%TD*%
D15*
%TO.C,KiKit_MB_6_6*%
X60858667Y-35936000D03*
%TD*%
D17*
%TO.C,.D2*%
X75192000Y-51250000D03*
D18*
X75192000Y-53790000D03*
%TD*%
D15*
%TO.C,KiKit_MB_5_7*%
X48128000Y-45665000D03*
%TD*%
%TO.C,KiKit_MB_10_1*%
X37564000Y-35936000D03*
%TD*%
%TO.C,KiKit_MB_1_6*%
X57525334Y-33000000D03*
%TD*%
%TO.C,KiKit_MB_7_7*%
X18564000Y-35936000D03*
%TD*%
%TO.C,KiKit_MB_10_6*%
X92858666Y-35936000D03*
%TD*%
%TO.C,KiKit_MB_4_11*%
X43738268Y-35936000D03*
%TD*%
%TO.C,KiKit_MB_4_6*%
X42679755Y-33000000D03*
%TD*%
%TO.C,KiKit_MB_9_7*%
X85692000Y-35936000D03*
%TD*%
D35*
%TO.C,D1*%
X76242000Y-24000000D03*
X74142000Y-24000000D03*
%TD*%
D15*
%TO.C,KiKit_MB_3_1*%
X77692000Y-33000000D03*
%TD*%
%TO.C,KiKit_MB_12_5*%
X51128000Y-42331666D03*
%TD*%
%TO.C,KiKit_MB_8_3*%
X51192000Y-9466334D03*
%TD*%
D27*
%TO.C,C9*%
X55524500Y-18388000D03*
X53449500Y-18388000D03*
%TD*%
D28*
%TO.C,R2*%
X69592000Y-19000000D03*
X69592000Y-17000000D03*
%TD*%
D15*
%TO.C,KiKit_MB_6_2*%
X6397334Y-35936000D03*
%TD*%
%TO.C,KiKit_MB_10_7*%
X93692000Y-35936000D03*
%TD*%
%TO.C,KiKit_MB_14_3*%
X51128000Y-61264333D03*
%TD*%
%TO.C,KiKit_MB_8_1*%
X51192000Y-11133000D03*
%TD*%
%TO.C,KiKit_MB_10_2*%
X38397333Y-35936000D03*
%TD*%
%TO.C,KiKit_MB_4_1*%
X34564000Y-33000000D03*
%TD*%
%TO.C,KiKit_MB_11_11*%
X55731038Y-33000000D03*
%TD*%
D33*
%TO.C,JSPK1*%
X95792000Y-17724000D03*
D34*
X95792000Y-15184000D03*
%TD*%
D15*
%TO.C,KiKit_MB_6_2*%
X57525334Y-35936000D03*
%TD*%
%TO.C,KiKit_MB_4_5*%
X82358666Y-33000000D03*
%TD*%
%TO.C,KiKit_MB_14_4*%
X51128000Y-60431000D03*
%TD*%
%TO.C,KiKit_MB_6_4*%
X8064000Y-35936000D03*
%TD*%
D14*
%TO.C,IC2*%
X84016000Y-18400000D03*
X85286000Y-18400000D03*
X86556000Y-18400000D03*
X87826000Y-18400000D03*
X87826000Y-12976000D03*
X86556000Y-12976000D03*
X85286000Y-12976000D03*
X84016000Y-12976000D03*
%TD*%
D15*
%TO.C,KiKit_MB_2_6*%
X14397334Y-33000000D03*
%TD*%
%TO.C,KiKit_MB_8_5*%
X24897333Y-35936000D03*
%TD*%
D21*
%TO.C,C5*%
X21539000Y-14675000D03*
X21539000Y-12600000D03*
%TD*%
D15*
%TO.C,KiKit_MB_11_10*%
X56576243Y-33000000D03*
%TD*%
%TO.C,KiKit_MB_4_1*%
X46672844Y-32032000D03*
%TD*%
%TO.C,KiKit_MB_8_3*%
X74358667Y-35936000D03*
%TD*%
%TO.C,KiKit_MB_1_2*%
X60858667Y-33000000D03*
%TD*%
D22*
%TO.C,C6*%
X80956000Y-5524000D03*
X88356000Y-5524000D03*
%TD*%
D15*
%TO.C,KiKit_MB_10_7*%
X42564000Y-35936000D03*
%TD*%
%TO.C,KiKit_MB_2_1*%
X69692000Y-33000000D03*
%TD*%
D36*
%TO.C,.R1*%
X11364000Y-44750000D03*
D37*
X36764000Y-44750000D03*
%TD*%
D15*
%TO.C,KiKit_MB_8_4*%
X51192000Y-8633000D03*
%TD*%
%TO.C,KiKit_MB_9_2*%
X81525333Y-35936000D03*
%TD*%
D26*
%TO.C,.H2*%
X95192000Y-40000000D03*
%TD*%
D33*
%TO.C,JSPK1*%
X44664000Y-17724000D03*
D34*
X44664000Y-15184000D03*
%TD*%
D26*
%TO.C,.H1*%
X4064000Y-40000000D03*
%TD*%
%TO.C,.H4*%
X44064000Y-65000000D03*
%TD*%
D31*
%TO.C,H2*%
X44064000Y-4000000D03*
%TD*%
D15*
%TO.C,KiKit_MB_5_6*%
X89525333Y-33000000D03*
%TD*%
%TO.C,KiKit_MB_5_2*%
X41730666Y-33000000D03*
%TD*%
%TO.C,KiKit_MB_13_4*%
X51128000Y-51798000D03*
%TD*%
D32*
%TO.C,.R2*%
X68192000Y-51500000D03*
X68192000Y-53500000D03*
%TD*%
D15*
%TO.C,KiKit_MB_1_5*%
X48064000Y-9466334D03*
%TD*%
%TO.C,KiKit_MB_3_2*%
X25730666Y-33000000D03*
%TD*%
%TO.C,KiKit_MB_7_5*%
X68025334Y-35936000D03*
%TD*%
%TO.C,KiKit_MB_10_6*%
X41730666Y-35936000D03*
%TD*%
%TO.C,KiKit_MB_9_6*%
X51192000Y-15599334D03*
%TD*%
D19*
%TO.C,J1*%
X85192000Y-27500000D03*
D20*
X89152000Y-27500000D03*
%TD*%
D15*
%TO.C,KiKit_MB_7_7*%
X69692000Y-35936000D03*
%TD*%
%TO.C,KiKit_MB_1_1*%
X61692000Y-33000000D03*
%TD*%
%TO.C,KiKit_MB_4_13*%
X45402916Y-36164183D03*
%TD*%
%TO.C,KiKit_MB_5_5*%
X48128000Y-43998333D03*
%TD*%
%TO.C,KiKit_MB_1_1*%
X10564000Y-33000000D03*
%TD*%
D31*
%TO.C,H1*%
X4064000Y-4000000D03*
%TD*%
D15*
%TO.C,KiKit_MB_4_14*%
X46166256Y-36523175D03*
%TD*%
%TO.C,KiKit_MB_9_5*%
X84025333Y-35936000D03*
%TD*%
D21*
%TO.C,C2*%
X69592000Y-14675000D03*
X69592000Y-12600000D03*
%TD*%
D32*
%TO.C,R3*%
X40064000Y-17000000D03*
X40064000Y-19000000D03*
%TD*%
D15*
%TO.C,KiKit_MB_3_5*%
X48064000Y-26732334D03*
%TD*%
%TO.C,KiKit_MB_1_6*%
X6397334Y-33000000D03*
%TD*%
%TO.C,KiKit_MB_5_2*%
X92858666Y-33000000D03*
%TD*%
%TO.C,KiKit_MB_10_3*%
X39230666Y-35936000D03*
%TD*%
%TO.C,KiKit_MB_4_2*%
X45978579Y-32511295D03*
%TD*%
%TO.C,KiKit_MB_14_6*%
X51128000Y-58764333D03*
%TD*%
D32*
%TO.C,R3*%
X91192000Y-17000000D03*
X91192000Y-19000000D03*
%TD*%
D15*
%TO.C,KiKit_MB_12_4*%
X51128000Y-43165000D03*
%TD*%
%TO.C,KiKit_MB_1_4*%
X48064000Y-8633000D03*
%TD*%
D16*
%TO.C,R4*%
X9652000Y-10477000D03*
X11652000Y-10477000D03*
%TD*%
D15*
%TO.C,KiKit_MB_13_5*%
X51128000Y-50964666D03*
%TD*%
%TO.C,KiKit_MB_11_1*%
X52416877Y-37032000D03*
%TD*%
%TO.C,KiKit_MB_11_8*%
X56692000Y-34574653D03*
%TD*%
%TO.C,KiKit_MB_2_1*%
X48064000Y-14766000D03*
%TD*%
D38*
%TO.C,.D1*%
X72854500Y-52500000D03*
X77529500Y-52500000D03*
%TD*%
D15*
%TO.C,KiKit_MB_7_6*%
X68858667Y-35936000D03*
%TD*%
D26*
%TO.C,.H3*%
X4064000Y-65000000D03*
%TD*%
D15*
%TO.C,KiKit_MB_5_5*%
X39230666Y-33000000D03*
%TD*%
D31*
%TO.C,H1*%
X55192000Y-4000000D03*
%TD*%
%TO.C,H3*%
X95192000Y-29000000D03*
%TD*%
D15*
%TO.C,KiKit_MB_13_3*%
X51128000Y-52631333D03*
%TD*%
%TO.C,KiKit_MB_5_5*%
X90358666Y-33000000D03*
%TD*%
%TO.C,KiKit_MB_12_7*%
X51128000Y-40665000D03*
%TD*%
%TO.C,KiKit_MB_3_6*%
X73525334Y-33000000D03*
%TD*%
%TO.C,KiKit_MB_2_2*%
X17730667Y-33000000D03*
%TD*%
%TO.C,KiKit_MB_5_3*%
X48128000Y-42331666D03*
%TD*%
%TO.C,KiKit_MB_8_6*%
X25730666Y-35936000D03*
%TD*%
%TO.C,KiKit_MB_6_3*%
X48128000Y-50964666D03*
%TD*%
%TO.C,KiKit_MB_13_2*%
X51128000Y-53464666D03*
%TD*%
%TO.C,KiKit_MB_3_5*%
X23230667Y-33000000D03*
%TD*%
D19*
%TO.C,.J1*%
X34064000Y-63500000D03*
D20*
X38024000Y-63500000D03*
%TD*%
D15*
%TO.C,KiKit_MB_3_3*%
X48064000Y-25065667D03*
%TD*%
%TO.C,KiKit_MB_2_4*%
X16064000Y-33000000D03*
%TD*%
%TO.C,KiKit_MB_10_5*%
X40897333Y-35936000D03*
%TD*%
D38*
%TO.C,.D1*%
X21726500Y-52500000D03*
X26401500Y-52500000D03*
%TD*%
D15*
%TO.C,KiKit_MB_12_3*%
X51128000Y-43998333D03*
%TD*%
%TO.C,KiKit_MB_11_4*%
X54674049Y-35970452D03*
%TD*%
%TO.C,KiKit_MB_3_3*%
X24897333Y-33000000D03*
%TD*%
%LPD*%
M02*
