%TF.GenerationSoftware,KiCad,Pcbnew,7.0.10*%
%TF.CreationDate,2024-03-02T22:01:54+01:00*%
%TF.ProjectId,explorer-panel_panelized,6578706c-6f72-4657-922d-70616e656c5f,rev?*%
%TF.SameCoordinates,Original*%
%TF.FileFunction,Legend,Bot*%
%TF.FilePolarity,Positive*%
%FSLAX46Y46*%
G04 Gerber Fmt 4.6, Leading zero omitted, Abs format (unit mm)*
G04 Created by KiCad (PCBNEW 7.0.10) date 2024-03-02 22:01:54*
%MOMM*%
%LPD*%
G01*
G04 APERTURE LIST*
G04 Aperture macros list*
%AMRoundRect*
0 Rectangle with rounded corners*
0 $1 Rounding radius*
0 $2 $3 $4 $5 $6 $7 $8 $9 X,Y pos of 4 corners*
0 Add a 4 corners polygon primitive as box body*
4,1,4,$2,$3,$4,$5,$6,$7,$8,$9,$2,$3,0*
0 Add four circle primitives for the rounded corners*
1,1,$1+$1,$2,$3*
1,1,$1+$1,$4,$5*
1,1,$1+$1,$6,$7*
1,1,$1+$1,$8,$9*
0 Add four rect primitives between the rounded corners*
20,1,$1+$1,$2,$3,$4,$5,0*
20,1,$1+$1,$4,$5,$6,$7,0*
20,1,$1+$1,$6,$7,$8,$9,0*
20,1,$1+$1,$8,$9,$2,$3,0*%
G04 Aperture macros list end*
%ADD10C,0.150000*%
%ADD11C,0.500000*%
%ADD12R,1.800000X1.800000*%
%ADD13C,1.800000*%
%ADD14RoundRect,0.250001X-0.949999X-0.949999X0.949999X-0.949999X0.949999X0.949999X-0.949999X0.949999X0*%
%ADD15C,2.400000*%
%ADD16R,3.500000X3.500000*%
%ADD17RoundRect,0.750000X1.000000X-0.750000X1.000000X0.750000X-1.000000X0.750000X-1.000000X-0.750000X0*%
%ADD18RoundRect,0.875000X0.875000X-0.875000X0.875000X0.875000X-0.875000X0.875000X-0.875000X-0.875000X0*%
%ADD19C,3.000000*%
%ADD20C,3.200000*%
%ADD21R,1.700000X1.700000*%
%ADD22O,1.700000X1.700000*%
%ADD23C,1.600000*%
%ADD24O,1.600000X1.600000*%
G04 APERTURE END LIST*
D10*
X41755792Y-47749819D02*
X42089125Y-47273628D01*
X42327220Y-47749819D02*
X42327220Y-46749819D01*
X42327220Y-46749819D02*
X41946268Y-46749819D01*
X41946268Y-46749819D02*
X41851030Y-46797438D01*
X41851030Y-46797438D02*
X41803411Y-46845057D01*
X41803411Y-46845057D02*
X41755792Y-46940295D01*
X41755792Y-46940295D02*
X41755792Y-47083152D01*
X41755792Y-47083152D02*
X41803411Y-47178390D01*
X41803411Y-47178390D02*
X41851030Y-47226009D01*
X41851030Y-47226009D02*
X41946268Y-47273628D01*
X41946268Y-47273628D02*
X42327220Y-47273628D01*
X41184363Y-47749819D02*
X41279601Y-47702200D01*
X41279601Y-47702200D02*
X41327220Y-47654580D01*
X41327220Y-47654580D02*
X41374839Y-47559342D01*
X41374839Y-47559342D02*
X41374839Y-47273628D01*
X41374839Y-47273628D02*
X41327220Y-47178390D01*
X41327220Y-47178390D02*
X41279601Y-47130771D01*
X41279601Y-47130771D02*
X41184363Y-47083152D01*
X41184363Y-47083152D02*
X41041506Y-47083152D01*
X41041506Y-47083152D02*
X40946268Y-47130771D01*
X40946268Y-47130771D02*
X40898649Y-47178390D01*
X40898649Y-47178390D02*
X40851030Y-47273628D01*
X40851030Y-47273628D02*
X40851030Y-47559342D01*
X40851030Y-47559342D02*
X40898649Y-47654580D01*
X40898649Y-47654580D02*
X40946268Y-47702200D01*
X40946268Y-47702200D02*
X41041506Y-47749819D01*
X41041506Y-47749819D02*
X41184363Y-47749819D01*
X40422458Y-47749819D02*
X40422458Y-47083152D01*
X40422458Y-47178390D02*
X40374839Y-47130771D01*
X40374839Y-47130771D02*
X40279601Y-47083152D01*
X40279601Y-47083152D02*
X40136744Y-47083152D01*
X40136744Y-47083152D02*
X40041506Y-47130771D01*
X40041506Y-47130771D02*
X39993887Y-47226009D01*
X39993887Y-47226009D02*
X39993887Y-47749819D01*
X39993887Y-47226009D02*
X39946268Y-47130771D01*
X39946268Y-47130771D02*
X39851030Y-47083152D01*
X39851030Y-47083152D02*
X39708173Y-47083152D01*
X39708173Y-47083152D02*
X39612934Y-47130771D01*
X39612934Y-47130771D02*
X39565315Y-47226009D01*
X39565315Y-47226009D02*
X39565315Y-47749819D01*
X38708173Y-47702200D02*
X38803411Y-47749819D01*
X38803411Y-47749819D02*
X38993887Y-47749819D01*
X38993887Y-47749819D02*
X39089125Y-47702200D01*
X39089125Y-47702200D02*
X39136744Y-47606961D01*
X39136744Y-47606961D02*
X39136744Y-47226009D01*
X39136744Y-47226009D02*
X39089125Y-47130771D01*
X39089125Y-47130771D02*
X38993887Y-47083152D01*
X38993887Y-47083152D02*
X38803411Y-47083152D01*
X38803411Y-47083152D02*
X38708173Y-47130771D01*
X38708173Y-47130771D02*
X38660554Y-47226009D01*
X38660554Y-47226009D02*
X38660554Y-47321247D01*
X38660554Y-47321247D02*
X39136744Y-47416485D01*
X37660554Y-47654580D02*
X37708173Y-47702200D01*
X37708173Y-47702200D02*
X37851030Y-47749819D01*
X37851030Y-47749819D02*
X37946268Y-47749819D01*
X37946268Y-47749819D02*
X38089125Y-47702200D01*
X38089125Y-47702200D02*
X38184363Y-47606961D01*
X38184363Y-47606961D02*
X38231982Y-47511723D01*
X38231982Y-47511723D02*
X38279601Y-47321247D01*
X38279601Y-47321247D02*
X38279601Y-47178390D01*
X38279601Y-47178390D02*
X38231982Y-46987914D01*
X38231982Y-46987914D02*
X38184363Y-46892676D01*
X38184363Y-46892676D02*
X38089125Y-46797438D01*
X38089125Y-46797438D02*
X37946268Y-46749819D01*
X37946268Y-46749819D02*
X37851030Y-46749819D01*
X37851030Y-46749819D02*
X37708173Y-46797438D01*
X37708173Y-46797438D02*
X37660554Y-46845057D01*
X36803411Y-47083152D02*
X36803411Y-47749819D01*
X37231982Y-47083152D02*
X37231982Y-47606961D01*
X37231982Y-47606961D02*
X37184363Y-47702200D01*
X37184363Y-47702200D02*
X37089125Y-47749819D01*
X37089125Y-47749819D02*
X36946268Y-47749819D01*
X36946268Y-47749819D02*
X36851030Y-47702200D01*
X36851030Y-47702200D02*
X36803411Y-47654580D01*
X36327220Y-47083152D02*
X36327220Y-48083152D01*
X36327220Y-47130771D02*
X36231982Y-47083152D01*
X36231982Y-47083152D02*
X36041506Y-47083152D01*
X36041506Y-47083152D02*
X35946268Y-47130771D01*
X35946268Y-47130771D02*
X35898649Y-47178390D01*
X35898649Y-47178390D02*
X35851030Y-47273628D01*
X35851030Y-47273628D02*
X35851030Y-47559342D01*
X35851030Y-47559342D02*
X35898649Y-47654580D01*
X35898649Y-47654580D02*
X35946268Y-47702200D01*
X35946268Y-47702200D02*
X36041506Y-47749819D01*
X36041506Y-47749819D02*
X36231982Y-47749819D01*
X36231982Y-47749819D02*
X36327220Y-47702200D01*
X34660553Y-47226009D02*
X34327220Y-47226009D01*
X34184363Y-47749819D02*
X34660553Y-47749819D01*
X34660553Y-47749819D02*
X34660553Y-46749819D01*
X34660553Y-46749819D02*
X34184363Y-46749819D01*
X33851029Y-47749819D02*
X33327220Y-47083152D01*
X33851029Y-47083152D02*
X33327220Y-47749819D01*
X32946267Y-47083152D02*
X32946267Y-48083152D01*
X32946267Y-47130771D02*
X32851029Y-47083152D01*
X32851029Y-47083152D02*
X32660553Y-47083152D01*
X32660553Y-47083152D02*
X32565315Y-47130771D01*
X32565315Y-47130771D02*
X32517696Y-47178390D01*
X32517696Y-47178390D02*
X32470077Y-47273628D01*
X32470077Y-47273628D02*
X32470077Y-47559342D01*
X32470077Y-47559342D02*
X32517696Y-47654580D01*
X32517696Y-47654580D02*
X32565315Y-47702200D01*
X32565315Y-47702200D02*
X32660553Y-47749819D01*
X32660553Y-47749819D02*
X32851029Y-47749819D01*
X32851029Y-47749819D02*
X32946267Y-47702200D01*
X31898648Y-47749819D02*
X31993886Y-47702200D01*
X31993886Y-47702200D02*
X32041505Y-47606961D01*
X32041505Y-47606961D02*
X32041505Y-46749819D01*
X31374838Y-47749819D02*
X31470076Y-47702200D01*
X31470076Y-47702200D02*
X31517695Y-47654580D01*
X31517695Y-47654580D02*
X31565314Y-47559342D01*
X31565314Y-47559342D02*
X31565314Y-47273628D01*
X31565314Y-47273628D02*
X31517695Y-47178390D01*
X31517695Y-47178390D02*
X31470076Y-47130771D01*
X31470076Y-47130771D02*
X31374838Y-47083152D01*
X31374838Y-47083152D02*
X31231981Y-47083152D01*
X31231981Y-47083152D02*
X31136743Y-47130771D01*
X31136743Y-47130771D02*
X31089124Y-47178390D01*
X31089124Y-47178390D02*
X31041505Y-47273628D01*
X31041505Y-47273628D02*
X31041505Y-47559342D01*
X31041505Y-47559342D02*
X31089124Y-47654580D01*
X31089124Y-47654580D02*
X31136743Y-47702200D01*
X31136743Y-47702200D02*
X31231981Y-47749819D01*
X31231981Y-47749819D02*
X31374838Y-47749819D01*
X30612933Y-47749819D02*
X30612933Y-47083152D01*
X30612933Y-47273628D02*
X30565314Y-47178390D01*
X30565314Y-47178390D02*
X30517695Y-47130771D01*
X30517695Y-47130771D02*
X30422457Y-47083152D01*
X30422457Y-47083152D02*
X30327219Y-47083152D01*
X29612933Y-47702200D02*
X29708171Y-47749819D01*
X29708171Y-47749819D02*
X29898647Y-47749819D01*
X29898647Y-47749819D02*
X29993885Y-47702200D01*
X29993885Y-47702200D02*
X30041504Y-47606961D01*
X30041504Y-47606961D02*
X30041504Y-47226009D01*
X30041504Y-47226009D02*
X29993885Y-47130771D01*
X29993885Y-47130771D02*
X29898647Y-47083152D01*
X29898647Y-47083152D02*
X29708171Y-47083152D01*
X29708171Y-47083152D02*
X29612933Y-47130771D01*
X29612933Y-47130771D02*
X29565314Y-47226009D01*
X29565314Y-47226009D02*
X29565314Y-47321247D01*
X29565314Y-47321247D02*
X30041504Y-47416485D01*
X29136742Y-47749819D02*
X29136742Y-47083152D01*
X29136742Y-47273628D02*
X29089123Y-47178390D01*
X29089123Y-47178390D02*
X29041504Y-47130771D01*
X29041504Y-47130771D02*
X28946266Y-47083152D01*
X28946266Y-47083152D02*
X28851028Y-47083152D01*
X27279599Y-47749819D02*
X27755789Y-47749819D01*
X27755789Y-47749819D02*
X27755789Y-46749819D01*
X26946265Y-47226009D02*
X26612932Y-47226009D01*
X26470075Y-47749819D02*
X26946265Y-47749819D01*
X26946265Y-47749819D02*
X26946265Y-46749819D01*
X26946265Y-46749819D02*
X26470075Y-46749819D01*
X26041503Y-47749819D02*
X26041503Y-46749819D01*
X26041503Y-46749819D02*
X25803408Y-46749819D01*
X25803408Y-46749819D02*
X25660551Y-46797438D01*
X25660551Y-46797438D02*
X25565313Y-46892676D01*
X25565313Y-46892676D02*
X25517694Y-46987914D01*
X25517694Y-46987914D02*
X25470075Y-47178390D01*
X25470075Y-47178390D02*
X25470075Y-47321247D01*
X25470075Y-47321247D02*
X25517694Y-47511723D01*
X25517694Y-47511723D02*
X25565313Y-47606961D01*
X25565313Y-47606961D02*
X25660551Y-47702200D01*
X25660551Y-47702200D02*
X25803408Y-47749819D01*
X25803408Y-47749819D02*
X26041503Y-47749819D01*
X24327217Y-47702200D02*
X24184360Y-47749819D01*
X24184360Y-47749819D02*
X23946265Y-47749819D01*
X23946265Y-47749819D02*
X23851027Y-47702200D01*
X23851027Y-47702200D02*
X23803408Y-47654580D01*
X23803408Y-47654580D02*
X23755789Y-47559342D01*
X23755789Y-47559342D02*
X23755789Y-47464104D01*
X23755789Y-47464104D02*
X23803408Y-47368866D01*
X23803408Y-47368866D02*
X23851027Y-47321247D01*
X23851027Y-47321247D02*
X23946265Y-47273628D01*
X23946265Y-47273628D02*
X24136741Y-47226009D01*
X24136741Y-47226009D02*
X24231979Y-47178390D01*
X24231979Y-47178390D02*
X24279598Y-47130771D01*
X24279598Y-47130771D02*
X24327217Y-47035533D01*
X24327217Y-47035533D02*
X24327217Y-46940295D01*
X24327217Y-46940295D02*
X24279598Y-46845057D01*
X24279598Y-46845057D02*
X24231979Y-46797438D01*
X24231979Y-46797438D02*
X24136741Y-46749819D01*
X24136741Y-46749819D02*
X23898646Y-46749819D01*
X23898646Y-46749819D02*
X23755789Y-46797438D01*
X23470074Y-47083152D02*
X23089122Y-47083152D01*
X23327217Y-46749819D02*
X23327217Y-47606961D01*
X23327217Y-47606961D02*
X23279598Y-47702200D01*
X23279598Y-47702200D02*
X23184360Y-47749819D01*
X23184360Y-47749819D02*
X23089122Y-47749819D01*
X22327217Y-47749819D02*
X22327217Y-47226009D01*
X22327217Y-47226009D02*
X22374836Y-47130771D01*
X22374836Y-47130771D02*
X22470074Y-47083152D01*
X22470074Y-47083152D02*
X22660550Y-47083152D01*
X22660550Y-47083152D02*
X22755788Y-47130771D01*
X22327217Y-47702200D02*
X22422455Y-47749819D01*
X22422455Y-47749819D02*
X22660550Y-47749819D01*
X22660550Y-47749819D02*
X22755788Y-47702200D01*
X22755788Y-47702200D02*
X22803407Y-47606961D01*
X22803407Y-47606961D02*
X22803407Y-47511723D01*
X22803407Y-47511723D02*
X22755788Y-47416485D01*
X22755788Y-47416485D02*
X22660550Y-47368866D01*
X22660550Y-47368866D02*
X22422455Y-47368866D01*
X22422455Y-47368866D02*
X22327217Y-47321247D01*
X21993883Y-47083152D02*
X21612931Y-47083152D01*
X21851026Y-46749819D02*
X21851026Y-47606961D01*
X21851026Y-47606961D02*
X21803407Y-47702200D01*
X21803407Y-47702200D02*
X21708169Y-47749819D01*
X21708169Y-47749819D02*
X21612931Y-47749819D01*
X21279597Y-47749819D02*
X21279597Y-47083152D01*
X21279597Y-46749819D02*
X21327216Y-46797438D01*
X21327216Y-46797438D02*
X21279597Y-46845057D01*
X21279597Y-46845057D02*
X21231978Y-46797438D01*
X21231978Y-46797438D02*
X21279597Y-46749819D01*
X21279597Y-46749819D02*
X21279597Y-46845057D01*
X20660550Y-47749819D02*
X20755788Y-47702200D01*
X20755788Y-47702200D02*
X20803407Y-47654580D01*
X20803407Y-47654580D02*
X20851026Y-47559342D01*
X20851026Y-47559342D02*
X20851026Y-47273628D01*
X20851026Y-47273628D02*
X20803407Y-47178390D01*
X20803407Y-47178390D02*
X20755788Y-47130771D01*
X20755788Y-47130771D02*
X20660550Y-47083152D01*
X20660550Y-47083152D02*
X20517693Y-47083152D01*
X20517693Y-47083152D02*
X20422455Y-47130771D01*
X20422455Y-47130771D02*
X20374836Y-47178390D01*
X20374836Y-47178390D02*
X20327217Y-47273628D01*
X20327217Y-47273628D02*
X20327217Y-47559342D01*
X20327217Y-47559342D02*
X20374836Y-47654580D01*
X20374836Y-47654580D02*
X20422455Y-47702200D01*
X20422455Y-47702200D02*
X20517693Y-47749819D01*
X20517693Y-47749819D02*
X20660550Y-47749819D01*
X19898645Y-47083152D02*
X19898645Y-47749819D01*
X19898645Y-47178390D02*
X19851026Y-47130771D01*
X19851026Y-47130771D02*
X19755788Y-47083152D01*
X19755788Y-47083152D02*
X19612931Y-47083152D01*
X19612931Y-47083152D02*
X19517693Y-47130771D01*
X19517693Y-47130771D02*
X19470074Y-47226009D01*
X19470074Y-47226009D02*
X19470074Y-47749819D01*
X18231978Y-47749819D02*
X18231978Y-46749819D01*
X18231978Y-46749819D02*
X17851026Y-46749819D01*
X17851026Y-46749819D02*
X17755788Y-46797438D01*
X17755788Y-46797438D02*
X17708169Y-46845057D01*
X17708169Y-46845057D02*
X17660550Y-46940295D01*
X17660550Y-46940295D02*
X17660550Y-47083152D01*
X17660550Y-47083152D02*
X17708169Y-47178390D01*
X17708169Y-47178390D02*
X17755788Y-47226009D01*
X17755788Y-47226009D02*
X17851026Y-47273628D01*
X17851026Y-47273628D02*
X18231978Y-47273628D01*
X16660550Y-47654580D02*
X16708169Y-47702200D01*
X16708169Y-47702200D02*
X16851026Y-47749819D01*
X16851026Y-47749819D02*
X16946264Y-47749819D01*
X16946264Y-47749819D02*
X17089121Y-47702200D01*
X17089121Y-47702200D02*
X17184359Y-47606961D01*
X17184359Y-47606961D02*
X17231978Y-47511723D01*
X17231978Y-47511723D02*
X17279597Y-47321247D01*
X17279597Y-47321247D02*
X17279597Y-47178390D01*
X17279597Y-47178390D02*
X17231978Y-46987914D01*
X17231978Y-46987914D02*
X17184359Y-46892676D01*
X17184359Y-46892676D02*
X17089121Y-46797438D01*
X17089121Y-46797438D02*
X16946264Y-46749819D01*
X16946264Y-46749819D02*
X16851026Y-46749819D01*
X16851026Y-46749819D02*
X16708169Y-46797438D01*
X16708169Y-46797438D02*
X16660550Y-46845057D01*
X15898645Y-47226009D02*
X15755788Y-47273628D01*
X15755788Y-47273628D02*
X15708169Y-47321247D01*
X15708169Y-47321247D02*
X15660550Y-47416485D01*
X15660550Y-47416485D02*
X15660550Y-47559342D01*
X15660550Y-47559342D02*
X15708169Y-47654580D01*
X15708169Y-47654580D02*
X15755788Y-47702200D01*
X15755788Y-47702200D02*
X15851026Y-47749819D01*
X15851026Y-47749819D02*
X16231978Y-47749819D01*
X16231978Y-47749819D02*
X16231978Y-46749819D01*
X16231978Y-46749819D02*
X15898645Y-46749819D01*
X15898645Y-46749819D02*
X15803407Y-46797438D01*
X15803407Y-46797438D02*
X15755788Y-46845057D01*
X15755788Y-46845057D02*
X15708169Y-46940295D01*
X15708169Y-46940295D02*
X15708169Y-47035533D01*
X15708169Y-47035533D02*
X15755788Y-47130771D01*
X15755788Y-47130771D02*
X15803407Y-47178390D01*
X15803407Y-47178390D02*
X15898645Y-47226009D01*
X15898645Y-47226009D02*
X16231978Y-47226009D01*
X42327220Y-50969819D02*
X42327220Y-49969819D01*
X41851030Y-50303152D02*
X41851030Y-50969819D01*
X41851030Y-50398390D02*
X41803411Y-50350771D01*
X41803411Y-50350771D02*
X41708173Y-50303152D01*
X41708173Y-50303152D02*
X41565316Y-50303152D01*
X41565316Y-50303152D02*
X41470078Y-50350771D01*
X41470078Y-50350771D02*
X41422459Y-50446009D01*
X41422459Y-50446009D02*
X41422459Y-50969819D01*
X40946268Y-50303152D02*
X40946268Y-51303152D01*
X40946268Y-50350771D02*
X40851030Y-50303152D01*
X40851030Y-50303152D02*
X40660554Y-50303152D01*
X40660554Y-50303152D02*
X40565316Y-50350771D01*
X40565316Y-50350771D02*
X40517697Y-50398390D01*
X40517697Y-50398390D02*
X40470078Y-50493628D01*
X40470078Y-50493628D02*
X40470078Y-50779342D01*
X40470078Y-50779342D02*
X40517697Y-50874580D01*
X40517697Y-50874580D02*
X40565316Y-50922200D01*
X40565316Y-50922200D02*
X40660554Y-50969819D01*
X40660554Y-50969819D02*
X40851030Y-50969819D01*
X40851030Y-50969819D02*
X40946268Y-50922200D01*
X39612935Y-50303152D02*
X39612935Y-50969819D01*
X40041506Y-50303152D02*
X40041506Y-50826961D01*
X40041506Y-50826961D02*
X39993887Y-50922200D01*
X39993887Y-50922200D02*
X39898649Y-50969819D01*
X39898649Y-50969819D02*
X39755792Y-50969819D01*
X39755792Y-50969819D02*
X39660554Y-50922200D01*
X39660554Y-50922200D02*
X39612935Y-50874580D01*
X39279601Y-50303152D02*
X38898649Y-50303152D01*
X39136744Y-49969819D02*
X39136744Y-50826961D01*
X39136744Y-50826961D02*
X39089125Y-50922200D01*
X39089125Y-50922200D02*
X38993887Y-50969819D01*
X38993887Y-50969819D02*
X38898649Y-50969819D01*
X37898648Y-50303152D02*
X37660553Y-50969819D01*
X37660553Y-50969819D02*
X37422458Y-50303152D01*
X36898648Y-50969819D02*
X36993886Y-50922200D01*
X36993886Y-50922200D02*
X37041505Y-50874580D01*
X37041505Y-50874580D02*
X37089124Y-50779342D01*
X37089124Y-50779342D02*
X37089124Y-50493628D01*
X37089124Y-50493628D02*
X37041505Y-50398390D01*
X37041505Y-50398390D02*
X36993886Y-50350771D01*
X36993886Y-50350771D02*
X36898648Y-50303152D01*
X36898648Y-50303152D02*
X36755791Y-50303152D01*
X36755791Y-50303152D02*
X36660553Y-50350771D01*
X36660553Y-50350771D02*
X36612934Y-50398390D01*
X36612934Y-50398390D02*
X36565315Y-50493628D01*
X36565315Y-50493628D02*
X36565315Y-50779342D01*
X36565315Y-50779342D02*
X36612934Y-50874580D01*
X36612934Y-50874580D02*
X36660553Y-50922200D01*
X36660553Y-50922200D02*
X36755791Y-50969819D01*
X36755791Y-50969819D02*
X36898648Y-50969819D01*
X35993886Y-50969819D02*
X36089124Y-50922200D01*
X36089124Y-50922200D02*
X36136743Y-50826961D01*
X36136743Y-50826961D02*
X36136743Y-49969819D01*
X35755790Y-50303152D02*
X35374838Y-50303152D01*
X35612933Y-49969819D02*
X35612933Y-50826961D01*
X35612933Y-50826961D02*
X35565314Y-50922200D01*
X35565314Y-50922200D02*
X35470076Y-50969819D01*
X35470076Y-50969819D02*
X35374838Y-50969819D01*
X34612933Y-50969819D02*
X34612933Y-50446009D01*
X34612933Y-50446009D02*
X34660552Y-50350771D01*
X34660552Y-50350771D02*
X34755790Y-50303152D01*
X34755790Y-50303152D02*
X34946266Y-50303152D01*
X34946266Y-50303152D02*
X35041504Y-50350771D01*
X34612933Y-50922200D02*
X34708171Y-50969819D01*
X34708171Y-50969819D02*
X34946266Y-50969819D01*
X34946266Y-50969819D02*
X35041504Y-50922200D01*
X35041504Y-50922200D02*
X35089123Y-50826961D01*
X35089123Y-50826961D02*
X35089123Y-50731723D01*
X35089123Y-50731723D02*
X35041504Y-50636485D01*
X35041504Y-50636485D02*
X34946266Y-50588866D01*
X34946266Y-50588866D02*
X34708171Y-50588866D01*
X34708171Y-50588866D02*
X34612933Y-50541247D01*
X33708171Y-50303152D02*
X33708171Y-51112676D01*
X33708171Y-51112676D02*
X33755790Y-51207914D01*
X33755790Y-51207914D02*
X33803409Y-51255533D01*
X33803409Y-51255533D02*
X33898647Y-51303152D01*
X33898647Y-51303152D02*
X34041504Y-51303152D01*
X34041504Y-51303152D02*
X34136742Y-51255533D01*
X33708171Y-50922200D02*
X33803409Y-50969819D01*
X33803409Y-50969819D02*
X33993885Y-50969819D01*
X33993885Y-50969819D02*
X34089123Y-50922200D01*
X34089123Y-50922200D02*
X34136742Y-50874580D01*
X34136742Y-50874580D02*
X34184361Y-50779342D01*
X34184361Y-50779342D02*
X34184361Y-50493628D01*
X34184361Y-50493628D02*
X34136742Y-50398390D01*
X34136742Y-50398390D02*
X34089123Y-50350771D01*
X34089123Y-50350771D02*
X33993885Y-50303152D01*
X33993885Y-50303152D02*
X33803409Y-50303152D01*
X33803409Y-50303152D02*
X33708171Y-50350771D01*
X32851028Y-50922200D02*
X32946266Y-50969819D01*
X32946266Y-50969819D02*
X33136742Y-50969819D01*
X33136742Y-50969819D02*
X33231980Y-50922200D01*
X33231980Y-50922200D02*
X33279599Y-50826961D01*
X33279599Y-50826961D02*
X33279599Y-50446009D01*
X33279599Y-50446009D02*
X33231980Y-50350771D01*
X33231980Y-50350771D02*
X33136742Y-50303152D01*
X33136742Y-50303152D02*
X32946266Y-50303152D01*
X32946266Y-50303152D02*
X32851028Y-50350771D01*
X32851028Y-50350771D02*
X32803409Y-50446009D01*
X32803409Y-50446009D02*
X32803409Y-50541247D01*
X32803409Y-50541247D02*
X33279599Y-50636485D01*
X31136742Y-49969819D02*
X31612932Y-49969819D01*
X31612932Y-49969819D02*
X31660551Y-50446009D01*
X31660551Y-50446009D02*
X31612932Y-50398390D01*
X31612932Y-50398390D02*
X31517694Y-50350771D01*
X31517694Y-50350771D02*
X31279599Y-50350771D01*
X31279599Y-50350771D02*
X31184361Y-50398390D01*
X31184361Y-50398390D02*
X31136742Y-50446009D01*
X31136742Y-50446009D02*
X31089123Y-50541247D01*
X31089123Y-50541247D02*
X31089123Y-50779342D01*
X31089123Y-50779342D02*
X31136742Y-50874580D01*
X31136742Y-50874580D02*
X31184361Y-50922200D01*
X31184361Y-50922200D02*
X31279599Y-50969819D01*
X31279599Y-50969819D02*
X31517694Y-50969819D01*
X31517694Y-50969819D02*
X31612932Y-50922200D01*
X31612932Y-50922200D02*
X31660551Y-50874580D01*
X30803408Y-50588866D02*
X30755789Y-50541247D01*
X30755789Y-50541247D02*
X30660551Y-50493628D01*
X30660551Y-50493628D02*
X30470075Y-50588866D01*
X30470075Y-50588866D02*
X30374837Y-50541247D01*
X30374837Y-50541247D02*
X30327218Y-50493628D01*
X29517694Y-49969819D02*
X29708170Y-49969819D01*
X29708170Y-49969819D02*
X29803408Y-50017438D01*
X29803408Y-50017438D02*
X29851027Y-50065057D01*
X29851027Y-50065057D02*
X29946265Y-50207914D01*
X29946265Y-50207914D02*
X29993884Y-50398390D01*
X29993884Y-50398390D02*
X29993884Y-50779342D01*
X29993884Y-50779342D02*
X29946265Y-50874580D01*
X29946265Y-50874580D02*
X29898646Y-50922200D01*
X29898646Y-50922200D02*
X29803408Y-50969819D01*
X29803408Y-50969819D02*
X29612932Y-50969819D01*
X29612932Y-50969819D02*
X29517694Y-50922200D01*
X29517694Y-50922200D02*
X29470075Y-50874580D01*
X29470075Y-50874580D02*
X29422456Y-50779342D01*
X29422456Y-50779342D02*
X29422456Y-50541247D01*
X29422456Y-50541247D02*
X29470075Y-50446009D01*
X29470075Y-50446009D02*
X29517694Y-50398390D01*
X29517694Y-50398390D02*
X29612932Y-50350771D01*
X29612932Y-50350771D02*
X29803408Y-50350771D01*
X29803408Y-50350771D02*
X29898646Y-50398390D01*
X29898646Y-50398390D02*
X29946265Y-50446009D01*
X29946265Y-50446009D02*
X29993884Y-50541247D01*
X29136741Y-49969819D02*
X28803408Y-50969819D01*
X28803408Y-50969819D02*
X28470075Y-49969819D01*
X92883792Y-47749819D02*
X93217125Y-47273628D01*
X93455220Y-47749819D02*
X93455220Y-46749819D01*
X93455220Y-46749819D02*
X93074268Y-46749819D01*
X93074268Y-46749819D02*
X92979030Y-46797438D01*
X92979030Y-46797438D02*
X92931411Y-46845057D01*
X92931411Y-46845057D02*
X92883792Y-46940295D01*
X92883792Y-46940295D02*
X92883792Y-47083152D01*
X92883792Y-47083152D02*
X92931411Y-47178390D01*
X92931411Y-47178390D02*
X92979030Y-47226009D01*
X92979030Y-47226009D02*
X93074268Y-47273628D01*
X93074268Y-47273628D02*
X93455220Y-47273628D01*
X92312363Y-47749819D02*
X92407601Y-47702200D01*
X92407601Y-47702200D02*
X92455220Y-47654580D01*
X92455220Y-47654580D02*
X92502839Y-47559342D01*
X92502839Y-47559342D02*
X92502839Y-47273628D01*
X92502839Y-47273628D02*
X92455220Y-47178390D01*
X92455220Y-47178390D02*
X92407601Y-47130771D01*
X92407601Y-47130771D02*
X92312363Y-47083152D01*
X92312363Y-47083152D02*
X92169506Y-47083152D01*
X92169506Y-47083152D02*
X92074268Y-47130771D01*
X92074268Y-47130771D02*
X92026649Y-47178390D01*
X92026649Y-47178390D02*
X91979030Y-47273628D01*
X91979030Y-47273628D02*
X91979030Y-47559342D01*
X91979030Y-47559342D02*
X92026649Y-47654580D01*
X92026649Y-47654580D02*
X92074268Y-47702200D01*
X92074268Y-47702200D02*
X92169506Y-47749819D01*
X92169506Y-47749819D02*
X92312363Y-47749819D01*
X91550458Y-47749819D02*
X91550458Y-47083152D01*
X91550458Y-47178390D02*
X91502839Y-47130771D01*
X91502839Y-47130771D02*
X91407601Y-47083152D01*
X91407601Y-47083152D02*
X91264744Y-47083152D01*
X91264744Y-47083152D02*
X91169506Y-47130771D01*
X91169506Y-47130771D02*
X91121887Y-47226009D01*
X91121887Y-47226009D02*
X91121887Y-47749819D01*
X91121887Y-47226009D02*
X91074268Y-47130771D01*
X91074268Y-47130771D02*
X90979030Y-47083152D01*
X90979030Y-47083152D02*
X90836173Y-47083152D01*
X90836173Y-47083152D02*
X90740934Y-47130771D01*
X90740934Y-47130771D02*
X90693315Y-47226009D01*
X90693315Y-47226009D02*
X90693315Y-47749819D01*
X89836173Y-47702200D02*
X89931411Y-47749819D01*
X89931411Y-47749819D02*
X90121887Y-47749819D01*
X90121887Y-47749819D02*
X90217125Y-47702200D01*
X90217125Y-47702200D02*
X90264744Y-47606961D01*
X90264744Y-47606961D02*
X90264744Y-47226009D01*
X90264744Y-47226009D02*
X90217125Y-47130771D01*
X90217125Y-47130771D02*
X90121887Y-47083152D01*
X90121887Y-47083152D02*
X89931411Y-47083152D01*
X89931411Y-47083152D02*
X89836173Y-47130771D01*
X89836173Y-47130771D02*
X89788554Y-47226009D01*
X89788554Y-47226009D02*
X89788554Y-47321247D01*
X89788554Y-47321247D02*
X90264744Y-47416485D01*
X88788554Y-47654580D02*
X88836173Y-47702200D01*
X88836173Y-47702200D02*
X88979030Y-47749819D01*
X88979030Y-47749819D02*
X89074268Y-47749819D01*
X89074268Y-47749819D02*
X89217125Y-47702200D01*
X89217125Y-47702200D02*
X89312363Y-47606961D01*
X89312363Y-47606961D02*
X89359982Y-47511723D01*
X89359982Y-47511723D02*
X89407601Y-47321247D01*
X89407601Y-47321247D02*
X89407601Y-47178390D01*
X89407601Y-47178390D02*
X89359982Y-46987914D01*
X89359982Y-46987914D02*
X89312363Y-46892676D01*
X89312363Y-46892676D02*
X89217125Y-46797438D01*
X89217125Y-46797438D02*
X89074268Y-46749819D01*
X89074268Y-46749819D02*
X88979030Y-46749819D01*
X88979030Y-46749819D02*
X88836173Y-46797438D01*
X88836173Y-46797438D02*
X88788554Y-46845057D01*
X87931411Y-47083152D02*
X87931411Y-47749819D01*
X88359982Y-47083152D02*
X88359982Y-47606961D01*
X88359982Y-47606961D02*
X88312363Y-47702200D01*
X88312363Y-47702200D02*
X88217125Y-47749819D01*
X88217125Y-47749819D02*
X88074268Y-47749819D01*
X88074268Y-47749819D02*
X87979030Y-47702200D01*
X87979030Y-47702200D02*
X87931411Y-47654580D01*
X87455220Y-47083152D02*
X87455220Y-48083152D01*
X87455220Y-47130771D02*
X87359982Y-47083152D01*
X87359982Y-47083152D02*
X87169506Y-47083152D01*
X87169506Y-47083152D02*
X87074268Y-47130771D01*
X87074268Y-47130771D02*
X87026649Y-47178390D01*
X87026649Y-47178390D02*
X86979030Y-47273628D01*
X86979030Y-47273628D02*
X86979030Y-47559342D01*
X86979030Y-47559342D02*
X87026649Y-47654580D01*
X87026649Y-47654580D02*
X87074268Y-47702200D01*
X87074268Y-47702200D02*
X87169506Y-47749819D01*
X87169506Y-47749819D02*
X87359982Y-47749819D01*
X87359982Y-47749819D02*
X87455220Y-47702200D01*
X85788553Y-47226009D02*
X85455220Y-47226009D01*
X85312363Y-47749819D02*
X85788553Y-47749819D01*
X85788553Y-47749819D02*
X85788553Y-46749819D01*
X85788553Y-46749819D02*
X85312363Y-46749819D01*
X84979029Y-47749819D02*
X84455220Y-47083152D01*
X84979029Y-47083152D02*
X84455220Y-47749819D01*
X84074267Y-47083152D02*
X84074267Y-48083152D01*
X84074267Y-47130771D02*
X83979029Y-47083152D01*
X83979029Y-47083152D02*
X83788553Y-47083152D01*
X83788553Y-47083152D02*
X83693315Y-47130771D01*
X83693315Y-47130771D02*
X83645696Y-47178390D01*
X83645696Y-47178390D02*
X83598077Y-47273628D01*
X83598077Y-47273628D02*
X83598077Y-47559342D01*
X83598077Y-47559342D02*
X83645696Y-47654580D01*
X83645696Y-47654580D02*
X83693315Y-47702200D01*
X83693315Y-47702200D02*
X83788553Y-47749819D01*
X83788553Y-47749819D02*
X83979029Y-47749819D01*
X83979029Y-47749819D02*
X84074267Y-47702200D01*
X83026648Y-47749819D02*
X83121886Y-47702200D01*
X83121886Y-47702200D02*
X83169505Y-47606961D01*
X83169505Y-47606961D02*
X83169505Y-46749819D01*
X82502838Y-47749819D02*
X82598076Y-47702200D01*
X82598076Y-47702200D02*
X82645695Y-47654580D01*
X82645695Y-47654580D02*
X82693314Y-47559342D01*
X82693314Y-47559342D02*
X82693314Y-47273628D01*
X82693314Y-47273628D02*
X82645695Y-47178390D01*
X82645695Y-47178390D02*
X82598076Y-47130771D01*
X82598076Y-47130771D02*
X82502838Y-47083152D01*
X82502838Y-47083152D02*
X82359981Y-47083152D01*
X82359981Y-47083152D02*
X82264743Y-47130771D01*
X82264743Y-47130771D02*
X82217124Y-47178390D01*
X82217124Y-47178390D02*
X82169505Y-47273628D01*
X82169505Y-47273628D02*
X82169505Y-47559342D01*
X82169505Y-47559342D02*
X82217124Y-47654580D01*
X82217124Y-47654580D02*
X82264743Y-47702200D01*
X82264743Y-47702200D02*
X82359981Y-47749819D01*
X82359981Y-47749819D02*
X82502838Y-47749819D01*
X81740933Y-47749819D02*
X81740933Y-47083152D01*
X81740933Y-47273628D02*
X81693314Y-47178390D01*
X81693314Y-47178390D02*
X81645695Y-47130771D01*
X81645695Y-47130771D02*
X81550457Y-47083152D01*
X81550457Y-47083152D02*
X81455219Y-47083152D01*
X80740933Y-47702200D02*
X80836171Y-47749819D01*
X80836171Y-47749819D02*
X81026647Y-47749819D01*
X81026647Y-47749819D02*
X81121885Y-47702200D01*
X81121885Y-47702200D02*
X81169504Y-47606961D01*
X81169504Y-47606961D02*
X81169504Y-47226009D01*
X81169504Y-47226009D02*
X81121885Y-47130771D01*
X81121885Y-47130771D02*
X81026647Y-47083152D01*
X81026647Y-47083152D02*
X80836171Y-47083152D01*
X80836171Y-47083152D02*
X80740933Y-47130771D01*
X80740933Y-47130771D02*
X80693314Y-47226009D01*
X80693314Y-47226009D02*
X80693314Y-47321247D01*
X80693314Y-47321247D02*
X81169504Y-47416485D01*
X80264742Y-47749819D02*
X80264742Y-47083152D01*
X80264742Y-47273628D02*
X80217123Y-47178390D01*
X80217123Y-47178390D02*
X80169504Y-47130771D01*
X80169504Y-47130771D02*
X80074266Y-47083152D01*
X80074266Y-47083152D02*
X79979028Y-47083152D01*
X78407599Y-47749819D02*
X78883789Y-47749819D01*
X78883789Y-47749819D02*
X78883789Y-46749819D01*
X78074265Y-47226009D02*
X77740932Y-47226009D01*
X77598075Y-47749819D02*
X78074265Y-47749819D01*
X78074265Y-47749819D02*
X78074265Y-46749819D01*
X78074265Y-46749819D02*
X77598075Y-46749819D01*
X77169503Y-47749819D02*
X77169503Y-46749819D01*
X77169503Y-46749819D02*
X76931408Y-46749819D01*
X76931408Y-46749819D02*
X76788551Y-46797438D01*
X76788551Y-46797438D02*
X76693313Y-46892676D01*
X76693313Y-46892676D02*
X76645694Y-46987914D01*
X76645694Y-46987914D02*
X76598075Y-47178390D01*
X76598075Y-47178390D02*
X76598075Y-47321247D01*
X76598075Y-47321247D02*
X76645694Y-47511723D01*
X76645694Y-47511723D02*
X76693313Y-47606961D01*
X76693313Y-47606961D02*
X76788551Y-47702200D01*
X76788551Y-47702200D02*
X76931408Y-47749819D01*
X76931408Y-47749819D02*
X77169503Y-47749819D01*
X75455217Y-47702200D02*
X75312360Y-47749819D01*
X75312360Y-47749819D02*
X75074265Y-47749819D01*
X75074265Y-47749819D02*
X74979027Y-47702200D01*
X74979027Y-47702200D02*
X74931408Y-47654580D01*
X74931408Y-47654580D02*
X74883789Y-47559342D01*
X74883789Y-47559342D02*
X74883789Y-47464104D01*
X74883789Y-47464104D02*
X74931408Y-47368866D01*
X74931408Y-47368866D02*
X74979027Y-47321247D01*
X74979027Y-47321247D02*
X75074265Y-47273628D01*
X75074265Y-47273628D02*
X75264741Y-47226009D01*
X75264741Y-47226009D02*
X75359979Y-47178390D01*
X75359979Y-47178390D02*
X75407598Y-47130771D01*
X75407598Y-47130771D02*
X75455217Y-47035533D01*
X75455217Y-47035533D02*
X75455217Y-46940295D01*
X75455217Y-46940295D02*
X75407598Y-46845057D01*
X75407598Y-46845057D02*
X75359979Y-46797438D01*
X75359979Y-46797438D02*
X75264741Y-46749819D01*
X75264741Y-46749819D02*
X75026646Y-46749819D01*
X75026646Y-46749819D02*
X74883789Y-46797438D01*
X74598074Y-47083152D02*
X74217122Y-47083152D01*
X74455217Y-46749819D02*
X74455217Y-47606961D01*
X74455217Y-47606961D02*
X74407598Y-47702200D01*
X74407598Y-47702200D02*
X74312360Y-47749819D01*
X74312360Y-47749819D02*
X74217122Y-47749819D01*
X73455217Y-47749819D02*
X73455217Y-47226009D01*
X73455217Y-47226009D02*
X73502836Y-47130771D01*
X73502836Y-47130771D02*
X73598074Y-47083152D01*
X73598074Y-47083152D02*
X73788550Y-47083152D01*
X73788550Y-47083152D02*
X73883788Y-47130771D01*
X73455217Y-47702200D02*
X73550455Y-47749819D01*
X73550455Y-47749819D02*
X73788550Y-47749819D01*
X73788550Y-47749819D02*
X73883788Y-47702200D01*
X73883788Y-47702200D02*
X73931407Y-47606961D01*
X73931407Y-47606961D02*
X73931407Y-47511723D01*
X73931407Y-47511723D02*
X73883788Y-47416485D01*
X73883788Y-47416485D02*
X73788550Y-47368866D01*
X73788550Y-47368866D02*
X73550455Y-47368866D01*
X73550455Y-47368866D02*
X73455217Y-47321247D01*
X73121883Y-47083152D02*
X72740931Y-47083152D01*
X72979026Y-46749819D02*
X72979026Y-47606961D01*
X72979026Y-47606961D02*
X72931407Y-47702200D01*
X72931407Y-47702200D02*
X72836169Y-47749819D01*
X72836169Y-47749819D02*
X72740931Y-47749819D01*
X72407597Y-47749819D02*
X72407597Y-47083152D01*
X72407597Y-46749819D02*
X72455216Y-46797438D01*
X72455216Y-46797438D02*
X72407597Y-46845057D01*
X72407597Y-46845057D02*
X72359978Y-46797438D01*
X72359978Y-46797438D02*
X72407597Y-46749819D01*
X72407597Y-46749819D02*
X72407597Y-46845057D01*
X71788550Y-47749819D02*
X71883788Y-47702200D01*
X71883788Y-47702200D02*
X71931407Y-47654580D01*
X71931407Y-47654580D02*
X71979026Y-47559342D01*
X71979026Y-47559342D02*
X71979026Y-47273628D01*
X71979026Y-47273628D02*
X71931407Y-47178390D01*
X71931407Y-47178390D02*
X71883788Y-47130771D01*
X71883788Y-47130771D02*
X71788550Y-47083152D01*
X71788550Y-47083152D02*
X71645693Y-47083152D01*
X71645693Y-47083152D02*
X71550455Y-47130771D01*
X71550455Y-47130771D02*
X71502836Y-47178390D01*
X71502836Y-47178390D02*
X71455217Y-47273628D01*
X71455217Y-47273628D02*
X71455217Y-47559342D01*
X71455217Y-47559342D02*
X71502836Y-47654580D01*
X71502836Y-47654580D02*
X71550455Y-47702200D01*
X71550455Y-47702200D02*
X71645693Y-47749819D01*
X71645693Y-47749819D02*
X71788550Y-47749819D01*
X71026645Y-47083152D02*
X71026645Y-47749819D01*
X71026645Y-47178390D02*
X70979026Y-47130771D01*
X70979026Y-47130771D02*
X70883788Y-47083152D01*
X70883788Y-47083152D02*
X70740931Y-47083152D01*
X70740931Y-47083152D02*
X70645693Y-47130771D01*
X70645693Y-47130771D02*
X70598074Y-47226009D01*
X70598074Y-47226009D02*
X70598074Y-47749819D01*
X69359978Y-47749819D02*
X69359978Y-46749819D01*
X69359978Y-46749819D02*
X68979026Y-46749819D01*
X68979026Y-46749819D02*
X68883788Y-46797438D01*
X68883788Y-46797438D02*
X68836169Y-46845057D01*
X68836169Y-46845057D02*
X68788550Y-46940295D01*
X68788550Y-46940295D02*
X68788550Y-47083152D01*
X68788550Y-47083152D02*
X68836169Y-47178390D01*
X68836169Y-47178390D02*
X68883788Y-47226009D01*
X68883788Y-47226009D02*
X68979026Y-47273628D01*
X68979026Y-47273628D02*
X69359978Y-47273628D01*
X67788550Y-47654580D02*
X67836169Y-47702200D01*
X67836169Y-47702200D02*
X67979026Y-47749819D01*
X67979026Y-47749819D02*
X68074264Y-47749819D01*
X68074264Y-47749819D02*
X68217121Y-47702200D01*
X68217121Y-47702200D02*
X68312359Y-47606961D01*
X68312359Y-47606961D02*
X68359978Y-47511723D01*
X68359978Y-47511723D02*
X68407597Y-47321247D01*
X68407597Y-47321247D02*
X68407597Y-47178390D01*
X68407597Y-47178390D02*
X68359978Y-46987914D01*
X68359978Y-46987914D02*
X68312359Y-46892676D01*
X68312359Y-46892676D02*
X68217121Y-46797438D01*
X68217121Y-46797438D02*
X68074264Y-46749819D01*
X68074264Y-46749819D02*
X67979026Y-46749819D01*
X67979026Y-46749819D02*
X67836169Y-46797438D01*
X67836169Y-46797438D02*
X67788550Y-46845057D01*
X67026645Y-47226009D02*
X66883788Y-47273628D01*
X66883788Y-47273628D02*
X66836169Y-47321247D01*
X66836169Y-47321247D02*
X66788550Y-47416485D01*
X66788550Y-47416485D02*
X66788550Y-47559342D01*
X66788550Y-47559342D02*
X66836169Y-47654580D01*
X66836169Y-47654580D02*
X66883788Y-47702200D01*
X66883788Y-47702200D02*
X66979026Y-47749819D01*
X66979026Y-47749819D02*
X67359978Y-47749819D01*
X67359978Y-47749819D02*
X67359978Y-46749819D01*
X67359978Y-46749819D02*
X67026645Y-46749819D01*
X67026645Y-46749819D02*
X66931407Y-46797438D01*
X66931407Y-46797438D02*
X66883788Y-46845057D01*
X66883788Y-46845057D02*
X66836169Y-46940295D01*
X66836169Y-46940295D02*
X66836169Y-47035533D01*
X66836169Y-47035533D02*
X66883788Y-47130771D01*
X66883788Y-47130771D02*
X66931407Y-47178390D01*
X66931407Y-47178390D02*
X67026645Y-47226009D01*
X67026645Y-47226009D02*
X67359978Y-47226009D01*
X93455220Y-50969819D02*
X93455220Y-49969819D01*
X92979030Y-50303152D02*
X92979030Y-50969819D01*
X92979030Y-50398390D02*
X92931411Y-50350771D01*
X92931411Y-50350771D02*
X92836173Y-50303152D01*
X92836173Y-50303152D02*
X92693316Y-50303152D01*
X92693316Y-50303152D02*
X92598078Y-50350771D01*
X92598078Y-50350771D02*
X92550459Y-50446009D01*
X92550459Y-50446009D02*
X92550459Y-50969819D01*
X92074268Y-50303152D02*
X92074268Y-51303152D01*
X92074268Y-50350771D02*
X91979030Y-50303152D01*
X91979030Y-50303152D02*
X91788554Y-50303152D01*
X91788554Y-50303152D02*
X91693316Y-50350771D01*
X91693316Y-50350771D02*
X91645697Y-50398390D01*
X91645697Y-50398390D02*
X91598078Y-50493628D01*
X91598078Y-50493628D02*
X91598078Y-50779342D01*
X91598078Y-50779342D02*
X91645697Y-50874580D01*
X91645697Y-50874580D02*
X91693316Y-50922200D01*
X91693316Y-50922200D02*
X91788554Y-50969819D01*
X91788554Y-50969819D02*
X91979030Y-50969819D01*
X91979030Y-50969819D02*
X92074268Y-50922200D01*
X90740935Y-50303152D02*
X90740935Y-50969819D01*
X91169506Y-50303152D02*
X91169506Y-50826961D01*
X91169506Y-50826961D02*
X91121887Y-50922200D01*
X91121887Y-50922200D02*
X91026649Y-50969819D01*
X91026649Y-50969819D02*
X90883792Y-50969819D01*
X90883792Y-50969819D02*
X90788554Y-50922200D01*
X90788554Y-50922200D02*
X90740935Y-50874580D01*
X90407601Y-50303152D02*
X90026649Y-50303152D01*
X90264744Y-49969819D02*
X90264744Y-50826961D01*
X90264744Y-50826961D02*
X90217125Y-50922200D01*
X90217125Y-50922200D02*
X90121887Y-50969819D01*
X90121887Y-50969819D02*
X90026649Y-50969819D01*
X89026648Y-50303152D02*
X88788553Y-50969819D01*
X88788553Y-50969819D02*
X88550458Y-50303152D01*
X88026648Y-50969819D02*
X88121886Y-50922200D01*
X88121886Y-50922200D02*
X88169505Y-50874580D01*
X88169505Y-50874580D02*
X88217124Y-50779342D01*
X88217124Y-50779342D02*
X88217124Y-50493628D01*
X88217124Y-50493628D02*
X88169505Y-50398390D01*
X88169505Y-50398390D02*
X88121886Y-50350771D01*
X88121886Y-50350771D02*
X88026648Y-50303152D01*
X88026648Y-50303152D02*
X87883791Y-50303152D01*
X87883791Y-50303152D02*
X87788553Y-50350771D01*
X87788553Y-50350771D02*
X87740934Y-50398390D01*
X87740934Y-50398390D02*
X87693315Y-50493628D01*
X87693315Y-50493628D02*
X87693315Y-50779342D01*
X87693315Y-50779342D02*
X87740934Y-50874580D01*
X87740934Y-50874580D02*
X87788553Y-50922200D01*
X87788553Y-50922200D02*
X87883791Y-50969819D01*
X87883791Y-50969819D02*
X88026648Y-50969819D01*
X87121886Y-50969819D02*
X87217124Y-50922200D01*
X87217124Y-50922200D02*
X87264743Y-50826961D01*
X87264743Y-50826961D02*
X87264743Y-49969819D01*
X86883790Y-50303152D02*
X86502838Y-50303152D01*
X86740933Y-49969819D02*
X86740933Y-50826961D01*
X86740933Y-50826961D02*
X86693314Y-50922200D01*
X86693314Y-50922200D02*
X86598076Y-50969819D01*
X86598076Y-50969819D02*
X86502838Y-50969819D01*
X85740933Y-50969819D02*
X85740933Y-50446009D01*
X85740933Y-50446009D02*
X85788552Y-50350771D01*
X85788552Y-50350771D02*
X85883790Y-50303152D01*
X85883790Y-50303152D02*
X86074266Y-50303152D01*
X86074266Y-50303152D02*
X86169504Y-50350771D01*
X85740933Y-50922200D02*
X85836171Y-50969819D01*
X85836171Y-50969819D02*
X86074266Y-50969819D01*
X86074266Y-50969819D02*
X86169504Y-50922200D01*
X86169504Y-50922200D02*
X86217123Y-50826961D01*
X86217123Y-50826961D02*
X86217123Y-50731723D01*
X86217123Y-50731723D02*
X86169504Y-50636485D01*
X86169504Y-50636485D02*
X86074266Y-50588866D01*
X86074266Y-50588866D02*
X85836171Y-50588866D01*
X85836171Y-50588866D02*
X85740933Y-50541247D01*
X84836171Y-50303152D02*
X84836171Y-51112676D01*
X84836171Y-51112676D02*
X84883790Y-51207914D01*
X84883790Y-51207914D02*
X84931409Y-51255533D01*
X84931409Y-51255533D02*
X85026647Y-51303152D01*
X85026647Y-51303152D02*
X85169504Y-51303152D01*
X85169504Y-51303152D02*
X85264742Y-51255533D01*
X84836171Y-50922200D02*
X84931409Y-50969819D01*
X84931409Y-50969819D02*
X85121885Y-50969819D01*
X85121885Y-50969819D02*
X85217123Y-50922200D01*
X85217123Y-50922200D02*
X85264742Y-50874580D01*
X85264742Y-50874580D02*
X85312361Y-50779342D01*
X85312361Y-50779342D02*
X85312361Y-50493628D01*
X85312361Y-50493628D02*
X85264742Y-50398390D01*
X85264742Y-50398390D02*
X85217123Y-50350771D01*
X85217123Y-50350771D02*
X85121885Y-50303152D01*
X85121885Y-50303152D02*
X84931409Y-50303152D01*
X84931409Y-50303152D02*
X84836171Y-50350771D01*
X83979028Y-50922200D02*
X84074266Y-50969819D01*
X84074266Y-50969819D02*
X84264742Y-50969819D01*
X84264742Y-50969819D02*
X84359980Y-50922200D01*
X84359980Y-50922200D02*
X84407599Y-50826961D01*
X84407599Y-50826961D02*
X84407599Y-50446009D01*
X84407599Y-50446009D02*
X84359980Y-50350771D01*
X84359980Y-50350771D02*
X84264742Y-50303152D01*
X84264742Y-50303152D02*
X84074266Y-50303152D01*
X84074266Y-50303152D02*
X83979028Y-50350771D01*
X83979028Y-50350771D02*
X83931409Y-50446009D01*
X83931409Y-50446009D02*
X83931409Y-50541247D01*
X83931409Y-50541247D02*
X84407599Y-50636485D01*
X82264742Y-49969819D02*
X82740932Y-49969819D01*
X82740932Y-49969819D02*
X82788551Y-50446009D01*
X82788551Y-50446009D02*
X82740932Y-50398390D01*
X82740932Y-50398390D02*
X82645694Y-50350771D01*
X82645694Y-50350771D02*
X82407599Y-50350771D01*
X82407599Y-50350771D02*
X82312361Y-50398390D01*
X82312361Y-50398390D02*
X82264742Y-50446009D01*
X82264742Y-50446009D02*
X82217123Y-50541247D01*
X82217123Y-50541247D02*
X82217123Y-50779342D01*
X82217123Y-50779342D02*
X82264742Y-50874580D01*
X82264742Y-50874580D02*
X82312361Y-50922200D01*
X82312361Y-50922200D02*
X82407599Y-50969819D01*
X82407599Y-50969819D02*
X82645694Y-50969819D01*
X82645694Y-50969819D02*
X82740932Y-50922200D01*
X82740932Y-50922200D02*
X82788551Y-50874580D01*
X81931408Y-50588866D02*
X81883789Y-50541247D01*
X81883789Y-50541247D02*
X81788551Y-50493628D01*
X81788551Y-50493628D02*
X81598075Y-50588866D01*
X81598075Y-50588866D02*
X81502837Y-50541247D01*
X81502837Y-50541247D02*
X81455218Y-50493628D01*
X80645694Y-49969819D02*
X80836170Y-49969819D01*
X80836170Y-49969819D02*
X80931408Y-50017438D01*
X80931408Y-50017438D02*
X80979027Y-50065057D01*
X80979027Y-50065057D02*
X81074265Y-50207914D01*
X81074265Y-50207914D02*
X81121884Y-50398390D01*
X81121884Y-50398390D02*
X81121884Y-50779342D01*
X81121884Y-50779342D02*
X81074265Y-50874580D01*
X81074265Y-50874580D02*
X81026646Y-50922200D01*
X81026646Y-50922200D02*
X80931408Y-50969819D01*
X80931408Y-50969819D02*
X80740932Y-50969819D01*
X80740932Y-50969819D02*
X80645694Y-50922200D01*
X80645694Y-50922200D02*
X80598075Y-50874580D01*
X80598075Y-50874580D02*
X80550456Y-50779342D01*
X80550456Y-50779342D02*
X80550456Y-50541247D01*
X80550456Y-50541247D02*
X80598075Y-50446009D01*
X80598075Y-50446009D02*
X80645694Y-50398390D01*
X80645694Y-50398390D02*
X80740932Y-50350771D01*
X80740932Y-50350771D02*
X80931408Y-50350771D01*
X80931408Y-50350771D02*
X81026646Y-50398390D01*
X81026646Y-50398390D02*
X81074265Y-50446009D01*
X81074265Y-50446009D02*
X81121884Y-50541247D01*
X80264741Y-49969819D02*
X79931408Y-50969819D01*
X79931408Y-50969819D02*
X79598075Y-49969819D01*
X93145792Y-7540819D02*
X93479125Y-7064628D01*
X93717220Y-7540819D02*
X93717220Y-6540819D01*
X93717220Y-6540819D02*
X93336268Y-6540819D01*
X93336268Y-6540819D02*
X93241030Y-6588438D01*
X93241030Y-6588438D02*
X93193411Y-6636057D01*
X93193411Y-6636057D02*
X93145792Y-6731295D01*
X93145792Y-6731295D02*
X93145792Y-6874152D01*
X93145792Y-6874152D02*
X93193411Y-6969390D01*
X93193411Y-6969390D02*
X93241030Y-7017009D01*
X93241030Y-7017009D02*
X93336268Y-7064628D01*
X93336268Y-7064628D02*
X93717220Y-7064628D01*
X92574363Y-7540819D02*
X92669601Y-7493200D01*
X92669601Y-7493200D02*
X92717220Y-7445580D01*
X92717220Y-7445580D02*
X92764839Y-7350342D01*
X92764839Y-7350342D02*
X92764839Y-7064628D01*
X92764839Y-7064628D02*
X92717220Y-6969390D01*
X92717220Y-6969390D02*
X92669601Y-6921771D01*
X92669601Y-6921771D02*
X92574363Y-6874152D01*
X92574363Y-6874152D02*
X92431506Y-6874152D01*
X92431506Y-6874152D02*
X92336268Y-6921771D01*
X92336268Y-6921771D02*
X92288649Y-6969390D01*
X92288649Y-6969390D02*
X92241030Y-7064628D01*
X92241030Y-7064628D02*
X92241030Y-7350342D01*
X92241030Y-7350342D02*
X92288649Y-7445580D01*
X92288649Y-7445580D02*
X92336268Y-7493200D01*
X92336268Y-7493200D02*
X92431506Y-7540819D01*
X92431506Y-7540819D02*
X92574363Y-7540819D01*
X91812458Y-7540819D02*
X91812458Y-6874152D01*
X91812458Y-6969390D02*
X91764839Y-6921771D01*
X91764839Y-6921771D02*
X91669601Y-6874152D01*
X91669601Y-6874152D02*
X91526744Y-6874152D01*
X91526744Y-6874152D02*
X91431506Y-6921771D01*
X91431506Y-6921771D02*
X91383887Y-7017009D01*
X91383887Y-7017009D02*
X91383887Y-7540819D01*
X91383887Y-7017009D02*
X91336268Y-6921771D01*
X91336268Y-6921771D02*
X91241030Y-6874152D01*
X91241030Y-6874152D02*
X91098173Y-6874152D01*
X91098173Y-6874152D02*
X91002934Y-6921771D01*
X91002934Y-6921771D02*
X90955315Y-7017009D01*
X90955315Y-7017009D02*
X90955315Y-7540819D01*
X90098173Y-7493200D02*
X90193411Y-7540819D01*
X90193411Y-7540819D02*
X90383887Y-7540819D01*
X90383887Y-7540819D02*
X90479125Y-7493200D01*
X90479125Y-7493200D02*
X90526744Y-7397961D01*
X90526744Y-7397961D02*
X90526744Y-7017009D01*
X90526744Y-7017009D02*
X90479125Y-6921771D01*
X90479125Y-6921771D02*
X90383887Y-6874152D01*
X90383887Y-6874152D02*
X90193411Y-6874152D01*
X90193411Y-6874152D02*
X90098173Y-6921771D01*
X90098173Y-6921771D02*
X90050554Y-7017009D01*
X90050554Y-7017009D02*
X90050554Y-7112247D01*
X90050554Y-7112247D02*
X90526744Y-7207485D01*
X89050554Y-7445580D02*
X89098173Y-7493200D01*
X89098173Y-7493200D02*
X89241030Y-7540819D01*
X89241030Y-7540819D02*
X89336268Y-7540819D01*
X89336268Y-7540819D02*
X89479125Y-7493200D01*
X89479125Y-7493200D02*
X89574363Y-7397961D01*
X89574363Y-7397961D02*
X89621982Y-7302723D01*
X89621982Y-7302723D02*
X89669601Y-7112247D01*
X89669601Y-7112247D02*
X89669601Y-6969390D01*
X89669601Y-6969390D02*
X89621982Y-6778914D01*
X89621982Y-6778914D02*
X89574363Y-6683676D01*
X89574363Y-6683676D02*
X89479125Y-6588438D01*
X89479125Y-6588438D02*
X89336268Y-6540819D01*
X89336268Y-6540819D02*
X89241030Y-6540819D01*
X89241030Y-6540819D02*
X89098173Y-6588438D01*
X89098173Y-6588438D02*
X89050554Y-6636057D01*
X88193411Y-6874152D02*
X88193411Y-7540819D01*
X88621982Y-6874152D02*
X88621982Y-7397961D01*
X88621982Y-7397961D02*
X88574363Y-7493200D01*
X88574363Y-7493200D02*
X88479125Y-7540819D01*
X88479125Y-7540819D02*
X88336268Y-7540819D01*
X88336268Y-7540819D02*
X88241030Y-7493200D01*
X88241030Y-7493200D02*
X88193411Y-7445580D01*
X87717220Y-6874152D02*
X87717220Y-7874152D01*
X87717220Y-6921771D02*
X87621982Y-6874152D01*
X87621982Y-6874152D02*
X87431506Y-6874152D01*
X87431506Y-6874152D02*
X87336268Y-6921771D01*
X87336268Y-6921771D02*
X87288649Y-6969390D01*
X87288649Y-6969390D02*
X87241030Y-7064628D01*
X87241030Y-7064628D02*
X87241030Y-7350342D01*
X87241030Y-7350342D02*
X87288649Y-7445580D01*
X87288649Y-7445580D02*
X87336268Y-7493200D01*
X87336268Y-7493200D02*
X87431506Y-7540819D01*
X87431506Y-7540819D02*
X87621982Y-7540819D01*
X87621982Y-7540819D02*
X87717220Y-7493200D01*
X86050553Y-7017009D02*
X85717220Y-7017009D01*
X85574363Y-7540819D02*
X86050553Y-7540819D01*
X86050553Y-7540819D02*
X86050553Y-6540819D01*
X86050553Y-6540819D02*
X85574363Y-6540819D01*
X85241029Y-7540819D02*
X84717220Y-6874152D01*
X85241029Y-6874152D02*
X84717220Y-7540819D01*
X84336267Y-6874152D02*
X84336267Y-7874152D01*
X84336267Y-6921771D02*
X84241029Y-6874152D01*
X84241029Y-6874152D02*
X84050553Y-6874152D01*
X84050553Y-6874152D02*
X83955315Y-6921771D01*
X83955315Y-6921771D02*
X83907696Y-6969390D01*
X83907696Y-6969390D02*
X83860077Y-7064628D01*
X83860077Y-7064628D02*
X83860077Y-7350342D01*
X83860077Y-7350342D02*
X83907696Y-7445580D01*
X83907696Y-7445580D02*
X83955315Y-7493200D01*
X83955315Y-7493200D02*
X84050553Y-7540819D01*
X84050553Y-7540819D02*
X84241029Y-7540819D01*
X84241029Y-7540819D02*
X84336267Y-7493200D01*
X83288648Y-7540819D02*
X83383886Y-7493200D01*
X83383886Y-7493200D02*
X83431505Y-7397961D01*
X83431505Y-7397961D02*
X83431505Y-6540819D01*
X82764838Y-7540819D02*
X82860076Y-7493200D01*
X82860076Y-7493200D02*
X82907695Y-7445580D01*
X82907695Y-7445580D02*
X82955314Y-7350342D01*
X82955314Y-7350342D02*
X82955314Y-7064628D01*
X82955314Y-7064628D02*
X82907695Y-6969390D01*
X82907695Y-6969390D02*
X82860076Y-6921771D01*
X82860076Y-6921771D02*
X82764838Y-6874152D01*
X82764838Y-6874152D02*
X82621981Y-6874152D01*
X82621981Y-6874152D02*
X82526743Y-6921771D01*
X82526743Y-6921771D02*
X82479124Y-6969390D01*
X82479124Y-6969390D02*
X82431505Y-7064628D01*
X82431505Y-7064628D02*
X82431505Y-7350342D01*
X82431505Y-7350342D02*
X82479124Y-7445580D01*
X82479124Y-7445580D02*
X82526743Y-7493200D01*
X82526743Y-7493200D02*
X82621981Y-7540819D01*
X82621981Y-7540819D02*
X82764838Y-7540819D01*
X82002933Y-7540819D02*
X82002933Y-6874152D01*
X82002933Y-7064628D02*
X81955314Y-6969390D01*
X81955314Y-6969390D02*
X81907695Y-6921771D01*
X81907695Y-6921771D02*
X81812457Y-6874152D01*
X81812457Y-6874152D02*
X81717219Y-6874152D01*
X81002933Y-7493200D02*
X81098171Y-7540819D01*
X81098171Y-7540819D02*
X81288647Y-7540819D01*
X81288647Y-7540819D02*
X81383885Y-7493200D01*
X81383885Y-7493200D02*
X81431504Y-7397961D01*
X81431504Y-7397961D02*
X81431504Y-7017009D01*
X81431504Y-7017009D02*
X81383885Y-6921771D01*
X81383885Y-6921771D02*
X81288647Y-6874152D01*
X81288647Y-6874152D02*
X81098171Y-6874152D01*
X81098171Y-6874152D02*
X81002933Y-6921771D01*
X81002933Y-6921771D02*
X80955314Y-7017009D01*
X80955314Y-7017009D02*
X80955314Y-7112247D01*
X80955314Y-7112247D02*
X81431504Y-7207485D01*
X80526742Y-7540819D02*
X80526742Y-6874152D01*
X80526742Y-7064628D02*
X80479123Y-6969390D01*
X80479123Y-6969390D02*
X80431504Y-6921771D01*
X80431504Y-6921771D02*
X80336266Y-6874152D01*
X80336266Y-6874152D02*
X80241028Y-6874152D01*
X79193408Y-7493200D02*
X79050551Y-7540819D01*
X79050551Y-7540819D02*
X78812456Y-7540819D01*
X78812456Y-7540819D02*
X78717218Y-7493200D01*
X78717218Y-7493200D02*
X78669599Y-7445580D01*
X78669599Y-7445580D02*
X78621980Y-7350342D01*
X78621980Y-7350342D02*
X78621980Y-7255104D01*
X78621980Y-7255104D02*
X78669599Y-7159866D01*
X78669599Y-7159866D02*
X78717218Y-7112247D01*
X78717218Y-7112247D02*
X78812456Y-7064628D01*
X78812456Y-7064628D02*
X79002932Y-7017009D01*
X79002932Y-7017009D02*
X79098170Y-6969390D01*
X79098170Y-6969390D02*
X79145789Y-6921771D01*
X79145789Y-6921771D02*
X79193408Y-6826533D01*
X79193408Y-6826533D02*
X79193408Y-6731295D01*
X79193408Y-6731295D02*
X79145789Y-6636057D01*
X79145789Y-6636057D02*
X79098170Y-6588438D01*
X79098170Y-6588438D02*
X79002932Y-6540819D01*
X79002932Y-6540819D02*
X78764837Y-6540819D01*
X78764837Y-6540819D02*
X78621980Y-6588438D01*
X78050551Y-7540819D02*
X78145789Y-7493200D01*
X78145789Y-7493200D02*
X78193408Y-7445580D01*
X78193408Y-7445580D02*
X78241027Y-7350342D01*
X78241027Y-7350342D02*
X78241027Y-7064628D01*
X78241027Y-7064628D02*
X78193408Y-6969390D01*
X78193408Y-6969390D02*
X78145789Y-6921771D01*
X78145789Y-6921771D02*
X78050551Y-6874152D01*
X78050551Y-6874152D02*
X77907694Y-6874152D01*
X77907694Y-6874152D02*
X77812456Y-6921771D01*
X77812456Y-6921771D02*
X77764837Y-6969390D01*
X77764837Y-6969390D02*
X77717218Y-7064628D01*
X77717218Y-7064628D02*
X77717218Y-7350342D01*
X77717218Y-7350342D02*
X77764837Y-7445580D01*
X77764837Y-7445580D02*
X77812456Y-7493200D01*
X77812456Y-7493200D02*
X77907694Y-7540819D01*
X77907694Y-7540819D02*
X78050551Y-7540819D01*
X76860075Y-6874152D02*
X76860075Y-7540819D01*
X77288646Y-6874152D02*
X77288646Y-7397961D01*
X77288646Y-7397961D02*
X77241027Y-7493200D01*
X77241027Y-7493200D02*
X77145789Y-7540819D01*
X77145789Y-7540819D02*
X77002932Y-7540819D01*
X77002932Y-7540819D02*
X76907694Y-7493200D01*
X76907694Y-7493200D02*
X76860075Y-7445580D01*
X76383884Y-6874152D02*
X76383884Y-7540819D01*
X76383884Y-6969390D02*
X76336265Y-6921771D01*
X76336265Y-6921771D02*
X76241027Y-6874152D01*
X76241027Y-6874152D02*
X76098170Y-6874152D01*
X76098170Y-6874152D02*
X76002932Y-6921771D01*
X76002932Y-6921771D02*
X75955313Y-7017009D01*
X75955313Y-7017009D02*
X75955313Y-7540819D01*
X75050551Y-7540819D02*
X75050551Y-6540819D01*
X75050551Y-7493200D02*
X75145789Y-7540819D01*
X75145789Y-7540819D02*
X75336265Y-7540819D01*
X75336265Y-7540819D02*
X75431503Y-7493200D01*
X75431503Y-7493200D02*
X75479122Y-7445580D01*
X75479122Y-7445580D02*
X75526741Y-7350342D01*
X75526741Y-7350342D02*
X75526741Y-7064628D01*
X75526741Y-7064628D02*
X75479122Y-6969390D01*
X75479122Y-6969390D02*
X75431503Y-6921771D01*
X75431503Y-6921771D02*
X75336265Y-6874152D01*
X75336265Y-6874152D02*
X75145789Y-6874152D01*
X75145789Y-6874152D02*
X75050551Y-6921771D01*
X73860074Y-7493200D02*
X73717217Y-7540819D01*
X73717217Y-7540819D02*
X73479122Y-7540819D01*
X73479122Y-7540819D02*
X73383884Y-7493200D01*
X73383884Y-7493200D02*
X73336265Y-7445580D01*
X73336265Y-7445580D02*
X73288646Y-7350342D01*
X73288646Y-7350342D02*
X73288646Y-7255104D01*
X73288646Y-7255104D02*
X73336265Y-7159866D01*
X73336265Y-7159866D02*
X73383884Y-7112247D01*
X73383884Y-7112247D02*
X73479122Y-7064628D01*
X73479122Y-7064628D02*
X73669598Y-7017009D01*
X73669598Y-7017009D02*
X73764836Y-6969390D01*
X73764836Y-6969390D02*
X73812455Y-6921771D01*
X73812455Y-6921771D02*
X73860074Y-6826533D01*
X73860074Y-6826533D02*
X73860074Y-6731295D01*
X73860074Y-6731295D02*
X73812455Y-6636057D01*
X73812455Y-6636057D02*
X73764836Y-6588438D01*
X73764836Y-6588438D02*
X73669598Y-6540819D01*
X73669598Y-6540819D02*
X73431503Y-6540819D01*
X73431503Y-6540819D02*
X73288646Y-6588438D01*
X73002931Y-6874152D02*
X72621979Y-6874152D01*
X72860074Y-6540819D02*
X72860074Y-7397961D01*
X72860074Y-7397961D02*
X72812455Y-7493200D01*
X72812455Y-7493200D02*
X72717217Y-7540819D01*
X72717217Y-7540819D02*
X72621979Y-7540819D01*
X71860074Y-7540819D02*
X71860074Y-7017009D01*
X71860074Y-7017009D02*
X71907693Y-6921771D01*
X71907693Y-6921771D02*
X72002931Y-6874152D01*
X72002931Y-6874152D02*
X72193407Y-6874152D01*
X72193407Y-6874152D02*
X72288645Y-6921771D01*
X71860074Y-7493200D02*
X71955312Y-7540819D01*
X71955312Y-7540819D02*
X72193407Y-7540819D01*
X72193407Y-7540819D02*
X72288645Y-7493200D01*
X72288645Y-7493200D02*
X72336264Y-7397961D01*
X72336264Y-7397961D02*
X72336264Y-7302723D01*
X72336264Y-7302723D02*
X72288645Y-7207485D01*
X72288645Y-7207485D02*
X72193407Y-7159866D01*
X72193407Y-7159866D02*
X71955312Y-7159866D01*
X71955312Y-7159866D02*
X71860074Y-7112247D01*
X71526740Y-6874152D02*
X71145788Y-6874152D01*
X71383883Y-6540819D02*
X71383883Y-7397961D01*
X71383883Y-7397961D02*
X71336264Y-7493200D01*
X71336264Y-7493200D02*
X71241026Y-7540819D01*
X71241026Y-7540819D02*
X71145788Y-7540819D01*
X70812454Y-7540819D02*
X70812454Y-6874152D01*
X70812454Y-6540819D02*
X70860073Y-6588438D01*
X70860073Y-6588438D02*
X70812454Y-6636057D01*
X70812454Y-6636057D02*
X70764835Y-6588438D01*
X70764835Y-6588438D02*
X70812454Y-6540819D01*
X70812454Y-6540819D02*
X70812454Y-6636057D01*
X70193407Y-7540819D02*
X70288645Y-7493200D01*
X70288645Y-7493200D02*
X70336264Y-7445580D01*
X70336264Y-7445580D02*
X70383883Y-7350342D01*
X70383883Y-7350342D02*
X70383883Y-7064628D01*
X70383883Y-7064628D02*
X70336264Y-6969390D01*
X70336264Y-6969390D02*
X70288645Y-6921771D01*
X70288645Y-6921771D02*
X70193407Y-6874152D01*
X70193407Y-6874152D02*
X70050550Y-6874152D01*
X70050550Y-6874152D02*
X69955312Y-6921771D01*
X69955312Y-6921771D02*
X69907693Y-6969390D01*
X69907693Y-6969390D02*
X69860074Y-7064628D01*
X69860074Y-7064628D02*
X69860074Y-7350342D01*
X69860074Y-7350342D02*
X69907693Y-7445580D01*
X69907693Y-7445580D02*
X69955312Y-7493200D01*
X69955312Y-7493200D02*
X70050550Y-7540819D01*
X70050550Y-7540819D02*
X70193407Y-7540819D01*
X69431502Y-6874152D02*
X69431502Y-7540819D01*
X69431502Y-6969390D02*
X69383883Y-6921771D01*
X69383883Y-6921771D02*
X69288645Y-6874152D01*
X69288645Y-6874152D02*
X69145788Y-6874152D01*
X69145788Y-6874152D02*
X69050550Y-6921771D01*
X69050550Y-6921771D02*
X69002931Y-7017009D01*
X69002931Y-7017009D02*
X69002931Y-7540819D01*
X67764835Y-7540819D02*
X67764835Y-6540819D01*
X67764835Y-6540819D02*
X67383883Y-6540819D01*
X67383883Y-6540819D02*
X67288645Y-6588438D01*
X67288645Y-6588438D02*
X67241026Y-6636057D01*
X67241026Y-6636057D02*
X67193407Y-6731295D01*
X67193407Y-6731295D02*
X67193407Y-6874152D01*
X67193407Y-6874152D02*
X67241026Y-6969390D01*
X67241026Y-6969390D02*
X67288645Y-7017009D01*
X67288645Y-7017009D02*
X67383883Y-7064628D01*
X67383883Y-7064628D02*
X67764835Y-7064628D01*
X66193407Y-7445580D02*
X66241026Y-7493200D01*
X66241026Y-7493200D02*
X66383883Y-7540819D01*
X66383883Y-7540819D02*
X66479121Y-7540819D01*
X66479121Y-7540819D02*
X66621978Y-7493200D01*
X66621978Y-7493200D02*
X66717216Y-7397961D01*
X66717216Y-7397961D02*
X66764835Y-7302723D01*
X66764835Y-7302723D02*
X66812454Y-7112247D01*
X66812454Y-7112247D02*
X66812454Y-6969390D01*
X66812454Y-6969390D02*
X66764835Y-6778914D01*
X66764835Y-6778914D02*
X66717216Y-6683676D01*
X66717216Y-6683676D02*
X66621978Y-6588438D01*
X66621978Y-6588438D02*
X66479121Y-6540819D01*
X66479121Y-6540819D02*
X66383883Y-6540819D01*
X66383883Y-6540819D02*
X66241026Y-6588438D01*
X66241026Y-6588438D02*
X66193407Y-6636057D01*
X65431502Y-7017009D02*
X65288645Y-7064628D01*
X65288645Y-7064628D02*
X65241026Y-7112247D01*
X65241026Y-7112247D02*
X65193407Y-7207485D01*
X65193407Y-7207485D02*
X65193407Y-7350342D01*
X65193407Y-7350342D02*
X65241026Y-7445580D01*
X65241026Y-7445580D02*
X65288645Y-7493200D01*
X65288645Y-7493200D02*
X65383883Y-7540819D01*
X65383883Y-7540819D02*
X65764835Y-7540819D01*
X65764835Y-7540819D02*
X65764835Y-6540819D01*
X65764835Y-6540819D02*
X65431502Y-6540819D01*
X65431502Y-6540819D02*
X65336264Y-6588438D01*
X65336264Y-6588438D02*
X65288645Y-6636057D01*
X65288645Y-6636057D02*
X65241026Y-6731295D01*
X65241026Y-6731295D02*
X65241026Y-6826533D01*
X65241026Y-6826533D02*
X65288645Y-6921771D01*
X65288645Y-6921771D02*
X65336264Y-6969390D01*
X65336264Y-6969390D02*
X65431502Y-7017009D01*
X65431502Y-7017009D02*
X65764835Y-7017009D01*
X93717220Y-10760819D02*
X93717220Y-9760819D01*
X93717220Y-9760819D02*
X93479125Y-9760819D01*
X93479125Y-9760819D02*
X93336268Y-9808438D01*
X93336268Y-9808438D02*
X93241030Y-9903676D01*
X93241030Y-9903676D02*
X93193411Y-9998914D01*
X93193411Y-9998914D02*
X93145792Y-10189390D01*
X93145792Y-10189390D02*
X93145792Y-10332247D01*
X93145792Y-10332247D02*
X93193411Y-10522723D01*
X93193411Y-10522723D02*
X93241030Y-10617961D01*
X93241030Y-10617961D02*
X93336268Y-10713200D01*
X93336268Y-10713200D02*
X93479125Y-10760819D01*
X93479125Y-10760819D02*
X93717220Y-10760819D01*
X92574363Y-10760819D02*
X92669601Y-10713200D01*
X92669601Y-10713200D02*
X92717220Y-10665580D01*
X92717220Y-10665580D02*
X92764839Y-10570342D01*
X92764839Y-10570342D02*
X92764839Y-10284628D01*
X92764839Y-10284628D02*
X92717220Y-10189390D01*
X92717220Y-10189390D02*
X92669601Y-10141771D01*
X92669601Y-10141771D02*
X92574363Y-10094152D01*
X92574363Y-10094152D02*
X92431506Y-10094152D01*
X92431506Y-10094152D02*
X92336268Y-10141771D01*
X92336268Y-10141771D02*
X92288649Y-10189390D01*
X92288649Y-10189390D02*
X92241030Y-10284628D01*
X92241030Y-10284628D02*
X92241030Y-10570342D01*
X92241030Y-10570342D02*
X92288649Y-10665580D01*
X92288649Y-10665580D02*
X92336268Y-10713200D01*
X92336268Y-10713200D02*
X92431506Y-10760819D01*
X92431506Y-10760819D02*
X92574363Y-10760819D01*
X91050553Y-10094152D02*
X91050553Y-10760819D01*
X91050553Y-10189390D02*
X91002934Y-10141771D01*
X91002934Y-10141771D02*
X90907696Y-10094152D01*
X90907696Y-10094152D02*
X90764839Y-10094152D01*
X90764839Y-10094152D02*
X90669601Y-10141771D01*
X90669601Y-10141771D02*
X90621982Y-10237009D01*
X90621982Y-10237009D02*
X90621982Y-10760819D01*
X90002934Y-10760819D02*
X90098172Y-10713200D01*
X90098172Y-10713200D02*
X90145791Y-10665580D01*
X90145791Y-10665580D02*
X90193410Y-10570342D01*
X90193410Y-10570342D02*
X90193410Y-10284628D01*
X90193410Y-10284628D02*
X90145791Y-10189390D01*
X90145791Y-10189390D02*
X90098172Y-10141771D01*
X90098172Y-10141771D02*
X90002934Y-10094152D01*
X90002934Y-10094152D02*
X89860077Y-10094152D01*
X89860077Y-10094152D02*
X89764839Y-10141771D01*
X89764839Y-10141771D02*
X89717220Y-10189390D01*
X89717220Y-10189390D02*
X89669601Y-10284628D01*
X89669601Y-10284628D02*
X89669601Y-10570342D01*
X89669601Y-10570342D02*
X89717220Y-10665580D01*
X89717220Y-10665580D02*
X89764839Y-10713200D01*
X89764839Y-10713200D02*
X89860077Y-10760819D01*
X89860077Y-10760819D02*
X90002934Y-10760819D01*
X89383886Y-10094152D02*
X89002934Y-10094152D01*
X89241029Y-9760819D02*
X89241029Y-10617961D01*
X89241029Y-10617961D02*
X89193410Y-10713200D01*
X89193410Y-10713200D02*
X89098172Y-10760819D01*
X89098172Y-10760819D02*
X89002934Y-10760819D01*
X87907695Y-10094152D02*
X87907695Y-11094152D01*
X87907695Y-10141771D02*
X87812457Y-10094152D01*
X87812457Y-10094152D02*
X87621981Y-10094152D01*
X87621981Y-10094152D02*
X87526743Y-10141771D01*
X87526743Y-10141771D02*
X87479124Y-10189390D01*
X87479124Y-10189390D02*
X87431505Y-10284628D01*
X87431505Y-10284628D02*
X87431505Y-10570342D01*
X87431505Y-10570342D02*
X87479124Y-10665580D01*
X87479124Y-10665580D02*
X87526743Y-10713200D01*
X87526743Y-10713200D02*
X87621981Y-10760819D01*
X87621981Y-10760819D02*
X87812457Y-10760819D01*
X87812457Y-10760819D02*
X87907695Y-10713200D01*
X86860076Y-10760819D02*
X86955314Y-10713200D01*
X86955314Y-10713200D02*
X87002933Y-10665580D01*
X87002933Y-10665580D02*
X87050552Y-10570342D01*
X87050552Y-10570342D02*
X87050552Y-10284628D01*
X87050552Y-10284628D02*
X87002933Y-10189390D01*
X87002933Y-10189390D02*
X86955314Y-10141771D01*
X86955314Y-10141771D02*
X86860076Y-10094152D01*
X86860076Y-10094152D02*
X86717219Y-10094152D01*
X86717219Y-10094152D02*
X86621981Y-10141771D01*
X86621981Y-10141771D02*
X86574362Y-10189390D01*
X86574362Y-10189390D02*
X86526743Y-10284628D01*
X86526743Y-10284628D02*
X86526743Y-10570342D01*
X86526743Y-10570342D02*
X86574362Y-10665580D01*
X86574362Y-10665580D02*
X86621981Y-10713200D01*
X86621981Y-10713200D02*
X86717219Y-10760819D01*
X86717219Y-10760819D02*
X86860076Y-10760819D01*
X86193409Y-10094152D02*
X86002933Y-10760819D01*
X86002933Y-10760819D02*
X85812457Y-10284628D01*
X85812457Y-10284628D02*
X85621981Y-10760819D01*
X85621981Y-10760819D02*
X85431505Y-10094152D01*
X84669600Y-10713200D02*
X84764838Y-10760819D01*
X84764838Y-10760819D02*
X84955314Y-10760819D01*
X84955314Y-10760819D02*
X85050552Y-10713200D01*
X85050552Y-10713200D02*
X85098171Y-10617961D01*
X85098171Y-10617961D02*
X85098171Y-10237009D01*
X85098171Y-10237009D02*
X85050552Y-10141771D01*
X85050552Y-10141771D02*
X84955314Y-10094152D01*
X84955314Y-10094152D02*
X84764838Y-10094152D01*
X84764838Y-10094152D02*
X84669600Y-10141771D01*
X84669600Y-10141771D02*
X84621981Y-10237009D01*
X84621981Y-10237009D02*
X84621981Y-10332247D01*
X84621981Y-10332247D02*
X85098171Y-10427485D01*
X84193409Y-10760819D02*
X84193409Y-10094152D01*
X84193409Y-10284628D02*
X84145790Y-10189390D01*
X84145790Y-10189390D02*
X84098171Y-10141771D01*
X84098171Y-10141771D02*
X84002933Y-10094152D01*
X84002933Y-10094152D02*
X83907695Y-10094152D01*
X82907694Y-10094152D02*
X82669599Y-10760819D01*
X82669599Y-10760819D02*
X82431504Y-10094152D01*
X82050551Y-10760819D02*
X82050551Y-10094152D01*
X82050551Y-9760819D02*
X82098170Y-9808438D01*
X82098170Y-9808438D02*
X82050551Y-9856057D01*
X82050551Y-9856057D02*
X82002932Y-9808438D01*
X82002932Y-9808438D02*
X82050551Y-9760819D01*
X82050551Y-9760819D02*
X82050551Y-9856057D01*
X81145790Y-10760819D02*
X81145790Y-10237009D01*
X81145790Y-10237009D02*
X81193409Y-10141771D01*
X81193409Y-10141771D02*
X81288647Y-10094152D01*
X81288647Y-10094152D02*
X81479123Y-10094152D01*
X81479123Y-10094152D02*
X81574361Y-10141771D01*
X81145790Y-10713200D02*
X81241028Y-10760819D01*
X81241028Y-10760819D02*
X81479123Y-10760819D01*
X81479123Y-10760819D02*
X81574361Y-10713200D01*
X81574361Y-10713200D02*
X81621980Y-10617961D01*
X81621980Y-10617961D02*
X81621980Y-10522723D01*
X81621980Y-10522723D02*
X81574361Y-10427485D01*
X81574361Y-10427485D02*
X81479123Y-10379866D01*
X81479123Y-10379866D02*
X81241028Y-10379866D01*
X81241028Y-10379866D02*
X81145790Y-10332247D01*
X79907694Y-10760819D02*
X79907694Y-9760819D01*
X79907694Y-10141771D02*
X79812456Y-10094152D01*
X79812456Y-10094152D02*
X79621980Y-10094152D01*
X79621980Y-10094152D02*
X79526742Y-10141771D01*
X79526742Y-10141771D02*
X79479123Y-10189390D01*
X79479123Y-10189390D02*
X79431504Y-10284628D01*
X79431504Y-10284628D02*
X79431504Y-10570342D01*
X79431504Y-10570342D02*
X79479123Y-10665580D01*
X79479123Y-10665580D02*
X79526742Y-10713200D01*
X79526742Y-10713200D02*
X79621980Y-10760819D01*
X79621980Y-10760819D02*
X79812456Y-10760819D01*
X79812456Y-10760819D02*
X79907694Y-10713200D01*
X78574361Y-10760819D02*
X78574361Y-10237009D01*
X78574361Y-10237009D02*
X78621980Y-10141771D01*
X78621980Y-10141771D02*
X78717218Y-10094152D01*
X78717218Y-10094152D02*
X78907694Y-10094152D01*
X78907694Y-10094152D02*
X79002932Y-10141771D01*
X78574361Y-10713200D02*
X78669599Y-10760819D01*
X78669599Y-10760819D02*
X78907694Y-10760819D01*
X78907694Y-10760819D02*
X79002932Y-10713200D01*
X79002932Y-10713200D02*
X79050551Y-10617961D01*
X79050551Y-10617961D02*
X79050551Y-10522723D01*
X79050551Y-10522723D02*
X79002932Y-10427485D01*
X79002932Y-10427485D02*
X78907694Y-10379866D01*
X78907694Y-10379866D02*
X78669599Y-10379866D01*
X78669599Y-10379866D02*
X78574361Y-10332247D01*
X78098170Y-10760819D02*
X78098170Y-10094152D01*
X78098170Y-10284628D02*
X78050551Y-10189390D01*
X78050551Y-10189390D02*
X78002932Y-10141771D01*
X78002932Y-10141771D02*
X77907694Y-10094152D01*
X77907694Y-10094152D02*
X77812456Y-10094152D01*
X77479122Y-10760819D02*
X77479122Y-10094152D01*
X77479122Y-10284628D02*
X77431503Y-10189390D01*
X77431503Y-10189390D02*
X77383884Y-10141771D01*
X77383884Y-10141771D02*
X77288646Y-10094152D01*
X77288646Y-10094152D02*
X77193408Y-10094152D01*
X76479122Y-10713200D02*
X76574360Y-10760819D01*
X76574360Y-10760819D02*
X76764836Y-10760819D01*
X76764836Y-10760819D02*
X76860074Y-10713200D01*
X76860074Y-10713200D02*
X76907693Y-10617961D01*
X76907693Y-10617961D02*
X76907693Y-10237009D01*
X76907693Y-10237009D02*
X76860074Y-10141771D01*
X76860074Y-10141771D02*
X76764836Y-10094152D01*
X76764836Y-10094152D02*
X76574360Y-10094152D01*
X76574360Y-10094152D02*
X76479122Y-10141771D01*
X76479122Y-10141771D02*
X76431503Y-10237009D01*
X76431503Y-10237009D02*
X76431503Y-10332247D01*
X76431503Y-10332247D02*
X76907693Y-10427485D01*
X75860074Y-10760819D02*
X75955312Y-10713200D01*
X75955312Y-10713200D02*
X76002931Y-10617961D01*
X76002931Y-10617961D02*
X76002931Y-9760819D01*
X74717216Y-10094152D02*
X74717216Y-10951295D01*
X74717216Y-10951295D02*
X74764835Y-11046533D01*
X74764835Y-11046533D02*
X74860073Y-11094152D01*
X74860073Y-11094152D02*
X74907692Y-11094152D01*
X74717216Y-9760819D02*
X74764835Y-9808438D01*
X74764835Y-9808438D02*
X74717216Y-9856057D01*
X74717216Y-9856057D02*
X74669597Y-9808438D01*
X74669597Y-9808438D02*
X74717216Y-9760819D01*
X74717216Y-9760819D02*
X74717216Y-9856057D01*
X73812455Y-10760819D02*
X73812455Y-10237009D01*
X73812455Y-10237009D02*
X73860074Y-10141771D01*
X73860074Y-10141771D02*
X73955312Y-10094152D01*
X73955312Y-10094152D02*
X74145788Y-10094152D01*
X74145788Y-10094152D02*
X74241026Y-10141771D01*
X73812455Y-10713200D02*
X73907693Y-10760819D01*
X73907693Y-10760819D02*
X74145788Y-10760819D01*
X74145788Y-10760819D02*
X74241026Y-10713200D01*
X74241026Y-10713200D02*
X74288645Y-10617961D01*
X74288645Y-10617961D02*
X74288645Y-10522723D01*
X74288645Y-10522723D02*
X74241026Y-10427485D01*
X74241026Y-10427485D02*
X74145788Y-10379866D01*
X74145788Y-10379866D02*
X73907693Y-10379866D01*
X73907693Y-10379866D02*
X73812455Y-10332247D01*
X72907693Y-10713200D02*
X73002931Y-10760819D01*
X73002931Y-10760819D02*
X73193407Y-10760819D01*
X73193407Y-10760819D02*
X73288645Y-10713200D01*
X73288645Y-10713200D02*
X73336264Y-10665580D01*
X73336264Y-10665580D02*
X73383883Y-10570342D01*
X73383883Y-10570342D02*
X73383883Y-10284628D01*
X73383883Y-10284628D02*
X73336264Y-10189390D01*
X73336264Y-10189390D02*
X73288645Y-10141771D01*
X73288645Y-10141771D02*
X73193407Y-10094152D01*
X73193407Y-10094152D02*
X73002931Y-10094152D01*
X73002931Y-10094152D02*
X72907693Y-10141771D01*
X72479121Y-10760819D02*
X72479121Y-9760819D01*
X72383883Y-10379866D02*
X72098169Y-10760819D01*
X72098169Y-10094152D02*
X72479121Y-10475104D01*
X70764835Y-10760819D02*
X70860073Y-10713200D01*
X70860073Y-10713200D02*
X70907692Y-10665580D01*
X70907692Y-10665580D02*
X70955311Y-10570342D01*
X70955311Y-10570342D02*
X70955311Y-10284628D01*
X70955311Y-10284628D02*
X70907692Y-10189390D01*
X70907692Y-10189390D02*
X70860073Y-10141771D01*
X70860073Y-10141771D02*
X70764835Y-10094152D01*
X70764835Y-10094152D02*
X70621978Y-10094152D01*
X70621978Y-10094152D02*
X70526740Y-10141771D01*
X70526740Y-10141771D02*
X70479121Y-10189390D01*
X70479121Y-10189390D02*
X70431502Y-10284628D01*
X70431502Y-10284628D02*
X70431502Y-10570342D01*
X70431502Y-10570342D02*
X70479121Y-10665580D01*
X70479121Y-10665580D02*
X70526740Y-10713200D01*
X70526740Y-10713200D02*
X70621978Y-10760819D01*
X70621978Y-10760819D02*
X70764835Y-10760819D01*
X70002930Y-10760819D02*
X70002930Y-10094152D01*
X70002930Y-10284628D02*
X69955311Y-10189390D01*
X69955311Y-10189390D02*
X69907692Y-10141771D01*
X69907692Y-10141771D02*
X69812454Y-10094152D01*
X69812454Y-10094152D02*
X69717216Y-10094152D01*
X68621977Y-10760819D02*
X68621977Y-9760819D01*
X68621977Y-9760819D02*
X68241025Y-9760819D01*
X68241025Y-9760819D02*
X68145787Y-9808438D01*
X68145787Y-9808438D02*
X68098168Y-9856057D01*
X68098168Y-9856057D02*
X68050549Y-9951295D01*
X68050549Y-9951295D02*
X68050549Y-10094152D01*
X68050549Y-10094152D02*
X68098168Y-10189390D01*
X68098168Y-10189390D02*
X68145787Y-10237009D01*
X68145787Y-10237009D02*
X68241025Y-10284628D01*
X68241025Y-10284628D02*
X68621977Y-10284628D01*
X67050549Y-10665580D02*
X67098168Y-10713200D01*
X67098168Y-10713200D02*
X67241025Y-10760819D01*
X67241025Y-10760819D02*
X67336263Y-10760819D01*
X67336263Y-10760819D02*
X67479120Y-10713200D01*
X67479120Y-10713200D02*
X67574358Y-10617961D01*
X67574358Y-10617961D02*
X67621977Y-10522723D01*
X67621977Y-10522723D02*
X67669596Y-10332247D01*
X67669596Y-10332247D02*
X67669596Y-10189390D01*
X67669596Y-10189390D02*
X67621977Y-9998914D01*
X67621977Y-9998914D02*
X67574358Y-9903676D01*
X67574358Y-9903676D02*
X67479120Y-9808438D01*
X67479120Y-9808438D02*
X67336263Y-9760819D01*
X67336263Y-9760819D02*
X67241025Y-9760819D01*
X67241025Y-9760819D02*
X67098168Y-9808438D01*
X67098168Y-9808438D02*
X67050549Y-9856057D01*
X66288644Y-10237009D02*
X66145787Y-10284628D01*
X66145787Y-10284628D02*
X66098168Y-10332247D01*
X66098168Y-10332247D02*
X66050549Y-10427485D01*
X66050549Y-10427485D02*
X66050549Y-10570342D01*
X66050549Y-10570342D02*
X66098168Y-10665580D01*
X66098168Y-10665580D02*
X66145787Y-10713200D01*
X66145787Y-10713200D02*
X66241025Y-10760819D01*
X66241025Y-10760819D02*
X66621977Y-10760819D01*
X66621977Y-10760819D02*
X66621977Y-9760819D01*
X66621977Y-9760819D02*
X66288644Y-9760819D01*
X66288644Y-9760819D02*
X66193406Y-9808438D01*
X66193406Y-9808438D02*
X66145787Y-9856057D01*
X66145787Y-9856057D02*
X66098168Y-9951295D01*
X66098168Y-9951295D02*
X66098168Y-10046533D01*
X66098168Y-10046533D02*
X66145787Y-10141771D01*
X66145787Y-10141771D02*
X66193406Y-10189390D01*
X66193406Y-10189390D02*
X66288644Y-10237009D01*
X66288644Y-10237009D02*
X66621977Y-10237009D01*
X65002929Y-10094152D02*
X64621977Y-10094152D01*
X64860072Y-9760819D02*
X64860072Y-10617961D01*
X64860072Y-10617961D02*
X64812453Y-10713200D01*
X64812453Y-10713200D02*
X64717215Y-10760819D01*
X64717215Y-10760819D02*
X64621977Y-10760819D01*
X63907691Y-10713200D02*
X64002929Y-10760819D01*
X64002929Y-10760819D02*
X64193405Y-10760819D01*
X64193405Y-10760819D02*
X64288643Y-10713200D01*
X64288643Y-10713200D02*
X64336262Y-10617961D01*
X64336262Y-10617961D02*
X64336262Y-10237009D01*
X64336262Y-10237009D02*
X64288643Y-10141771D01*
X64288643Y-10141771D02*
X64193405Y-10094152D01*
X64193405Y-10094152D02*
X64002929Y-10094152D01*
X64002929Y-10094152D02*
X63907691Y-10141771D01*
X63907691Y-10141771D02*
X63860072Y-10237009D01*
X63860072Y-10237009D02*
X63860072Y-10332247D01*
X63860072Y-10332247D02*
X64336262Y-10427485D01*
X63431500Y-10760819D02*
X63431500Y-10094152D01*
X63431500Y-10284628D02*
X63383881Y-10189390D01*
X63383881Y-10189390D02*
X63336262Y-10141771D01*
X63336262Y-10141771D02*
X63241024Y-10094152D01*
X63241024Y-10094152D02*
X63145786Y-10094152D01*
X62812452Y-10760819D02*
X62812452Y-10094152D01*
X62812452Y-10189390D02*
X62764833Y-10141771D01*
X62764833Y-10141771D02*
X62669595Y-10094152D01*
X62669595Y-10094152D02*
X62526738Y-10094152D01*
X62526738Y-10094152D02*
X62431500Y-10141771D01*
X62431500Y-10141771D02*
X62383881Y-10237009D01*
X62383881Y-10237009D02*
X62383881Y-10760819D01*
X62383881Y-10237009D02*
X62336262Y-10141771D01*
X62336262Y-10141771D02*
X62241024Y-10094152D01*
X62241024Y-10094152D02*
X62098167Y-10094152D01*
X62098167Y-10094152D02*
X62002928Y-10141771D01*
X62002928Y-10141771D02*
X61955309Y-10237009D01*
X61955309Y-10237009D02*
X61955309Y-10760819D01*
X61479119Y-10760819D02*
X61479119Y-10094152D01*
X61479119Y-9760819D02*
X61526738Y-9808438D01*
X61526738Y-9808438D02*
X61479119Y-9856057D01*
X61479119Y-9856057D02*
X61431500Y-9808438D01*
X61431500Y-9808438D02*
X61479119Y-9760819D01*
X61479119Y-9760819D02*
X61479119Y-9856057D01*
X61002929Y-10094152D02*
X61002929Y-10760819D01*
X61002929Y-10189390D02*
X60955310Y-10141771D01*
X60955310Y-10141771D02*
X60860072Y-10094152D01*
X60860072Y-10094152D02*
X60717215Y-10094152D01*
X60717215Y-10094152D02*
X60621977Y-10141771D01*
X60621977Y-10141771D02*
X60574358Y-10237009D01*
X60574358Y-10237009D02*
X60574358Y-10760819D01*
X59669596Y-10760819D02*
X59669596Y-10237009D01*
X59669596Y-10237009D02*
X59717215Y-10141771D01*
X59717215Y-10141771D02*
X59812453Y-10094152D01*
X59812453Y-10094152D02*
X60002929Y-10094152D01*
X60002929Y-10094152D02*
X60098167Y-10141771D01*
X59669596Y-10713200D02*
X59764834Y-10760819D01*
X59764834Y-10760819D02*
X60002929Y-10760819D01*
X60002929Y-10760819D02*
X60098167Y-10713200D01*
X60098167Y-10713200D02*
X60145786Y-10617961D01*
X60145786Y-10617961D02*
X60145786Y-10522723D01*
X60145786Y-10522723D02*
X60098167Y-10427485D01*
X60098167Y-10427485D02*
X60002929Y-10379866D01*
X60002929Y-10379866D02*
X59764834Y-10379866D01*
X59764834Y-10379866D02*
X59669596Y-10332247D01*
X59050548Y-10760819D02*
X59145786Y-10713200D01*
X59145786Y-10713200D02*
X59193405Y-10617961D01*
X59193405Y-10617961D02*
X59193405Y-9760819D01*
X57907690Y-10760819D02*
X57907690Y-9760819D01*
X57907690Y-10141771D02*
X57812452Y-10094152D01*
X57812452Y-10094152D02*
X57621976Y-10094152D01*
X57621976Y-10094152D02*
X57526738Y-10141771D01*
X57526738Y-10141771D02*
X57479119Y-10189390D01*
X57479119Y-10189390D02*
X57431500Y-10284628D01*
X57431500Y-10284628D02*
X57431500Y-10570342D01*
X57431500Y-10570342D02*
X57479119Y-10665580D01*
X57479119Y-10665580D02*
X57526738Y-10713200D01*
X57526738Y-10713200D02*
X57621976Y-10760819D01*
X57621976Y-10760819D02*
X57812452Y-10760819D01*
X57812452Y-10760819D02*
X57907690Y-10713200D01*
X56860071Y-10760819D02*
X56955309Y-10713200D01*
X56955309Y-10713200D02*
X57002928Y-10617961D01*
X57002928Y-10617961D02*
X57002928Y-9760819D01*
X56336261Y-10760819D02*
X56431499Y-10713200D01*
X56431499Y-10713200D02*
X56479118Y-10665580D01*
X56479118Y-10665580D02*
X56526737Y-10570342D01*
X56526737Y-10570342D02*
X56526737Y-10284628D01*
X56526737Y-10284628D02*
X56479118Y-10189390D01*
X56479118Y-10189390D02*
X56431499Y-10141771D01*
X56431499Y-10141771D02*
X56336261Y-10094152D01*
X56336261Y-10094152D02*
X56193404Y-10094152D01*
X56193404Y-10094152D02*
X56098166Y-10141771D01*
X56098166Y-10141771D02*
X56050547Y-10189390D01*
X56050547Y-10189390D02*
X56002928Y-10284628D01*
X56002928Y-10284628D02*
X56002928Y-10570342D01*
X56002928Y-10570342D02*
X56050547Y-10665580D01*
X56050547Y-10665580D02*
X56098166Y-10713200D01*
X56098166Y-10713200D02*
X56193404Y-10760819D01*
X56193404Y-10760819D02*
X56336261Y-10760819D01*
X55145785Y-10713200D02*
X55241023Y-10760819D01*
X55241023Y-10760819D02*
X55431499Y-10760819D01*
X55431499Y-10760819D02*
X55526737Y-10713200D01*
X55526737Y-10713200D02*
X55574356Y-10665580D01*
X55574356Y-10665580D02*
X55621975Y-10570342D01*
X55621975Y-10570342D02*
X55621975Y-10284628D01*
X55621975Y-10284628D02*
X55574356Y-10189390D01*
X55574356Y-10189390D02*
X55526737Y-10141771D01*
X55526737Y-10141771D02*
X55431499Y-10094152D01*
X55431499Y-10094152D02*
X55241023Y-10094152D01*
X55241023Y-10094152D02*
X55145785Y-10141771D01*
X54717213Y-10760819D02*
X54717213Y-9760819D01*
X54621975Y-10379866D02*
X54336261Y-10760819D01*
X54336261Y-10094152D02*
X54717213Y-10475104D01*
X93050553Y-11704152D02*
X92860077Y-12370819D01*
X92860077Y-12370819D02*
X92669601Y-11894628D01*
X92669601Y-11894628D02*
X92479125Y-12370819D01*
X92479125Y-12370819D02*
X92288649Y-11704152D01*
X91907696Y-12370819D02*
X91907696Y-11370819D01*
X91479125Y-12370819D02*
X91479125Y-11847009D01*
X91479125Y-11847009D02*
X91526744Y-11751771D01*
X91526744Y-11751771D02*
X91621982Y-11704152D01*
X91621982Y-11704152D02*
X91764839Y-11704152D01*
X91764839Y-11704152D02*
X91860077Y-11751771D01*
X91860077Y-11751771D02*
X91907696Y-11799390D01*
X91002934Y-12370819D02*
X91002934Y-11704152D01*
X91002934Y-11370819D02*
X91050553Y-11418438D01*
X91050553Y-11418438D02*
X91002934Y-11466057D01*
X91002934Y-11466057D02*
X90955315Y-11418438D01*
X90955315Y-11418438D02*
X91002934Y-11370819D01*
X91002934Y-11370819D02*
X91002934Y-11466057D01*
X90383887Y-12370819D02*
X90479125Y-12323200D01*
X90479125Y-12323200D02*
X90526744Y-12227961D01*
X90526744Y-12227961D02*
X90526744Y-11370819D01*
X89621982Y-12323200D02*
X89717220Y-12370819D01*
X89717220Y-12370819D02*
X89907696Y-12370819D01*
X89907696Y-12370819D02*
X90002934Y-12323200D01*
X90002934Y-12323200D02*
X90050553Y-12227961D01*
X90050553Y-12227961D02*
X90050553Y-11847009D01*
X90050553Y-11847009D02*
X90002934Y-11751771D01*
X90002934Y-11751771D02*
X89907696Y-11704152D01*
X89907696Y-11704152D02*
X89717220Y-11704152D01*
X89717220Y-11704152D02*
X89621982Y-11751771D01*
X89621982Y-11751771D02*
X89574363Y-11847009D01*
X89574363Y-11847009D02*
X89574363Y-11942247D01*
X89574363Y-11942247D02*
X90050553Y-12037485D01*
X88383886Y-11704152D02*
X88383886Y-12704152D01*
X88383886Y-11751771D02*
X88288648Y-11704152D01*
X88288648Y-11704152D02*
X88098172Y-11704152D01*
X88098172Y-11704152D02*
X88002934Y-11751771D01*
X88002934Y-11751771D02*
X87955315Y-11799390D01*
X87955315Y-11799390D02*
X87907696Y-11894628D01*
X87907696Y-11894628D02*
X87907696Y-12180342D01*
X87907696Y-12180342D02*
X87955315Y-12275580D01*
X87955315Y-12275580D02*
X88002934Y-12323200D01*
X88002934Y-12323200D02*
X88098172Y-12370819D01*
X88098172Y-12370819D02*
X88288648Y-12370819D01*
X88288648Y-12370819D02*
X88383886Y-12323200D01*
X87479124Y-12370819D02*
X87479124Y-11704152D01*
X87479124Y-11894628D02*
X87431505Y-11799390D01*
X87431505Y-11799390D02*
X87383886Y-11751771D01*
X87383886Y-11751771D02*
X87288648Y-11704152D01*
X87288648Y-11704152D02*
X87193410Y-11704152D01*
X86717219Y-12370819D02*
X86812457Y-12323200D01*
X86812457Y-12323200D02*
X86860076Y-12275580D01*
X86860076Y-12275580D02*
X86907695Y-12180342D01*
X86907695Y-12180342D02*
X86907695Y-11894628D01*
X86907695Y-11894628D02*
X86860076Y-11799390D01*
X86860076Y-11799390D02*
X86812457Y-11751771D01*
X86812457Y-11751771D02*
X86717219Y-11704152D01*
X86717219Y-11704152D02*
X86574362Y-11704152D01*
X86574362Y-11704152D02*
X86479124Y-11751771D01*
X86479124Y-11751771D02*
X86431505Y-11799390D01*
X86431505Y-11799390D02*
X86383886Y-11894628D01*
X86383886Y-11894628D02*
X86383886Y-12180342D01*
X86383886Y-12180342D02*
X86431505Y-12275580D01*
X86431505Y-12275580D02*
X86479124Y-12323200D01*
X86479124Y-12323200D02*
X86574362Y-12370819D01*
X86574362Y-12370819D02*
X86717219Y-12370819D01*
X85526743Y-11704152D02*
X85526743Y-12513676D01*
X85526743Y-12513676D02*
X85574362Y-12608914D01*
X85574362Y-12608914D02*
X85621981Y-12656533D01*
X85621981Y-12656533D02*
X85717219Y-12704152D01*
X85717219Y-12704152D02*
X85860076Y-12704152D01*
X85860076Y-12704152D02*
X85955314Y-12656533D01*
X85526743Y-12323200D02*
X85621981Y-12370819D01*
X85621981Y-12370819D02*
X85812457Y-12370819D01*
X85812457Y-12370819D02*
X85907695Y-12323200D01*
X85907695Y-12323200D02*
X85955314Y-12275580D01*
X85955314Y-12275580D02*
X86002933Y-12180342D01*
X86002933Y-12180342D02*
X86002933Y-11894628D01*
X86002933Y-11894628D02*
X85955314Y-11799390D01*
X85955314Y-11799390D02*
X85907695Y-11751771D01*
X85907695Y-11751771D02*
X85812457Y-11704152D01*
X85812457Y-11704152D02*
X85621981Y-11704152D01*
X85621981Y-11704152D02*
X85526743Y-11751771D01*
X85050552Y-12370819D02*
X85050552Y-11704152D01*
X85050552Y-11894628D02*
X85002933Y-11799390D01*
X85002933Y-11799390D02*
X84955314Y-11751771D01*
X84955314Y-11751771D02*
X84860076Y-11704152D01*
X84860076Y-11704152D02*
X84764838Y-11704152D01*
X84002933Y-12370819D02*
X84002933Y-11847009D01*
X84002933Y-11847009D02*
X84050552Y-11751771D01*
X84050552Y-11751771D02*
X84145790Y-11704152D01*
X84145790Y-11704152D02*
X84336266Y-11704152D01*
X84336266Y-11704152D02*
X84431504Y-11751771D01*
X84002933Y-12323200D02*
X84098171Y-12370819D01*
X84098171Y-12370819D02*
X84336266Y-12370819D01*
X84336266Y-12370819D02*
X84431504Y-12323200D01*
X84431504Y-12323200D02*
X84479123Y-12227961D01*
X84479123Y-12227961D02*
X84479123Y-12132723D01*
X84479123Y-12132723D02*
X84431504Y-12037485D01*
X84431504Y-12037485D02*
X84336266Y-11989866D01*
X84336266Y-11989866D02*
X84098171Y-11989866D01*
X84098171Y-11989866D02*
X84002933Y-11942247D01*
X83526742Y-12370819D02*
X83526742Y-11704152D01*
X83526742Y-11799390D02*
X83479123Y-11751771D01*
X83479123Y-11751771D02*
X83383885Y-11704152D01*
X83383885Y-11704152D02*
X83241028Y-11704152D01*
X83241028Y-11704152D02*
X83145790Y-11751771D01*
X83145790Y-11751771D02*
X83098171Y-11847009D01*
X83098171Y-11847009D02*
X83098171Y-12370819D01*
X83098171Y-11847009D02*
X83050552Y-11751771D01*
X83050552Y-11751771D02*
X82955314Y-11704152D01*
X82955314Y-11704152D02*
X82812457Y-11704152D01*
X82812457Y-11704152D02*
X82717218Y-11751771D01*
X82717218Y-11751771D02*
X82669599Y-11847009D01*
X82669599Y-11847009D02*
X82669599Y-12370819D01*
X82193409Y-12370819D02*
X82193409Y-11704152D01*
X82193409Y-11799390D02*
X82145790Y-11751771D01*
X82145790Y-11751771D02*
X82050552Y-11704152D01*
X82050552Y-11704152D02*
X81907695Y-11704152D01*
X81907695Y-11704152D02*
X81812457Y-11751771D01*
X81812457Y-11751771D02*
X81764838Y-11847009D01*
X81764838Y-11847009D02*
X81764838Y-12370819D01*
X81764838Y-11847009D02*
X81717219Y-11751771D01*
X81717219Y-11751771D02*
X81621981Y-11704152D01*
X81621981Y-11704152D02*
X81479124Y-11704152D01*
X81479124Y-11704152D02*
X81383885Y-11751771D01*
X81383885Y-11751771D02*
X81336266Y-11847009D01*
X81336266Y-11847009D02*
X81336266Y-12370819D01*
X80860076Y-12370819D02*
X80860076Y-11704152D01*
X80860076Y-11370819D02*
X80907695Y-11418438D01*
X80907695Y-11418438D02*
X80860076Y-11466057D01*
X80860076Y-11466057D02*
X80812457Y-11418438D01*
X80812457Y-11418438D02*
X80860076Y-11370819D01*
X80860076Y-11370819D02*
X80860076Y-11466057D01*
X80383886Y-11704152D02*
X80383886Y-12370819D01*
X80383886Y-11799390D02*
X80336267Y-11751771D01*
X80336267Y-11751771D02*
X80241029Y-11704152D01*
X80241029Y-11704152D02*
X80098172Y-11704152D01*
X80098172Y-11704152D02*
X80002934Y-11751771D01*
X80002934Y-11751771D02*
X79955315Y-11847009D01*
X79955315Y-11847009D02*
X79955315Y-12370819D01*
X79050553Y-11704152D02*
X79050553Y-12513676D01*
X79050553Y-12513676D02*
X79098172Y-12608914D01*
X79098172Y-12608914D02*
X79145791Y-12656533D01*
X79145791Y-12656533D02*
X79241029Y-12704152D01*
X79241029Y-12704152D02*
X79383886Y-12704152D01*
X79383886Y-12704152D02*
X79479124Y-12656533D01*
X79050553Y-12323200D02*
X79145791Y-12370819D01*
X79145791Y-12370819D02*
X79336267Y-12370819D01*
X79336267Y-12370819D02*
X79431505Y-12323200D01*
X79431505Y-12323200D02*
X79479124Y-12275580D01*
X79479124Y-12275580D02*
X79526743Y-12180342D01*
X79526743Y-12180342D02*
X79526743Y-11894628D01*
X79526743Y-11894628D02*
X79479124Y-11799390D01*
X79479124Y-11799390D02*
X79431505Y-11751771D01*
X79431505Y-11751771D02*
X79336267Y-11704152D01*
X79336267Y-11704152D02*
X79145791Y-11704152D01*
X79145791Y-11704152D02*
X79050553Y-11751771D01*
X77907695Y-11704152D02*
X77669600Y-12370819D01*
X77669600Y-12370819D02*
X77431505Y-11704152D01*
X77050552Y-12370819D02*
X77050552Y-11704152D01*
X77050552Y-11370819D02*
X77098171Y-11418438D01*
X77098171Y-11418438D02*
X77050552Y-11466057D01*
X77050552Y-11466057D02*
X77002933Y-11418438D01*
X77002933Y-11418438D02*
X77050552Y-11370819D01*
X77050552Y-11370819D02*
X77050552Y-11466057D01*
X76145791Y-12370819D02*
X76145791Y-11847009D01*
X76145791Y-11847009D02*
X76193410Y-11751771D01*
X76193410Y-11751771D02*
X76288648Y-11704152D01*
X76288648Y-11704152D02*
X76479124Y-11704152D01*
X76479124Y-11704152D02*
X76574362Y-11751771D01*
X76145791Y-12323200D02*
X76241029Y-12370819D01*
X76241029Y-12370819D02*
X76479124Y-12370819D01*
X76479124Y-12370819D02*
X76574362Y-12323200D01*
X76574362Y-12323200D02*
X76621981Y-12227961D01*
X76621981Y-12227961D02*
X76621981Y-12132723D01*
X76621981Y-12132723D02*
X76574362Y-12037485D01*
X76574362Y-12037485D02*
X76479124Y-11989866D01*
X76479124Y-11989866D02*
X76241029Y-11989866D01*
X76241029Y-11989866D02*
X76145791Y-11942247D01*
X74621981Y-11370819D02*
X74621981Y-12085104D01*
X74621981Y-12085104D02*
X74669600Y-12227961D01*
X74669600Y-12227961D02*
X74764838Y-12323200D01*
X74764838Y-12323200D02*
X74907695Y-12370819D01*
X74907695Y-12370819D02*
X75002933Y-12370819D01*
X74145790Y-12370819D02*
X74145790Y-11370819D01*
X74145790Y-11370819D02*
X73764838Y-11370819D01*
X73764838Y-11370819D02*
X73669600Y-11418438D01*
X73669600Y-11418438D02*
X73621981Y-11466057D01*
X73621981Y-11466057D02*
X73574362Y-11561295D01*
X73574362Y-11561295D02*
X73574362Y-11704152D01*
X73574362Y-11704152D02*
X73621981Y-11799390D01*
X73621981Y-11799390D02*
X73669600Y-11847009D01*
X73669600Y-11847009D02*
X73764838Y-11894628D01*
X73764838Y-11894628D02*
X74145790Y-11894628D01*
X72574362Y-12370819D02*
X72907695Y-11894628D01*
X73145790Y-12370819D02*
X73145790Y-11370819D01*
X73145790Y-11370819D02*
X72764838Y-11370819D01*
X72764838Y-11370819D02*
X72669600Y-11418438D01*
X72669600Y-11418438D02*
X72621981Y-11466057D01*
X72621981Y-11466057D02*
X72574362Y-11561295D01*
X72574362Y-11561295D02*
X72574362Y-11704152D01*
X72574362Y-11704152D02*
X72621981Y-11799390D01*
X72621981Y-11799390D02*
X72669600Y-11847009D01*
X72669600Y-11847009D02*
X72764838Y-11894628D01*
X72764838Y-11894628D02*
X73145790Y-11894628D01*
X71955314Y-11370819D02*
X71764838Y-11370819D01*
X71764838Y-11370819D02*
X71669600Y-11418438D01*
X71669600Y-11418438D02*
X71574362Y-11513676D01*
X71574362Y-11513676D02*
X71526743Y-11704152D01*
X71526743Y-11704152D02*
X71526743Y-12037485D01*
X71526743Y-12037485D02*
X71574362Y-12227961D01*
X71574362Y-12227961D02*
X71669600Y-12323200D01*
X71669600Y-12323200D02*
X71764838Y-12370819D01*
X71764838Y-12370819D02*
X71955314Y-12370819D01*
X71955314Y-12370819D02*
X72050552Y-12323200D01*
X72050552Y-12323200D02*
X72145790Y-12227961D01*
X72145790Y-12227961D02*
X72193409Y-12037485D01*
X72193409Y-12037485D02*
X72193409Y-11704152D01*
X72193409Y-11704152D02*
X72145790Y-11513676D01*
X72145790Y-11513676D02*
X72050552Y-11418438D01*
X72050552Y-11418438D02*
X71955314Y-11370819D01*
X70574362Y-11418438D02*
X70669600Y-11370819D01*
X70669600Y-11370819D02*
X70812457Y-11370819D01*
X70812457Y-11370819D02*
X70955314Y-11418438D01*
X70955314Y-11418438D02*
X71050552Y-11513676D01*
X71050552Y-11513676D02*
X71098171Y-11608914D01*
X71098171Y-11608914D02*
X71145790Y-11799390D01*
X71145790Y-11799390D02*
X71145790Y-11942247D01*
X71145790Y-11942247D02*
X71098171Y-12132723D01*
X71098171Y-12132723D02*
X71050552Y-12227961D01*
X71050552Y-12227961D02*
X70955314Y-12323200D01*
X70955314Y-12323200D02*
X70812457Y-12370819D01*
X70812457Y-12370819D02*
X70717219Y-12370819D01*
X70717219Y-12370819D02*
X70574362Y-12323200D01*
X70574362Y-12323200D02*
X70526743Y-12275580D01*
X70526743Y-12275580D02*
X70526743Y-11942247D01*
X70526743Y-11942247D02*
X70717219Y-11942247D01*
X93717220Y-20420819D02*
X93717220Y-19420819D01*
X93241030Y-19754152D02*
X93241030Y-20420819D01*
X93241030Y-19849390D02*
X93193411Y-19801771D01*
X93193411Y-19801771D02*
X93098173Y-19754152D01*
X93098173Y-19754152D02*
X92955316Y-19754152D01*
X92955316Y-19754152D02*
X92860078Y-19801771D01*
X92860078Y-19801771D02*
X92812459Y-19897009D01*
X92812459Y-19897009D02*
X92812459Y-20420819D01*
X92336268Y-19754152D02*
X92336268Y-20754152D01*
X92336268Y-19801771D02*
X92241030Y-19754152D01*
X92241030Y-19754152D02*
X92050554Y-19754152D01*
X92050554Y-19754152D02*
X91955316Y-19801771D01*
X91955316Y-19801771D02*
X91907697Y-19849390D01*
X91907697Y-19849390D02*
X91860078Y-19944628D01*
X91860078Y-19944628D02*
X91860078Y-20230342D01*
X91860078Y-20230342D02*
X91907697Y-20325580D01*
X91907697Y-20325580D02*
X91955316Y-20373200D01*
X91955316Y-20373200D02*
X92050554Y-20420819D01*
X92050554Y-20420819D02*
X92241030Y-20420819D01*
X92241030Y-20420819D02*
X92336268Y-20373200D01*
X91002935Y-19754152D02*
X91002935Y-20420819D01*
X91431506Y-19754152D02*
X91431506Y-20277961D01*
X91431506Y-20277961D02*
X91383887Y-20373200D01*
X91383887Y-20373200D02*
X91288649Y-20420819D01*
X91288649Y-20420819D02*
X91145792Y-20420819D01*
X91145792Y-20420819D02*
X91050554Y-20373200D01*
X91050554Y-20373200D02*
X91002935Y-20325580D01*
X90669601Y-19754152D02*
X90288649Y-19754152D01*
X90526744Y-19420819D02*
X90526744Y-20277961D01*
X90526744Y-20277961D02*
X90479125Y-20373200D01*
X90479125Y-20373200D02*
X90383887Y-20420819D01*
X90383887Y-20420819D02*
X90288649Y-20420819D01*
X89288648Y-19754152D02*
X89050553Y-20420819D01*
X89050553Y-20420819D02*
X88812458Y-19754152D01*
X88288648Y-20420819D02*
X88383886Y-20373200D01*
X88383886Y-20373200D02*
X88431505Y-20325580D01*
X88431505Y-20325580D02*
X88479124Y-20230342D01*
X88479124Y-20230342D02*
X88479124Y-19944628D01*
X88479124Y-19944628D02*
X88431505Y-19849390D01*
X88431505Y-19849390D02*
X88383886Y-19801771D01*
X88383886Y-19801771D02*
X88288648Y-19754152D01*
X88288648Y-19754152D02*
X88145791Y-19754152D01*
X88145791Y-19754152D02*
X88050553Y-19801771D01*
X88050553Y-19801771D02*
X88002934Y-19849390D01*
X88002934Y-19849390D02*
X87955315Y-19944628D01*
X87955315Y-19944628D02*
X87955315Y-20230342D01*
X87955315Y-20230342D02*
X88002934Y-20325580D01*
X88002934Y-20325580D02*
X88050553Y-20373200D01*
X88050553Y-20373200D02*
X88145791Y-20420819D01*
X88145791Y-20420819D02*
X88288648Y-20420819D01*
X87383886Y-20420819D02*
X87479124Y-20373200D01*
X87479124Y-20373200D02*
X87526743Y-20277961D01*
X87526743Y-20277961D02*
X87526743Y-19420819D01*
X87145790Y-19754152D02*
X86764838Y-19754152D01*
X87002933Y-19420819D02*
X87002933Y-20277961D01*
X87002933Y-20277961D02*
X86955314Y-20373200D01*
X86955314Y-20373200D02*
X86860076Y-20420819D01*
X86860076Y-20420819D02*
X86764838Y-20420819D01*
X86002933Y-20420819D02*
X86002933Y-19897009D01*
X86002933Y-19897009D02*
X86050552Y-19801771D01*
X86050552Y-19801771D02*
X86145790Y-19754152D01*
X86145790Y-19754152D02*
X86336266Y-19754152D01*
X86336266Y-19754152D02*
X86431504Y-19801771D01*
X86002933Y-20373200D02*
X86098171Y-20420819D01*
X86098171Y-20420819D02*
X86336266Y-20420819D01*
X86336266Y-20420819D02*
X86431504Y-20373200D01*
X86431504Y-20373200D02*
X86479123Y-20277961D01*
X86479123Y-20277961D02*
X86479123Y-20182723D01*
X86479123Y-20182723D02*
X86431504Y-20087485D01*
X86431504Y-20087485D02*
X86336266Y-20039866D01*
X86336266Y-20039866D02*
X86098171Y-20039866D01*
X86098171Y-20039866D02*
X86002933Y-19992247D01*
X85098171Y-19754152D02*
X85098171Y-20563676D01*
X85098171Y-20563676D02*
X85145790Y-20658914D01*
X85145790Y-20658914D02*
X85193409Y-20706533D01*
X85193409Y-20706533D02*
X85288647Y-20754152D01*
X85288647Y-20754152D02*
X85431504Y-20754152D01*
X85431504Y-20754152D02*
X85526742Y-20706533D01*
X85098171Y-20373200D02*
X85193409Y-20420819D01*
X85193409Y-20420819D02*
X85383885Y-20420819D01*
X85383885Y-20420819D02*
X85479123Y-20373200D01*
X85479123Y-20373200D02*
X85526742Y-20325580D01*
X85526742Y-20325580D02*
X85574361Y-20230342D01*
X85574361Y-20230342D02*
X85574361Y-19944628D01*
X85574361Y-19944628D02*
X85526742Y-19849390D01*
X85526742Y-19849390D02*
X85479123Y-19801771D01*
X85479123Y-19801771D02*
X85383885Y-19754152D01*
X85383885Y-19754152D02*
X85193409Y-19754152D01*
X85193409Y-19754152D02*
X85098171Y-19801771D01*
X84241028Y-20373200D02*
X84336266Y-20420819D01*
X84336266Y-20420819D02*
X84526742Y-20420819D01*
X84526742Y-20420819D02*
X84621980Y-20373200D01*
X84621980Y-20373200D02*
X84669599Y-20277961D01*
X84669599Y-20277961D02*
X84669599Y-19897009D01*
X84669599Y-19897009D02*
X84621980Y-19801771D01*
X84621980Y-19801771D02*
X84526742Y-19754152D01*
X84526742Y-19754152D02*
X84336266Y-19754152D01*
X84336266Y-19754152D02*
X84241028Y-19801771D01*
X84241028Y-19801771D02*
X84193409Y-19897009D01*
X84193409Y-19897009D02*
X84193409Y-19992247D01*
X84193409Y-19992247D02*
X84669599Y-20087485D01*
X82526742Y-19420819D02*
X83002932Y-19420819D01*
X83002932Y-19420819D02*
X83050551Y-19897009D01*
X83050551Y-19897009D02*
X83002932Y-19849390D01*
X83002932Y-19849390D02*
X82907694Y-19801771D01*
X82907694Y-19801771D02*
X82669599Y-19801771D01*
X82669599Y-19801771D02*
X82574361Y-19849390D01*
X82574361Y-19849390D02*
X82526742Y-19897009D01*
X82526742Y-19897009D02*
X82479123Y-19992247D01*
X82479123Y-19992247D02*
X82479123Y-20230342D01*
X82479123Y-20230342D02*
X82526742Y-20325580D01*
X82526742Y-20325580D02*
X82574361Y-20373200D01*
X82574361Y-20373200D02*
X82669599Y-20420819D01*
X82669599Y-20420819D02*
X82907694Y-20420819D01*
X82907694Y-20420819D02*
X83002932Y-20373200D01*
X83002932Y-20373200D02*
X83050551Y-20325580D01*
X82193408Y-20039866D02*
X82145789Y-19992247D01*
X82145789Y-19992247D02*
X82050551Y-19944628D01*
X82050551Y-19944628D02*
X81860075Y-20039866D01*
X81860075Y-20039866D02*
X81764837Y-19992247D01*
X81764837Y-19992247D02*
X81717218Y-19944628D01*
X80907694Y-19420819D02*
X81098170Y-19420819D01*
X81098170Y-19420819D02*
X81193408Y-19468438D01*
X81193408Y-19468438D02*
X81241027Y-19516057D01*
X81241027Y-19516057D02*
X81336265Y-19658914D01*
X81336265Y-19658914D02*
X81383884Y-19849390D01*
X81383884Y-19849390D02*
X81383884Y-20230342D01*
X81383884Y-20230342D02*
X81336265Y-20325580D01*
X81336265Y-20325580D02*
X81288646Y-20373200D01*
X81288646Y-20373200D02*
X81193408Y-20420819D01*
X81193408Y-20420819D02*
X81002932Y-20420819D01*
X81002932Y-20420819D02*
X80907694Y-20373200D01*
X80907694Y-20373200D02*
X80860075Y-20325580D01*
X80860075Y-20325580D02*
X80812456Y-20230342D01*
X80812456Y-20230342D02*
X80812456Y-19992247D01*
X80812456Y-19992247D02*
X80860075Y-19897009D01*
X80860075Y-19897009D02*
X80907694Y-19849390D01*
X80907694Y-19849390D02*
X81002932Y-19801771D01*
X81002932Y-19801771D02*
X81193408Y-19801771D01*
X81193408Y-19801771D02*
X81288646Y-19849390D01*
X81288646Y-19849390D02*
X81336265Y-19897009D01*
X81336265Y-19897009D02*
X81383884Y-19992247D01*
X80526741Y-19420819D02*
X80193408Y-20420819D01*
X80193408Y-20420819D02*
X79860075Y-19420819D01*
X92955315Y-22030819D02*
X92955315Y-21030819D01*
X92479125Y-21364152D02*
X92479125Y-22030819D01*
X92479125Y-21459390D02*
X92431506Y-21411771D01*
X92431506Y-21411771D02*
X92336268Y-21364152D01*
X92336268Y-21364152D02*
X92193411Y-21364152D01*
X92193411Y-21364152D02*
X92098173Y-21411771D01*
X92098173Y-21411771D02*
X92050554Y-21507009D01*
X92050554Y-21507009D02*
X92050554Y-22030819D01*
X91145792Y-21983200D02*
X91241030Y-22030819D01*
X91241030Y-22030819D02*
X91431506Y-22030819D01*
X91431506Y-22030819D02*
X91526744Y-21983200D01*
X91526744Y-21983200D02*
X91574363Y-21935580D01*
X91574363Y-21935580D02*
X91621982Y-21840342D01*
X91621982Y-21840342D02*
X91621982Y-21554628D01*
X91621982Y-21554628D02*
X91574363Y-21459390D01*
X91574363Y-21459390D02*
X91526744Y-21411771D01*
X91526744Y-21411771D02*
X91431506Y-21364152D01*
X91431506Y-21364152D02*
X91241030Y-21364152D01*
X91241030Y-21364152D02*
X91145792Y-21411771D01*
X90574363Y-22030819D02*
X90669601Y-21983200D01*
X90669601Y-21983200D02*
X90717220Y-21887961D01*
X90717220Y-21887961D02*
X90717220Y-21030819D01*
X89764839Y-21364152D02*
X89764839Y-22030819D01*
X90193410Y-21364152D02*
X90193410Y-21887961D01*
X90193410Y-21887961D02*
X90145791Y-21983200D01*
X90145791Y-21983200D02*
X90050553Y-22030819D01*
X90050553Y-22030819D02*
X89907696Y-22030819D01*
X89907696Y-22030819D02*
X89812458Y-21983200D01*
X89812458Y-21983200D02*
X89764839Y-21935580D01*
X88860077Y-22030819D02*
X88860077Y-21030819D01*
X88860077Y-21983200D02*
X88955315Y-22030819D01*
X88955315Y-22030819D02*
X89145791Y-22030819D01*
X89145791Y-22030819D02*
X89241029Y-21983200D01*
X89241029Y-21983200D02*
X89288648Y-21935580D01*
X89288648Y-21935580D02*
X89336267Y-21840342D01*
X89336267Y-21840342D02*
X89336267Y-21554628D01*
X89336267Y-21554628D02*
X89288648Y-21459390D01*
X89288648Y-21459390D02*
X89241029Y-21411771D01*
X89241029Y-21411771D02*
X89145791Y-21364152D01*
X89145791Y-21364152D02*
X88955315Y-21364152D01*
X88955315Y-21364152D02*
X88860077Y-21411771D01*
X88002934Y-21983200D02*
X88098172Y-22030819D01*
X88098172Y-22030819D02*
X88288648Y-22030819D01*
X88288648Y-22030819D02*
X88383886Y-21983200D01*
X88383886Y-21983200D02*
X88431505Y-21887961D01*
X88431505Y-21887961D02*
X88431505Y-21507009D01*
X88431505Y-21507009D02*
X88383886Y-21411771D01*
X88383886Y-21411771D02*
X88288648Y-21364152D01*
X88288648Y-21364152D02*
X88098172Y-21364152D01*
X88098172Y-21364152D02*
X88002934Y-21411771D01*
X88002934Y-21411771D02*
X87955315Y-21507009D01*
X87955315Y-21507009D02*
X87955315Y-21602247D01*
X87955315Y-21602247D02*
X88431505Y-21697485D01*
X87574362Y-21983200D02*
X87479124Y-22030819D01*
X87479124Y-22030819D02*
X87288648Y-22030819D01*
X87288648Y-22030819D02*
X87193410Y-21983200D01*
X87193410Y-21983200D02*
X87145791Y-21887961D01*
X87145791Y-21887961D02*
X87145791Y-21840342D01*
X87145791Y-21840342D02*
X87193410Y-21745104D01*
X87193410Y-21745104D02*
X87288648Y-21697485D01*
X87288648Y-21697485D02*
X87431505Y-21697485D01*
X87431505Y-21697485D02*
X87526743Y-21649866D01*
X87526743Y-21649866D02*
X87574362Y-21554628D01*
X87574362Y-21554628D02*
X87574362Y-21507009D01*
X87574362Y-21507009D02*
X87526743Y-21411771D01*
X87526743Y-21411771D02*
X87431505Y-21364152D01*
X87431505Y-21364152D02*
X87288648Y-21364152D01*
X87288648Y-21364152D02*
X87193410Y-21411771D01*
X85955314Y-22030819D02*
X85955314Y-21364152D01*
X85955314Y-21554628D02*
X85907695Y-21459390D01*
X85907695Y-21459390D02*
X85860076Y-21411771D01*
X85860076Y-21411771D02*
X85764838Y-21364152D01*
X85764838Y-21364152D02*
X85669600Y-21364152D01*
X84955314Y-21983200D02*
X85050552Y-22030819D01*
X85050552Y-22030819D02*
X85241028Y-22030819D01*
X85241028Y-22030819D02*
X85336266Y-21983200D01*
X85336266Y-21983200D02*
X85383885Y-21887961D01*
X85383885Y-21887961D02*
X85383885Y-21507009D01*
X85383885Y-21507009D02*
X85336266Y-21411771D01*
X85336266Y-21411771D02*
X85241028Y-21364152D01*
X85241028Y-21364152D02*
X85050552Y-21364152D01*
X85050552Y-21364152D02*
X84955314Y-21411771D01*
X84955314Y-21411771D02*
X84907695Y-21507009D01*
X84907695Y-21507009D02*
X84907695Y-21602247D01*
X84907695Y-21602247D02*
X85383885Y-21697485D01*
X84574361Y-21364152D02*
X84336266Y-22030819D01*
X84336266Y-22030819D02*
X84098171Y-21364152D01*
X83336266Y-21983200D02*
X83431504Y-22030819D01*
X83431504Y-22030819D02*
X83621980Y-22030819D01*
X83621980Y-22030819D02*
X83717218Y-21983200D01*
X83717218Y-21983200D02*
X83764837Y-21887961D01*
X83764837Y-21887961D02*
X83764837Y-21507009D01*
X83764837Y-21507009D02*
X83717218Y-21411771D01*
X83717218Y-21411771D02*
X83621980Y-21364152D01*
X83621980Y-21364152D02*
X83431504Y-21364152D01*
X83431504Y-21364152D02*
X83336266Y-21411771D01*
X83336266Y-21411771D02*
X83288647Y-21507009D01*
X83288647Y-21507009D02*
X83288647Y-21602247D01*
X83288647Y-21602247D02*
X83764837Y-21697485D01*
X82860075Y-22030819D02*
X82860075Y-21364152D01*
X82860075Y-21554628D02*
X82812456Y-21459390D01*
X82812456Y-21459390D02*
X82764837Y-21411771D01*
X82764837Y-21411771D02*
X82669599Y-21364152D01*
X82669599Y-21364152D02*
X82574361Y-21364152D01*
X82288646Y-21983200D02*
X82193408Y-22030819D01*
X82193408Y-22030819D02*
X82002932Y-22030819D01*
X82002932Y-22030819D02*
X81907694Y-21983200D01*
X81907694Y-21983200D02*
X81860075Y-21887961D01*
X81860075Y-21887961D02*
X81860075Y-21840342D01*
X81860075Y-21840342D02*
X81907694Y-21745104D01*
X81907694Y-21745104D02*
X82002932Y-21697485D01*
X82002932Y-21697485D02*
X82145789Y-21697485D01*
X82145789Y-21697485D02*
X82241027Y-21649866D01*
X82241027Y-21649866D02*
X82288646Y-21554628D01*
X82288646Y-21554628D02*
X82288646Y-21507009D01*
X82288646Y-21507009D02*
X82241027Y-21411771D01*
X82241027Y-21411771D02*
X82145789Y-21364152D01*
X82145789Y-21364152D02*
X82002932Y-21364152D01*
X82002932Y-21364152D02*
X81907694Y-21411771D01*
X81050551Y-21983200D02*
X81145789Y-22030819D01*
X81145789Y-22030819D02*
X81336265Y-22030819D01*
X81336265Y-22030819D02*
X81431503Y-21983200D01*
X81431503Y-21983200D02*
X81479122Y-21887961D01*
X81479122Y-21887961D02*
X81479122Y-21507009D01*
X81479122Y-21507009D02*
X81431503Y-21411771D01*
X81431503Y-21411771D02*
X81336265Y-21364152D01*
X81336265Y-21364152D02*
X81145789Y-21364152D01*
X81145789Y-21364152D02*
X81050551Y-21411771D01*
X81050551Y-21411771D02*
X81002932Y-21507009D01*
X81002932Y-21507009D02*
X81002932Y-21602247D01*
X81002932Y-21602247D02*
X81479122Y-21697485D01*
X79907693Y-21364152D02*
X79669598Y-22030819D01*
X79669598Y-22030819D02*
X79431503Y-21364152D01*
X78907693Y-22030819D02*
X79002931Y-21983200D01*
X79002931Y-21983200D02*
X79050550Y-21935580D01*
X79050550Y-21935580D02*
X79098169Y-21840342D01*
X79098169Y-21840342D02*
X79098169Y-21554628D01*
X79098169Y-21554628D02*
X79050550Y-21459390D01*
X79050550Y-21459390D02*
X79002931Y-21411771D01*
X79002931Y-21411771D02*
X78907693Y-21364152D01*
X78907693Y-21364152D02*
X78764836Y-21364152D01*
X78764836Y-21364152D02*
X78669598Y-21411771D01*
X78669598Y-21411771D02*
X78621979Y-21459390D01*
X78621979Y-21459390D02*
X78574360Y-21554628D01*
X78574360Y-21554628D02*
X78574360Y-21840342D01*
X78574360Y-21840342D02*
X78621979Y-21935580D01*
X78621979Y-21935580D02*
X78669598Y-21983200D01*
X78669598Y-21983200D02*
X78764836Y-22030819D01*
X78764836Y-22030819D02*
X78907693Y-22030819D01*
X78002931Y-22030819D02*
X78098169Y-21983200D01*
X78098169Y-21983200D02*
X78145788Y-21887961D01*
X78145788Y-21887961D02*
X78145788Y-21030819D01*
X77764835Y-21364152D02*
X77383883Y-21364152D01*
X77621978Y-21030819D02*
X77621978Y-21887961D01*
X77621978Y-21887961D02*
X77574359Y-21983200D01*
X77574359Y-21983200D02*
X77479121Y-22030819D01*
X77479121Y-22030819D02*
X77383883Y-22030819D01*
X76621978Y-22030819D02*
X76621978Y-21507009D01*
X76621978Y-21507009D02*
X76669597Y-21411771D01*
X76669597Y-21411771D02*
X76764835Y-21364152D01*
X76764835Y-21364152D02*
X76955311Y-21364152D01*
X76955311Y-21364152D02*
X77050549Y-21411771D01*
X76621978Y-21983200D02*
X76717216Y-22030819D01*
X76717216Y-22030819D02*
X76955311Y-22030819D01*
X76955311Y-22030819D02*
X77050549Y-21983200D01*
X77050549Y-21983200D02*
X77098168Y-21887961D01*
X77098168Y-21887961D02*
X77098168Y-21792723D01*
X77098168Y-21792723D02*
X77050549Y-21697485D01*
X77050549Y-21697485D02*
X76955311Y-21649866D01*
X76955311Y-21649866D02*
X76717216Y-21649866D01*
X76717216Y-21649866D02*
X76621978Y-21602247D01*
X75717216Y-21364152D02*
X75717216Y-22173676D01*
X75717216Y-22173676D02*
X75764835Y-22268914D01*
X75764835Y-22268914D02*
X75812454Y-22316533D01*
X75812454Y-22316533D02*
X75907692Y-22364152D01*
X75907692Y-22364152D02*
X76050549Y-22364152D01*
X76050549Y-22364152D02*
X76145787Y-22316533D01*
X75717216Y-21983200D02*
X75812454Y-22030819D01*
X75812454Y-22030819D02*
X76002930Y-22030819D01*
X76002930Y-22030819D02*
X76098168Y-21983200D01*
X76098168Y-21983200D02*
X76145787Y-21935580D01*
X76145787Y-21935580D02*
X76193406Y-21840342D01*
X76193406Y-21840342D02*
X76193406Y-21554628D01*
X76193406Y-21554628D02*
X76145787Y-21459390D01*
X76145787Y-21459390D02*
X76098168Y-21411771D01*
X76098168Y-21411771D02*
X76002930Y-21364152D01*
X76002930Y-21364152D02*
X75812454Y-21364152D01*
X75812454Y-21364152D02*
X75717216Y-21411771D01*
X74860073Y-21983200D02*
X74955311Y-22030819D01*
X74955311Y-22030819D02*
X75145787Y-22030819D01*
X75145787Y-22030819D02*
X75241025Y-21983200D01*
X75241025Y-21983200D02*
X75288644Y-21887961D01*
X75288644Y-21887961D02*
X75288644Y-21507009D01*
X75288644Y-21507009D02*
X75241025Y-21411771D01*
X75241025Y-21411771D02*
X75145787Y-21364152D01*
X75145787Y-21364152D02*
X74955311Y-21364152D01*
X74955311Y-21364152D02*
X74860073Y-21411771D01*
X74860073Y-21411771D02*
X74812454Y-21507009D01*
X74812454Y-21507009D02*
X74812454Y-21602247D01*
X74812454Y-21602247D02*
X75288644Y-21697485D01*
X73621977Y-21364152D02*
X73621977Y-22364152D01*
X73621977Y-21411771D02*
X73526739Y-21364152D01*
X73526739Y-21364152D02*
X73336263Y-21364152D01*
X73336263Y-21364152D02*
X73241025Y-21411771D01*
X73241025Y-21411771D02*
X73193406Y-21459390D01*
X73193406Y-21459390D02*
X73145787Y-21554628D01*
X73145787Y-21554628D02*
X73145787Y-21840342D01*
X73145787Y-21840342D02*
X73193406Y-21935580D01*
X73193406Y-21935580D02*
X73241025Y-21983200D01*
X73241025Y-21983200D02*
X73336263Y-22030819D01*
X73336263Y-22030819D02*
X73526739Y-22030819D01*
X73526739Y-22030819D02*
X73621977Y-21983200D01*
X72717215Y-22030819D02*
X72717215Y-21364152D01*
X72717215Y-21554628D02*
X72669596Y-21459390D01*
X72669596Y-21459390D02*
X72621977Y-21411771D01*
X72621977Y-21411771D02*
X72526739Y-21364152D01*
X72526739Y-21364152D02*
X72431501Y-21364152D01*
X71955310Y-22030819D02*
X72050548Y-21983200D01*
X72050548Y-21983200D02*
X72098167Y-21935580D01*
X72098167Y-21935580D02*
X72145786Y-21840342D01*
X72145786Y-21840342D02*
X72145786Y-21554628D01*
X72145786Y-21554628D02*
X72098167Y-21459390D01*
X72098167Y-21459390D02*
X72050548Y-21411771D01*
X72050548Y-21411771D02*
X71955310Y-21364152D01*
X71955310Y-21364152D02*
X71812453Y-21364152D01*
X71812453Y-21364152D02*
X71717215Y-21411771D01*
X71717215Y-21411771D02*
X71669596Y-21459390D01*
X71669596Y-21459390D02*
X71621977Y-21554628D01*
X71621977Y-21554628D02*
X71621977Y-21840342D01*
X71621977Y-21840342D02*
X71669596Y-21935580D01*
X71669596Y-21935580D02*
X71717215Y-21983200D01*
X71717215Y-21983200D02*
X71812453Y-22030819D01*
X71812453Y-22030819D02*
X71955310Y-22030819D01*
X71336262Y-21364152D02*
X70955310Y-21364152D01*
X71193405Y-21030819D02*
X71193405Y-21887961D01*
X71193405Y-21887961D02*
X71145786Y-21983200D01*
X71145786Y-21983200D02*
X71050548Y-22030819D01*
X71050548Y-22030819D02*
X70955310Y-22030819D01*
X70241024Y-21983200D02*
X70336262Y-22030819D01*
X70336262Y-22030819D02*
X70526738Y-22030819D01*
X70526738Y-22030819D02*
X70621976Y-21983200D01*
X70621976Y-21983200D02*
X70669595Y-21887961D01*
X70669595Y-21887961D02*
X70669595Y-21507009D01*
X70669595Y-21507009D02*
X70621976Y-21411771D01*
X70621976Y-21411771D02*
X70526738Y-21364152D01*
X70526738Y-21364152D02*
X70336262Y-21364152D01*
X70336262Y-21364152D02*
X70241024Y-21411771D01*
X70241024Y-21411771D02*
X70193405Y-21507009D01*
X70193405Y-21507009D02*
X70193405Y-21602247D01*
X70193405Y-21602247D02*
X70669595Y-21697485D01*
X69336262Y-21983200D02*
X69431500Y-22030819D01*
X69431500Y-22030819D02*
X69621976Y-22030819D01*
X69621976Y-22030819D02*
X69717214Y-21983200D01*
X69717214Y-21983200D02*
X69764833Y-21935580D01*
X69764833Y-21935580D02*
X69812452Y-21840342D01*
X69812452Y-21840342D02*
X69812452Y-21554628D01*
X69812452Y-21554628D02*
X69764833Y-21459390D01*
X69764833Y-21459390D02*
X69717214Y-21411771D01*
X69717214Y-21411771D02*
X69621976Y-21364152D01*
X69621976Y-21364152D02*
X69431500Y-21364152D01*
X69431500Y-21364152D02*
X69336262Y-21411771D01*
X69050547Y-21364152D02*
X68669595Y-21364152D01*
X68907690Y-21030819D02*
X68907690Y-21887961D01*
X68907690Y-21887961D02*
X68860071Y-21983200D01*
X68860071Y-21983200D02*
X68764833Y-22030819D01*
X68764833Y-22030819D02*
X68669595Y-22030819D01*
X68336261Y-22030819D02*
X68336261Y-21364152D01*
X68336261Y-21030819D02*
X68383880Y-21078438D01*
X68383880Y-21078438D02*
X68336261Y-21126057D01*
X68336261Y-21126057D02*
X68288642Y-21078438D01*
X68288642Y-21078438D02*
X68336261Y-21030819D01*
X68336261Y-21030819D02*
X68336261Y-21126057D01*
X67717214Y-22030819D02*
X67812452Y-21983200D01*
X67812452Y-21983200D02*
X67860071Y-21935580D01*
X67860071Y-21935580D02*
X67907690Y-21840342D01*
X67907690Y-21840342D02*
X67907690Y-21554628D01*
X67907690Y-21554628D02*
X67860071Y-21459390D01*
X67860071Y-21459390D02*
X67812452Y-21411771D01*
X67812452Y-21411771D02*
X67717214Y-21364152D01*
X67717214Y-21364152D02*
X67574357Y-21364152D01*
X67574357Y-21364152D02*
X67479119Y-21411771D01*
X67479119Y-21411771D02*
X67431500Y-21459390D01*
X67431500Y-21459390D02*
X67383881Y-21554628D01*
X67383881Y-21554628D02*
X67383881Y-21840342D01*
X67383881Y-21840342D02*
X67431500Y-21935580D01*
X67431500Y-21935580D02*
X67479119Y-21983200D01*
X67479119Y-21983200D02*
X67574357Y-22030819D01*
X67574357Y-22030819D02*
X67717214Y-22030819D01*
X66955309Y-21364152D02*
X66955309Y-22030819D01*
X66955309Y-21459390D02*
X66907690Y-21411771D01*
X66907690Y-21411771D02*
X66812452Y-21364152D01*
X66812452Y-21364152D02*
X66669595Y-21364152D01*
X66669595Y-21364152D02*
X66574357Y-21411771D01*
X66574357Y-21411771D02*
X66526738Y-21507009D01*
X66526738Y-21507009D02*
X66526738Y-22030819D01*
X64860071Y-22030819D02*
X64860071Y-21030819D01*
X64860071Y-21983200D02*
X64955309Y-22030819D01*
X64955309Y-22030819D02*
X65145785Y-22030819D01*
X65145785Y-22030819D02*
X65241023Y-21983200D01*
X65241023Y-21983200D02*
X65288642Y-21935580D01*
X65288642Y-21935580D02*
X65336261Y-21840342D01*
X65336261Y-21840342D02*
X65336261Y-21554628D01*
X65336261Y-21554628D02*
X65288642Y-21459390D01*
X65288642Y-21459390D02*
X65241023Y-21411771D01*
X65241023Y-21411771D02*
X65145785Y-21364152D01*
X65145785Y-21364152D02*
X64955309Y-21364152D01*
X64955309Y-21364152D02*
X64860071Y-21411771D01*
X64383880Y-22030819D02*
X64383880Y-21364152D01*
X64383880Y-21030819D02*
X64431499Y-21078438D01*
X64431499Y-21078438D02*
X64383880Y-21126057D01*
X64383880Y-21126057D02*
X64336261Y-21078438D01*
X64336261Y-21078438D02*
X64383880Y-21030819D01*
X64383880Y-21030819D02*
X64383880Y-21126057D01*
X63764833Y-22030819D02*
X63860071Y-21983200D01*
X63860071Y-21983200D02*
X63907690Y-21935580D01*
X63907690Y-21935580D02*
X63955309Y-21840342D01*
X63955309Y-21840342D02*
X63955309Y-21554628D01*
X63955309Y-21554628D02*
X63907690Y-21459390D01*
X63907690Y-21459390D02*
X63860071Y-21411771D01*
X63860071Y-21411771D02*
X63764833Y-21364152D01*
X63764833Y-21364152D02*
X63621976Y-21364152D01*
X63621976Y-21364152D02*
X63526738Y-21411771D01*
X63526738Y-21411771D02*
X63479119Y-21459390D01*
X63479119Y-21459390D02*
X63431500Y-21554628D01*
X63431500Y-21554628D02*
X63431500Y-21840342D01*
X63431500Y-21840342D02*
X63479119Y-21935580D01*
X63479119Y-21935580D02*
X63526738Y-21983200D01*
X63526738Y-21983200D02*
X63621976Y-22030819D01*
X63621976Y-22030819D02*
X63764833Y-22030819D01*
X62574357Y-22030819D02*
X62574357Y-21030819D01*
X62574357Y-21983200D02*
X62669595Y-22030819D01*
X62669595Y-22030819D02*
X62860071Y-22030819D01*
X62860071Y-22030819D02*
X62955309Y-21983200D01*
X62955309Y-21983200D02*
X63002928Y-21935580D01*
X63002928Y-21935580D02*
X63050547Y-21840342D01*
X63050547Y-21840342D02*
X63050547Y-21554628D01*
X63050547Y-21554628D02*
X63002928Y-21459390D01*
X63002928Y-21459390D02*
X62955309Y-21411771D01*
X62955309Y-21411771D02*
X62860071Y-21364152D01*
X62860071Y-21364152D02*
X62669595Y-21364152D01*
X62669595Y-21364152D02*
X62574357Y-21411771D01*
X61717214Y-21983200D02*
X61812452Y-22030819D01*
X61812452Y-22030819D02*
X62002928Y-22030819D01*
X62002928Y-22030819D02*
X62098166Y-21983200D01*
X62098166Y-21983200D02*
X62145785Y-21887961D01*
X62145785Y-21887961D02*
X62145785Y-21507009D01*
X62145785Y-21507009D02*
X62098166Y-21411771D01*
X62098166Y-21411771D02*
X62002928Y-21364152D01*
X62002928Y-21364152D02*
X61812452Y-21364152D01*
X61812452Y-21364152D02*
X61717214Y-21411771D01*
X61717214Y-21411771D02*
X61669595Y-21507009D01*
X61669595Y-21507009D02*
X61669595Y-21602247D01*
X61669595Y-21602247D02*
X62145785Y-21697485D01*
X42017792Y-7540819D02*
X42351125Y-7064628D01*
X42589220Y-7540819D02*
X42589220Y-6540819D01*
X42589220Y-6540819D02*
X42208268Y-6540819D01*
X42208268Y-6540819D02*
X42113030Y-6588438D01*
X42113030Y-6588438D02*
X42065411Y-6636057D01*
X42065411Y-6636057D02*
X42017792Y-6731295D01*
X42017792Y-6731295D02*
X42017792Y-6874152D01*
X42017792Y-6874152D02*
X42065411Y-6969390D01*
X42065411Y-6969390D02*
X42113030Y-7017009D01*
X42113030Y-7017009D02*
X42208268Y-7064628D01*
X42208268Y-7064628D02*
X42589220Y-7064628D01*
X41446363Y-7540819D02*
X41541601Y-7493200D01*
X41541601Y-7493200D02*
X41589220Y-7445580D01*
X41589220Y-7445580D02*
X41636839Y-7350342D01*
X41636839Y-7350342D02*
X41636839Y-7064628D01*
X41636839Y-7064628D02*
X41589220Y-6969390D01*
X41589220Y-6969390D02*
X41541601Y-6921771D01*
X41541601Y-6921771D02*
X41446363Y-6874152D01*
X41446363Y-6874152D02*
X41303506Y-6874152D01*
X41303506Y-6874152D02*
X41208268Y-6921771D01*
X41208268Y-6921771D02*
X41160649Y-6969390D01*
X41160649Y-6969390D02*
X41113030Y-7064628D01*
X41113030Y-7064628D02*
X41113030Y-7350342D01*
X41113030Y-7350342D02*
X41160649Y-7445580D01*
X41160649Y-7445580D02*
X41208268Y-7493200D01*
X41208268Y-7493200D02*
X41303506Y-7540819D01*
X41303506Y-7540819D02*
X41446363Y-7540819D01*
X40684458Y-7540819D02*
X40684458Y-6874152D01*
X40684458Y-6969390D02*
X40636839Y-6921771D01*
X40636839Y-6921771D02*
X40541601Y-6874152D01*
X40541601Y-6874152D02*
X40398744Y-6874152D01*
X40398744Y-6874152D02*
X40303506Y-6921771D01*
X40303506Y-6921771D02*
X40255887Y-7017009D01*
X40255887Y-7017009D02*
X40255887Y-7540819D01*
X40255887Y-7017009D02*
X40208268Y-6921771D01*
X40208268Y-6921771D02*
X40113030Y-6874152D01*
X40113030Y-6874152D02*
X39970173Y-6874152D01*
X39970173Y-6874152D02*
X39874934Y-6921771D01*
X39874934Y-6921771D02*
X39827315Y-7017009D01*
X39827315Y-7017009D02*
X39827315Y-7540819D01*
X38970173Y-7493200D02*
X39065411Y-7540819D01*
X39065411Y-7540819D02*
X39255887Y-7540819D01*
X39255887Y-7540819D02*
X39351125Y-7493200D01*
X39351125Y-7493200D02*
X39398744Y-7397961D01*
X39398744Y-7397961D02*
X39398744Y-7017009D01*
X39398744Y-7017009D02*
X39351125Y-6921771D01*
X39351125Y-6921771D02*
X39255887Y-6874152D01*
X39255887Y-6874152D02*
X39065411Y-6874152D01*
X39065411Y-6874152D02*
X38970173Y-6921771D01*
X38970173Y-6921771D02*
X38922554Y-7017009D01*
X38922554Y-7017009D02*
X38922554Y-7112247D01*
X38922554Y-7112247D02*
X39398744Y-7207485D01*
X37922554Y-7445580D02*
X37970173Y-7493200D01*
X37970173Y-7493200D02*
X38113030Y-7540819D01*
X38113030Y-7540819D02*
X38208268Y-7540819D01*
X38208268Y-7540819D02*
X38351125Y-7493200D01*
X38351125Y-7493200D02*
X38446363Y-7397961D01*
X38446363Y-7397961D02*
X38493982Y-7302723D01*
X38493982Y-7302723D02*
X38541601Y-7112247D01*
X38541601Y-7112247D02*
X38541601Y-6969390D01*
X38541601Y-6969390D02*
X38493982Y-6778914D01*
X38493982Y-6778914D02*
X38446363Y-6683676D01*
X38446363Y-6683676D02*
X38351125Y-6588438D01*
X38351125Y-6588438D02*
X38208268Y-6540819D01*
X38208268Y-6540819D02*
X38113030Y-6540819D01*
X38113030Y-6540819D02*
X37970173Y-6588438D01*
X37970173Y-6588438D02*
X37922554Y-6636057D01*
X37065411Y-6874152D02*
X37065411Y-7540819D01*
X37493982Y-6874152D02*
X37493982Y-7397961D01*
X37493982Y-7397961D02*
X37446363Y-7493200D01*
X37446363Y-7493200D02*
X37351125Y-7540819D01*
X37351125Y-7540819D02*
X37208268Y-7540819D01*
X37208268Y-7540819D02*
X37113030Y-7493200D01*
X37113030Y-7493200D02*
X37065411Y-7445580D01*
X36589220Y-6874152D02*
X36589220Y-7874152D01*
X36589220Y-6921771D02*
X36493982Y-6874152D01*
X36493982Y-6874152D02*
X36303506Y-6874152D01*
X36303506Y-6874152D02*
X36208268Y-6921771D01*
X36208268Y-6921771D02*
X36160649Y-6969390D01*
X36160649Y-6969390D02*
X36113030Y-7064628D01*
X36113030Y-7064628D02*
X36113030Y-7350342D01*
X36113030Y-7350342D02*
X36160649Y-7445580D01*
X36160649Y-7445580D02*
X36208268Y-7493200D01*
X36208268Y-7493200D02*
X36303506Y-7540819D01*
X36303506Y-7540819D02*
X36493982Y-7540819D01*
X36493982Y-7540819D02*
X36589220Y-7493200D01*
X34922553Y-7017009D02*
X34589220Y-7017009D01*
X34446363Y-7540819D02*
X34922553Y-7540819D01*
X34922553Y-7540819D02*
X34922553Y-6540819D01*
X34922553Y-6540819D02*
X34446363Y-6540819D01*
X34113029Y-7540819D02*
X33589220Y-6874152D01*
X34113029Y-6874152D02*
X33589220Y-7540819D01*
X33208267Y-6874152D02*
X33208267Y-7874152D01*
X33208267Y-6921771D02*
X33113029Y-6874152D01*
X33113029Y-6874152D02*
X32922553Y-6874152D01*
X32922553Y-6874152D02*
X32827315Y-6921771D01*
X32827315Y-6921771D02*
X32779696Y-6969390D01*
X32779696Y-6969390D02*
X32732077Y-7064628D01*
X32732077Y-7064628D02*
X32732077Y-7350342D01*
X32732077Y-7350342D02*
X32779696Y-7445580D01*
X32779696Y-7445580D02*
X32827315Y-7493200D01*
X32827315Y-7493200D02*
X32922553Y-7540819D01*
X32922553Y-7540819D02*
X33113029Y-7540819D01*
X33113029Y-7540819D02*
X33208267Y-7493200D01*
X32160648Y-7540819D02*
X32255886Y-7493200D01*
X32255886Y-7493200D02*
X32303505Y-7397961D01*
X32303505Y-7397961D02*
X32303505Y-6540819D01*
X31636838Y-7540819D02*
X31732076Y-7493200D01*
X31732076Y-7493200D02*
X31779695Y-7445580D01*
X31779695Y-7445580D02*
X31827314Y-7350342D01*
X31827314Y-7350342D02*
X31827314Y-7064628D01*
X31827314Y-7064628D02*
X31779695Y-6969390D01*
X31779695Y-6969390D02*
X31732076Y-6921771D01*
X31732076Y-6921771D02*
X31636838Y-6874152D01*
X31636838Y-6874152D02*
X31493981Y-6874152D01*
X31493981Y-6874152D02*
X31398743Y-6921771D01*
X31398743Y-6921771D02*
X31351124Y-6969390D01*
X31351124Y-6969390D02*
X31303505Y-7064628D01*
X31303505Y-7064628D02*
X31303505Y-7350342D01*
X31303505Y-7350342D02*
X31351124Y-7445580D01*
X31351124Y-7445580D02*
X31398743Y-7493200D01*
X31398743Y-7493200D02*
X31493981Y-7540819D01*
X31493981Y-7540819D02*
X31636838Y-7540819D01*
X30874933Y-7540819D02*
X30874933Y-6874152D01*
X30874933Y-7064628D02*
X30827314Y-6969390D01*
X30827314Y-6969390D02*
X30779695Y-6921771D01*
X30779695Y-6921771D02*
X30684457Y-6874152D01*
X30684457Y-6874152D02*
X30589219Y-6874152D01*
X29874933Y-7493200D02*
X29970171Y-7540819D01*
X29970171Y-7540819D02*
X30160647Y-7540819D01*
X30160647Y-7540819D02*
X30255885Y-7493200D01*
X30255885Y-7493200D02*
X30303504Y-7397961D01*
X30303504Y-7397961D02*
X30303504Y-7017009D01*
X30303504Y-7017009D02*
X30255885Y-6921771D01*
X30255885Y-6921771D02*
X30160647Y-6874152D01*
X30160647Y-6874152D02*
X29970171Y-6874152D01*
X29970171Y-6874152D02*
X29874933Y-6921771D01*
X29874933Y-6921771D02*
X29827314Y-7017009D01*
X29827314Y-7017009D02*
X29827314Y-7112247D01*
X29827314Y-7112247D02*
X30303504Y-7207485D01*
X29398742Y-7540819D02*
X29398742Y-6874152D01*
X29398742Y-7064628D02*
X29351123Y-6969390D01*
X29351123Y-6969390D02*
X29303504Y-6921771D01*
X29303504Y-6921771D02*
X29208266Y-6874152D01*
X29208266Y-6874152D02*
X29113028Y-6874152D01*
X28065408Y-7493200D02*
X27922551Y-7540819D01*
X27922551Y-7540819D02*
X27684456Y-7540819D01*
X27684456Y-7540819D02*
X27589218Y-7493200D01*
X27589218Y-7493200D02*
X27541599Y-7445580D01*
X27541599Y-7445580D02*
X27493980Y-7350342D01*
X27493980Y-7350342D02*
X27493980Y-7255104D01*
X27493980Y-7255104D02*
X27541599Y-7159866D01*
X27541599Y-7159866D02*
X27589218Y-7112247D01*
X27589218Y-7112247D02*
X27684456Y-7064628D01*
X27684456Y-7064628D02*
X27874932Y-7017009D01*
X27874932Y-7017009D02*
X27970170Y-6969390D01*
X27970170Y-6969390D02*
X28017789Y-6921771D01*
X28017789Y-6921771D02*
X28065408Y-6826533D01*
X28065408Y-6826533D02*
X28065408Y-6731295D01*
X28065408Y-6731295D02*
X28017789Y-6636057D01*
X28017789Y-6636057D02*
X27970170Y-6588438D01*
X27970170Y-6588438D02*
X27874932Y-6540819D01*
X27874932Y-6540819D02*
X27636837Y-6540819D01*
X27636837Y-6540819D02*
X27493980Y-6588438D01*
X26922551Y-7540819D02*
X27017789Y-7493200D01*
X27017789Y-7493200D02*
X27065408Y-7445580D01*
X27065408Y-7445580D02*
X27113027Y-7350342D01*
X27113027Y-7350342D02*
X27113027Y-7064628D01*
X27113027Y-7064628D02*
X27065408Y-6969390D01*
X27065408Y-6969390D02*
X27017789Y-6921771D01*
X27017789Y-6921771D02*
X26922551Y-6874152D01*
X26922551Y-6874152D02*
X26779694Y-6874152D01*
X26779694Y-6874152D02*
X26684456Y-6921771D01*
X26684456Y-6921771D02*
X26636837Y-6969390D01*
X26636837Y-6969390D02*
X26589218Y-7064628D01*
X26589218Y-7064628D02*
X26589218Y-7350342D01*
X26589218Y-7350342D02*
X26636837Y-7445580D01*
X26636837Y-7445580D02*
X26684456Y-7493200D01*
X26684456Y-7493200D02*
X26779694Y-7540819D01*
X26779694Y-7540819D02*
X26922551Y-7540819D01*
X25732075Y-6874152D02*
X25732075Y-7540819D01*
X26160646Y-6874152D02*
X26160646Y-7397961D01*
X26160646Y-7397961D02*
X26113027Y-7493200D01*
X26113027Y-7493200D02*
X26017789Y-7540819D01*
X26017789Y-7540819D02*
X25874932Y-7540819D01*
X25874932Y-7540819D02*
X25779694Y-7493200D01*
X25779694Y-7493200D02*
X25732075Y-7445580D01*
X25255884Y-6874152D02*
X25255884Y-7540819D01*
X25255884Y-6969390D02*
X25208265Y-6921771D01*
X25208265Y-6921771D02*
X25113027Y-6874152D01*
X25113027Y-6874152D02*
X24970170Y-6874152D01*
X24970170Y-6874152D02*
X24874932Y-6921771D01*
X24874932Y-6921771D02*
X24827313Y-7017009D01*
X24827313Y-7017009D02*
X24827313Y-7540819D01*
X23922551Y-7540819D02*
X23922551Y-6540819D01*
X23922551Y-7493200D02*
X24017789Y-7540819D01*
X24017789Y-7540819D02*
X24208265Y-7540819D01*
X24208265Y-7540819D02*
X24303503Y-7493200D01*
X24303503Y-7493200D02*
X24351122Y-7445580D01*
X24351122Y-7445580D02*
X24398741Y-7350342D01*
X24398741Y-7350342D02*
X24398741Y-7064628D01*
X24398741Y-7064628D02*
X24351122Y-6969390D01*
X24351122Y-6969390D02*
X24303503Y-6921771D01*
X24303503Y-6921771D02*
X24208265Y-6874152D01*
X24208265Y-6874152D02*
X24017789Y-6874152D01*
X24017789Y-6874152D02*
X23922551Y-6921771D01*
X22732074Y-7493200D02*
X22589217Y-7540819D01*
X22589217Y-7540819D02*
X22351122Y-7540819D01*
X22351122Y-7540819D02*
X22255884Y-7493200D01*
X22255884Y-7493200D02*
X22208265Y-7445580D01*
X22208265Y-7445580D02*
X22160646Y-7350342D01*
X22160646Y-7350342D02*
X22160646Y-7255104D01*
X22160646Y-7255104D02*
X22208265Y-7159866D01*
X22208265Y-7159866D02*
X22255884Y-7112247D01*
X22255884Y-7112247D02*
X22351122Y-7064628D01*
X22351122Y-7064628D02*
X22541598Y-7017009D01*
X22541598Y-7017009D02*
X22636836Y-6969390D01*
X22636836Y-6969390D02*
X22684455Y-6921771D01*
X22684455Y-6921771D02*
X22732074Y-6826533D01*
X22732074Y-6826533D02*
X22732074Y-6731295D01*
X22732074Y-6731295D02*
X22684455Y-6636057D01*
X22684455Y-6636057D02*
X22636836Y-6588438D01*
X22636836Y-6588438D02*
X22541598Y-6540819D01*
X22541598Y-6540819D02*
X22303503Y-6540819D01*
X22303503Y-6540819D02*
X22160646Y-6588438D01*
X21874931Y-6874152D02*
X21493979Y-6874152D01*
X21732074Y-6540819D02*
X21732074Y-7397961D01*
X21732074Y-7397961D02*
X21684455Y-7493200D01*
X21684455Y-7493200D02*
X21589217Y-7540819D01*
X21589217Y-7540819D02*
X21493979Y-7540819D01*
X20732074Y-7540819D02*
X20732074Y-7017009D01*
X20732074Y-7017009D02*
X20779693Y-6921771D01*
X20779693Y-6921771D02*
X20874931Y-6874152D01*
X20874931Y-6874152D02*
X21065407Y-6874152D01*
X21065407Y-6874152D02*
X21160645Y-6921771D01*
X20732074Y-7493200D02*
X20827312Y-7540819D01*
X20827312Y-7540819D02*
X21065407Y-7540819D01*
X21065407Y-7540819D02*
X21160645Y-7493200D01*
X21160645Y-7493200D02*
X21208264Y-7397961D01*
X21208264Y-7397961D02*
X21208264Y-7302723D01*
X21208264Y-7302723D02*
X21160645Y-7207485D01*
X21160645Y-7207485D02*
X21065407Y-7159866D01*
X21065407Y-7159866D02*
X20827312Y-7159866D01*
X20827312Y-7159866D02*
X20732074Y-7112247D01*
X20398740Y-6874152D02*
X20017788Y-6874152D01*
X20255883Y-6540819D02*
X20255883Y-7397961D01*
X20255883Y-7397961D02*
X20208264Y-7493200D01*
X20208264Y-7493200D02*
X20113026Y-7540819D01*
X20113026Y-7540819D02*
X20017788Y-7540819D01*
X19684454Y-7540819D02*
X19684454Y-6874152D01*
X19684454Y-6540819D02*
X19732073Y-6588438D01*
X19732073Y-6588438D02*
X19684454Y-6636057D01*
X19684454Y-6636057D02*
X19636835Y-6588438D01*
X19636835Y-6588438D02*
X19684454Y-6540819D01*
X19684454Y-6540819D02*
X19684454Y-6636057D01*
X19065407Y-7540819D02*
X19160645Y-7493200D01*
X19160645Y-7493200D02*
X19208264Y-7445580D01*
X19208264Y-7445580D02*
X19255883Y-7350342D01*
X19255883Y-7350342D02*
X19255883Y-7064628D01*
X19255883Y-7064628D02*
X19208264Y-6969390D01*
X19208264Y-6969390D02*
X19160645Y-6921771D01*
X19160645Y-6921771D02*
X19065407Y-6874152D01*
X19065407Y-6874152D02*
X18922550Y-6874152D01*
X18922550Y-6874152D02*
X18827312Y-6921771D01*
X18827312Y-6921771D02*
X18779693Y-6969390D01*
X18779693Y-6969390D02*
X18732074Y-7064628D01*
X18732074Y-7064628D02*
X18732074Y-7350342D01*
X18732074Y-7350342D02*
X18779693Y-7445580D01*
X18779693Y-7445580D02*
X18827312Y-7493200D01*
X18827312Y-7493200D02*
X18922550Y-7540819D01*
X18922550Y-7540819D02*
X19065407Y-7540819D01*
X18303502Y-6874152D02*
X18303502Y-7540819D01*
X18303502Y-6969390D02*
X18255883Y-6921771D01*
X18255883Y-6921771D02*
X18160645Y-6874152D01*
X18160645Y-6874152D02*
X18017788Y-6874152D01*
X18017788Y-6874152D02*
X17922550Y-6921771D01*
X17922550Y-6921771D02*
X17874931Y-7017009D01*
X17874931Y-7017009D02*
X17874931Y-7540819D01*
X16636835Y-7540819D02*
X16636835Y-6540819D01*
X16636835Y-6540819D02*
X16255883Y-6540819D01*
X16255883Y-6540819D02*
X16160645Y-6588438D01*
X16160645Y-6588438D02*
X16113026Y-6636057D01*
X16113026Y-6636057D02*
X16065407Y-6731295D01*
X16065407Y-6731295D02*
X16065407Y-6874152D01*
X16065407Y-6874152D02*
X16113026Y-6969390D01*
X16113026Y-6969390D02*
X16160645Y-7017009D01*
X16160645Y-7017009D02*
X16255883Y-7064628D01*
X16255883Y-7064628D02*
X16636835Y-7064628D01*
X15065407Y-7445580D02*
X15113026Y-7493200D01*
X15113026Y-7493200D02*
X15255883Y-7540819D01*
X15255883Y-7540819D02*
X15351121Y-7540819D01*
X15351121Y-7540819D02*
X15493978Y-7493200D01*
X15493978Y-7493200D02*
X15589216Y-7397961D01*
X15589216Y-7397961D02*
X15636835Y-7302723D01*
X15636835Y-7302723D02*
X15684454Y-7112247D01*
X15684454Y-7112247D02*
X15684454Y-6969390D01*
X15684454Y-6969390D02*
X15636835Y-6778914D01*
X15636835Y-6778914D02*
X15589216Y-6683676D01*
X15589216Y-6683676D02*
X15493978Y-6588438D01*
X15493978Y-6588438D02*
X15351121Y-6540819D01*
X15351121Y-6540819D02*
X15255883Y-6540819D01*
X15255883Y-6540819D02*
X15113026Y-6588438D01*
X15113026Y-6588438D02*
X15065407Y-6636057D01*
X14303502Y-7017009D02*
X14160645Y-7064628D01*
X14160645Y-7064628D02*
X14113026Y-7112247D01*
X14113026Y-7112247D02*
X14065407Y-7207485D01*
X14065407Y-7207485D02*
X14065407Y-7350342D01*
X14065407Y-7350342D02*
X14113026Y-7445580D01*
X14113026Y-7445580D02*
X14160645Y-7493200D01*
X14160645Y-7493200D02*
X14255883Y-7540819D01*
X14255883Y-7540819D02*
X14636835Y-7540819D01*
X14636835Y-7540819D02*
X14636835Y-6540819D01*
X14636835Y-6540819D02*
X14303502Y-6540819D01*
X14303502Y-6540819D02*
X14208264Y-6588438D01*
X14208264Y-6588438D02*
X14160645Y-6636057D01*
X14160645Y-6636057D02*
X14113026Y-6731295D01*
X14113026Y-6731295D02*
X14113026Y-6826533D01*
X14113026Y-6826533D02*
X14160645Y-6921771D01*
X14160645Y-6921771D02*
X14208264Y-6969390D01*
X14208264Y-6969390D02*
X14303502Y-7017009D01*
X14303502Y-7017009D02*
X14636835Y-7017009D01*
X42589220Y-10760819D02*
X42589220Y-9760819D01*
X42589220Y-9760819D02*
X42351125Y-9760819D01*
X42351125Y-9760819D02*
X42208268Y-9808438D01*
X42208268Y-9808438D02*
X42113030Y-9903676D01*
X42113030Y-9903676D02*
X42065411Y-9998914D01*
X42065411Y-9998914D02*
X42017792Y-10189390D01*
X42017792Y-10189390D02*
X42017792Y-10332247D01*
X42017792Y-10332247D02*
X42065411Y-10522723D01*
X42065411Y-10522723D02*
X42113030Y-10617961D01*
X42113030Y-10617961D02*
X42208268Y-10713200D01*
X42208268Y-10713200D02*
X42351125Y-10760819D01*
X42351125Y-10760819D02*
X42589220Y-10760819D01*
X41446363Y-10760819D02*
X41541601Y-10713200D01*
X41541601Y-10713200D02*
X41589220Y-10665580D01*
X41589220Y-10665580D02*
X41636839Y-10570342D01*
X41636839Y-10570342D02*
X41636839Y-10284628D01*
X41636839Y-10284628D02*
X41589220Y-10189390D01*
X41589220Y-10189390D02*
X41541601Y-10141771D01*
X41541601Y-10141771D02*
X41446363Y-10094152D01*
X41446363Y-10094152D02*
X41303506Y-10094152D01*
X41303506Y-10094152D02*
X41208268Y-10141771D01*
X41208268Y-10141771D02*
X41160649Y-10189390D01*
X41160649Y-10189390D02*
X41113030Y-10284628D01*
X41113030Y-10284628D02*
X41113030Y-10570342D01*
X41113030Y-10570342D02*
X41160649Y-10665580D01*
X41160649Y-10665580D02*
X41208268Y-10713200D01*
X41208268Y-10713200D02*
X41303506Y-10760819D01*
X41303506Y-10760819D02*
X41446363Y-10760819D01*
X39922553Y-10094152D02*
X39922553Y-10760819D01*
X39922553Y-10189390D02*
X39874934Y-10141771D01*
X39874934Y-10141771D02*
X39779696Y-10094152D01*
X39779696Y-10094152D02*
X39636839Y-10094152D01*
X39636839Y-10094152D02*
X39541601Y-10141771D01*
X39541601Y-10141771D02*
X39493982Y-10237009D01*
X39493982Y-10237009D02*
X39493982Y-10760819D01*
X38874934Y-10760819D02*
X38970172Y-10713200D01*
X38970172Y-10713200D02*
X39017791Y-10665580D01*
X39017791Y-10665580D02*
X39065410Y-10570342D01*
X39065410Y-10570342D02*
X39065410Y-10284628D01*
X39065410Y-10284628D02*
X39017791Y-10189390D01*
X39017791Y-10189390D02*
X38970172Y-10141771D01*
X38970172Y-10141771D02*
X38874934Y-10094152D01*
X38874934Y-10094152D02*
X38732077Y-10094152D01*
X38732077Y-10094152D02*
X38636839Y-10141771D01*
X38636839Y-10141771D02*
X38589220Y-10189390D01*
X38589220Y-10189390D02*
X38541601Y-10284628D01*
X38541601Y-10284628D02*
X38541601Y-10570342D01*
X38541601Y-10570342D02*
X38589220Y-10665580D01*
X38589220Y-10665580D02*
X38636839Y-10713200D01*
X38636839Y-10713200D02*
X38732077Y-10760819D01*
X38732077Y-10760819D02*
X38874934Y-10760819D01*
X38255886Y-10094152D02*
X37874934Y-10094152D01*
X38113029Y-9760819D02*
X38113029Y-10617961D01*
X38113029Y-10617961D02*
X38065410Y-10713200D01*
X38065410Y-10713200D02*
X37970172Y-10760819D01*
X37970172Y-10760819D02*
X37874934Y-10760819D01*
X36779695Y-10094152D02*
X36779695Y-11094152D01*
X36779695Y-10141771D02*
X36684457Y-10094152D01*
X36684457Y-10094152D02*
X36493981Y-10094152D01*
X36493981Y-10094152D02*
X36398743Y-10141771D01*
X36398743Y-10141771D02*
X36351124Y-10189390D01*
X36351124Y-10189390D02*
X36303505Y-10284628D01*
X36303505Y-10284628D02*
X36303505Y-10570342D01*
X36303505Y-10570342D02*
X36351124Y-10665580D01*
X36351124Y-10665580D02*
X36398743Y-10713200D01*
X36398743Y-10713200D02*
X36493981Y-10760819D01*
X36493981Y-10760819D02*
X36684457Y-10760819D01*
X36684457Y-10760819D02*
X36779695Y-10713200D01*
X35732076Y-10760819D02*
X35827314Y-10713200D01*
X35827314Y-10713200D02*
X35874933Y-10665580D01*
X35874933Y-10665580D02*
X35922552Y-10570342D01*
X35922552Y-10570342D02*
X35922552Y-10284628D01*
X35922552Y-10284628D02*
X35874933Y-10189390D01*
X35874933Y-10189390D02*
X35827314Y-10141771D01*
X35827314Y-10141771D02*
X35732076Y-10094152D01*
X35732076Y-10094152D02*
X35589219Y-10094152D01*
X35589219Y-10094152D02*
X35493981Y-10141771D01*
X35493981Y-10141771D02*
X35446362Y-10189390D01*
X35446362Y-10189390D02*
X35398743Y-10284628D01*
X35398743Y-10284628D02*
X35398743Y-10570342D01*
X35398743Y-10570342D02*
X35446362Y-10665580D01*
X35446362Y-10665580D02*
X35493981Y-10713200D01*
X35493981Y-10713200D02*
X35589219Y-10760819D01*
X35589219Y-10760819D02*
X35732076Y-10760819D01*
X35065409Y-10094152D02*
X34874933Y-10760819D01*
X34874933Y-10760819D02*
X34684457Y-10284628D01*
X34684457Y-10284628D02*
X34493981Y-10760819D01*
X34493981Y-10760819D02*
X34303505Y-10094152D01*
X33541600Y-10713200D02*
X33636838Y-10760819D01*
X33636838Y-10760819D02*
X33827314Y-10760819D01*
X33827314Y-10760819D02*
X33922552Y-10713200D01*
X33922552Y-10713200D02*
X33970171Y-10617961D01*
X33970171Y-10617961D02*
X33970171Y-10237009D01*
X33970171Y-10237009D02*
X33922552Y-10141771D01*
X33922552Y-10141771D02*
X33827314Y-10094152D01*
X33827314Y-10094152D02*
X33636838Y-10094152D01*
X33636838Y-10094152D02*
X33541600Y-10141771D01*
X33541600Y-10141771D02*
X33493981Y-10237009D01*
X33493981Y-10237009D02*
X33493981Y-10332247D01*
X33493981Y-10332247D02*
X33970171Y-10427485D01*
X33065409Y-10760819D02*
X33065409Y-10094152D01*
X33065409Y-10284628D02*
X33017790Y-10189390D01*
X33017790Y-10189390D02*
X32970171Y-10141771D01*
X32970171Y-10141771D02*
X32874933Y-10094152D01*
X32874933Y-10094152D02*
X32779695Y-10094152D01*
X31779694Y-10094152D02*
X31541599Y-10760819D01*
X31541599Y-10760819D02*
X31303504Y-10094152D01*
X30922551Y-10760819D02*
X30922551Y-10094152D01*
X30922551Y-9760819D02*
X30970170Y-9808438D01*
X30970170Y-9808438D02*
X30922551Y-9856057D01*
X30922551Y-9856057D02*
X30874932Y-9808438D01*
X30874932Y-9808438D02*
X30922551Y-9760819D01*
X30922551Y-9760819D02*
X30922551Y-9856057D01*
X30017790Y-10760819D02*
X30017790Y-10237009D01*
X30017790Y-10237009D02*
X30065409Y-10141771D01*
X30065409Y-10141771D02*
X30160647Y-10094152D01*
X30160647Y-10094152D02*
X30351123Y-10094152D01*
X30351123Y-10094152D02*
X30446361Y-10141771D01*
X30017790Y-10713200D02*
X30113028Y-10760819D01*
X30113028Y-10760819D02*
X30351123Y-10760819D01*
X30351123Y-10760819D02*
X30446361Y-10713200D01*
X30446361Y-10713200D02*
X30493980Y-10617961D01*
X30493980Y-10617961D02*
X30493980Y-10522723D01*
X30493980Y-10522723D02*
X30446361Y-10427485D01*
X30446361Y-10427485D02*
X30351123Y-10379866D01*
X30351123Y-10379866D02*
X30113028Y-10379866D01*
X30113028Y-10379866D02*
X30017790Y-10332247D01*
X28779694Y-10760819D02*
X28779694Y-9760819D01*
X28779694Y-10141771D02*
X28684456Y-10094152D01*
X28684456Y-10094152D02*
X28493980Y-10094152D01*
X28493980Y-10094152D02*
X28398742Y-10141771D01*
X28398742Y-10141771D02*
X28351123Y-10189390D01*
X28351123Y-10189390D02*
X28303504Y-10284628D01*
X28303504Y-10284628D02*
X28303504Y-10570342D01*
X28303504Y-10570342D02*
X28351123Y-10665580D01*
X28351123Y-10665580D02*
X28398742Y-10713200D01*
X28398742Y-10713200D02*
X28493980Y-10760819D01*
X28493980Y-10760819D02*
X28684456Y-10760819D01*
X28684456Y-10760819D02*
X28779694Y-10713200D01*
X27446361Y-10760819D02*
X27446361Y-10237009D01*
X27446361Y-10237009D02*
X27493980Y-10141771D01*
X27493980Y-10141771D02*
X27589218Y-10094152D01*
X27589218Y-10094152D02*
X27779694Y-10094152D01*
X27779694Y-10094152D02*
X27874932Y-10141771D01*
X27446361Y-10713200D02*
X27541599Y-10760819D01*
X27541599Y-10760819D02*
X27779694Y-10760819D01*
X27779694Y-10760819D02*
X27874932Y-10713200D01*
X27874932Y-10713200D02*
X27922551Y-10617961D01*
X27922551Y-10617961D02*
X27922551Y-10522723D01*
X27922551Y-10522723D02*
X27874932Y-10427485D01*
X27874932Y-10427485D02*
X27779694Y-10379866D01*
X27779694Y-10379866D02*
X27541599Y-10379866D01*
X27541599Y-10379866D02*
X27446361Y-10332247D01*
X26970170Y-10760819D02*
X26970170Y-10094152D01*
X26970170Y-10284628D02*
X26922551Y-10189390D01*
X26922551Y-10189390D02*
X26874932Y-10141771D01*
X26874932Y-10141771D02*
X26779694Y-10094152D01*
X26779694Y-10094152D02*
X26684456Y-10094152D01*
X26351122Y-10760819D02*
X26351122Y-10094152D01*
X26351122Y-10284628D02*
X26303503Y-10189390D01*
X26303503Y-10189390D02*
X26255884Y-10141771D01*
X26255884Y-10141771D02*
X26160646Y-10094152D01*
X26160646Y-10094152D02*
X26065408Y-10094152D01*
X25351122Y-10713200D02*
X25446360Y-10760819D01*
X25446360Y-10760819D02*
X25636836Y-10760819D01*
X25636836Y-10760819D02*
X25732074Y-10713200D01*
X25732074Y-10713200D02*
X25779693Y-10617961D01*
X25779693Y-10617961D02*
X25779693Y-10237009D01*
X25779693Y-10237009D02*
X25732074Y-10141771D01*
X25732074Y-10141771D02*
X25636836Y-10094152D01*
X25636836Y-10094152D02*
X25446360Y-10094152D01*
X25446360Y-10094152D02*
X25351122Y-10141771D01*
X25351122Y-10141771D02*
X25303503Y-10237009D01*
X25303503Y-10237009D02*
X25303503Y-10332247D01*
X25303503Y-10332247D02*
X25779693Y-10427485D01*
X24732074Y-10760819D02*
X24827312Y-10713200D01*
X24827312Y-10713200D02*
X24874931Y-10617961D01*
X24874931Y-10617961D02*
X24874931Y-9760819D01*
X23589216Y-10094152D02*
X23589216Y-10951295D01*
X23589216Y-10951295D02*
X23636835Y-11046533D01*
X23636835Y-11046533D02*
X23732073Y-11094152D01*
X23732073Y-11094152D02*
X23779692Y-11094152D01*
X23589216Y-9760819D02*
X23636835Y-9808438D01*
X23636835Y-9808438D02*
X23589216Y-9856057D01*
X23589216Y-9856057D02*
X23541597Y-9808438D01*
X23541597Y-9808438D02*
X23589216Y-9760819D01*
X23589216Y-9760819D02*
X23589216Y-9856057D01*
X22684455Y-10760819D02*
X22684455Y-10237009D01*
X22684455Y-10237009D02*
X22732074Y-10141771D01*
X22732074Y-10141771D02*
X22827312Y-10094152D01*
X22827312Y-10094152D02*
X23017788Y-10094152D01*
X23017788Y-10094152D02*
X23113026Y-10141771D01*
X22684455Y-10713200D02*
X22779693Y-10760819D01*
X22779693Y-10760819D02*
X23017788Y-10760819D01*
X23017788Y-10760819D02*
X23113026Y-10713200D01*
X23113026Y-10713200D02*
X23160645Y-10617961D01*
X23160645Y-10617961D02*
X23160645Y-10522723D01*
X23160645Y-10522723D02*
X23113026Y-10427485D01*
X23113026Y-10427485D02*
X23017788Y-10379866D01*
X23017788Y-10379866D02*
X22779693Y-10379866D01*
X22779693Y-10379866D02*
X22684455Y-10332247D01*
X21779693Y-10713200D02*
X21874931Y-10760819D01*
X21874931Y-10760819D02*
X22065407Y-10760819D01*
X22065407Y-10760819D02*
X22160645Y-10713200D01*
X22160645Y-10713200D02*
X22208264Y-10665580D01*
X22208264Y-10665580D02*
X22255883Y-10570342D01*
X22255883Y-10570342D02*
X22255883Y-10284628D01*
X22255883Y-10284628D02*
X22208264Y-10189390D01*
X22208264Y-10189390D02*
X22160645Y-10141771D01*
X22160645Y-10141771D02*
X22065407Y-10094152D01*
X22065407Y-10094152D02*
X21874931Y-10094152D01*
X21874931Y-10094152D02*
X21779693Y-10141771D01*
X21351121Y-10760819D02*
X21351121Y-9760819D01*
X21255883Y-10379866D02*
X20970169Y-10760819D01*
X20970169Y-10094152D02*
X21351121Y-10475104D01*
X19636835Y-10760819D02*
X19732073Y-10713200D01*
X19732073Y-10713200D02*
X19779692Y-10665580D01*
X19779692Y-10665580D02*
X19827311Y-10570342D01*
X19827311Y-10570342D02*
X19827311Y-10284628D01*
X19827311Y-10284628D02*
X19779692Y-10189390D01*
X19779692Y-10189390D02*
X19732073Y-10141771D01*
X19732073Y-10141771D02*
X19636835Y-10094152D01*
X19636835Y-10094152D02*
X19493978Y-10094152D01*
X19493978Y-10094152D02*
X19398740Y-10141771D01*
X19398740Y-10141771D02*
X19351121Y-10189390D01*
X19351121Y-10189390D02*
X19303502Y-10284628D01*
X19303502Y-10284628D02*
X19303502Y-10570342D01*
X19303502Y-10570342D02*
X19351121Y-10665580D01*
X19351121Y-10665580D02*
X19398740Y-10713200D01*
X19398740Y-10713200D02*
X19493978Y-10760819D01*
X19493978Y-10760819D02*
X19636835Y-10760819D01*
X18874930Y-10760819D02*
X18874930Y-10094152D01*
X18874930Y-10284628D02*
X18827311Y-10189390D01*
X18827311Y-10189390D02*
X18779692Y-10141771D01*
X18779692Y-10141771D02*
X18684454Y-10094152D01*
X18684454Y-10094152D02*
X18589216Y-10094152D01*
X17493977Y-10760819D02*
X17493977Y-9760819D01*
X17493977Y-9760819D02*
X17113025Y-9760819D01*
X17113025Y-9760819D02*
X17017787Y-9808438D01*
X17017787Y-9808438D02*
X16970168Y-9856057D01*
X16970168Y-9856057D02*
X16922549Y-9951295D01*
X16922549Y-9951295D02*
X16922549Y-10094152D01*
X16922549Y-10094152D02*
X16970168Y-10189390D01*
X16970168Y-10189390D02*
X17017787Y-10237009D01*
X17017787Y-10237009D02*
X17113025Y-10284628D01*
X17113025Y-10284628D02*
X17493977Y-10284628D01*
X15922549Y-10665580D02*
X15970168Y-10713200D01*
X15970168Y-10713200D02*
X16113025Y-10760819D01*
X16113025Y-10760819D02*
X16208263Y-10760819D01*
X16208263Y-10760819D02*
X16351120Y-10713200D01*
X16351120Y-10713200D02*
X16446358Y-10617961D01*
X16446358Y-10617961D02*
X16493977Y-10522723D01*
X16493977Y-10522723D02*
X16541596Y-10332247D01*
X16541596Y-10332247D02*
X16541596Y-10189390D01*
X16541596Y-10189390D02*
X16493977Y-9998914D01*
X16493977Y-9998914D02*
X16446358Y-9903676D01*
X16446358Y-9903676D02*
X16351120Y-9808438D01*
X16351120Y-9808438D02*
X16208263Y-9760819D01*
X16208263Y-9760819D02*
X16113025Y-9760819D01*
X16113025Y-9760819D02*
X15970168Y-9808438D01*
X15970168Y-9808438D02*
X15922549Y-9856057D01*
X15160644Y-10237009D02*
X15017787Y-10284628D01*
X15017787Y-10284628D02*
X14970168Y-10332247D01*
X14970168Y-10332247D02*
X14922549Y-10427485D01*
X14922549Y-10427485D02*
X14922549Y-10570342D01*
X14922549Y-10570342D02*
X14970168Y-10665580D01*
X14970168Y-10665580D02*
X15017787Y-10713200D01*
X15017787Y-10713200D02*
X15113025Y-10760819D01*
X15113025Y-10760819D02*
X15493977Y-10760819D01*
X15493977Y-10760819D02*
X15493977Y-9760819D01*
X15493977Y-9760819D02*
X15160644Y-9760819D01*
X15160644Y-9760819D02*
X15065406Y-9808438D01*
X15065406Y-9808438D02*
X15017787Y-9856057D01*
X15017787Y-9856057D02*
X14970168Y-9951295D01*
X14970168Y-9951295D02*
X14970168Y-10046533D01*
X14970168Y-10046533D02*
X15017787Y-10141771D01*
X15017787Y-10141771D02*
X15065406Y-10189390D01*
X15065406Y-10189390D02*
X15160644Y-10237009D01*
X15160644Y-10237009D02*
X15493977Y-10237009D01*
X13874929Y-10094152D02*
X13493977Y-10094152D01*
X13732072Y-9760819D02*
X13732072Y-10617961D01*
X13732072Y-10617961D02*
X13684453Y-10713200D01*
X13684453Y-10713200D02*
X13589215Y-10760819D01*
X13589215Y-10760819D02*
X13493977Y-10760819D01*
X12779691Y-10713200D02*
X12874929Y-10760819D01*
X12874929Y-10760819D02*
X13065405Y-10760819D01*
X13065405Y-10760819D02*
X13160643Y-10713200D01*
X13160643Y-10713200D02*
X13208262Y-10617961D01*
X13208262Y-10617961D02*
X13208262Y-10237009D01*
X13208262Y-10237009D02*
X13160643Y-10141771D01*
X13160643Y-10141771D02*
X13065405Y-10094152D01*
X13065405Y-10094152D02*
X12874929Y-10094152D01*
X12874929Y-10094152D02*
X12779691Y-10141771D01*
X12779691Y-10141771D02*
X12732072Y-10237009D01*
X12732072Y-10237009D02*
X12732072Y-10332247D01*
X12732072Y-10332247D02*
X13208262Y-10427485D01*
X12303500Y-10760819D02*
X12303500Y-10094152D01*
X12303500Y-10284628D02*
X12255881Y-10189390D01*
X12255881Y-10189390D02*
X12208262Y-10141771D01*
X12208262Y-10141771D02*
X12113024Y-10094152D01*
X12113024Y-10094152D02*
X12017786Y-10094152D01*
X11684452Y-10760819D02*
X11684452Y-10094152D01*
X11684452Y-10189390D02*
X11636833Y-10141771D01*
X11636833Y-10141771D02*
X11541595Y-10094152D01*
X11541595Y-10094152D02*
X11398738Y-10094152D01*
X11398738Y-10094152D02*
X11303500Y-10141771D01*
X11303500Y-10141771D02*
X11255881Y-10237009D01*
X11255881Y-10237009D02*
X11255881Y-10760819D01*
X11255881Y-10237009D02*
X11208262Y-10141771D01*
X11208262Y-10141771D02*
X11113024Y-10094152D01*
X11113024Y-10094152D02*
X10970167Y-10094152D01*
X10970167Y-10094152D02*
X10874928Y-10141771D01*
X10874928Y-10141771D02*
X10827309Y-10237009D01*
X10827309Y-10237009D02*
X10827309Y-10760819D01*
X10351119Y-10760819D02*
X10351119Y-10094152D01*
X10351119Y-9760819D02*
X10398738Y-9808438D01*
X10398738Y-9808438D02*
X10351119Y-9856057D01*
X10351119Y-9856057D02*
X10303500Y-9808438D01*
X10303500Y-9808438D02*
X10351119Y-9760819D01*
X10351119Y-9760819D02*
X10351119Y-9856057D01*
X9874929Y-10094152D02*
X9874929Y-10760819D01*
X9874929Y-10189390D02*
X9827310Y-10141771D01*
X9827310Y-10141771D02*
X9732072Y-10094152D01*
X9732072Y-10094152D02*
X9589215Y-10094152D01*
X9589215Y-10094152D02*
X9493977Y-10141771D01*
X9493977Y-10141771D02*
X9446358Y-10237009D01*
X9446358Y-10237009D02*
X9446358Y-10760819D01*
X8541596Y-10760819D02*
X8541596Y-10237009D01*
X8541596Y-10237009D02*
X8589215Y-10141771D01*
X8589215Y-10141771D02*
X8684453Y-10094152D01*
X8684453Y-10094152D02*
X8874929Y-10094152D01*
X8874929Y-10094152D02*
X8970167Y-10141771D01*
X8541596Y-10713200D02*
X8636834Y-10760819D01*
X8636834Y-10760819D02*
X8874929Y-10760819D01*
X8874929Y-10760819D02*
X8970167Y-10713200D01*
X8970167Y-10713200D02*
X9017786Y-10617961D01*
X9017786Y-10617961D02*
X9017786Y-10522723D01*
X9017786Y-10522723D02*
X8970167Y-10427485D01*
X8970167Y-10427485D02*
X8874929Y-10379866D01*
X8874929Y-10379866D02*
X8636834Y-10379866D01*
X8636834Y-10379866D02*
X8541596Y-10332247D01*
X7922548Y-10760819D02*
X8017786Y-10713200D01*
X8017786Y-10713200D02*
X8065405Y-10617961D01*
X8065405Y-10617961D02*
X8065405Y-9760819D01*
X6779690Y-10760819D02*
X6779690Y-9760819D01*
X6779690Y-10141771D02*
X6684452Y-10094152D01*
X6684452Y-10094152D02*
X6493976Y-10094152D01*
X6493976Y-10094152D02*
X6398738Y-10141771D01*
X6398738Y-10141771D02*
X6351119Y-10189390D01*
X6351119Y-10189390D02*
X6303500Y-10284628D01*
X6303500Y-10284628D02*
X6303500Y-10570342D01*
X6303500Y-10570342D02*
X6351119Y-10665580D01*
X6351119Y-10665580D02*
X6398738Y-10713200D01*
X6398738Y-10713200D02*
X6493976Y-10760819D01*
X6493976Y-10760819D02*
X6684452Y-10760819D01*
X6684452Y-10760819D02*
X6779690Y-10713200D01*
X5732071Y-10760819D02*
X5827309Y-10713200D01*
X5827309Y-10713200D02*
X5874928Y-10617961D01*
X5874928Y-10617961D02*
X5874928Y-9760819D01*
X5208261Y-10760819D02*
X5303499Y-10713200D01*
X5303499Y-10713200D02*
X5351118Y-10665580D01*
X5351118Y-10665580D02*
X5398737Y-10570342D01*
X5398737Y-10570342D02*
X5398737Y-10284628D01*
X5398737Y-10284628D02*
X5351118Y-10189390D01*
X5351118Y-10189390D02*
X5303499Y-10141771D01*
X5303499Y-10141771D02*
X5208261Y-10094152D01*
X5208261Y-10094152D02*
X5065404Y-10094152D01*
X5065404Y-10094152D02*
X4970166Y-10141771D01*
X4970166Y-10141771D02*
X4922547Y-10189390D01*
X4922547Y-10189390D02*
X4874928Y-10284628D01*
X4874928Y-10284628D02*
X4874928Y-10570342D01*
X4874928Y-10570342D02*
X4922547Y-10665580D01*
X4922547Y-10665580D02*
X4970166Y-10713200D01*
X4970166Y-10713200D02*
X5065404Y-10760819D01*
X5065404Y-10760819D02*
X5208261Y-10760819D01*
X4017785Y-10713200D02*
X4113023Y-10760819D01*
X4113023Y-10760819D02*
X4303499Y-10760819D01*
X4303499Y-10760819D02*
X4398737Y-10713200D01*
X4398737Y-10713200D02*
X4446356Y-10665580D01*
X4446356Y-10665580D02*
X4493975Y-10570342D01*
X4493975Y-10570342D02*
X4493975Y-10284628D01*
X4493975Y-10284628D02*
X4446356Y-10189390D01*
X4446356Y-10189390D02*
X4398737Y-10141771D01*
X4398737Y-10141771D02*
X4303499Y-10094152D01*
X4303499Y-10094152D02*
X4113023Y-10094152D01*
X4113023Y-10094152D02*
X4017785Y-10141771D01*
X3589213Y-10760819D02*
X3589213Y-9760819D01*
X3493975Y-10379866D02*
X3208261Y-10760819D01*
X3208261Y-10094152D02*
X3589213Y-10475104D01*
X41922553Y-11704152D02*
X41732077Y-12370819D01*
X41732077Y-12370819D02*
X41541601Y-11894628D01*
X41541601Y-11894628D02*
X41351125Y-12370819D01*
X41351125Y-12370819D02*
X41160649Y-11704152D01*
X40779696Y-12370819D02*
X40779696Y-11370819D01*
X40351125Y-12370819D02*
X40351125Y-11847009D01*
X40351125Y-11847009D02*
X40398744Y-11751771D01*
X40398744Y-11751771D02*
X40493982Y-11704152D01*
X40493982Y-11704152D02*
X40636839Y-11704152D01*
X40636839Y-11704152D02*
X40732077Y-11751771D01*
X40732077Y-11751771D02*
X40779696Y-11799390D01*
X39874934Y-12370819D02*
X39874934Y-11704152D01*
X39874934Y-11370819D02*
X39922553Y-11418438D01*
X39922553Y-11418438D02*
X39874934Y-11466057D01*
X39874934Y-11466057D02*
X39827315Y-11418438D01*
X39827315Y-11418438D02*
X39874934Y-11370819D01*
X39874934Y-11370819D02*
X39874934Y-11466057D01*
X39255887Y-12370819D02*
X39351125Y-12323200D01*
X39351125Y-12323200D02*
X39398744Y-12227961D01*
X39398744Y-12227961D02*
X39398744Y-11370819D01*
X38493982Y-12323200D02*
X38589220Y-12370819D01*
X38589220Y-12370819D02*
X38779696Y-12370819D01*
X38779696Y-12370819D02*
X38874934Y-12323200D01*
X38874934Y-12323200D02*
X38922553Y-12227961D01*
X38922553Y-12227961D02*
X38922553Y-11847009D01*
X38922553Y-11847009D02*
X38874934Y-11751771D01*
X38874934Y-11751771D02*
X38779696Y-11704152D01*
X38779696Y-11704152D02*
X38589220Y-11704152D01*
X38589220Y-11704152D02*
X38493982Y-11751771D01*
X38493982Y-11751771D02*
X38446363Y-11847009D01*
X38446363Y-11847009D02*
X38446363Y-11942247D01*
X38446363Y-11942247D02*
X38922553Y-12037485D01*
X37255886Y-11704152D02*
X37255886Y-12704152D01*
X37255886Y-11751771D02*
X37160648Y-11704152D01*
X37160648Y-11704152D02*
X36970172Y-11704152D01*
X36970172Y-11704152D02*
X36874934Y-11751771D01*
X36874934Y-11751771D02*
X36827315Y-11799390D01*
X36827315Y-11799390D02*
X36779696Y-11894628D01*
X36779696Y-11894628D02*
X36779696Y-12180342D01*
X36779696Y-12180342D02*
X36827315Y-12275580D01*
X36827315Y-12275580D02*
X36874934Y-12323200D01*
X36874934Y-12323200D02*
X36970172Y-12370819D01*
X36970172Y-12370819D02*
X37160648Y-12370819D01*
X37160648Y-12370819D02*
X37255886Y-12323200D01*
X36351124Y-12370819D02*
X36351124Y-11704152D01*
X36351124Y-11894628D02*
X36303505Y-11799390D01*
X36303505Y-11799390D02*
X36255886Y-11751771D01*
X36255886Y-11751771D02*
X36160648Y-11704152D01*
X36160648Y-11704152D02*
X36065410Y-11704152D01*
X35589219Y-12370819D02*
X35684457Y-12323200D01*
X35684457Y-12323200D02*
X35732076Y-12275580D01*
X35732076Y-12275580D02*
X35779695Y-12180342D01*
X35779695Y-12180342D02*
X35779695Y-11894628D01*
X35779695Y-11894628D02*
X35732076Y-11799390D01*
X35732076Y-11799390D02*
X35684457Y-11751771D01*
X35684457Y-11751771D02*
X35589219Y-11704152D01*
X35589219Y-11704152D02*
X35446362Y-11704152D01*
X35446362Y-11704152D02*
X35351124Y-11751771D01*
X35351124Y-11751771D02*
X35303505Y-11799390D01*
X35303505Y-11799390D02*
X35255886Y-11894628D01*
X35255886Y-11894628D02*
X35255886Y-12180342D01*
X35255886Y-12180342D02*
X35303505Y-12275580D01*
X35303505Y-12275580D02*
X35351124Y-12323200D01*
X35351124Y-12323200D02*
X35446362Y-12370819D01*
X35446362Y-12370819D02*
X35589219Y-12370819D01*
X34398743Y-11704152D02*
X34398743Y-12513676D01*
X34398743Y-12513676D02*
X34446362Y-12608914D01*
X34446362Y-12608914D02*
X34493981Y-12656533D01*
X34493981Y-12656533D02*
X34589219Y-12704152D01*
X34589219Y-12704152D02*
X34732076Y-12704152D01*
X34732076Y-12704152D02*
X34827314Y-12656533D01*
X34398743Y-12323200D02*
X34493981Y-12370819D01*
X34493981Y-12370819D02*
X34684457Y-12370819D01*
X34684457Y-12370819D02*
X34779695Y-12323200D01*
X34779695Y-12323200D02*
X34827314Y-12275580D01*
X34827314Y-12275580D02*
X34874933Y-12180342D01*
X34874933Y-12180342D02*
X34874933Y-11894628D01*
X34874933Y-11894628D02*
X34827314Y-11799390D01*
X34827314Y-11799390D02*
X34779695Y-11751771D01*
X34779695Y-11751771D02*
X34684457Y-11704152D01*
X34684457Y-11704152D02*
X34493981Y-11704152D01*
X34493981Y-11704152D02*
X34398743Y-11751771D01*
X33922552Y-12370819D02*
X33922552Y-11704152D01*
X33922552Y-11894628D02*
X33874933Y-11799390D01*
X33874933Y-11799390D02*
X33827314Y-11751771D01*
X33827314Y-11751771D02*
X33732076Y-11704152D01*
X33732076Y-11704152D02*
X33636838Y-11704152D01*
X32874933Y-12370819D02*
X32874933Y-11847009D01*
X32874933Y-11847009D02*
X32922552Y-11751771D01*
X32922552Y-11751771D02*
X33017790Y-11704152D01*
X33017790Y-11704152D02*
X33208266Y-11704152D01*
X33208266Y-11704152D02*
X33303504Y-11751771D01*
X32874933Y-12323200D02*
X32970171Y-12370819D01*
X32970171Y-12370819D02*
X33208266Y-12370819D01*
X33208266Y-12370819D02*
X33303504Y-12323200D01*
X33303504Y-12323200D02*
X33351123Y-12227961D01*
X33351123Y-12227961D02*
X33351123Y-12132723D01*
X33351123Y-12132723D02*
X33303504Y-12037485D01*
X33303504Y-12037485D02*
X33208266Y-11989866D01*
X33208266Y-11989866D02*
X32970171Y-11989866D01*
X32970171Y-11989866D02*
X32874933Y-11942247D01*
X32398742Y-12370819D02*
X32398742Y-11704152D01*
X32398742Y-11799390D02*
X32351123Y-11751771D01*
X32351123Y-11751771D02*
X32255885Y-11704152D01*
X32255885Y-11704152D02*
X32113028Y-11704152D01*
X32113028Y-11704152D02*
X32017790Y-11751771D01*
X32017790Y-11751771D02*
X31970171Y-11847009D01*
X31970171Y-11847009D02*
X31970171Y-12370819D01*
X31970171Y-11847009D02*
X31922552Y-11751771D01*
X31922552Y-11751771D02*
X31827314Y-11704152D01*
X31827314Y-11704152D02*
X31684457Y-11704152D01*
X31684457Y-11704152D02*
X31589218Y-11751771D01*
X31589218Y-11751771D02*
X31541599Y-11847009D01*
X31541599Y-11847009D02*
X31541599Y-12370819D01*
X31065409Y-12370819D02*
X31065409Y-11704152D01*
X31065409Y-11799390D02*
X31017790Y-11751771D01*
X31017790Y-11751771D02*
X30922552Y-11704152D01*
X30922552Y-11704152D02*
X30779695Y-11704152D01*
X30779695Y-11704152D02*
X30684457Y-11751771D01*
X30684457Y-11751771D02*
X30636838Y-11847009D01*
X30636838Y-11847009D02*
X30636838Y-12370819D01*
X30636838Y-11847009D02*
X30589219Y-11751771D01*
X30589219Y-11751771D02*
X30493981Y-11704152D01*
X30493981Y-11704152D02*
X30351124Y-11704152D01*
X30351124Y-11704152D02*
X30255885Y-11751771D01*
X30255885Y-11751771D02*
X30208266Y-11847009D01*
X30208266Y-11847009D02*
X30208266Y-12370819D01*
X29732076Y-12370819D02*
X29732076Y-11704152D01*
X29732076Y-11370819D02*
X29779695Y-11418438D01*
X29779695Y-11418438D02*
X29732076Y-11466057D01*
X29732076Y-11466057D02*
X29684457Y-11418438D01*
X29684457Y-11418438D02*
X29732076Y-11370819D01*
X29732076Y-11370819D02*
X29732076Y-11466057D01*
X29255886Y-11704152D02*
X29255886Y-12370819D01*
X29255886Y-11799390D02*
X29208267Y-11751771D01*
X29208267Y-11751771D02*
X29113029Y-11704152D01*
X29113029Y-11704152D02*
X28970172Y-11704152D01*
X28970172Y-11704152D02*
X28874934Y-11751771D01*
X28874934Y-11751771D02*
X28827315Y-11847009D01*
X28827315Y-11847009D02*
X28827315Y-12370819D01*
X27922553Y-11704152D02*
X27922553Y-12513676D01*
X27922553Y-12513676D02*
X27970172Y-12608914D01*
X27970172Y-12608914D02*
X28017791Y-12656533D01*
X28017791Y-12656533D02*
X28113029Y-12704152D01*
X28113029Y-12704152D02*
X28255886Y-12704152D01*
X28255886Y-12704152D02*
X28351124Y-12656533D01*
X27922553Y-12323200D02*
X28017791Y-12370819D01*
X28017791Y-12370819D02*
X28208267Y-12370819D01*
X28208267Y-12370819D02*
X28303505Y-12323200D01*
X28303505Y-12323200D02*
X28351124Y-12275580D01*
X28351124Y-12275580D02*
X28398743Y-12180342D01*
X28398743Y-12180342D02*
X28398743Y-11894628D01*
X28398743Y-11894628D02*
X28351124Y-11799390D01*
X28351124Y-11799390D02*
X28303505Y-11751771D01*
X28303505Y-11751771D02*
X28208267Y-11704152D01*
X28208267Y-11704152D02*
X28017791Y-11704152D01*
X28017791Y-11704152D02*
X27922553Y-11751771D01*
X26779695Y-11704152D02*
X26541600Y-12370819D01*
X26541600Y-12370819D02*
X26303505Y-11704152D01*
X25922552Y-12370819D02*
X25922552Y-11704152D01*
X25922552Y-11370819D02*
X25970171Y-11418438D01*
X25970171Y-11418438D02*
X25922552Y-11466057D01*
X25922552Y-11466057D02*
X25874933Y-11418438D01*
X25874933Y-11418438D02*
X25922552Y-11370819D01*
X25922552Y-11370819D02*
X25922552Y-11466057D01*
X25017791Y-12370819D02*
X25017791Y-11847009D01*
X25017791Y-11847009D02*
X25065410Y-11751771D01*
X25065410Y-11751771D02*
X25160648Y-11704152D01*
X25160648Y-11704152D02*
X25351124Y-11704152D01*
X25351124Y-11704152D02*
X25446362Y-11751771D01*
X25017791Y-12323200D02*
X25113029Y-12370819D01*
X25113029Y-12370819D02*
X25351124Y-12370819D01*
X25351124Y-12370819D02*
X25446362Y-12323200D01*
X25446362Y-12323200D02*
X25493981Y-12227961D01*
X25493981Y-12227961D02*
X25493981Y-12132723D01*
X25493981Y-12132723D02*
X25446362Y-12037485D01*
X25446362Y-12037485D02*
X25351124Y-11989866D01*
X25351124Y-11989866D02*
X25113029Y-11989866D01*
X25113029Y-11989866D02*
X25017791Y-11942247D01*
X23493981Y-11370819D02*
X23493981Y-12085104D01*
X23493981Y-12085104D02*
X23541600Y-12227961D01*
X23541600Y-12227961D02*
X23636838Y-12323200D01*
X23636838Y-12323200D02*
X23779695Y-12370819D01*
X23779695Y-12370819D02*
X23874933Y-12370819D01*
X23017790Y-12370819D02*
X23017790Y-11370819D01*
X23017790Y-11370819D02*
X22636838Y-11370819D01*
X22636838Y-11370819D02*
X22541600Y-11418438D01*
X22541600Y-11418438D02*
X22493981Y-11466057D01*
X22493981Y-11466057D02*
X22446362Y-11561295D01*
X22446362Y-11561295D02*
X22446362Y-11704152D01*
X22446362Y-11704152D02*
X22493981Y-11799390D01*
X22493981Y-11799390D02*
X22541600Y-11847009D01*
X22541600Y-11847009D02*
X22636838Y-11894628D01*
X22636838Y-11894628D02*
X23017790Y-11894628D01*
X21446362Y-12370819D02*
X21779695Y-11894628D01*
X22017790Y-12370819D02*
X22017790Y-11370819D01*
X22017790Y-11370819D02*
X21636838Y-11370819D01*
X21636838Y-11370819D02*
X21541600Y-11418438D01*
X21541600Y-11418438D02*
X21493981Y-11466057D01*
X21493981Y-11466057D02*
X21446362Y-11561295D01*
X21446362Y-11561295D02*
X21446362Y-11704152D01*
X21446362Y-11704152D02*
X21493981Y-11799390D01*
X21493981Y-11799390D02*
X21541600Y-11847009D01*
X21541600Y-11847009D02*
X21636838Y-11894628D01*
X21636838Y-11894628D02*
X22017790Y-11894628D01*
X20827314Y-11370819D02*
X20636838Y-11370819D01*
X20636838Y-11370819D02*
X20541600Y-11418438D01*
X20541600Y-11418438D02*
X20446362Y-11513676D01*
X20446362Y-11513676D02*
X20398743Y-11704152D01*
X20398743Y-11704152D02*
X20398743Y-12037485D01*
X20398743Y-12037485D02*
X20446362Y-12227961D01*
X20446362Y-12227961D02*
X20541600Y-12323200D01*
X20541600Y-12323200D02*
X20636838Y-12370819D01*
X20636838Y-12370819D02*
X20827314Y-12370819D01*
X20827314Y-12370819D02*
X20922552Y-12323200D01*
X20922552Y-12323200D02*
X21017790Y-12227961D01*
X21017790Y-12227961D02*
X21065409Y-12037485D01*
X21065409Y-12037485D02*
X21065409Y-11704152D01*
X21065409Y-11704152D02*
X21017790Y-11513676D01*
X21017790Y-11513676D02*
X20922552Y-11418438D01*
X20922552Y-11418438D02*
X20827314Y-11370819D01*
X19446362Y-11418438D02*
X19541600Y-11370819D01*
X19541600Y-11370819D02*
X19684457Y-11370819D01*
X19684457Y-11370819D02*
X19827314Y-11418438D01*
X19827314Y-11418438D02*
X19922552Y-11513676D01*
X19922552Y-11513676D02*
X19970171Y-11608914D01*
X19970171Y-11608914D02*
X20017790Y-11799390D01*
X20017790Y-11799390D02*
X20017790Y-11942247D01*
X20017790Y-11942247D02*
X19970171Y-12132723D01*
X19970171Y-12132723D02*
X19922552Y-12227961D01*
X19922552Y-12227961D02*
X19827314Y-12323200D01*
X19827314Y-12323200D02*
X19684457Y-12370819D01*
X19684457Y-12370819D02*
X19589219Y-12370819D01*
X19589219Y-12370819D02*
X19446362Y-12323200D01*
X19446362Y-12323200D02*
X19398743Y-12275580D01*
X19398743Y-12275580D02*
X19398743Y-11942247D01*
X19398743Y-11942247D02*
X19589219Y-11942247D01*
X42589220Y-20420819D02*
X42589220Y-19420819D01*
X42113030Y-19754152D02*
X42113030Y-20420819D01*
X42113030Y-19849390D02*
X42065411Y-19801771D01*
X42065411Y-19801771D02*
X41970173Y-19754152D01*
X41970173Y-19754152D02*
X41827316Y-19754152D01*
X41827316Y-19754152D02*
X41732078Y-19801771D01*
X41732078Y-19801771D02*
X41684459Y-19897009D01*
X41684459Y-19897009D02*
X41684459Y-20420819D01*
X41208268Y-19754152D02*
X41208268Y-20754152D01*
X41208268Y-19801771D02*
X41113030Y-19754152D01*
X41113030Y-19754152D02*
X40922554Y-19754152D01*
X40922554Y-19754152D02*
X40827316Y-19801771D01*
X40827316Y-19801771D02*
X40779697Y-19849390D01*
X40779697Y-19849390D02*
X40732078Y-19944628D01*
X40732078Y-19944628D02*
X40732078Y-20230342D01*
X40732078Y-20230342D02*
X40779697Y-20325580D01*
X40779697Y-20325580D02*
X40827316Y-20373200D01*
X40827316Y-20373200D02*
X40922554Y-20420819D01*
X40922554Y-20420819D02*
X41113030Y-20420819D01*
X41113030Y-20420819D02*
X41208268Y-20373200D01*
X39874935Y-19754152D02*
X39874935Y-20420819D01*
X40303506Y-19754152D02*
X40303506Y-20277961D01*
X40303506Y-20277961D02*
X40255887Y-20373200D01*
X40255887Y-20373200D02*
X40160649Y-20420819D01*
X40160649Y-20420819D02*
X40017792Y-20420819D01*
X40017792Y-20420819D02*
X39922554Y-20373200D01*
X39922554Y-20373200D02*
X39874935Y-20325580D01*
X39541601Y-19754152D02*
X39160649Y-19754152D01*
X39398744Y-19420819D02*
X39398744Y-20277961D01*
X39398744Y-20277961D02*
X39351125Y-20373200D01*
X39351125Y-20373200D02*
X39255887Y-20420819D01*
X39255887Y-20420819D02*
X39160649Y-20420819D01*
X38160648Y-19754152D02*
X37922553Y-20420819D01*
X37922553Y-20420819D02*
X37684458Y-19754152D01*
X37160648Y-20420819D02*
X37255886Y-20373200D01*
X37255886Y-20373200D02*
X37303505Y-20325580D01*
X37303505Y-20325580D02*
X37351124Y-20230342D01*
X37351124Y-20230342D02*
X37351124Y-19944628D01*
X37351124Y-19944628D02*
X37303505Y-19849390D01*
X37303505Y-19849390D02*
X37255886Y-19801771D01*
X37255886Y-19801771D02*
X37160648Y-19754152D01*
X37160648Y-19754152D02*
X37017791Y-19754152D01*
X37017791Y-19754152D02*
X36922553Y-19801771D01*
X36922553Y-19801771D02*
X36874934Y-19849390D01*
X36874934Y-19849390D02*
X36827315Y-19944628D01*
X36827315Y-19944628D02*
X36827315Y-20230342D01*
X36827315Y-20230342D02*
X36874934Y-20325580D01*
X36874934Y-20325580D02*
X36922553Y-20373200D01*
X36922553Y-20373200D02*
X37017791Y-20420819D01*
X37017791Y-20420819D02*
X37160648Y-20420819D01*
X36255886Y-20420819D02*
X36351124Y-20373200D01*
X36351124Y-20373200D02*
X36398743Y-20277961D01*
X36398743Y-20277961D02*
X36398743Y-19420819D01*
X36017790Y-19754152D02*
X35636838Y-19754152D01*
X35874933Y-19420819D02*
X35874933Y-20277961D01*
X35874933Y-20277961D02*
X35827314Y-20373200D01*
X35827314Y-20373200D02*
X35732076Y-20420819D01*
X35732076Y-20420819D02*
X35636838Y-20420819D01*
X34874933Y-20420819D02*
X34874933Y-19897009D01*
X34874933Y-19897009D02*
X34922552Y-19801771D01*
X34922552Y-19801771D02*
X35017790Y-19754152D01*
X35017790Y-19754152D02*
X35208266Y-19754152D01*
X35208266Y-19754152D02*
X35303504Y-19801771D01*
X34874933Y-20373200D02*
X34970171Y-20420819D01*
X34970171Y-20420819D02*
X35208266Y-20420819D01*
X35208266Y-20420819D02*
X35303504Y-20373200D01*
X35303504Y-20373200D02*
X35351123Y-20277961D01*
X35351123Y-20277961D02*
X35351123Y-20182723D01*
X35351123Y-20182723D02*
X35303504Y-20087485D01*
X35303504Y-20087485D02*
X35208266Y-20039866D01*
X35208266Y-20039866D02*
X34970171Y-20039866D01*
X34970171Y-20039866D02*
X34874933Y-19992247D01*
X33970171Y-19754152D02*
X33970171Y-20563676D01*
X33970171Y-20563676D02*
X34017790Y-20658914D01*
X34017790Y-20658914D02*
X34065409Y-20706533D01*
X34065409Y-20706533D02*
X34160647Y-20754152D01*
X34160647Y-20754152D02*
X34303504Y-20754152D01*
X34303504Y-20754152D02*
X34398742Y-20706533D01*
X33970171Y-20373200D02*
X34065409Y-20420819D01*
X34065409Y-20420819D02*
X34255885Y-20420819D01*
X34255885Y-20420819D02*
X34351123Y-20373200D01*
X34351123Y-20373200D02*
X34398742Y-20325580D01*
X34398742Y-20325580D02*
X34446361Y-20230342D01*
X34446361Y-20230342D02*
X34446361Y-19944628D01*
X34446361Y-19944628D02*
X34398742Y-19849390D01*
X34398742Y-19849390D02*
X34351123Y-19801771D01*
X34351123Y-19801771D02*
X34255885Y-19754152D01*
X34255885Y-19754152D02*
X34065409Y-19754152D01*
X34065409Y-19754152D02*
X33970171Y-19801771D01*
X33113028Y-20373200D02*
X33208266Y-20420819D01*
X33208266Y-20420819D02*
X33398742Y-20420819D01*
X33398742Y-20420819D02*
X33493980Y-20373200D01*
X33493980Y-20373200D02*
X33541599Y-20277961D01*
X33541599Y-20277961D02*
X33541599Y-19897009D01*
X33541599Y-19897009D02*
X33493980Y-19801771D01*
X33493980Y-19801771D02*
X33398742Y-19754152D01*
X33398742Y-19754152D02*
X33208266Y-19754152D01*
X33208266Y-19754152D02*
X33113028Y-19801771D01*
X33113028Y-19801771D02*
X33065409Y-19897009D01*
X33065409Y-19897009D02*
X33065409Y-19992247D01*
X33065409Y-19992247D02*
X33541599Y-20087485D01*
X31398742Y-19420819D02*
X31874932Y-19420819D01*
X31874932Y-19420819D02*
X31922551Y-19897009D01*
X31922551Y-19897009D02*
X31874932Y-19849390D01*
X31874932Y-19849390D02*
X31779694Y-19801771D01*
X31779694Y-19801771D02*
X31541599Y-19801771D01*
X31541599Y-19801771D02*
X31446361Y-19849390D01*
X31446361Y-19849390D02*
X31398742Y-19897009D01*
X31398742Y-19897009D02*
X31351123Y-19992247D01*
X31351123Y-19992247D02*
X31351123Y-20230342D01*
X31351123Y-20230342D02*
X31398742Y-20325580D01*
X31398742Y-20325580D02*
X31446361Y-20373200D01*
X31446361Y-20373200D02*
X31541599Y-20420819D01*
X31541599Y-20420819D02*
X31779694Y-20420819D01*
X31779694Y-20420819D02*
X31874932Y-20373200D01*
X31874932Y-20373200D02*
X31922551Y-20325580D01*
X31065408Y-20039866D02*
X31017789Y-19992247D01*
X31017789Y-19992247D02*
X30922551Y-19944628D01*
X30922551Y-19944628D02*
X30732075Y-20039866D01*
X30732075Y-20039866D02*
X30636837Y-19992247D01*
X30636837Y-19992247D02*
X30589218Y-19944628D01*
X29779694Y-19420819D02*
X29970170Y-19420819D01*
X29970170Y-19420819D02*
X30065408Y-19468438D01*
X30065408Y-19468438D02*
X30113027Y-19516057D01*
X30113027Y-19516057D02*
X30208265Y-19658914D01*
X30208265Y-19658914D02*
X30255884Y-19849390D01*
X30255884Y-19849390D02*
X30255884Y-20230342D01*
X30255884Y-20230342D02*
X30208265Y-20325580D01*
X30208265Y-20325580D02*
X30160646Y-20373200D01*
X30160646Y-20373200D02*
X30065408Y-20420819D01*
X30065408Y-20420819D02*
X29874932Y-20420819D01*
X29874932Y-20420819D02*
X29779694Y-20373200D01*
X29779694Y-20373200D02*
X29732075Y-20325580D01*
X29732075Y-20325580D02*
X29684456Y-20230342D01*
X29684456Y-20230342D02*
X29684456Y-19992247D01*
X29684456Y-19992247D02*
X29732075Y-19897009D01*
X29732075Y-19897009D02*
X29779694Y-19849390D01*
X29779694Y-19849390D02*
X29874932Y-19801771D01*
X29874932Y-19801771D02*
X30065408Y-19801771D01*
X30065408Y-19801771D02*
X30160646Y-19849390D01*
X30160646Y-19849390D02*
X30208265Y-19897009D01*
X30208265Y-19897009D02*
X30255884Y-19992247D01*
X29398741Y-19420819D02*
X29065408Y-20420819D01*
X29065408Y-20420819D02*
X28732075Y-19420819D01*
X41827315Y-22030819D02*
X41827315Y-21030819D01*
X41351125Y-21364152D02*
X41351125Y-22030819D01*
X41351125Y-21459390D02*
X41303506Y-21411771D01*
X41303506Y-21411771D02*
X41208268Y-21364152D01*
X41208268Y-21364152D02*
X41065411Y-21364152D01*
X41065411Y-21364152D02*
X40970173Y-21411771D01*
X40970173Y-21411771D02*
X40922554Y-21507009D01*
X40922554Y-21507009D02*
X40922554Y-22030819D01*
X40017792Y-21983200D02*
X40113030Y-22030819D01*
X40113030Y-22030819D02*
X40303506Y-22030819D01*
X40303506Y-22030819D02*
X40398744Y-21983200D01*
X40398744Y-21983200D02*
X40446363Y-21935580D01*
X40446363Y-21935580D02*
X40493982Y-21840342D01*
X40493982Y-21840342D02*
X40493982Y-21554628D01*
X40493982Y-21554628D02*
X40446363Y-21459390D01*
X40446363Y-21459390D02*
X40398744Y-21411771D01*
X40398744Y-21411771D02*
X40303506Y-21364152D01*
X40303506Y-21364152D02*
X40113030Y-21364152D01*
X40113030Y-21364152D02*
X40017792Y-21411771D01*
X39446363Y-22030819D02*
X39541601Y-21983200D01*
X39541601Y-21983200D02*
X39589220Y-21887961D01*
X39589220Y-21887961D02*
X39589220Y-21030819D01*
X38636839Y-21364152D02*
X38636839Y-22030819D01*
X39065410Y-21364152D02*
X39065410Y-21887961D01*
X39065410Y-21887961D02*
X39017791Y-21983200D01*
X39017791Y-21983200D02*
X38922553Y-22030819D01*
X38922553Y-22030819D02*
X38779696Y-22030819D01*
X38779696Y-22030819D02*
X38684458Y-21983200D01*
X38684458Y-21983200D02*
X38636839Y-21935580D01*
X37732077Y-22030819D02*
X37732077Y-21030819D01*
X37732077Y-21983200D02*
X37827315Y-22030819D01*
X37827315Y-22030819D02*
X38017791Y-22030819D01*
X38017791Y-22030819D02*
X38113029Y-21983200D01*
X38113029Y-21983200D02*
X38160648Y-21935580D01*
X38160648Y-21935580D02*
X38208267Y-21840342D01*
X38208267Y-21840342D02*
X38208267Y-21554628D01*
X38208267Y-21554628D02*
X38160648Y-21459390D01*
X38160648Y-21459390D02*
X38113029Y-21411771D01*
X38113029Y-21411771D02*
X38017791Y-21364152D01*
X38017791Y-21364152D02*
X37827315Y-21364152D01*
X37827315Y-21364152D02*
X37732077Y-21411771D01*
X36874934Y-21983200D02*
X36970172Y-22030819D01*
X36970172Y-22030819D02*
X37160648Y-22030819D01*
X37160648Y-22030819D02*
X37255886Y-21983200D01*
X37255886Y-21983200D02*
X37303505Y-21887961D01*
X37303505Y-21887961D02*
X37303505Y-21507009D01*
X37303505Y-21507009D02*
X37255886Y-21411771D01*
X37255886Y-21411771D02*
X37160648Y-21364152D01*
X37160648Y-21364152D02*
X36970172Y-21364152D01*
X36970172Y-21364152D02*
X36874934Y-21411771D01*
X36874934Y-21411771D02*
X36827315Y-21507009D01*
X36827315Y-21507009D02*
X36827315Y-21602247D01*
X36827315Y-21602247D02*
X37303505Y-21697485D01*
X36446362Y-21983200D02*
X36351124Y-22030819D01*
X36351124Y-22030819D02*
X36160648Y-22030819D01*
X36160648Y-22030819D02*
X36065410Y-21983200D01*
X36065410Y-21983200D02*
X36017791Y-21887961D01*
X36017791Y-21887961D02*
X36017791Y-21840342D01*
X36017791Y-21840342D02*
X36065410Y-21745104D01*
X36065410Y-21745104D02*
X36160648Y-21697485D01*
X36160648Y-21697485D02*
X36303505Y-21697485D01*
X36303505Y-21697485D02*
X36398743Y-21649866D01*
X36398743Y-21649866D02*
X36446362Y-21554628D01*
X36446362Y-21554628D02*
X36446362Y-21507009D01*
X36446362Y-21507009D02*
X36398743Y-21411771D01*
X36398743Y-21411771D02*
X36303505Y-21364152D01*
X36303505Y-21364152D02*
X36160648Y-21364152D01*
X36160648Y-21364152D02*
X36065410Y-21411771D01*
X34827314Y-22030819D02*
X34827314Y-21364152D01*
X34827314Y-21554628D02*
X34779695Y-21459390D01*
X34779695Y-21459390D02*
X34732076Y-21411771D01*
X34732076Y-21411771D02*
X34636838Y-21364152D01*
X34636838Y-21364152D02*
X34541600Y-21364152D01*
X33827314Y-21983200D02*
X33922552Y-22030819D01*
X33922552Y-22030819D02*
X34113028Y-22030819D01*
X34113028Y-22030819D02*
X34208266Y-21983200D01*
X34208266Y-21983200D02*
X34255885Y-21887961D01*
X34255885Y-21887961D02*
X34255885Y-21507009D01*
X34255885Y-21507009D02*
X34208266Y-21411771D01*
X34208266Y-21411771D02*
X34113028Y-21364152D01*
X34113028Y-21364152D02*
X33922552Y-21364152D01*
X33922552Y-21364152D02*
X33827314Y-21411771D01*
X33827314Y-21411771D02*
X33779695Y-21507009D01*
X33779695Y-21507009D02*
X33779695Y-21602247D01*
X33779695Y-21602247D02*
X34255885Y-21697485D01*
X33446361Y-21364152D02*
X33208266Y-22030819D01*
X33208266Y-22030819D02*
X32970171Y-21364152D01*
X32208266Y-21983200D02*
X32303504Y-22030819D01*
X32303504Y-22030819D02*
X32493980Y-22030819D01*
X32493980Y-22030819D02*
X32589218Y-21983200D01*
X32589218Y-21983200D02*
X32636837Y-21887961D01*
X32636837Y-21887961D02*
X32636837Y-21507009D01*
X32636837Y-21507009D02*
X32589218Y-21411771D01*
X32589218Y-21411771D02*
X32493980Y-21364152D01*
X32493980Y-21364152D02*
X32303504Y-21364152D01*
X32303504Y-21364152D02*
X32208266Y-21411771D01*
X32208266Y-21411771D02*
X32160647Y-21507009D01*
X32160647Y-21507009D02*
X32160647Y-21602247D01*
X32160647Y-21602247D02*
X32636837Y-21697485D01*
X31732075Y-22030819D02*
X31732075Y-21364152D01*
X31732075Y-21554628D02*
X31684456Y-21459390D01*
X31684456Y-21459390D02*
X31636837Y-21411771D01*
X31636837Y-21411771D02*
X31541599Y-21364152D01*
X31541599Y-21364152D02*
X31446361Y-21364152D01*
X31160646Y-21983200D02*
X31065408Y-22030819D01*
X31065408Y-22030819D02*
X30874932Y-22030819D01*
X30874932Y-22030819D02*
X30779694Y-21983200D01*
X30779694Y-21983200D02*
X30732075Y-21887961D01*
X30732075Y-21887961D02*
X30732075Y-21840342D01*
X30732075Y-21840342D02*
X30779694Y-21745104D01*
X30779694Y-21745104D02*
X30874932Y-21697485D01*
X30874932Y-21697485D02*
X31017789Y-21697485D01*
X31017789Y-21697485D02*
X31113027Y-21649866D01*
X31113027Y-21649866D02*
X31160646Y-21554628D01*
X31160646Y-21554628D02*
X31160646Y-21507009D01*
X31160646Y-21507009D02*
X31113027Y-21411771D01*
X31113027Y-21411771D02*
X31017789Y-21364152D01*
X31017789Y-21364152D02*
X30874932Y-21364152D01*
X30874932Y-21364152D02*
X30779694Y-21411771D01*
X29922551Y-21983200D02*
X30017789Y-22030819D01*
X30017789Y-22030819D02*
X30208265Y-22030819D01*
X30208265Y-22030819D02*
X30303503Y-21983200D01*
X30303503Y-21983200D02*
X30351122Y-21887961D01*
X30351122Y-21887961D02*
X30351122Y-21507009D01*
X30351122Y-21507009D02*
X30303503Y-21411771D01*
X30303503Y-21411771D02*
X30208265Y-21364152D01*
X30208265Y-21364152D02*
X30017789Y-21364152D01*
X30017789Y-21364152D02*
X29922551Y-21411771D01*
X29922551Y-21411771D02*
X29874932Y-21507009D01*
X29874932Y-21507009D02*
X29874932Y-21602247D01*
X29874932Y-21602247D02*
X30351122Y-21697485D01*
X28779693Y-21364152D02*
X28541598Y-22030819D01*
X28541598Y-22030819D02*
X28303503Y-21364152D01*
X27779693Y-22030819D02*
X27874931Y-21983200D01*
X27874931Y-21983200D02*
X27922550Y-21935580D01*
X27922550Y-21935580D02*
X27970169Y-21840342D01*
X27970169Y-21840342D02*
X27970169Y-21554628D01*
X27970169Y-21554628D02*
X27922550Y-21459390D01*
X27922550Y-21459390D02*
X27874931Y-21411771D01*
X27874931Y-21411771D02*
X27779693Y-21364152D01*
X27779693Y-21364152D02*
X27636836Y-21364152D01*
X27636836Y-21364152D02*
X27541598Y-21411771D01*
X27541598Y-21411771D02*
X27493979Y-21459390D01*
X27493979Y-21459390D02*
X27446360Y-21554628D01*
X27446360Y-21554628D02*
X27446360Y-21840342D01*
X27446360Y-21840342D02*
X27493979Y-21935580D01*
X27493979Y-21935580D02*
X27541598Y-21983200D01*
X27541598Y-21983200D02*
X27636836Y-22030819D01*
X27636836Y-22030819D02*
X27779693Y-22030819D01*
X26874931Y-22030819D02*
X26970169Y-21983200D01*
X26970169Y-21983200D02*
X27017788Y-21887961D01*
X27017788Y-21887961D02*
X27017788Y-21030819D01*
X26636835Y-21364152D02*
X26255883Y-21364152D01*
X26493978Y-21030819D02*
X26493978Y-21887961D01*
X26493978Y-21887961D02*
X26446359Y-21983200D01*
X26446359Y-21983200D02*
X26351121Y-22030819D01*
X26351121Y-22030819D02*
X26255883Y-22030819D01*
X25493978Y-22030819D02*
X25493978Y-21507009D01*
X25493978Y-21507009D02*
X25541597Y-21411771D01*
X25541597Y-21411771D02*
X25636835Y-21364152D01*
X25636835Y-21364152D02*
X25827311Y-21364152D01*
X25827311Y-21364152D02*
X25922549Y-21411771D01*
X25493978Y-21983200D02*
X25589216Y-22030819D01*
X25589216Y-22030819D02*
X25827311Y-22030819D01*
X25827311Y-22030819D02*
X25922549Y-21983200D01*
X25922549Y-21983200D02*
X25970168Y-21887961D01*
X25970168Y-21887961D02*
X25970168Y-21792723D01*
X25970168Y-21792723D02*
X25922549Y-21697485D01*
X25922549Y-21697485D02*
X25827311Y-21649866D01*
X25827311Y-21649866D02*
X25589216Y-21649866D01*
X25589216Y-21649866D02*
X25493978Y-21602247D01*
X24589216Y-21364152D02*
X24589216Y-22173676D01*
X24589216Y-22173676D02*
X24636835Y-22268914D01*
X24636835Y-22268914D02*
X24684454Y-22316533D01*
X24684454Y-22316533D02*
X24779692Y-22364152D01*
X24779692Y-22364152D02*
X24922549Y-22364152D01*
X24922549Y-22364152D02*
X25017787Y-22316533D01*
X24589216Y-21983200D02*
X24684454Y-22030819D01*
X24684454Y-22030819D02*
X24874930Y-22030819D01*
X24874930Y-22030819D02*
X24970168Y-21983200D01*
X24970168Y-21983200D02*
X25017787Y-21935580D01*
X25017787Y-21935580D02*
X25065406Y-21840342D01*
X25065406Y-21840342D02*
X25065406Y-21554628D01*
X25065406Y-21554628D02*
X25017787Y-21459390D01*
X25017787Y-21459390D02*
X24970168Y-21411771D01*
X24970168Y-21411771D02*
X24874930Y-21364152D01*
X24874930Y-21364152D02*
X24684454Y-21364152D01*
X24684454Y-21364152D02*
X24589216Y-21411771D01*
X23732073Y-21983200D02*
X23827311Y-22030819D01*
X23827311Y-22030819D02*
X24017787Y-22030819D01*
X24017787Y-22030819D02*
X24113025Y-21983200D01*
X24113025Y-21983200D02*
X24160644Y-21887961D01*
X24160644Y-21887961D02*
X24160644Y-21507009D01*
X24160644Y-21507009D02*
X24113025Y-21411771D01*
X24113025Y-21411771D02*
X24017787Y-21364152D01*
X24017787Y-21364152D02*
X23827311Y-21364152D01*
X23827311Y-21364152D02*
X23732073Y-21411771D01*
X23732073Y-21411771D02*
X23684454Y-21507009D01*
X23684454Y-21507009D02*
X23684454Y-21602247D01*
X23684454Y-21602247D02*
X24160644Y-21697485D01*
X22493977Y-21364152D02*
X22493977Y-22364152D01*
X22493977Y-21411771D02*
X22398739Y-21364152D01*
X22398739Y-21364152D02*
X22208263Y-21364152D01*
X22208263Y-21364152D02*
X22113025Y-21411771D01*
X22113025Y-21411771D02*
X22065406Y-21459390D01*
X22065406Y-21459390D02*
X22017787Y-21554628D01*
X22017787Y-21554628D02*
X22017787Y-21840342D01*
X22017787Y-21840342D02*
X22065406Y-21935580D01*
X22065406Y-21935580D02*
X22113025Y-21983200D01*
X22113025Y-21983200D02*
X22208263Y-22030819D01*
X22208263Y-22030819D02*
X22398739Y-22030819D01*
X22398739Y-22030819D02*
X22493977Y-21983200D01*
X21589215Y-22030819D02*
X21589215Y-21364152D01*
X21589215Y-21554628D02*
X21541596Y-21459390D01*
X21541596Y-21459390D02*
X21493977Y-21411771D01*
X21493977Y-21411771D02*
X21398739Y-21364152D01*
X21398739Y-21364152D02*
X21303501Y-21364152D01*
X20827310Y-22030819D02*
X20922548Y-21983200D01*
X20922548Y-21983200D02*
X20970167Y-21935580D01*
X20970167Y-21935580D02*
X21017786Y-21840342D01*
X21017786Y-21840342D02*
X21017786Y-21554628D01*
X21017786Y-21554628D02*
X20970167Y-21459390D01*
X20970167Y-21459390D02*
X20922548Y-21411771D01*
X20922548Y-21411771D02*
X20827310Y-21364152D01*
X20827310Y-21364152D02*
X20684453Y-21364152D01*
X20684453Y-21364152D02*
X20589215Y-21411771D01*
X20589215Y-21411771D02*
X20541596Y-21459390D01*
X20541596Y-21459390D02*
X20493977Y-21554628D01*
X20493977Y-21554628D02*
X20493977Y-21840342D01*
X20493977Y-21840342D02*
X20541596Y-21935580D01*
X20541596Y-21935580D02*
X20589215Y-21983200D01*
X20589215Y-21983200D02*
X20684453Y-22030819D01*
X20684453Y-22030819D02*
X20827310Y-22030819D01*
X20208262Y-21364152D02*
X19827310Y-21364152D01*
X20065405Y-21030819D02*
X20065405Y-21887961D01*
X20065405Y-21887961D02*
X20017786Y-21983200D01*
X20017786Y-21983200D02*
X19922548Y-22030819D01*
X19922548Y-22030819D02*
X19827310Y-22030819D01*
X19113024Y-21983200D02*
X19208262Y-22030819D01*
X19208262Y-22030819D02*
X19398738Y-22030819D01*
X19398738Y-22030819D02*
X19493976Y-21983200D01*
X19493976Y-21983200D02*
X19541595Y-21887961D01*
X19541595Y-21887961D02*
X19541595Y-21507009D01*
X19541595Y-21507009D02*
X19493976Y-21411771D01*
X19493976Y-21411771D02*
X19398738Y-21364152D01*
X19398738Y-21364152D02*
X19208262Y-21364152D01*
X19208262Y-21364152D02*
X19113024Y-21411771D01*
X19113024Y-21411771D02*
X19065405Y-21507009D01*
X19065405Y-21507009D02*
X19065405Y-21602247D01*
X19065405Y-21602247D02*
X19541595Y-21697485D01*
X18208262Y-21983200D02*
X18303500Y-22030819D01*
X18303500Y-22030819D02*
X18493976Y-22030819D01*
X18493976Y-22030819D02*
X18589214Y-21983200D01*
X18589214Y-21983200D02*
X18636833Y-21935580D01*
X18636833Y-21935580D02*
X18684452Y-21840342D01*
X18684452Y-21840342D02*
X18684452Y-21554628D01*
X18684452Y-21554628D02*
X18636833Y-21459390D01*
X18636833Y-21459390D02*
X18589214Y-21411771D01*
X18589214Y-21411771D02*
X18493976Y-21364152D01*
X18493976Y-21364152D02*
X18303500Y-21364152D01*
X18303500Y-21364152D02*
X18208262Y-21411771D01*
X17922547Y-21364152D02*
X17541595Y-21364152D01*
X17779690Y-21030819D02*
X17779690Y-21887961D01*
X17779690Y-21887961D02*
X17732071Y-21983200D01*
X17732071Y-21983200D02*
X17636833Y-22030819D01*
X17636833Y-22030819D02*
X17541595Y-22030819D01*
X17208261Y-22030819D02*
X17208261Y-21364152D01*
X17208261Y-21030819D02*
X17255880Y-21078438D01*
X17255880Y-21078438D02*
X17208261Y-21126057D01*
X17208261Y-21126057D02*
X17160642Y-21078438D01*
X17160642Y-21078438D02*
X17208261Y-21030819D01*
X17208261Y-21030819D02*
X17208261Y-21126057D01*
X16589214Y-22030819D02*
X16684452Y-21983200D01*
X16684452Y-21983200D02*
X16732071Y-21935580D01*
X16732071Y-21935580D02*
X16779690Y-21840342D01*
X16779690Y-21840342D02*
X16779690Y-21554628D01*
X16779690Y-21554628D02*
X16732071Y-21459390D01*
X16732071Y-21459390D02*
X16684452Y-21411771D01*
X16684452Y-21411771D02*
X16589214Y-21364152D01*
X16589214Y-21364152D02*
X16446357Y-21364152D01*
X16446357Y-21364152D02*
X16351119Y-21411771D01*
X16351119Y-21411771D02*
X16303500Y-21459390D01*
X16303500Y-21459390D02*
X16255881Y-21554628D01*
X16255881Y-21554628D02*
X16255881Y-21840342D01*
X16255881Y-21840342D02*
X16303500Y-21935580D01*
X16303500Y-21935580D02*
X16351119Y-21983200D01*
X16351119Y-21983200D02*
X16446357Y-22030819D01*
X16446357Y-22030819D02*
X16589214Y-22030819D01*
X15827309Y-21364152D02*
X15827309Y-22030819D01*
X15827309Y-21459390D02*
X15779690Y-21411771D01*
X15779690Y-21411771D02*
X15684452Y-21364152D01*
X15684452Y-21364152D02*
X15541595Y-21364152D01*
X15541595Y-21364152D02*
X15446357Y-21411771D01*
X15446357Y-21411771D02*
X15398738Y-21507009D01*
X15398738Y-21507009D02*
X15398738Y-22030819D01*
X13732071Y-22030819D02*
X13732071Y-21030819D01*
X13732071Y-21983200D02*
X13827309Y-22030819D01*
X13827309Y-22030819D02*
X14017785Y-22030819D01*
X14017785Y-22030819D02*
X14113023Y-21983200D01*
X14113023Y-21983200D02*
X14160642Y-21935580D01*
X14160642Y-21935580D02*
X14208261Y-21840342D01*
X14208261Y-21840342D02*
X14208261Y-21554628D01*
X14208261Y-21554628D02*
X14160642Y-21459390D01*
X14160642Y-21459390D02*
X14113023Y-21411771D01*
X14113023Y-21411771D02*
X14017785Y-21364152D01*
X14017785Y-21364152D02*
X13827309Y-21364152D01*
X13827309Y-21364152D02*
X13732071Y-21411771D01*
X13255880Y-22030819D02*
X13255880Y-21364152D01*
X13255880Y-21030819D02*
X13303499Y-21078438D01*
X13303499Y-21078438D02*
X13255880Y-21126057D01*
X13255880Y-21126057D02*
X13208261Y-21078438D01*
X13208261Y-21078438D02*
X13255880Y-21030819D01*
X13255880Y-21030819D02*
X13255880Y-21126057D01*
X12636833Y-22030819D02*
X12732071Y-21983200D01*
X12732071Y-21983200D02*
X12779690Y-21935580D01*
X12779690Y-21935580D02*
X12827309Y-21840342D01*
X12827309Y-21840342D02*
X12827309Y-21554628D01*
X12827309Y-21554628D02*
X12779690Y-21459390D01*
X12779690Y-21459390D02*
X12732071Y-21411771D01*
X12732071Y-21411771D02*
X12636833Y-21364152D01*
X12636833Y-21364152D02*
X12493976Y-21364152D01*
X12493976Y-21364152D02*
X12398738Y-21411771D01*
X12398738Y-21411771D02*
X12351119Y-21459390D01*
X12351119Y-21459390D02*
X12303500Y-21554628D01*
X12303500Y-21554628D02*
X12303500Y-21840342D01*
X12303500Y-21840342D02*
X12351119Y-21935580D01*
X12351119Y-21935580D02*
X12398738Y-21983200D01*
X12398738Y-21983200D02*
X12493976Y-22030819D01*
X12493976Y-22030819D02*
X12636833Y-22030819D01*
X11446357Y-22030819D02*
X11446357Y-21030819D01*
X11446357Y-21983200D02*
X11541595Y-22030819D01*
X11541595Y-22030819D02*
X11732071Y-22030819D01*
X11732071Y-22030819D02*
X11827309Y-21983200D01*
X11827309Y-21983200D02*
X11874928Y-21935580D01*
X11874928Y-21935580D02*
X11922547Y-21840342D01*
X11922547Y-21840342D02*
X11922547Y-21554628D01*
X11922547Y-21554628D02*
X11874928Y-21459390D01*
X11874928Y-21459390D02*
X11827309Y-21411771D01*
X11827309Y-21411771D02*
X11732071Y-21364152D01*
X11732071Y-21364152D02*
X11541595Y-21364152D01*
X11541595Y-21364152D02*
X11446357Y-21411771D01*
X10589214Y-21983200D02*
X10684452Y-22030819D01*
X10684452Y-22030819D02*
X10874928Y-22030819D01*
X10874928Y-22030819D02*
X10970166Y-21983200D01*
X10970166Y-21983200D02*
X11017785Y-21887961D01*
X11017785Y-21887961D02*
X11017785Y-21507009D01*
X11017785Y-21507009D02*
X10970166Y-21411771D01*
X10970166Y-21411771D02*
X10874928Y-21364152D01*
X10874928Y-21364152D02*
X10684452Y-21364152D01*
X10684452Y-21364152D02*
X10589214Y-21411771D01*
X10589214Y-21411771D02*
X10541595Y-21507009D01*
X10541595Y-21507009D02*
X10541595Y-21602247D01*
X10541595Y-21602247D02*
X11017785Y-21697485D01*
%LPC*%
D11*
%TO.C,KiKit_MB_11_7*%
X56692000Y-35419858D03*
%TD*%
%TO.C,KiKit_MB_7_3*%
X15230667Y-35936000D03*
%TD*%
%TO.C,KiKit_MB_14_2*%
X51128000Y-62097666D03*
%TD*%
%TO.C,KiKit_MB_6_1*%
X56692000Y-35936000D03*
%TD*%
%TO.C,KiKit_MB_6_1*%
X48128000Y-49298000D03*
%TD*%
%TO.C,KiKit_MB_4_6*%
X30397333Y-33000000D03*
%TD*%
%TO.C,KiKit_MB_2_4*%
X67192000Y-33000000D03*
%TD*%
%TO.C,KiKit_MB_12_2*%
X51128000Y-44831666D03*
%TD*%
%TO.C,KiKit_MB_10_5*%
X92025333Y-35936000D03*
%TD*%
%TO.C,KiKit_MB_9_3*%
X51192000Y-18099334D03*
%TD*%
%TO.C,KiKit_MB_11_6*%
X56362936Y-35936000D03*
%TD*%
%TO.C,KiKit_MB_8_3*%
X23230667Y-35936000D03*
%TD*%
%TO.C,KiKit_MB_10_1*%
X88692000Y-35936000D03*
%TD*%
%TO.C,KiKit_MB_13_6*%
X51128000Y-50131333D03*
%TD*%
%TO.C,KiKit_MB_3_7*%
X48064000Y-28399000D03*
%TD*%
%TO.C,KiKit_MB_3_6*%
X22397334Y-33000000D03*
%TD*%
%TO.C,KiKit_MB_1_3*%
X8897334Y-33000000D03*
%TD*%
%TO.C,KiKit_MB_5_6*%
X38397333Y-33000000D03*
%TD*%
D12*
%TO.C,.D2*%
X24064000Y-51250000D03*
D13*
X24064000Y-53790000D03*
%TD*%
D11*
%TO.C,KiKit_MB_4_2*%
X33730666Y-33000000D03*
%TD*%
%TO.C,KiKit_MB_8_2*%
X51192000Y-10299667D03*
%TD*%
%TO.C,KiKit_MB_2_1*%
X18564000Y-33000000D03*
%TD*%
%TO.C,KiKit_MB_2_4*%
X48064000Y-17266000D03*
%TD*%
%TO.C,KiKit_MB_11_5*%
X55517731Y-35936000D03*
%TD*%
%TO.C,KiKit_MB_2_3*%
X68025334Y-33000000D03*
%TD*%
D14*
%TO.C,.J1*%
X85192000Y-63500000D03*
D15*
X89152000Y-63500000D03*
%TD*%
D11*
%TO.C,KiKit_MB_2_3*%
X16897334Y-33000000D03*
%TD*%
%TO.C,KiKit_MB_6_5*%
X60025334Y-35936000D03*
%TD*%
%TO.C,KiKit_MB_10_3*%
X51192000Y-26732334D03*
%TD*%
%TO.C,KiKit_MB_1_4*%
X59192000Y-33000000D03*
%TD*%
%TO.C,KiKit_MB_9_2*%
X30397333Y-35936000D03*
%TD*%
%TO.C,KiKit_MB_4_2*%
X84858666Y-33000000D03*
%TD*%
%TO.C,KiKit_MB_14_5*%
X51128000Y-59597666D03*
%TD*%
D16*
%TO.C,J2*%
X14064000Y-24500000D03*
D17*
X14064000Y-30500000D03*
D18*
X18764000Y-27500000D03*
%TD*%
D19*
%TO.C,.H3*%
X55192000Y-65000000D03*
%TD*%
D11*
%TO.C,KiKit_MB_7_3*%
X66358667Y-35936000D03*
%TD*%
%TO.C,KiKit_MB_5_1*%
X93692000Y-33000000D03*
%TD*%
%TO.C,KiKit_MB_9_5*%
X32897333Y-35936000D03*
%TD*%
%TO.C,KiKit_MB_9_3*%
X82358666Y-35936000D03*
%TD*%
%TO.C,KiKit_MB_5_4*%
X91192000Y-33000000D03*
%TD*%
%TO.C,KiKit_MB_8_6*%
X76858666Y-35936000D03*
%TD*%
%TO.C,KiKit_MB_1_2*%
X48064000Y-6966334D03*
%TD*%
%TO.C,KiKit_MB_4_5*%
X43524960Y-33000000D03*
%TD*%
%TO.C,KiKit_MB_11_12*%
X54886197Y-32987007D03*
%TD*%
%TO.C,KiKit_MB_1_3*%
X60025334Y-33000000D03*
%TD*%
%TO.C,KiKit_MB_10_3*%
X90358666Y-35936000D03*
%TD*%
%TO.C,KiKit_MB_7_6*%
X48128000Y-62097666D03*
%TD*%
%TO.C,KiKit_MB_9_7*%
X51192000Y-14766000D03*
%TD*%
%TO.C,KiKit_MB_4_7*%
X80692000Y-33000000D03*
%TD*%
D19*
%TO.C,.H2*%
X44064000Y-40000000D03*
%TD*%
D11*
%TO.C,KiKit_MB_8_4*%
X75192000Y-35936000D03*
%TD*%
%TO.C,KiKit_MB_9_4*%
X83192000Y-35936000D03*
%TD*%
%TO.C,KiKit_MB_2_7*%
X48064000Y-19766000D03*
%TD*%
%TO.C,KiKit_MB_5_1*%
X42564000Y-33000000D03*
%TD*%
%TO.C,KiKit_MB_11_2*%
X53089742Y-36523175D03*
%TD*%
%TO.C,KiKit_MB_11_13*%
X54056653Y-32834328D03*
%TD*%
D20*
%TO.C,H3*%
X44064000Y-29000000D03*
%TD*%
D11*
%TO.C,KiKit_MB_5_3*%
X40897333Y-33000000D03*
%TD*%
%TO.C,KiKit_MB_10_2*%
X51192000Y-27565667D03*
%TD*%
%TO.C,KiKit_MB_6_1*%
X5564000Y-35936000D03*
%TD*%
%TO.C,KiKit_MB_3_5*%
X74358667Y-33000000D03*
%TD*%
%TO.C,KiKit_MB_7_7*%
X48128000Y-62931000D03*
%TD*%
%TO.C,KiKit_MB_13_7*%
X51128000Y-49298000D03*
%TD*%
%TO.C,KiKit_MB_2_2*%
X48064000Y-15599334D03*
%TD*%
%TO.C,KiKit_MB_7_3*%
X48128000Y-59597666D03*
%TD*%
%TO.C,KiKit_MB_4_6*%
X81525333Y-33000000D03*
%TD*%
%TO.C,KiKit_MB_7_6*%
X17730667Y-35936000D03*
%TD*%
%TO.C,KiKit_MB_4_4*%
X32064000Y-33000000D03*
%TD*%
%TO.C,KiKit_MB_3_4*%
X75192000Y-33000000D03*
%TD*%
%TO.C,KiKit_MB_10_6*%
X51192000Y-24232334D03*
%TD*%
%TO.C,KiKit_MB_5_7*%
X37564000Y-33000000D03*
%TD*%
%TO.C,KiKit_MB_8_7*%
X51192000Y-6133000D03*
%TD*%
%TO.C,KiKit_MB_2_5*%
X66358667Y-33000000D03*
%TD*%
%TO.C,KiKit_MB_4_8*%
X42564000Y-34574653D03*
%TD*%
D20*
%TO.C,H4*%
X4064000Y-29000000D03*
%TD*%
D11*
%TO.C,KiKit_MB_4_10*%
X42893063Y-35936000D03*
%TD*%
%TO.C,KiKit_MB_3_2*%
X48064000Y-24232334D03*
%TD*%
%TO.C,KiKit_MB_7_5*%
X48128000Y-61264333D03*
%TD*%
%TO.C,KiKit_MB_8_5*%
X76025333Y-35936000D03*
%TD*%
%TO.C,KiKit_MB_9_6*%
X33730666Y-35936000D03*
%TD*%
%TO.C,KiKit_MB_1_5*%
X58358667Y-33000000D03*
%TD*%
%TO.C,KiKit_MB_10_5*%
X51192000Y-25065667D03*
%TD*%
D20*
%TO.C,H2*%
X95192000Y-4000000D03*
%TD*%
D11*
%TO.C,KiKit_MB_4_3*%
X32897333Y-33000000D03*
%TD*%
%TO.C,KiKit_MB_7_2*%
X65525334Y-35936000D03*
%TD*%
D19*
%TO.C,.H4*%
X95192000Y-65000000D03*
%TD*%
D11*
%TO.C,KiKit_MB_7_1*%
X64692000Y-35936000D03*
%TD*%
%TO.C,KiKit_MB_1_4*%
X8064000Y-33000000D03*
%TD*%
%TO.C,KiKit_MB_1_1*%
X48064000Y-6133000D03*
%TD*%
D21*
%TO.C,JPROG1*%
X10668000Y-2349000D03*
D22*
X10668000Y-4889000D03*
X10668000Y-7429000D03*
%TD*%
D11*
%TO.C,KiKit_MB_2_7*%
X64692000Y-33000000D03*
%TD*%
%TO.C,KiKit_MB_7_2*%
X14397334Y-35936000D03*
%TD*%
%TO.C,KiKit_MB_5_3*%
X92025333Y-33000000D03*
%TD*%
%TO.C,KiKit_MB_8_1*%
X21564000Y-35936000D03*
%TD*%
%TO.C,KiKit_MB_6_7*%
X48128000Y-54298000D03*
%TD*%
%TO.C,KiKit_MB_3_1*%
X48064000Y-23399000D03*
%TD*%
%TO.C,KiKit_MB_1_7*%
X5564000Y-33000000D03*
%TD*%
%TO.C,KiKit_MB_13_1*%
X51128000Y-54298000D03*
%TD*%
%TO.C,KiKit_MB_10_4*%
X51192000Y-25899000D03*
%TD*%
%TO.C,KiKit_MB_1_7*%
X48064000Y-11133000D03*
%TD*%
%TO.C,KiKit_MB_4_4*%
X44369801Y-32987007D03*
%TD*%
%TO.C,KiKit_MB_2_6*%
X65525334Y-33000000D03*
%TD*%
D19*
%TO.C,.H1*%
X55192000Y-40000000D03*
%TD*%
D11*
%TO.C,KiKit_MB_8_2*%
X22397334Y-35936000D03*
%TD*%
%TO.C,KiKit_MB_10_2*%
X89525333Y-35936000D03*
%TD*%
%TO.C,KiKit_MB_7_2*%
X48128000Y-58764333D03*
%TD*%
D16*
%TO.C,J2*%
X65192000Y-24500000D03*
D17*
X65192000Y-30500000D03*
D18*
X69892000Y-27500000D03*
%TD*%
D11*
%TO.C,KiKit_MB_6_4*%
X59192000Y-35936000D03*
%TD*%
%TO.C,KiKit_MB_9_1*%
X80692000Y-35936000D03*
%TD*%
%TO.C,KiKit_MB_7_5*%
X16897334Y-35936000D03*
%TD*%
%TO.C,KiKit_MB_6_3*%
X58358667Y-35936000D03*
%TD*%
%TO.C,KiKit_MB_12_1*%
X51128000Y-45665000D03*
%TD*%
%TO.C,KiKit_MB_4_5*%
X31230666Y-33000000D03*
%TD*%
%TO.C,KiKit_MB_14_1*%
X51128000Y-62931000D03*
%TD*%
%TO.C,KiKit_MB_9_1*%
X29564000Y-35936000D03*
%TD*%
%TO.C,KiKit_MB_3_3*%
X76025333Y-33000000D03*
%TD*%
%TO.C,KiKit_MB_7_4*%
X48128000Y-60431000D03*
%TD*%
%TO.C,KiKit_MB_4_15*%
X46839121Y-37032000D03*
%TD*%
%TO.C,KiKit_MB_8_7*%
X26564000Y-35936000D03*
%TD*%
%TO.C,KiKit_MB_7_4*%
X16064000Y-35936000D03*
%TD*%
%TO.C,KiKit_MB_11_9*%
X56692000Y-33729449D03*
%TD*%
%TO.C,KiKit_MB_2_2*%
X68858667Y-33000000D03*
%TD*%
%TO.C,KiKit_MB_9_7*%
X34564000Y-35936000D03*
%TD*%
%TO.C,KiKit_MB_4_4*%
X83192000Y-33000000D03*
%TD*%
%TO.C,KiKit_MB_14_7*%
X51128000Y-57931000D03*
%TD*%
%TO.C,KiKit_MB_6_5*%
X8897334Y-35936000D03*
%TD*%
%TO.C,KiKit_MB_4_12*%
X44581950Y-35970452D03*
%TD*%
%TO.C,KiKit_MB_4_7*%
X42564000Y-33729449D03*
%TD*%
%TO.C,KiKit_MB_2_6*%
X48064000Y-18932667D03*
%TD*%
%TO.C,KiKit_MB_5_4*%
X48128000Y-43165000D03*
%TD*%
%TO.C,KiKit_MB_7_1*%
X13564000Y-35936000D03*
%TD*%
%TO.C,KiKit_MB_4_3*%
X45199345Y-32834328D03*
%TD*%
%TO.C,KiKit_MB_7_1*%
X48128000Y-57931000D03*
%TD*%
%TO.C,KiKit_MB_4_1*%
X85692000Y-33000000D03*
%TD*%
%TO.C,KiKit_MB_2_7*%
X13564000Y-33000000D03*
%TD*%
%TO.C,KiKit_MB_9_2*%
X51192000Y-18932667D03*
%TD*%
%TO.C,KiKit_MB_1_7*%
X56692000Y-33000000D03*
%TD*%
%TO.C,KiKit_MB_11_15*%
X52583154Y-32032000D03*
%TD*%
%TO.C,KiKit_MB_9_6*%
X84858666Y-35936000D03*
%TD*%
%TO.C,KiKit_MB_3_6*%
X48064000Y-27565667D03*
%TD*%
%TO.C,KiKit_MB_12_6*%
X51128000Y-41498333D03*
%TD*%
%TO.C,KiKit_MB_1_3*%
X48064000Y-7799667D03*
%TD*%
%TO.C,KiKit_MB_10_1*%
X51192000Y-28399000D03*
%TD*%
%TO.C,KiKit_MB_5_4*%
X40064000Y-33000000D03*
%TD*%
%TO.C,KiKit_MB_6_5*%
X48128000Y-52631333D03*
%TD*%
%TO.C,KiKit_MB_3_7*%
X21564000Y-33000000D03*
%TD*%
%TO.C,KiKit_MB_6_6*%
X48128000Y-53464666D03*
%TD*%
%TO.C,KiKit_MB_3_4*%
X24064000Y-33000000D03*
%TD*%
%TO.C,KiKit_MB_10_4*%
X91192000Y-35936000D03*
%TD*%
%TO.C,KiKit_MB_9_4*%
X51192000Y-17266000D03*
%TD*%
D16*
%TO.C,.J2*%
X14064000Y-60500000D03*
D17*
X14064000Y-66500000D03*
D18*
X18764000Y-63500000D03*
%TD*%
D11*
%TO.C,KiKit_MB_7_4*%
X67192000Y-35936000D03*
%TD*%
%TO.C,KiKit_MB_4_3*%
X84025333Y-33000000D03*
%TD*%
%TO.C,KiKit_MB_10_7*%
X51192000Y-23399000D03*
%TD*%
%TO.C,KiKit_MB_8_5*%
X51192000Y-7799667D03*
%TD*%
%TO.C,KiKit_MB_8_6*%
X51192000Y-6966334D03*
%TD*%
%TO.C,KiKit_MB_6_7*%
X61692000Y-35936000D03*
%TD*%
%TO.C,KiKit_MB_6_7*%
X10564000Y-35936000D03*
%TD*%
%TO.C,KiKit_MB_6_2*%
X48128000Y-50131333D03*
%TD*%
%TO.C,KiKit_MB_2_5*%
X48064000Y-18099334D03*
%TD*%
%TO.C,KiKit_MB_3_2*%
X76858666Y-33000000D03*
%TD*%
%TO.C,KiKit_MB_8_1*%
X72692000Y-35936000D03*
%TD*%
%TO.C,KiKit_MB_5_2*%
X48128000Y-41498333D03*
%TD*%
D16*
%TO.C,.J2*%
X65192000Y-60500000D03*
D17*
X65192000Y-66500000D03*
D18*
X69892000Y-63500000D03*
%TD*%
D11*
%TO.C,KiKit_MB_9_4*%
X32064000Y-35936000D03*
%TD*%
%TO.C,KiKit_MB_9_3*%
X31230666Y-35936000D03*
%TD*%
%TO.C,KiKit_MB_8_4*%
X24064000Y-35936000D03*
%TD*%
%TO.C,KiKit_MB_4_9*%
X42564000Y-35419858D03*
%TD*%
%TO.C,KiKit_MB_3_7*%
X72692000Y-33000000D03*
%TD*%
%TO.C,KiKit_MB_1_2*%
X9730667Y-33000000D03*
%TD*%
%TO.C,KiKit_MB_3_1*%
X26564000Y-33000000D03*
%TD*%
%TO.C,KiKit_MB_4_7*%
X29564000Y-33000000D03*
%TD*%
%TO.C,KiKit_MB_3_4*%
X48064000Y-25899000D03*
%TD*%
%TO.C,KiKit_MB_10_4*%
X40064000Y-35936000D03*
%TD*%
%TO.C,KiKit_MB_1_6*%
X48064000Y-10299667D03*
%TD*%
%TO.C,KiKit_MB_6_4*%
X48128000Y-51798000D03*
%TD*%
%TO.C,KiKit_MB_8_7*%
X77692000Y-35936000D03*
%TD*%
%TO.C,KiKit_MB_6_6*%
X9730667Y-35936000D03*
%TD*%
%TO.C,KiKit_MB_5_6*%
X48128000Y-44831666D03*
%TD*%
%TO.C,KiKit_MB_8_2*%
X73525334Y-35936000D03*
%TD*%
D21*
%TO.C,JPROG1*%
X61796000Y-2349000D03*
D22*
X61796000Y-4889000D03*
X61796000Y-7429000D03*
%TD*%
D11*
%TO.C,KiKit_MB_1_5*%
X7230667Y-33000000D03*
%TD*%
D23*
%TO.C,.R1*%
X62492000Y-44750000D03*
D24*
X87892000Y-44750000D03*
%TD*%
D11*
%TO.C,KiKit_MB_2_5*%
X15230667Y-33000000D03*
%TD*%
%TO.C,KiKit_MB_6_3*%
X7230667Y-35936000D03*
%TD*%
%TO.C,KiKit_MB_9_5*%
X51192000Y-16432667D03*
%TD*%
D20*
%TO.C,H4*%
X55192000Y-29000000D03*
%TD*%
D11*
%TO.C,KiKit_MB_5_7*%
X88692000Y-33000000D03*
%TD*%
%TO.C,KiKit_MB_11_3*%
X53853082Y-36164183D03*
%TD*%
D14*
%TO.C,J1*%
X34064000Y-27500000D03*
D15*
X38024000Y-27500000D03*
%TD*%
D11*
%TO.C,KiKit_MB_9_1*%
X51192000Y-19766000D03*
%TD*%
%TO.C,KiKit_MB_2_3*%
X48064000Y-16432667D03*
%TD*%
%TO.C,KiKit_MB_5_1*%
X48128000Y-40665000D03*
%TD*%
%TO.C,KiKit_MB_11_14*%
X53277419Y-32511295D03*
%TD*%
%TO.C,KiKit_MB_6_6*%
X60858667Y-35936000D03*
%TD*%
D12*
%TO.C,.D2*%
X75192000Y-51250000D03*
D13*
X75192000Y-53790000D03*
%TD*%
D11*
%TO.C,KiKit_MB_5_7*%
X48128000Y-45665000D03*
%TD*%
%TO.C,KiKit_MB_10_1*%
X37564000Y-35936000D03*
%TD*%
%TO.C,KiKit_MB_1_6*%
X57525334Y-33000000D03*
%TD*%
%TO.C,KiKit_MB_7_7*%
X18564000Y-35936000D03*
%TD*%
%TO.C,KiKit_MB_10_6*%
X92858666Y-35936000D03*
%TD*%
%TO.C,KiKit_MB_4_11*%
X43738268Y-35936000D03*
%TD*%
%TO.C,KiKit_MB_4_6*%
X42679755Y-33000000D03*
%TD*%
%TO.C,KiKit_MB_9_7*%
X85692000Y-35936000D03*
%TD*%
%TO.C,KiKit_MB_3_1*%
X77692000Y-33000000D03*
%TD*%
%TO.C,KiKit_MB_12_5*%
X51128000Y-42331666D03*
%TD*%
%TO.C,KiKit_MB_8_3*%
X51192000Y-9466334D03*
%TD*%
%TO.C,KiKit_MB_6_2*%
X6397334Y-35936000D03*
%TD*%
%TO.C,KiKit_MB_10_7*%
X93692000Y-35936000D03*
%TD*%
%TO.C,KiKit_MB_14_3*%
X51128000Y-61264333D03*
%TD*%
%TO.C,KiKit_MB_8_1*%
X51192000Y-11133000D03*
%TD*%
%TO.C,KiKit_MB_10_2*%
X38397333Y-35936000D03*
%TD*%
%TO.C,KiKit_MB_4_1*%
X34564000Y-33000000D03*
%TD*%
%TO.C,KiKit_MB_11_11*%
X55731038Y-33000000D03*
%TD*%
D21*
%TO.C,JSPK1*%
X95792000Y-17724000D03*
D22*
X95792000Y-15184000D03*
%TD*%
D11*
%TO.C,KiKit_MB_6_2*%
X57525334Y-35936000D03*
%TD*%
%TO.C,KiKit_MB_4_5*%
X82358666Y-33000000D03*
%TD*%
%TO.C,KiKit_MB_14_4*%
X51128000Y-60431000D03*
%TD*%
%TO.C,KiKit_MB_6_4*%
X8064000Y-35936000D03*
%TD*%
%TO.C,KiKit_MB_2_6*%
X14397334Y-33000000D03*
%TD*%
%TO.C,KiKit_MB_8_5*%
X24897333Y-35936000D03*
%TD*%
%TO.C,KiKit_MB_11_10*%
X56576243Y-33000000D03*
%TD*%
%TO.C,KiKit_MB_4_1*%
X46672844Y-32032000D03*
%TD*%
%TO.C,KiKit_MB_8_3*%
X74358667Y-35936000D03*
%TD*%
%TO.C,KiKit_MB_1_2*%
X60858667Y-33000000D03*
%TD*%
%TO.C,KiKit_MB_10_7*%
X42564000Y-35936000D03*
%TD*%
%TO.C,KiKit_MB_2_1*%
X69692000Y-33000000D03*
%TD*%
D23*
%TO.C,.R1*%
X11364000Y-44750000D03*
D24*
X36764000Y-44750000D03*
%TD*%
D11*
%TO.C,KiKit_MB_8_4*%
X51192000Y-8633000D03*
%TD*%
%TO.C,KiKit_MB_9_2*%
X81525333Y-35936000D03*
%TD*%
D19*
%TO.C,.H2*%
X95192000Y-40000000D03*
%TD*%
D21*
%TO.C,JSPK1*%
X44664000Y-17724000D03*
D22*
X44664000Y-15184000D03*
%TD*%
D19*
%TO.C,.H1*%
X4064000Y-40000000D03*
%TD*%
%TO.C,.H4*%
X44064000Y-65000000D03*
%TD*%
D20*
%TO.C,H2*%
X44064000Y-4000000D03*
%TD*%
D11*
%TO.C,KiKit_MB_5_6*%
X89525333Y-33000000D03*
%TD*%
%TO.C,KiKit_MB_5_2*%
X41730666Y-33000000D03*
%TD*%
%TO.C,KiKit_MB_13_4*%
X51128000Y-51798000D03*
%TD*%
%TO.C,KiKit_MB_1_5*%
X48064000Y-9466334D03*
%TD*%
%TO.C,KiKit_MB_3_2*%
X25730666Y-33000000D03*
%TD*%
%TO.C,KiKit_MB_7_5*%
X68025334Y-35936000D03*
%TD*%
%TO.C,KiKit_MB_10_6*%
X41730666Y-35936000D03*
%TD*%
%TO.C,KiKit_MB_9_6*%
X51192000Y-15599334D03*
%TD*%
D14*
%TO.C,J1*%
X85192000Y-27500000D03*
D15*
X89152000Y-27500000D03*
%TD*%
D11*
%TO.C,KiKit_MB_7_7*%
X69692000Y-35936000D03*
%TD*%
%TO.C,KiKit_MB_1_1*%
X61692000Y-33000000D03*
%TD*%
%TO.C,KiKit_MB_4_13*%
X45402916Y-36164183D03*
%TD*%
%TO.C,KiKit_MB_5_5*%
X48128000Y-43998333D03*
%TD*%
%TO.C,KiKit_MB_1_1*%
X10564000Y-33000000D03*
%TD*%
D20*
%TO.C,H1*%
X4064000Y-4000000D03*
%TD*%
D11*
%TO.C,KiKit_MB_4_14*%
X46166256Y-36523175D03*
%TD*%
%TO.C,KiKit_MB_9_5*%
X84025333Y-35936000D03*
%TD*%
%TO.C,KiKit_MB_3_5*%
X48064000Y-26732334D03*
%TD*%
%TO.C,KiKit_MB_1_6*%
X6397334Y-33000000D03*
%TD*%
%TO.C,KiKit_MB_5_2*%
X92858666Y-33000000D03*
%TD*%
%TO.C,KiKit_MB_10_3*%
X39230666Y-35936000D03*
%TD*%
%TO.C,KiKit_MB_4_2*%
X45978579Y-32511295D03*
%TD*%
%TO.C,KiKit_MB_14_6*%
X51128000Y-58764333D03*
%TD*%
%TO.C,KiKit_MB_12_4*%
X51128000Y-43165000D03*
%TD*%
%TO.C,KiKit_MB_1_4*%
X48064000Y-8633000D03*
%TD*%
%TO.C,KiKit_MB_13_5*%
X51128000Y-50964666D03*
%TD*%
%TO.C,KiKit_MB_11_1*%
X52416877Y-37032000D03*
%TD*%
%TO.C,KiKit_MB_11_8*%
X56692000Y-34574653D03*
%TD*%
%TO.C,KiKit_MB_2_1*%
X48064000Y-14766000D03*
%TD*%
%TO.C,KiKit_MB_7_6*%
X68858667Y-35936000D03*
%TD*%
D19*
%TO.C,.H3*%
X4064000Y-65000000D03*
%TD*%
D11*
%TO.C,KiKit_MB_5_5*%
X39230666Y-33000000D03*
%TD*%
D20*
%TO.C,H1*%
X55192000Y-4000000D03*
%TD*%
%TO.C,H3*%
X95192000Y-29000000D03*
%TD*%
D11*
%TO.C,KiKit_MB_13_3*%
X51128000Y-52631333D03*
%TD*%
%TO.C,KiKit_MB_5_5*%
X90358666Y-33000000D03*
%TD*%
%TO.C,KiKit_MB_12_7*%
X51128000Y-40665000D03*
%TD*%
%TO.C,KiKit_MB_3_6*%
X73525334Y-33000000D03*
%TD*%
%TO.C,KiKit_MB_2_2*%
X17730667Y-33000000D03*
%TD*%
%TO.C,KiKit_MB_5_3*%
X48128000Y-42331666D03*
%TD*%
%TO.C,KiKit_MB_8_6*%
X25730666Y-35936000D03*
%TD*%
%TO.C,KiKit_MB_6_3*%
X48128000Y-50964666D03*
%TD*%
%TO.C,KiKit_MB_13_2*%
X51128000Y-53464666D03*
%TD*%
%TO.C,KiKit_MB_3_5*%
X23230667Y-33000000D03*
%TD*%
D14*
%TO.C,.J1*%
X34064000Y-63500000D03*
D15*
X38024000Y-63500000D03*
%TD*%
D11*
%TO.C,KiKit_MB_3_3*%
X48064000Y-25065667D03*
%TD*%
%TO.C,KiKit_MB_2_4*%
X16064000Y-33000000D03*
%TD*%
%TO.C,KiKit_MB_10_5*%
X40897333Y-35936000D03*
%TD*%
%TO.C,KiKit_MB_12_3*%
X51128000Y-43998333D03*
%TD*%
%TO.C,KiKit_MB_11_4*%
X54674049Y-35970452D03*
%TD*%
%TO.C,KiKit_MB_3_3*%
X24897333Y-33000000D03*
%TD*%
%LPD*%
M02*
