%TF.GenerationSoftware,KiCad,Pcbnew,7.0.10*%
%TF.CreationDate,2024-03-02T22:01:54+01:00*%
%TF.ProjectId,explorer-panel_panelized,6578706c-6f72-4657-922d-70616e656c5f,rev?*%
%TF.SameCoordinates,Original*%
%TF.FileFunction,Soldermask,Top*%
%TF.FilePolarity,Negative*%
%FSLAX46Y46*%
G04 Gerber Fmt 4.6, Leading zero omitted, Abs format (unit mm)*
G04 Created by KiCad (PCBNEW 7.0.10) date 2024-03-02 22:01:54*
%MOMM*%
%LPD*%
G01*
G04 APERTURE LIST*
G04 Aperture macros list*
%AMRoundRect*
0 Rectangle with rounded corners*
0 $1 Rounding radius*
0 $2 $3 $4 $5 $6 $7 $8 $9 X,Y pos of 4 corners*
0 Add a 4 corners polygon primitive as box body*
4,1,4,$2,$3,$4,$5,$6,$7,$8,$9,$2,$3,0*
0 Add four circle primitives for the rounded corners*
1,1,$1+$1,$2,$3*
1,1,$1+$1,$4,$5*
1,1,$1+$1,$6,$7*
1,1,$1+$1,$8,$9*
0 Add four rect primitives between the rounded corners*
20,1,$1+$1,$2,$3,$4,$5,0*
20,1,$1+$1,$4,$5,$6,$7,0*
20,1,$1+$1,$6,$7,$8,$9,0*
20,1,$1+$1,$8,$9,$2,$3,0*%
G04 Aperture macros list end*
%ADD10R,0.650000X1.525000*%
%ADD11C,0.500000*%
%ADD12RoundRect,0.250000X-0.350000X-0.450000X0.350000X-0.450000X0.350000X0.450000X-0.350000X0.450000X0*%
%ADD13R,1.800000X1.800000*%
%ADD14C,1.800000*%
%ADD15RoundRect,0.250001X-0.949999X-0.949999X0.949999X-0.949999X0.949999X0.949999X-0.949999X0.949999X0*%
%ADD16C,2.400000*%
%ADD17RoundRect,0.250000X0.475000X-0.337500X0.475000X0.337500X-0.475000X0.337500X-0.475000X-0.337500X0*%
%ADD18RoundRect,0.250000X-1.950000X-1.000000X1.950000X-1.000000X1.950000X1.000000X-1.950000X1.000000X0*%
%ADD19R,3.500000X3.500000*%
%ADD20RoundRect,0.750000X1.000000X-0.750000X1.000000X0.750000X-1.000000X0.750000X-1.000000X-0.750000X0*%
%ADD21RoundRect,0.875000X0.875000X-0.875000X0.875000X0.875000X-0.875000X0.875000X-0.875000X-0.875000X0*%
%ADD22C,3.000000*%
%ADD23RoundRect,0.250000X0.337500X0.475000X-0.337500X0.475000X-0.337500X-0.475000X0.337500X-0.475000X0*%
%ADD24RoundRect,0.250000X0.450000X-0.350000X0.450000X0.350000X-0.450000X0.350000X-0.450000X-0.350000X0*%
%ADD25R,1.300000X2.000000*%
%ADD26R,2.000000X2.000000*%
%ADD27C,3.200000*%
%ADD28RoundRect,0.250000X-0.450000X0.350000X-0.450000X-0.350000X0.450000X-0.350000X0.450000X0.350000X0*%
%ADD29R,1.700000X1.700000*%
%ADD30O,1.700000X1.700000*%
%ADD31RoundRect,0.112500X0.187500X0.112500X-0.187500X0.112500X-0.187500X-0.112500X0.187500X-0.112500X0*%
%ADD32C,1.600000*%
%ADD33O,1.600000X1.600000*%
%ADD34RoundRect,0.249999X-0.512501X-1.075001X0.512501X-1.075001X0.512501X1.075001X-0.512501X1.075001X0*%
G04 APERTURE END LIST*
D10*
%TO.C,IC1*%
X59582000Y-18400000D03*
X60852000Y-18400000D03*
X62122000Y-18400000D03*
X63392000Y-18400000D03*
X63392000Y-12976000D03*
X62122000Y-12976000D03*
X60852000Y-12976000D03*
X59582000Y-12976000D03*
%TD*%
D11*
%TO.C,KiKit_MB_11_7*%
X56692000Y-35419858D03*
%TD*%
%TO.C,KiKit_MB_7_3*%
X15230667Y-35936000D03*
%TD*%
%TO.C,KiKit_MB_14_2*%
X51128000Y-62097666D03*
%TD*%
%TO.C,KiKit_MB_6_1*%
X56692000Y-35936000D03*
%TD*%
%TO.C,KiKit_MB_6_1*%
X48128000Y-49298000D03*
%TD*%
%TO.C,KiKit_MB_4_6*%
X30397333Y-33000000D03*
%TD*%
%TO.C,KiKit_MB_2_4*%
X67192000Y-33000000D03*
%TD*%
%TO.C,KiKit_MB_12_2*%
X51128000Y-44831666D03*
%TD*%
%TO.C,KiKit_MB_10_5*%
X92025333Y-35936000D03*
%TD*%
%TO.C,KiKit_MB_9_3*%
X51192000Y-18099334D03*
%TD*%
%TO.C,KiKit_MB_11_6*%
X56362936Y-35936000D03*
%TD*%
%TO.C,KiKit_MB_8_3*%
X23230667Y-35936000D03*
%TD*%
D12*
%TO.C,R4*%
X60780000Y-10477000D03*
X62780000Y-10477000D03*
%TD*%
D11*
%TO.C,KiKit_MB_10_1*%
X88692000Y-35936000D03*
%TD*%
%TO.C,KiKit_MB_13_6*%
X51128000Y-50131333D03*
%TD*%
%TO.C,KiKit_MB_3_7*%
X48064000Y-28399000D03*
%TD*%
%TO.C,KiKit_MB_3_6*%
X22397334Y-33000000D03*
%TD*%
%TO.C,KiKit_MB_1_3*%
X8897334Y-33000000D03*
%TD*%
%TO.C,KiKit_MB_5_6*%
X38397333Y-33000000D03*
%TD*%
D13*
%TO.C,.D2*%
X24064000Y-51250000D03*
D14*
X24064000Y-53790000D03*
%TD*%
D11*
%TO.C,KiKit_MB_4_2*%
X33730666Y-33000000D03*
%TD*%
%TO.C,KiKit_MB_8_2*%
X51192000Y-10299667D03*
%TD*%
%TO.C,KiKit_MB_2_1*%
X18564000Y-33000000D03*
%TD*%
%TO.C,KiKit_MB_2_4*%
X48064000Y-17266000D03*
%TD*%
%TO.C,KiKit_MB_11_5*%
X55517731Y-35936000D03*
%TD*%
%TO.C,KiKit_MB_2_3*%
X68025334Y-33000000D03*
%TD*%
D15*
%TO.C,.J1*%
X85192000Y-63500000D03*
D16*
X89152000Y-63500000D03*
%TD*%
D17*
%TO.C,C2*%
X18464000Y-14675000D03*
X18464000Y-12600000D03*
%TD*%
D11*
%TO.C,KiKit_MB_2_3*%
X16897334Y-33000000D03*
%TD*%
%TO.C,KiKit_MB_6_5*%
X60025334Y-35936000D03*
%TD*%
%TO.C,KiKit_MB_10_3*%
X51192000Y-26732334D03*
%TD*%
%TO.C,KiKit_MB_1_4*%
X59192000Y-33000000D03*
%TD*%
%TO.C,KiKit_MB_9_2*%
X30397333Y-35936000D03*
%TD*%
%TO.C,KiKit_MB_4_2*%
X84858666Y-33000000D03*
%TD*%
D18*
%TO.C,C4*%
X15968000Y-5524000D03*
X23368000Y-5524000D03*
%TD*%
D11*
%TO.C,KiKit_MB_14_5*%
X51128000Y-59597666D03*
%TD*%
D19*
%TO.C,J2*%
X14064000Y-24500000D03*
D20*
X14064000Y-30500000D03*
D21*
X18764000Y-27500000D03*
%TD*%
D22*
%TO.C,.H3*%
X55192000Y-65000000D03*
%TD*%
D11*
%TO.C,KiKit_MB_7_3*%
X66358667Y-35936000D03*
%TD*%
%TO.C,KiKit_MB_5_1*%
X93692000Y-33000000D03*
%TD*%
%TO.C,KiKit_MB_9_5*%
X32897333Y-35936000D03*
%TD*%
%TO.C,KiKit_MB_9_3*%
X82358666Y-35936000D03*
%TD*%
%TO.C,KiKit_MB_5_4*%
X91192000Y-33000000D03*
%TD*%
D23*
%TO.C,C7*%
X55487000Y-12988000D03*
X53412000Y-12988000D03*
%TD*%
D11*
%TO.C,KiKit_MB_8_6*%
X76858666Y-35936000D03*
%TD*%
D24*
%TO.C,R1*%
X15464000Y-19000000D03*
X15464000Y-17000000D03*
%TD*%
D11*
%TO.C,KiKit_MB_1_2*%
X48064000Y-6966334D03*
%TD*%
%TO.C,KiKit_MB_4_5*%
X43524960Y-33000000D03*
%TD*%
%TO.C,KiKit_MB_11_12*%
X54886197Y-32987007D03*
%TD*%
%TO.C,KiKit_MB_1_3*%
X60025334Y-33000000D03*
%TD*%
%TO.C,KiKit_MB_10_3*%
X90358666Y-35936000D03*
%TD*%
%TO.C,KiKit_MB_7_6*%
X48128000Y-62097666D03*
%TD*%
%TO.C,KiKit_MB_9_7*%
X51192000Y-14766000D03*
%TD*%
%TO.C,KiKit_MB_4_7*%
X80692000Y-33000000D03*
%TD*%
D22*
%TO.C,.H2*%
X44064000Y-40000000D03*
%TD*%
D11*
%TO.C,KiKit_MB_8_4*%
X75192000Y-35936000D03*
%TD*%
%TO.C,KiKit_MB_9_4*%
X83192000Y-35936000D03*
%TD*%
D25*
%TO.C,RV1*%
X25243000Y-13688000D03*
D26*
X26393000Y-17688000D03*
D25*
X27543000Y-13688000D03*
%TD*%
D11*
%TO.C,KiKit_MB_2_7*%
X48064000Y-19766000D03*
%TD*%
%TO.C,KiKit_MB_5_1*%
X42564000Y-33000000D03*
%TD*%
%TO.C,KiKit_MB_11_2*%
X53089742Y-36523175D03*
%TD*%
%TO.C,KiKit_MB_11_13*%
X54056653Y-32834328D03*
%TD*%
D27*
%TO.C,H3*%
X44064000Y-29000000D03*
%TD*%
D11*
%TO.C,KiKit_MB_5_3*%
X40897333Y-33000000D03*
%TD*%
%TO.C,KiKit_MB_10_2*%
X51192000Y-27565667D03*
%TD*%
%TO.C,KiKit_MB_6_1*%
X5564000Y-35936000D03*
%TD*%
%TO.C,KiKit_MB_3_5*%
X74358667Y-33000000D03*
%TD*%
%TO.C,KiKit_MB_7_7*%
X48128000Y-62931000D03*
%TD*%
%TO.C,KiKit_MB_13_7*%
X51128000Y-49298000D03*
%TD*%
D17*
%TO.C,C10*%
X40064000Y-14500000D03*
X40064000Y-12425000D03*
%TD*%
D11*
%TO.C,KiKit_MB_2_2*%
X48064000Y-15599334D03*
%TD*%
%TO.C,KiKit_MB_7_3*%
X48128000Y-59597666D03*
%TD*%
%TO.C,KiKit_MB_4_6*%
X81525333Y-33000000D03*
%TD*%
%TO.C,KiKit_MB_7_6*%
X17730667Y-35936000D03*
%TD*%
%TO.C,KiKit_MB_4_4*%
X32064000Y-33000000D03*
%TD*%
%TO.C,KiKit_MB_3_4*%
X75192000Y-33000000D03*
%TD*%
%TO.C,KiKit_MB_10_6*%
X51192000Y-24232334D03*
%TD*%
%TO.C,KiKit_MB_5_7*%
X37564000Y-33000000D03*
%TD*%
D28*
%TO.C,.R2*%
X17064000Y-51500000D03*
X17064000Y-53500000D03*
%TD*%
D11*
%TO.C,KiKit_MB_8_7*%
X51192000Y-6133000D03*
%TD*%
%TO.C,KiKit_MB_2_5*%
X66358667Y-33000000D03*
%TD*%
%TO.C,KiKit_MB_4_8*%
X42564000Y-34574653D03*
%TD*%
D27*
%TO.C,H4*%
X4064000Y-29000000D03*
%TD*%
D11*
%TO.C,KiKit_MB_4_10*%
X42893063Y-35936000D03*
%TD*%
%TO.C,KiKit_MB_3_2*%
X48064000Y-24232334D03*
%TD*%
%TO.C,KiKit_MB_7_5*%
X48128000Y-61264333D03*
%TD*%
%TO.C,KiKit_MB_8_5*%
X76025333Y-35936000D03*
%TD*%
%TO.C,KiKit_MB_9_6*%
X33730666Y-35936000D03*
%TD*%
%TO.C,KiKit_MB_1_5*%
X58358667Y-33000000D03*
%TD*%
%TO.C,KiKit_MB_10_5*%
X51192000Y-25065667D03*
%TD*%
D27*
%TO.C,H2*%
X95192000Y-4000000D03*
%TD*%
D11*
%TO.C,KiKit_MB_4_3*%
X32897333Y-33000000D03*
%TD*%
%TO.C,KiKit_MB_7_2*%
X65525334Y-35936000D03*
%TD*%
D22*
%TO.C,.H4*%
X95192000Y-65000000D03*
%TD*%
D11*
%TO.C,KiKit_MB_7_1*%
X64692000Y-35936000D03*
%TD*%
%TO.C,KiKit_MB_1_4*%
X8064000Y-33000000D03*
%TD*%
%TO.C,KiKit_MB_1_1*%
X48064000Y-6133000D03*
%TD*%
D29*
%TO.C,JPROG1*%
X10668000Y-2349000D03*
D30*
X10668000Y-4889000D03*
X10668000Y-7429000D03*
%TD*%
D11*
%TO.C,KiKit_MB_2_7*%
X64692000Y-33000000D03*
%TD*%
%TO.C,KiKit_MB_7_2*%
X14397334Y-35936000D03*
%TD*%
%TO.C,KiKit_MB_5_3*%
X92025333Y-33000000D03*
%TD*%
%TO.C,KiKit_MB_8_1*%
X21564000Y-35936000D03*
%TD*%
%TO.C,KiKit_MB_6_7*%
X48128000Y-54298000D03*
%TD*%
%TO.C,KiKit_MB_3_1*%
X48064000Y-23399000D03*
%TD*%
%TO.C,KiKit_MB_1_7*%
X5564000Y-33000000D03*
%TD*%
%TO.C,KiKit_MB_13_1*%
X51128000Y-54298000D03*
%TD*%
%TO.C,KiKit_MB_10_4*%
X51192000Y-25899000D03*
%TD*%
%TO.C,KiKit_MB_1_7*%
X48064000Y-11133000D03*
%TD*%
%TO.C,KiKit_MB_4_4*%
X44369801Y-32987007D03*
%TD*%
%TO.C,KiKit_MB_2_6*%
X65525334Y-33000000D03*
%TD*%
D31*
%TO.C,D1*%
X25114000Y-24000000D03*
X23014000Y-24000000D03*
%TD*%
D22*
%TO.C,.H1*%
X55192000Y-40000000D03*
%TD*%
D11*
%TO.C,KiKit_MB_8_2*%
X22397334Y-35936000D03*
%TD*%
%TO.C,KiKit_MB_10_2*%
X89525333Y-35936000D03*
%TD*%
%TO.C,KiKit_MB_7_2*%
X48128000Y-58764333D03*
%TD*%
D19*
%TO.C,J2*%
X65192000Y-24500000D03*
D20*
X65192000Y-30500000D03*
D21*
X69892000Y-27500000D03*
%TD*%
D11*
%TO.C,KiKit_MB_6_4*%
X59192000Y-35936000D03*
%TD*%
D10*
%TO.C,IC2*%
X32888000Y-18400000D03*
X34158000Y-18400000D03*
X35428000Y-18400000D03*
X36698000Y-18400000D03*
X36698000Y-12976000D03*
X35428000Y-12976000D03*
X34158000Y-12976000D03*
X32888000Y-12976000D03*
%TD*%
D24*
%TO.C,R2*%
X18464000Y-19000000D03*
X18464000Y-17000000D03*
%TD*%
D11*
%TO.C,KiKit_MB_9_1*%
X80692000Y-35936000D03*
%TD*%
%TO.C,KiKit_MB_7_5*%
X16897334Y-35936000D03*
%TD*%
%TO.C,KiKit_MB_6_3*%
X58358667Y-35936000D03*
%TD*%
%TO.C,KiKit_MB_12_1*%
X51128000Y-45665000D03*
%TD*%
%TO.C,KiKit_MB_4_5*%
X31230666Y-33000000D03*
%TD*%
D23*
%TO.C,C7*%
X4359000Y-12988000D03*
X2284000Y-12988000D03*
%TD*%
D11*
%TO.C,KiKit_MB_14_1*%
X51128000Y-62931000D03*
%TD*%
%TO.C,KiKit_MB_9_1*%
X29564000Y-35936000D03*
%TD*%
%TO.C,KiKit_MB_3_3*%
X76025333Y-33000000D03*
%TD*%
%TO.C,KiKit_MB_7_4*%
X48128000Y-60431000D03*
%TD*%
D17*
%TO.C,C5*%
X72667000Y-14675000D03*
X72667000Y-12600000D03*
%TD*%
D11*
%TO.C,KiKit_MB_4_15*%
X46839121Y-37032000D03*
%TD*%
%TO.C,KiKit_MB_8_7*%
X26564000Y-35936000D03*
%TD*%
%TO.C,KiKit_MB_7_4*%
X16064000Y-35936000D03*
%TD*%
%TO.C,KiKit_MB_11_9*%
X56692000Y-33729449D03*
%TD*%
D23*
%TO.C,C8*%
X55487000Y-15788000D03*
X53412000Y-15788000D03*
%TD*%
D17*
%TO.C,C3*%
X30464000Y-16725000D03*
X30464000Y-14650000D03*
%TD*%
D11*
%TO.C,KiKit_MB_2_2*%
X68858667Y-33000000D03*
%TD*%
%TO.C,KiKit_MB_9_7*%
X34564000Y-35936000D03*
%TD*%
%TO.C,KiKit_MB_4_4*%
X83192000Y-33000000D03*
%TD*%
%TO.C,KiKit_MB_14_7*%
X51128000Y-57931000D03*
%TD*%
%TO.C,KiKit_MB_6_5*%
X8897334Y-35936000D03*
%TD*%
D25*
%TO.C,RV1*%
X76371000Y-13688000D03*
D26*
X77521000Y-17688000D03*
D25*
X78671000Y-13688000D03*
%TD*%
D11*
%TO.C,KiKit_MB_4_12*%
X44581950Y-35970452D03*
%TD*%
%TO.C,KiKit_MB_4_7*%
X42564000Y-33729449D03*
%TD*%
%TO.C,KiKit_MB_2_6*%
X48064000Y-18932667D03*
%TD*%
%TO.C,KiKit_MB_5_4*%
X48128000Y-43165000D03*
%TD*%
%TO.C,KiKit_MB_7_1*%
X13564000Y-35936000D03*
%TD*%
%TO.C,KiKit_MB_4_3*%
X45199345Y-32834328D03*
%TD*%
%TO.C,KiKit_MB_7_1*%
X48128000Y-57931000D03*
%TD*%
%TO.C,KiKit_MB_4_1*%
X85692000Y-33000000D03*
%TD*%
%TO.C,KiKit_MB_2_7*%
X13564000Y-33000000D03*
%TD*%
%TO.C,KiKit_MB_9_2*%
X51192000Y-18932667D03*
%TD*%
%TO.C,KiKit_MB_1_7*%
X56692000Y-33000000D03*
%TD*%
%TO.C,KiKit_MB_11_15*%
X52583154Y-32032000D03*
%TD*%
%TO.C,KiKit_MB_9_6*%
X84858666Y-35936000D03*
%TD*%
%TO.C,KiKit_MB_3_6*%
X48064000Y-27565667D03*
%TD*%
%TO.C,KiKit_MB_12_6*%
X51128000Y-41498333D03*
%TD*%
%TO.C,KiKit_MB_1_3*%
X48064000Y-7799667D03*
%TD*%
%TO.C,KiKit_MB_10_1*%
X51192000Y-28399000D03*
%TD*%
%TO.C,KiKit_MB_5_4*%
X40064000Y-33000000D03*
%TD*%
%TO.C,KiKit_MB_6_5*%
X48128000Y-52631333D03*
%TD*%
%TO.C,KiKit_MB_3_7*%
X21564000Y-33000000D03*
%TD*%
%TO.C,KiKit_MB_6_6*%
X48128000Y-53464666D03*
%TD*%
%TO.C,KiKit_MB_3_4*%
X24064000Y-33000000D03*
%TD*%
%TO.C,KiKit_MB_10_4*%
X91192000Y-35936000D03*
%TD*%
%TO.C,KiKit_MB_9_4*%
X51192000Y-17266000D03*
%TD*%
D19*
%TO.C,.J2*%
X14064000Y-60500000D03*
D20*
X14064000Y-66500000D03*
D21*
X18764000Y-63500000D03*
%TD*%
D11*
%TO.C,KiKit_MB_7_4*%
X67192000Y-35936000D03*
%TD*%
%TO.C,KiKit_MB_4_3*%
X84025333Y-33000000D03*
%TD*%
%TO.C,KiKit_MB_10_7*%
X51192000Y-23399000D03*
%TD*%
%TO.C,KiKit_MB_8_5*%
X51192000Y-7799667D03*
%TD*%
%TO.C,KiKit_MB_8_6*%
X51192000Y-6966334D03*
%TD*%
%TO.C,KiKit_MB_6_7*%
X61692000Y-35936000D03*
%TD*%
%TO.C,KiKit_MB_6_7*%
X10564000Y-35936000D03*
%TD*%
%TO.C,KiKit_MB_6_2*%
X48128000Y-50131333D03*
%TD*%
%TO.C,KiKit_MB_2_5*%
X48064000Y-18099334D03*
%TD*%
D10*
%TO.C,IC1*%
X8454000Y-18400000D03*
X9724000Y-18400000D03*
X10994000Y-18400000D03*
X12264000Y-18400000D03*
X12264000Y-12976000D03*
X10994000Y-12976000D03*
X9724000Y-12976000D03*
X8454000Y-12976000D03*
%TD*%
D11*
%TO.C,KiKit_MB_3_2*%
X76858666Y-33000000D03*
%TD*%
%TO.C,KiKit_MB_8_1*%
X72692000Y-35936000D03*
%TD*%
%TO.C,KiKit_MB_5_2*%
X48128000Y-41498333D03*
%TD*%
D19*
%TO.C,.J2*%
X65192000Y-60500000D03*
D20*
X65192000Y-66500000D03*
D21*
X69892000Y-63500000D03*
%TD*%
D11*
%TO.C,KiKit_MB_9_4*%
X32064000Y-35936000D03*
%TD*%
%TO.C,KiKit_MB_9_3*%
X31230666Y-35936000D03*
%TD*%
%TO.C,KiKit_MB_8_4*%
X24064000Y-35936000D03*
%TD*%
%TO.C,KiKit_MB_4_9*%
X42564000Y-35419858D03*
%TD*%
%TO.C,KiKit_MB_3_7*%
X72692000Y-33000000D03*
%TD*%
%TO.C,KiKit_MB_1_2*%
X9730667Y-33000000D03*
%TD*%
%TO.C,KiKit_MB_3_1*%
X26564000Y-33000000D03*
%TD*%
%TO.C,KiKit_MB_4_7*%
X29564000Y-33000000D03*
%TD*%
%TO.C,KiKit_MB_3_4*%
X48064000Y-25899000D03*
%TD*%
%TO.C,KiKit_MB_10_4*%
X40064000Y-35936000D03*
%TD*%
%TO.C,KiKit_MB_1_6*%
X48064000Y-10299667D03*
%TD*%
%TO.C,KiKit_MB_6_4*%
X48128000Y-51798000D03*
%TD*%
D24*
%TO.C,R1*%
X66592000Y-19000000D03*
X66592000Y-17000000D03*
%TD*%
D11*
%TO.C,KiKit_MB_8_7*%
X77692000Y-35936000D03*
%TD*%
%TO.C,KiKit_MB_6_6*%
X9730667Y-35936000D03*
%TD*%
D17*
%TO.C,C3*%
X81592000Y-16725000D03*
X81592000Y-14650000D03*
%TD*%
D11*
%TO.C,KiKit_MB_5_6*%
X48128000Y-44831666D03*
%TD*%
%TO.C,KiKit_MB_8_2*%
X73525334Y-35936000D03*
%TD*%
D18*
%TO.C,C4*%
X67096000Y-5524000D03*
X74496000Y-5524000D03*
%TD*%
D29*
%TO.C,JPROG1*%
X61796000Y-2349000D03*
D30*
X61796000Y-4889000D03*
X61796000Y-7429000D03*
%TD*%
D17*
%TO.C,C1*%
X66592000Y-14675000D03*
X66592000Y-12600000D03*
%TD*%
D11*
%TO.C,KiKit_MB_1_5*%
X7230667Y-33000000D03*
%TD*%
D17*
%TO.C,C1*%
X15464000Y-14675000D03*
X15464000Y-12600000D03*
%TD*%
D23*
%TO.C,C8*%
X4359000Y-15788000D03*
X2284000Y-15788000D03*
%TD*%
%TO.C,C9*%
X4396500Y-18388000D03*
X2321500Y-18388000D03*
%TD*%
D32*
%TO.C,.R1*%
X62492000Y-44750000D03*
D33*
X87892000Y-44750000D03*
%TD*%
D11*
%TO.C,KiKit_MB_2_5*%
X15230667Y-33000000D03*
%TD*%
%TO.C,KiKit_MB_6_3*%
X7230667Y-35936000D03*
%TD*%
%TO.C,KiKit_MB_9_5*%
X51192000Y-16432667D03*
%TD*%
D27*
%TO.C,H4*%
X55192000Y-29000000D03*
%TD*%
D11*
%TO.C,KiKit_MB_5_7*%
X88692000Y-33000000D03*
%TD*%
%TO.C,KiKit_MB_11_3*%
X53853082Y-36164183D03*
%TD*%
D15*
%TO.C,J1*%
X34064000Y-27500000D03*
D16*
X38024000Y-27500000D03*
%TD*%
D11*
%TO.C,KiKit_MB_9_1*%
X51192000Y-19766000D03*
%TD*%
%TO.C,KiKit_MB_2_3*%
X48064000Y-16432667D03*
%TD*%
D17*
%TO.C,C10*%
X91192000Y-14500000D03*
X91192000Y-12425000D03*
%TD*%
D11*
%TO.C,KiKit_MB_5_1*%
X48128000Y-40665000D03*
%TD*%
%TO.C,KiKit_MB_11_14*%
X53277419Y-32511295D03*
%TD*%
D18*
%TO.C,C6*%
X29828000Y-5524000D03*
X37228000Y-5524000D03*
%TD*%
D11*
%TO.C,KiKit_MB_6_6*%
X60858667Y-35936000D03*
%TD*%
D13*
%TO.C,.D2*%
X75192000Y-51250000D03*
D14*
X75192000Y-53790000D03*
%TD*%
D11*
%TO.C,KiKit_MB_5_7*%
X48128000Y-45665000D03*
%TD*%
%TO.C,KiKit_MB_10_1*%
X37564000Y-35936000D03*
%TD*%
%TO.C,KiKit_MB_1_6*%
X57525334Y-33000000D03*
%TD*%
%TO.C,KiKit_MB_7_7*%
X18564000Y-35936000D03*
%TD*%
%TO.C,KiKit_MB_10_6*%
X92858666Y-35936000D03*
%TD*%
%TO.C,KiKit_MB_4_11*%
X43738268Y-35936000D03*
%TD*%
%TO.C,KiKit_MB_4_6*%
X42679755Y-33000000D03*
%TD*%
%TO.C,KiKit_MB_9_7*%
X85692000Y-35936000D03*
%TD*%
D31*
%TO.C,D1*%
X76242000Y-24000000D03*
X74142000Y-24000000D03*
%TD*%
D11*
%TO.C,KiKit_MB_3_1*%
X77692000Y-33000000D03*
%TD*%
%TO.C,KiKit_MB_12_5*%
X51128000Y-42331666D03*
%TD*%
%TO.C,KiKit_MB_8_3*%
X51192000Y-9466334D03*
%TD*%
D23*
%TO.C,C9*%
X55524500Y-18388000D03*
X53449500Y-18388000D03*
%TD*%
D24*
%TO.C,R2*%
X69592000Y-19000000D03*
X69592000Y-17000000D03*
%TD*%
D11*
%TO.C,KiKit_MB_6_2*%
X6397334Y-35936000D03*
%TD*%
%TO.C,KiKit_MB_10_7*%
X93692000Y-35936000D03*
%TD*%
%TO.C,KiKit_MB_14_3*%
X51128000Y-61264333D03*
%TD*%
%TO.C,KiKit_MB_8_1*%
X51192000Y-11133000D03*
%TD*%
%TO.C,KiKit_MB_10_2*%
X38397333Y-35936000D03*
%TD*%
%TO.C,KiKit_MB_4_1*%
X34564000Y-33000000D03*
%TD*%
%TO.C,KiKit_MB_11_11*%
X55731038Y-33000000D03*
%TD*%
D29*
%TO.C,JSPK1*%
X95792000Y-17724000D03*
D30*
X95792000Y-15184000D03*
%TD*%
D11*
%TO.C,KiKit_MB_6_2*%
X57525334Y-35936000D03*
%TD*%
%TO.C,KiKit_MB_4_5*%
X82358666Y-33000000D03*
%TD*%
%TO.C,KiKit_MB_14_4*%
X51128000Y-60431000D03*
%TD*%
%TO.C,KiKit_MB_6_4*%
X8064000Y-35936000D03*
%TD*%
D10*
%TO.C,IC2*%
X84016000Y-18400000D03*
X85286000Y-18400000D03*
X86556000Y-18400000D03*
X87826000Y-18400000D03*
X87826000Y-12976000D03*
X86556000Y-12976000D03*
X85286000Y-12976000D03*
X84016000Y-12976000D03*
%TD*%
D11*
%TO.C,KiKit_MB_2_6*%
X14397334Y-33000000D03*
%TD*%
%TO.C,KiKit_MB_8_5*%
X24897333Y-35936000D03*
%TD*%
D17*
%TO.C,C5*%
X21539000Y-14675000D03*
X21539000Y-12600000D03*
%TD*%
D11*
%TO.C,KiKit_MB_11_10*%
X56576243Y-33000000D03*
%TD*%
%TO.C,KiKit_MB_4_1*%
X46672844Y-32032000D03*
%TD*%
%TO.C,KiKit_MB_8_3*%
X74358667Y-35936000D03*
%TD*%
%TO.C,KiKit_MB_1_2*%
X60858667Y-33000000D03*
%TD*%
D18*
%TO.C,C6*%
X80956000Y-5524000D03*
X88356000Y-5524000D03*
%TD*%
D11*
%TO.C,KiKit_MB_10_7*%
X42564000Y-35936000D03*
%TD*%
%TO.C,KiKit_MB_2_1*%
X69692000Y-33000000D03*
%TD*%
D32*
%TO.C,.R1*%
X11364000Y-44750000D03*
D33*
X36764000Y-44750000D03*
%TD*%
D11*
%TO.C,KiKit_MB_8_4*%
X51192000Y-8633000D03*
%TD*%
%TO.C,KiKit_MB_9_2*%
X81525333Y-35936000D03*
%TD*%
D22*
%TO.C,.H2*%
X95192000Y-40000000D03*
%TD*%
D29*
%TO.C,JSPK1*%
X44664000Y-17724000D03*
D30*
X44664000Y-15184000D03*
%TD*%
D22*
%TO.C,.H1*%
X4064000Y-40000000D03*
%TD*%
%TO.C,.H4*%
X44064000Y-65000000D03*
%TD*%
D27*
%TO.C,H2*%
X44064000Y-4000000D03*
%TD*%
D11*
%TO.C,KiKit_MB_5_6*%
X89525333Y-33000000D03*
%TD*%
%TO.C,KiKit_MB_5_2*%
X41730666Y-33000000D03*
%TD*%
%TO.C,KiKit_MB_13_4*%
X51128000Y-51798000D03*
%TD*%
D28*
%TO.C,.R2*%
X68192000Y-51500000D03*
X68192000Y-53500000D03*
%TD*%
D11*
%TO.C,KiKit_MB_1_5*%
X48064000Y-9466334D03*
%TD*%
%TO.C,KiKit_MB_3_2*%
X25730666Y-33000000D03*
%TD*%
%TO.C,KiKit_MB_7_5*%
X68025334Y-35936000D03*
%TD*%
%TO.C,KiKit_MB_10_6*%
X41730666Y-35936000D03*
%TD*%
%TO.C,KiKit_MB_9_6*%
X51192000Y-15599334D03*
%TD*%
D15*
%TO.C,J1*%
X85192000Y-27500000D03*
D16*
X89152000Y-27500000D03*
%TD*%
D11*
%TO.C,KiKit_MB_7_7*%
X69692000Y-35936000D03*
%TD*%
%TO.C,KiKit_MB_1_1*%
X61692000Y-33000000D03*
%TD*%
%TO.C,KiKit_MB_4_13*%
X45402916Y-36164183D03*
%TD*%
%TO.C,KiKit_MB_5_5*%
X48128000Y-43998333D03*
%TD*%
%TO.C,KiKit_MB_1_1*%
X10564000Y-33000000D03*
%TD*%
D27*
%TO.C,H1*%
X4064000Y-4000000D03*
%TD*%
D11*
%TO.C,KiKit_MB_4_14*%
X46166256Y-36523175D03*
%TD*%
%TO.C,KiKit_MB_9_5*%
X84025333Y-35936000D03*
%TD*%
D17*
%TO.C,C2*%
X69592000Y-14675000D03*
X69592000Y-12600000D03*
%TD*%
D28*
%TO.C,R3*%
X40064000Y-17000000D03*
X40064000Y-19000000D03*
%TD*%
D11*
%TO.C,KiKit_MB_3_5*%
X48064000Y-26732334D03*
%TD*%
%TO.C,KiKit_MB_1_6*%
X6397334Y-33000000D03*
%TD*%
%TO.C,KiKit_MB_5_2*%
X92858666Y-33000000D03*
%TD*%
%TO.C,KiKit_MB_10_3*%
X39230666Y-35936000D03*
%TD*%
%TO.C,KiKit_MB_4_2*%
X45978579Y-32511295D03*
%TD*%
%TO.C,KiKit_MB_14_6*%
X51128000Y-58764333D03*
%TD*%
D28*
%TO.C,R3*%
X91192000Y-17000000D03*
X91192000Y-19000000D03*
%TD*%
D11*
%TO.C,KiKit_MB_12_4*%
X51128000Y-43165000D03*
%TD*%
%TO.C,KiKit_MB_1_4*%
X48064000Y-8633000D03*
%TD*%
D12*
%TO.C,R4*%
X9652000Y-10477000D03*
X11652000Y-10477000D03*
%TD*%
D11*
%TO.C,KiKit_MB_13_5*%
X51128000Y-50964666D03*
%TD*%
%TO.C,KiKit_MB_11_1*%
X52416877Y-37032000D03*
%TD*%
%TO.C,KiKit_MB_11_8*%
X56692000Y-34574653D03*
%TD*%
%TO.C,KiKit_MB_2_1*%
X48064000Y-14766000D03*
%TD*%
D34*
%TO.C,.D1*%
X72854500Y-52500000D03*
X77529500Y-52500000D03*
%TD*%
D11*
%TO.C,KiKit_MB_7_6*%
X68858667Y-35936000D03*
%TD*%
D22*
%TO.C,.H3*%
X4064000Y-65000000D03*
%TD*%
D11*
%TO.C,KiKit_MB_5_5*%
X39230666Y-33000000D03*
%TD*%
D27*
%TO.C,H1*%
X55192000Y-4000000D03*
%TD*%
%TO.C,H3*%
X95192000Y-29000000D03*
%TD*%
D11*
%TO.C,KiKit_MB_13_3*%
X51128000Y-52631333D03*
%TD*%
%TO.C,KiKit_MB_5_5*%
X90358666Y-33000000D03*
%TD*%
%TO.C,KiKit_MB_12_7*%
X51128000Y-40665000D03*
%TD*%
%TO.C,KiKit_MB_3_6*%
X73525334Y-33000000D03*
%TD*%
%TO.C,KiKit_MB_2_2*%
X17730667Y-33000000D03*
%TD*%
%TO.C,KiKit_MB_5_3*%
X48128000Y-42331666D03*
%TD*%
%TO.C,KiKit_MB_8_6*%
X25730666Y-35936000D03*
%TD*%
%TO.C,KiKit_MB_6_3*%
X48128000Y-50964666D03*
%TD*%
%TO.C,KiKit_MB_13_2*%
X51128000Y-53464666D03*
%TD*%
%TO.C,KiKit_MB_3_5*%
X23230667Y-33000000D03*
%TD*%
D15*
%TO.C,.J1*%
X34064000Y-63500000D03*
D16*
X38024000Y-63500000D03*
%TD*%
D11*
%TO.C,KiKit_MB_3_3*%
X48064000Y-25065667D03*
%TD*%
%TO.C,KiKit_MB_2_4*%
X16064000Y-33000000D03*
%TD*%
%TO.C,KiKit_MB_10_5*%
X40897333Y-35936000D03*
%TD*%
D34*
%TO.C,.D1*%
X21726500Y-52500000D03*
X26401500Y-52500000D03*
%TD*%
D11*
%TO.C,KiKit_MB_12_3*%
X51128000Y-43998333D03*
%TD*%
%TO.C,KiKit_MB_11_4*%
X54674049Y-35970452D03*
%TD*%
%TO.C,KiKit_MB_3_3*%
X24897333Y-33000000D03*
%TD*%
M02*
